G04 #@! TF.GenerationSoftware,KiCad,Pcbnew,8.0.1-8.0.1-1~ubuntu22.04.1*
G04 #@! TF.CreationDate,2024-04-10T22:34:19-04:00*
G04 #@! TF.ProjectId,breakout-tt4-qfn,62726561-6b6f-4757-942d-7474342d7166,3.3*
G04 #@! TF.SameCoordinates,PX2dc6c00PY42c1d80*
G04 #@! TF.FileFunction,Paste,Top*
G04 #@! TF.FilePolarity,Positive*
%FSLAX46Y46*%
G04 Gerber Fmt 4.6, Leading zero omitted, Abs format (unit mm)*
G04 Created by KiCad (PCBNEW 8.0.1-8.0.1-1~ubuntu22.04.1) date 2024-04-10 22:34:19*
%MOMM*%
%LPD*%
G01*
G04 APERTURE LIST*
G04 Aperture macros list*
%AMRoundRect*
0 Rectangle with rounded corners*
0 $1 Rounding radius*
0 $2 $3 $4 $5 $6 $7 $8 $9 X,Y pos of 4 corners*
0 Add a 4 corners polygon primitive as box body*
4,1,4,$2,$3,$4,$5,$6,$7,$8,$9,$2,$3,0*
0 Add four circle primitives for the rounded corners*
1,1,$1+$1,$2,$3*
1,1,$1+$1,$4,$5*
1,1,$1+$1,$6,$7*
1,1,$1+$1,$8,$9*
0 Add four rect primitives between the rounded corners*
20,1,$1+$1,$2,$3,$4,$5,0*
20,1,$1+$1,$4,$5,$6,$7,0*
20,1,$1+$1,$6,$7,$8,$9,0*
20,1,$1+$1,$8,$9,$2,$3,0*%
G04 Aperture macros list end*
%ADD10RoundRect,0.140000X0.140000X0.170000X-0.140000X0.170000X-0.140000X-0.170000X0.140000X-0.170000X0*%
%ADD11RoundRect,0.140000X0.170000X-0.140000X0.170000X0.140000X-0.170000X0.140000X-0.170000X-0.140000X0*%
%ADD12RoundRect,0.140000X-0.170000X0.140000X-0.170000X-0.140000X0.170000X-0.140000X0.170000X0.140000X0*%
%ADD13RoundRect,0.140000X-0.140000X-0.170000X0.140000X-0.170000X0.140000X0.170000X-0.140000X0.170000X0*%
%ADD14RoundRect,0.426577X-0.452173X0.480923X-0.452173X-0.480923X0.452173X-0.480923X0.452173X0.480923X0*%
%ADD15RoundRect,0.426577X-0.452173X0.573423X-0.452173X-0.573423X0.452173X-0.573423X0.452173X0.573423X0*%
%ADD16RoundRect,0.485436X-0.514564X0.614564X-0.514564X-0.614564X0.514564X-0.614564X0.514564X0.614564X0*%
%ADD17RoundRect,0.062500X-0.062500X0.362500X-0.062500X-0.362500X0.062500X-0.362500X0.062500X0.362500X0*%
%ADD18RoundRect,0.062500X-0.362500X0.062500X-0.362500X-0.062500X0.362500X-0.062500X0.362500X0.062500X0*%
%ADD19RoundRect,0.225000X0.335876X0.017678X0.017678X0.335876X-0.335876X-0.017678X-0.017678X-0.335876X0*%
G04 APERTURE END LIST*
D10*
X29380000Y31700000D03*
X28420000Y31700000D03*
D11*
X28500000Y22520000D03*
X28500000Y23480000D03*
D12*
X22000000Y21680000D03*
X22000000Y20720000D03*
X16500000Y33480000D03*
X16500000Y32520000D03*
D13*
X15520000Y31200000D03*
X16480000Y31200000D03*
D10*
X15980000Y25000000D03*
X15020000Y25000000D03*
D12*
X22200000Y35280000D03*
X22200000Y34320000D03*
X28400000Y33880000D03*
X28400000Y32920000D03*
X25900000Y21880000D03*
X25900000Y20920000D03*
D14*
X25000000Y30600000D03*
X22500000Y30600000D03*
X20000000Y30600000D03*
D15*
X25000000Y28000000D03*
D16*
X22500000Y28000000D03*
D15*
X20000000Y28000000D03*
D14*
X25000000Y25400000D03*
X22500000Y25400000D03*
X20000000Y25400000D03*
D17*
X26250000Y32450000D03*
X25750000Y32450000D03*
X25250000Y32450000D03*
X24750000Y32450000D03*
X24250000Y32450000D03*
X23750000Y32450000D03*
X23250000Y32450000D03*
X22750000Y32450000D03*
X22250000Y32450000D03*
X21750000Y32450000D03*
X21250000Y32450000D03*
X20750000Y32450000D03*
X20250000Y32450000D03*
X19750000Y32450000D03*
X19250000Y32450000D03*
X18750000Y32450000D03*
D18*
X18050000Y31750000D03*
X18050000Y31250000D03*
X18050000Y30750000D03*
X18050000Y30250000D03*
X18050000Y29750000D03*
X18050000Y29250000D03*
X18050000Y28750000D03*
X18050000Y28250000D03*
X18050000Y27750000D03*
X18050000Y27250000D03*
X18050000Y26750000D03*
X18050000Y26250000D03*
X18050000Y25750000D03*
X18050000Y25250000D03*
X18050000Y24750000D03*
X18050000Y24250000D03*
D17*
X18750000Y23550000D03*
X19250000Y23550000D03*
X19750000Y23550000D03*
X20250000Y23550000D03*
X20750000Y23550000D03*
X21250000Y23550000D03*
X21750000Y23550000D03*
X22250000Y23550000D03*
X22750000Y23550000D03*
X23250000Y23550000D03*
X23750000Y23550000D03*
X24250000Y23550000D03*
X24750000Y23550000D03*
X25250000Y23550000D03*
X25750000Y23550000D03*
X26250000Y23550000D03*
D18*
X26950000Y24250000D03*
X26950000Y24750000D03*
X26950000Y25250000D03*
X26950000Y25750000D03*
X26950000Y26250000D03*
X26950000Y26750000D03*
X26950000Y27250000D03*
X26950000Y27750000D03*
X26950000Y28250000D03*
X26950000Y28750000D03*
X26950000Y29250000D03*
X26950000Y29750000D03*
X26950000Y30250000D03*
X26950000Y30750000D03*
X26950000Y31250000D03*
X26950000Y31750000D03*
D19*
X12898008Y35901992D03*
X11801992Y36998008D03*
M02*
