G04 #@! TF.GenerationSoftware,KiCad,Pcbnew,8.0.1-8.0.1-1~ubuntu22.04.1*
G04 #@! TF.CreationDate,2024-04-10T22:34:19-04:00*
G04 #@! TF.ProjectId,breakout-tt4-qfn,62726561-6b6f-4757-942d-7474342d7166,3.3*
G04 #@! TF.SameCoordinates,PX2dc6c00PY42c1d80*
G04 #@! TF.FileFunction,Paste,Bot*
G04 #@! TF.FilePolarity,Positive*
%FSLAX46Y46*%
G04 Gerber Fmt 4.6, Leading zero omitted, Abs format (unit mm)*
G04 Created by KiCad (PCBNEW 8.0.1-8.0.1-1~ubuntu22.04.1) date 2024-04-10 22:34:19*
%MOMM*%
%LPD*%
G01*
G04 APERTURE LIST*
%ADD10R,3.000000X1.000000*%
G04 APERTURE END LIST*
D10*
X37980000Y50130000D03*
X43020000Y50130000D03*
X37980000Y47590000D03*
X43020000Y47590000D03*
X37980000Y45050000D03*
X43020000Y45050000D03*
X37980000Y42510000D03*
X43020000Y42510000D03*
X37980000Y39970000D03*
X43020000Y39970000D03*
X37980000Y37430000D03*
X43020000Y37430000D03*
X37980000Y34890000D03*
X43020000Y34890000D03*
X37980000Y32350000D03*
X43020000Y32350000D03*
X37980000Y29810000D03*
X43020000Y29810000D03*
X37980000Y27270000D03*
X43020000Y27270000D03*
X37980000Y24730000D03*
X43020000Y24730000D03*
X37980000Y22190000D03*
X43020000Y22190000D03*
X37980000Y19650000D03*
X43020000Y19650000D03*
X37980000Y17110000D03*
X43020000Y17110000D03*
X37980000Y14570000D03*
X43020000Y14570000D03*
X37980000Y12030000D03*
X43020000Y12030000D03*
X37980000Y9490000D03*
X43020000Y9490000D03*
X37980000Y6950000D03*
X43020000Y6950000D03*
X37980000Y4410000D03*
X43020000Y4410000D03*
X37980000Y1870000D03*
X43020000Y1870000D03*
X1980000Y50130000D03*
X7020000Y50130000D03*
X1980000Y47590000D03*
X7020000Y47590000D03*
X1980000Y45050000D03*
X7020000Y45050000D03*
X1980000Y42510000D03*
X7020000Y42510000D03*
X1980000Y39970000D03*
X7020000Y39970000D03*
X1980000Y37430000D03*
X7020000Y37430000D03*
X1980000Y34890000D03*
X7020000Y34890000D03*
X1980000Y32350000D03*
X7020000Y32350000D03*
X1980000Y29810000D03*
X7020000Y29810000D03*
X1980000Y27270000D03*
X7020000Y27270000D03*
X1980000Y24730000D03*
X7020000Y24730000D03*
X1980000Y22190000D03*
X7020000Y22190000D03*
X1980000Y19650000D03*
X7020000Y19650000D03*
X1980000Y17110000D03*
X7020000Y17110000D03*
X1980000Y14570000D03*
X7020000Y14570000D03*
X1980000Y12030000D03*
X7020000Y12030000D03*
X1980000Y9490000D03*
X7020000Y9490000D03*
X1980000Y6950000D03*
X7020000Y6950000D03*
X1980000Y4410000D03*
X7020000Y4410000D03*
X1980000Y1870000D03*
X7020000Y1870000D03*
M02*
