M48
; DRILL file {KiCad 9.0.1} date 2026-05-11T16:32:47-0700
; FORMAT={3:3/ absolute / metric / suppress leading zeros}
; #@! TF.CreationDate,2026-05-11T16:32:47-07:00
; #@! TF.GenerationSoftware,Kicad,Pcbnew,9.0.1
; #@! TF.FileFunction,MixedPlating,1,2
FMAT,2
METRIC,TZ
; #@! TA.AperFunction,Plated,PTH,ViaDrill
T1C0.300
; #@! TA.AperFunction,Plated,PTH,ComponentDrill
T2C0.300
; #@! TA.AperFunction,NonPlated,NPTH,ComponentDrill
T3C1.300
%
G90
G05
T1
X1854Y46279
X1861Y41000
X2000Y33500
X2000Y21000
X2000Y13250
X2921Y49073
X3400Y7600
X3500Y1300
X3600Y30400
X3600Y26700
X3600Y10100
X3600Y5000
X6985Y41326
X7000Y48900
X7000Y28300
X8412Y12488
X8500Y36800
X8500Y5100
X8600Y29200
X8600Y7600
X8644Y31833
X8700Y9800
X8809Y40000
X9000Y14500
X9000Y2000
X12205Y33405
X12416Y36198
X13437Y24841
X14900Y31700
X15392Y27076
X15600Y33200
X16100Y47950
X16155Y34155
X16369Y28573
X16450Y30305
X16700Y25550
X21400Y22600
X21400Y21600
X21498Y34550
X21552Y33643
X21666Y12675
X22000Y47000
X22000Y36000
X22127Y20100
X25146Y35687
X26137Y34997
X26213Y33934
X26365Y10439
X26500Y22000
X26500Y20500
X27100Y32900
X27600Y33800
X28100Y25611
X28369Y27771
X28500Y21500
X29410Y22672
X29500Y10500
X30081Y31782
X30886Y17958
X31700Y30954
X31852Y36957
X31909Y18752
X32004Y35839
X32055Y34849
X32918Y20752
X33706Y36398
X34606Y34379
X34680Y32438
X35350Y48650
X35611Y19990
X35945Y35502
X36000Y11970
X36200Y9500
X36200Y4500
X36800Y45050
X37800Y48400
X39116Y38940
X40615Y34544
X40716Y32664
X41300Y12700
X42300Y25500
X42400Y43200
X42500Y45900
X42500Y41000
X43000Y51000
X43000Y48500
X43000Y38500
X43000Y28500
X43000Y23500
X43000Y10500
X43000Y8000
X43000Y5500
X43000Y3000
T2
X1900Y51800
X1900Y48900
X1950Y38550
X1950Y36150
X2000Y5650
X2000Y3100
X4450Y44350
X4450Y38400
X4450Y28700
X4450Y23150
X4450Y15800
X4450Y7550
X5900Y51800
X9100Y11350
X9100Y8950
X9150Y33100
X9900Y51800
X9900Y5250
X10000Y26600
X10100Y36550
X10900Y30100
X13900Y51800
X13900Y27100
X13900Y1700
X14600Y41800
X14600Y16300
X14600Y13700
X14600Y11350
X14600Y8950
X14600Y5250
X14700Y35850
X14800Y47550
X16100Y23000
X16400Y42200
X17100Y17950
X17500Y20500
X17900Y51800
X17900Y700
X17907Y46355
X20100Y36500
X20200Y18100
X20200Y10600
X20200Y5400
X20400Y41650
X21200Y29400
X21200Y26600
X21900Y51800
X22400Y46000
X22700Y6400
X22800Y13200
X23800Y29400
X23800Y26600
X25900Y51800
X25900Y700
X26400Y16700
X26600Y12200
X28500Y18100
X28500Y14300
X28600Y6400
X29350Y46200
X29700Y33800
X29900Y51800
X29900Y700
X30300Y11200
X30400Y16200
X31000Y44300
X31000Y42700
X31000Y38500
X33500Y700
X33900Y51800
X33900Y49350
X34650Y47750
X35100Y42700
X35200Y13900
X35200Y5400
X35250Y23150
X37000Y38750
X37900Y51800
X40450Y30750
X40500Y46500
X40500Y41800
X40500Y36200
X40500Y25700
X40500Y20800
X40500Y16900
X40500Y10700
X40500Y5700
X41900Y51800
X43800Y43800
T3
X4500Y48860
X4500Y3140
X40500Y48860
X40500Y3140
M30
