G04 #@! TF.GenerationSoftware,KiCad,Pcbnew,9.0.1*
G04 #@! TF.CreationDate,2026-05-11T16:32:35-07:00*
G04 #@! TF.ProjectId,breakout-tt04-qfn-openframe,62726561-6b6f-4757-942d-747430342d71,3.3*
G04 #@! TF.SameCoordinates,PX2dc6c00PY42c1d80*
G04 #@! TF.FileFunction,AssemblyDrawing,Top*
%FSLAX46Y46*%
G04 Gerber Fmt 4.6, Leading zero omitted, Abs format (unit mm)*
G04 Created by KiCad (PCBNEW 9.0.1) date 2026-05-11 16:32:35*
%MOMM*%
%LPD*%
G01*
G04 APERTURE LIST*
%ADD10C,0.150000*%
%ADD11C,0.040000*%
%ADD12C,0.060000*%
%ADD13C,0.100000*%
G04 APERTURE END LIST*
D10*
X27400000Y33405181D02*
X27495238Y33405181D01*
X27495238Y33405181D02*
X27590476Y33357562D01*
X27590476Y33357562D02*
X27638095Y33309943D01*
X27638095Y33309943D02*
X27685714Y33214705D01*
X27685714Y33214705D02*
X27733333Y33024229D01*
X27733333Y33024229D02*
X27733333Y32786134D01*
X27733333Y32786134D02*
X27685714Y32595658D01*
X27685714Y32595658D02*
X27638095Y32500420D01*
X27638095Y32500420D02*
X27590476Y32452800D01*
X27590476Y32452800D02*
X27495238Y32405181D01*
X27495238Y32405181D02*
X27400000Y32405181D01*
X27400000Y32405181D02*
X27304762Y32452800D01*
X27304762Y32452800D02*
X27257143Y32500420D01*
X27257143Y32500420D02*
X27209524Y32595658D01*
X27209524Y32595658D02*
X27161905Y32786134D01*
X27161905Y32786134D02*
X27161905Y33024229D01*
X27161905Y33024229D02*
X27209524Y33214705D01*
X27209524Y33214705D02*
X27257143Y33309943D01*
X27257143Y33309943D02*
X27304762Y33357562D01*
X27304762Y33357562D02*
X27400000Y33405181D01*
X28161905Y32500420D02*
X28209524Y32452800D01*
X28209524Y32452800D02*
X28161905Y32405181D01*
X28161905Y32405181D02*
X28114286Y32452800D01*
X28114286Y32452800D02*
X28161905Y32500420D01*
X28161905Y32500420D02*
X28161905Y32405181D01*
X29161904Y32405181D02*
X28590476Y32405181D01*
X28876190Y32405181D02*
X28876190Y33405181D01*
X28876190Y33405181D02*
X28780952Y33262324D01*
X28780952Y33262324D02*
X28685714Y33167086D01*
X28685714Y33167086D02*
X28590476Y33119467D01*
X30019047Y33071848D02*
X30019047Y32405181D01*
X29590476Y33071848D02*
X29590476Y32548039D01*
X29590476Y32548039D02*
X29638095Y32452800D01*
X29638095Y32452800D02*
X29733333Y32405181D01*
X29733333Y32405181D02*
X29876190Y32405181D01*
X29876190Y32405181D02*
X29971428Y32452800D01*
X29971428Y32452800D02*
X30019047Y32500420D01*
X30352381Y33071848D02*
X30733333Y33071848D01*
X30495238Y32405181D02*
X30495238Y33262324D01*
X30495238Y33262324D02*
X30542857Y33357562D01*
X30542857Y33357562D02*
X30638095Y33405181D01*
X30638095Y33405181D02*
X30733333Y33405181D01*
D11*
X28858333Y31610235D02*
X28846429Y31598330D01*
X28846429Y31598330D02*
X28810714Y31586426D01*
X28810714Y31586426D02*
X28786905Y31586426D01*
X28786905Y31586426D02*
X28751191Y31598330D01*
X28751191Y31598330D02*
X28727381Y31622140D01*
X28727381Y31622140D02*
X28715476Y31645950D01*
X28715476Y31645950D02*
X28703572Y31693569D01*
X28703572Y31693569D02*
X28703572Y31729283D01*
X28703572Y31729283D02*
X28715476Y31776902D01*
X28715476Y31776902D02*
X28727381Y31800711D01*
X28727381Y31800711D02*
X28751191Y31824521D01*
X28751191Y31824521D02*
X28786905Y31836426D01*
X28786905Y31836426D02*
X28810714Y31836426D01*
X28810714Y31836426D02*
X28846429Y31824521D01*
X28846429Y31824521D02*
X28858333Y31812616D01*
X28941667Y31836426D02*
X29108333Y31836426D01*
X29108333Y31836426D02*
X29001191Y31586426D01*
D10*
X29114819Y21500001D02*
X29114819Y21595239D01*
X29114819Y21595239D02*
X29162438Y21690477D01*
X29162438Y21690477D02*
X29210057Y21738096D01*
X29210057Y21738096D02*
X29305295Y21785715D01*
X29305295Y21785715D02*
X29495771Y21833334D01*
X29495771Y21833334D02*
X29733866Y21833334D01*
X29733866Y21833334D02*
X29924342Y21785715D01*
X29924342Y21785715D02*
X30019580Y21738096D01*
X30019580Y21738096D02*
X30067200Y21690477D01*
X30067200Y21690477D02*
X30114819Y21595239D01*
X30114819Y21595239D02*
X30114819Y21500001D01*
X30114819Y21500001D02*
X30067200Y21404763D01*
X30067200Y21404763D02*
X30019580Y21357144D01*
X30019580Y21357144D02*
X29924342Y21309525D01*
X29924342Y21309525D02*
X29733866Y21261906D01*
X29733866Y21261906D02*
X29495771Y21261906D01*
X29495771Y21261906D02*
X29305295Y21309525D01*
X29305295Y21309525D02*
X29210057Y21357144D01*
X29210057Y21357144D02*
X29162438Y21404763D01*
X29162438Y21404763D02*
X29114819Y21500001D01*
X30019580Y22261906D02*
X30067200Y22309525D01*
X30067200Y22309525D02*
X30114819Y22261906D01*
X30114819Y22261906D02*
X30067200Y22214287D01*
X30067200Y22214287D02*
X30019580Y22261906D01*
X30019580Y22261906D02*
X30114819Y22261906D01*
X30114819Y23261905D02*
X30114819Y22690477D01*
X30114819Y22976191D02*
X29114819Y22976191D01*
X29114819Y22976191D02*
X29257676Y22880953D01*
X29257676Y22880953D02*
X29352914Y22785715D01*
X29352914Y22785715D02*
X29400533Y22690477D01*
X29448152Y24119048D02*
X30114819Y24119048D01*
X29448152Y23690477D02*
X29971961Y23690477D01*
X29971961Y23690477D02*
X30067200Y23738096D01*
X30067200Y23738096D02*
X30114819Y23833334D01*
X30114819Y23833334D02*
X30114819Y23976191D01*
X30114819Y23976191D02*
X30067200Y24071429D01*
X30067200Y24071429D02*
X30019580Y24119048D01*
X29448152Y24452382D02*
X29448152Y24833334D01*
X30114819Y24595239D02*
X29257676Y24595239D01*
X29257676Y24595239D02*
X29162438Y24642858D01*
X29162438Y24642858D02*
X29114819Y24738096D01*
X29114819Y24738096D02*
X29114819Y24833334D01*
D11*
X28589765Y22958334D02*
X28601670Y22946430D01*
X28601670Y22946430D02*
X28613574Y22910715D01*
X28613574Y22910715D02*
X28613574Y22886906D01*
X28613574Y22886906D02*
X28601670Y22851192D01*
X28601670Y22851192D02*
X28577860Y22827382D01*
X28577860Y22827382D02*
X28554050Y22815477D01*
X28554050Y22815477D02*
X28506431Y22803573D01*
X28506431Y22803573D02*
X28470717Y22803573D01*
X28470717Y22803573D02*
X28423098Y22815477D01*
X28423098Y22815477D02*
X28399289Y22827382D01*
X28399289Y22827382D02*
X28375479Y22851192D01*
X28375479Y22851192D02*
X28363574Y22886906D01*
X28363574Y22886906D02*
X28363574Y22910715D01*
X28363574Y22910715D02*
X28375479Y22946430D01*
X28375479Y22946430D02*
X28387384Y22958334D01*
X28613574Y23196430D02*
X28613574Y23053573D01*
X28613574Y23125001D02*
X28363574Y23125001D01*
X28363574Y23125001D02*
X28399289Y23101192D01*
X28399289Y23101192D02*
X28423098Y23077382D01*
X28423098Y23077382D02*
X28435003Y23053573D01*
D10*
X20294819Y19700001D02*
X20294819Y19795239D01*
X20294819Y19795239D02*
X20342438Y19890477D01*
X20342438Y19890477D02*
X20390057Y19938096D01*
X20390057Y19938096D02*
X20485295Y19985715D01*
X20485295Y19985715D02*
X20675771Y20033334D01*
X20675771Y20033334D02*
X20913866Y20033334D01*
X20913866Y20033334D02*
X21104342Y19985715D01*
X21104342Y19985715D02*
X21199580Y19938096D01*
X21199580Y19938096D02*
X21247200Y19890477D01*
X21247200Y19890477D02*
X21294819Y19795239D01*
X21294819Y19795239D02*
X21294819Y19700001D01*
X21294819Y19700001D02*
X21247200Y19604763D01*
X21247200Y19604763D02*
X21199580Y19557144D01*
X21199580Y19557144D02*
X21104342Y19509525D01*
X21104342Y19509525D02*
X20913866Y19461906D01*
X20913866Y19461906D02*
X20675771Y19461906D01*
X20675771Y19461906D02*
X20485295Y19509525D01*
X20485295Y19509525D02*
X20390057Y19557144D01*
X20390057Y19557144D02*
X20342438Y19604763D01*
X20342438Y19604763D02*
X20294819Y19700001D01*
X21199580Y20461906D02*
X21247200Y20509525D01*
X21247200Y20509525D02*
X21294819Y20461906D01*
X21294819Y20461906D02*
X21247200Y20414287D01*
X21247200Y20414287D02*
X21199580Y20461906D01*
X21199580Y20461906D02*
X21294819Y20461906D01*
X21294819Y21461905D02*
X21294819Y20890477D01*
X21294819Y21176191D02*
X20294819Y21176191D01*
X20294819Y21176191D02*
X20437676Y21080953D01*
X20437676Y21080953D02*
X20532914Y20985715D01*
X20532914Y20985715D02*
X20580533Y20890477D01*
X20628152Y22319048D02*
X21294819Y22319048D01*
X20628152Y21890477D02*
X21151961Y21890477D01*
X21151961Y21890477D02*
X21247200Y21938096D01*
X21247200Y21938096D02*
X21294819Y22033334D01*
X21294819Y22033334D02*
X21294819Y22176191D01*
X21294819Y22176191D02*
X21247200Y22271429D01*
X21247200Y22271429D02*
X21199580Y22319048D01*
X20628152Y22652382D02*
X20628152Y23033334D01*
X21294819Y22795239D02*
X20437676Y22795239D01*
X20437676Y22795239D02*
X20342438Y22842858D01*
X20342438Y22842858D02*
X20294819Y22938096D01*
X20294819Y22938096D02*
X20294819Y23033334D01*
D11*
X22089765Y21158334D02*
X22101670Y21146430D01*
X22101670Y21146430D02*
X22113574Y21110715D01*
X22113574Y21110715D02*
X22113574Y21086906D01*
X22113574Y21086906D02*
X22101670Y21051192D01*
X22101670Y21051192D02*
X22077860Y21027382D01*
X22077860Y21027382D02*
X22054050Y21015477D01*
X22054050Y21015477D02*
X22006431Y21003573D01*
X22006431Y21003573D02*
X21970717Y21003573D01*
X21970717Y21003573D02*
X21923098Y21015477D01*
X21923098Y21015477D02*
X21899289Y21027382D01*
X21899289Y21027382D02*
X21875479Y21051192D01*
X21875479Y21051192D02*
X21863574Y21086906D01*
X21863574Y21086906D02*
X21863574Y21110715D01*
X21863574Y21110715D02*
X21875479Y21146430D01*
X21875479Y21146430D02*
X21887384Y21158334D01*
X21887384Y21253573D02*
X21875479Y21265477D01*
X21875479Y21265477D02*
X21863574Y21289287D01*
X21863574Y21289287D02*
X21863574Y21348811D01*
X21863574Y21348811D02*
X21875479Y21372620D01*
X21875479Y21372620D02*
X21887384Y21384525D01*
X21887384Y21384525D02*
X21911193Y21396430D01*
X21911193Y21396430D02*
X21935003Y21396430D01*
X21935003Y21396430D02*
X21970717Y21384525D01*
X21970717Y21384525D02*
X22113574Y21241668D01*
X22113574Y21241668D02*
X22113574Y21396430D01*
D10*
X14794819Y31500001D02*
X14794819Y31595239D01*
X14794819Y31595239D02*
X14842438Y31690477D01*
X14842438Y31690477D02*
X14890057Y31738096D01*
X14890057Y31738096D02*
X14985295Y31785715D01*
X14985295Y31785715D02*
X15175771Y31833334D01*
X15175771Y31833334D02*
X15413866Y31833334D01*
X15413866Y31833334D02*
X15604342Y31785715D01*
X15604342Y31785715D02*
X15699580Y31738096D01*
X15699580Y31738096D02*
X15747200Y31690477D01*
X15747200Y31690477D02*
X15794819Y31595239D01*
X15794819Y31595239D02*
X15794819Y31500001D01*
X15794819Y31500001D02*
X15747200Y31404763D01*
X15747200Y31404763D02*
X15699580Y31357144D01*
X15699580Y31357144D02*
X15604342Y31309525D01*
X15604342Y31309525D02*
X15413866Y31261906D01*
X15413866Y31261906D02*
X15175771Y31261906D01*
X15175771Y31261906D02*
X14985295Y31309525D01*
X14985295Y31309525D02*
X14890057Y31357144D01*
X14890057Y31357144D02*
X14842438Y31404763D01*
X14842438Y31404763D02*
X14794819Y31500001D01*
X15699580Y32261906D02*
X15747200Y32309525D01*
X15747200Y32309525D02*
X15794819Y32261906D01*
X15794819Y32261906D02*
X15747200Y32214287D01*
X15747200Y32214287D02*
X15699580Y32261906D01*
X15699580Y32261906D02*
X15794819Y32261906D01*
X15794819Y33261905D02*
X15794819Y32690477D01*
X15794819Y32976191D02*
X14794819Y32976191D01*
X14794819Y32976191D02*
X14937676Y32880953D01*
X14937676Y32880953D02*
X15032914Y32785715D01*
X15032914Y32785715D02*
X15080533Y32690477D01*
X15128152Y34119048D02*
X15794819Y34119048D01*
X15128152Y33690477D02*
X15651961Y33690477D01*
X15651961Y33690477D02*
X15747200Y33738096D01*
X15747200Y33738096D02*
X15794819Y33833334D01*
X15794819Y33833334D02*
X15794819Y33976191D01*
X15794819Y33976191D02*
X15747200Y34071429D01*
X15747200Y34071429D02*
X15699580Y34119048D01*
X15128152Y34452382D02*
X15128152Y34833334D01*
X15794819Y34595239D02*
X14937676Y34595239D01*
X14937676Y34595239D02*
X14842438Y34642858D01*
X14842438Y34642858D02*
X14794819Y34738096D01*
X14794819Y34738096D02*
X14794819Y34833334D01*
D11*
X16589765Y32958334D02*
X16601670Y32946430D01*
X16601670Y32946430D02*
X16613574Y32910715D01*
X16613574Y32910715D02*
X16613574Y32886906D01*
X16613574Y32886906D02*
X16601670Y32851192D01*
X16601670Y32851192D02*
X16577860Y32827382D01*
X16577860Y32827382D02*
X16554050Y32815477D01*
X16554050Y32815477D02*
X16506431Y32803573D01*
X16506431Y32803573D02*
X16470717Y32803573D01*
X16470717Y32803573D02*
X16423098Y32815477D01*
X16423098Y32815477D02*
X16399289Y32827382D01*
X16399289Y32827382D02*
X16375479Y32851192D01*
X16375479Y32851192D02*
X16363574Y32886906D01*
X16363574Y32886906D02*
X16363574Y32910715D01*
X16363574Y32910715D02*
X16375479Y32946430D01*
X16375479Y32946430D02*
X16387384Y32958334D01*
X16363574Y33172620D02*
X16363574Y33125001D01*
X16363574Y33125001D02*
X16375479Y33101192D01*
X16375479Y33101192D02*
X16387384Y33089287D01*
X16387384Y33089287D02*
X16423098Y33065477D01*
X16423098Y33065477D02*
X16470717Y33053573D01*
X16470717Y33053573D02*
X16565955Y33053573D01*
X16565955Y33053573D02*
X16589765Y33065477D01*
X16589765Y33065477D02*
X16601670Y33077382D01*
X16601670Y33077382D02*
X16613574Y33101192D01*
X16613574Y33101192D02*
X16613574Y33148811D01*
X16613574Y33148811D02*
X16601670Y33172620D01*
X16601670Y33172620D02*
X16589765Y33184525D01*
X16589765Y33184525D02*
X16565955Y33196430D01*
X16565955Y33196430D02*
X16506431Y33196430D01*
X16506431Y33196430D02*
X16482622Y33184525D01*
X16482622Y33184525D02*
X16470717Y33172620D01*
X16470717Y33172620D02*
X16458812Y33148811D01*
X16458812Y33148811D02*
X16458812Y33101192D01*
X16458812Y33101192D02*
X16470717Y33077382D01*
X16470717Y33077382D02*
X16482622Y33065477D01*
X16482622Y33065477D02*
X16506431Y33053573D01*
D10*
X14500000Y30585181D02*
X14595238Y30585181D01*
X14595238Y30585181D02*
X14690476Y30537562D01*
X14690476Y30537562D02*
X14738095Y30489943D01*
X14738095Y30489943D02*
X14785714Y30394705D01*
X14785714Y30394705D02*
X14833333Y30204229D01*
X14833333Y30204229D02*
X14833333Y29966134D01*
X14833333Y29966134D02*
X14785714Y29775658D01*
X14785714Y29775658D02*
X14738095Y29680420D01*
X14738095Y29680420D02*
X14690476Y29632800D01*
X14690476Y29632800D02*
X14595238Y29585181D01*
X14595238Y29585181D02*
X14500000Y29585181D01*
X14500000Y29585181D02*
X14404762Y29632800D01*
X14404762Y29632800D02*
X14357143Y29680420D01*
X14357143Y29680420D02*
X14309524Y29775658D01*
X14309524Y29775658D02*
X14261905Y29966134D01*
X14261905Y29966134D02*
X14261905Y30204229D01*
X14261905Y30204229D02*
X14309524Y30394705D01*
X14309524Y30394705D02*
X14357143Y30489943D01*
X14357143Y30489943D02*
X14404762Y30537562D01*
X14404762Y30537562D02*
X14500000Y30585181D01*
X15261905Y29680420D02*
X15309524Y29632800D01*
X15309524Y29632800D02*
X15261905Y29585181D01*
X15261905Y29585181D02*
X15214286Y29632800D01*
X15214286Y29632800D02*
X15261905Y29680420D01*
X15261905Y29680420D02*
X15261905Y29585181D01*
X16261904Y29585181D02*
X15690476Y29585181D01*
X15976190Y29585181D02*
X15976190Y30585181D01*
X15976190Y30585181D02*
X15880952Y30442324D01*
X15880952Y30442324D02*
X15785714Y30347086D01*
X15785714Y30347086D02*
X15690476Y30299467D01*
X17119047Y30251848D02*
X17119047Y29585181D01*
X16690476Y30251848D02*
X16690476Y29728039D01*
X16690476Y29728039D02*
X16738095Y29632800D01*
X16738095Y29632800D02*
X16833333Y29585181D01*
X16833333Y29585181D02*
X16976190Y29585181D01*
X16976190Y29585181D02*
X17071428Y29632800D01*
X17071428Y29632800D02*
X17119047Y29680420D01*
X17452381Y30251848D02*
X17833333Y30251848D01*
X17595238Y29585181D02*
X17595238Y30442324D01*
X17595238Y30442324D02*
X17642857Y30537562D01*
X17642857Y30537562D02*
X17738095Y30585181D01*
X17738095Y30585181D02*
X17833333Y30585181D01*
D11*
X15958333Y31110235D02*
X15946429Y31098330D01*
X15946429Y31098330D02*
X15910714Y31086426D01*
X15910714Y31086426D02*
X15886905Y31086426D01*
X15886905Y31086426D02*
X15851191Y31098330D01*
X15851191Y31098330D02*
X15827381Y31122140D01*
X15827381Y31122140D02*
X15815476Y31145950D01*
X15815476Y31145950D02*
X15803572Y31193569D01*
X15803572Y31193569D02*
X15803572Y31229283D01*
X15803572Y31229283D02*
X15815476Y31276902D01*
X15815476Y31276902D02*
X15827381Y31300711D01*
X15827381Y31300711D02*
X15851191Y31324521D01*
X15851191Y31324521D02*
X15886905Y31336426D01*
X15886905Y31336426D02*
X15910714Y31336426D01*
X15910714Y31336426D02*
X15946429Y31324521D01*
X15946429Y31324521D02*
X15958333Y31312616D01*
X16172619Y31253092D02*
X16172619Y31086426D01*
X16113095Y31348330D02*
X16053572Y31169759D01*
X16053572Y31169759D02*
X16208333Y31169759D01*
D10*
X14000000Y26705181D02*
X14095238Y26705181D01*
X14095238Y26705181D02*
X14190476Y26657562D01*
X14190476Y26657562D02*
X14238095Y26609943D01*
X14238095Y26609943D02*
X14285714Y26514705D01*
X14285714Y26514705D02*
X14333333Y26324229D01*
X14333333Y26324229D02*
X14333333Y26086134D01*
X14333333Y26086134D02*
X14285714Y25895658D01*
X14285714Y25895658D02*
X14238095Y25800420D01*
X14238095Y25800420D02*
X14190476Y25752800D01*
X14190476Y25752800D02*
X14095238Y25705181D01*
X14095238Y25705181D02*
X14000000Y25705181D01*
X14000000Y25705181D02*
X13904762Y25752800D01*
X13904762Y25752800D02*
X13857143Y25800420D01*
X13857143Y25800420D02*
X13809524Y25895658D01*
X13809524Y25895658D02*
X13761905Y26086134D01*
X13761905Y26086134D02*
X13761905Y26324229D01*
X13761905Y26324229D02*
X13809524Y26514705D01*
X13809524Y26514705D02*
X13857143Y26609943D01*
X13857143Y26609943D02*
X13904762Y26657562D01*
X13904762Y26657562D02*
X14000000Y26705181D01*
X14761905Y25800420D02*
X14809524Y25752800D01*
X14809524Y25752800D02*
X14761905Y25705181D01*
X14761905Y25705181D02*
X14714286Y25752800D01*
X14714286Y25752800D02*
X14761905Y25800420D01*
X14761905Y25800420D02*
X14761905Y25705181D01*
X15761904Y25705181D02*
X15190476Y25705181D01*
X15476190Y25705181D02*
X15476190Y26705181D01*
X15476190Y26705181D02*
X15380952Y26562324D01*
X15380952Y26562324D02*
X15285714Y26467086D01*
X15285714Y26467086D02*
X15190476Y26419467D01*
X16619047Y26371848D02*
X16619047Y25705181D01*
X16190476Y26371848D02*
X16190476Y25848039D01*
X16190476Y25848039D02*
X16238095Y25752800D01*
X16238095Y25752800D02*
X16333333Y25705181D01*
X16333333Y25705181D02*
X16476190Y25705181D01*
X16476190Y25705181D02*
X16571428Y25752800D01*
X16571428Y25752800D02*
X16619047Y25800420D01*
X16952381Y26371848D02*
X17333333Y26371848D01*
X17095238Y25705181D02*
X17095238Y26562324D01*
X17095238Y26562324D02*
X17142857Y26657562D01*
X17142857Y26657562D02*
X17238095Y26705181D01*
X17238095Y26705181D02*
X17333333Y26705181D01*
D11*
X15458333Y24910235D02*
X15446429Y24898330D01*
X15446429Y24898330D02*
X15410714Y24886426D01*
X15410714Y24886426D02*
X15386905Y24886426D01*
X15386905Y24886426D02*
X15351191Y24898330D01*
X15351191Y24898330D02*
X15327381Y24922140D01*
X15327381Y24922140D02*
X15315476Y24945950D01*
X15315476Y24945950D02*
X15303572Y24993569D01*
X15303572Y24993569D02*
X15303572Y25029283D01*
X15303572Y25029283D02*
X15315476Y25076902D01*
X15315476Y25076902D02*
X15327381Y25100711D01*
X15327381Y25100711D02*
X15351191Y25124521D01*
X15351191Y25124521D02*
X15386905Y25136426D01*
X15386905Y25136426D02*
X15410714Y25136426D01*
X15410714Y25136426D02*
X15446429Y25124521D01*
X15446429Y25124521D02*
X15458333Y25112616D01*
X15541667Y25136426D02*
X15696429Y25136426D01*
X15696429Y25136426D02*
X15613095Y25041188D01*
X15613095Y25041188D02*
X15648810Y25041188D01*
X15648810Y25041188D02*
X15672619Y25029283D01*
X15672619Y25029283D02*
X15684524Y25017378D01*
X15684524Y25017378D02*
X15696429Y24993569D01*
X15696429Y24993569D02*
X15696429Y24934045D01*
X15696429Y24934045D02*
X15684524Y24910235D01*
X15684524Y24910235D02*
X15672619Y24898330D01*
X15672619Y24898330D02*
X15648810Y24886426D01*
X15648810Y24886426D02*
X15577381Y24886426D01*
X15577381Y24886426D02*
X15553572Y24898330D01*
X15553572Y24898330D02*
X15541667Y24910235D01*
D10*
X20494819Y33300001D02*
X20494819Y33395239D01*
X20494819Y33395239D02*
X20542438Y33490477D01*
X20542438Y33490477D02*
X20590057Y33538096D01*
X20590057Y33538096D02*
X20685295Y33585715D01*
X20685295Y33585715D02*
X20875771Y33633334D01*
X20875771Y33633334D02*
X21113866Y33633334D01*
X21113866Y33633334D02*
X21304342Y33585715D01*
X21304342Y33585715D02*
X21399580Y33538096D01*
X21399580Y33538096D02*
X21447200Y33490477D01*
X21447200Y33490477D02*
X21494819Y33395239D01*
X21494819Y33395239D02*
X21494819Y33300001D01*
X21494819Y33300001D02*
X21447200Y33204763D01*
X21447200Y33204763D02*
X21399580Y33157144D01*
X21399580Y33157144D02*
X21304342Y33109525D01*
X21304342Y33109525D02*
X21113866Y33061906D01*
X21113866Y33061906D02*
X20875771Y33061906D01*
X20875771Y33061906D02*
X20685295Y33109525D01*
X20685295Y33109525D02*
X20590057Y33157144D01*
X20590057Y33157144D02*
X20542438Y33204763D01*
X20542438Y33204763D02*
X20494819Y33300001D01*
X21399580Y34061906D02*
X21447200Y34109525D01*
X21447200Y34109525D02*
X21494819Y34061906D01*
X21494819Y34061906D02*
X21447200Y34014287D01*
X21447200Y34014287D02*
X21399580Y34061906D01*
X21399580Y34061906D02*
X21494819Y34061906D01*
X21494819Y35061905D02*
X21494819Y34490477D01*
X21494819Y34776191D02*
X20494819Y34776191D01*
X20494819Y34776191D02*
X20637676Y34680953D01*
X20637676Y34680953D02*
X20732914Y34585715D01*
X20732914Y34585715D02*
X20780533Y34490477D01*
X20828152Y35919048D02*
X21494819Y35919048D01*
X20828152Y35490477D02*
X21351961Y35490477D01*
X21351961Y35490477D02*
X21447200Y35538096D01*
X21447200Y35538096D02*
X21494819Y35633334D01*
X21494819Y35633334D02*
X21494819Y35776191D01*
X21494819Y35776191D02*
X21447200Y35871429D01*
X21447200Y35871429D02*
X21399580Y35919048D01*
X20828152Y36252382D02*
X20828152Y36633334D01*
X21494819Y36395239D02*
X20637676Y36395239D01*
X20637676Y36395239D02*
X20542438Y36442858D01*
X20542438Y36442858D02*
X20494819Y36538096D01*
X20494819Y36538096D02*
X20494819Y36633334D01*
D11*
X22289765Y34758334D02*
X22301670Y34746430D01*
X22301670Y34746430D02*
X22313574Y34710715D01*
X22313574Y34710715D02*
X22313574Y34686906D01*
X22313574Y34686906D02*
X22301670Y34651192D01*
X22301670Y34651192D02*
X22277860Y34627382D01*
X22277860Y34627382D02*
X22254050Y34615477D01*
X22254050Y34615477D02*
X22206431Y34603573D01*
X22206431Y34603573D02*
X22170717Y34603573D01*
X22170717Y34603573D02*
X22123098Y34615477D01*
X22123098Y34615477D02*
X22099289Y34627382D01*
X22099289Y34627382D02*
X22075479Y34651192D01*
X22075479Y34651192D02*
X22063574Y34686906D01*
X22063574Y34686906D02*
X22063574Y34710715D01*
X22063574Y34710715D02*
X22075479Y34746430D01*
X22075479Y34746430D02*
X22087384Y34758334D01*
X22063574Y34984525D02*
X22063574Y34865477D01*
X22063574Y34865477D02*
X22182622Y34853573D01*
X22182622Y34853573D02*
X22170717Y34865477D01*
X22170717Y34865477D02*
X22158812Y34889287D01*
X22158812Y34889287D02*
X22158812Y34948811D01*
X22158812Y34948811D02*
X22170717Y34972620D01*
X22170717Y34972620D02*
X22182622Y34984525D01*
X22182622Y34984525D02*
X22206431Y34996430D01*
X22206431Y34996430D02*
X22265955Y34996430D01*
X22265955Y34996430D02*
X22289765Y34984525D01*
X22289765Y34984525D02*
X22301670Y34972620D01*
X22301670Y34972620D02*
X22313574Y34948811D01*
X22313574Y34948811D02*
X22313574Y34889287D01*
X22313574Y34889287D02*
X22301670Y34865477D01*
X22301670Y34865477D02*
X22289765Y34853573D01*
D10*
X26694819Y31900001D02*
X26694819Y31995239D01*
X26694819Y31995239D02*
X26742438Y32090477D01*
X26742438Y32090477D02*
X26790057Y32138096D01*
X26790057Y32138096D02*
X26885295Y32185715D01*
X26885295Y32185715D02*
X27075771Y32233334D01*
X27075771Y32233334D02*
X27313866Y32233334D01*
X27313866Y32233334D02*
X27504342Y32185715D01*
X27504342Y32185715D02*
X27599580Y32138096D01*
X27599580Y32138096D02*
X27647200Y32090477D01*
X27647200Y32090477D02*
X27694819Y31995239D01*
X27694819Y31995239D02*
X27694819Y31900001D01*
X27694819Y31900001D02*
X27647200Y31804763D01*
X27647200Y31804763D02*
X27599580Y31757144D01*
X27599580Y31757144D02*
X27504342Y31709525D01*
X27504342Y31709525D02*
X27313866Y31661906D01*
X27313866Y31661906D02*
X27075771Y31661906D01*
X27075771Y31661906D02*
X26885295Y31709525D01*
X26885295Y31709525D02*
X26790057Y31757144D01*
X26790057Y31757144D02*
X26742438Y31804763D01*
X26742438Y31804763D02*
X26694819Y31900001D01*
X27599580Y32661906D02*
X27647200Y32709525D01*
X27647200Y32709525D02*
X27694819Y32661906D01*
X27694819Y32661906D02*
X27647200Y32614287D01*
X27647200Y32614287D02*
X27599580Y32661906D01*
X27599580Y32661906D02*
X27694819Y32661906D01*
X27694819Y33661905D02*
X27694819Y33090477D01*
X27694819Y33376191D02*
X26694819Y33376191D01*
X26694819Y33376191D02*
X26837676Y33280953D01*
X26837676Y33280953D02*
X26932914Y33185715D01*
X26932914Y33185715D02*
X26980533Y33090477D01*
X27028152Y34519048D02*
X27694819Y34519048D01*
X27028152Y34090477D02*
X27551961Y34090477D01*
X27551961Y34090477D02*
X27647200Y34138096D01*
X27647200Y34138096D02*
X27694819Y34233334D01*
X27694819Y34233334D02*
X27694819Y34376191D01*
X27694819Y34376191D02*
X27647200Y34471429D01*
X27647200Y34471429D02*
X27599580Y34519048D01*
X27028152Y34852382D02*
X27028152Y35233334D01*
X27694819Y34995239D02*
X26837676Y34995239D01*
X26837676Y34995239D02*
X26742438Y35042858D01*
X26742438Y35042858D02*
X26694819Y35138096D01*
X26694819Y35138096D02*
X26694819Y35233334D01*
D11*
X28489765Y33239286D02*
X28501670Y33227382D01*
X28501670Y33227382D02*
X28513574Y33191667D01*
X28513574Y33191667D02*
X28513574Y33167858D01*
X28513574Y33167858D02*
X28501670Y33132144D01*
X28501670Y33132144D02*
X28477860Y33108334D01*
X28477860Y33108334D02*
X28454050Y33096429D01*
X28454050Y33096429D02*
X28406431Y33084525D01*
X28406431Y33084525D02*
X28370717Y33084525D01*
X28370717Y33084525D02*
X28323098Y33096429D01*
X28323098Y33096429D02*
X28299289Y33108334D01*
X28299289Y33108334D02*
X28275479Y33132144D01*
X28275479Y33132144D02*
X28263574Y33167858D01*
X28263574Y33167858D02*
X28263574Y33191667D01*
X28263574Y33191667D02*
X28275479Y33227382D01*
X28275479Y33227382D02*
X28287384Y33239286D01*
X28513574Y33477382D02*
X28513574Y33334525D01*
X28513574Y33405953D02*
X28263574Y33405953D01*
X28263574Y33405953D02*
X28299289Y33382144D01*
X28299289Y33382144D02*
X28323098Y33358334D01*
X28323098Y33358334D02*
X28335003Y33334525D01*
X28513574Y33715477D02*
X28513574Y33572620D01*
X28513574Y33644048D02*
X28263574Y33644048D01*
X28263574Y33644048D02*
X28299289Y33620239D01*
X28299289Y33620239D02*
X28323098Y33596429D01*
X28323098Y33596429D02*
X28335003Y33572620D01*
D10*
X32969047Y48818991D02*
X32635714Y48818991D01*
X32635714Y48295181D02*
X32635714Y49295181D01*
X32635714Y49295181D02*
X33111904Y49295181D01*
X33492857Y48295181D02*
X33492857Y48961848D01*
X33492857Y49295181D02*
X33445238Y49247562D01*
X33445238Y49247562D02*
X33492857Y49199943D01*
X33492857Y49199943D02*
X33540476Y49247562D01*
X33540476Y49247562D02*
X33492857Y49295181D01*
X33492857Y49295181D02*
X33492857Y49199943D01*
X34397618Y48295181D02*
X34397618Y49295181D01*
X34397618Y48342800D02*
X34302380Y48295181D01*
X34302380Y48295181D02*
X34111904Y48295181D01*
X34111904Y48295181D02*
X34016666Y48342800D01*
X34016666Y48342800D02*
X33969047Y48390420D01*
X33969047Y48390420D02*
X33921428Y48485658D01*
X33921428Y48485658D02*
X33921428Y48771372D01*
X33921428Y48771372D02*
X33969047Y48866610D01*
X33969047Y48866610D02*
X34016666Y48914229D01*
X34016666Y48914229D02*
X34111904Y48961848D01*
X34111904Y48961848D02*
X34302380Y48961848D01*
X34302380Y48961848D02*
X34397618Y48914229D01*
X35302380Y48961848D02*
X35302380Y48295181D01*
X34873809Y48961848D02*
X34873809Y48438039D01*
X34873809Y48438039D02*
X34921428Y48342800D01*
X34921428Y48342800D02*
X35016666Y48295181D01*
X35016666Y48295181D02*
X35159523Y48295181D01*
X35159523Y48295181D02*
X35254761Y48342800D01*
X35254761Y48342800D02*
X35302380Y48390420D01*
X36207142Y48342800D02*
X36111904Y48295181D01*
X36111904Y48295181D02*
X35921428Y48295181D01*
X35921428Y48295181D02*
X35826190Y48342800D01*
X35826190Y48342800D02*
X35778571Y48390420D01*
X35778571Y48390420D02*
X35730952Y48485658D01*
X35730952Y48485658D02*
X35730952Y48771372D01*
X35730952Y48771372D02*
X35778571Y48866610D01*
X35778571Y48866610D02*
X35826190Y48914229D01*
X35826190Y48914229D02*
X35921428Y48961848D01*
X35921428Y48961848D02*
X36111904Y48961848D01*
X36111904Y48961848D02*
X36207142Y48914229D01*
X36635714Y48295181D02*
X36635714Y48961848D01*
X36635714Y49295181D02*
X36588095Y49247562D01*
X36588095Y49247562D02*
X36635714Y49199943D01*
X36635714Y49199943D02*
X36683333Y49247562D01*
X36683333Y49247562D02*
X36635714Y49295181D01*
X36635714Y49295181D02*
X36635714Y49199943D01*
X37540475Y48295181D02*
X37540475Y48818991D01*
X37540475Y48818991D02*
X37492856Y48914229D01*
X37492856Y48914229D02*
X37397618Y48961848D01*
X37397618Y48961848D02*
X37207142Y48961848D01*
X37207142Y48961848D02*
X37111904Y48914229D01*
X37540475Y48342800D02*
X37445237Y48295181D01*
X37445237Y48295181D02*
X37207142Y48295181D01*
X37207142Y48295181D02*
X37111904Y48342800D01*
X37111904Y48342800D02*
X37064285Y48438039D01*
X37064285Y48438039D02*
X37064285Y48533277D01*
X37064285Y48533277D02*
X37111904Y48628515D01*
X37111904Y48628515D02*
X37207142Y48676134D01*
X37207142Y48676134D02*
X37445237Y48676134D01*
X37445237Y48676134D02*
X37540475Y48723753D01*
X38159523Y48295181D02*
X38064285Y48342800D01*
X38064285Y48342800D02*
X38016666Y48438039D01*
X38016666Y48438039D02*
X38016666Y49295181D01*
D12*
X34921429Y50777597D02*
X34788096Y50777597D01*
X34788096Y50568073D02*
X34788096Y50968073D01*
X34788096Y50968073D02*
X34978572Y50968073D01*
X35130953Y50568073D02*
X35130953Y50968073D01*
X35321429Y50568073D02*
X35321429Y50968073D01*
X35321429Y50968073D02*
X35416667Y50968073D01*
X35416667Y50968073D02*
X35473810Y50949025D01*
X35473810Y50949025D02*
X35511905Y50910930D01*
X35511905Y50910930D02*
X35530952Y50872835D01*
X35530952Y50872835D02*
X35550000Y50796644D01*
X35550000Y50796644D02*
X35550000Y50739501D01*
X35550000Y50739501D02*
X35530952Y50663311D01*
X35530952Y50663311D02*
X35511905Y50625216D01*
X35511905Y50625216D02*
X35473810Y50587120D01*
X35473810Y50587120D02*
X35416667Y50568073D01*
X35416667Y50568073D02*
X35321429Y50568073D01*
X35702381Y50929978D02*
X35721429Y50949025D01*
X35721429Y50949025D02*
X35759524Y50968073D01*
X35759524Y50968073D02*
X35854762Y50968073D01*
X35854762Y50968073D02*
X35892857Y50949025D01*
X35892857Y50949025D02*
X35911905Y50929978D01*
X35911905Y50929978D02*
X35930952Y50891882D01*
X35930952Y50891882D02*
X35930952Y50853787D01*
X35930952Y50853787D02*
X35911905Y50796644D01*
X35911905Y50796644D02*
X35683333Y50568073D01*
X35683333Y50568073D02*
X35930952Y50568073D01*
X34698096Y50768073D02*
X36020952Y50768073D01*
D10*
X8619047Y218991D02*
X8285714Y218991D01*
X8285714Y-304819D02*
X8285714Y695181D01*
X8285714Y695181D02*
X8761904Y695181D01*
X9142857Y-304819D02*
X9142857Y361848D01*
X9142857Y695181D02*
X9095238Y647562D01*
X9095238Y647562D02*
X9142857Y599943D01*
X9142857Y599943D02*
X9190476Y647562D01*
X9190476Y647562D02*
X9142857Y695181D01*
X9142857Y695181D02*
X9142857Y599943D01*
X10047618Y-304819D02*
X10047618Y695181D01*
X10047618Y-257200D02*
X9952380Y-304819D01*
X9952380Y-304819D02*
X9761904Y-304819D01*
X9761904Y-304819D02*
X9666666Y-257200D01*
X9666666Y-257200D02*
X9619047Y-209580D01*
X9619047Y-209580D02*
X9571428Y-114342D01*
X9571428Y-114342D02*
X9571428Y171372D01*
X9571428Y171372D02*
X9619047Y266610D01*
X9619047Y266610D02*
X9666666Y314229D01*
X9666666Y314229D02*
X9761904Y361848D01*
X9761904Y361848D02*
X9952380Y361848D01*
X9952380Y361848D02*
X10047618Y314229D01*
X10952380Y361848D02*
X10952380Y-304819D01*
X10523809Y361848D02*
X10523809Y-161961D01*
X10523809Y-161961D02*
X10571428Y-257200D01*
X10571428Y-257200D02*
X10666666Y-304819D01*
X10666666Y-304819D02*
X10809523Y-304819D01*
X10809523Y-304819D02*
X10904761Y-257200D01*
X10904761Y-257200D02*
X10952380Y-209580D01*
X11857142Y-257200D02*
X11761904Y-304819D01*
X11761904Y-304819D02*
X11571428Y-304819D01*
X11571428Y-304819D02*
X11476190Y-257200D01*
X11476190Y-257200D02*
X11428571Y-209580D01*
X11428571Y-209580D02*
X11380952Y-114342D01*
X11380952Y-114342D02*
X11380952Y171372D01*
X11380952Y171372D02*
X11428571Y266610D01*
X11428571Y266610D02*
X11476190Y314229D01*
X11476190Y314229D02*
X11571428Y361848D01*
X11571428Y361848D02*
X11761904Y361848D01*
X11761904Y361848D02*
X11857142Y314229D01*
X12285714Y-304819D02*
X12285714Y361848D01*
X12285714Y695181D02*
X12238095Y647562D01*
X12238095Y647562D02*
X12285714Y599943D01*
X12285714Y599943D02*
X12333333Y647562D01*
X12333333Y647562D02*
X12285714Y695181D01*
X12285714Y695181D02*
X12285714Y599943D01*
X13190475Y-304819D02*
X13190475Y218991D01*
X13190475Y218991D02*
X13142856Y314229D01*
X13142856Y314229D02*
X13047618Y361848D01*
X13047618Y361848D02*
X12857142Y361848D01*
X12857142Y361848D02*
X12761904Y314229D01*
X13190475Y-257200D02*
X13095237Y-304819D01*
X13095237Y-304819D02*
X12857142Y-304819D01*
X12857142Y-304819D02*
X12761904Y-257200D01*
X12761904Y-257200D02*
X12714285Y-161961D01*
X12714285Y-161961D02*
X12714285Y-66723D01*
X12714285Y-66723D02*
X12761904Y28515D01*
X12761904Y28515D02*
X12857142Y76134D01*
X12857142Y76134D02*
X13095237Y76134D01*
X13095237Y76134D02*
X13190475Y123753D01*
X13809523Y-304819D02*
X13714285Y-257200D01*
X13714285Y-257200D02*
X13666666Y-161961D01*
X13666666Y-161961D02*
X13666666Y695181D01*
D12*
X10571429Y2177597D02*
X10438096Y2177597D01*
X10438096Y1968073D02*
X10438096Y2368073D01*
X10438096Y2368073D02*
X10628572Y2368073D01*
X10780953Y1968073D02*
X10780953Y2368073D01*
X10971429Y1968073D02*
X10971429Y2368073D01*
X10971429Y2368073D02*
X11066667Y2368073D01*
X11066667Y2368073D02*
X11123810Y2349025D01*
X11123810Y2349025D02*
X11161905Y2310930D01*
X11161905Y2310930D02*
X11180952Y2272835D01*
X11180952Y2272835D02*
X11200000Y2196644D01*
X11200000Y2196644D02*
X11200000Y2139501D01*
X11200000Y2139501D02*
X11180952Y2063311D01*
X11180952Y2063311D02*
X11161905Y2025216D01*
X11161905Y2025216D02*
X11123810Y1987120D01*
X11123810Y1987120D02*
X11066667Y1968073D01*
X11066667Y1968073D02*
X10971429Y1968073D01*
X11580952Y1968073D02*
X11352381Y1968073D01*
X11466667Y1968073D02*
X11466667Y2368073D01*
X11466667Y2368073D02*
X11428571Y2310930D01*
X11428571Y2310930D02*
X11390476Y2272835D01*
X11390476Y2272835D02*
X11352381Y2253787D01*
X10348096Y2168073D02*
X11668668Y2168073D01*
D10*
X24194819Y19900001D02*
X24194819Y19995239D01*
X24194819Y19995239D02*
X24242438Y20090477D01*
X24242438Y20090477D02*
X24290057Y20138096D01*
X24290057Y20138096D02*
X24385295Y20185715D01*
X24385295Y20185715D02*
X24575771Y20233334D01*
X24575771Y20233334D02*
X24813866Y20233334D01*
X24813866Y20233334D02*
X25004342Y20185715D01*
X25004342Y20185715D02*
X25099580Y20138096D01*
X25099580Y20138096D02*
X25147200Y20090477D01*
X25147200Y20090477D02*
X25194819Y19995239D01*
X25194819Y19995239D02*
X25194819Y19900001D01*
X25194819Y19900001D02*
X25147200Y19804763D01*
X25147200Y19804763D02*
X25099580Y19757144D01*
X25099580Y19757144D02*
X25004342Y19709525D01*
X25004342Y19709525D02*
X24813866Y19661906D01*
X24813866Y19661906D02*
X24575771Y19661906D01*
X24575771Y19661906D02*
X24385295Y19709525D01*
X24385295Y19709525D02*
X24290057Y19757144D01*
X24290057Y19757144D02*
X24242438Y19804763D01*
X24242438Y19804763D02*
X24194819Y19900001D01*
X25099580Y20661906D02*
X25147200Y20709525D01*
X25147200Y20709525D02*
X25194819Y20661906D01*
X25194819Y20661906D02*
X25147200Y20614287D01*
X25147200Y20614287D02*
X25099580Y20661906D01*
X25099580Y20661906D02*
X25194819Y20661906D01*
X25194819Y21661905D02*
X25194819Y21090477D01*
X25194819Y21376191D02*
X24194819Y21376191D01*
X24194819Y21376191D02*
X24337676Y21280953D01*
X24337676Y21280953D02*
X24432914Y21185715D01*
X24432914Y21185715D02*
X24480533Y21090477D01*
X24528152Y22519048D02*
X25194819Y22519048D01*
X24528152Y22090477D02*
X25051961Y22090477D01*
X25051961Y22090477D02*
X25147200Y22138096D01*
X25147200Y22138096D02*
X25194819Y22233334D01*
X25194819Y22233334D02*
X25194819Y22376191D01*
X25194819Y22376191D02*
X25147200Y22471429D01*
X25147200Y22471429D02*
X25099580Y22519048D01*
X24528152Y22852382D02*
X24528152Y23233334D01*
X25194819Y22995239D02*
X24337676Y22995239D01*
X24337676Y22995239D02*
X24242438Y23042858D01*
X24242438Y23042858D02*
X24194819Y23138096D01*
X24194819Y23138096D02*
X24194819Y23233334D01*
D11*
X25989765Y21239286D02*
X26001670Y21227382D01*
X26001670Y21227382D02*
X26013574Y21191667D01*
X26013574Y21191667D02*
X26013574Y21167858D01*
X26013574Y21167858D02*
X26001670Y21132144D01*
X26001670Y21132144D02*
X25977860Y21108334D01*
X25977860Y21108334D02*
X25954050Y21096429D01*
X25954050Y21096429D02*
X25906431Y21084525D01*
X25906431Y21084525D02*
X25870717Y21084525D01*
X25870717Y21084525D02*
X25823098Y21096429D01*
X25823098Y21096429D02*
X25799289Y21108334D01*
X25799289Y21108334D02*
X25775479Y21132144D01*
X25775479Y21132144D02*
X25763574Y21167858D01*
X25763574Y21167858D02*
X25763574Y21191667D01*
X25763574Y21191667D02*
X25775479Y21227382D01*
X25775479Y21227382D02*
X25787384Y21239286D01*
X26013574Y21477382D02*
X26013574Y21334525D01*
X26013574Y21405953D02*
X25763574Y21405953D01*
X25763574Y21405953D02*
X25799289Y21382144D01*
X25799289Y21382144D02*
X25823098Y21358334D01*
X25823098Y21358334D02*
X25835003Y21334525D01*
X25763574Y21632143D02*
X25763574Y21655953D01*
X25763574Y21655953D02*
X25775479Y21679762D01*
X25775479Y21679762D02*
X25787384Y21691667D01*
X25787384Y21691667D02*
X25811193Y21703572D01*
X25811193Y21703572D02*
X25858812Y21715477D01*
X25858812Y21715477D02*
X25918336Y21715477D01*
X25918336Y21715477D02*
X25965955Y21703572D01*
X25965955Y21703572D02*
X25989765Y21691667D01*
X25989765Y21691667D02*
X26001670Y21679762D01*
X26001670Y21679762D02*
X26013574Y21655953D01*
X26013574Y21655953D02*
X26013574Y21632143D01*
X26013574Y21632143D02*
X26001670Y21608334D01*
X26001670Y21608334D02*
X25989765Y21596429D01*
X25989765Y21596429D02*
X25965955Y21584524D01*
X25965955Y21584524D02*
X25918336Y21572620D01*
X25918336Y21572620D02*
X25858812Y21572620D01*
X25858812Y21572620D02*
X25811193Y21584524D01*
X25811193Y21584524D02*
X25787384Y21596429D01*
X25787384Y21596429D02*
X25775479Y21608334D01*
X25775479Y21608334D02*
X25763574Y21632143D01*
D10*
X16124819Y18785714D02*
X16124819Y18976190D01*
X16124819Y18976190D02*
X16172438Y19071428D01*
X16172438Y19071428D02*
X16267676Y19166666D01*
X16267676Y19166666D02*
X16458152Y19214285D01*
X16458152Y19214285D02*
X16791485Y19214285D01*
X16791485Y19214285D02*
X16981961Y19166666D01*
X16981961Y19166666D02*
X17077200Y19071428D01*
X17077200Y19071428D02*
X17124819Y18976190D01*
X17124819Y18976190D02*
X17124819Y18785714D01*
X17124819Y18785714D02*
X17077200Y18690476D01*
X17077200Y18690476D02*
X16981961Y18595238D01*
X16981961Y18595238D02*
X16791485Y18547619D01*
X16791485Y18547619D02*
X16458152Y18547619D01*
X16458152Y18547619D02*
X16267676Y18595238D01*
X16267676Y18595238D02*
X16172438Y18690476D01*
X16172438Y18690476D02*
X16124819Y18785714D01*
X16458152Y19642857D02*
X17458152Y19642857D01*
X16505771Y19642857D02*
X16458152Y19738095D01*
X16458152Y19738095D02*
X16458152Y19928571D01*
X16458152Y19928571D02*
X16505771Y20023809D01*
X16505771Y20023809D02*
X16553390Y20071428D01*
X16553390Y20071428D02*
X16648628Y20119047D01*
X16648628Y20119047D02*
X16934342Y20119047D01*
X16934342Y20119047D02*
X17029580Y20071428D01*
X17029580Y20071428D02*
X17077200Y20023809D01*
X17077200Y20023809D02*
X17124819Y19928571D01*
X17124819Y19928571D02*
X17124819Y19738095D01*
X17124819Y19738095D02*
X17077200Y19642857D01*
X17077200Y20928571D02*
X17124819Y20833333D01*
X17124819Y20833333D02*
X17124819Y20642857D01*
X17124819Y20642857D02*
X17077200Y20547619D01*
X17077200Y20547619D02*
X16981961Y20500000D01*
X16981961Y20500000D02*
X16601009Y20500000D01*
X16601009Y20500000D02*
X16505771Y20547619D01*
X16505771Y20547619D02*
X16458152Y20642857D01*
X16458152Y20642857D02*
X16458152Y20833333D01*
X16458152Y20833333D02*
X16505771Y20928571D01*
X16505771Y20928571D02*
X16601009Y20976190D01*
X16601009Y20976190D02*
X16696247Y20976190D01*
X16696247Y20976190D02*
X16791485Y20500000D01*
X16458152Y21404762D02*
X17124819Y21404762D01*
X16553390Y21404762D02*
X16505771Y21452381D01*
X16505771Y21452381D02*
X16458152Y21547619D01*
X16458152Y21547619D02*
X16458152Y21690476D01*
X16458152Y21690476D02*
X16505771Y21785714D01*
X16505771Y21785714D02*
X16601009Y21833333D01*
X16601009Y21833333D02*
X17124819Y21833333D01*
X16458152Y22166667D02*
X16458152Y22547619D01*
X17124819Y22309524D02*
X16267676Y22309524D01*
X16267676Y22309524D02*
X16172438Y22357143D01*
X16172438Y22357143D02*
X16124819Y22452381D01*
X16124819Y22452381D02*
X16124819Y22547619D01*
X17124819Y22880953D02*
X16458152Y22880953D01*
X16648628Y22880953D02*
X16553390Y22928572D01*
X16553390Y22928572D02*
X16505771Y22976191D01*
X16505771Y22976191D02*
X16458152Y23071429D01*
X16458152Y23071429D02*
X16458152Y23166667D01*
X17124819Y23928572D02*
X16601009Y23928572D01*
X16601009Y23928572D02*
X16505771Y23880953D01*
X16505771Y23880953D02*
X16458152Y23785715D01*
X16458152Y23785715D02*
X16458152Y23595239D01*
X16458152Y23595239D02*
X16505771Y23500001D01*
X17077200Y23928572D02*
X17124819Y23833334D01*
X17124819Y23833334D02*
X17124819Y23595239D01*
X17124819Y23595239D02*
X17077200Y23500001D01*
X17077200Y23500001D02*
X16981961Y23452382D01*
X16981961Y23452382D02*
X16886723Y23452382D01*
X16886723Y23452382D02*
X16791485Y23500001D01*
X16791485Y23500001D02*
X16743866Y23595239D01*
X16743866Y23595239D02*
X16743866Y23833334D01*
X16743866Y23833334D02*
X16696247Y23928572D01*
X17124819Y24404763D02*
X16458152Y24404763D01*
X16553390Y24404763D02*
X16505771Y24452382D01*
X16505771Y24452382D02*
X16458152Y24547620D01*
X16458152Y24547620D02*
X16458152Y24690477D01*
X16458152Y24690477D02*
X16505771Y24785715D01*
X16505771Y24785715D02*
X16601009Y24833334D01*
X16601009Y24833334D02*
X17124819Y24833334D01*
X16601009Y24833334D02*
X16505771Y24880953D01*
X16505771Y24880953D02*
X16458152Y24976191D01*
X16458152Y24976191D02*
X16458152Y25119048D01*
X16458152Y25119048D02*
X16505771Y25214287D01*
X16505771Y25214287D02*
X16601009Y25261906D01*
X16601009Y25261906D02*
X17124819Y25261906D01*
X17077200Y26119048D02*
X17124819Y26023810D01*
X17124819Y26023810D02*
X17124819Y25833334D01*
X17124819Y25833334D02*
X17077200Y25738096D01*
X17077200Y25738096D02*
X16981961Y25690477D01*
X16981961Y25690477D02*
X16601009Y25690477D01*
X16601009Y25690477D02*
X16505771Y25738096D01*
X16505771Y25738096D02*
X16458152Y25833334D01*
X16458152Y25833334D02*
X16458152Y26023810D01*
X16458152Y26023810D02*
X16505771Y26119048D01*
X16505771Y26119048D02*
X16601009Y26166667D01*
X16601009Y26166667D02*
X16696247Y26166667D01*
X16696247Y26166667D02*
X16791485Y25690477D01*
X17220057Y26357143D02*
X17220057Y27119048D01*
X17220057Y28023810D02*
X17172438Y27928572D01*
X17172438Y27928572D02*
X17077200Y27833334D01*
X17077200Y27833334D02*
X16934342Y27690477D01*
X16934342Y27690477D02*
X16886723Y27595239D01*
X16886723Y27595239D02*
X16886723Y27500001D01*
X17124819Y27547620D02*
X17077200Y27452382D01*
X17077200Y27452382D02*
X16981961Y27357144D01*
X16981961Y27357144D02*
X16791485Y27309525D01*
X16791485Y27309525D02*
X16458152Y27309525D01*
X16458152Y27309525D02*
X16267676Y27357144D01*
X16267676Y27357144D02*
X16172438Y27452382D01*
X16172438Y27452382D02*
X16124819Y27547620D01*
X16124819Y27547620D02*
X16124819Y27738096D01*
X16124819Y27738096D02*
X16172438Y27833334D01*
X16172438Y27833334D02*
X16267676Y27928572D01*
X16267676Y27928572D02*
X16458152Y27976191D01*
X16458152Y27976191D02*
X16791485Y27976191D01*
X16791485Y27976191D02*
X16981961Y27928572D01*
X16981961Y27928572D02*
X17077200Y27833334D01*
X17077200Y27833334D02*
X17124819Y27738096D01*
X17124819Y27738096D02*
X17124819Y27547620D01*
X16601009Y28738096D02*
X16601009Y28404763D01*
X17124819Y28404763D02*
X16124819Y28404763D01*
X16124819Y28404763D02*
X16124819Y28880953D01*
X17124819Y29261906D02*
X16124819Y29261906D01*
X16124819Y29261906D02*
X17124819Y29833334D01*
X17124819Y29833334D02*
X16124819Y29833334D01*
X17220057Y30071429D02*
X17220057Y30833334D01*
X16124819Y30928573D02*
X16124819Y31500001D01*
X17124819Y31214287D02*
X16124819Y31214287D01*
X16124819Y31690478D02*
X16124819Y32261906D01*
X17124819Y31976192D02*
X16124819Y31976192D01*
X16124819Y33023811D02*
X16124819Y32833335D01*
X16124819Y32833335D02*
X16172438Y32738097D01*
X16172438Y32738097D02*
X16220057Y32690478D01*
X16220057Y32690478D02*
X16362914Y32595240D01*
X16362914Y32595240D02*
X16553390Y32547621D01*
X16553390Y32547621D02*
X16934342Y32547621D01*
X16934342Y32547621D02*
X17029580Y32595240D01*
X17029580Y32595240D02*
X17077200Y32642859D01*
X17077200Y32642859D02*
X17124819Y32738097D01*
X17124819Y32738097D02*
X17124819Y32928573D01*
X17124819Y32928573D02*
X17077200Y33023811D01*
X17077200Y33023811D02*
X17029580Y33071430D01*
X17029580Y33071430D02*
X16934342Y33119049D01*
X16934342Y33119049D02*
X16696247Y33119049D01*
X16696247Y33119049D02*
X16601009Y33071430D01*
X16601009Y33071430D02*
X16553390Y33023811D01*
X16553390Y33023811D02*
X16505771Y32928573D01*
X16505771Y32928573D02*
X16505771Y32738097D01*
X16505771Y32738097D02*
X16553390Y32642859D01*
X16553390Y32642859D02*
X16601009Y32595240D01*
X16601009Y32595240D02*
X16696247Y32547621D01*
X17220057Y33309525D02*
X17220057Y34071430D01*
X17124819Y34880954D02*
X16648628Y34547621D01*
X17124819Y34309526D02*
X16124819Y34309526D01*
X16124819Y34309526D02*
X16124819Y34690478D01*
X16124819Y34690478D02*
X16172438Y34785716D01*
X16172438Y34785716D02*
X16220057Y34833335D01*
X16220057Y34833335D02*
X16315295Y34880954D01*
X16315295Y34880954D02*
X16458152Y34880954D01*
X16458152Y34880954D02*
X16553390Y34833335D01*
X16553390Y34833335D02*
X16601009Y34785716D01*
X16601009Y34785716D02*
X16648628Y34690478D01*
X16648628Y34690478D02*
X16648628Y34309526D01*
X17077200Y35690478D02*
X17124819Y35595240D01*
X17124819Y35595240D02*
X17124819Y35404764D01*
X17124819Y35404764D02*
X17077200Y35309526D01*
X17077200Y35309526D02*
X16981961Y35261907D01*
X16981961Y35261907D02*
X16601009Y35261907D01*
X16601009Y35261907D02*
X16505771Y35309526D01*
X16505771Y35309526D02*
X16458152Y35404764D01*
X16458152Y35404764D02*
X16458152Y35595240D01*
X16458152Y35595240D02*
X16505771Y35690478D01*
X16505771Y35690478D02*
X16601009Y35738097D01*
X16601009Y35738097D02*
X16696247Y35738097D01*
X16696247Y35738097D02*
X16791485Y35261907D01*
X16458152Y36071431D02*
X17124819Y36309526D01*
X17124819Y36309526D02*
X16458152Y36547621D01*
X16220057Y36880955D02*
X16172438Y36928574D01*
X16172438Y36928574D02*
X16124819Y37023812D01*
X16124819Y37023812D02*
X16124819Y37261907D01*
X16124819Y37261907D02*
X16172438Y37357145D01*
X16172438Y37357145D02*
X16220057Y37404764D01*
X16220057Y37404764D02*
X16315295Y37452383D01*
X16315295Y37452383D02*
X16410533Y37452383D01*
X16410533Y37452383D02*
X16553390Y37404764D01*
X16553390Y37404764D02*
X17124819Y36833336D01*
X17124819Y36833336D02*
X17124819Y37452383D01*
X21954819Y27238096D02*
X22764342Y27238096D01*
X22764342Y27238096D02*
X22859580Y27285715D01*
X22859580Y27285715D02*
X22907200Y27333334D01*
X22907200Y27333334D02*
X22954819Y27428572D01*
X22954819Y27428572D02*
X22954819Y27619048D01*
X22954819Y27619048D02*
X22907200Y27714286D01*
X22907200Y27714286D02*
X22859580Y27761905D01*
X22859580Y27761905D02*
X22764342Y27809524D01*
X22764342Y27809524D02*
X21954819Y27809524D01*
X22954819Y28809524D02*
X22954819Y28238096D01*
X22954819Y28523810D02*
X21954819Y28523810D01*
X21954819Y28523810D02*
X22097676Y28428572D01*
X22097676Y28428572D02*
X22192914Y28333334D01*
X22192914Y28333334D02*
X22240533Y28238096D01*
X32619047Y68991D02*
X32285714Y68991D01*
X32285714Y-454819D02*
X32285714Y545181D01*
X32285714Y545181D02*
X32761904Y545181D01*
X33142857Y-454819D02*
X33142857Y211848D01*
X33142857Y545181D02*
X33095238Y497562D01*
X33095238Y497562D02*
X33142857Y449943D01*
X33142857Y449943D02*
X33190476Y497562D01*
X33190476Y497562D02*
X33142857Y545181D01*
X33142857Y545181D02*
X33142857Y449943D01*
X34047618Y-454819D02*
X34047618Y545181D01*
X34047618Y-407200D02*
X33952380Y-454819D01*
X33952380Y-454819D02*
X33761904Y-454819D01*
X33761904Y-454819D02*
X33666666Y-407200D01*
X33666666Y-407200D02*
X33619047Y-359580D01*
X33619047Y-359580D02*
X33571428Y-264342D01*
X33571428Y-264342D02*
X33571428Y21372D01*
X33571428Y21372D02*
X33619047Y116610D01*
X33619047Y116610D02*
X33666666Y164229D01*
X33666666Y164229D02*
X33761904Y211848D01*
X33761904Y211848D02*
X33952380Y211848D01*
X33952380Y211848D02*
X34047618Y164229D01*
X34952380Y211848D02*
X34952380Y-454819D01*
X34523809Y211848D02*
X34523809Y-311961D01*
X34523809Y-311961D02*
X34571428Y-407200D01*
X34571428Y-407200D02*
X34666666Y-454819D01*
X34666666Y-454819D02*
X34809523Y-454819D01*
X34809523Y-454819D02*
X34904761Y-407200D01*
X34904761Y-407200D02*
X34952380Y-359580D01*
X35857142Y-407200D02*
X35761904Y-454819D01*
X35761904Y-454819D02*
X35571428Y-454819D01*
X35571428Y-454819D02*
X35476190Y-407200D01*
X35476190Y-407200D02*
X35428571Y-359580D01*
X35428571Y-359580D02*
X35380952Y-264342D01*
X35380952Y-264342D02*
X35380952Y21372D01*
X35380952Y21372D02*
X35428571Y116610D01*
X35428571Y116610D02*
X35476190Y164229D01*
X35476190Y164229D02*
X35571428Y211848D01*
X35571428Y211848D02*
X35761904Y211848D01*
X35761904Y211848D02*
X35857142Y164229D01*
X36285714Y-454819D02*
X36285714Y211848D01*
X36285714Y545181D02*
X36238095Y497562D01*
X36238095Y497562D02*
X36285714Y449943D01*
X36285714Y449943D02*
X36333333Y497562D01*
X36333333Y497562D02*
X36285714Y545181D01*
X36285714Y545181D02*
X36285714Y449943D01*
X37190475Y-454819D02*
X37190475Y68991D01*
X37190475Y68991D02*
X37142856Y164229D01*
X37142856Y164229D02*
X37047618Y211848D01*
X37047618Y211848D02*
X36857142Y211848D01*
X36857142Y211848D02*
X36761904Y164229D01*
X37190475Y-407200D02*
X37095237Y-454819D01*
X37095237Y-454819D02*
X36857142Y-454819D01*
X36857142Y-454819D02*
X36761904Y-407200D01*
X36761904Y-407200D02*
X36714285Y-311961D01*
X36714285Y-311961D02*
X36714285Y-216723D01*
X36714285Y-216723D02*
X36761904Y-121485D01*
X36761904Y-121485D02*
X36857142Y-73866D01*
X36857142Y-73866D02*
X37095237Y-73866D01*
X37095237Y-73866D02*
X37190475Y-26247D01*
X37809523Y-454819D02*
X37714285Y-407200D01*
X37714285Y-407200D02*
X37666666Y-311961D01*
X37666666Y-311961D02*
X37666666Y545181D01*
D12*
X34571429Y2027597D02*
X34438096Y2027597D01*
X34438096Y1818073D02*
X34438096Y2218073D01*
X34438096Y2218073D02*
X34628572Y2218073D01*
X34780953Y1818073D02*
X34780953Y2218073D01*
X34971429Y1818073D02*
X34971429Y2218073D01*
X34971429Y2218073D02*
X35066667Y2218073D01*
X35066667Y2218073D02*
X35123810Y2199025D01*
X35123810Y2199025D02*
X35161905Y2160930D01*
X35161905Y2160930D02*
X35180952Y2122835D01*
X35180952Y2122835D02*
X35200000Y2046644D01*
X35200000Y2046644D02*
X35200000Y1989501D01*
X35200000Y1989501D02*
X35180952Y1913311D01*
X35180952Y1913311D02*
X35161905Y1875216D01*
X35161905Y1875216D02*
X35123810Y1837120D01*
X35123810Y1837120D02*
X35066667Y1818073D01*
X35066667Y1818073D02*
X34971429Y1818073D01*
X35333333Y2218073D02*
X35580952Y2218073D01*
X35580952Y2218073D02*
X35447619Y2065692D01*
X35447619Y2065692D02*
X35504762Y2065692D01*
X35504762Y2065692D02*
X35542857Y2046644D01*
X35542857Y2046644D02*
X35561905Y2027597D01*
X35561905Y2027597D02*
X35580952Y1989501D01*
X35580952Y1989501D02*
X35580952Y1894263D01*
X35580952Y1894263D02*
X35561905Y1856168D01*
X35561905Y1856168D02*
X35542857Y1837120D01*
X35542857Y1837120D02*
X35504762Y1818073D01*
X35504762Y1818073D02*
X35390476Y1818073D01*
X35390476Y1818073D02*
X35352381Y1837120D01*
X35352381Y1837120D02*
X35333333Y1856168D01*
X34348096Y2018073D02*
X35670952Y2018073D01*
D10*
X12921706Y37257409D02*
X12517645Y37661470D01*
X12719676Y37459439D02*
X13426782Y38166546D01*
X13426782Y38166546D02*
X13258424Y38132874D01*
X13258424Y38132874D02*
X13123737Y38132874D01*
X13123737Y38132874D02*
X13022721Y38166546D01*
X13999202Y37122722D02*
X13527798Y36651317D01*
X13696156Y37425767D02*
X13325767Y37055378D01*
X13325767Y37055378D02*
X13292095Y36954363D01*
X13292095Y36954363D02*
X13325767Y36853348D01*
X13325767Y36853348D02*
X13426782Y36752332D01*
X13426782Y36752332D02*
X13527798Y36718661D01*
X13527798Y36718661D02*
X13595141Y36718661D01*
D12*
X12201154Y36395436D02*
X12174217Y36395436D01*
X12174217Y36395436D02*
X12120342Y36422373D01*
X12120342Y36422373D02*
X12093405Y36449311D01*
X12093405Y36449311D02*
X12066467Y36503186D01*
X12066467Y36503186D02*
X12066467Y36557060D01*
X12066467Y36557060D02*
X12079936Y36597466D01*
X12079936Y36597466D02*
X12120342Y36664810D01*
X12120342Y36664810D02*
X12160748Y36705216D01*
X12160748Y36705216D02*
X12228092Y36745622D01*
X12228092Y36745622D02*
X12268498Y36759091D01*
X12268498Y36759091D02*
X12322373Y36759091D01*
X12322373Y36759091D02*
X12376247Y36732153D01*
X12376247Y36732153D02*
X12403185Y36705216D01*
X12403185Y36705216D02*
X12430122Y36651341D01*
X12430122Y36651341D02*
X12430122Y36624404D01*
X12497466Y36368499D02*
X12483997Y36408905D01*
X12483997Y36408905D02*
X12483997Y36435842D01*
X12483997Y36435842D02*
X12497466Y36476248D01*
X12497466Y36476248D02*
X12510934Y36489717D01*
X12510934Y36489717D02*
X12551341Y36503186D01*
X12551341Y36503186D02*
X12578278Y36503186D01*
X12578278Y36503186D02*
X12618684Y36489717D01*
X12618684Y36489717D02*
X12672559Y36435842D01*
X12672559Y36435842D02*
X12686028Y36395436D01*
X12686028Y36395436D02*
X12686028Y36368499D01*
X12686028Y36368499D02*
X12672559Y36328092D01*
X12672559Y36328092D02*
X12659090Y36314624D01*
X12659090Y36314624D02*
X12618684Y36301155D01*
X12618684Y36301155D02*
X12591747Y36301155D01*
X12591747Y36301155D02*
X12551341Y36314624D01*
X12551341Y36314624D02*
X12497466Y36368499D01*
X12497466Y36368499D02*
X12457060Y36381967D01*
X12457060Y36381967D02*
X12430122Y36381967D01*
X12430122Y36381967D02*
X12389716Y36368499D01*
X12389716Y36368499D02*
X12335841Y36314624D01*
X12335841Y36314624D02*
X12322373Y36274218D01*
X12322373Y36274218D02*
X12322373Y36247280D01*
X12322373Y36247280D02*
X12335841Y36206874D01*
X12335841Y36206874D02*
X12389716Y36152999D01*
X12389716Y36152999D02*
X12430122Y36139531D01*
X12430122Y36139531D02*
X12457060Y36139531D01*
X12457060Y36139531D02*
X12497466Y36152999D01*
X12497466Y36152999D02*
X12551341Y36206874D01*
X12551341Y36206874D02*
X12564809Y36247280D01*
X12564809Y36247280D02*
X12564809Y36274218D01*
X12564809Y36274218D02*
X12551341Y36314624D01*
X12076906Y36748653D02*
X12648652Y36176907D01*
D13*
X28400000Y31950000D02*
X29400000Y31950000D01*
X28400000Y31450000D02*
X28400000Y31950000D01*
X29400000Y31950000D02*
X29400000Y31450000D01*
X29400000Y31450000D02*
X28400000Y31450000D01*
X28250000Y23500000D02*
X28750000Y23500000D01*
X28250000Y22500000D02*
X28250000Y23500000D01*
X28750000Y23500000D02*
X28750000Y22500000D01*
X28750000Y22500000D02*
X28250000Y22500000D01*
X21750000Y21700000D02*
X22250000Y21700000D01*
X21750000Y20700000D02*
X21750000Y21700000D01*
X22250000Y21700000D02*
X22250000Y20700000D01*
X22250000Y20700000D02*
X21750000Y20700000D01*
X16250000Y33500000D02*
X16750000Y33500000D01*
X16250000Y32500000D02*
X16250000Y33500000D01*
X16750000Y33500000D02*
X16750000Y32500000D01*
X16750000Y32500000D02*
X16250000Y32500000D01*
X15500000Y31450000D02*
X16500000Y31450000D01*
X15500000Y30950000D02*
X15500000Y31450000D01*
X16500000Y31450000D02*
X16500000Y30950000D01*
X16500000Y30950000D02*
X15500000Y30950000D01*
X15000000Y25250000D02*
X16000000Y25250000D01*
X15000000Y24750000D02*
X15000000Y25250000D01*
X16000000Y25250000D02*
X16000000Y24750000D01*
X16000000Y24750000D02*
X15000000Y24750000D01*
X21950000Y35300000D02*
X22450000Y35300000D01*
X21950000Y34300000D02*
X21950000Y35300000D01*
X22450000Y35300000D02*
X22450000Y34300000D01*
X22450000Y34300000D02*
X21950000Y34300000D01*
X28150000Y33900000D02*
X28650000Y33900000D01*
X28150000Y32900000D02*
X28150000Y33900000D01*
X28650000Y33900000D02*
X28650000Y32900000D01*
X28650000Y32900000D02*
X28150000Y32900000D01*
X36350000Y50750000D02*
G75*
G02*
X34350000Y50750000I-1000000J0D01*
G01*
X34350000Y50750000D02*
G75*
G02*
X36350000Y50750000I1000000J0D01*
G01*
X36350000Y50750000D02*
G75*
G02*
X34350000Y50750000I-1000000J0D01*
G01*
X34350000Y50750000D02*
G75*
G02*
X36350000Y50750000I1000000J0D01*
G01*
X12000000Y2150000D02*
G75*
G02*
X10000000Y2150000I-1000000J0D01*
G01*
X10000000Y2150000D02*
G75*
G02*
X12000000Y2150000I1000000J0D01*
G01*
X12000000Y2150000D02*
G75*
G02*
X10000000Y2150000I-1000000J0D01*
G01*
X10000000Y2150000D02*
G75*
G02*
X12000000Y2150000I1000000J0D01*
G01*
X25650000Y21900000D02*
X26150000Y21900000D01*
X25650000Y20900000D02*
X25650000Y21900000D01*
X26150000Y21900000D02*
X26150000Y20900000D01*
X26150000Y20900000D02*
X25650000Y20900000D01*
X27000000Y31500000D02*
X27000000Y23500000D01*
X18000000Y23500000D01*
X18000000Y32500000D01*
X26000000Y32500000D01*
X27000000Y31500000D01*
X36000000Y2000000D02*
G75*
G02*
X34000000Y2000000I-1000000J0D01*
G01*
X34000000Y2000000D02*
G75*
G02*
X36000000Y2000000I1000000J0D01*
G01*
X36000000Y2000000D02*
G75*
G02*
X34000000Y2000000I-1000000J0D01*
G01*
X34000000Y2000000D02*
G75*
G02*
X36000000Y2000000I1000000J0D01*
G01*
X11536827Y36697489D02*
X12102511Y37263173D01*
X12031801Y37333883D02*
G75*
G02*
X12102511Y37263173I35355J-35355D01*
G01*
X12031801Y37333883D02*
X11466117Y36768199D01*
X11466117Y36768199D02*
G75*
G03*
X11536827Y36697489I35355J-35355D01*
G01*
X12031801Y37263173D02*
X13163172Y36131802D01*
X13233882Y36202513D02*
G75*
G02*
X13163172Y36131803I-35355J-35355D01*
G01*
X13233883Y36202513D02*
X12102512Y37333884D01*
X12102512Y37333883D02*
G75*
G03*
X12031802Y37263173I-35355J-35355D01*
G01*
X12668198Y35636828D02*
X11536827Y36768199D01*
X11466117Y36697488D02*
G75*
G02*
X11536827Y36768198I35355J35355D01*
G01*
X11466116Y36697488D02*
X12597487Y35566117D01*
X12597487Y35566118D02*
G75*
G03*
X12668197Y35636828I35355J35355D01*
G01*
X13163172Y36202512D02*
X12597488Y35636828D01*
X12668198Y35566118D02*
G75*
G02*
X12597488Y35636828I-35355J35355D01*
G01*
X12668198Y35566118D02*
X13233882Y36131802D01*
X13233882Y36131802D02*
G75*
G03*
X13163172Y36202512I-35355J35355D01*
G01*
X34075000Y52025000D02*
X36625000Y49475000D01*
X34075000Y49475000D02*
X36625000Y52025000D01*
X9725000Y3425000D02*
X12275000Y875000D01*
X9725000Y875000D02*
X12275000Y3425000D01*
X33725000Y3275000D02*
X36275000Y725000D01*
X33725000Y725000D02*
X36275000Y3275000D01*
X10762294Y38037706D02*
X13937706Y34862294D01*
X10762294Y34862294D02*
X13937706Y38037706D01*
M02*
