G04 #@! TF.GenerationSoftware,KiCad,Pcbnew,9.0.1*
G04 #@! TF.CreationDate,2026-05-11T16:32:34-07:00*
G04 #@! TF.ProjectId,breakout-tt04-qfn-openframe,62726561-6b6f-4757-942d-747430342d71,3.3*
G04 #@! TF.SameCoordinates,PX2dc6c00PY42c1d80*
G04 #@! TF.FileFunction,Copper,L2,Bot*
G04 #@! TF.FilePolarity,Positive*
%FSLAX46Y46*%
G04 Gerber Fmt 4.6, Leading zero omitted, Abs format (unit mm)*
G04 Created by KiCad (PCBNEW 9.0.1) date 2026-05-11 16:32:34*
%MOMM*%
%LPD*%
G01*
G04 APERTURE LIST*
G04 #@! TA.AperFunction,ComponentPad*
%ADD10C,0.620000*%
G04 #@! TD*
G04 #@! TA.AperFunction,WasherPad*
%ADD11C,1.600000*%
G04 #@! TD*
G04 #@! TA.AperFunction,SMDPad,CuDef*
%ADD12R,3.000000X1.000000*%
G04 #@! TD*
G04 #@! TA.AperFunction,ViaPad*
%ADD13C,0.700000*%
G04 #@! TD*
G04 #@! TA.AperFunction,Conductor*
%ADD14C,0.250000*%
G04 #@! TD*
G04 #@! TA.AperFunction,Conductor*
%ADD15C,0.254000*%
G04 #@! TD*
G04 #@! TA.AperFunction,Conductor*
%ADD16C,0.180000*%
G04 #@! TD*
G04 #@! TA.AperFunction,Conductor*
%ADD17C,0.200000*%
G04 #@! TD*
G04 APERTURE END LIST*
D10*
X26600000Y12200000D03*
X21900000Y51800000D03*
X21200000Y26600000D03*
X23800000Y29400000D03*
X40500000Y16900000D03*
X22700000Y6400000D03*
X22800000Y13200000D03*
X20200000Y10600000D03*
X1950000Y38550000D03*
X10100000Y36550000D03*
X9900000Y51800000D03*
X33900000Y49350000D03*
X14600000Y41800000D03*
X14600000Y5250000D03*
X40500000Y41800000D03*
X13900000Y27100000D03*
X10000000Y26600000D03*
X20200000Y18100000D03*
X34650000Y47750000D03*
X22400000Y46000000D03*
X4450000Y44350000D03*
X21200000Y29400000D03*
X1900000Y48900000D03*
X29350000Y46200000D03*
X20400000Y41650000D03*
X30400000Y16200000D03*
X20200000Y5400000D03*
X28500000Y18100000D03*
X20100000Y36500000D03*
X9900000Y5250000D03*
X10900000Y30100000D03*
X14600000Y16300000D03*
X17900000Y700000D03*
X2000000Y5650000D03*
X43800000Y43800000D03*
X4450000Y15800000D03*
X4450000Y7550000D03*
X31000000Y42700000D03*
X26400000Y16700000D03*
X1900000Y51800000D03*
X13900000Y51800000D03*
X35200000Y5400000D03*
X9100000Y11350000D03*
X35100000Y42700000D03*
X14600000Y13700000D03*
X40500000Y5700000D03*
X4450000Y23150000D03*
X40500000Y10700000D03*
X23800000Y26600000D03*
X4450000Y38400000D03*
X40500000Y20800000D03*
X17907000Y46355000D03*
X14700000Y35850000D03*
X17900000Y51800000D03*
X14600000Y8950000D03*
X14600000Y11350000D03*
X16100000Y23000000D03*
X17100000Y17950000D03*
X29900000Y700000D03*
X29700000Y33800000D03*
X17500000Y20500000D03*
X16400000Y42200000D03*
X29900000Y51800000D03*
X35250000Y23150000D03*
X31000000Y38500000D03*
X1950000Y36150000D03*
X40500000Y46500000D03*
X28600000Y6400000D03*
X40500000Y36200000D03*
X14800000Y47550000D03*
X5900000Y51800000D03*
X35200000Y13900000D03*
X9100000Y8950000D03*
X40450000Y30750000D03*
X4450000Y28700000D03*
X40500000Y25700000D03*
X25900000Y51800000D03*
X37000000Y38750000D03*
X2000000Y3100000D03*
X33900000Y51800000D03*
X30300000Y11200000D03*
X9150000Y33100000D03*
X37900000Y51800000D03*
X28500000Y14300000D03*
X33500000Y700000D03*
X25900000Y700000D03*
X41900000Y51800000D03*
X31000000Y44300000D03*
X13900000Y1700000D03*
D11*
X40500000Y3140000D03*
X40500000Y48860000D03*
D12*
X37980000Y50130000D03*
X43020000Y50130000D03*
X37980000Y47590000D03*
X43020000Y47590000D03*
X37980000Y45050000D03*
X43020000Y45050000D03*
X37980000Y42510000D03*
X43020000Y42510000D03*
X37980000Y39970000D03*
X43020000Y39970000D03*
X37980000Y37430000D03*
X43020000Y37430000D03*
X37980000Y34890000D03*
X43020000Y34890000D03*
X37980000Y32350000D03*
X43020000Y32350000D03*
X37980000Y29810000D03*
X43020000Y29810000D03*
X37980000Y27270000D03*
X43020000Y27270000D03*
X37980000Y24730000D03*
X43020000Y24730000D03*
X37980000Y22190000D03*
X43020000Y22190000D03*
X37980000Y19650000D03*
X43020000Y19650000D03*
X37980000Y17110000D03*
X43020000Y17110000D03*
X37980000Y14570000D03*
X43020000Y14570000D03*
X37980000Y12030000D03*
X43020000Y12030000D03*
X37980000Y9490000D03*
X43020000Y9490000D03*
X37980000Y6950000D03*
X43020000Y6950000D03*
X37980000Y4410000D03*
X43020000Y4410000D03*
X37980000Y1870000D03*
X43020000Y1870000D03*
D11*
X4500000Y3140000D03*
X4500000Y48860000D03*
D12*
X1980000Y50130000D03*
X7020000Y50130000D03*
X1980000Y47590000D03*
X7020000Y47590000D03*
X1980000Y45050000D03*
X7020000Y45050000D03*
X1980000Y42510000D03*
X7020000Y42510000D03*
X1980000Y39970000D03*
X7020000Y39970000D03*
X1980000Y37430000D03*
X7020000Y37430000D03*
X1980000Y34890000D03*
X7020000Y34890000D03*
X1980000Y32350000D03*
X7020000Y32350000D03*
X1980000Y29810000D03*
X7020000Y29810000D03*
X1980000Y27270000D03*
X7020000Y27270000D03*
X1980000Y24730000D03*
X7020000Y24730000D03*
X1980000Y22190000D03*
X7020000Y22190000D03*
X1980000Y19650000D03*
X7020000Y19650000D03*
X1980000Y17110000D03*
X7020000Y17110000D03*
X1980000Y14570000D03*
X7020000Y14570000D03*
X1980000Y12030000D03*
X7020000Y12030000D03*
X1980000Y9490000D03*
X7020000Y9490000D03*
X1980000Y6950000D03*
X7020000Y6950000D03*
X1980000Y4410000D03*
X7020000Y4410000D03*
X1980000Y1870000D03*
X7020000Y1870000D03*
D13*
X13436600Y24841200D03*
X9000000Y14500000D03*
X2000000Y13250000D03*
X43000000Y3000000D03*
X35944926Y35501731D03*
X16700000Y25550000D03*
X28500000Y21500000D03*
X27100000Y32900000D03*
X28100000Y25611000D03*
X28369186Y27770800D03*
X43000000Y28500000D03*
X43000000Y48500000D03*
X21552289Y33642680D03*
X2000000Y21000000D03*
X7000000Y28300000D03*
X43000000Y10500000D03*
X14900000Y31700000D03*
X1861000Y41000000D03*
X26500000Y20500000D03*
X8809000Y40000000D03*
X30081326Y31781998D03*
X22127000Y20100000D03*
X35610800Y19989800D03*
X9000000Y2000000D03*
X16450000Y30305400D03*
X16155025Y34155025D03*
X21400000Y22600000D03*
X43000000Y23500000D03*
X22000000Y36000000D03*
X43000000Y51000000D03*
X2000000Y33500000D03*
X16368887Y28572611D03*
X36000000Y11970000D03*
X27600000Y33800000D03*
X7000000Y48900000D03*
X43000000Y38500000D03*
X43000000Y8000000D03*
X43000000Y5500000D03*
X15600000Y33200000D03*
X35350000Y48650000D03*
X16100000Y47950000D03*
X34606448Y34379476D03*
X34679593Y32437815D03*
X36200000Y9500000D03*
X29410000Y22672095D03*
X29500000Y10500000D03*
X26500000Y22000000D03*
X21666200Y12674600D03*
X21400000Y21600000D03*
X26365200Y10439400D03*
X36200000Y4500000D03*
X37800000Y48400000D03*
X22000000Y47000016D03*
X21497814Y34550000D03*
X31909238Y18752038D03*
X30886400Y17957800D03*
X3600000Y10100000D03*
X8412123Y12487875D03*
X3400000Y7600000D03*
X8700000Y9800000D03*
X3600000Y5000000D03*
X8600000Y7600000D03*
X3500000Y1300000D03*
X8500000Y5100000D03*
X26212800Y33934400D03*
X31700000Y30954425D03*
X32918400Y20751800D03*
X41300000Y12700000D03*
X25146000Y35687000D03*
X26136600Y34997000D03*
X32004000Y35839400D03*
X32054800Y34848800D03*
X33705800Y36398200D03*
X31851600Y36957000D03*
X40716200Y32664400D03*
X42300000Y25500000D03*
X42500000Y41000000D03*
X40614600Y34544000D03*
X42400000Y43200000D03*
X39116000Y38939998D03*
X42500000Y45900000D03*
X36800000Y45050000D03*
X2921000Y49072800D03*
X8600000Y29200000D03*
X8643503Y31832982D03*
X8500000Y36800000D03*
X12415723Y36198231D03*
X12205025Y33405025D03*
X3600000Y30400000D03*
X1854200Y46278800D03*
X15392400Y27076400D03*
X3600000Y26700000D03*
X6985000Y41325800D03*
D14*
X43000000Y23500000D02*
X43000000Y22210000D01*
X43000000Y27290000D02*
X43020000Y27270000D01*
X43000000Y29790000D02*
X43020000Y29810000D01*
X37368269Y35501731D02*
X37980000Y34890000D01*
X43000000Y28500000D02*
X43000000Y29790000D01*
X43000000Y28500000D02*
X43000000Y27290000D01*
X43000000Y8000000D02*
X43000000Y9470000D01*
X35976000Y19650000D02*
X35610800Y20015200D01*
X43000000Y47610000D02*
X43020000Y47590000D01*
X43000000Y5500000D02*
X43000000Y6930000D01*
X35944926Y35501731D02*
X37368269Y35501731D01*
X43000000Y48500000D02*
X43000000Y47610000D01*
X43000000Y3000000D02*
X43000000Y4390000D01*
X43000000Y3000000D02*
X43000000Y1890000D01*
X36000000Y11970000D02*
X37920000Y11970000D01*
X43000000Y50150000D02*
X43020000Y50130000D01*
X43000000Y22210000D02*
X43020000Y22190000D01*
X43000000Y4390000D02*
X43020000Y4410000D01*
X43000000Y51000000D02*
X43000000Y50150000D01*
X43000000Y1890000D02*
X43020000Y1870000D01*
X43000000Y6930000D02*
X43020000Y6950000D01*
X37980000Y19650000D02*
X35976000Y19650000D01*
X37920000Y11970000D02*
X37980000Y12030000D01*
X43000000Y9470000D02*
X43020000Y9490000D01*
D15*
X34545836Y33540872D02*
X34545836Y34318864D01*
X34378346Y34518600D02*
X34494906Y34402040D01*
X15473000Y47323000D02*
X16100000Y47950000D01*
X34545836Y34318864D02*
X34606448Y34379476D01*
X35166708Y32920000D02*
X35736708Y32350000D01*
X15473000Y33327000D02*
X15473000Y47323000D01*
X37975000Y29810000D02*
X37975000Y30111708D01*
X35873000Y37373200D02*
X34606448Y36106648D01*
X34494906Y34402040D02*
X34583884Y34402040D01*
X34378346Y34518600D02*
X34494906Y34402040D01*
X34606448Y36106648D02*
X34606448Y34379476D01*
X35166708Y32920000D02*
X34545836Y33540872D01*
X34494906Y34402040D02*
X34583884Y34402040D01*
X34366200Y34518600D02*
X34378346Y34518600D01*
X35736708Y32350000D02*
X37980000Y32350000D01*
X37975000Y30111708D02*
X35166708Y32920000D01*
X35350000Y48650000D02*
X35873000Y48127000D01*
X34366200Y34518600D02*
X34378346Y34518600D01*
X34583884Y34402040D02*
X34606448Y34379476D01*
X34583884Y34402040D02*
X34606448Y34379476D01*
X15600000Y33200000D02*
X15473000Y33327000D01*
X35873000Y48127000D02*
X35873000Y37373200D01*
X39808000Y28982000D02*
X36152000Y28982000D01*
X39808000Y31808207D02*
X39808000Y28982000D01*
X43025000Y32355000D02*
X43020000Y32350000D01*
X43020000Y32350000D02*
X42478207Y31808207D01*
X43025000Y34890000D02*
X43025000Y32355000D01*
X34699912Y32437815D02*
X34679593Y32437815D01*
X36152000Y30985727D02*
X34699912Y32437815D01*
X36152000Y28982000D02*
X36152000Y30985727D01*
X42478207Y31808207D02*
X39808000Y31808207D01*
X29185085Y22447180D02*
X29410000Y22672095D01*
X29500000Y10500000D02*
X29185085Y10814915D01*
X37965000Y9500000D02*
X37975000Y9490000D01*
X37975000Y9490000D02*
X37975000Y6950000D01*
X36200000Y9500000D02*
X37965000Y9500000D01*
X29185085Y10814915D02*
X29185085Y22447180D01*
X36200000Y4500000D02*
X37885000Y4500000D01*
X27700000Y20800000D02*
X27700000Y11774200D01*
X26500000Y22000000D02*
X27700000Y20800000D01*
X37885000Y4500000D02*
X37975000Y4410000D01*
X27700000Y11774200D02*
X26365200Y10439400D01*
X37975000Y4410000D02*
X37975000Y1870000D01*
X21400000Y21600000D02*
X21400000Y12940800D01*
X21400000Y12940800D02*
X21666200Y12674600D01*
X37800000Y48400000D02*
X37800000Y47765000D01*
D14*
X37800000Y48400000D02*
X37800000Y49955000D01*
X37800000Y49955000D02*
X37975000Y50130000D01*
D15*
X37800000Y47765000D02*
X37975000Y47590000D01*
X21497814Y34550000D02*
X21273000Y34774814D01*
X21273000Y46273016D02*
X22000000Y47000016D01*
X21273000Y34774814D02*
X21273000Y46273016D01*
D16*
X13999000Y13451057D02*
X19779257Y7670800D01*
X1980000Y12030000D02*
X3130000Y12030000D01*
X3600000Y12600000D02*
X4451057Y13451057D01*
X19779257Y7670800D02*
X29997400Y7670800D01*
X29997400Y7670800D02*
X32258000Y9931400D01*
X32258000Y18403276D02*
X31909238Y18752038D01*
X32258000Y9931400D02*
X32258000Y18403276D01*
X4451057Y13451057D02*
X13999000Y13451057D01*
X3130000Y12030000D02*
X3130000Y12130000D01*
X3130000Y12130000D02*
X3600000Y12600000D01*
D17*
X31343600Y17500600D02*
X30886400Y17957800D01*
X14878600Y17100000D02*
X22910800Y9067800D01*
X29413200Y9067800D02*
X31343600Y10998200D01*
X8600000Y17100000D02*
X7030000Y17100000D01*
X8600000Y17100000D02*
X14878600Y17100000D01*
X22910800Y9067800D02*
X29413200Y9067800D01*
X7030000Y17100000D02*
X7020000Y17110000D01*
X31343600Y10998200D02*
X31343600Y17500600D01*
D16*
X2990000Y9490000D02*
X3600000Y10100000D01*
X1980000Y9490000D02*
X2990000Y9490000D01*
X7954248Y12030000D02*
X8412123Y12487875D01*
X7020000Y12030000D02*
X7954248Y12030000D01*
X1980000Y6950000D02*
X3050000Y6950000D01*
X3050000Y6950000D02*
X3050000Y7250000D01*
X3050000Y7250000D02*
X3400000Y7600000D01*
D17*
X8700000Y9800000D02*
X7330000Y9800000D01*
X7330000Y9800000D02*
X7020000Y9490000D01*
D16*
X3210000Y4410000D02*
X3210000Y4610000D01*
X3210000Y4610000D02*
X3600000Y5000000D01*
X1980000Y4410000D02*
X3210000Y4410000D01*
X7020000Y6950000D02*
X7950000Y6950000D01*
X7950000Y6950000D02*
X8600000Y7600000D01*
X3270000Y1530000D02*
X3500000Y1300000D01*
X3270000Y1870000D02*
X3270000Y1530000D01*
X1980000Y1870000D02*
X3270000Y1870000D01*
X8110000Y4410000D02*
X8110000Y4710000D01*
X7020000Y4410000D02*
X8110000Y4410000D01*
X8110000Y4710000D02*
X8500000Y5100000D01*
X37449200Y14570000D02*
X37975000Y14570000D01*
X31008000Y31748765D02*
X30649000Y31389764D01*
X31008000Y33365632D02*
X31008000Y31748765D01*
X30899000Y22248943D02*
X30899000Y21120200D01*
X29657232Y34716400D02*
X31008000Y33365632D01*
X26994800Y34716400D02*
X29657232Y34716400D01*
X31251057Y22601000D02*
X30899000Y22248943D01*
X26212800Y33934400D02*
X26994800Y34716400D01*
X30899000Y21120200D02*
X37449200Y14570000D01*
X30649000Y31389764D02*
X30649000Y23731284D01*
X31251057Y23129227D02*
X31251057Y22601000D01*
X30649000Y23731284D02*
X31251057Y23129227D01*
X41970000Y12030000D02*
X43025000Y12030000D01*
X32562800Y21107400D02*
X32562800Y30019450D01*
X41300000Y12700000D02*
X41970000Y12030000D01*
X31700000Y30882250D02*
X31700000Y30954425D01*
X32918400Y20751800D02*
X32562800Y21107400D01*
X32562800Y30019450D02*
X31700000Y30882250D01*
X33020000Y30071367D02*
X33020000Y22028000D01*
X32369999Y30721368D02*
X33020000Y30071367D01*
X35324992Y19325200D02*
X35324992Y18765008D01*
X34920800Y19729392D02*
X35324992Y19325200D01*
X35324992Y18765008D02*
X36980000Y17110000D01*
X30200600Y35687000D02*
X32369999Y33517601D01*
X34920800Y20127200D02*
X34920800Y19729392D01*
X33020000Y22028000D02*
X34920800Y20127200D01*
X32369999Y33517601D02*
X32369999Y30721368D01*
X36980000Y17110000D02*
X37980000Y17110000D01*
X25146000Y35687000D02*
X30200600Y35687000D01*
X30199484Y35077400D02*
X26217000Y35077400D01*
X31369000Y33907884D02*
X30199484Y35077400D01*
X31010000Y24209600D02*
X31010000Y31240233D01*
X26217000Y35077400D02*
X26136600Y34997000D01*
X32101000Y23118600D02*
X31010000Y24209600D01*
X31010000Y31240233D02*
X31369000Y31599233D01*
X32101000Y20447000D02*
X32101000Y23118600D01*
X42020000Y14570000D02*
X41249000Y15341000D01*
X43020000Y14570000D02*
X42020000Y14570000D01*
X37207000Y15341000D02*
X32101000Y20447000D01*
X31369000Y31599233D02*
X31369000Y33907884D01*
X41249000Y15341000D02*
X37207000Y15341000D01*
X34791657Y22758400D02*
X35360057Y22190000D01*
X34213800Y29895800D02*
X34213800Y22758400D01*
X34213800Y22758400D02*
X34791657Y22758400D01*
X32004000Y35839400D02*
X33110000Y34733400D01*
X33110000Y34733400D02*
X33110000Y30999600D01*
X37319118Y22190000D02*
X37975000Y22190000D01*
X33110000Y30999600D02*
X34213800Y29895800D01*
X35360057Y22190000D02*
X37980000Y22190000D01*
X43020000Y17110000D02*
X39352800Y20777200D01*
X34091200Y22373000D02*
X34090084Y22373000D01*
X43025000Y17110000D02*
X43020000Y17110000D01*
X33705800Y22757284D02*
X33705800Y29894684D01*
X35687000Y20777200D02*
X34091200Y22373000D01*
X32730000Y34173600D02*
X32054800Y34848800D01*
X32730000Y30870484D02*
X32730000Y34173600D01*
X33705800Y29894684D02*
X32730000Y30870484D01*
X39352800Y20777200D02*
X35687000Y20777200D01*
X34090084Y22373000D02*
X33705800Y22757284D01*
X33948200Y36155800D02*
X33948200Y32168000D01*
X36042600Y27051000D02*
X36042600Y25657400D01*
X35733000Y30383200D02*
X35733000Y27360600D01*
X33705800Y36398200D02*
X33948200Y36155800D01*
X37980000Y24730000D02*
X36970000Y24730000D01*
X33948200Y32168000D02*
X35733000Y30383200D01*
X36042600Y25657400D02*
X36400000Y25300000D01*
X35733000Y27360600D02*
X36042600Y27051000D01*
X36970000Y24730000D02*
X36400000Y25300000D01*
X37207000Y22961000D02*
X39709000Y22961000D01*
X31851600Y36957000D02*
X33588200Y35220400D01*
X33588200Y35220400D02*
X33588200Y32018884D01*
X35373000Y27211484D02*
X35401000Y27183483D01*
X35401000Y27183483D02*
X35401000Y24767000D01*
X35401000Y24767000D02*
X37207000Y22961000D01*
X35373000Y30234084D02*
X35373000Y27211484D01*
X39709000Y22961000D02*
X43020000Y19650000D01*
X33588200Y32018884D02*
X35373000Y30234084D01*
X40716200Y32664400D02*
X39771000Y33609600D01*
X39771000Y35639000D02*
X37980000Y37430000D01*
X39771000Y33609600D02*
X39771000Y35639000D01*
X42300000Y25500000D02*
X42300000Y25455000D01*
X42300000Y25455000D02*
X43025000Y24730000D01*
X42500000Y40495000D02*
X43025000Y39970000D01*
X42500000Y41000000D02*
X42500000Y40495000D01*
X40533143Y34981057D02*
X40533143Y35383200D01*
X40533143Y35383200D02*
X41101000Y35951057D01*
X41101000Y35951057D02*
X41101000Y36448943D01*
X40614600Y34544000D02*
X40614600Y34899600D01*
X39751000Y38201000D02*
X38799000Y38201000D01*
X41101000Y36448943D02*
X39751000Y37798943D01*
X40614600Y34899600D02*
X40533143Y34981057D01*
X37980000Y39020000D02*
X37980000Y39970000D01*
X38799000Y38201000D02*
X37980000Y39020000D01*
X39751000Y37798943D02*
X39751000Y38201000D01*
X42400000Y43135000D02*
X43025000Y42510000D01*
X42400000Y43200000D02*
X42400000Y43135000D01*
X39751000Y39199000D02*
X39751000Y40741000D01*
X39491998Y38939998D02*
X39751000Y39199000D01*
X39116000Y38939998D02*
X39491998Y38939998D01*
X39751000Y40741000D02*
X38101543Y42390457D01*
X38101543Y42390457D02*
X36950000Y42390457D01*
X42500000Y45575000D02*
X43025000Y45050000D01*
X42500000Y45900000D02*
X42500000Y45575000D01*
X2651200Y50130000D02*
X2921000Y49860200D01*
X2921000Y49860200D02*
X2921000Y49072800D01*
X1980000Y50130000D02*
X2651200Y50130000D01*
X8190000Y29610000D02*
X8600000Y29200000D01*
X8190000Y29810000D02*
X8190000Y29610000D01*
X7020000Y29810000D02*
X8190000Y29810000D01*
X8350000Y32350000D02*
X8643503Y32056497D01*
X8643503Y32056497D02*
X8643503Y31832982D01*
X7020000Y32350000D02*
X8350000Y32350000D01*
X12415723Y36198231D02*
X12205025Y35987533D01*
X7020000Y37430000D02*
X8070000Y37430000D01*
X8070000Y37230000D02*
X8500000Y36800000D01*
X8070000Y37430000D02*
X8070000Y37230000D01*
X12205025Y35987533D02*
X12205025Y33405025D01*
X1980000Y29810000D02*
X3210000Y29810000D01*
X3210000Y30010000D02*
X3600000Y30400000D01*
X3210000Y29810000D02*
X3210000Y30010000D01*
X1854200Y47464200D02*
X1980000Y47590000D01*
X1854200Y46278800D02*
X1854200Y47464200D01*
X9499000Y41301000D02*
X8700000Y42100000D01*
X7020000Y42510000D02*
X8290000Y42510000D01*
X8290000Y42510000D02*
X8700000Y42100000D01*
X15392400Y28829000D02*
X9499000Y34722400D01*
X15392400Y27076400D02*
X15392400Y28829000D01*
X9499000Y34722400D02*
X9499000Y41301000D01*
D14*
X3230000Y27070000D02*
X3600000Y26700000D01*
X1980000Y27270000D02*
X3230000Y27270000D01*
X3230000Y27270000D02*
X3230000Y27070000D01*
X1980000Y42510000D02*
X3164200Y41325800D01*
X3164200Y41325800D02*
X6985000Y41325800D01*
G04 #@! TA.AperFunction,Conductor*
G36*
X32718941Y18812617D02*
G01*
X32725413Y18806590D01*
X34489984Y17042019D01*
X36217540Y15314463D01*
X36251025Y15253140D01*
X36246041Y15183448D01*
X36244420Y15179328D01*
X36240264Y15169296D01*
X36225500Y15095072D01*
X36225500Y14044937D01*
X36240266Y13970699D01*
X36296515Y13886516D01*
X36324158Y13868046D01*
X36380699Y13830266D01*
X36380702Y13830266D01*
X36380703Y13830265D01*
X36405666Y13825300D01*
X36454933Y13815500D01*
X39505066Y13815501D01*
X39579301Y13830266D01*
X39663484Y13886516D01*
X39719734Y13970699D01*
X39734500Y14044933D01*
X39734499Y14872501D01*
X39754183Y14939539D01*
X39806987Y14985294D01*
X39858499Y14996500D01*
X41054942Y14996500D01*
X41084382Y14987856D01*
X41114369Y14981332D01*
X41119384Y14977578D01*
X41121981Y14976815D01*
X41142623Y14960181D01*
X41229181Y14873623D01*
X41262666Y14812300D01*
X41265500Y14785942D01*
X41265500Y14044937D01*
X41280266Y13970699D01*
X41336515Y13886516D01*
X41364158Y13868046D01*
X41420699Y13830266D01*
X41420702Y13830266D01*
X41420703Y13830265D01*
X41445666Y13825300D01*
X41494933Y13815500D01*
X44545066Y13815501D01*
X44551305Y13816742D01*
X44620896Y13810518D01*
X44676075Y13767657D01*
X44699322Y13701768D01*
X44699500Y13695126D01*
X44699500Y12904876D01*
X44679815Y12837837D01*
X44627011Y12792082D01*
X44557853Y12782138D01*
X44551317Y12783257D01*
X44545067Y12784500D01*
X44545066Y12784500D01*
X41998331Y12784500D01*
X41931292Y12804185D01*
X41885537Y12856989D01*
X41878556Y12876406D01*
X41875666Y12887191D01*
X41863304Y12933328D01*
X41805142Y13034068D01*
X41783722Y13071169D01*
X41783718Y13071174D01*
X41671173Y13183719D01*
X41671168Y13183723D01*
X41533330Y13263303D01*
X41533329Y13263304D01*
X41494892Y13273603D01*
X41379584Y13304500D01*
X41220416Y13304500D01*
X41133729Y13281272D01*
X41066670Y13263304D01*
X41066669Y13263303D01*
X40928831Y13183723D01*
X40928826Y13183719D01*
X40816281Y13071174D01*
X40816277Y13071169D01*
X40736697Y12933331D01*
X40736696Y12933330D01*
X40721444Y12876406D01*
X40695500Y12779584D01*
X40695500Y12620416D01*
X40726397Y12505108D01*
X40736696Y12466671D01*
X40736697Y12466670D01*
X40816277Y12328832D01*
X40816279Y12328829D01*
X40816280Y12328828D01*
X40928828Y12216280D01*
X40928829Y12216279D01*
X40928831Y12216278D01*
X40972819Y12190882D01*
X41066672Y12136696D01*
X41173595Y12108046D01*
X41233254Y12071682D01*
X41263783Y12008835D01*
X41265500Y11988272D01*
X41265500Y11504937D01*
X41280266Y11430699D01*
X41336515Y11346516D01*
X41370234Y11323986D01*
X41420699Y11290266D01*
X41420702Y11290266D01*
X41420703Y11290265D01*
X41445666Y11285300D01*
X41494933Y11275500D01*
X44545066Y11275501D01*
X44551305Y11276742D01*
X44620896Y11270518D01*
X44676075Y11227657D01*
X44699322Y11161768D01*
X44699500Y11155126D01*
X44699500Y10613768D01*
X44679815Y10546729D01*
X44627011Y10500974D01*
X44571149Y10490372D01*
X44571149Y10490000D01*
X44569193Y10490000D01*
X44568898Y10489944D01*
X44567848Y10490000D01*
X43270000Y10490000D01*
X43270000Y8490000D01*
X44567823Y8490000D01*
X44568869Y8490056D01*
X44569106Y8490000D01*
X44571149Y8490000D01*
X44571149Y8489518D01*
X44636865Y8473984D01*
X44685378Y8423702D01*
X44699500Y8366233D01*
X44699500Y8073768D01*
X44679815Y8006729D01*
X44627011Y7960974D01*
X44571149Y7950372D01*
X44571149Y7950000D01*
X44569193Y7950000D01*
X44568898Y7949944D01*
X44567848Y7950000D01*
X43270000Y7950000D01*
X43270000Y5950000D01*
X44567823Y5950000D01*
X44568869Y5950056D01*
X44569106Y5950000D01*
X44571149Y5950000D01*
X44571149Y5949518D01*
X44636865Y5933984D01*
X44685378Y5883702D01*
X44699500Y5826233D01*
X44699500Y5533768D01*
X44679815Y5466729D01*
X44627011Y5420974D01*
X44571149Y5410372D01*
X44571149Y5410000D01*
X44569193Y5410000D01*
X44568898Y5409944D01*
X44567848Y5410000D01*
X43270000Y5410000D01*
X43270000Y3410000D01*
X44567823Y3410000D01*
X44568869Y3410056D01*
X44569106Y3410000D01*
X44571149Y3410000D01*
X44571149Y3409518D01*
X44636865Y3393984D01*
X44685378Y3343702D01*
X44699500Y3286233D01*
X44699500Y2993768D01*
X44679815Y2926729D01*
X44627011Y2880974D01*
X44571149Y2870372D01*
X44571149Y2870000D01*
X44569193Y2870000D01*
X44568898Y2869944D01*
X44567848Y2870000D01*
X43270000Y2870000D01*
X43270000Y870000D01*
X43946625Y870000D01*
X43976062Y861356D01*
X44006053Y854832D01*
X44009283Y851602D01*
X44013664Y850315D01*
X44033750Y827134D01*
X44055458Y805426D01*
X44056429Y800962D01*
X44059419Y797511D01*
X44063785Y767143D01*
X44070309Y737153D01*
X44068712Y732874D01*
X44069363Y728353D01*
X44056615Y700441D01*
X44045892Y671689D01*
X44041462Y667260D01*
X44040338Y664797D01*
X44020940Y646738D01*
X43973708Y611379D01*
X43925919Y575605D01*
X43911036Y566041D01*
X43713782Y458331D01*
X43697688Y450981D01*
X43487112Y372441D01*
X43470137Y367457D01*
X43250529Y319684D01*
X43233017Y317166D01*
X43004418Y300816D01*
X42995572Y300500D01*
X26006093Y300500D01*
X25993939Y301097D01*
X25943081Y306107D01*
X25875688Y312744D01*
X25851848Y317486D01*
X25743997Y350202D01*
X25721541Y359504D01*
X25622150Y412630D01*
X25601940Y426134D01*
X25514820Y497631D01*
X25497630Y514821D01*
X25426133Y601941D01*
X25412629Y622151D01*
X25389834Y664797D01*
X25359501Y721547D01*
X25350201Y743998D01*
X25317483Y851855D01*
X25312744Y875683D01*
X25301097Y993939D01*
X25300500Y1006093D01*
X25300500Y1602352D01*
X25268477Y1804535D01*
X25205218Y1999224D01*
X25163238Y2081613D01*
X25112287Y2181610D01*
X25094920Y2205514D01*
X24991971Y2347214D01*
X24847213Y2491972D01*
X24681613Y2612285D01*
X24681612Y2612286D01*
X24681610Y2612287D01*
X24619007Y2644185D01*
X24499223Y2705219D01*
X24304534Y2768478D01*
X24129995Y2796122D01*
X24102352Y2800500D01*
X24039562Y2800500D01*
X21047595Y2800500D01*
X21000000Y2800500D01*
X20897648Y2800500D01*
X20873329Y2796649D01*
X20695465Y2768478D01*
X20500776Y2705219D01*
X20318386Y2612285D01*
X20152786Y2491972D01*
X20008028Y2347214D01*
X19887715Y2181614D01*
X19794781Y1999224D01*
X19731522Y1804535D01*
X19699500Y1602352D01*
X19699500Y1006093D01*
X19698903Y993939D01*
X19698903Y993938D01*
X19687256Y875689D01*
X19682514Y851849D01*
X19649798Y743998D01*
X19640495Y721539D01*
X19587370Y622151D01*
X19573866Y601941D01*
X19502369Y514821D01*
X19485179Y497631D01*
X19398059Y426134D01*
X19377849Y412630D01*
X19278461Y359505D01*
X19256002Y350202D01*
X19148151Y317486D01*
X19124311Y312744D01*
X19037215Y304166D01*
X19006060Y301097D01*
X18993907Y300500D01*
X2004428Y300500D01*
X1995582Y300816D01*
X1766982Y317166D01*
X1749470Y319684D01*
X1529862Y367457D01*
X1512887Y372441D01*
X1302311Y450981D01*
X1286217Y458331D01*
X1088963Y566041D01*
X1074080Y575606D01*
X894163Y710290D01*
X880792Y721876D01*
X721875Y880793D01*
X710294Y894157D01*
X693050Y917193D01*
X668634Y982654D01*
X683485Y1050927D01*
X732891Y1100333D01*
X792318Y1115501D01*
X2836913Y1115501D01*
X2903952Y1095816D01*
X2944300Y1053501D01*
X3016277Y928832D01*
X3016279Y928829D01*
X3016280Y928828D01*
X3128828Y816280D01*
X3128829Y816279D01*
X3128831Y816278D01*
X3161337Y797511D01*
X3266672Y736696D01*
X3420416Y695500D01*
X3420419Y695500D01*
X3579581Y695500D01*
X3579584Y695500D01*
X3733328Y736696D01*
X3871172Y816280D01*
X3983720Y928828D01*
X4063304Y1066672D01*
X4104500Y1220416D01*
X4104500Y1322156D01*
X5020000Y1322156D01*
X5026401Y1262628D01*
X5026403Y1262621D01*
X5076645Y1127914D01*
X5076649Y1127907D01*
X5162809Y1012813D01*
X5162812Y1012810D01*
X5277906Y926650D01*
X5277913Y926646D01*
X5412620Y876404D01*
X5412627Y876402D01*
X5472155Y870001D01*
X5472172Y870000D01*
X6770000Y870000D01*
X7270000Y870000D01*
X8567828Y870000D01*
X8567844Y870001D01*
X8627372Y876402D01*
X8627379Y876404D01*
X8762086Y926646D01*
X8762093Y926650D01*
X8877187Y1012810D01*
X8877190Y1012813D01*
X8963350Y1127907D01*
X8963354Y1127914D01*
X9013596Y1262621D01*
X9013598Y1262628D01*
X9019999Y1322156D01*
X9020000Y1322173D01*
X9020000Y1620000D01*
X7270000Y1620000D01*
X7270000Y870000D01*
X6770000Y870000D01*
X6770000Y1620000D01*
X5020000Y1620000D01*
X5020000Y1322156D01*
X4104500Y1322156D01*
X4104500Y1379584D01*
X4063304Y1533328D01*
X4013264Y1620000D01*
X3983722Y1671169D01*
X3983718Y1671174D01*
X3871173Y1783719D01*
X3871168Y1783723D01*
X3796499Y1826833D01*
X3788215Y1835521D01*
X3777296Y1840507D01*
X3764551Y1860339D01*
X3748283Y1877400D01*
X3745067Y1890657D01*
X3739522Y1899285D01*
X3734499Y1934220D01*
X3734499Y2151268D01*
X3754184Y2218307D01*
X3806988Y2264062D01*
X3876146Y2274006D01*
X3927389Y2254371D01*
X4000507Y2205514D01*
X4000510Y2205513D01*
X4000511Y2205512D01*
X4123019Y2154768D01*
X4192414Y2126024D01*
X4396136Y2085501D01*
X4396139Y2085500D01*
X4396141Y2085500D01*
X4603861Y2085500D01*
X4603862Y2085501D01*
X4807586Y2126024D01*
X4876981Y2154769D01*
X4946447Y2162237D01*
X5008926Y2130963D01*
X5012112Y2127888D01*
X5020000Y2120000D01*
X6770000Y2120000D01*
X7270000Y2120000D01*
X9020000Y2120000D01*
X9020000Y2417828D01*
X9019999Y2417845D01*
X9013598Y2477373D01*
X9013596Y2477380D01*
X8963354Y2612087D01*
X8963350Y2612094D01*
X8877190Y2727188D01*
X8877187Y2727191D01*
X8762093Y2813351D01*
X8762086Y2813355D01*
X8627379Y2863597D01*
X8627372Y2863599D01*
X8567844Y2870000D01*
X7270000Y2870000D01*
X7270000Y2120000D01*
X6770000Y2120000D01*
X6770000Y2870000D01*
X5672547Y2870000D01*
X5605508Y2889685D01*
X5559753Y2942489D01*
X5549809Y3011647D01*
X5550930Y3018192D01*
X5554500Y3036139D01*
X5554500Y3243862D01*
X5554499Y3243864D01*
X5521548Y3409518D01*
X5513976Y3447586D01*
X5498873Y3484049D01*
X5491404Y3553518D01*
X5522680Y3615997D01*
X5582769Y3651649D01*
X5613426Y3655501D01*
X8545066Y3655501D01*
X8619301Y3670266D01*
X8703484Y3726516D01*
X8759734Y3810699D01*
X8774500Y3884933D01*
X8774499Y4488876D01*
X8794183Y4555914D01*
X8815171Y4579584D01*
X35595500Y4579584D01*
X35595500Y4420416D01*
X35626397Y4305108D01*
X35636696Y4266671D01*
X35636697Y4266670D01*
X35716277Y4128832D01*
X35716279Y4128829D01*
X35716280Y4128828D01*
X35828828Y4016280D01*
X35828829Y4016279D01*
X35828831Y4016278D01*
X35844136Y4007442D01*
X35966672Y3936696D01*
X36120416Y3895500D01*
X36122286Y3895500D01*
X36123804Y3895055D01*
X36128476Y3894439D01*
X36128380Y3893711D01*
X36189325Y3875815D01*
X36235080Y3823011D01*
X36236846Y3818955D01*
X36240265Y3810701D01*
X36296515Y3726516D01*
X36330234Y3703986D01*
X36380699Y3670266D01*
X36380702Y3670266D01*
X36380703Y3670265D01*
X36405666Y3665300D01*
X36454933Y3655500D01*
X37469500Y3655501D01*
X37536539Y3635817D01*
X37582294Y3583013D01*
X37593500Y3531501D01*
X37593500Y2748500D01*
X37573815Y2681461D01*
X37521011Y2635706D01*
X37469500Y2624500D01*
X36454936Y2624500D01*
X36380698Y2609734D01*
X36296515Y2553485D01*
X36240266Y2469301D01*
X36240264Y2469297D01*
X36225500Y2395072D01*
X36225500Y1344937D01*
X36240266Y1270699D01*
X36296515Y1186516D01*
X36330234Y1163986D01*
X36380699Y1130266D01*
X36380702Y1130266D01*
X36380703Y1130265D01*
X36405666Y1125300D01*
X36454933Y1115500D01*
X39505066Y1115501D01*
X39579301Y1130266D01*
X39663484Y1186516D01*
X39719734Y1270699D01*
X39729969Y1322156D01*
X41020000Y1322156D01*
X41026401Y1262628D01*
X41026403Y1262621D01*
X41076645Y1127914D01*
X41076649Y1127907D01*
X41162809Y1012813D01*
X41162812Y1012810D01*
X41277906Y926650D01*
X41277913Y926646D01*
X41412620Y876404D01*
X41412627Y876402D01*
X41472155Y870001D01*
X41472172Y870000D01*
X42770000Y870000D01*
X42770000Y1620000D01*
X41020000Y1620000D01*
X41020000Y1322156D01*
X39729969Y1322156D01*
X39734500Y1344933D01*
X39734499Y1877400D01*
X39734499Y2151268D01*
X39754183Y2218307D01*
X39806987Y2264062D01*
X39876146Y2274006D01*
X39927389Y2254371D01*
X40000507Y2205514D01*
X40000510Y2205513D01*
X40000511Y2205512D01*
X40123019Y2154768D01*
X40192414Y2126024D01*
X40396136Y2085501D01*
X40396139Y2085500D01*
X40396141Y2085500D01*
X40603861Y2085500D01*
X40603862Y2085501D01*
X40807586Y2126024D01*
X40876981Y2154769D01*
X40946447Y2162237D01*
X41008926Y2130963D01*
X41012112Y2127888D01*
X41020000Y2120000D01*
X42770000Y2120000D01*
X42770000Y2870000D01*
X41672547Y2870000D01*
X41605508Y2889685D01*
X41559753Y2942489D01*
X41549809Y3011647D01*
X41550930Y3018192D01*
X41554500Y3036139D01*
X41554500Y3243862D01*
X41550930Y3261808D01*
X41557157Y3331399D01*
X41600019Y3386577D01*
X41665909Y3409822D01*
X41672547Y3410000D01*
X42770000Y3410000D01*
X42770000Y4160000D01*
X41019999Y4160000D01*
X41012111Y4152112D01*
X40950788Y4118627D01*
X40881096Y4123613D01*
X40876979Y4125233D01*
X40807590Y4153975D01*
X40807578Y4153978D01*
X40603862Y4194500D01*
X40603859Y4194500D01*
X40396141Y4194500D01*
X40396138Y4194500D01*
X40192421Y4153978D01*
X40192409Y4153975D01*
X40000511Y4074489D01*
X39927389Y4025630D01*
X39860712Y4004753D01*
X39793332Y4023238D01*
X39746642Y4075217D01*
X39734499Y4128730D01*
X39734499Y4935066D01*
X39729968Y4957845D01*
X41020000Y4957845D01*
X41020000Y4660000D01*
X42770000Y4660000D01*
X42770000Y5410000D01*
X41472155Y5410000D01*
X41412627Y5403599D01*
X41412620Y5403597D01*
X41277913Y5353355D01*
X41277906Y5353351D01*
X41162812Y5267191D01*
X41162809Y5267188D01*
X41076649Y5152094D01*
X41076645Y5152087D01*
X41026403Y5017380D01*
X41026401Y5017373D01*
X41020000Y4957845D01*
X39729968Y4957845D01*
X39719734Y5009301D01*
X39683650Y5063304D01*
X39663484Y5093485D01*
X39613019Y5127204D01*
X39579301Y5149734D01*
X39579299Y5149735D01*
X39579296Y5149736D01*
X39505069Y5164500D01*
X36454936Y5164500D01*
X36380697Y5149734D01*
X36380695Y5149733D01*
X36344277Y5125398D01*
X36277600Y5104520D01*
X36275386Y5104500D01*
X36120416Y5104500D01*
X36028169Y5079783D01*
X35966670Y5063304D01*
X35966669Y5063303D01*
X35828831Y4983723D01*
X35828826Y4983719D01*
X35716281Y4871174D01*
X35716277Y4871169D01*
X35636697Y4733331D01*
X35636696Y4733330D01*
X35622281Y4679531D01*
X35595500Y4579584D01*
X8815171Y4579584D01*
X8819456Y4584417D01*
X8827478Y4591054D01*
X8871172Y4616280D01*
X8983720Y4728828D01*
X9063304Y4866672D01*
X9104500Y5020416D01*
X9104500Y5179584D01*
X9063304Y5333328D01*
X8983720Y5471172D01*
X8871172Y5583720D01*
X8871171Y5583721D01*
X8871168Y5583723D01*
X8733330Y5663303D01*
X8733329Y5663304D01*
X8694892Y5673603D01*
X8579584Y5704500D01*
X8420416Y5704500D01*
X8328169Y5679783D01*
X8266670Y5663304D01*
X8266669Y5663303D01*
X8128831Y5583723D01*
X8128826Y5583719D01*
X8016281Y5471174D01*
X8016277Y5471169D01*
X7936697Y5333331D01*
X7936696Y5333330D01*
X7924863Y5289170D01*
X7918975Y5267191D01*
X7916085Y5256406D01*
X7879719Y5196746D01*
X7816872Y5166217D01*
X7796310Y5164500D01*
X5494936Y5164500D01*
X5420698Y5149734D01*
X5336515Y5093485D01*
X5280266Y5009301D01*
X5280264Y5009297D01*
X5265500Y4935072D01*
X5265500Y4128733D01*
X5245815Y4061694D01*
X5193011Y4015939D01*
X5123853Y4005995D01*
X5072609Y4025631D01*
X4999490Y4074488D01*
X4999488Y4074489D01*
X4807590Y4153975D01*
X4807578Y4153978D01*
X4603862Y4194500D01*
X4603859Y4194500D01*
X4396141Y4194500D01*
X4396138Y4194500D01*
X4192421Y4153978D01*
X4192409Y4153975D01*
X4000511Y4074489D01*
X3927389Y4025630D01*
X3917688Y4022593D01*
X3910010Y4015939D01*
X3884912Y4012331D01*
X3860712Y4004753D01*
X3850912Y4007442D01*
X3840852Y4005995D01*
X3817783Y4016530D01*
X3793332Y4023238D01*
X3786541Y4030798D01*
X3777296Y4035020D01*
X3763585Y4056355D01*
X3746642Y4075217D01*
X3744010Y4086814D01*
X3739522Y4093798D01*
X3734499Y4128730D01*
X3734499Y4315068D01*
X3754184Y4382106D01*
X3806988Y4427861D01*
X3826398Y4434840D01*
X3833328Y4436696D01*
X3971172Y4516280D01*
X4083720Y4628828D01*
X4163304Y4766672D01*
X4204500Y4920416D01*
X4204500Y5079584D01*
X4163304Y5233328D01*
X4105568Y5333330D01*
X4083722Y5371169D01*
X4083718Y5371174D01*
X3971173Y5483719D01*
X3971168Y5483723D01*
X3833330Y5563303D01*
X3833329Y5563304D01*
X3794892Y5573603D01*
X3679584Y5604500D01*
X3520416Y5604500D01*
X3428169Y5579783D01*
X3366670Y5563304D01*
X3366669Y5563303D01*
X3228831Y5483723D01*
X3228826Y5483719D01*
X3116281Y5371174D01*
X3116277Y5371169D01*
X3032753Y5226500D01*
X2982186Y5178284D01*
X2925366Y5164500D01*
X454934Y5164500D01*
X454928Y5164499D01*
X448686Y5163257D01*
X379095Y5169487D01*
X323919Y5212352D01*
X300677Y5278243D01*
X300500Y5284875D01*
X300500Y6075125D01*
X320185Y6142164D01*
X372989Y6187919D01*
X442147Y6197863D01*
X448657Y6196749D01*
X454933Y6195500D01*
X3505066Y6195501D01*
X3579301Y6210266D01*
X3663484Y6266516D01*
X3719734Y6350699D01*
X3734500Y6424933D01*
X3734499Y7028246D01*
X3754183Y7095284D01*
X3770818Y7115926D01*
X3771174Y7116282D01*
X3883720Y7228828D01*
X3963304Y7366672D01*
X3992350Y7475072D01*
X5265500Y7475072D01*
X5265500Y6424937D01*
X5280266Y6350699D01*
X5336515Y6266516D01*
X5370234Y6243986D01*
X5420699Y6210266D01*
X5420702Y6210266D01*
X5420703Y6210265D01*
X5445666Y6205300D01*
X5494933Y6195500D01*
X8545066Y6195501D01*
X8619301Y6210266D01*
X8703484Y6266516D01*
X8759734Y6350699D01*
X8774500Y6424933D01*
X8774499Y6931141D01*
X8794183Y6998179D01*
X8836500Y7038527D01*
X8971165Y7116276D01*
X8971164Y7116276D01*
X8971172Y7116280D01*
X9083720Y7228828D01*
X9163304Y7366672D01*
X9204500Y7520416D01*
X9204500Y7679584D01*
X9163304Y7833328D01*
X9123512Y7902250D01*
X9083722Y7971169D01*
X9083718Y7971174D01*
X8971173Y8083719D01*
X8971168Y8083723D01*
X8833330Y8163303D01*
X8833329Y8163304D01*
X8794892Y8173603D01*
X8679584Y8204500D01*
X8520416Y8204500D01*
X8428169Y8179783D01*
X8366670Y8163304D01*
X8366669Y8163303D01*
X8228831Y8083723D01*
X8228826Y8083719D01*
X8116281Y7971174D01*
X8116277Y7971169D01*
X8036697Y7833331D01*
X8036695Y7833327D01*
X8026801Y7796403D01*
X7990434Y7736744D01*
X7927586Y7706216D01*
X7907027Y7704500D01*
X5494936Y7704500D01*
X5420698Y7689734D01*
X5336515Y7633485D01*
X5280266Y7549301D01*
X5280264Y7549297D01*
X5265500Y7475072D01*
X3992350Y7475072D01*
X4004500Y7520416D01*
X4004500Y7679584D01*
X3963304Y7833328D01*
X3923512Y7902250D01*
X3883722Y7971169D01*
X3883718Y7971174D01*
X3771173Y8083719D01*
X3771168Y8083723D01*
X3633330Y8163303D01*
X3633329Y8163304D01*
X3594892Y8173603D01*
X3479584Y8204500D01*
X3320416Y8204500D01*
X3228169Y8179783D01*
X3166670Y8163304D01*
X3166669Y8163303D01*
X3028831Y8083723D01*
X3028826Y8083719D01*
X2916281Y7971174D01*
X2916277Y7971169D01*
X2836697Y7833331D01*
X2836695Y7833327D01*
X2826801Y7796403D01*
X2790434Y7736744D01*
X2727586Y7706216D01*
X2707027Y7704500D01*
X454934Y7704500D01*
X454928Y7704499D01*
X448686Y7703257D01*
X379095Y7709487D01*
X323919Y7752352D01*
X300677Y7818243D01*
X300500Y7824875D01*
X300500Y8615125D01*
X320185Y8682164D01*
X372989Y8727919D01*
X442147Y8737863D01*
X448657Y8736749D01*
X454933Y8735500D01*
X3505066Y8735501D01*
X3579301Y8750266D01*
X3663484Y8806516D01*
X3719734Y8890699D01*
X3734500Y8964933D01*
X3734499Y9415068D01*
X3754183Y9482106D01*
X3806987Y9527861D01*
X3826398Y9534840D01*
X3833328Y9536696D01*
X3971172Y9616280D01*
X4083720Y9728828D01*
X4163304Y9866672D01*
X4203068Y10015072D01*
X5265500Y10015072D01*
X5265500Y8964937D01*
X5280266Y8890699D01*
X5336515Y8806516D01*
X5370017Y8784131D01*
X5420699Y8750266D01*
X5420702Y8750266D01*
X5420703Y8750265D01*
X5445666Y8745300D01*
X5494933Y8735500D01*
X8545066Y8735501D01*
X8619301Y8750266D01*
X8703484Y8806516D01*
X8759734Y8890699D01*
X8774500Y8964933D01*
X8774500Y9098990D01*
X8794185Y9166029D01*
X8846989Y9211784D01*
X8866400Y9218763D01*
X8933328Y9236696D01*
X9071172Y9316280D01*
X9183720Y9428828D01*
X9263304Y9566672D01*
X9304500Y9720416D01*
X9304500Y9879584D01*
X9263304Y10033328D01*
X9193372Y10154455D01*
X9183722Y10171169D01*
X9183718Y10171174D01*
X9071173Y10283719D01*
X9071168Y10283723D01*
X8933330Y10363303D01*
X8933329Y10363304D01*
X8894892Y10373603D01*
X8779584Y10404500D01*
X8620416Y10404500D01*
X8528169Y10379783D01*
X8466670Y10363304D01*
X8466669Y10363303D01*
X8328832Y10283723D01*
X8328823Y10283717D01*
X8325921Y10280814D01*
X8322872Y10279150D01*
X8322383Y10278774D01*
X8322324Y10278851D01*
X8264596Y10247332D01*
X8238245Y10244500D01*
X5494936Y10244500D01*
X5420698Y10229734D01*
X5336515Y10173485D01*
X5280266Y10089301D01*
X5280264Y10089297D01*
X5265500Y10015072D01*
X4203068Y10015072D01*
X4204500Y10020416D01*
X4204500Y10179584D01*
X4163304Y10333328D01*
X4083720Y10471172D01*
X3971172Y10583720D01*
X3971171Y10583721D01*
X3971168Y10583723D01*
X3833330Y10663303D01*
X3833329Y10663304D01*
X3794892Y10673603D01*
X3679584Y10704500D01*
X3520416Y10704500D01*
X3428169Y10679783D01*
X3366670Y10663304D01*
X3366669Y10663303D01*
X3228831Y10583723D01*
X3228826Y10583719D01*
X3116281Y10471174D01*
X3116277Y10471169D01*
X3036697Y10333332D01*
X3033587Y10325822D01*
X3031576Y10326655D01*
X3001154Y10276745D01*
X2938307Y10246217D01*
X2917746Y10244500D01*
X454934Y10244500D01*
X454928Y10244499D01*
X448686Y10243257D01*
X379095Y10249487D01*
X323919Y10292352D01*
X300677Y10358243D01*
X300500Y10364875D01*
X300500Y11155125D01*
X320185Y11222164D01*
X372989Y11267919D01*
X442147Y11277863D01*
X448657Y11276749D01*
X454933Y11275500D01*
X3505066Y11275501D01*
X3579301Y11290266D01*
X3663484Y11346516D01*
X3719734Y11430699D01*
X3734500Y11504933D01*
X3734499Y12195943D01*
X3754183Y12262981D01*
X3770812Y12283618D01*
X3875668Y12388472D01*
X4557434Y13070238D01*
X4618757Y13103723D01*
X4645115Y13106557D01*
X7876551Y13106557D01*
X7893026Y13101720D01*
X7910196Y13101905D01*
X7925854Y13092080D01*
X7943590Y13086872D01*
X7954832Y13073898D01*
X7969379Y13064770D01*
X7977241Y13048037D01*
X7989345Y13034068D01*
X7991788Y13017075D01*
X7999091Y13001532D01*
X7996658Y12983207D01*
X7999289Y12964910D01*
X7992112Y12948969D01*
X7989896Y12932270D01*
X7974492Y12909827D01*
X7971138Y12902374D01*
X7967842Y12898487D01*
X7928403Y12859047D01*
X7915578Y12836835D01*
X7908358Y12828317D01*
X7888121Y12815000D01*
X7870587Y12798282D01*
X7858122Y12795259D01*
X7849992Y12789908D01*
X7835415Y12789751D01*
X7813771Y12784500D01*
X5494936Y12784500D01*
X5420698Y12769734D01*
X5336515Y12713485D01*
X5280266Y12629301D01*
X5280264Y12629297D01*
X5265500Y12555072D01*
X5265500Y11504937D01*
X5280266Y11430699D01*
X5336515Y11346516D01*
X5370234Y11323986D01*
X5420699Y11290266D01*
X5420702Y11290266D01*
X5420703Y11290265D01*
X5445666Y11285300D01*
X5494933Y11275500D01*
X8545066Y11275501D01*
X8619301Y11290266D01*
X8703484Y11346516D01*
X8759734Y11430699D01*
X8774500Y11504933D01*
X8774499Y11943998D01*
X8794183Y12011036D01*
X8810818Y12031678D01*
X8850822Y12071682D01*
X8895843Y12116703D01*
X8975427Y12254547D01*
X9016623Y12408291D01*
X9016623Y12567459D01*
X8975427Y12721203D01*
X8930926Y12798282D01*
X8895845Y12859044D01*
X8895841Y12859049D01*
X8860014Y12894876D01*
X8826529Y12956199D01*
X8831513Y13025891D01*
X8873385Y13081824D01*
X8938849Y13106241D01*
X8947695Y13106557D01*
X13804942Y13106557D01*
X13871981Y13086872D01*
X13892622Y13070239D01*
X19503587Y7459273D01*
X19503588Y7459272D01*
X19567729Y7395131D01*
X19567731Y7395130D01*
X19567735Y7395127D01*
X19646278Y7349781D01*
X19646285Y7349777D01*
X19733903Y7326300D01*
X19733905Y7326300D01*
X30042752Y7326300D01*
X30042755Y7326300D01*
X30130372Y7349777D01*
X30159635Y7366672D01*
X30208928Y7395131D01*
X30273069Y7459272D01*
X30273070Y7459275D01*
X32393379Y9579584D01*
X35595500Y9579584D01*
X35595500Y9420416D01*
X35623404Y9316278D01*
X35636696Y9266671D01*
X35636697Y9266670D01*
X35716277Y9128832D01*
X35716279Y9128829D01*
X35716280Y9128828D01*
X35828828Y9016280D01*
X35966672Y8936696D01*
X36120416Y8895500D01*
X36170779Y8895500D01*
X36237818Y8875815D01*
X36273881Y8840391D01*
X36296515Y8806516D01*
X36330017Y8784131D01*
X36380699Y8750266D01*
X36380702Y8750266D01*
X36380703Y8750265D01*
X36405666Y8745300D01*
X36454933Y8735500D01*
X37469500Y8735501D01*
X37536539Y8715817D01*
X37582294Y8663013D01*
X37593500Y8611501D01*
X37593500Y7828500D01*
X37573815Y7761461D01*
X37521011Y7715706D01*
X37469500Y7704500D01*
X36454936Y7704500D01*
X36380698Y7689734D01*
X36296515Y7633485D01*
X36240266Y7549301D01*
X36240264Y7549297D01*
X36225500Y7475072D01*
X36225500Y6424937D01*
X36240266Y6350699D01*
X36296515Y6266516D01*
X36330234Y6243986D01*
X36380699Y6210266D01*
X36380702Y6210266D01*
X36380703Y6210265D01*
X36405666Y6205300D01*
X36454933Y6195500D01*
X39505066Y6195501D01*
X39579301Y6210266D01*
X39663484Y6266516D01*
X39719734Y6350699D01*
X39729969Y6402156D01*
X41020000Y6402156D01*
X41026401Y6342628D01*
X41026403Y6342621D01*
X41076645Y6207914D01*
X41076649Y6207907D01*
X41162809Y6092813D01*
X41162812Y6092810D01*
X41277906Y6006650D01*
X41277913Y6006646D01*
X41412620Y5956404D01*
X41412627Y5956402D01*
X41472155Y5950001D01*
X41472172Y5950000D01*
X42770000Y5950000D01*
X42770000Y6700000D01*
X41020000Y6700000D01*
X41020000Y6402156D01*
X39729969Y6402156D01*
X39734500Y6424933D01*
X39734499Y6998179D01*
X39734499Y7475063D01*
X39734499Y7475066D01*
X39729968Y7497845D01*
X41020000Y7497845D01*
X41020000Y7200000D01*
X42770000Y7200000D01*
X42770000Y7950000D01*
X41472155Y7950000D01*
X41412627Y7943599D01*
X41412620Y7943597D01*
X41277913Y7893355D01*
X41277906Y7893351D01*
X41162812Y7807191D01*
X41162809Y7807188D01*
X41076649Y7692094D01*
X41076645Y7692087D01*
X41026403Y7557380D01*
X41026401Y7557373D01*
X41020000Y7497845D01*
X39729968Y7497845D01*
X39719734Y7549301D01*
X39701068Y7577235D01*
X39663484Y7633485D01*
X39594491Y7679584D01*
X39579301Y7689734D01*
X39579299Y7689735D01*
X39579296Y7689736D01*
X39505071Y7704500D01*
X39505067Y7704500D01*
X38480500Y7704500D01*
X38413461Y7724185D01*
X38367706Y7776989D01*
X38356500Y7828500D01*
X38356500Y8611501D01*
X38376185Y8678540D01*
X38428989Y8724295D01*
X38480500Y8735501D01*
X39505064Y8735501D01*
X39505066Y8735501D01*
X39579301Y8750266D01*
X39663484Y8806516D01*
X39719734Y8890699D01*
X39729969Y8942156D01*
X41020000Y8942156D01*
X41026401Y8882628D01*
X41026403Y8882621D01*
X41076645Y8747914D01*
X41076649Y8747907D01*
X41162809Y8632813D01*
X41162812Y8632810D01*
X41277906Y8546650D01*
X41277913Y8546646D01*
X41412620Y8496404D01*
X41412627Y8496402D01*
X41472155Y8490001D01*
X41472172Y8490000D01*
X42770000Y8490000D01*
X42770000Y9240000D01*
X41020000Y9240000D01*
X41020000Y8942156D01*
X39729969Y8942156D01*
X39734500Y8964933D01*
X39734499Y9510215D01*
X39734499Y10015063D01*
X39734499Y10015066D01*
X39729968Y10037845D01*
X41020000Y10037845D01*
X41020000Y9740000D01*
X42770000Y9740000D01*
X42770000Y10490000D01*
X41472155Y10490000D01*
X41412627Y10483599D01*
X41412620Y10483597D01*
X41277913Y10433355D01*
X41277906Y10433351D01*
X41162812Y10347191D01*
X41162809Y10347188D01*
X41076649Y10232094D01*
X41076645Y10232087D01*
X41026403Y10097380D01*
X41026401Y10097373D01*
X41020000Y10037845D01*
X39729968Y10037845D01*
X39719734Y10089301D01*
X39665028Y10171174D01*
X39663484Y10173485D01*
X39613019Y10207204D01*
X39579301Y10229734D01*
X39579299Y10229735D01*
X39579296Y10229736D01*
X39505069Y10244500D01*
X36454936Y10244500D01*
X36380698Y10229734D01*
X36296518Y10173487D01*
X36296517Y10173486D01*
X36296516Y10173484D01*
X36287243Y10159607D01*
X36233632Y10114804D01*
X36184143Y10104500D01*
X36120416Y10104500D01*
X36028169Y10079783D01*
X35966670Y10063304D01*
X35966669Y10063303D01*
X35828831Y9983723D01*
X35828826Y9983719D01*
X35716281Y9871174D01*
X35716277Y9871169D01*
X35636697Y9733331D01*
X35636696Y9733330D01*
X35633237Y9720419D01*
X35595500Y9579584D01*
X32393379Y9579584D01*
X32459318Y9645523D01*
X32459323Y9645527D01*
X32469527Y9655731D01*
X32469528Y9655731D01*
X32533669Y9719872D01*
X32579023Y9798428D01*
X32585789Y9823680D01*
X32602500Y9886045D01*
X32602500Y9976754D01*
X32602500Y11482156D01*
X35980000Y11482156D01*
X35986401Y11422628D01*
X35986403Y11422621D01*
X36036645Y11287914D01*
X36036649Y11287907D01*
X36122809Y11172813D01*
X36122812Y11172810D01*
X36237906Y11086650D01*
X36237913Y11086646D01*
X36372620Y11036404D01*
X36372627Y11036402D01*
X36432155Y11030001D01*
X36432172Y11030000D01*
X37730000Y11030000D01*
X38230000Y11030000D01*
X39527828Y11030000D01*
X39527844Y11030001D01*
X39587372Y11036402D01*
X39587379Y11036404D01*
X39722086Y11086646D01*
X39722093Y11086650D01*
X39837187Y11172810D01*
X39837190Y11172813D01*
X39923350Y11287907D01*
X39923354Y11287914D01*
X39973596Y11422621D01*
X39973598Y11422628D01*
X39979999Y11482156D01*
X39980000Y11482173D01*
X39980000Y11780000D01*
X38230000Y11780000D01*
X38230000Y11030000D01*
X37730000Y11030000D01*
X37730000Y11780000D01*
X35980000Y11780000D01*
X35980000Y11482156D01*
X32602500Y11482156D01*
X32602500Y12577845D01*
X35980000Y12577845D01*
X35980000Y12280000D01*
X37730000Y12280000D01*
X38230000Y12280000D01*
X39980000Y12280000D01*
X39980000Y12577828D01*
X39979999Y12577845D01*
X39973598Y12637373D01*
X39973596Y12637380D01*
X39923354Y12772087D01*
X39923350Y12772094D01*
X39837190Y12887188D01*
X39837187Y12887191D01*
X39722093Y12973351D01*
X39722086Y12973355D01*
X39587379Y13023597D01*
X39587372Y13023599D01*
X39527844Y13030000D01*
X38230000Y13030000D01*
X38230000Y12280000D01*
X37730000Y12280000D01*
X37730000Y13030000D01*
X36432155Y13030000D01*
X36372627Y13023599D01*
X36372620Y13023597D01*
X36237913Y12973355D01*
X36237906Y12973351D01*
X36122812Y12887191D01*
X36122809Y12887188D01*
X36036649Y12772094D01*
X36036645Y12772087D01*
X35986403Y12637380D01*
X35986401Y12637373D01*
X35980000Y12577845D01*
X32602500Y12577845D01*
X32602500Y18448630D01*
X32587752Y18503669D01*
X32579023Y18536248D01*
X32563982Y18562300D01*
X32550096Y18586352D01*
X32530350Y18620553D01*
X32513738Y18682552D01*
X32513738Y18718904D01*
X32533423Y18785943D01*
X32586227Y18831698D01*
X32655385Y18841642D01*
X32718941Y18812617D01*
G37*
G04 #@! TD.AperFunction*
G04 #@! TA.AperFunction,Conductor*
G36*
X448657Y3656749D02*
G01*
X454933Y3655500D01*
X3386566Y3655501D01*
X3453605Y3635816D01*
X3499360Y3583013D01*
X3509304Y3513854D01*
X3501127Y3484049D01*
X3486025Y3447591D01*
X3486022Y3447579D01*
X3445500Y3243864D01*
X3445500Y3036137D01*
X3486022Y2832422D01*
X3486024Y2832414D01*
X3501127Y2795951D01*
X3508594Y2726481D01*
X3477318Y2664003D01*
X3417229Y2628351D01*
X3386565Y2624500D01*
X454934Y2624500D01*
X454928Y2624499D01*
X448686Y2623257D01*
X379095Y2629487D01*
X323919Y2672352D01*
X300677Y2738243D01*
X300500Y2744875D01*
X300500Y3535125D01*
X320185Y3602164D01*
X372989Y3647919D01*
X442147Y3657863D01*
X448657Y3656749D01*
G37*
G04 #@! TD.AperFunction*
G04 #@! TA.AperFunction,Conductor*
G36*
X43004418Y52199184D02*
G01*
X43233020Y52182835D01*
X43250529Y52180317D01*
X43470144Y52132542D01*
X43487103Y52127563D01*
X43697694Y52049017D01*
X43713777Y52041673D01*
X43911036Y51933960D01*
X43925919Y51924395D01*
X44105836Y51789711D01*
X44119207Y51778125D01*
X44278124Y51619208D01*
X44289710Y51605837D01*
X44424394Y51425920D01*
X44433957Y51411041D01*
X44487259Y51313426D01*
X44502111Y51245155D01*
X44477695Y51179690D01*
X44421761Y51137819D01*
X44378427Y51130000D01*
X43270000Y51130000D01*
X43270000Y49130000D01*
X44567823Y49130000D01*
X44568869Y49130056D01*
X44569106Y49130000D01*
X44571149Y49130000D01*
X44571149Y49129518D01*
X44636865Y49113984D01*
X44685378Y49063702D01*
X44699500Y49006233D01*
X44699500Y48713768D01*
X44679815Y48646729D01*
X44627011Y48600974D01*
X44571149Y48590372D01*
X44571149Y48590000D01*
X44569193Y48590000D01*
X44568898Y48589944D01*
X44567848Y48590000D01*
X43270000Y48590000D01*
X43270000Y46590000D01*
X44567823Y46590000D01*
X44568869Y46590056D01*
X44569106Y46590000D01*
X44571149Y46590000D01*
X44571149Y46589518D01*
X44636865Y46573984D01*
X44685378Y46523702D01*
X44699500Y46466233D01*
X44699500Y45924876D01*
X44679815Y45857837D01*
X44627011Y45812082D01*
X44557853Y45802138D01*
X44551317Y45803257D01*
X44545067Y45804500D01*
X44545066Y45804500D01*
X43228500Y45804500D01*
X43161461Y45824185D01*
X43115706Y45876989D01*
X43104500Y45928500D01*
X43104500Y45979582D01*
X43104500Y45979584D01*
X43063304Y46133328D01*
X42983720Y46271172D01*
X42871172Y46383720D01*
X42871171Y46383721D01*
X42871168Y46383723D01*
X42816204Y46415456D01*
X42767989Y46466023D01*
X42754765Y46534630D01*
X42770000Y46572686D01*
X42770000Y47340000D01*
X41020000Y47340000D01*
X41020000Y47042156D01*
X41026401Y46982628D01*
X41026403Y46982621D01*
X41076645Y46847914D01*
X41076649Y46847907D01*
X41162809Y46732813D01*
X41162812Y46732810D01*
X41277906Y46646650D01*
X41277913Y46646646D01*
X41412620Y46596404D01*
X41412627Y46596402D01*
X41472155Y46590001D01*
X41472172Y46590000D01*
X42035746Y46590000D01*
X42102785Y46570315D01*
X42148540Y46517511D01*
X42158484Y46448353D01*
X42129459Y46384797D01*
X42123427Y46378319D01*
X42016281Y46271174D01*
X42016277Y46271169D01*
X41936697Y46133331D01*
X41936696Y46133330D01*
X41935984Y46130671D01*
X41895500Y45979584D01*
X41895500Y45979582D01*
X41895500Y45928500D01*
X41875815Y45861461D01*
X41823011Y45815706D01*
X41771500Y45804500D01*
X41494936Y45804500D01*
X41420698Y45789734D01*
X41336515Y45733485D01*
X41280266Y45649301D01*
X41280264Y45649297D01*
X41265500Y45575072D01*
X41265500Y44524937D01*
X41280266Y44450699D01*
X41336515Y44366516D01*
X41370234Y44343986D01*
X41420699Y44310266D01*
X41420702Y44310266D01*
X41420703Y44310265D01*
X41437058Y44307012D01*
X41494933Y44295500D01*
X44545066Y44295501D01*
X44551305Y44296742D01*
X44620896Y44290518D01*
X44676075Y44247657D01*
X44699322Y44181768D01*
X44699500Y44175126D01*
X44699500Y43384876D01*
X44679815Y43317837D01*
X44627011Y43272082D01*
X44557853Y43262138D01*
X44551317Y43263257D01*
X44545067Y43264500D01*
X44545066Y43264500D01*
X43103690Y43264500D01*
X43036651Y43284185D01*
X42990896Y43336989D01*
X42983915Y43356406D01*
X42980516Y43369092D01*
X42963304Y43433328D01*
X42883720Y43571172D01*
X42771172Y43683720D01*
X42771171Y43683721D01*
X42771168Y43683723D01*
X42633330Y43763303D01*
X42633329Y43763304D01*
X42594892Y43773603D01*
X42479584Y43804500D01*
X42320416Y43804500D01*
X42228169Y43779783D01*
X42166670Y43763304D01*
X42166669Y43763303D01*
X42028831Y43683723D01*
X42028826Y43683719D01*
X41916281Y43571174D01*
X41916277Y43571169D01*
X41836697Y43433331D01*
X41836696Y43433330D01*
X41824863Y43389170D01*
X41821262Y43375726D01*
X41816085Y43356406D01*
X41779719Y43296746D01*
X41716872Y43266217D01*
X41696311Y43264500D01*
X41494936Y43264500D01*
X41420698Y43249734D01*
X41336515Y43193485D01*
X41280266Y43109301D01*
X41280264Y43109297D01*
X41265500Y43035072D01*
X41265500Y41984937D01*
X41280266Y41910699D01*
X41336515Y41826516D01*
X41370234Y41803986D01*
X41420699Y41770266D01*
X41420702Y41770266D01*
X41420703Y41770265D01*
X41433197Y41767780D01*
X41494933Y41755500D01*
X42136792Y41755501D01*
X42203829Y41735817D01*
X42249584Y41683013D01*
X42259528Y41613854D01*
X42230503Y41550298D01*
X42198791Y41524114D01*
X42128829Y41483721D01*
X42128826Y41483719D01*
X42016281Y41371174D01*
X42016277Y41371169D01*
X41936697Y41233331D01*
X41936696Y41233330D01*
X41926325Y41194623D01*
X41895500Y41079584D01*
X41895500Y40920416D01*
X41906170Y40880592D01*
X41904508Y40810744D01*
X41865346Y40752881D01*
X41801117Y40725377D01*
X41786396Y40724500D01*
X41494936Y40724500D01*
X41420698Y40709734D01*
X41336515Y40653485D01*
X41280266Y40569301D01*
X41280264Y40569297D01*
X41265500Y40495072D01*
X41265500Y39444937D01*
X41280266Y39370699D01*
X41336515Y39286516D01*
X41370234Y39263986D01*
X41420699Y39230266D01*
X41420702Y39230266D01*
X41420703Y39230265D01*
X41439878Y39226451D01*
X41494933Y39215500D01*
X44545066Y39215501D01*
X44551305Y39216742D01*
X44620896Y39210518D01*
X44676075Y39167657D01*
X44699322Y39101768D01*
X44699500Y39095126D01*
X44699500Y38553768D01*
X44679815Y38486729D01*
X44627011Y38440974D01*
X44571149Y38430372D01*
X44571149Y38430000D01*
X44569193Y38430000D01*
X44568898Y38429944D01*
X44567848Y38430000D01*
X43270000Y38430000D01*
X43270000Y36430000D01*
X44567823Y36430000D01*
X44568869Y36430056D01*
X44569106Y36430000D01*
X44571149Y36430000D01*
X44571149Y36429518D01*
X44636865Y36413984D01*
X44685378Y36363702D01*
X44699500Y36306233D01*
X44699500Y35764876D01*
X44679815Y35697837D01*
X44627011Y35652082D01*
X44557853Y35642138D01*
X44551317Y35643257D01*
X44545067Y35644500D01*
X44545066Y35644500D01*
X41535700Y35644500D01*
X41468661Y35664185D01*
X41422906Y35716989D01*
X41412962Y35786147D01*
X41421145Y35815967D01*
X41422017Y35818076D01*
X41422023Y35818085D01*
X41426496Y35834777D01*
X41430717Y35850528D01*
X41439577Y35883597D01*
X41445500Y35905702D01*
X41445500Y35996411D01*
X41445500Y36306000D01*
X41465185Y36373039D01*
X41517989Y36418794D01*
X41569500Y36430000D01*
X42770000Y36430000D01*
X42770000Y37180000D01*
X41014804Y37180000D01*
X40964925Y37152765D01*
X40895234Y37157751D01*
X40850888Y37186251D01*
X40131819Y37905320D01*
X40098334Y37966643D01*
X40097130Y37977845D01*
X41020000Y37977845D01*
X41020000Y37680000D01*
X42770000Y37680000D01*
X42770000Y38430000D01*
X41472155Y38430000D01*
X41412627Y38423599D01*
X41412620Y38423597D01*
X41277913Y38373355D01*
X41277906Y38373351D01*
X41162812Y38287191D01*
X41162809Y38287188D01*
X41076649Y38172094D01*
X41076645Y38172087D01*
X41026403Y38037380D01*
X41026401Y38037373D01*
X41020000Y37977845D01*
X40097130Y37977845D01*
X40095500Y37993001D01*
X40095500Y38246352D01*
X40095500Y38246354D01*
X40072023Y38333972D01*
X40072019Y38333979D01*
X40026673Y38412522D01*
X40026667Y38412530D01*
X39962529Y38476668D01*
X39962521Y38476674D01*
X39883978Y38522020D01*
X39883974Y38522022D01*
X39883972Y38522023D01*
X39836877Y38534642D01*
X39831694Y38537801D01*
X39825638Y38538234D01*
X39802208Y38555774D01*
X39777218Y38571006D01*
X39774564Y38576468D01*
X39769705Y38580106D01*
X39759477Y38607526D01*
X39746689Y38633853D01*
X39747409Y38639882D01*
X39745288Y38645570D01*
X39751509Y38674171D01*
X39754984Y38703228D01*
X39759179Y38709427D01*
X39760140Y38713843D01*
X39781288Y38742094D01*
X39952318Y38913123D01*
X39952323Y38913127D01*
X39962526Y38923331D01*
X39962528Y38923331D01*
X40026669Y38987472D01*
X40072023Y39066028D01*
X40073881Y39072964D01*
X40073884Y39072969D01*
X40073883Y39072969D01*
X40087687Y39124488D01*
X40095500Y39153645D01*
X40095500Y39244354D01*
X40095500Y40786354D01*
X40072023Y40873972D01*
X40072019Y40873979D01*
X40026673Y40952522D01*
X40026670Y40952526D01*
X40026669Y40952528D01*
X39962528Y41016669D01*
X39962527Y41016670D01*
X39958197Y41021000D01*
X39958186Y41021010D01*
X39434309Y41544887D01*
X39400824Y41606210D01*
X39405808Y41675902D01*
X39447680Y41731835D01*
X39499555Y41751976D01*
X39499091Y41754313D01*
X39505064Y41755501D01*
X39505066Y41755501D01*
X39579301Y41770266D01*
X39663484Y41826516D01*
X39719734Y41910699D01*
X39734500Y41984933D01*
X39734499Y43035066D01*
X39719734Y43109301D01*
X39701068Y43137235D01*
X39663484Y43193485D01*
X39613019Y43227204D01*
X39579301Y43249734D01*
X39579299Y43249735D01*
X39579296Y43249736D01*
X39505069Y43264500D01*
X36454934Y43264500D01*
X36454933Y43264499D01*
X36402688Y43254108D01*
X36333097Y43260337D01*
X36277921Y43303202D01*
X36254678Y43369092D01*
X36254500Y43375726D01*
X36254500Y44184274D01*
X36274185Y44251313D01*
X36326989Y44297068D01*
X36396147Y44307012D01*
X36402691Y44305891D01*
X36432530Y44299957D01*
X36454933Y44295500D01*
X39505066Y44295501D01*
X39579301Y44310266D01*
X39663484Y44366516D01*
X39719734Y44450699D01*
X39734500Y44524933D01*
X39734499Y45575066D01*
X39719734Y45649301D01*
X39701068Y45677235D01*
X39663484Y45733485D01*
X39613019Y45767204D01*
X39579301Y45789734D01*
X39579299Y45789735D01*
X39579296Y45789736D01*
X39505069Y45804500D01*
X36454934Y45804500D01*
X36454933Y45804499D01*
X36402688Y45794108D01*
X36333097Y45800337D01*
X36277921Y45843202D01*
X36254678Y45909092D01*
X36254500Y45915726D01*
X36254500Y46724274D01*
X36274185Y46791313D01*
X36326989Y46837068D01*
X36396147Y46847012D01*
X36402691Y46845891D01*
X36432530Y46839957D01*
X36454933Y46835500D01*
X39505066Y46835501D01*
X39579301Y46850266D01*
X39663484Y46906516D01*
X39719734Y46990699D01*
X39734500Y47064933D01*
X39734499Y47871269D01*
X39754183Y47938307D01*
X39806987Y47984062D01*
X39876146Y47994006D01*
X39927389Y47974371D01*
X40000507Y47925514D01*
X40000510Y47925513D01*
X40000511Y47925512D01*
X40123019Y47874768D01*
X40192414Y47846024D01*
X40396136Y47805501D01*
X40396139Y47805500D01*
X40396141Y47805500D01*
X40603861Y47805500D01*
X40603862Y47805501D01*
X40807586Y47846024D01*
X40876981Y47874769D01*
X40946447Y47882237D01*
X41008926Y47850963D01*
X41012112Y47847888D01*
X41020000Y47840000D01*
X42770000Y47840000D01*
X42770000Y48590000D01*
X41672547Y48590000D01*
X41605508Y48609685D01*
X41559753Y48662489D01*
X41549809Y48731647D01*
X41550930Y48738192D01*
X41554500Y48756139D01*
X41554500Y48963862D01*
X41550930Y48981808D01*
X41557157Y49051399D01*
X41600019Y49106577D01*
X41665909Y49129822D01*
X41672547Y49130000D01*
X42770000Y49130000D01*
X42770000Y49880000D01*
X41019999Y49880000D01*
X41012111Y49872112D01*
X40950788Y49838627D01*
X40881096Y49843613D01*
X40876979Y49845233D01*
X40807590Y49873975D01*
X40807578Y49873978D01*
X40603862Y49914500D01*
X40603859Y49914500D01*
X40396141Y49914500D01*
X40396138Y49914500D01*
X40192421Y49873978D01*
X40192409Y49873975D01*
X40000511Y49794489D01*
X39927389Y49745630D01*
X39860712Y49724753D01*
X39793332Y49743238D01*
X39746642Y49795217D01*
X39734499Y49848730D01*
X39734499Y50655066D01*
X39729968Y50677845D01*
X41020000Y50677845D01*
X41020000Y50380000D01*
X42770000Y50380000D01*
X42770000Y51130000D01*
X41472155Y51130000D01*
X41412627Y51123599D01*
X41412620Y51123597D01*
X41277913Y51073355D01*
X41277906Y51073351D01*
X41162812Y50987191D01*
X41162809Y50987188D01*
X41076649Y50872094D01*
X41076645Y50872087D01*
X41026403Y50737380D01*
X41026401Y50737373D01*
X41020000Y50677845D01*
X39729968Y50677845D01*
X39719734Y50729301D01*
X39701068Y50757235D01*
X39663484Y50813485D01*
X39613019Y50847204D01*
X39579301Y50869734D01*
X39579299Y50869735D01*
X39579296Y50869736D01*
X39505069Y50884500D01*
X36454936Y50884500D01*
X36380698Y50869734D01*
X36296515Y50813485D01*
X36240266Y50729301D01*
X36240264Y50729297D01*
X36225500Y50655072D01*
X36225500Y49604937D01*
X36240266Y49530699D01*
X36296515Y49446516D01*
X36330234Y49423986D01*
X36380699Y49390266D01*
X36380702Y49390266D01*
X36380703Y49390265D01*
X36405666Y49385300D01*
X36454933Y49375500D01*
X37296500Y49375501D01*
X37363539Y49355817D01*
X37409294Y49303013D01*
X37420500Y49251501D01*
X37420500Y48926754D01*
X37400815Y48859715D01*
X37384181Y48839073D01*
X37316281Y48771174D01*
X37316277Y48771169D01*
X37236697Y48633331D01*
X37236696Y48633330D01*
X37221305Y48575888D01*
X37195500Y48479584D01*
X37195500Y48479582D01*
X37195500Y48468500D01*
X37175815Y48401461D01*
X37123011Y48355706D01*
X37071500Y48344500D01*
X36454936Y48344500D01*
X36380699Y48329734D01*
X36357836Y48314457D01*
X36291159Y48293580D01*
X36223779Y48312065D01*
X36181558Y48355562D01*
X36178703Y48360507D01*
X36178276Y48361247D01*
X35990819Y48548704D01*
X35957334Y48610027D01*
X35954500Y48636385D01*
X35954500Y48729582D01*
X35954500Y48729584D01*
X35913304Y48883328D01*
X35856447Y48981808D01*
X35833722Y49021169D01*
X35833718Y49021174D01*
X35721173Y49133719D01*
X35721168Y49133723D01*
X35583330Y49213303D01*
X35583329Y49213304D01*
X35544892Y49223603D01*
X35429584Y49254500D01*
X35270416Y49254500D01*
X35193365Y49233854D01*
X35116670Y49213304D01*
X35116669Y49213303D01*
X34978831Y49133723D01*
X34978826Y49133719D01*
X34866281Y49021174D01*
X34866277Y49021169D01*
X34786697Y48883331D01*
X34786696Y48883330D01*
X34774944Y48839471D01*
X34745500Y48729584D01*
X34745500Y48570416D01*
X34760804Y48513303D01*
X34786696Y48416671D01*
X34786697Y48416670D01*
X34866277Y48278832D01*
X34866279Y48278829D01*
X34866280Y48278828D01*
X34978828Y48166280D01*
X35116672Y48086696D01*
X35270416Y48045500D01*
X35363615Y48045500D01*
X35393055Y48036856D01*
X35423042Y48030332D01*
X35428057Y48026578D01*
X35430654Y48025815D01*
X35451296Y48009181D01*
X35455181Y48005296D01*
X35488666Y47943973D01*
X35491500Y47917615D01*
X35491500Y37582585D01*
X35471815Y37515546D01*
X35455181Y37494904D01*
X34489166Y36528890D01*
X34427843Y36495405D01*
X34358151Y36500389D01*
X34302218Y36542261D01*
X34281711Y36584476D01*
X34269104Y36631528D01*
X34189520Y36769372D01*
X34076972Y36881920D01*
X34076971Y36881921D01*
X34076968Y36881923D01*
X33939130Y36961503D01*
X33939129Y36961504D01*
X33886611Y36975576D01*
X33785384Y37002700D01*
X33626216Y37002700D01*
X33533969Y36977983D01*
X33472470Y36961504D01*
X33472469Y36961503D01*
X33334631Y36881923D01*
X33334626Y36881919D01*
X33222081Y36769374D01*
X33222077Y36769369D01*
X33142497Y36631531D01*
X33142496Y36631530D01*
X33101299Y36477779D01*
X33101162Y36476737D01*
X33100802Y36475925D01*
X33099197Y36469933D01*
X33098262Y36470184D01*
X33072889Y36412843D01*
X33014561Y36374378D01*
X32944696Y36373553D01*
X32890543Y36405253D01*
X32492419Y36803377D01*
X32458934Y36864700D01*
X32456100Y36891058D01*
X32456100Y37036582D01*
X32456100Y37036584D01*
X32414904Y37190328D01*
X32335320Y37328172D01*
X32222772Y37440720D01*
X32222771Y37440721D01*
X32222768Y37440723D01*
X32084930Y37520303D01*
X32084929Y37520304D01*
X32044178Y37531223D01*
X31931184Y37561500D01*
X31772016Y37561500D01*
X31679769Y37536783D01*
X31618270Y37520304D01*
X31618269Y37520303D01*
X31480431Y37440723D01*
X31480426Y37440719D01*
X31367881Y37328174D01*
X31367877Y37328169D01*
X31288297Y37190331D01*
X31288296Y37190330D01*
X31274530Y37138953D01*
X31247100Y37036584D01*
X31247100Y36877416D01*
X31259617Y36830704D01*
X31288296Y36723671D01*
X31288297Y36723670D01*
X31367877Y36585832D01*
X31367879Y36585829D01*
X31367880Y36585828D01*
X31480428Y36473280D01*
X31532293Y36443336D01*
X31580509Y36392771D01*
X31593733Y36324164D01*
X31567766Y36259299D01*
X31557976Y36248269D01*
X31520281Y36210574D01*
X31520277Y36210569D01*
X31440697Y36072731D01*
X31440696Y36072730D01*
X31432022Y36040358D01*
X31399500Y35918984D01*
X31399500Y35759816D01*
X31426549Y35658869D01*
X31440696Y35606071D01*
X31440697Y35606070D01*
X31520277Y35468232D01*
X31520281Y35468227D01*
X31582126Y35406382D01*
X31615611Y35345059D01*
X31610627Y35275367D01*
X31599040Y35252098D01*
X31591737Y35240630D01*
X31571080Y35219972D01*
X31498178Y35093703D01*
X31496727Y35091423D01*
X31472362Y35070133D01*
X31448952Y35047810D01*
X31446214Y35047283D01*
X31444115Y35045448D01*
X31412104Y35040709D01*
X31380345Y35034588D01*
X31377758Y35035624D01*
X31374998Y35035215D01*
X31345496Y35048540D01*
X31315480Y35060556D01*
X31311947Y35063692D01*
X31311322Y35063974D01*
X31310905Y35064617D01*
X31304458Y35070339D01*
X30483338Y35891458D01*
X30483337Y35891460D01*
X30412129Y35962668D01*
X30412121Y35962674D01*
X30333578Y36008020D01*
X30333570Y36008024D01*
X30323653Y36010681D01*
X30323653Y36010682D01*
X30260173Y36027691D01*
X30245955Y36031500D01*
X30245954Y36031500D01*
X25707754Y36031500D01*
X25640715Y36051185D01*
X25620073Y36067819D01*
X25517173Y36170719D01*
X25517168Y36170723D01*
X25379330Y36250303D01*
X25379329Y36250304D01*
X25340892Y36260603D01*
X25225584Y36291500D01*
X25066416Y36291500D01*
X24974169Y36266783D01*
X24912670Y36250304D01*
X24912669Y36250303D01*
X24774831Y36170723D01*
X24774826Y36170719D01*
X24662281Y36058174D01*
X24662277Y36058169D01*
X24582697Y35920331D01*
X24582696Y35920330D01*
X24572854Y35883599D01*
X24541500Y35766584D01*
X24541500Y35607416D01*
X24565949Y35516172D01*
X24582696Y35453671D01*
X24582697Y35453670D01*
X24662277Y35315832D01*
X24662279Y35315829D01*
X24662280Y35315828D01*
X24774828Y35203280D01*
X24912672Y35123696D01*
X25066416Y35082500D01*
X25066419Y35082500D01*
X25225581Y35082500D01*
X25225584Y35082500D01*
X25376009Y35122807D01*
X25445856Y35121144D01*
X25503718Y35081982D01*
X25531223Y35017754D01*
X25532100Y35003032D01*
X25532100Y34917416D01*
X25549396Y34852868D01*
X25573296Y34763671D01*
X25573297Y34763670D01*
X25652877Y34625832D01*
X25652881Y34625827D01*
X25763426Y34515282D01*
X25796911Y34453959D01*
X25791927Y34384267D01*
X25763428Y34339922D01*
X25729082Y34305575D01*
X25729077Y34305569D01*
X25649497Y34167731D01*
X25649496Y34167730D01*
X25638829Y34127919D01*
X25608300Y34013984D01*
X25608300Y33854816D01*
X25639197Y33739508D01*
X25649496Y33701071D01*
X25649497Y33701070D01*
X25729077Y33563232D01*
X25729079Y33563229D01*
X25729080Y33563228D01*
X25841628Y33450680D01*
X25841629Y33450679D01*
X25841631Y33450678D01*
X25909968Y33411224D01*
X25979472Y33371096D01*
X26133216Y33329900D01*
X26133219Y33329900D01*
X26292381Y33329900D01*
X26292384Y33329900D01*
X26446128Y33371096D01*
X26583972Y33450680D01*
X26696520Y33563228D01*
X26776104Y33701072D01*
X26817300Y33854816D01*
X26817300Y34000343D01*
X26836985Y34067382D01*
X26853619Y34088024D01*
X26975042Y34209446D01*
X27101177Y34335581D01*
X27162500Y34369066D01*
X27188858Y34371900D01*
X29463174Y34371900D01*
X29530213Y34352215D01*
X29550855Y34335581D01*
X30627181Y33259255D01*
X30660666Y33197932D01*
X30663500Y33171574D01*
X30663500Y31942824D01*
X30643815Y31875785D01*
X30627181Y31855143D01*
X30437472Y31665433D01*
X30373332Y31601294D01*
X30373326Y31601286D01*
X30327980Y31522743D01*
X30327977Y31522736D01*
X30304500Y31435118D01*
X30304500Y23685931D01*
X30327977Y23598313D01*
X30327980Y23598306D01*
X30373326Y23519763D01*
X30373332Y23519755D01*
X30444537Y23448550D01*
X30444543Y23448545D01*
X30870238Y23022850D01*
X30884941Y22995923D01*
X30901534Y22970104D01*
X30902425Y22963904D01*
X30903723Y22961527D01*
X30906557Y22935169D01*
X30906557Y22795059D01*
X30886872Y22728020D01*
X30870238Y22707378D01*
X30623333Y22460474D01*
X30623331Y22460471D01*
X30591732Y22405739D01*
X30586659Y22396953D01*
X30577976Y22381915D01*
X30577975Y22381913D01*
X30554749Y22295226D01*
X30554731Y22295160D01*
X30554500Y22294301D01*
X30554500Y21074843D01*
X30560388Y21052871D01*
X30560388Y21052869D01*
X30560389Y21052869D01*
X30560389Y21052868D01*
X30565379Y21034246D01*
X30577977Y20987227D01*
X30577980Y20987222D01*
X30623326Y20908679D01*
X30623332Y20908671D01*
X30694537Y20837466D01*
X30694543Y20837461D01*
X31963785Y19568219D01*
X31997270Y19506896D01*
X31992286Y19437204D01*
X31950414Y19381271D01*
X31884950Y19356854D01*
X31876104Y19356538D01*
X31829654Y19356538D01*
X31737407Y19331821D01*
X31675908Y19315342D01*
X31675907Y19315341D01*
X31538069Y19235761D01*
X31538064Y19235757D01*
X31425519Y19123212D01*
X31425515Y19123207D01*
X31345935Y18985369D01*
X31345934Y18985368D01*
X31338887Y18959067D01*
X31304738Y18831622D01*
X31304738Y18831620D01*
X31304738Y18672455D01*
X31309093Y18656202D01*
X31307430Y18586352D01*
X31268267Y18528490D01*
X31204039Y18500986D01*
X31135136Y18512573D01*
X31127318Y18516722D01*
X31119730Y18521103D01*
X31119729Y18521104D01*
X31063210Y18536248D01*
X30965984Y18562300D01*
X30806816Y18562300D01*
X30714569Y18537583D01*
X30653070Y18521104D01*
X30653069Y18521103D01*
X30515231Y18441523D01*
X30515226Y18441519D01*
X30402681Y18328974D01*
X30402677Y18328969D01*
X30323097Y18191131D01*
X30323096Y18191130D01*
X30304970Y18123483D01*
X30281900Y18037384D01*
X30281900Y17878216D01*
X30289532Y17849734D01*
X30323096Y17724471D01*
X30323097Y17724470D01*
X30402677Y17586632D01*
X30402679Y17586629D01*
X30402680Y17586628D01*
X30515228Y17474080D01*
X30515229Y17474079D01*
X30515231Y17474078D01*
X30584150Y17434288D01*
X30653072Y17394496D01*
X30806816Y17353300D01*
X30806819Y17353300D01*
X30865100Y17353300D01*
X30932139Y17333615D01*
X30977894Y17280811D01*
X30989100Y17229300D01*
X30989100Y11196402D01*
X30969415Y11129363D01*
X30952781Y11108721D01*
X30316181Y10472121D01*
X30254858Y10438636D01*
X30185166Y10443620D01*
X30129233Y10485492D01*
X30104816Y10550956D01*
X30104500Y10559802D01*
X30104500Y10579582D01*
X30104500Y10579584D01*
X30063304Y10733328D01*
X30015386Y10816325D01*
X29983722Y10871169D01*
X29983718Y10871174D01*
X29871173Y10983719D01*
X29871168Y10983723D01*
X29733330Y11063303D01*
X29733323Y11063306D01*
X29658490Y11083358D01*
X29598830Y11119723D01*
X29568302Y11182571D01*
X29566585Y11203132D01*
X29566585Y21994150D01*
X29586270Y22061189D01*
X29636364Y22104597D01*
X29636289Y22104727D01*
X29636967Y22105119D01*
X29639074Y22106944D01*
X29643146Y22108717D01*
X29643316Y22108788D01*
X29643328Y22108791D01*
X29781172Y22188375D01*
X29893720Y22300923D01*
X29973304Y22438767D01*
X30014500Y22592511D01*
X30014500Y22751679D01*
X29973304Y22905423D01*
X29899031Y23034068D01*
X29893722Y23043264D01*
X29893718Y23043269D01*
X29781173Y23155814D01*
X29781168Y23155818D01*
X29643330Y23235398D01*
X29643329Y23235399D01*
X29601044Y23246729D01*
X29489584Y23276595D01*
X29330416Y23276595D01*
X29238169Y23251878D01*
X29176670Y23235399D01*
X29176669Y23235398D01*
X29038831Y23155818D01*
X29038826Y23155814D01*
X28926281Y23043269D01*
X28926277Y23043264D01*
X28846697Y22905426D01*
X28846696Y22905425D01*
X28838851Y22876147D01*
X28805500Y22751679D01*
X28805500Y22751677D01*
X28805500Y22592510D01*
X28808685Y22580624D01*
X28808685Y22516443D01*
X28803585Y22497405D01*
X28803585Y10764690D01*
X28829584Y10667661D01*
X28829585Y10667659D01*
X28832100Y10663303D01*
X28843418Y10643700D01*
X28878047Y10583720D01*
X28878888Y10582264D01*
X28878895Y10582236D01*
X28895500Y10520265D01*
X28895500Y10420416D01*
X28920847Y10325822D01*
X28936696Y10266671D01*
X28936697Y10266670D01*
X29016277Y10128832D01*
X29016279Y10128829D01*
X29016280Y10128828D01*
X29128828Y10016280D01*
X29128829Y10016279D01*
X29128831Y10016278D01*
X29185224Y9983720D01*
X29266672Y9936696D01*
X29420416Y9895500D01*
X29420419Y9895500D01*
X29440199Y9895500D01*
X29507238Y9875815D01*
X29552993Y9823011D01*
X29562937Y9753853D01*
X29533912Y9690297D01*
X29527880Y9683819D01*
X29302680Y9458619D01*
X29241357Y9425134D01*
X29214999Y9422300D01*
X23109001Y9422300D01*
X23041962Y9441985D01*
X23021320Y9458619D01*
X21960955Y10518984D01*
X25760700Y10518984D01*
X25760700Y10359816D01*
X25785659Y10266670D01*
X25801896Y10206071D01*
X25801897Y10206070D01*
X25881477Y10068232D01*
X25881479Y10068229D01*
X25881480Y10068228D01*
X25994028Y9955680D01*
X25994029Y9955679D01*
X25994031Y9955678D01*
X26026909Y9936696D01*
X26131872Y9876096D01*
X26285616Y9834900D01*
X26285619Y9834900D01*
X26444781Y9834900D01*
X26444784Y9834900D01*
X26598528Y9876096D01*
X26736372Y9955680D01*
X26848920Y10068228D01*
X26928504Y10206072D01*
X26969700Y10359816D01*
X26969700Y10453017D01*
X26989385Y10520056D01*
X27006015Y10540694D01*
X27924037Y11458717D01*
X27924042Y11458720D01*
X27934245Y11468924D01*
X27934247Y11468924D01*
X28005276Y11539953D01*
X28055501Y11626946D01*
X28081500Y11723975D01*
X28081500Y20850225D01*
X28055501Y20947254D01*
X28005276Y21034247D01*
X27934247Y21105276D01*
X27929916Y21109607D01*
X27929905Y21109617D01*
X27140819Y21898704D01*
X27107334Y21960027D01*
X27104500Y21986385D01*
X27104500Y22079582D01*
X27104500Y22079584D01*
X27063304Y22233328D01*
X26987145Y22365240D01*
X26983722Y22371169D01*
X26983718Y22371174D01*
X26871173Y22483719D01*
X26871168Y22483723D01*
X26733330Y22563303D01*
X26733329Y22563304D01*
X26694892Y22573603D01*
X26579584Y22604500D01*
X26420416Y22604500D01*
X26328169Y22579783D01*
X26266670Y22563304D01*
X26266669Y22563303D01*
X26128831Y22483723D01*
X26128826Y22483719D01*
X26016281Y22371174D01*
X26016277Y22371169D01*
X25936697Y22233331D01*
X25936696Y22233330D01*
X25924651Y22188377D01*
X25895500Y22079584D01*
X25895500Y21920416D01*
X25920849Y21825815D01*
X25936696Y21766671D01*
X25936697Y21766670D01*
X26016277Y21628832D01*
X26016279Y21628829D01*
X26016280Y21628828D01*
X26128828Y21516280D01*
X26128829Y21516279D01*
X26128831Y21516278D01*
X26197750Y21476488D01*
X26266672Y21436696D01*
X26420416Y21395500D01*
X26513615Y21395500D01*
X26580654Y21375815D01*
X26601296Y21359181D01*
X27282181Y20678297D01*
X27315666Y20616974D01*
X27318500Y20590616D01*
X27318500Y11983585D01*
X27298815Y11916546D01*
X27282181Y11895904D01*
X26466496Y11080219D01*
X26405173Y11046734D01*
X26378815Y11043900D01*
X26285616Y11043900D01*
X26193369Y11019183D01*
X26131870Y11002704D01*
X26131869Y11002703D01*
X25994031Y10923123D01*
X25994026Y10923119D01*
X25881481Y10810574D01*
X25881477Y10810569D01*
X25801897Y10672731D01*
X25801896Y10672730D01*
X25781298Y10595856D01*
X25760700Y10518984D01*
X21960955Y10518984D01*
X15096269Y17383670D01*
X15096268Y17383671D01*
X15015432Y17430341D01*
X15015433Y17430341D01*
X14985378Y17438394D01*
X14925271Y17454500D01*
X14925269Y17454500D01*
X8898499Y17454500D01*
X8831460Y17474185D01*
X8785705Y17526989D01*
X8774499Y17578500D01*
X8774499Y17635064D01*
X8774499Y17635066D01*
X8759734Y17709301D01*
X8741068Y17737235D01*
X8703484Y17793485D01*
X8653019Y17827204D01*
X8619301Y17849734D01*
X8619299Y17849735D01*
X8619296Y17849736D01*
X8545069Y17864500D01*
X5494936Y17864500D01*
X5420698Y17849734D01*
X5336515Y17793485D01*
X5280266Y17709301D01*
X5280264Y17709297D01*
X5265500Y17635072D01*
X5265500Y16584937D01*
X5280266Y16510699D01*
X5336515Y16426516D01*
X5370234Y16403986D01*
X5420699Y16370266D01*
X5420702Y16370266D01*
X5420703Y16370265D01*
X5445666Y16365300D01*
X5494933Y16355500D01*
X8545066Y16355501D01*
X8619301Y16370266D01*
X8703484Y16426516D01*
X8759734Y16510699D01*
X8774500Y16584933D01*
X8774500Y16621500D01*
X8794185Y16688539D01*
X8846989Y16734294D01*
X8898500Y16745500D01*
X14680399Y16745500D01*
X14747438Y16725815D01*
X14768080Y16709181D01*
X22627129Y8850132D01*
X22693132Y8784129D01*
X22773968Y8737459D01*
X22864129Y8713300D01*
X22864131Y8713300D01*
X29459869Y8713300D01*
X29459871Y8713300D01*
X29550032Y8737459D01*
X29630868Y8784129D01*
X31627271Y10780532D01*
X31644613Y10810569D01*
X31663857Y10843900D01*
X31669819Y10854230D01*
X31673941Y10861368D01*
X31673943Y10861378D01*
X31674938Y10863776D01*
X31676325Y10865499D01*
X31678004Y10868405D01*
X31678457Y10868144D01*
X31718779Y10918180D01*
X31785072Y10940246D01*
X31852772Y10922968D01*
X31900383Y10871831D01*
X31913500Y10816325D01*
X31913500Y10125458D01*
X31893815Y10058419D01*
X31877181Y10037777D01*
X29891023Y8051619D01*
X29829700Y8018134D01*
X29803342Y8015300D01*
X19973316Y8015300D01*
X19906277Y8034985D01*
X19885635Y8051619D01*
X14281739Y13655514D01*
X14281737Y13655517D01*
X14210529Y13726725D01*
X14210521Y13726731D01*
X14131978Y13772077D01*
X14131973Y13772080D01*
X14110067Y13777950D01*
X14044355Y13795557D01*
X14044354Y13795557D01*
X9129879Y13795557D01*
X9062840Y13815242D01*
X9017085Y13868046D01*
X9007141Y13937204D01*
X9013201Y13960946D01*
X9013598Y13962628D01*
X9019999Y14022156D01*
X9020000Y14022173D01*
X9020000Y14320000D01*
X5020000Y14320000D01*
X5020000Y14022156D01*
X5026401Y13962628D01*
X5028187Y13955070D01*
X5026883Y13954762D01*
X5031288Y13893205D01*
X4997807Y13831880D01*
X4936485Y13798392D01*
X4910121Y13795557D01*
X4496411Y13795557D01*
X4405702Y13795557D01*
X4353131Y13781471D01*
X4318083Y13772080D01*
X4318078Y13772077D01*
X4239535Y13726731D01*
X4239527Y13726725D01*
X3388472Y12875669D01*
X3388471Y12875668D01*
X3333620Y12820818D01*
X3272297Y12787334D01*
X3245940Y12784500D01*
X454934Y12784500D01*
X454928Y12784499D01*
X448686Y12783257D01*
X379095Y12789487D01*
X323919Y12832352D01*
X300677Y12898243D01*
X300500Y12904875D01*
X300500Y13446233D01*
X320185Y13513272D01*
X372989Y13559027D01*
X428851Y13569624D01*
X428851Y13570000D01*
X430836Y13570000D01*
X431131Y13570056D01*
X432177Y13570000D01*
X1730000Y13570000D01*
X2230000Y13570000D01*
X3527828Y13570000D01*
X3527844Y13570001D01*
X3587372Y13576402D01*
X3587379Y13576404D01*
X3722086Y13626646D01*
X3722093Y13626650D01*
X3837187Y13712810D01*
X3837190Y13712813D01*
X3923350Y13827907D01*
X3923354Y13827914D01*
X3973596Y13962621D01*
X3973598Y13962628D01*
X3979999Y14022156D01*
X3980000Y14022173D01*
X3980000Y14320000D01*
X2230000Y14320000D01*
X2230000Y13570000D01*
X1730000Y13570000D01*
X1730000Y14820000D01*
X2230000Y14820000D01*
X3980000Y14820000D01*
X3980000Y15117828D01*
X3979999Y15117845D01*
X5020000Y15117845D01*
X5020000Y14820000D01*
X6770000Y14820000D01*
X7270000Y14820000D01*
X9020000Y14820000D01*
X9020000Y15117828D01*
X9019999Y15117845D01*
X9013598Y15177373D01*
X9013596Y15177380D01*
X8963354Y15312087D01*
X8963350Y15312094D01*
X8877190Y15427188D01*
X8877187Y15427191D01*
X8762093Y15513351D01*
X8762086Y15513355D01*
X8627379Y15563597D01*
X8627372Y15563599D01*
X8567844Y15570000D01*
X7270000Y15570000D01*
X7270000Y14820000D01*
X6770000Y14820000D01*
X6770000Y15570000D01*
X5472155Y15570000D01*
X5412627Y15563599D01*
X5412620Y15563597D01*
X5277913Y15513355D01*
X5277906Y15513351D01*
X5162812Y15427191D01*
X5162809Y15427188D01*
X5076649Y15312094D01*
X5076645Y15312087D01*
X5026403Y15177380D01*
X5026401Y15177373D01*
X5020000Y15117845D01*
X3979999Y15117845D01*
X3973598Y15177373D01*
X3973596Y15177380D01*
X3923354Y15312087D01*
X3923350Y15312094D01*
X3837190Y15427188D01*
X3837187Y15427191D01*
X3722093Y15513351D01*
X3722086Y15513355D01*
X3587379Y15563597D01*
X3587372Y15563599D01*
X3527844Y15570000D01*
X2230000Y15570000D01*
X2230000Y14820000D01*
X1730000Y14820000D01*
X1730000Y15570000D01*
X432152Y15570000D01*
X431102Y15569944D01*
X430865Y15570000D01*
X428851Y15570000D01*
X428851Y15570477D01*
X363110Y15586031D01*
X314608Y15636324D01*
X300500Y15693768D01*
X300500Y16235125D01*
X320185Y16302164D01*
X372989Y16347919D01*
X442147Y16357863D01*
X448657Y16356749D01*
X454933Y16355500D01*
X3505066Y16355501D01*
X3579301Y16370266D01*
X3663484Y16426516D01*
X3719734Y16510699D01*
X3734500Y16584933D01*
X3734499Y17635066D01*
X3719734Y17709301D01*
X3701068Y17737235D01*
X3663484Y17793485D01*
X3613019Y17827204D01*
X3579301Y17849734D01*
X3579299Y17849735D01*
X3579296Y17849736D01*
X3505069Y17864500D01*
X454934Y17864500D01*
X454928Y17864499D01*
X448686Y17863257D01*
X379095Y17869487D01*
X323919Y17912352D01*
X300677Y17978243D01*
X300500Y17984875D01*
X300500Y18526233D01*
X320185Y18593272D01*
X372989Y18639027D01*
X428851Y18649624D01*
X428851Y18650000D01*
X430836Y18650000D01*
X431131Y18650056D01*
X432177Y18650000D01*
X1730000Y18650000D01*
X2230000Y18650000D01*
X3527828Y18650000D01*
X3527844Y18650001D01*
X3587372Y18656402D01*
X3587379Y18656404D01*
X3722086Y18706646D01*
X3722093Y18706650D01*
X3837187Y18792810D01*
X3837190Y18792813D01*
X3923350Y18907907D01*
X3923354Y18907914D01*
X3973596Y19042621D01*
X3973598Y19042628D01*
X3979999Y19102156D01*
X3980000Y19102173D01*
X3980000Y19400000D01*
X2230000Y19400000D01*
X2230000Y18650000D01*
X1730000Y18650000D01*
X1730000Y19900000D01*
X2230000Y19900000D01*
X3980000Y19900000D01*
X3980000Y20175072D01*
X5265500Y20175072D01*
X5265500Y19124937D01*
X5280266Y19050699D01*
X5336515Y18966516D01*
X5370234Y18943986D01*
X5420699Y18910266D01*
X5420702Y18910266D01*
X5420703Y18910265D01*
X5433574Y18907705D01*
X5494933Y18895500D01*
X8545066Y18895501D01*
X8619301Y18910266D01*
X8703484Y18966516D01*
X8759734Y19050699D01*
X8774500Y19124933D01*
X8774499Y20175066D01*
X8759734Y20249301D01*
X8731836Y20291053D01*
X8703484Y20333485D01*
X8632930Y20380627D01*
X8619301Y20389734D01*
X8619299Y20389735D01*
X8619296Y20389736D01*
X8545069Y20404500D01*
X5494936Y20404500D01*
X5420698Y20389734D01*
X5336515Y20333485D01*
X5280266Y20249301D01*
X5280264Y20249297D01*
X5265500Y20175072D01*
X3980000Y20175072D01*
X3980000Y20197828D01*
X3979999Y20197845D01*
X3973598Y20257373D01*
X3973596Y20257380D01*
X3923354Y20392087D01*
X3923350Y20392094D01*
X3837190Y20507188D01*
X3837187Y20507191D01*
X3722093Y20593351D01*
X3722086Y20593355D01*
X3587379Y20643597D01*
X3587372Y20643599D01*
X3527844Y20650000D01*
X2230000Y20650000D01*
X2230000Y19900000D01*
X1730000Y19900000D01*
X1730000Y20650000D01*
X432152Y20650000D01*
X431102Y20649944D01*
X430865Y20650000D01*
X428851Y20650000D01*
X428851Y20650477D01*
X363110Y20666031D01*
X314608Y20716324D01*
X300500Y20773768D01*
X300500Y21315125D01*
X320185Y21382164D01*
X372989Y21427919D01*
X442147Y21437863D01*
X448657Y21436749D01*
X454933Y21435500D01*
X3505066Y21435501D01*
X3579301Y21450266D01*
X3663484Y21506516D01*
X3719734Y21590699D01*
X3734500Y21664933D01*
X3734499Y22715066D01*
X3734498Y22715072D01*
X5265500Y22715072D01*
X5265500Y21664937D01*
X5280266Y21590699D01*
X5336515Y21506516D01*
X5370234Y21483986D01*
X5420699Y21450266D01*
X5420702Y21450266D01*
X5420703Y21450265D01*
X5445666Y21445300D01*
X5494933Y21435500D01*
X8545066Y21435501D01*
X8619301Y21450266D01*
X8703484Y21506516D01*
X8759734Y21590699D01*
X8774500Y21664933D01*
X8774500Y21679584D01*
X20795500Y21679584D01*
X20795500Y21520416D01*
X20820285Y21427919D01*
X20836696Y21366671D01*
X20836697Y21366670D01*
X20916277Y21228832D01*
X20916281Y21228827D01*
X20982181Y21162927D01*
X21015666Y21101604D01*
X21018500Y21075246D01*
X21018500Y12890575D01*
X21032631Y12837837D01*
X21044499Y12793545D01*
X21044500Y12793544D01*
X21045085Y12792531D01*
X21045387Y12791402D01*
X21047610Y12786036D01*
X21046903Y12785744D01*
X21061700Y12730528D01*
X21061700Y12595016D01*
X21092597Y12479708D01*
X21102896Y12441271D01*
X21102897Y12441270D01*
X21182477Y12303432D01*
X21182479Y12303429D01*
X21182480Y12303428D01*
X21295028Y12190880D01*
X21432872Y12111296D01*
X21586616Y12070100D01*
X21586619Y12070100D01*
X21745781Y12070100D01*
X21745784Y12070100D01*
X21899528Y12111296D01*
X22037372Y12190880D01*
X22149920Y12303428D01*
X22229504Y12441272D01*
X22270700Y12595016D01*
X22270700Y12754184D01*
X22229504Y12907928D01*
X22159026Y13030000D01*
X22149922Y13045769D01*
X22149918Y13045774D01*
X22037373Y13158319D01*
X22037368Y13158323D01*
X21899530Y13237903D01*
X21899528Y13237904D01*
X21873402Y13244905D01*
X21813743Y13281272D01*
X21783216Y13344120D01*
X21781500Y13364679D01*
X21781500Y21075246D01*
X21801185Y21142285D01*
X21817819Y21162927D01*
X21844948Y21190056D01*
X21883720Y21228828D01*
X21963304Y21366672D01*
X22004500Y21520416D01*
X22004500Y21679584D01*
X21963304Y21833328D01*
X21883720Y21971172D01*
X21771172Y22083720D01*
X21771171Y22083721D01*
X21771168Y22083723D01*
X21633330Y22163303D01*
X21633329Y22163304D01*
X21594892Y22173603D01*
X21479584Y22204500D01*
X21320416Y22204500D01*
X21228169Y22179783D01*
X21166670Y22163304D01*
X21166669Y22163303D01*
X21028831Y22083723D01*
X21028826Y22083719D01*
X20916281Y21971174D01*
X20916277Y21971169D01*
X20836697Y21833331D01*
X20836696Y21833330D01*
X20833330Y21820767D01*
X20795500Y21679584D01*
X8774500Y21679584D01*
X8774499Y22195700D01*
X8774499Y22715064D01*
X8774499Y22715066D01*
X8759734Y22789301D01*
X8741068Y22817235D01*
X8703484Y22873485D01*
X8653019Y22907204D01*
X8619301Y22929734D01*
X8619299Y22929735D01*
X8619296Y22929736D01*
X8545069Y22944500D01*
X5494936Y22944500D01*
X5420698Y22929734D01*
X5336515Y22873485D01*
X5280266Y22789301D01*
X5280264Y22789297D01*
X5265500Y22715072D01*
X3734498Y22715072D01*
X3719734Y22789301D01*
X3701068Y22817235D01*
X3663484Y22873485D01*
X3613019Y22907204D01*
X3579301Y22929734D01*
X3579299Y22929735D01*
X3579296Y22929736D01*
X3505069Y22944500D01*
X454934Y22944500D01*
X454928Y22944499D01*
X448686Y22943257D01*
X379095Y22949487D01*
X323919Y22992352D01*
X300677Y23058243D01*
X300500Y23064875D01*
X300500Y23855125D01*
X320185Y23922164D01*
X372989Y23967919D01*
X442147Y23977863D01*
X448657Y23976749D01*
X454933Y23975500D01*
X3505066Y23975501D01*
X3579301Y23990266D01*
X3663484Y24046516D01*
X3719734Y24130699D01*
X3734500Y24204933D01*
X3734499Y25255066D01*
X3734498Y25255072D01*
X5265500Y25255072D01*
X5265500Y24204937D01*
X5280266Y24130699D01*
X5336515Y24046516D01*
X5370234Y24023986D01*
X5420699Y23990266D01*
X5420702Y23990266D01*
X5420703Y23990265D01*
X5445666Y23985300D01*
X5494933Y23975500D01*
X8545066Y23975501D01*
X8619301Y23990266D01*
X8703484Y24046516D01*
X8759734Y24130699D01*
X8774500Y24204933D01*
X8774499Y25255066D01*
X8759734Y25329301D01*
X8724701Y25381731D01*
X8703484Y25413485D01*
X8653019Y25447204D01*
X8619301Y25469734D01*
X8619299Y25469735D01*
X8619296Y25469736D01*
X8545069Y25484500D01*
X5494936Y25484500D01*
X5420698Y25469734D01*
X5336515Y25413485D01*
X5280266Y25329301D01*
X5280264Y25329297D01*
X5265500Y25255072D01*
X3734498Y25255072D01*
X3719734Y25329301D01*
X3684701Y25381731D01*
X3663484Y25413485D01*
X3613019Y25447204D01*
X3579301Y25469734D01*
X3579299Y25469735D01*
X3579296Y25469736D01*
X3505069Y25484500D01*
X454934Y25484500D01*
X454928Y25484499D01*
X448686Y25483257D01*
X379095Y25489487D01*
X323919Y25532352D01*
X300677Y25598243D01*
X300500Y25604875D01*
X300500Y26395125D01*
X320185Y26462164D01*
X372989Y26507919D01*
X442147Y26517863D01*
X448657Y26516749D01*
X454933Y26515500D01*
X2936912Y26515501D01*
X3003951Y26495816D01*
X3044299Y26453501D01*
X3116277Y26328832D01*
X3116279Y26328829D01*
X3116280Y26328828D01*
X3228828Y26216280D01*
X3228829Y26216279D01*
X3228831Y26216278D01*
X3261337Y26197511D01*
X3366672Y26136696D01*
X3520416Y26095500D01*
X3520419Y26095500D01*
X3679581Y26095500D01*
X3679584Y26095500D01*
X3833328Y26136696D01*
X3971172Y26216280D01*
X4083720Y26328828D01*
X4163304Y26466672D01*
X4204500Y26620416D01*
X4204500Y26722156D01*
X5020000Y26722156D01*
X5026401Y26662628D01*
X5026403Y26662621D01*
X5076645Y26527914D01*
X5076649Y26527907D01*
X5162809Y26412813D01*
X5162812Y26412810D01*
X5277906Y26326650D01*
X5277913Y26326646D01*
X5412620Y26276404D01*
X5412627Y26276402D01*
X5472155Y26270001D01*
X5472172Y26270000D01*
X6770000Y26270000D01*
X7270000Y26270000D01*
X8567828Y26270000D01*
X8567844Y26270001D01*
X8627372Y26276402D01*
X8627379Y26276404D01*
X8762086Y26326646D01*
X8762093Y26326650D01*
X8877187Y26412810D01*
X8877190Y26412813D01*
X8963350Y26527907D01*
X8963354Y26527914D01*
X9013596Y26662621D01*
X9013598Y26662628D01*
X9019999Y26722156D01*
X9020000Y26722173D01*
X9020000Y27020000D01*
X7270000Y27020000D01*
X7270000Y26270000D01*
X6770000Y26270000D01*
X6770000Y27020000D01*
X5020000Y27020000D01*
X5020000Y26722156D01*
X4204500Y26722156D01*
X4204500Y26779584D01*
X4163304Y26933328D01*
X4083720Y27071172D01*
X3971172Y27183720D01*
X3971171Y27183721D01*
X3971168Y27183723D01*
X3833331Y27263303D01*
X3833326Y27263305D01*
X3826403Y27265160D01*
X3766743Y27301526D01*
X3736215Y27364374D01*
X3734499Y27384934D01*
X3734499Y27795063D01*
X3734499Y27795066D01*
X3729968Y27817845D01*
X5020000Y27817845D01*
X5020000Y27520000D01*
X6770000Y27520000D01*
X7270000Y27520000D01*
X9020000Y27520000D01*
X9020000Y27817828D01*
X9019999Y27817845D01*
X9013598Y27877373D01*
X9013596Y27877380D01*
X8963354Y28012087D01*
X8963350Y28012094D01*
X8877190Y28127188D01*
X8877187Y28127191D01*
X8762093Y28213351D01*
X8762086Y28213355D01*
X8627379Y28263597D01*
X8627372Y28263599D01*
X8567844Y28270000D01*
X7270000Y28270000D01*
X7270000Y27520000D01*
X6770000Y27520000D01*
X6770000Y28270000D01*
X5472155Y28270000D01*
X5412627Y28263599D01*
X5412620Y28263597D01*
X5277913Y28213355D01*
X5277906Y28213351D01*
X5162812Y28127191D01*
X5162809Y28127188D01*
X5076649Y28012094D01*
X5076645Y28012087D01*
X5026403Y27877380D01*
X5026401Y27877373D01*
X5020000Y27817845D01*
X3729968Y27817845D01*
X3719734Y27869301D01*
X3701068Y27897235D01*
X3663484Y27953485D01*
X3613019Y27987204D01*
X3579301Y28009734D01*
X3579299Y28009735D01*
X3579296Y28009736D01*
X3505069Y28024500D01*
X454934Y28024500D01*
X454928Y28024499D01*
X448686Y28023257D01*
X379095Y28029487D01*
X323919Y28072352D01*
X300677Y28138243D01*
X300500Y28144875D01*
X300500Y28935125D01*
X320185Y29002164D01*
X372989Y29047919D01*
X442147Y29057863D01*
X448657Y29056749D01*
X454933Y29055500D01*
X3505066Y29055501D01*
X3579301Y29070266D01*
X3663484Y29126516D01*
X3719734Y29210699D01*
X3734500Y29284933D01*
X3734499Y29715068D01*
X3754183Y29782106D01*
X3806987Y29827861D01*
X3826398Y29834840D01*
X3833328Y29836696D01*
X3971172Y29916280D01*
X4083720Y30028828D01*
X4163304Y30166672D01*
X4204500Y30320416D01*
X4204500Y30335072D01*
X5265500Y30335072D01*
X5265500Y29284937D01*
X5280266Y29210699D01*
X5336515Y29126516D01*
X5362715Y29109010D01*
X5420699Y29070266D01*
X5420702Y29070266D01*
X5420703Y29070265D01*
X5445666Y29065300D01*
X5494933Y29055500D01*
X7917746Y29055501D01*
X7984785Y29035816D01*
X8030540Y28983013D01*
X8034560Y28971829D01*
X8036697Y28966670D01*
X8116277Y28828832D01*
X8116279Y28828829D01*
X8116280Y28828828D01*
X8228828Y28716280D01*
X8366672Y28636696D01*
X8520416Y28595500D01*
X8520419Y28595500D01*
X8679581Y28595500D01*
X8679584Y28595500D01*
X8833328Y28636696D01*
X8971172Y28716280D01*
X9083720Y28828828D01*
X9163304Y28966672D01*
X9204500Y29120416D01*
X9204500Y29279584D01*
X9163304Y29433328D01*
X9083720Y29571172D01*
X8971172Y29683720D01*
X8971171Y29683721D01*
X8971168Y29683723D01*
X8836499Y29761474D01*
X8788283Y29812041D01*
X8774499Y29868861D01*
X8774499Y30335064D01*
X8774499Y30335066D01*
X8759734Y30409301D01*
X8728608Y30455884D01*
X8703484Y30493485D01*
X8653019Y30527204D01*
X8619301Y30549734D01*
X8619299Y30549735D01*
X8619296Y30549736D01*
X8545069Y30564500D01*
X5494936Y30564500D01*
X5420698Y30549734D01*
X5336515Y30493485D01*
X5280266Y30409301D01*
X5280264Y30409297D01*
X5265500Y30335072D01*
X4204500Y30335072D01*
X4204500Y30479584D01*
X4163304Y30633328D01*
X4083720Y30771172D01*
X3971172Y30883720D01*
X3971171Y30883721D01*
X3971168Y30883723D01*
X3833330Y30963303D01*
X3833329Y30963304D01*
X3794892Y30973603D01*
X3679584Y31004500D01*
X3520416Y31004500D01*
X3428169Y30979783D01*
X3366670Y30963304D01*
X3366669Y30963303D01*
X3228831Y30883723D01*
X3228826Y30883719D01*
X3116281Y30771174D01*
X3116277Y30771169D01*
X3032753Y30626500D01*
X2982186Y30578284D01*
X2925366Y30564500D01*
X454934Y30564500D01*
X454928Y30564499D01*
X448686Y30563257D01*
X379095Y30569487D01*
X323919Y30612352D01*
X300677Y30678243D01*
X300500Y30684875D01*
X300500Y31226233D01*
X320185Y31293272D01*
X372989Y31339027D01*
X428851Y31349624D01*
X428851Y31350000D01*
X430836Y31350000D01*
X431131Y31350056D01*
X432177Y31350000D01*
X1730000Y31350000D01*
X2230000Y31350000D01*
X3527828Y31350000D01*
X3527844Y31350001D01*
X3587372Y31356402D01*
X3587379Y31356404D01*
X3722086Y31406646D01*
X3722093Y31406650D01*
X3837187Y31492810D01*
X3837190Y31492813D01*
X3923350Y31607907D01*
X3923354Y31607914D01*
X3973596Y31742621D01*
X3973598Y31742628D01*
X3979999Y31802156D01*
X3980000Y31802173D01*
X3980000Y32100000D01*
X2230000Y32100000D01*
X2230000Y31350000D01*
X1730000Y31350000D01*
X1730000Y32600000D01*
X2230000Y32600000D01*
X3980000Y32600000D01*
X3980000Y32875072D01*
X5265500Y32875072D01*
X5265500Y31824937D01*
X5280266Y31750699D01*
X5336515Y31666516D01*
X5354301Y31654632D01*
X5420699Y31610266D01*
X5420702Y31610266D01*
X5420703Y31610265D01*
X5443056Y31605819D01*
X5494933Y31595500D01*
X8011004Y31595501D01*
X8078043Y31575816D01*
X8118390Y31533502D01*
X8144221Y31488764D01*
X8159783Y31461810D01*
X8272331Y31349262D01*
X8272332Y31349261D01*
X8272334Y31349260D01*
X8341253Y31309470D01*
X8410175Y31269678D01*
X8563919Y31228482D01*
X8563922Y31228482D01*
X8723084Y31228482D01*
X8723087Y31228482D01*
X8876831Y31269678D01*
X9014675Y31349262D01*
X9127223Y31461810D01*
X9206807Y31599654D01*
X9248003Y31753398D01*
X9248003Y31912566D01*
X9206807Y32066310D01*
X9127223Y32204154D01*
X9014675Y32316702D01*
X9014674Y32316703D01*
X9014671Y32316705D01*
X8876833Y32396285D01*
X8876825Y32396289D01*
X8866400Y32399082D01*
X8806741Y32435450D01*
X8776215Y32498298D01*
X8774499Y32518855D01*
X8774499Y32875064D01*
X8774499Y32875066D01*
X8759734Y32949301D01*
X8715656Y33015268D01*
X8703484Y33033485D01*
X8653019Y33067204D01*
X8619301Y33089734D01*
X8619299Y33089735D01*
X8619296Y33089736D01*
X8545069Y33104500D01*
X5494936Y33104500D01*
X5420698Y33089734D01*
X5336515Y33033485D01*
X5280266Y32949301D01*
X5280264Y32949297D01*
X5265500Y32875072D01*
X3980000Y32875072D01*
X3980000Y32897828D01*
X3979999Y32897845D01*
X3973598Y32957373D01*
X3973596Y32957380D01*
X3923354Y33092087D01*
X3923350Y33092094D01*
X3837190Y33207188D01*
X3837187Y33207191D01*
X3722093Y33293351D01*
X3722086Y33293355D01*
X3587379Y33343597D01*
X3587372Y33343599D01*
X3527844Y33350000D01*
X2230000Y33350000D01*
X2230000Y32600000D01*
X1730000Y32600000D01*
X1730000Y33350000D01*
X432152Y33350000D01*
X431102Y33349944D01*
X430865Y33350000D01*
X428851Y33350000D01*
X428851Y33350477D01*
X363110Y33366031D01*
X314608Y33416324D01*
X300500Y33473768D01*
X300500Y34015125D01*
X320185Y34082164D01*
X372989Y34127919D01*
X442147Y34137863D01*
X448657Y34136749D01*
X454933Y34135500D01*
X3505066Y34135501D01*
X3579301Y34150266D01*
X3663484Y34206516D01*
X3719734Y34290699D01*
X3734500Y34364933D01*
X3734499Y35415066D01*
X3734498Y35415072D01*
X5265500Y35415072D01*
X5265500Y34364937D01*
X5280266Y34290699D01*
X5336515Y34206516D01*
X5370234Y34183986D01*
X5420699Y34150266D01*
X5420702Y34150266D01*
X5420703Y34150265D01*
X5441407Y34146147D01*
X5494933Y34135500D01*
X8545066Y34135501D01*
X8619301Y34150266D01*
X8703484Y34206516D01*
X8759734Y34290699D01*
X8774500Y34364933D01*
X8774499Y35415066D01*
X8759734Y35489301D01*
X8741068Y35517235D01*
X8703484Y35573485D01*
X8651440Y35608259D01*
X8619301Y35629734D01*
X8619299Y35629735D01*
X8619296Y35629736D01*
X8545069Y35644500D01*
X5494936Y35644500D01*
X5420698Y35629734D01*
X5336515Y35573485D01*
X5280266Y35489301D01*
X5280264Y35489297D01*
X5265500Y35415072D01*
X3734498Y35415072D01*
X3719734Y35489301D01*
X3701068Y35517235D01*
X3663484Y35573485D01*
X3611440Y35608259D01*
X3579301Y35629734D01*
X3579299Y35629735D01*
X3579296Y35629736D01*
X3505069Y35644500D01*
X454934Y35644500D01*
X454928Y35644499D01*
X448686Y35643257D01*
X379095Y35649487D01*
X323919Y35692352D01*
X300677Y35758243D01*
X300500Y35764875D01*
X300500Y36555125D01*
X320185Y36622164D01*
X372989Y36667919D01*
X442147Y36677863D01*
X448657Y36676749D01*
X454933Y36675500D01*
X3505066Y36675501D01*
X3579301Y36690266D01*
X3663484Y36746516D01*
X3719734Y36830699D01*
X3734500Y36904933D01*
X3734499Y37955066D01*
X3719734Y38029301D01*
X3701068Y38057235D01*
X3663484Y38113485D01*
X3613019Y38147204D01*
X3579301Y38169734D01*
X3579299Y38169735D01*
X3579296Y38169736D01*
X3505069Y38184500D01*
X454934Y38184500D01*
X454928Y38184499D01*
X448686Y38183257D01*
X379095Y38189487D01*
X323919Y38232352D01*
X300677Y38298243D01*
X300500Y38304875D01*
X300500Y38846233D01*
X320185Y38913272D01*
X372989Y38959027D01*
X428851Y38969624D01*
X428851Y38970000D01*
X430836Y38970000D01*
X431131Y38970056D01*
X432177Y38970000D01*
X1730000Y38970000D01*
X2230000Y38970000D01*
X3527828Y38970000D01*
X3527844Y38970001D01*
X3587372Y38976402D01*
X3587379Y38976404D01*
X3722086Y39026646D01*
X3722093Y39026650D01*
X3837187Y39112810D01*
X3837190Y39112813D01*
X3923350Y39227907D01*
X3923354Y39227914D01*
X3973596Y39362621D01*
X3973598Y39362628D01*
X3979999Y39422156D01*
X5020000Y39422156D01*
X5026401Y39362628D01*
X5026403Y39362621D01*
X5076645Y39227914D01*
X5076649Y39227907D01*
X5162809Y39112813D01*
X5162812Y39112810D01*
X5277906Y39026650D01*
X5277913Y39026646D01*
X5412620Y38976404D01*
X5412627Y38976402D01*
X5472155Y38970001D01*
X5472172Y38970000D01*
X6770000Y38970000D01*
X6770000Y39720000D01*
X5020000Y39720000D01*
X5020000Y39422156D01*
X3979999Y39422156D01*
X3980000Y39422173D01*
X3980000Y39720000D01*
X2230000Y39720000D01*
X2230000Y38970000D01*
X1730000Y38970000D01*
X1730000Y40970000D01*
X432152Y40970000D01*
X431102Y40969944D01*
X430865Y40970000D01*
X428851Y40970000D01*
X428851Y40970477D01*
X363110Y40986031D01*
X314608Y41036324D01*
X300500Y41093768D01*
X300500Y41635125D01*
X320185Y41702164D01*
X372989Y41747919D01*
X442147Y41757863D01*
X448657Y41756749D01*
X454933Y41755500D01*
X2146443Y41755501D01*
X2213482Y41735816D01*
X2234124Y41719182D01*
X2771625Y41181681D01*
X2805110Y41120358D01*
X2800126Y41050666D01*
X2758254Y40994733D01*
X2692790Y40970316D01*
X2683944Y40970000D01*
X2230000Y40970000D01*
X2230000Y40220000D01*
X3980000Y40220000D01*
X3980000Y40517828D01*
X3979999Y40517845D01*
X3973598Y40577373D01*
X3973596Y40577380D01*
X3923354Y40712087D01*
X3923350Y40712094D01*
X3896479Y40747989D01*
X3872061Y40813453D01*
X3886912Y40881726D01*
X3936317Y40931132D01*
X3995745Y40946300D01*
X5004255Y40946300D01*
X5071294Y40926615D01*
X5117049Y40873811D01*
X5126993Y40804653D01*
X5103521Y40747989D01*
X5076649Y40712094D01*
X5076645Y40712087D01*
X5026403Y40577380D01*
X5026401Y40577373D01*
X5020000Y40517845D01*
X5020000Y40220000D01*
X6896000Y40220000D01*
X6963039Y40200315D01*
X7008794Y40147511D01*
X7020000Y40096000D01*
X7020000Y39970000D01*
X7146000Y39970000D01*
X7213039Y39950315D01*
X7258794Y39897511D01*
X7270000Y39846000D01*
X7270000Y38970000D01*
X8567828Y38970000D01*
X8567844Y38970001D01*
X8627372Y38976402D01*
X8627379Y38976404D01*
X8762086Y39026646D01*
X8762093Y39026650D01*
X8877186Y39112810D01*
X8931233Y39185005D01*
X8987167Y39226876D01*
X9056859Y39231860D01*
X9118182Y39198375D01*
X9151666Y39137051D01*
X9154500Y39110694D01*
X9154500Y37299754D01*
X9149702Y37283417D01*
X9149927Y37266388D01*
X9140062Y37250585D01*
X9134815Y37232715D01*
X9121947Y37221565D01*
X9112929Y37207118D01*
X9096086Y37199157D01*
X9082011Y37186960D01*
X9065157Y37184537D01*
X9049761Y37177259D01*
X9031289Y37179667D01*
X9012853Y37177016D01*
X8996978Y37184140D01*
X8980477Y37186291D01*
X8958204Y37201540D01*
X8950538Y37204980D01*
X8946532Y37208360D01*
X8871172Y37283720D01*
X8826958Y37309247D01*
X8818537Y37316352D01*
X8805096Y37336673D01*
X8788283Y37354306D01*
X8785299Y37366604D01*
X8779992Y37374628D01*
X8779799Y37389279D01*
X8774499Y37411126D01*
X8774499Y37955064D01*
X8774499Y37955066D01*
X8759734Y38029301D01*
X8741068Y38057235D01*
X8703484Y38113485D01*
X8653019Y38147204D01*
X8619301Y38169734D01*
X8619299Y38169735D01*
X8619296Y38169736D01*
X8545069Y38184500D01*
X5494936Y38184500D01*
X5420698Y38169734D01*
X5336515Y38113485D01*
X5280266Y38029301D01*
X5280264Y38029297D01*
X5265500Y37955072D01*
X5265500Y36904937D01*
X5280266Y36830699D01*
X5336515Y36746516D01*
X5369294Y36724614D01*
X5420699Y36690266D01*
X5420702Y36690266D01*
X5420703Y36690265D01*
X5445666Y36685300D01*
X5494933Y36675500D01*
X7812386Y36675501D01*
X7879425Y36655816D01*
X7925180Y36603013D01*
X7932159Y36583599D01*
X7936693Y36566680D01*
X7936697Y36566670D01*
X8016277Y36428832D01*
X8016279Y36428829D01*
X8016280Y36428828D01*
X8128828Y36316280D01*
X8128829Y36316279D01*
X8128831Y36316278D01*
X8156600Y36300246D01*
X8266672Y36236696D01*
X8420416Y36195500D01*
X8420419Y36195500D01*
X8579581Y36195500D01*
X8579584Y36195500D01*
X8733328Y36236696D01*
X8871172Y36316280D01*
X8942819Y36387927D01*
X9004142Y36421412D01*
X9073834Y36416428D01*
X9129767Y36374556D01*
X9154184Y36309092D01*
X9154500Y36300246D01*
X9154500Y34677045D01*
X9156105Y34671057D01*
X9156106Y34671046D01*
X9156108Y34671046D01*
X9177977Y34589427D01*
X9177980Y34589422D01*
X9223326Y34510879D01*
X9223332Y34510871D01*
X9294537Y34439666D01*
X9294543Y34439661D01*
X15011581Y28722623D01*
X15045066Y28661300D01*
X15047900Y28634942D01*
X15047900Y27638155D01*
X15028215Y27571116D01*
X15011582Y27550474D01*
X14908677Y27447569D01*
X14829097Y27309731D01*
X14829096Y27309730D01*
X14808663Y27233471D01*
X14787900Y27155984D01*
X14787900Y26996816D01*
X14804912Y26933328D01*
X14829096Y26843071D01*
X14829097Y26843070D01*
X14908677Y26705232D01*
X14908679Y26705229D01*
X14908680Y26705228D01*
X15021228Y26592680D01*
X15159072Y26513096D01*
X15312816Y26471900D01*
X15312819Y26471900D01*
X15471981Y26471900D01*
X15471984Y26471900D01*
X15625728Y26513096D01*
X15763572Y26592680D01*
X15876120Y26705228D01*
X15955704Y26843072D01*
X15996900Y26996816D01*
X15996900Y27155984D01*
X15955704Y27309728D01*
X15876120Y27447572D01*
X15773218Y27550474D01*
X15739734Y27611797D01*
X15736900Y27638155D01*
X15736900Y28874280D01*
X15736900Y28874354D01*
X15735661Y28878977D01*
X15713423Y28961972D01*
X15698123Y28988472D01*
X15670789Y29035816D01*
X15668071Y29040525D01*
X15668070Y29040526D01*
X15668069Y29040528D01*
X15603928Y29104669D01*
X15603927Y29104670D01*
X15599597Y29109000D01*
X15599586Y29109010D01*
X12119752Y32588844D01*
X12086267Y32650167D01*
X12091251Y32719859D01*
X12133123Y32775792D01*
X12198587Y32800209D01*
X12207433Y32800525D01*
X12284606Y32800525D01*
X12284609Y32800525D01*
X12438353Y32841721D01*
X12576197Y32921305D01*
X12688745Y33033853D01*
X12768329Y33171697D01*
X12797238Y33279584D01*
X14995500Y33279584D01*
X14995500Y33120416D01*
X15023675Y33015268D01*
X15036696Y32966671D01*
X15036697Y32966670D01*
X15116277Y32828832D01*
X15116279Y32828829D01*
X15116280Y32828828D01*
X15228828Y32716280D01*
X15366672Y32636696D01*
X15520416Y32595500D01*
X15520419Y32595500D01*
X15679581Y32595500D01*
X15679584Y32595500D01*
X15833328Y32636696D01*
X15971172Y32716280D01*
X16083720Y32828828D01*
X16163304Y32966672D01*
X16204500Y33120416D01*
X16204500Y33279584D01*
X16163304Y33433328D01*
X16088307Y33563227D01*
X16083722Y33571169D01*
X16083718Y33571174D01*
X15971174Y33683718D01*
X15971172Y33683720D01*
X15971169Y33683722D01*
X15971165Y33683725D01*
X15916499Y33715287D01*
X15868284Y33765854D01*
X15854500Y33822673D01*
X15854500Y46323241D01*
X20891500Y46323241D01*
X20891500Y46323239D01*
X20891500Y34724590D01*
X20896536Y34705795D01*
X20896537Y34641613D01*
X20893314Y34629586D01*
X20893314Y34629584D01*
X20893314Y34470416D01*
X20924211Y34355108D01*
X20934510Y34316671D01*
X20934511Y34316670D01*
X21014091Y34178832D01*
X21014093Y34178829D01*
X21014094Y34178828D01*
X21126642Y34066280D01*
X21126643Y34066279D01*
X21126645Y34066278D01*
X21187915Y34030904D01*
X21264486Y33986696D01*
X21418230Y33945500D01*
X21418233Y33945500D01*
X21577395Y33945500D01*
X21577398Y33945500D01*
X21731142Y33986696D01*
X21868986Y34066280D01*
X21981534Y34178828D01*
X22061118Y34316672D01*
X22102314Y34470416D01*
X22102314Y34629584D01*
X22061118Y34783328D01*
X22000378Y34888533D01*
X21981536Y34921169D01*
X21981532Y34921174D01*
X21868987Y35033719D01*
X21868982Y35033723D01*
X21731139Y35113306D01*
X21731043Y35113346D01*
X21730974Y35113402D01*
X21724104Y35117368D01*
X21724722Y35118440D01*
X21676641Y35157189D01*
X21654579Y35223484D01*
X21654500Y35227905D01*
X21654500Y46063632D01*
X21674185Y46130671D01*
X21690819Y46151313D01*
X21898703Y46359197D01*
X21960026Y46392682D01*
X21986384Y46395516D01*
X22079581Y46395516D01*
X22079584Y46395516D01*
X22233328Y46436712D01*
X22371172Y46516296D01*
X22483720Y46628844D01*
X22563304Y46766688D01*
X22604500Y46920432D01*
X22604500Y47079600D01*
X22563304Y47233344D01*
X22483720Y47371188D01*
X22371172Y47483736D01*
X22371171Y47483737D01*
X22371168Y47483739D01*
X22233330Y47563319D01*
X22233329Y47563320D01*
X22194892Y47573619D01*
X22079584Y47604516D01*
X21920416Y47604516D01*
X21828169Y47579799D01*
X21766670Y47563320D01*
X21766669Y47563319D01*
X21628831Y47483739D01*
X21628826Y47483735D01*
X21516281Y47371190D01*
X21516277Y47371185D01*
X21436697Y47233347D01*
X21436696Y47233346D01*
X21421882Y47178058D01*
X21395500Y47079600D01*
X21395500Y47079598D01*
X21395500Y46986402D01*
X21375815Y46919363D01*
X21359181Y46898721D01*
X21021311Y46560852D01*
X21021312Y46560851D01*
X20967722Y46507262D01*
X20917499Y46420271D01*
X20917499Y46420270D01*
X20891500Y46323241D01*
X15854500Y46323241D01*
X15854500Y47113615D01*
X15863144Y47143056D01*
X15869668Y47173042D01*
X15873422Y47178058D01*
X15874185Y47180654D01*
X15890819Y47201296D01*
X15998704Y47309181D01*
X16060027Y47342666D01*
X16086385Y47345500D01*
X16179581Y47345500D01*
X16179584Y47345500D01*
X16333328Y47386696D01*
X16471172Y47466280D01*
X16583720Y47578828D01*
X16663304Y47716672D01*
X16704500Y47870416D01*
X16704500Y48029584D01*
X16663304Y48183328D01*
X16583720Y48321172D01*
X16471172Y48433720D01*
X16471171Y48433721D01*
X16471168Y48433723D01*
X16333330Y48513303D01*
X16333329Y48513304D01*
X16288480Y48525321D01*
X16179584Y48554500D01*
X16020416Y48554500D01*
X15928169Y48529783D01*
X15866670Y48513304D01*
X15866669Y48513303D01*
X15728831Y48433723D01*
X15728826Y48433719D01*
X15616281Y48321174D01*
X15616277Y48321169D01*
X15536697Y48183331D01*
X15536696Y48183330D01*
X15516098Y48106456D01*
X15495500Y48029584D01*
X15495500Y48029582D01*
X15495500Y47936385D01*
X15475815Y47869346D01*
X15459181Y47848704D01*
X15167725Y47557249D01*
X15167723Y47557246D01*
X15117499Y47470255D01*
X15108832Y47437911D01*
X15091500Y47373225D01*
X15091500Y47373223D01*
X15091500Y33561478D01*
X15074888Y33499479D01*
X15036696Y33433329D01*
X15036696Y33433328D01*
X14995500Y33279584D01*
X12797238Y33279584D01*
X12809525Y33325441D01*
X12809525Y33484609D01*
X12768329Y33638353D01*
X12707966Y33742906D01*
X12688747Y33776194D01*
X12688746Y33776195D01*
X12688745Y33776197D01*
X12585843Y33879099D01*
X12552359Y33940422D01*
X12549525Y33966780D01*
X12549525Y35513111D01*
X12569210Y35580150D01*
X12622014Y35625905D01*
X12641430Y35632886D01*
X12649051Y35634927D01*
X12786895Y35714511D01*
X12899443Y35827059D01*
X12979027Y35964903D01*
X13020223Y36118647D01*
X13020223Y36277815D01*
X12979027Y36431559D01*
X12922833Y36528890D01*
X12899445Y36569400D01*
X12899441Y36569405D01*
X12786896Y36681950D01*
X12786891Y36681954D01*
X12649053Y36761534D01*
X12649052Y36761535D01*
X12610615Y36771834D01*
X12495307Y36802731D01*
X12336139Y36802731D01*
X12243892Y36778014D01*
X12182393Y36761535D01*
X12182392Y36761534D01*
X12044554Y36681954D01*
X12044549Y36681950D01*
X11932004Y36569405D01*
X11932000Y36569400D01*
X11852420Y36431562D01*
X11852419Y36431561D01*
X11837145Y36374556D01*
X11811223Y36277815D01*
X11811223Y36118647D01*
X11852419Y35964903D01*
X11852420Y35964902D01*
X11854523Y35957053D01*
X11853350Y35956739D01*
X11860525Y35920669D01*
X11860525Y33966780D01*
X11840840Y33899741D01*
X11824207Y33879099D01*
X11721302Y33776194D01*
X11641722Y33638356D01*
X11641721Y33638355D01*
X11623720Y33571174D01*
X11600525Y33484609D01*
X11600525Y33484607D01*
X11600525Y33407433D01*
X11580840Y33340394D01*
X11528036Y33294639D01*
X11458878Y33284695D01*
X11395322Y33313720D01*
X11388844Y33319752D01*
X9879819Y34828777D01*
X9846334Y34890100D01*
X9843500Y34916458D01*
X9843500Y41245643D01*
X9843501Y41245656D01*
X9843501Y41346353D01*
X9843501Y41346354D01*
X9820023Y41433972D01*
X9791302Y41483719D01*
X9774673Y41512522D01*
X9774667Y41512530D01*
X9389006Y41898191D01*
X8975670Y42311526D01*
X8975669Y42311528D01*
X8810818Y42476379D01*
X8777333Y42537702D01*
X8774499Y42564060D01*
X8774499Y43035064D01*
X8774499Y43035066D01*
X8759734Y43109301D01*
X8741068Y43137235D01*
X8703484Y43193485D01*
X8653019Y43227204D01*
X8619301Y43249734D01*
X8619299Y43249735D01*
X8619296Y43249736D01*
X8545069Y43264500D01*
X5494936Y43264500D01*
X5420698Y43249734D01*
X5336515Y43193485D01*
X5280266Y43109301D01*
X5280264Y43109297D01*
X5265500Y43035072D01*
X5265500Y41984937D01*
X5280266Y41910699D01*
X5288624Y41898191D01*
X5309502Y41831514D01*
X5291018Y41764133D01*
X5239039Y41717443D01*
X5185522Y41705300D01*
X3814478Y41705300D01*
X3747439Y41724985D01*
X3701684Y41777789D01*
X3691740Y41846947D01*
X3711376Y41898191D01*
X3719734Y41910699D01*
X3734500Y41984933D01*
X3734499Y43035066D01*
X3719734Y43109301D01*
X3701068Y43137235D01*
X3663484Y43193485D01*
X3613019Y43227204D01*
X3579301Y43249734D01*
X3579299Y43249735D01*
X3579296Y43249736D01*
X3505069Y43264500D01*
X454934Y43264500D01*
X454928Y43264499D01*
X448686Y43263257D01*
X379095Y43269487D01*
X323919Y43312352D01*
X300677Y43378243D01*
X300500Y43384875D01*
X300500Y44175125D01*
X320185Y44242164D01*
X372989Y44287919D01*
X442147Y44297863D01*
X448657Y44296749D01*
X454933Y44295500D01*
X3505066Y44295501D01*
X3579301Y44310266D01*
X3663484Y44366516D01*
X3719734Y44450699D01*
X3734500Y44524933D01*
X3734499Y45575066D01*
X3734498Y45575072D01*
X5265500Y45575072D01*
X5265500Y44524937D01*
X5280266Y44450699D01*
X5336515Y44366516D01*
X5370234Y44343986D01*
X5420699Y44310266D01*
X5420702Y44310266D01*
X5420703Y44310265D01*
X5437058Y44307012D01*
X5494933Y44295500D01*
X8545066Y44295501D01*
X8619301Y44310266D01*
X8703484Y44366516D01*
X8759734Y44450699D01*
X8774500Y44524933D01*
X8774499Y45575066D01*
X8759734Y45649301D01*
X8741068Y45677235D01*
X8703484Y45733485D01*
X8653019Y45767204D01*
X8619301Y45789734D01*
X8619299Y45789735D01*
X8619296Y45789736D01*
X8545069Y45804500D01*
X5494936Y45804500D01*
X5420698Y45789734D01*
X5336515Y45733485D01*
X5280266Y45649301D01*
X5280264Y45649297D01*
X5265500Y45575072D01*
X3734498Y45575072D01*
X3719734Y45649301D01*
X3701068Y45677235D01*
X3663484Y45733485D01*
X3613019Y45767204D01*
X3579301Y45789734D01*
X3579299Y45789735D01*
X3579296Y45789736D01*
X3505071Y45804500D01*
X3505067Y45804500D01*
X2493153Y45804500D01*
X2426114Y45824185D01*
X2380359Y45876989D01*
X2370415Y45946147D01*
X2385766Y45990500D01*
X2417504Y46045472D01*
X2458700Y46199216D01*
X2458700Y46358384D01*
X2417504Y46512128D01*
X2338192Y46649501D01*
X2321719Y46717401D01*
X2344572Y46783428D01*
X2399493Y46826619D01*
X2445579Y46835501D01*
X3505064Y46835501D01*
X3505066Y46835501D01*
X3579301Y46850266D01*
X3663484Y46906516D01*
X3719734Y46990699D01*
X3734500Y47064933D01*
X3734499Y47871269D01*
X3754183Y47938307D01*
X3806987Y47984062D01*
X3876146Y47994006D01*
X3927389Y47974371D01*
X4000507Y47925514D01*
X4000510Y47925513D01*
X4000511Y47925512D01*
X4123019Y47874768D01*
X4192414Y47846024D01*
X4396136Y47805501D01*
X4396139Y47805500D01*
X4396141Y47805500D01*
X4603861Y47805500D01*
X4603862Y47805501D01*
X4807586Y47846024D01*
X4980423Y47917615D01*
X4999486Y47925511D01*
X4999486Y47925512D01*
X4999493Y47925514D01*
X5072612Y47974372D01*
X5139285Y47995248D01*
X5206666Y47976764D01*
X5253356Y47924786D01*
X5265500Y47871268D01*
X5265500Y47064937D01*
X5280266Y46990699D01*
X5336515Y46906516D01*
X5370234Y46883986D01*
X5420699Y46850266D01*
X5420702Y46850266D01*
X5420703Y46850265D01*
X5437058Y46847012D01*
X5494933Y46835500D01*
X8545066Y46835501D01*
X8619301Y46850266D01*
X8703484Y46906516D01*
X8759734Y46990699D01*
X8774500Y47064933D01*
X8774499Y48115066D01*
X8759734Y48189301D01*
X8741068Y48217235D01*
X8703484Y48273485D01*
X8632119Y48321169D01*
X8619301Y48329734D01*
X8619299Y48329735D01*
X8619296Y48329736D01*
X8545071Y48344500D01*
X5613433Y48344500D01*
X5546394Y48364185D01*
X5500639Y48416989D01*
X5490695Y48486147D01*
X5498870Y48515946D01*
X5513976Y48552414D01*
X5554500Y48756141D01*
X5554500Y48963859D01*
X5554500Y48963862D01*
X5550930Y48981808D01*
X5557157Y49051399D01*
X5600019Y49106577D01*
X5665909Y49129822D01*
X5672547Y49130000D01*
X6770000Y49130000D01*
X7270000Y49130000D01*
X8567828Y49130000D01*
X8567844Y49130001D01*
X8627372Y49136402D01*
X8627379Y49136404D01*
X8762086Y49186646D01*
X8762093Y49186650D01*
X8877187Y49272810D01*
X8877190Y49272813D01*
X8963350Y49387907D01*
X8963354Y49387914D01*
X9013596Y49522621D01*
X9013598Y49522628D01*
X9019999Y49582156D01*
X9020000Y49582173D01*
X9020000Y49880000D01*
X7270000Y49880000D01*
X7270000Y49130000D01*
X6770000Y49130000D01*
X6770000Y49880000D01*
X5019999Y49880000D01*
X5012111Y49872112D01*
X4950788Y49838627D01*
X4881096Y49843613D01*
X4876979Y49845233D01*
X4807590Y49873975D01*
X4807578Y49873978D01*
X4603862Y49914500D01*
X4603859Y49914500D01*
X4396141Y49914500D01*
X4396138Y49914500D01*
X4192421Y49873978D01*
X4192409Y49873975D01*
X4000511Y49794489D01*
X3927389Y49745630D01*
X3860712Y49724753D01*
X3793332Y49743238D01*
X3746642Y49795217D01*
X3734499Y49848730D01*
X3734499Y50655066D01*
X3729968Y50677845D01*
X5020000Y50677845D01*
X5020000Y50380000D01*
X6770000Y50380000D01*
X7270000Y50380000D01*
X9020000Y50380000D01*
X9020000Y50677828D01*
X9019999Y50677845D01*
X9013598Y50737373D01*
X9013596Y50737380D01*
X8963354Y50872087D01*
X8963350Y50872094D01*
X8877190Y50987188D01*
X8877187Y50987191D01*
X8762093Y51073351D01*
X8762086Y51073355D01*
X8627379Y51123597D01*
X8627372Y51123599D01*
X8567844Y51130000D01*
X7270000Y51130000D01*
X7270000Y50380000D01*
X6770000Y50380000D01*
X6770000Y51130000D01*
X5472155Y51130000D01*
X5412627Y51123599D01*
X5412620Y51123597D01*
X5277913Y51073355D01*
X5277906Y51073351D01*
X5162812Y50987191D01*
X5162809Y50987188D01*
X5076649Y50872094D01*
X5076645Y50872087D01*
X5026403Y50737380D01*
X5026401Y50737373D01*
X5020000Y50677845D01*
X3729968Y50677845D01*
X3719734Y50729301D01*
X3701068Y50757235D01*
X3663484Y50813485D01*
X3613019Y50847204D01*
X3579301Y50869734D01*
X3579299Y50869735D01*
X3579296Y50869736D01*
X3505071Y50884500D01*
X512761Y50884500D01*
X483320Y50893145D01*
X453334Y50899668D01*
X450103Y50902899D01*
X445722Y50904185D01*
X425632Y50927370D01*
X403929Y50949073D01*
X402957Y50953538D01*
X399967Y50956989D01*
X395599Y50987361D01*
X389077Y51017346D01*
X390408Y51023467D01*
X390023Y51026147D01*
X396576Y51051824D01*
X450985Y51197701D01*
X458325Y51213773D01*
X566044Y51411044D01*
X575600Y51425914D01*
X710294Y51605844D01*
X721868Y51619201D01*
X880799Y51778132D01*
X894156Y51789706D01*
X1074086Y51924400D01*
X1088956Y51933956D01*
X1286227Y52041675D01*
X1302299Y52049015D01*
X1512900Y52127564D01*
X1529851Y52132541D01*
X1749472Y52180318D01*
X1766977Y52182835D01*
X1995582Y52199184D01*
X2004428Y52199500D01*
X2047595Y52199500D01*
X42952405Y52199500D01*
X42995572Y52199500D01*
X43004418Y52199184D01*
G37*
G04 #@! TD.AperFunction*
G04 #@! TA.AperFunction,Conductor*
G36*
X33569703Y22405739D02*
G01*
X33576177Y22399710D01*
X33733231Y22242656D01*
X33880028Y22095859D01*
X33889105Y22087899D01*
X35406990Y20570014D01*
X35406997Y20570001D01*
X35407000Y20570003D01*
X35411330Y20565673D01*
X35411331Y20565672D01*
X35475472Y20501531D01*
X35475474Y20501530D01*
X35475478Y20501527D01*
X35505355Y20484278D01*
X35554028Y20456177D01*
X35641645Y20432700D01*
X35641646Y20432700D01*
X35873200Y20432700D01*
X35940239Y20413015D01*
X35985994Y20360211D01*
X35995938Y20291053D01*
X35989383Y20265369D01*
X35986402Y20257379D01*
X35986401Y20257373D01*
X35980000Y20197845D01*
X35980000Y19900000D01*
X37856000Y19900000D01*
X37923039Y19880315D01*
X37968794Y19827511D01*
X37980000Y19776000D01*
X37980000Y19650000D01*
X38106000Y19650000D01*
X38173039Y19630315D01*
X38218794Y19577511D01*
X38230000Y19526000D01*
X38230000Y18650000D01*
X39527828Y18650000D01*
X39527844Y18650001D01*
X39587372Y18656402D01*
X39587379Y18656404D01*
X39722086Y18706646D01*
X39722093Y18706650D01*
X39837187Y18792810D01*
X39837190Y18792813D01*
X39923350Y18907907D01*
X39923354Y18907914D01*
X39973596Y19042621D01*
X39973598Y19042628D01*
X39979999Y19102156D01*
X39980000Y19102173D01*
X39980000Y19363442D01*
X39999685Y19430481D01*
X40052489Y19476236D01*
X40121647Y19486180D01*
X40185203Y19457155D01*
X40191681Y19451123D01*
X41567511Y18075293D01*
X41600996Y18013970D01*
X41596012Y17944278D01*
X41554140Y17888345D01*
X41500543Y17867527D01*
X41500909Y17865687D01*
X41494935Y17864500D01*
X41494934Y17864499D01*
X41470409Y17859621D01*
X41420698Y17849734D01*
X41336515Y17793485D01*
X41280266Y17709301D01*
X41280264Y17709297D01*
X41265500Y17635072D01*
X41265500Y16584937D01*
X41280266Y16510699D01*
X41336515Y16426516D01*
X41370234Y16403986D01*
X41420699Y16370266D01*
X41420702Y16370266D01*
X41420703Y16370265D01*
X41445666Y16365300D01*
X41494933Y16355500D01*
X44545066Y16355501D01*
X44551305Y16356742D01*
X44620896Y16350518D01*
X44676075Y16307657D01*
X44699322Y16241768D01*
X44699500Y16235126D01*
X44699500Y15444876D01*
X44679815Y15377837D01*
X44627011Y15332082D01*
X44557853Y15322138D01*
X44551317Y15323257D01*
X44545067Y15324500D01*
X44545066Y15324500D01*
X41804059Y15324500D01*
X41737020Y15344185D01*
X41716378Y15360819D01*
X41531739Y15545457D01*
X41531737Y15545460D01*
X41460529Y15616668D01*
X41460521Y15616674D01*
X41381978Y15662020D01*
X41381973Y15662023D01*
X41360067Y15667893D01*
X41294355Y15685500D01*
X41294354Y15685500D01*
X41294352Y15685500D01*
X37401058Y15685500D01*
X37334019Y15705185D01*
X37313377Y15721819D01*
X36891376Y16143820D01*
X36857891Y16205143D01*
X36862875Y16274835D01*
X36904747Y16330768D01*
X36970211Y16355185D01*
X36979057Y16355501D01*
X39505064Y16355501D01*
X39505066Y16355501D01*
X39579301Y16370266D01*
X39663484Y16426516D01*
X39719734Y16510699D01*
X39734500Y16584933D01*
X39734499Y17635066D01*
X39719734Y17709301D01*
X39701068Y17737235D01*
X39663484Y17793485D01*
X39613019Y17827204D01*
X39579301Y17849734D01*
X39579299Y17849735D01*
X39579296Y17849736D01*
X39505071Y17864500D01*
X39505067Y17864500D01*
X36764059Y17864500D01*
X36697020Y17884185D01*
X36676378Y17900819D01*
X35705811Y18871386D01*
X35672326Y18932709D01*
X35669492Y18959067D01*
X35669492Y19102156D01*
X35980000Y19102156D01*
X35986401Y19042628D01*
X35986403Y19042621D01*
X36036645Y18907914D01*
X36036646Y18907912D01*
X36086188Y18841733D01*
X36171735Y18756186D01*
X36237906Y18706650D01*
X36237913Y18706646D01*
X36372620Y18656404D01*
X36372627Y18656402D01*
X36432155Y18650001D01*
X36432172Y18650000D01*
X37730000Y18650000D01*
X37730000Y19400000D01*
X35980000Y19400000D01*
X35980000Y19102156D01*
X35669492Y19102156D01*
X35669492Y19370552D01*
X35669492Y19370554D01*
X35646015Y19458172D01*
X35629845Y19486180D01*
X35600665Y19536722D01*
X35600659Y19536730D01*
X35301619Y19835770D01*
X35268134Y19897093D01*
X35265300Y19923451D01*
X35265300Y20172554D01*
X35264627Y20175066D01*
X35261028Y20188496D01*
X35241823Y20260172D01*
X35210729Y20314028D01*
X35196469Y20338728D01*
X35196467Y20338730D01*
X35196466Y20338732D01*
X35128009Y20407189D01*
X35127986Y20407210D01*
X33400819Y22134377D01*
X33367334Y22195700D01*
X33364500Y22222058D01*
X33364500Y22312026D01*
X33384185Y22379065D01*
X33436989Y22424820D01*
X33506147Y22434764D01*
X33569703Y22405739D01*
G37*
G04 #@! TD.AperFunction*
G04 #@! TA.AperFunction,Conductor*
G36*
X39939702Y22242656D02*
G01*
X39946180Y22236624D01*
X41567511Y20615293D01*
X41600996Y20553970D01*
X41596012Y20484278D01*
X41554140Y20428345D01*
X41500543Y20407527D01*
X41500909Y20405687D01*
X41494935Y20404500D01*
X41494934Y20404499D01*
X41447335Y20395032D01*
X41420698Y20389734D01*
X41336515Y20333485D01*
X41280266Y20249301D01*
X41280264Y20249297D01*
X41265500Y20175072D01*
X41265500Y19651058D01*
X41245815Y19584019D01*
X41193011Y19538264D01*
X41123853Y19528320D01*
X41060297Y19557345D01*
X41053819Y19563377D01*
X39635539Y20981657D01*
X39635537Y20981660D01*
X39564328Y21052869D01*
X39564321Y21052874D01*
X39485778Y21098220D01*
X39485774Y21098222D01*
X39485772Y21098223D01*
X39485770Y21098224D01*
X39485769Y21098224D01*
X39459451Y21105277D01*
X39459451Y21105276D01*
X39428802Y21113488D01*
X39398155Y21121700D01*
X39398154Y21121700D01*
X35881058Y21121700D01*
X35814019Y21141385D01*
X35793377Y21158019D01*
X35317577Y21633819D01*
X35284092Y21695142D01*
X35289076Y21764834D01*
X35330948Y21820767D01*
X35396412Y21845184D01*
X35405258Y21845500D01*
X36101501Y21845500D01*
X36168540Y21825815D01*
X36214295Y21773011D01*
X36225501Y21721500D01*
X36225501Y21664934D01*
X36232683Y21628827D01*
X36240266Y21590699D01*
X36296515Y21506516D01*
X36330234Y21483986D01*
X36380699Y21450266D01*
X36380702Y21450266D01*
X36380703Y21450265D01*
X36405666Y21445300D01*
X36454933Y21435500D01*
X39505066Y21435501D01*
X39579301Y21450266D01*
X39663484Y21506516D01*
X39719734Y21590699D01*
X39734500Y21664933D01*
X39734499Y22148945D01*
X39754183Y22215982D01*
X39806987Y22261737D01*
X39876146Y22271681D01*
X39939702Y22242656D01*
G37*
G04 #@! TD.AperFunction*
G04 #@! TA.AperFunction,Conductor*
G36*
X44620896Y31590518D02*
G01*
X44676075Y31547657D01*
X44699322Y31481768D01*
X44699500Y31475126D01*
X44699500Y30933768D01*
X44679815Y30866729D01*
X44627011Y30820974D01*
X44571149Y30810372D01*
X44571149Y30810000D01*
X44569193Y30810000D01*
X44568898Y30809944D01*
X44567848Y30810000D01*
X43270000Y30810000D01*
X43270000Y28810000D01*
X44567823Y28810000D01*
X44568869Y28810056D01*
X44569106Y28810000D01*
X44571149Y28810000D01*
X44571149Y28809518D01*
X44636865Y28793984D01*
X44685378Y28743702D01*
X44699500Y28686233D01*
X44699500Y28393768D01*
X44679815Y28326729D01*
X44627011Y28280974D01*
X44571149Y28270372D01*
X44571149Y28270000D01*
X44569193Y28270000D01*
X44568898Y28269944D01*
X44567848Y28270000D01*
X43270000Y28270000D01*
X43270000Y26270000D01*
X44567823Y26270000D01*
X44568869Y26270056D01*
X44569106Y26270000D01*
X44571149Y26270000D01*
X44571149Y26269518D01*
X44636865Y26253984D01*
X44685378Y26203702D01*
X44699500Y26146233D01*
X44699500Y25604876D01*
X44679815Y25537837D01*
X44627011Y25492082D01*
X44557853Y25482138D01*
X44551317Y25483257D01*
X44545067Y25484500D01*
X44545066Y25484500D01*
X43025126Y25484500D01*
X42958087Y25504185D01*
X42912332Y25556989D01*
X42905351Y25576406D01*
X42904500Y25579582D01*
X42904500Y25579584D01*
X42863304Y25733328D01*
X42783720Y25871172D01*
X42671172Y25983720D01*
X42671170Y25983721D01*
X42671165Y25983725D01*
X42576095Y26038613D01*
X42527879Y26089179D01*
X42514655Y26157786D01*
X42540623Y26222651D01*
X42597537Y26263180D01*
X42638094Y26270000D01*
X42770000Y26270000D01*
X42770000Y27020000D01*
X41020000Y27020000D01*
X41020000Y26722156D01*
X41026401Y26662628D01*
X41026403Y26662621D01*
X41076645Y26527914D01*
X41076649Y26527907D01*
X41162809Y26412813D01*
X41162812Y26412810D01*
X41277906Y26326650D01*
X41277913Y26326646D01*
X41412620Y26276404D01*
X41412627Y26276402D01*
X41472155Y26270001D01*
X41472172Y26270000D01*
X41961906Y26270000D01*
X42028945Y26250315D01*
X42074700Y26197511D01*
X42084644Y26128353D01*
X42055619Y26064797D01*
X42023905Y26038613D01*
X41928834Y25983725D01*
X41928826Y25983719D01*
X41816281Y25871174D01*
X41816277Y25871169D01*
X41736697Y25733331D01*
X41694648Y25576405D01*
X41658282Y25516745D01*
X41595435Y25486217D01*
X41574874Y25484500D01*
X41494936Y25484500D01*
X41420698Y25469734D01*
X41336515Y25413485D01*
X41280266Y25329301D01*
X41280264Y25329297D01*
X41265500Y25255072D01*
X41265500Y24204937D01*
X41280266Y24130699D01*
X41336515Y24046516D01*
X41370234Y24023986D01*
X41420699Y23990266D01*
X41420702Y23990266D01*
X41420703Y23990265D01*
X41445666Y23985300D01*
X41494933Y23975500D01*
X44545066Y23975501D01*
X44551305Y23976742D01*
X44620896Y23970518D01*
X44676075Y23927657D01*
X44699322Y23861768D01*
X44699500Y23855126D01*
X44699500Y23313768D01*
X44679815Y23246729D01*
X44627011Y23200974D01*
X44571149Y23190372D01*
X44571149Y23190000D01*
X44569193Y23190000D01*
X44568898Y23189944D01*
X44567848Y23190000D01*
X43270000Y23190000D01*
X43270000Y21190000D01*
X44567823Y21190000D01*
X44568869Y21190056D01*
X44569106Y21190000D01*
X44571149Y21190000D01*
X44571149Y21189518D01*
X44636865Y21173984D01*
X44685378Y21123702D01*
X44699500Y21066233D01*
X44699500Y20524876D01*
X44679815Y20457837D01*
X44627011Y20412082D01*
X44557853Y20402138D01*
X44551317Y20403257D01*
X44545067Y20404500D01*
X44545066Y20404500D01*
X42804058Y20404500D01*
X42737019Y20424185D01*
X42716377Y20440819D01*
X42178877Y20978319D01*
X42145392Y21039642D01*
X42150376Y21109334D01*
X42192248Y21165267D01*
X42257712Y21189684D01*
X42266558Y21190000D01*
X42770000Y21190000D01*
X42770000Y23190000D01*
X41472155Y23190000D01*
X41412627Y23183599D01*
X41412620Y23183597D01*
X41277913Y23133355D01*
X41277906Y23133351D01*
X41162812Y23047191D01*
X41162809Y23047188D01*
X41076649Y22932094D01*
X41076645Y22932087D01*
X41026403Y22797380D01*
X41026401Y22797373D01*
X41020000Y22737845D01*
X41020000Y22436558D01*
X41000315Y22369519D01*
X40947511Y22323764D01*
X40878353Y22313820D01*
X40814797Y22342845D01*
X40808319Y22348877D01*
X39991739Y23165457D01*
X39991737Y23165460D01*
X39920529Y23236668D01*
X39920521Y23236674D01*
X39841978Y23282020D01*
X39841973Y23282023D01*
X39820067Y23287893D01*
X39754355Y23305500D01*
X39754354Y23305500D01*
X39754352Y23305500D01*
X37401059Y23305500D01*
X37334020Y23325185D01*
X37313378Y23341819D01*
X36891377Y23763820D01*
X36857892Y23825143D01*
X36862876Y23894835D01*
X36904748Y23950768D01*
X36970212Y23975185D01*
X36979058Y23975501D01*
X39505064Y23975501D01*
X39505066Y23975501D01*
X39579301Y23990266D01*
X39663484Y24046516D01*
X39719734Y24130699D01*
X39734500Y24204933D01*
X39734499Y25255066D01*
X39719734Y25329301D01*
X39684701Y25381731D01*
X39663484Y25413485D01*
X39613019Y25447204D01*
X39579301Y25469734D01*
X39579299Y25469735D01*
X39579296Y25469736D01*
X39505071Y25484500D01*
X39505067Y25484500D01*
X36754060Y25484500D01*
X36724620Y25493145D01*
X36694635Y25499667D01*
X36689618Y25503423D01*
X36687021Y25504185D01*
X36666380Y25520817D01*
X36630207Y25556989D01*
X36611528Y25575668D01*
X36423419Y25763777D01*
X36389934Y25825100D01*
X36387100Y25851458D01*
X36387100Y26146000D01*
X36406785Y26213039D01*
X36459589Y26258794D01*
X36511100Y26270000D01*
X37730000Y26270000D01*
X38230000Y26270000D01*
X39527828Y26270000D01*
X39527844Y26270001D01*
X39587372Y26276402D01*
X39587379Y26276404D01*
X39722086Y26326646D01*
X39722093Y26326650D01*
X39837187Y26412810D01*
X39837190Y26412813D01*
X39923350Y26527907D01*
X39923354Y26527914D01*
X39973596Y26662621D01*
X39973598Y26662628D01*
X39979999Y26722156D01*
X39980000Y26722173D01*
X39980000Y27020000D01*
X38230000Y27020000D01*
X38230000Y26270000D01*
X37730000Y26270000D01*
X37730000Y27520000D01*
X38230000Y27520000D01*
X39980000Y27520000D01*
X39980000Y27817828D01*
X39979999Y27817845D01*
X41020000Y27817845D01*
X41020000Y27520000D01*
X42770000Y27520000D01*
X42770000Y28270000D01*
X41472155Y28270000D01*
X41412627Y28263599D01*
X41412620Y28263597D01*
X41277913Y28213355D01*
X41277906Y28213351D01*
X41162812Y28127191D01*
X41162809Y28127188D01*
X41076649Y28012094D01*
X41076645Y28012087D01*
X41026403Y27877380D01*
X41026401Y27877373D01*
X41020000Y27817845D01*
X39979999Y27817845D01*
X39973598Y27877373D01*
X39973596Y27877380D01*
X39923354Y28012087D01*
X39923350Y28012094D01*
X39837190Y28127188D01*
X39837187Y28127191D01*
X39722093Y28213351D01*
X39722086Y28213355D01*
X39587379Y28263597D01*
X39587372Y28263599D01*
X39527844Y28270000D01*
X38230000Y28270000D01*
X38230000Y27520000D01*
X37730000Y27520000D01*
X37730000Y28270000D01*
X36432155Y28270000D01*
X36372627Y28263599D01*
X36372617Y28263597D01*
X36244832Y28215936D01*
X36175141Y28210952D01*
X36113818Y28244438D01*
X36080334Y28305761D01*
X36077500Y28332118D01*
X36077500Y28476500D01*
X36097185Y28543539D01*
X36149989Y28589294D01*
X36201500Y28600500D01*
X39858222Y28600500D01*
X39858225Y28600500D01*
X39955254Y28626499D01*
X40042247Y28676724D01*
X40113276Y28747753D01*
X40163501Y28834746D01*
X40189500Y28931775D01*
X40189500Y29262156D01*
X41020000Y29262156D01*
X41026401Y29202628D01*
X41026403Y29202621D01*
X41076645Y29067914D01*
X41076649Y29067907D01*
X41162809Y28952813D01*
X41162812Y28952810D01*
X41277906Y28866650D01*
X41277913Y28866646D01*
X41412620Y28816404D01*
X41412627Y28816402D01*
X41472155Y28810001D01*
X41472172Y28810000D01*
X42770000Y28810000D01*
X42770000Y29560000D01*
X41020000Y29560000D01*
X41020000Y29262156D01*
X40189500Y29262156D01*
X40189500Y30357845D01*
X41020000Y30357845D01*
X41020000Y30060000D01*
X42770000Y30060000D01*
X42770000Y30810000D01*
X41472155Y30810000D01*
X41412627Y30803599D01*
X41412620Y30803597D01*
X41277913Y30753355D01*
X41277906Y30753351D01*
X41162812Y30667191D01*
X41162809Y30667188D01*
X41076649Y30552094D01*
X41076645Y30552087D01*
X41026403Y30417380D01*
X41026401Y30417373D01*
X41020000Y30357845D01*
X40189500Y30357845D01*
X40189500Y31302707D01*
X40209185Y31369746D01*
X40261989Y31415501D01*
X40313500Y31426707D01*
X42528429Y31426707D01*
X42528432Y31426707D01*
X42625461Y31452706D01*
X42712454Y31502931D01*
X42768705Y31559182D01*
X42830028Y31592667D01*
X42856386Y31595501D01*
X44545066Y31595501D01*
X44551305Y31596742D01*
X44620896Y31590518D01*
G37*
G04 #@! TD.AperFunction*
G04 #@! TA.AperFunction,Conductor*
G36*
X33659703Y31459739D02*
G01*
X33666181Y31453707D01*
X34992181Y30127707D01*
X35025666Y30066384D01*
X35028500Y30040026D01*
X35028500Y27232531D01*
X35028499Y27166136D01*
X35028500Y27166133D01*
X35028500Y27166130D01*
X35029600Y27162022D01*
X35029601Y27162018D01*
X35031073Y27156526D01*
X35031219Y27155984D01*
X35045013Y27104500D01*
X35045014Y27104497D01*
X35045013Y27104497D01*
X35052274Y27077402D01*
X35056500Y27045306D01*
X35056500Y24721647D01*
X35079977Y24634029D01*
X35079980Y24634022D01*
X35125326Y24555479D01*
X35125332Y24555471D01*
X35196537Y24484266D01*
X35196543Y24484261D01*
X36525690Y23155114D01*
X36559175Y23093791D01*
X36554191Y23024099D01*
X36512319Y22968166D01*
X36460448Y22948003D01*
X36460909Y22945687D01*
X36454935Y22944500D01*
X36454934Y22944499D01*
X36408025Y22935169D01*
X36380698Y22929734D01*
X36296515Y22873485D01*
X36240266Y22789301D01*
X36240264Y22789297D01*
X36225500Y22715072D01*
X36225500Y22658500D01*
X36205815Y22591461D01*
X36153011Y22545706D01*
X36101500Y22534500D01*
X35554115Y22534500D01*
X35487076Y22554185D01*
X35466434Y22570819D01*
X35074396Y22962857D01*
X35074394Y22962860D01*
X35003186Y23034068D01*
X35003178Y23034074D01*
X34924635Y23079421D01*
X34924629Y23079423D01*
X34915038Y23081993D01*
X34908018Y23083874D01*
X34908017Y23083875D01*
X34852917Y23098639D01*
X34837012Y23102900D01*
X34837011Y23102900D01*
X34682300Y23102900D01*
X34615261Y23122585D01*
X34569506Y23175389D01*
X34558300Y23226900D01*
X34558300Y29941152D01*
X34558300Y29941154D01*
X34534823Y30028772D01*
X34498672Y30091388D01*
X34489473Y30107322D01*
X34489470Y30107326D01*
X34489469Y30107328D01*
X34425328Y30171469D01*
X34425327Y30171470D01*
X34420997Y30175800D01*
X34420986Y30175810D01*
X33490819Y31105977D01*
X33476115Y31132905D01*
X33459523Y31158723D01*
X33458631Y31164924D01*
X33457334Y31167300D01*
X33454500Y31193658D01*
X33454500Y31366026D01*
X33474185Y31433065D01*
X33526989Y31478820D01*
X33596147Y31488764D01*
X33659703Y31459739D01*
G37*
G04 #@! TD.AperFunction*
G04 #@! TA.AperFunction,Conductor*
G36*
X36145912Y37004077D02*
G01*
X36201846Y36962205D01*
X36221951Y36910440D01*
X36224313Y36910909D01*
X36225501Y36904937D01*
X36225501Y36904934D01*
X36236891Y36847668D01*
X36240266Y36830699D01*
X36296515Y36746516D01*
X36329294Y36724614D01*
X36380699Y36690266D01*
X36380702Y36690266D01*
X36380703Y36690265D01*
X36405666Y36685300D01*
X36454933Y36675500D01*
X38195941Y36675501D01*
X38262980Y36655816D01*
X38283622Y36639182D01*
X38821123Y36101681D01*
X38854608Y36040358D01*
X38849624Y35970666D01*
X38807752Y35914733D01*
X38742288Y35890316D01*
X38733442Y35890000D01*
X38230000Y35890000D01*
X38230000Y33890000D01*
X39302500Y33890000D01*
X39369539Y33870315D01*
X39415294Y33817511D01*
X39426500Y33766000D01*
X39426500Y33654955D01*
X39426500Y33564245D01*
X39440960Y33510280D01*
X39449977Y33476627D01*
X39449980Y33476622D01*
X39495326Y33398079D01*
X39495332Y33398071D01*
X39566537Y33326866D01*
X39566543Y33326861D01*
X39577223Y33316181D01*
X39610708Y33254858D01*
X39605724Y33185166D01*
X39563852Y33129233D01*
X39498388Y33104816D01*
X39489542Y33104500D01*
X36454936Y33104500D01*
X36380698Y33089734D01*
X36296515Y33033485D01*
X36240266Y32949301D01*
X36240264Y32949297D01*
X36225500Y32875072D01*
X36225500Y32855500D01*
X36222949Y32846815D01*
X36224238Y32837853D01*
X36213259Y32813813D01*
X36205815Y32788461D01*
X36198974Y32782534D01*
X36195213Y32774297D01*
X36172978Y32760008D01*
X36153011Y32742706D01*
X36142496Y32740419D01*
X36136435Y32736523D01*
X36101500Y32731500D01*
X35946093Y32731500D01*
X35879054Y32751185D01*
X35858412Y32767819D01*
X34963655Y33662576D01*
X34930170Y33723899D01*
X34927336Y33750257D01*
X34927336Y33796022D01*
X34947021Y33863061D01*
X34975849Y33894397D01*
X34977615Y33895754D01*
X34977620Y33895756D01*
X35090168Y34008304D01*
X35169752Y34146148D01*
X35210948Y34299892D01*
X35210948Y34342156D01*
X35980000Y34342156D01*
X35986401Y34282628D01*
X35986403Y34282621D01*
X36036645Y34147914D01*
X36036649Y34147907D01*
X36122809Y34032813D01*
X36122812Y34032810D01*
X36237906Y33946650D01*
X36237913Y33946646D01*
X36372620Y33896404D01*
X36372627Y33896402D01*
X36432155Y33890001D01*
X36432172Y33890000D01*
X37730000Y33890000D01*
X37730000Y34640000D01*
X35980000Y34640000D01*
X35980000Y34342156D01*
X35210948Y34342156D01*
X35210948Y34459060D01*
X35169752Y34612804D01*
X35160191Y34629365D01*
X35090172Y34750642D01*
X35090166Y34750650D01*
X35024267Y34816549D01*
X34990782Y34877872D01*
X34987948Y34904230D01*
X34987948Y35437845D01*
X35980000Y35437845D01*
X35980000Y35140000D01*
X37730000Y35140000D01*
X37730000Y35890000D01*
X36432155Y35890000D01*
X36372627Y35883599D01*
X36372620Y35883597D01*
X36237913Y35833355D01*
X36237906Y35833351D01*
X36122812Y35747191D01*
X36122809Y35747188D01*
X36036649Y35632094D01*
X36036645Y35632087D01*
X35986403Y35497380D01*
X35986401Y35497373D01*
X35980000Y35437845D01*
X34987948Y35437845D01*
X34987948Y35897263D01*
X35007633Y35964302D01*
X35024267Y35984944D01*
X35517107Y36477784D01*
X36014900Y36975578D01*
X36076221Y37009061D01*
X36145912Y37004077D01*
G37*
G04 #@! TD.AperFunction*
G04 #@! TA.AperFunction,Conductor*
G36*
X39939701Y37122600D02*
G01*
X39946180Y37116567D01*
X40720181Y36342566D01*
X40734884Y36315639D01*
X40751477Y36289820D01*
X40752368Y36283620D01*
X40753666Y36281243D01*
X40756500Y36254885D01*
X40756500Y36145116D01*
X40736815Y36078077D01*
X40720181Y36057435D01*
X40513450Y35850704D01*
X40321617Y35658871D01*
X40321615Y35658869D01*
X40316302Y35653556D01*
X40254976Y35620077D01*
X40185284Y35625068D01*
X40129355Y35666945D01*
X40108855Y35709152D01*
X40092023Y35771972D01*
X40079478Y35793700D01*
X40046669Y35850528D01*
X39982528Y35914669D01*
X39982527Y35914670D01*
X39432487Y36464709D01*
X39399003Y36526031D01*
X39403987Y36595722D01*
X39445858Y36651656D01*
X39499458Y36672465D01*
X39499091Y36674313D01*
X39505064Y36675501D01*
X39505066Y36675501D01*
X39579301Y36690266D01*
X39663484Y36746516D01*
X39719734Y36830699D01*
X39734500Y36904933D01*
X39734499Y37028888D01*
X39754183Y37095925D01*
X39806987Y37141680D01*
X39876145Y37151624D01*
X39939701Y37122600D01*
G37*
G04 #@! TD.AperFunction*
G04 #@! TA.AperFunction,Conductor*
G36*
X36392244Y39226451D02*
G01*
X36396147Y39227012D01*
X36402691Y39225891D01*
X36431973Y39220067D01*
X36454933Y39215500D01*
X37511500Y39215501D01*
X37578539Y39195817D01*
X37624294Y39143013D01*
X37635500Y39091501D01*
X37635500Y38974647D01*
X37658977Y38887029D01*
X37658980Y38887022D01*
X37704326Y38808479D01*
X37704332Y38808471D01*
X37775537Y38737266D01*
X37775543Y38737261D01*
X38116623Y38396181D01*
X38150108Y38334858D01*
X38145124Y38265166D01*
X38103252Y38209233D01*
X38037788Y38184816D01*
X38028942Y38184500D01*
X36454934Y38184500D01*
X36454933Y38184499D01*
X36402688Y38174108D01*
X36333097Y38180337D01*
X36277921Y38223202D01*
X36254678Y38289092D01*
X36254500Y38295726D01*
X36254500Y39104274D01*
X36260435Y39124488D01*
X36261563Y39145527D01*
X36270082Y39157342D01*
X36274185Y39171313D01*
X36290103Y39185107D01*
X36302429Y39202199D01*
X36315983Y39207533D01*
X36326989Y39217068D01*
X36347842Y39220067D01*
X36367448Y39227780D01*
X36392244Y39226451D01*
G37*
G04 #@! TD.AperFunction*
G04 #@! TA.AperFunction,Conductor*
G36*
X448657Y49376749D02*
G01*
X454933Y49375500D01*
X2214684Y49375501D01*
X2281723Y49355816D01*
X2327478Y49303013D01*
X2337422Y49233854D01*
X2334459Y49219408D01*
X2316500Y49152384D01*
X2316500Y48993216D01*
X2334309Y48926754D01*
X2357696Y48839471D01*
X2357697Y48839470D01*
X2437277Y48701632D01*
X2437279Y48701629D01*
X2437280Y48701628D01*
X2549828Y48589080D01*
X2572678Y48575888D01*
X2620894Y48525321D01*
X2634118Y48456714D01*
X2608150Y48391849D01*
X2551237Y48351320D01*
X2510679Y48344500D01*
X454934Y48344500D01*
X454928Y48344499D01*
X448686Y48343257D01*
X379095Y48349487D01*
X323919Y48392352D01*
X300677Y48458243D01*
X300500Y48464875D01*
X300500Y49255125D01*
X320185Y49322164D01*
X372989Y49367919D01*
X442147Y49377863D01*
X448657Y49376749D01*
G37*
G04 #@! TD.AperFunction*
M02*
