G04 #@! TF.GenerationSoftware,KiCad,Pcbnew,7.0.10-7.0.10~ubuntu22.04.1*
G04 #@! TF.CreationDate,2024-02-20T17:40:51-05:00*
G04 #@! TF.ProjectId,caravel-breakout-qfn,63617261-7665-46c2-9d62-7265616b6f75,2.2*
G04 #@! TF.SameCoordinates,PX2dc6c00PY42c1d80*
G04 #@! TF.FileFunction,Copper,L2,Bot*
G04 #@! TF.FilePolarity,Positive*
%FSLAX46Y46*%
G04 Gerber Fmt 4.6, Leading zero omitted, Abs format (unit mm)*
G04 Created by KiCad (PCBNEW 7.0.10-7.0.10~ubuntu22.04.1) date 2024-02-20 17:40:51*
%MOMM*%
%LPD*%
G01*
G04 APERTURE LIST*
G04 #@! TA.AperFunction,ComponentPad*
%ADD10C,0.620000*%
G04 #@! TD*
G04 #@! TA.AperFunction,ViaPad*
%ADD11C,0.800000*%
G04 #@! TD*
G04 #@! TA.AperFunction,ViaPad*
%ADD12C,0.700000*%
G04 #@! TD*
G04 #@! TA.AperFunction,Conductor*
%ADD13C,0.250000*%
G04 #@! TD*
G04 #@! TA.AperFunction,Conductor*
%ADD14C,0.200000*%
G04 #@! TD*
G04 #@! TA.AperFunction,Conductor*
%ADD15C,0.180000*%
G04 #@! TD*
G04 APERTURE END LIST*
D10*
X7600000Y13600000D03*
X42500000Y15250000D03*
X42550000Y46400000D03*
X700000Y41550000D03*
X22050000Y34450000D03*
X700000Y37550000D03*
X24450000Y13400000D03*
X24750000Y45550000D03*
X25900000Y51700000D03*
X43150000Y6200000D03*
X43600000Y51700000D03*
X12900000Y51700000D03*
X32800000Y5300000D03*
X22800000Y15000000D03*
X24750000Y37550000D03*
X16950000Y50350000D03*
X15000000Y33000000D03*
X15000000Y37000000D03*
X2500000Y1800000D03*
X15100000Y1300000D03*
X37400000Y8900000D03*
X16850000Y13850000D03*
X15000000Y44000000D03*
X19650000Y15050000D03*
X19100000Y51700000D03*
X41300000Y31350000D03*
X23200000Y1300000D03*
X39300000Y18600000D03*
X37400000Y44000000D03*
X42550000Y41800000D03*
X16850000Y10600000D03*
X32700000Y51700000D03*
X700000Y33550000D03*
X7600000Y8400000D03*
X15000000Y47000000D03*
X7600000Y33850000D03*
X29400000Y49450000D03*
X30000000Y17000000D03*
X24750000Y40850000D03*
X31100000Y7500000D03*
X16500000Y5300000D03*
X30000000Y12500000D03*
X17950000Y34100000D03*
X700000Y45550000D03*
X14850000Y28800000D03*
X30000000Y1500000D03*
X700000Y49550000D03*
X19950000Y39250000D03*
X15000000Y40500000D03*
X32750000Y18600000D03*
X44300000Y46800000D03*
X7600000Y1300000D03*
X37400000Y46500000D03*
X31700000Y40850000D03*
X30000000Y9000000D03*
X18800000Y5300000D03*
X3700000Y33900000D03*
X10600000Y28800000D03*
D11*
X3834000Y26200000D03*
D12*
X15700000Y25625000D03*
D11*
X41036000Y11176000D03*
X39536000Y13200000D03*
X2900000Y17400000D03*
X5334000Y49022000D03*
D12*
X21460398Y22350000D03*
D11*
X35448000Y11340000D03*
X4600000Y16500000D03*
D12*
X31700000Y37700000D03*
D11*
X5697290Y24004646D03*
X10600000Y3200000D03*
X39790000Y51562000D03*
X41045939Y13200000D03*
X33924000Y11340000D03*
X33694000Y49276000D03*
X12400000Y40200000D03*
X41290000Y49276000D03*
X39536000Y36576000D03*
X39523334Y25927684D03*
D12*
X30500003Y22540002D03*
X15400000Y17600000D03*
D11*
X5334000Y46482000D03*
X12400000Y7200000D03*
X3626319Y11472839D03*
X41090000Y25854943D03*
X5334000Y41402000D03*
X3750000Y51500000D03*
X35448000Y13200000D03*
X5500000Y26200000D03*
X5334000Y8500000D03*
X41036000Y38610000D03*
X41036000Y3302000D03*
X5334000Y3302000D03*
X41080025Y24319975D03*
X39536000Y11176000D03*
X2800000Y14800000D03*
X11430000Y38900000D03*
X9912561Y16450000D03*
X39446586Y38610000D03*
D12*
X21460398Y18008564D03*
D11*
X3834000Y41402000D03*
X41036000Y1016000D03*
D12*
X28804526Y24627838D03*
D11*
X4600000Y13600000D03*
D12*
X22226027Y31987117D03*
D11*
X9900000Y38900000D03*
X41036000Y36576000D03*
D12*
X28200000Y17200000D03*
D11*
X12500000Y2100000D03*
X2900000Y7200000D03*
X5334000Y28900000D03*
X11300000Y17870000D03*
X9950000Y17870000D03*
X39536000Y1016000D03*
X35150000Y900000D03*
X3800000Y28900000D03*
D12*
X30379021Y24627838D03*
D11*
X3800000Y23600000D03*
X10600000Y8300000D03*
X3834000Y43942000D03*
X35194000Y49276000D03*
X39536000Y3302000D03*
X35194000Y51562000D03*
X3834000Y3302000D03*
D12*
X15680000Y22500000D03*
X16000000Y29800000D03*
D11*
X4600000Y39100000D03*
X2800000Y40200000D03*
X39790000Y49276000D03*
X3834000Y46482000D03*
X2700000Y12300000D03*
X5250000Y51500000D03*
D12*
X15757543Y27419810D03*
D11*
X39650025Y24169100D03*
X11398439Y16450000D03*
X3834000Y8500000D03*
X5334000Y43942000D03*
D12*
X31419098Y29724526D03*
D11*
X10600000Y41402000D03*
X33650000Y950000D03*
X3834000Y49022000D03*
X41290000Y51562000D03*
D12*
X21460398Y27450000D03*
D11*
X33948000Y13200000D03*
D12*
X30400000Y20000000D03*
X28840000Y28760000D03*
X17600000Y29800000D03*
X28200000Y49500000D03*
X16900000Y49400000D03*
X29047349Y48347349D03*
X29607742Y28266998D03*
X31600000Y42700000D03*
X29503358Y19922303D03*
X22807859Y17670471D03*
X23600000Y45200000D03*
X23125510Y32017702D03*
X22400000Y12600000D03*
X37600000Y33300000D03*
X38000000Y24080000D03*
X32252865Y23347838D03*
X32600000Y35000000D03*
X41800000Y35000000D03*
X42271777Y24543885D03*
X31849357Y22067516D03*
X33000000Y40200000D03*
X43220000Y21300000D03*
X42881603Y40544569D03*
X27500000Y43600000D03*
X27882456Y19367544D03*
X27463293Y41769063D03*
X26416532Y18071734D03*
X25880000Y18909093D03*
X26700000Y45400000D03*
X44350000Y16329467D03*
X25170810Y18300347D03*
X26300380Y15557732D03*
X44325006Y45425006D03*
X25700000Y47000000D03*
X24620000Y19003648D03*
X25500000Y13800000D03*
X43400000Y47700000D03*
X25306356Y17400000D03*
X43200000Y14100000D03*
X24067859Y17589135D03*
X2520000Y15986908D03*
X24103263Y15098012D03*
X2000000Y37600000D03*
X20080000Y17100000D03*
X19946672Y38053328D03*
X19180000Y36200000D03*
X19460000Y17978689D03*
X8000000Y29249998D03*
X8399996Y21420000D03*
X18500000Y9800000D03*
X17900000Y32900000D03*
X21619998Y33400000D03*
X21100000Y10600000D03*
X23347381Y30330382D03*
X23499994Y14100000D03*
X24094251Y30795774D03*
X24981489Y15042134D03*
X24400000Y36400000D03*
X36900000Y18200000D03*
X36969998Y36229996D03*
X24489864Y32048887D03*
X25210474Y31540715D03*
X42600000Y33900000D03*
X42600000Y17300000D03*
X25119864Y34399673D03*
X34000000Y19000000D03*
X25499864Y33591009D03*
X34220000Y33719980D03*
X25783900Y30757257D03*
X40200000Y31400000D03*
X40400000Y18900000D03*
X34700000Y21430000D03*
X34830000Y31110000D03*
X37590000Y28766118D03*
X37699998Y21650000D03*
X31411494Y28740000D03*
X31400000Y26999998D03*
X32094098Y30628608D03*
X31615847Y25991750D03*
X41790288Y26496895D03*
X41750000Y30053187D03*
X32400000Y24607844D03*
X32100000Y32600000D03*
X18820000Y35000000D03*
X19188624Y17141575D03*
X2740000Y32782580D03*
X3026101Y18898038D03*
X12860000Y19912601D03*
X12900000Y32520000D03*
X3240000Y21088714D03*
X3235263Y30256943D03*
X14120000Y22700000D03*
X14115432Y26038700D03*
X13900000Y19180000D03*
X13670000Y24398700D03*
X12431049Y25390093D03*
X11980395Y19939047D03*
X14600000Y5400000D03*
X15000000Y26600000D03*
X17700000Y4600000D03*
X17050000Y26120000D03*
X650000Y31580000D03*
X680000Y5800000D03*
X24600000Y4600000D03*
X1106539Y30695642D03*
X1300000Y850000D03*
X24400000Y650000D03*
X44000000Y7300000D03*
X20999998Y39600000D03*
X43970000Y39245292D03*
X20480000Y30500000D03*
X32400000Y7200000D03*
X2020000Y10700000D03*
X1426928Y32312122D03*
X31900000Y11600000D03*
X17030000Y21853341D03*
X16800000Y15000000D03*
X17260000Y27875313D03*
X16000000Y9600000D03*
D13*
X15700000Y27362267D02*
X15757543Y27419810D01*
D14*
X16000000Y27662267D02*
X15757543Y27419810D01*
X15500000Y22320000D02*
X15500000Y17700000D01*
X15680000Y22500000D02*
X15500000Y22320000D01*
D13*
X15700000Y25625000D02*
X15700000Y27362267D01*
D14*
X15680000Y25605000D02*
X15700000Y25625000D01*
X15500000Y17700000D02*
X15400000Y17600000D01*
D13*
X31419098Y37419098D02*
X31700000Y37700000D01*
D14*
X16000000Y29800000D02*
X16000000Y27662267D01*
D13*
X31419098Y29724526D02*
X31419098Y37419098D01*
D14*
X15680000Y22500000D02*
X15680000Y25605000D01*
D13*
X16900000Y49400000D02*
X16900000Y30500000D01*
X16900000Y30500000D02*
X17600000Y29800000D01*
D14*
X28840000Y28760000D02*
X28840000Y46960000D01*
X28840000Y46960000D02*
X28200000Y47600000D01*
X28200000Y47600000D02*
X28200000Y49500000D01*
D13*
X29607742Y28266998D02*
X29607742Y47786956D01*
X29607742Y47786956D02*
X29047349Y48347349D01*
X29503358Y27207829D02*
X30650000Y28354471D01*
X30650000Y28354471D02*
X30650000Y41750000D01*
X30650000Y41750000D02*
X31600000Y42700000D01*
X29503358Y19922303D02*
X29503358Y27207829D01*
X23600000Y45200000D02*
X23600000Y32497807D01*
X23814864Y31752460D02*
X22672381Y30609977D01*
X22672381Y17805949D02*
X22807859Y17670471D01*
X23814864Y32282943D02*
X23814864Y31752460D01*
X23600000Y32497807D02*
X23814864Y32282943D01*
X22672381Y30609977D02*
X22672381Y17805949D01*
X22222381Y18039588D02*
X22222381Y30796373D01*
X23125510Y31749857D02*
X23125510Y32017702D01*
X22222381Y30796373D02*
X22235000Y30808992D01*
X22235000Y30808992D02*
X22235000Y30859347D01*
X22132859Y12867141D02*
X22132859Y17950066D01*
X22132859Y17950066D02*
X22222381Y18039588D01*
X22235000Y30859347D02*
X23125510Y31749857D01*
X22400000Y12600000D02*
X22132859Y12867141D01*
D14*
X37750000Y24330000D02*
X38000000Y24080000D01*
X37750000Y33150000D02*
X37750000Y29497073D01*
X37750000Y29497073D02*
X38220000Y29027073D01*
X38220000Y28505163D02*
X37750000Y28035163D01*
X37600000Y33300000D02*
X37750000Y33150000D01*
X37750000Y28035163D02*
X37750000Y24330000D01*
X38220000Y29027073D02*
X38220000Y28505163D01*
X33200000Y24294973D02*
X33200000Y34400000D01*
X33200000Y34400000D02*
X32600000Y35000000D01*
X32252865Y23347838D02*
X33200000Y24294973D01*
X42420288Y24692396D02*
X42271777Y24543885D01*
X42420288Y32879712D02*
X42420288Y24692396D01*
X41800000Y33500000D02*
X42420288Y32879712D01*
X41800000Y35000000D02*
X41800000Y33500000D01*
D15*
X31849357Y22067516D02*
X33600000Y23818159D01*
X33600000Y23818159D02*
X33600000Y39600000D01*
X33600000Y39600000D02*
X33000000Y40200000D01*
D14*
X43500000Y38144823D02*
X43500000Y21580000D01*
X42881603Y38763220D02*
X43500000Y38144823D01*
X42881603Y40544569D02*
X42881603Y38763220D01*
X43500000Y21580000D02*
X43220000Y21300000D01*
X28140000Y42960000D02*
X28140000Y19625088D01*
X28140000Y19625088D02*
X27882456Y19367544D01*
X27500000Y43600000D02*
X28140000Y42960000D01*
X26510000Y18165202D02*
X26416532Y18071734D01*
X26510000Y19310000D02*
X26510000Y18165202D01*
X27463293Y20263293D02*
X26510000Y19310000D01*
X27463293Y41769063D02*
X27463293Y20263293D01*
X26833293Y45266707D02*
X26833293Y20433293D01*
X26833293Y20433293D02*
X25880000Y19480000D01*
X25880000Y19480000D02*
X25880000Y18909093D01*
X26700000Y45400000D02*
X26833293Y45266707D01*
X44325006Y45425006D02*
X44600000Y45150012D01*
X25170810Y18300347D02*
X25296964Y18300347D01*
X26300380Y17296931D02*
X26300380Y15557732D01*
X44600000Y45150012D02*
X44600000Y16579467D01*
X44600000Y16579467D02*
X44350000Y16329467D01*
X25296964Y18300347D02*
X26300380Y17296931D01*
X25700000Y47000000D02*
X25900000Y46800000D01*
X26453293Y33957199D02*
X26453293Y20836941D01*
X25900000Y34510492D02*
X26453293Y33957199D01*
X26453293Y20836941D02*
X24620000Y19003648D01*
X25900000Y46800000D02*
X25900000Y34510492D01*
D15*
X43300000Y14200000D02*
X43300000Y19150000D01*
D14*
X25670380Y17035976D02*
X25306356Y17400000D01*
D15*
X43350000Y38988479D02*
X43350000Y39652114D01*
D14*
X25670380Y13970380D02*
X25670380Y17035976D01*
D15*
X43870000Y38468479D02*
X43350000Y38988479D01*
X43350000Y39652114D02*
X43600000Y39902114D01*
D14*
X25500000Y13800000D02*
X25670380Y13970380D01*
D15*
X43600000Y39902114D02*
X43600000Y47500000D01*
X43200000Y14100000D02*
X43300000Y14200000D01*
X43600000Y47500000D02*
X43400000Y47700000D01*
X43870000Y19720000D02*
X43870000Y38468479D01*
X43300000Y19150000D02*
X43870000Y19720000D01*
X2120000Y37480000D02*
X2120000Y16386908D01*
D14*
X24067859Y15133416D02*
X24103263Y15098012D01*
X24067859Y17589135D02*
X24067859Y15133416D01*
D15*
X2120000Y16386908D02*
X2520000Y15986908D01*
X2000000Y37600000D02*
X2120000Y37480000D01*
X19809721Y30090279D02*
X20250000Y29650000D01*
X20250000Y29650000D02*
X20250000Y17270000D01*
X19809721Y37916377D02*
X19809721Y30090279D01*
X19946672Y38053328D02*
X19809721Y37916377D01*
X20250000Y17270000D02*
X20080000Y17100000D01*
X19180000Y36200000D02*
X19440000Y35940000D01*
X19440000Y17998689D02*
X19460000Y17978689D01*
X19440000Y35940000D02*
X19440000Y17998689D01*
X8399996Y21420000D02*
X8000000Y21819996D01*
X8000000Y21819996D02*
X8000000Y29249998D01*
X18480000Y32320000D02*
X18480000Y9820000D01*
X17900000Y32900000D02*
X18480000Y32320000D01*
X18480000Y9820000D02*
X18500000Y9800000D01*
X20700000Y11100000D02*
X20700000Y29800000D01*
X21100000Y32880002D02*
X21619998Y33400000D01*
X21100000Y10700000D02*
X20700000Y11100000D01*
X21100000Y30200000D02*
X21100000Y32880002D01*
X21100000Y10600000D02*
X21100000Y10700000D01*
X20700000Y29800000D02*
X21100000Y30200000D01*
X23447859Y30229904D02*
X23347381Y30330382D01*
X23499994Y14100000D02*
X23447859Y14152135D01*
X23447859Y14152135D02*
X23447859Y30229904D01*
X24687859Y17547486D02*
X24686356Y17545983D01*
X24000000Y30701523D02*
X24000000Y18538281D01*
X24686356Y17545983D02*
X24686356Y15337267D01*
X24094251Y30795774D02*
X24000000Y30701523D01*
X24686356Y15337267D02*
X24981489Y15042134D01*
X24000000Y18538281D02*
X24687859Y17850422D01*
X24687859Y17850422D02*
X24687859Y17547486D01*
X36900000Y18200000D02*
X36970000Y18270000D01*
D14*
X24400000Y36400000D02*
X24400000Y32138751D01*
D15*
X36970000Y18270000D02*
X36970000Y36230000D01*
D14*
X24400000Y32138751D02*
X24489864Y32048887D01*
D15*
X42600000Y22097647D02*
X43000000Y22497647D01*
X43000000Y22497647D02*
X43000000Y33500000D01*
D14*
X25119864Y34399673D02*
X24869864Y34149673D01*
X25210474Y32689526D02*
X25210474Y31540715D01*
X24869864Y33030136D02*
X25210474Y32689526D01*
X24869864Y34149673D02*
X24869864Y33030136D01*
D15*
X42600000Y17300000D02*
X42600000Y22097647D01*
X43000000Y33500000D02*
X42600000Y33900000D01*
D14*
X34000000Y19000000D02*
X34000000Y33499980D01*
X25840474Y30813831D02*
X25783900Y30757257D01*
X34000000Y33499980D02*
X34220000Y33719980D01*
X25840474Y33250399D02*
X25840474Y30813831D01*
X25499864Y33591009D02*
X25840474Y33250399D01*
D15*
X40390025Y18909975D02*
X40390025Y31209975D01*
X40400000Y18900000D02*
X40390025Y18909975D01*
X40390025Y31209975D02*
X40200000Y31400000D01*
X34600000Y21530000D02*
X34600000Y30880000D01*
X34600000Y30880000D02*
X34830000Y31110000D01*
X34700000Y21430000D02*
X34600000Y21530000D01*
D14*
X37370000Y21979998D02*
X37699998Y21650000D01*
X37590000Y28766118D02*
X37370000Y28546118D01*
X37370000Y28546118D02*
X37370000Y21979998D01*
X31411494Y28740000D02*
X31411494Y27011492D01*
X31411494Y27011492D02*
X31400000Y26999998D01*
X32120000Y30602706D02*
X32094098Y30628608D01*
X31615847Y25991750D02*
X32120000Y26495903D01*
X32120000Y26495903D02*
X32120000Y30602706D01*
X41800000Y30003187D02*
X41800000Y26506607D01*
X41800000Y26506607D02*
X41790288Y26496895D01*
X41750000Y30053187D02*
X41800000Y30003187D01*
X32724098Y31975902D02*
X32724098Y24931942D01*
X32724098Y24931942D02*
X32400000Y24607844D01*
X32100000Y32600000D02*
X32724098Y31975902D01*
D15*
X19188624Y17373252D02*
X19188624Y17141575D01*
X18840000Y17721876D02*
X19188624Y17373252D01*
X18820000Y35000000D02*
X18840000Y34980000D01*
X18840000Y34980000D02*
X18840000Y17721876D01*
X2600000Y19324139D02*
X2600000Y32642580D01*
X3026101Y18898038D02*
X2600000Y19324139D01*
X2600000Y32642580D02*
X2740000Y32782580D01*
X12900000Y32520000D02*
X13051049Y32368951D01*
X13051049Y32368951D02*
X13051049Y25133280D01*
X12860000Y24942231D02*
X12860000Y19912601D01*
X13051049Y25133280D02*
X12860000Y24942231D01*
X3080000Y21248714D02*
X3080000Y30101680D01*
X3080000Y30101680D02*
X3235263Y30256943D01*
X3240000Y21088714D02*
X3080000Y21248714D01*
D14*
X14115432Y26038700D02*
X14360012Y25794120D01*
X14360012Y22940012D02*
X14120000Y22700000D01*
X14360012Y25794120D02*
X14360012Y22940012D01*
X13490000Y19590000D02*
X13490000Y24218700D01*
X13490000Y24218700D02*
X13670000Y24398700D01*
X13900000Y19180000D02*
X13490000Y19590000D01*
X12400000Y25359044D02*
X12431049Y25390093D01*
X11980395Y19939047D02*
X12400000Y20358652D01*
X12400000Y20358652D02*
X12400000Y25359044D01*
X15000000Y26600000D02*
X14750000Y26350000D01*
X14750000Y5550000D02*
X14600000Y5400000D01*
X14750000Y26350000D02*
X14750000Y5550000D01*
D15*
X17050000Y26120000D02*
X17800000Y25370000D01*
X17800000Y25370000D02*
X17800000Y4700000D01*
X17800000Y4700000D02*
X17700000Y4600000D01*
X486539Y5953461D02*
X740000Y5700000D01*
X486539Y31416539D02*
X486539Y5953461D01*
X650000Y31580000D02*
X486539Y31416539D01*
X1300000Y30502181D02*
X1106539Y30695642D01*
X24400000Y650000D02*
X24400000Y4400000D01*
X24400000Y4400000D02*
X24600000Y4600000D01*
X1300000Y850000D02*
X1300000Y30502181D01*
X44000000Y15100000D02*
X43715524Y15384476D01*
X43715524Y15384476D02*
X43715524Y16815524D01*
X20999998Y39600000D02*
X20600000Y39200002D01*
X44000000Y7300000D02*
X44000000Y15100000D01*
X44230000Y17330000D02*
X44230000Y38985292D01*
X20600000Y30620000D02*
X20480000Y30500000D01*
X20600000Y39200002D02*
X20600000Y30620000D01*
X44230000Y38985292D02*
X43970000Y39245292D01*
X43715524Y16815524D02*
X44230000Y17330000D01*
X1760000Y31690000D02*
X1760000Y10960000D01*
X1760000Y10960000D02*
X2020000Y10700000D01*
X32400000Y7200000D02*
X32400000Y11100000D01*
X32400000Y11100000D02*
X31900000Y11600000D01*
X1426928Y32023072D02*
X1760000Y31690000D01*
X1426928Y32312122D02*
X1426928Y32023072D01*
D13*
X17030000Y15230000D02*
X17030000Y21853341D01*
X16800000Y15000000D02*
X17030000Y15230000D01*
X16355000Y22250405D02*
X16375000Y22270405D01*
X16375000Y26990313D02*
X17260000Y27875313D01*
X16375000Y22270405D02*
X16375000Y26990313D01*
X16000000Y15300000D02*
X16355000Y15655000D01*
X16000000Y9600000D02*
X16000000Y15300000D01*
X16355000Y15655000D02*
X16355000Y22250405D01*
G04 #@! TA.AperFunction,Conductor*
G36*
X19006061Y52198903D02*
G01*
X19124317Y52187256D01*
X19148145Y52182517D01*
X19256005Y52149798D01*
X19278453Y52140499D01*
X19377849Y52087371D01*
X19398059Y52073867D01*
X19485179Y52002370D01*
X19502369Y51985180D01*
X19573866Y51898060D01*
X19587370Y51877850D01*
X19640495Y51778462D01*
X19649798Y51756003D01*
X19682514Y51648152D01*
X19687256Y51624312D01*
X19698903Y51506063D01*
X19699500Y51493908D01*
X19699500Y50897649D01*
X19731522Y50695466D01*
X19794781Y50500777D01*
X19858691Y50375347D01*
X19886736Y50320307D01*
X19887715Y50318387D01*
X20008028Y50152787D01*
X20152786Y50008029D01*
X20307749Y49895444D01*
X20318390Y49887713D01*
X20429432Y49831134D01*
X20500776Y49794782D01*
X20500778Y49794782D01*
X20500781Y49794780D01*
X20605137Y49760873D01*
X20695465Y49731523D01*
X20796557Y49715512D01*
X20897648Y49699500D01*
X20897649Y49699500D01*
X24102351Y49699500D01*
X24102352Y49699500D01*
X24304534Y49731523D01*
X24499219Y49794780D01*
X24681610Y49887713D01*
X24820937Y49988939D01*
X24847213Y50008029D01*
X24847215Y50008032D01*
X24847219Y50008034D01*
X24991966Y50152781D01*
X24991968Y50152785D01*
X24991971Y50152787D01*
X25106914Y50310995D01*
X25112287Y50318390D01*
X25205220Y50500781D01*
X25268477Y50695466D01*
X25300500Y50897648D01*
X25300500Y51000000D01*
X25300500Y51047595D01*
X25300500Y51493908D01*
X25301097Y51506062D01*
X25303242Y51527844D01*
X25312744Y51624320D01*
X25317483Y51648144D01*
X25350203Y51756010D01*
X25359499Y51778451D01*
X25412632Y51877856D01*
X25426133Y51898060D01*
X25445251Y51921355D01*
X25497635Y51985186D01*
X25514814Y52002365D01*
X25601942Y52073869D01*
X25622144Y52087368D01*
X25721549Y52140501D01*
X25743990Y52149797D01*
X25851856Y52182517D01*
X25875682Y52187256D01*
X25975730Y52197110D01*
X25993940Y52198903D01*
X26006093Y52199500D01*
X26047595Y52199500D01*
X42952405Y52199500D01*
X42995572Y52199500D01*
X43004418Y52199184D01*
X43233020Y52182835D01*
X43250529Y52180317D01*
X43470144Y52132542D01*
X43487103Y52127563D01*
X43697694Y52049017D01*
X43713777Y52041673D01*
X43911036Y51933960D01*
X43925919Y51924395D01*
X44105836Y51789711D01*
X44119207Y51778125D01*
X44278124Y51619208D01*
X44289710Y51605837D01*
X44424394Y51425920D01*
X44433959Y51411037D01*
X44541669Y51213783D01*
X44549019Y51197689D01*
X44627559Y50987113D01*
X44632543Y50970138D01*
X44680316Y50750530D01*
X44682834Y50733018D01*
X44699184Y50504419D01*
X44699500Y50495573D01*
X44699500Y46109771D01*
X44679815Y46042732D01*
X44627011Y45996977D01*
X44557853Y45987033D01*
X44528050Y45995209D01*
X44482815Y46013945D01*
X44482813Y46013946D01*
X44482812Y46013946D01*
X44401220Y46024688D01*
X44325007Y46034722D01*
X44325005Y46034722D01*
X44167200Y46013946D01*
X44167196Y46013945D01*
X44115952Y45992719D01*
X44046482Y45985250D01*
X43984003Y46016526D01*
X43948352Y46076615D01*
X43944500Y46107280D01*
X43944500Y47410241D01*
X43953939Y47457693D01*
X43964546Y47483302D01*
X43988940Y47542194D01*
X44009716Y47700000D01*
X43988940Y47857806D01*
X43928030Y48004858D01*
X43831134Y48131134D01*
X43704858Y48228030D01*
X43704857Y48228031D01*
X43704855Y48228032D01*
X43557809Y48288939D01*
X43557807Y48288940D01*
X43557806Y48288940D01*
X43466917Y48300906D01*
X43400001Y48309716D01*
X43399999Y48309716D01*
X43242194Y48288940D01*
X43242190Y48288939D01*
X43095144Y48228032D01*
X42968866Y48131134D01*
X42871968Y48004856D01*
X42811061Y47857810D01*
X42811060Y47857806D01*
X42793890Y47727386D01*
X42790284Y47700000D01*
X42808360Y47562699D01*
X42811060Y47542195D01*
X42811061Y47542191D01*
X42871968Y47395145D01*
X42871969Y47395143D01*
X42871970Y47395142D01*
X42968866Y47268866D01*
X43095142Y47171970D01*
X43095143Y47171970D01*
X43095144Y47171969D01*
X43178952Y47137255D01*
X43233356Y47093415D01*
X43255421Y47027121D01*
X43255500Y47022694D01*
X43255500Y41229581D01*
X43235815Y41162542D01*
X43183011Y41116787D01*
X43113853Y41106843D01*
X43084049Y41115019D01*
X43069017Y41121245D01*
X43039409Y41133509D01*
X42960506Y41143897D01*
X42881604Y41154285D01*
X42881602Y41154285D01*
X42723797Y41133509D01*
X42723793Y41133508D01*
X42576747Y41072601D01*
X42450469Y40975703D01*
X42353571Y40849425D01*
X42292664Y40702379D01*
X42292663Y40702375D01*
X42271887Y40544570D01*
X42271887Y40544569D01*
X42292663Y40386764D01*
X42292664Y40386760D01*
X42353571Y40239714D01*
X42353572Y40239712D01*
X42353573Y40239711D01*
X42450469Y40113435D01*
X42478590Y40091857D01*
X42519791Y40035433D01*
X42527103Y39993483D01*
X42527103Y38812847D01*
X42524464Y38787403D01*
X42522508Y38778075D01*
X42522508Y38778072D01*
X42526151Y38748847D01*
X42527021Y38734826D01*
X42527102Y38733843D01*
X42530306Y38714643D01*
X42531044Y38709577D01*
X42537141Y38660669D01*
X42539255Y38653567D01*
X42541674Y38646522D01*
X42565119Y38603198D01*
X42567463Y38598645D01*
X42589103Y38554382D01*
X42593430Y38548321D01*
X42597982Y38542473D01*
X42634236Y38509099D01*
X42637934Y38505550D01*
X43109181Y38034303D01*
X43142666Y37972980D01*
X43145500Y37946622D01*
X43145500Y34494826D01*
X43125815Y34427787D01*
X43073011Y34382032D01*
X43003853Y34372088D01*
X42946014Y34396450D01*
X42904858Y34428030D01*
X42904856Y34428031D01*
X42757809Y34488939D01*
X42757807Y34488940D01*
X42757806Y34488940D01*
X42678903Y34499328D01*
X42600001Y34509716D01*
X42599998Y34509716D01*
X42435997Y34488125D01*
X42366962Y34498891D01*
X42314706Y34545271D01*
X42295821Y34612540D01*
X42316302Y34679340D01*
X42321428Y34686539D01*
X42328030Y34695142D01*
X42388940Y34842194D01*
X42409716Y35000000D01*
X42388940Y35157806D01*
X42328030Y35304858D01*
X42231134Y35431134D01*
X42104858Y35528030D01*
X42104857Y35528031D01*
X42104855Y35528032D01*
X41957809Y35588939D01*
X41957807Y35588940D01*
X41957806Y35588940D01*
X41863097Y35601409D01*
X41800001Y35609716D01*
X41799999Y35609716D01*
X41642194Y35588940D01*
X41642190Y35588939D01*
X41495144Y35528032D01*
X41368866Y35431134D01*
X41271968Y35304856D01*
X41211061Y35157810D01*
X41211060Y35157806D01*
X41190284Y35000001D01*
X41190284Y35000000D01*
X41211060Y34842195D01*
X41211061Y34842191D01*
X41271968Y34695145D01*
X41271969Y34695144D01*
X41271970Y34695142D01*
X41368866Y34568866D01*
X41396987Y34547288D01*
X41438188Y34490864D01*
X41445500Y34448914D01*
X41445500Y33549627D01*
X41442861Y33524183D01*
X41440905Y33514855D01*
X41440905Y33514852D01*
X41444548Y33485627D01*
X41445418Y33471606D01*
X41445499Y33470623D01*
X41448703Y33451423D01*
X41449441Y33446357D01*
X41455538Y33397449D01*
X41457652Y33390347D01*
X41460071Y33383302D01*
X41483516Y33339978D01*
X41485860Y33335425D01*
X41507500Y33291162D01*
X41511827Y33285101D01*
X41516379Y33279253D01*
X41552634Y33245878D01*
X41556332Y33242329D01*
X41805266Y32993395D01*
X42029469Y32769193D01*
X42062954Y32707870D01*
X42065788Y32681512D01*
X42065788Y30761396D01*
X42046103Y30694357D01*
X41993299Y30648602D01*
X41924141Y30638658D01*
X41909701Y30641619D01*
X41907807Y30642127D01*
X41907806Y30642127D01*
X41828903Y30652515D01*
X41750001Y30662903D01*
X41749999Y30662903D01*
X41592194Y30642127D01*
X41592190Y30642126D01*
X41445144Y30581219D01*
X41318866Y30484321D01*
X41221968Y30358043D01*
X41161061Y30210997D01*
X41161060Y30210993D01*
X41140284Y30053188D01*
X41140284Y30053187D01*
X41161060Y29895382D01*
X41161061Y29895378D01*
X41221968Y29748332D01*
X41221969Y29748330D01*
X41221970Y29748329D01*
X41318866Y29622053D01*
X41318867Y29622052D01*
X41396986Y29562109D01*
X41438189Y29505681D01*
X41445500Y29463733D01*
X41445500Y27055436D01*
X41425815Y26988397D01*
X41396988Y26957061D01*
X41359154Y26928030D01*
X41262258Y26801755D01*
X41262257Y26801752D01*
X41201349Y26654705D01*
X41201348Y26654701D01*
X41180572Y26496896D01*
X41180572Y26496895D01*
X41201348Y26339090D01*
X41201349Y26339086D01*
X41262256Y26192040D01*
X41262257Y26192038D01*
X41262258Y26192037D01*
X41359154Y26065761D01*
X41485430Y25968865D01*
X41632482Y25907955D01*
X41771928Y25889597D01*
X41790287Y25887179D01*
X41790288Y25887179D01*
X41790289Y25887179D01*
X41845409Y25894437D01*
X41925602Y25904994D01*
X41994637Y25894229D01*
X42046893Y25847849D01*
X42065788Y25782055D01*
X42065788Y25195723D01*
X42046103Y25128684D01*
X41993299Y25082929D01*
X41989243Y25081163D01*
X41966923Y25071918D01*
X41966922Y25071918D01*
X41840643Y24975019D01*
X41743745Y24848741D01*
X41682838Y24701695D01*
X41682837Y24701691D01*
X41670482Y24607844D01*
X41662061Y24543885D01*
X41681865Y24393459D01*
X41682837Y24386080D01*
X41682838Y24386076D01*
X41743745Y24239030D01*
X41743746Y24239028D01*
X41743747Y24239027D01*
X41840643Y24112751D01*
X41966919Y24015855D01*
X42113971Y23954945D01*
X42251960Y23936778D01*
X42271776Y23934169D01*
X42271777Y23934169D01*
X42271778Y23934169D01*
X42291594Y23936778D01*
X42429583Y23954945D01*
X42484049Y23977506D01*
X42553517Y23984974D01*
X42615996Y23953699D01*
X42651648Y23893610D01*
X42655500Y23862944D01*
X42655500Y22691707D01*
X42635815Y22624668D01*
X42619181Y22604026D01*
X42370858Y22355704D01*
X42362885Y22348398D01*
X42332031Y22322508D01*
X42332025Y22322501D01*
X42311885Y22287617D01*
X42306076Y22278498D01*
X42282960Y22245484D01*
X42281794Y22242984D01*
X42272233Y22219904D01*
X42271280Y22217287D01*
X42264283Y22177606D01*
X42261943Y22167050D01*
X42251516Y22128136D01*
X42255028Y22088003D01*
X42255500Y22077195D01*
X42255500Y17858762D01*
X42235815Y17791723D01*
X42206988Y17760387D01*
X42168866Y17731135D01*
X42071970Y17604860D01*
X42071969Y17604857D01*
X42011061Y17457810D01*
X42011060Y17457806D01*
X41993614Y17325290D01*
X41990284Y17300000D01*
X41999276Y17231697D01*
X42011060Y17142195D01*
X42011061Y17142191D01*
X42071968Y16995145D01*
X42071969Y16995143D01*
X42071970Y16995142D01*
X42168866Y16868866D01*
X42295142Y16771970D01*
X42442194Y16711060D01*
X42581640Y16692702D01*
X42599999Y16690284D01*
X42600000Y16690284D01*
X42600001Y16690284D01*
X42659557Y16698125D01*
X42757806Y16711060D01*
X42784049Y16721931D01*
X42853516Y16729399D01*
X42915995Y16698125D01*
X42951648Y16638036D01*
X42955500Y16607369D01*
X42955500Y14734470D01*
X42935815Y14667431D01*
X42900785Y14634025D01*
X42901590Y14632977D01*
X42895144Y14628031D01*
X42895142Y14628030D01*
X42819492Y14569981D01*
X42768866Y14531134D01*
X42671968Y14404856D01*
X42611061Y14257810D01*
X42611060Y14257806D01*
X42590284Y14100001D01*
X42590284Y14100000D01*
X42611060Y13942195D01*
X42611061Y13942191D01*
X42671968Y13795145D01*
X42671969Y13795143D01*
X42671970Y13795142D01*
X42768866Y13668866D01*
X42895142Y13571970D01*
X43042194Y13511060D01*
X43181640Y13492702D01*
X43199999Y13490284D01*
X43200000Y13490284D01*
X43200001Y13490284D01*
X43216446Y13492450D01*
X43357806Y13511060D01*
X43484050Y13563352D01*
X43553517Y13570820D01*
X43615996Y13539545D01*
X43651648Y13479456D01*
X43655500Y13448790D01*
X43655500Y7858762D01*
X43635815Y7791723D01*
X43606988Y7760387D01*
X43568866Y7731135D01*
X43471970Y7604860D01*
X43471969Y7604857D01*
X43411061Y7457810D01*
X43411060Y7457806D01*
X43390284Y7300001D01*
X43390284Y7300000D01*
X43411060Y7142195D01*
X43411061Y7142191D01*
X43471968Y6995145D01*
X43471969Y6995143D01*
X43471970Y6995142D01*
X43568866Y6868866D01*
X43695142Y6771970D01*
X43695143Y6771970D01*
X43695144Y6771969D01*
X43744159Y6751667D01*
X43842194Y6711060D01*
X43981640Y6692702D01*
X43999999Y6690284D01*
X44000000Y6690284D01*
X44000001Y6690284D01*
X44016446Y6692450D01*
X44157806Y6711060D01*
X44304858Y6771970D01*
X44431134Y6868866D01*
X44477124Y6928802D01*
X44533552Y6970004D01*
X44603298Y6974159D01*
X44664218Y6939947D01*
X44696971Y6878230D01*
X44699500Y6853315D01*
X44699500Y2004428D01*
X44699184Y1995582D01*
X44682834Y1766983D01*
X44680316Y1749471D01*
X44632543Y1529863D01*
X44627559Y1512888D01*
X44549019Y1302312D01*
X44541669Y1286218D01*
X44433959Y1088964D01*
X44424394Y1074081D01*
X44289710Y894164D01*
X44278124Y880793D01*
X44119207Y721876D01*
X44105836Y710290D01*
X43925919Y575606D01*
X43911036Y566041D01*
X43713782Y458331D01*
X43697688Y450981D01*
X43487112Y372441D01*
X43470137Y367457D01*
X43250529Y319684D01*
X43233017Y317166D01*
X43004418Y300816D01*
X42995572Y300500D01*
X25095117Y300500D01*
X25028078Y320185D01*
X24982323Y372989D01*
X24972379Y442147D01*
X24980555Y471951D01*
X24988940Y492194D01*
X25009716Y650000D01*
X24988940Y807806D01*
X24928030Y954858D01*
X24928029Y954859D01*
X24928029Y954860D01*
X24831133Y1081135D01*
X24793012Y1110387D01*
X24751810Y1166816D01*
X24744500Y1208762D01*
X24744500Y2075480D01*
X35365618Y2075480D01*
X35396488Y1900404D01*
X35466904Y1737161D01*
X35573067Y1594561D01*
X35709254Y1480286D01*
X35787990Y1440743D01*
X35868118Y1400501D01*
X35868119Y1400501D01*
X35868123Y1400499D01*
X36041110Y1359500D01*
X36041113Y1359500D01*
X36174285Y1359500D01*
X36174292Y1359500D01*
X36306577Y1374962D01*
X36473635Y1435766D01*
X36622168Y1533457D01*
X36744167Y1662769D01*
X36833057Y1816731D01*
X36884045Y1987042D01*
X36889131Y2074372D01*
X36912680Y2140151D01*
X36968055Y2182759D01*
X37037674Y2188664D01*
X37056491Y2183253D01*
X37065976Y2179693D01*
X37121345Y2169645D01*
X37287450Y2139500D01*
X37287453Y2139500D01*
X37456148Y2139500D01*
X37456155Y2139500D01*
X37624188Y2154623D01*
X37748770Y2189006D01*
X37818627Y2187867D01*
X37876782Y2149139D01*
X37904766Y2085118D01*
X37905546Y2076698D01*
X37905616Y2075489D01*
X37936488Y1900404D01*
X38006904Y1737161D01*
X38113067Y1594561D01*
X38249254Y1480286D01*
X38327990Y1440743D01*
X38408118Y1400501D01*
X38408119Y1400501D01*
X38408123Y1400499D01*
X38581110Y1359500D01*
X38581113Y1359500D01*
X38714285Y1359500D01*
X38714292Y1359500D01*
X38846577Y1374962D01*
X39013635Y1435766D01*
X39162168Y1533457D01*
X39284167Y1662769D01*
X39373057Y1816731D01*
X39424045Y1987042D01*
X39434382Y2164520D01*
X39403511Y2339599D01*
X39333096Y2502838D01*
X39226933Y2645439D01*
X39154112Y2706543D01*
X39090746Y2759714D01*
X39090744Y2759715D01*
X38931881Y2839500D01*
X38931877Y2839501D01*
X38758890Y2880500D01*
X38721860Y2880500D01*
X38654821Y2900185D01*
X38609066Y2952989D01*
X38599122Y3022147D01*
X38600969Y3032092D01*
X38618890Y3110613D01*
X38644191Y3221463D01*
X38654290Y3446330D01*
X38624075Y3669387D01*
X38602007Y3737303D01*
X38600013Y3807141D01*
X38636093Y3866974D01*
X38698793Y3897803D01*
X38712725Y3899409D01*
X38714284Y3899500D01*
X38714292Y3899500D01*
X38846577Y3914962D01*
X39013635Y3975766D01*
X39162168Y4073457D01*
X39284167Y4202769D01*
X39373057Y4356731D01*
X39424045Y4527042D01*
X39434382Y4704520D01*
X39403511Y4879599D01*
X39333096Y5042838D01*
X39331120Y5045492D01*
X39251060Y5153031D01*
X39226933Y5185439D01*
X39168500Y5234470D01*
X39090746Y5299714D01*
X39090744Y5299715D01*
X38931881Y5379500D01*
X38931877Y5379501D01*
X38758890Y5420500D01*
X38625708Y5420500D01*
X38509958Y5406971D01*
X38493422Y5405038D01*
X38493419Y5405037D01*
X38326367Y5344236D01*
X38258675Y5299714D01*
X38177832Y5246543D01*
X38177831Y5246543D01*
X38177831Y5246542D01*
X38055833Y5117233D01*
X37966944Y4963272D01*
X37915955Y4792959D01*
X37915954Y4792954D01*
X37910868Y4705630D01*
X37887318Y4639849D01*
X37831943Y4597242D01*
X37762323Y4591337D01*
X37743507Y4596748D01*
X37734022Y4600308D01*
X37512550Y4640500D01*
X37512547Y4640500D01*
X37343845Y4640500D01*
X37305399Y4637040D01*
X37175813Y4625378D01*
X37175807Y4625377D01*
X37051231Y4590995D01*
X36981370Y4592135D01*
X36923217Y4630863D01*
X36895233Y4694884D01*
X36894452Y4703317D01*
X36894381Y4704512D01*
X36894382Y4704520D01*
X36863511Y4879599D01*
X36793096Y5042838D01*
X36791120Y5045492D01*
X36711060Y5153031D01*
X36686933Y5185439D01*
X36628500Y5234470D01*
X36550746Y5299714D01*
X36550744Y5299715D01*
X36391881Y5379500D01*
X36391877Y5379501D01*
X36218890Y5420500D01*
X36085708Y5420500D01*
X35969958Y5406971D01*
X35953422Y5405038D01*
X35953419Y5405037D01*
X35786367Y5344236D01*
X35718675Y5299714D01*
X35637832Y5246543D01*
X35637831Y5246543D01*
X35637831Y5246542D01*
X35515833Y5117233D01*
X35426944Y4963272D01*
X35375955Y4792959D01*
X35375954Y4792954D01*
X35365618Y4615481D01*
X35365618Y4615480D01*
X35396488Y4440404D01*
X35466904Y4277161D01*
X35547527Y4168867D01*
X35573067Y4134561D01*
X35709254Y4020286D01*
X35768993Y3990284D01*
X35868118Y3940501D01*
X35868119Y3940501D01*
X35868123Y3940499D01*
X36041110Y3899500D01*
X36041113Y3899500D01*
X36078140Y3899500D01*
X36145179Y3879815D01*
X36190934Y3827011D01*
X36200878Y3757853D01*
X36199031Y3747908D01*
X36155810Y3558543D01*
X36155808Y3558532D01*
X36150769Y3446326D01*
X36145710Y3333670D01*
X36175925Y3110613D01*
X36175926Y3110609D01*
X36197991Y3042700D01*
X36199986Y2972859D01*
X36163906Y2913026D01*
X36101205Y2882198D01*
X36087299Y2880594D01*
X36085737Y2880503D01*
X36085711Y2880500D01*
X36085708Y2880500D01*
X35997775Y2870222D01*
X35953422Y2865038D01*
X35953419Y2865037D01*
X35786367Y2804236D01*
X35718675Y2759714D01*
X35637832Y2706543D01*
X35637831Y2706543D01*
X35637831Y2706542D01*
X35515833Y2577233D01*
X35426944Y2423272D01*
X35375955Y2252959D01*
X35375954Y2252954D01*
X35365618Y2075481D01*
X35365618Y2075480D01*
X24744500Y2075480D01*
X24744500Y3922694D01*
X24764185Y3989733D01*
X24816989Y4035488D01*
X24821048Y4037255D01*
X24866889Y4056244D01*
X24904858Y4071970D01*
X25031134Y4168866D01*
X25128030Y4295142D01*
X25188940Y4442194D01*
X25209716Y4600000D01*
X25209675Y4600308D01*
X25204384Y4640500D01*
X25188940Y4757806D01*
X25141653Y4871969D01*
X25128031Y4904856D01*
X25128030Y4904857D01*
X25128030Y4904858D01*
X25031134Y5031134D01*
X24904858Y5128030D01*
X24904857Y5128031D01*
X24904855Y5128032D01*
X24757809Y5188939D01*
X24757807Y5188940D01*
X24757806Y5188940D01*
X24678903Y5199328D01*
X24600001Y5209716D01*
X24599999Y5209716D01*
X24442194Y5188940D01*
X24442190Y5188939D01*
X24295144Y5128032D01*
X24168866Y5031134D01*
X24071968Y4904856D01*
X24011061Y4757810D01*
X24011060Y4757806D01*
X23990284Y4600001D01*
X23990284Y4600000D01*
X24011060Y4442195D01*
X24011061Y4442191D01*
X24046061Y4357693D01*
X24055500Y4310241D01*
X24055500Y1208762D01*
X24035815Y1141723D01*
X24006988Y1110387D01*
X23968866Y1081135D01*
X23871970Y954860D01*
X23871969Y954857D01*
X23811061Y807810D01*
X23811060Y807806D01*
X23790284Y650001D01*
X23790284Y650000D01*
X23811060Y492195D01*
X23819445Y471951D01*
X23826913Y402482D01*
X23795637Y340003D01*
X23735547Y304351D01*
X23704883Y300500D01*
X2004428Y300500D01*
X1995582Y300816D01*
X1888772Y308455D01*
X1823308Y332872D01*
X1781436Y388805D01*
X1776452Y458497D01*
X1799240Y507624D01*
X1828030Y545142D01*
X1888940Y692194D01*
X1909716Y850000D01*
X1888940Y1007806D01*
X1828030Y1154858D01*
X1828029Y1154859D01*
X1828029Y1154860D01*
X1731133Y1281135D01*
X1693012Y1310387D01*
X1651810Y1366816D01*
X1644500Y1408762D01*
X1644500Y2075480D01*
X5565618Y2075480D01*
X5596488Y1900404D01*
X5666904Y1737161D01*
X5773067Y1594561D01*
X5909254Y1480286D01*
X5987990Y1440743D01*
X6068118Y1400501D01*
X6068119Y1400501D01*
X6068123Y1400499D01*
X6241110Y1359500D01*
X6241113Y1359500D01*
X6374285Y1359500D01*
X6374292Y1359500D01*
X6506577Y1374962D01*
X6673635Y1435766D01*
X6822168Y1533457D01*
X6944167Y1662769D01*
X7033057Y1816731D01*
X7084045Y1987042D01*
X7089131Y2074372D01*
X7112680Y2140151D01*
X7168055Y2182759D01*
X7237674Y2188664D01*
X7256491Y2183253D01*
X7265976Y2179693D01*
X7321345Y2169645D01*
X7487450Y2139500D01*
X7487453Y2139500D01*
X7656148Y2139500D01*
X7656155Y2139500D01*
X7824188Y2154623D01*
X7948770Y2189006D01*
X8018627Y2187867D01*
X8076782Y2149139D01*
X8104766Y2085118D01*
X8105546Y2076698D01*
X8105616Y2075489D01*
X8136488Y1900404D01*
X8206904Y1737161D01*
X8313067Y1594561D01*
X8449254Y1480286D01*
X8527990Y1440743D01*
X8608118Y1400501D01*
X8608119Y1400501D01*
X8608123Y1400499D01*
X8781110Y1359500D01*
X8781113Y1359500D01*
X8914285Y1359500D01*
X8914292Y1359500D01*
X9046577Y1374962D01*
X9213635Y1435766D01*
X9362168Y1533457D01*
X9484167Y1662769D01*
X9573057Y1816731D01*
X9624045Y1987042D01*
X9634382Y2164520D01*
X9603511Y2339599D01*
X9533096Y2502838D01*
X9426933Y2645439D01*
X9354112Y2706543D01*
X9290746Y2759714D01*
X9290744Y2759715D01*
X9131881Y2839500D01*
X9131877Y2839501D01*
X8958890Y2880500D01*
X8921860Y2880500D01*
X8854821Y2900185D01*
X8809066Y2952989D01*
X8799122Y3022147D01*
X8800969Y3032092D01*
X8818890Y3110613D01*
X8844191Y3221463D01*
X8854290Y3446330D01*
X8824075Y3669387D01*
X8802007Y3737303D01*
X8800013Y3807141D01*
X8836093Y3866974D01*
X8898793Y3897803D01*
X8912725Y3899409D01*
X8914284Y3899500D01*
X8914292Y3899500D01*
X9046577Y3914962D01*
X9213635Y3975766D01*
X9362168Y4073457D01*
X9484167Y4202769D01*
X9573057Y4356731D01*
X9624045Y4527042D01*
X9634382Y4704520D01*
X9603511Y4879599D01*
X9533096Y5042838D01*
X9531120Y5045492D01*
X9451060Y5153031D01*
X9426933Y5185439D01*
X9368500Y5234470D01*
X9290746Y5299714D01*
X9290744Y5299715D01*
X9131881Y5379500D01*
X9131877Y5379501D01*
X8958890Y5420500D01*
X8825708Y5420500D01*
X8709958Y5406971D01*
X8693422Y5405038D01*
X8693419Y5405037D01*
X8526367Y5344236D01*
X8458675Y5299714D01*
X8377832Y5246543D01*
X8377831Y5246543D01*
X8377831Y5246542D01*
X8255833Y5117233D01*
X8166944Y4963272D01*
X8115955Y4792959D01*
X8115954Y4792954D01*
X8110868Y4705630D01*
X8087318Y4639849D01*
X8031943Y4597242D01*
X7962323Y4591337D01*
X7943507Y4596748D01*
X7934022Y4600308D01*
X7712550Y4640500D01*
X7712547Y4640500D01*
X7543845Y4640500D01*
X7505399Y4637040D01*
X7375813Y4625378D01*
X7375807Y4625377D01*
X7251231Y4590995D01*
X7181370Y4592135D01*
X7123217Y4630863D01*
X7095233Y4694884D01*
X7094452Y4703317D01*
X7094381Y4704512D01*
X7094382Y4704520D01*
X7063511Y4879599D01*
X6993096Y5042838D01*
X6991120Y5045492D01*
X6911060Y5153031D01*
X6886933Y5185439D01*
X6828500Y5234470D01*
X6750746Y5299714D01*
X6750744Y5299715D01*
X6591881Y5379500D01*
X6591877Y5379501D01*
X6418890Y5420500D01*
X6285708Y5420500D01*
X6169958Y5406971D01*
X6153422Y5405038D01*
X6153419Y5405037D01*
X5986367Y5344236D01*
X5918675Y5299714D01*
X5837832Y5246543D01*
X5837831Y5246543D01*
X5837831Y5246542D01*
X5715833Y5117233D01*
X5626944Y4963272D01*
X5575955Y4792959D01*
X5575954Y4792954D01*
X5565618Y4615481D01*
X5565618Y4615480D01*
X5596488Y4440404D01*
X5666904Y4277161D01*
X5747527Y4168867D01*
X5773067Y4134561D01*
X5909254Y4020286D01*
X5968993Y3990284D01*
X6068118Y3940501D01*
X6068119Y3940501D01*
X6068123Y3940499D01*
X6241110Y3899500D01*
X6241113Y3899500D01*
X6278140Y3899500D01*
X6345179Y3879815D01*
X6390934Y3827011D01*
X6400878Y3757853D01*
X6399031Y3747908D01*
X6355810Y3558543D01*
X6355808Y3558532D01*
X6350769Y3446326D01*
X6345710Y3333670D01*
X6375925Y3110613D01*
X6375926Y3110609D01*
X6397991Y3042700D01*
X6399986Y2972859D01*
X6363906Y2913026D01*
X6301205Y2882198D01*
X6287299Y2880594D01*
X6285737Y2880503D01*
X6285711Y2880500D01*
X6285708Y2880500D01*
X6197775Y2870222D01*
X6153422Y2865038D01*
X6153419Y2865037D01*
X5986367Y2804236D01*
X5918675Y2759714D01*
X5837832Y2706543D01*
X5837831Y2706543D01*
X5837831Y2706542D01*
X5715833Y2577233D01*
X5626944Y2423272D01*
X5575955Y2252959D01*
X5575954Y2252954D01*
X5565618Y2075481D01*
X5565618Y2075480D01*
X1644500Y2075480D01*
X1644500Y7155480D01*
X5565618Y7155480D01*
X5596488Y6980404D01*
X5666904Y6817161D01*
X5745894Y6711060D01*
X5773067Y6674561D01*
X5909254Y6560286D01*
X5987990Y6520743D01*
X6068118Y6480501D01*
X6068119Y6480501D01*
X6068123Y6480499D01*
X6241110Y6439500D01*
X6241113Y6439500D01*
X6374285Y6439500D01*
X6374292Y6439500D01*
X6506577Y6454962D01*
X6673635Y6515766D01*
X6822168Y6613457D01*
X6944167Y6742769D01*
X7033057Y6896731D01*
X7084045Y7067042D01*
X7089196Y7155480D01*
X8105618Y7155480D01*
X8136488Y6980404D01*
X8206904Y6817161D01*
X8285894Y6711060D01*
X8313067Y6674561D01*
X8449254Y6560286D01*
X8527990Y6520743D01*
X8608118Y6480501D01*
X8608119Y6480501D01*
X8608123Y6480499D01*
X8781110Y6439500D01*
X8781113Y6439500D01*
X8914285Y6439500D01*
X8914292Y6439500D01*
X9046577Y6454962D01*
X9213635Y6515766D01*
X9362168Y6613457D01*
X9484167Y6742769D01*
X9573057Y6896731D01*
X9624045Y7067042D01*
X9634382Y7244520D01*
X9603511Y7419599D01*
X9533096Y7582838D01*
X9516703Y7604857D01*
X9452034Y7691723D01*
X9426933Y7725439D01*
X9387220Y7758762D01*
X9290746Y7839714D01*
X9290744Y7839715D01*
X9131881Y7919500D01*
X9131877Y7919501D01*
X8958890Y7960500D01*
X8825708Y7960500D01*
X8709958Y7946971D01*
X8693422Y7945038D01*
X8693419Y7945037D01*
X8526367Y7884236D01*
X8458675Y7839714D01*
X8377832Y7786543D01*
X8377831Y7786543D01*
X8377831Y7786542D01*
X8255833Y7657233D01*
X8166944Y7503272D01*
X8115955Y7332959D01*
X8115954Y7332954D01*
X8105618Y7155481D01*
X8105618Y7155480D01*
X7089196Y7155480D01*
X7094382Y7244520D01*
X7063511Y7419599D01*
X6993096Y7582838D01*
X6976703Y7604857D01*
X6912034Y7691723D01*
X6886933Y7725439D01*
X6847220Y7758762D01*
X6750746Y7839714D01*
X6750744Y7839715D01*
X6591881Y7919500D01*
X6591877Y7919501D01*
X6418890Y7960500D01*
X6285708Y7960500D01*
X6169958Y7946971D01*
X6153422Y7945038D01*
X6153419Y7945037D01*
X5986367Y7884236D01*
X5918675Y7839714D01*
X5837832Y7786543D01*
X5837831Y7786543D01*
X5837831Y7786542D01*
X5715833Y7657233D01*
X5626944Y7503272D01*
X5575955Y7332959D01*
X5575954Y7332954D01*
X5565618Y7155481D01*
X5565618Y7155480D01*
X1644500Y7155480D01*
X1644500Y9695480D01*
X5565618Y9695480D01*
X5582453Y9600000D01*
X5596489Y9520401D01*
X5607385Y9495142D01*
X5666904Y9357161D01*
X5730327Y9271970D01*
X5773067Y9214561D01*
X5909254Y9100286D01*
X5965636Y9071970D01*
X6068118Y9020501D01*
X6068119Y9020501D01*
X6068123Y9020499D01*
X6241110Y8979500D01*
X6241113Y8979500D01*
X6374285Y8979500D01*
X6374292Y8979500D01*
X6506577Y8994962D01*
X6673635Y9055766D01*
X6822168Y9153457D01*
X6944167Y9282769D01*
X7033057Y9436731D01*
X7084045Y9607042D01*
X7089196Y9695480D01*
X8105618Y9695480D01*
X8122453Y9600000D01*
X8136489Y9520401D01*
X8147385Y9495142D01*
X8206904Y9357161D01*
X8270327Y9271970D01*
X8313067Y9214561D01*
X8449254Y9100286D01*
X8505636Y9071970D01*
X8608118Y9020501D01*
X8608119Y9020501D01*
X8608123Y9020499D01*
X8781110Y8979500D01*
X8781113Y8979500D01*
X8914285Y8979500D01*
X8914292Y8979500D01*
X9046577Y8994962D01*
X9213635Y9055766D01*
X9362168Y9153457D01*
X9484167Y9282769D01*
X9573057Y9436731D01*
X9624045Y9607042D01*
X9634382Y9784520D01*
X9603511Y9959599D01*
X9533096Y10122838D01*
X9528920Y10128447D01*
X9426932Y10265440D01*
X9290746Y10379714D01*
X9290744Y10379715D01*
X9131881Y10459500D01*
X9131877Y10459501D01*
X8958890Y10500500D01*
X8825708Y10500500D01*
X8709958Y10486971D01*
X8693422Y10485038D01*
X8693419Y10485037D01*
X8526367Y10424236D01*
X8458675Y10379714D01*
X8377832Y10326543D01*
X8377831Y10326543D01*
X8377831Y10326542D01*
X8255833Y10197233D01*
X8166944Y10043272D01*
X8115955Y9872959D01*
X8115954Y9872954D01*
X8105618Y9695481D01*
X8105618Y9695480D01*
X7089196Y9695480D01*
X7094382Y9784520D01*
X7063511Y9959599D01*
X6993096Y10122838D01*
X6988920Y10128447D01*
X6886932Y10265440D01*
X6750746Y10379714D01*
X6750744Y10379715D01*
X6591881Y10459500D01*
X6591877Y10459501D01*
X6418890Y10500500D01*
X6285708Y10500500D01*
X6169958Y10486971D01*
X6153422Y10485038D01*
X6153419Y10485037D01*
X5986367Y10424236D01*
X5918675Y10379714D01*
X5837832Y10326543D01*
X5837831Y10326543D01*
X5837831Y10326542D01*
X5715833Y10197233D01*
X5626944Y10043272D01*
X5575955Y9872959D01*
X5575954Y9872954D01*
X5565618Y9695481D01*
X5565618Y9695480D01*
X1644500Y9695480D01*
X1644500Y10015653D01*
X1664185Y10082692D01*
X1716989Y10128447D01*
X1786147Y10138391D01*
X1815948Y10130216D01*
X1862194Y10111060D01*
X2001640Y10092702D01*
X2019999Y10090284D01*
X2020000Y10090284D01*
X2020001Y10090284D01*
X2036446Y10092450D01*
X2177806Y10111060D01*
X2324858Y10171970D01*
X2451134Y10268866D01*
X2548030Y10395142D01*
X2608940Y10542194D01*
X2629716Y10700000D01*
X2608940Y10857806D01*
X2558179Y10980355D01*
X2548031Y11004856D01*
X2548030Y11004857D01*
X2548030Y11004858D01*
X2451134Y11131134D01*
X2324858Y11228030D01*
X2324854Y11228032D01*
X2181048Y11287598D01*
X2126644Y11331439D01*
X2104579Y11397733D01*
X2104500Y11402159D01*
X2104500Y12235480D01*
X5565618Y12235480D01*
X5596488Y12060404D01*
X5666904Y11897161D01*
X5770648Y11757810D01*
X5773067Y11754561D01*
X5909254Y11640286D01*
X5987990Y11600743D01*
X6068118Y11560501D01*
X6068119Y11560501D01*
X6068123Y11560499D01*
X6241110Y11519500D01*
X6241113Y11519500D01*
X6374285Y11519500D01*
X6374292Y11519500D01*
X6506577Y11534962D01*
X6673635Y11595766D01*
X6822168Y11693457D01*
X6944167Y11822769D01*
X7033057Y11976731D01*
X7084045Y12147042D01*
X7089196Y12235480D01*
X8105618Y12235480D01*
X8136488Y12060404D01*
X8206904Y11897161D01*
X8310648Y11757810D01*
X8313067Y11754561D01*
X8449254Y11640286D01*
X8527990Y11600743D01*
X8608118Y11560501D01*
X8608119Y11560501D01*
X8608123Y11560499D01*
X8781110Y11519500D01*
X8781113Y11519500D01*
X8914285Y11519500D01*
X8914292Y11519500D01*
X9046577Y11534962D01*
X9213635Y11595766D01*
X9362168Y11693457D01*
X9484167Y11822769D01*
X9573057Y11976731D01*
X9624045Y12147042D01*
X9634382Y12324520D01*
X9603511Y12499599D01*
X9533096Y12662838D01*
X9474002Y12742214D01*
X9426932Y12805440D01*
X9290746Y12919714D01*
X9290744Y12919715D01*
X9131881Y12999500D01*
X9131877Y12999501D01*
X8958890Y13040500D01*
X8825708Y13040500D01*
X8709958Y13026971D01*
X8693422Y13025038D01*
X8693419Y13025037D01*
X8526367Y12964236D01*
X8436084Y12904856D01*
X8377832Y12866543D01*
X8377831Y12866543D01*
X8377831Y12866542D01*
X8255833Y12737233D01*
X8166944Y12583272D01*
X8115955Y12412959D01*
X8115954Y12412954D01*
X8105618Y12235481D01*
X8105618Y12235480D01*
X7089196Y12235480D01*
X7094382Y12324520D01*
X7063511Y12499599D01*
X6993096Y12662838D01*
X6934002Y12742214D01*
X6886932Y12805440D01*
X6750746Y12919714D01*
X6750744Y12919715D01*
X6591881Y12999500D01*
X6591877Y12999501D01*
X6418890Y13040500D01*
X6285708Y13040500D01*
X6169958Y13026971D01*
X6153422Y13025038D01*
X6153419Y13025037D01*
X5986367Y12964236D01*
X5896084Y12904856D01*
X5837832Y12866543D01*
X5837831Y12866543D01*
X5837831Y12866542D01*
X5715833Y12737233D01*
X5626944Y12583272D01*
X5575955Y12412959D01*
X5575954Y12412954D01*
X5565618Y12235481D01*
X5565618Y12235480D01*
X2104500Y12235480D01*
X2104500Y14775480D01*
X5565618Y14775480D01*
X5587059Y14653878D01*
X5596489Y14600401D01*
X5614949Y14557607D01*
X5666904Y14437161D01*
X5735557Y14344945D01*
X5773067Y14294561D01*
X5909254Y14180286D01*
X5987990Y14140743D01*
X6068118Y14100501D01*
X6068119Y14100501D01*
X6068123Y14100499D01*
X6241110Y14059500D01*
X6241113Y14059500D01*
X6374285Y14059500D01*
X6374292Y14059500D01*
X6506577Y14074962D01*
X6673635Y14135766D01*
X6822168Y14233457D01*
X6944167Y14362769D01*
X7033057Y14516731D01*
X7084045Y14687042D01*
X7089196Y14775480D01*
X8105618Y14775480D01*
X8127059Y14653878D01*
X8136489Y14600401D01*
X8154949Y14557607D01*
X8206904Y14437161D01*
X8275557Y14344945D01*
X8313067Y14294561D01*
X8449254Y14180286D01*
X8527990Y14140743D01*
X8608118Y14100501D01*
X8608119Y14100501D01*
X8608123Y14100499D01*
X8781110Y14059500D01*
X8781113Y14059500D01*
X8914285Y14059500D01*
X8914292Y14059500D01*
X9046577Y14074962D01*
X9213635Y14135766D01*
X9362168Y14233457D01*
X9484167Y14362769D01*
X9573057Y14516731D01*
X9624045Y14687042D01*
X9634382Y14864520D01*
X9603511Y15039599D01*
X9533096Y15202838D01*
X9520584Y15219644D01*
X9446520Y15319129D01*
X9426933Y15345439D01*
X9414927Y15355513D01*
X9290746Y15459714D01*
X9290744Y15459715D01*
X9131881Y15539500D01*
X9113831Y15543778D01*
X8958890Y15580500D01*
X8825708Y15580500D01*
X8709958Y15566971D01*
X8693422Y15565038D01*
X8693419Y15565037D01*
X8526367Y15504236D01*
X8431540Y15441867D01*
X8377832Y15406543D01*
X8377831Y15406543D01*
X8377831Y15406542D01*
X8255833Y15277233D01*
X8166944Y15123272D01*
X8115955Y14952959D01*
X8115954Y14952954D01*
X8105618Y14775481D01*
X8105618Y14775480D01*
X7089196Y14775480D01*
X7094382Y14864520D01*
X7063511Y15039599D01*
X6993096Y15202838D01*
X6980584Y15219644D01*
X6906520Y15319129D01*
X6886933Y15345439D01*
X6874927Y15355513D01*
X6750746Y15459714D01*
X6750744Y15459715D01*
X6591881Y15539500D01*
X6573831Y15543778D01*
X6418890Y15580500D01*
X6285708Y15580500D01*
X6169958Y15566971D01*
X6153422Y15565038D01*
X6153419Y15565037D01*
X5986367Y15504236D01*
X5891540Y15441867D01*
X5837832Y15406543D01*
X5837831Y15406543D01*
X5837831Y15406542D01*
X5715833Y15277233D01*
X5626944Y15123272D01*
X5575955Y14952959D01*
X5575954Y14952954D01*
X5565618Y14775481D01*
X5565618Y14775480D01*
X2104500Y14775480D01*
X2104500Y15319129D01*
X2124185Y15386168D01*
X2176989Y15431923D01*
X2246147Y15441867D01*
X2275952Y15433690D01*
X2362194Y15397968D01*
X2501640Y15379610D01*
X2519999Y15377192D01*
X2520000Y15377192D01*
X2520001Y15377192D01*
X2536446Y15379358D01*
X2677806Y15397968D01*
X2824858Y15458878D01*
X2951134Y15555774D01*
X3048030Y15682050D01*
X3108940Y15829102D01*
X3129716Y15986908D01*
X3108940Y16144714D01*
X3048030Y16291766D01*
X2951134Y16418042D01*
X2824858Y16514938D01*
X2824857Y16514939D01*
X2824855Y16514940D01*
X2677809Y16575847D01*
X2677807Y16575848D01*
X2677806Y16575848D01*
X2636950Y16581227D01*
X2572314Y16589737D01*
X2508417Y16618004D01*
X2469947Y16676329D01*
X2464500Y16712676D01*
X2464500Y17315480D01*
X5565618Y17315480D01*
X5596488Y17140404D01*
X5666904Y16977161D01*
X5747527Y16868867D01*
X5773067Y16834561D01*
X5909254Y16720286D01*
X5968993Y16690284D01*
X6068118Y16640501D01*
X6068119Y16640501D01*
X6068123Y16640499D01*
X6241110Y16599500D01*
X6241113Y16599500D01*
X6374285Y16599500D01*
X6374292Y16599500D01*
X6506577Y16614962D01*
X6673635Y16675766D01*
X6822168Y16773457D01*
X6944167Y16902769D01*
X7033057Y17056731D01*
X7084045Y17227042D01*
X7089196Y17315480D01*
X8105618Y17315480D01*
X8136488Y17140404D01*
X8206904Y16977161D01*
X8287527Y16868867D01*
X8313067Y16834561D01*
X8449254Y16720286D01*
X8508993Y16690284D01*
X8608118Y16640501D01*
X8608119Y16640501D01*
X8608123Y16640499D01*
X8781110Y16599500D01*
X8781113Y16599500D01*
X8914285Y16599500D01*
X8914292Y16599500D01*
X9046577Y16614962D01*
X9213635Y16675766D01*
X9362168Y16773457D01*
X9484167Y16902769D01*
X9573057Y17056731D01*
X9624045Y17227042D01*
X9634382Y17404520D01*
X9603511Y17579599D01*
X9533096Y17742838D01*
X9520031Y17760387D01*
X9426932Y17885440D01*
X9290746Y17999714D01*
X9290744Y17999715D01*
X9131881Y18079500D01*
X9131877Y18079501D01*
X8958890Y18120500D01*
X8825708Y18120500D01*
X8709958Y18106971D01*
X8693422Y18105038D01*
X8693419Y18105037D01*
X8526367Y18044236D01*
X8427343Y17979107D01*
X8377832Y17946543D01*
X8377831Y17946543D01*
X8377831Y17946542D01*
X8255833Y17817233D01*
X8166944Y17663272D01*
X8115955Y17492959D01*
X8115954Y17492954D01*
X8105618Y17315481D01*
X8105618Y17315480D01*
X7089196Y17315480D01*
X7094382Y17404520D01*
X7063511Y17579599D01*
X6993096Y17742838D01*
X6980031Y17760387D01*
X6886932Y17885440D01*
X6750746Y17999714D01*
X6750744Y17999715D01*
X6591881Y18079500D01*
X6591877Y18079501D01*
X6418890Y18120500D01*
X6285708Y18120500D01*
X6169958Y18106971D01*
X6153422Y18105038D01*
X6153419Y18105037D01*
X5986367Y18044236D01*
X5887343Y17979107D01*
X5837832Y17946543D01*
X5837831Y17946543D01*
X5837831Y17946542D01*
X5715833Y17817233D01*
X5626944Y17663272D01*
X5575955Y17492959D01*
X5575954Y17492954D01*
X5565618Y17315481D01*
X5565618Y17315480D01*
X2464500Y17315480D01*
X2464500Y18315568D01*
X2484185Y18382607D01*
X2536989Y18428362D01*
X2606147Y18438306D01*
X2663984Y18413945D01*
X2721243Y18370008D01*
X2868295Y18309098D01*
X3007741Y18290740D01*
X3026100Y18288322D01*
X3026101Y18288322D01*
X3026102Y18288322D01*
X3042547Y18290488D01*
X3183907Y18309098D01*
X3330959Y18370008D01*
X3457235Y18466904D01*
X3554131Y18593180D01*
X3615041Y18740232D01*
X3635817Y18898038D01*
X3635027Y18904035D01*
X3622393Y19000000D01*
X3615041Y19055844D01*
X3563615Y19180000D01*
X3554132Y19202894D01*
X3554131Y19202895D01*
X3554131Y19202896D01*
X3457235Y19329172D01*
X3330959Y19426068D01*
X3330958Y19426069D01*
X3330956Y19426070D01*
X3183910Y19486977D01*
X3183908Y19486978D01*
X3183907Y19486978D01*
X3102436Y19497705D01*
X3052314Y19504303D01*
X2988418Y19532570D01*
X2949947Y19590894D01*
X2944500Y19627242D01*
X2944500Y19855480D01*
X5565618Y19855480D01*
X5594796Y19689999D01*
X5596489Y19680401D01*
X5623646Y19617445D01*
X5666904Y19517161D01*
X5768154Y19381160D01*
X5773067Y19374561D01*
X5909254Y19260286D01*
X5980245Y19224633D01*
X6068118Y19180501D01*
X6068119Y19180501D01*
X6068123Y19180499D01*
X6241110Y19139500D01*
X6241113Y19139500D01*
X6374285Y19139500D01*
X6374292Y19139500D01*
X6506577Y19154962D01*
X6673635Y19215766D01*
X6822168Y19313457D01*
X6944167Y19442769D01*
X7033057Y19596731D01*
X7084045Y19767042D01*
X7094382Y19944520D01*
X7063511Y20119599D01*
X6993096Y20282838D01*
X6886933Y20425439D01*
X6814112Y20486543D01*
X6750746Y20539714D01*
X6750744Y20539715D01*
X6591881Y20619500D01*
X6591877Y20619501D01*
X6418890Y20660500D01*
X6285708Y20660500D01*
X6169958Y20646971D01*
X6153422Y20645038D01*
X6153419Y20645037D01*
X5986367Y20584236D01*
X5918675Y20539714D01*
X5837832Y20486543D01*
X5837831Y20486543D01*
X5837831Y20486542D01*
X5715833Y20357233D01*
X5626944Y20203272D01*
X5575955Y20032959D01*
X5575954Y20032954D01*
X5565618Y19855481D01*
X5565618Y19855480D01*
X2944500Y19855480D01*
X2944500Y20376508D01*
X2964185Y20443547D01*
X3016989Y20489302D01*
X3084682Y20499447D01*
X3240000Y20478998D01*
X3240001Y20478998D01*
X3256446Y20481164D01*
X3397806Y20499774D01*
X3544858Y20560684D01*
X3671134Y20657580D01*
X3768030Y20783856D01*
X3828940Y20930908D01*
X3849716Y21088714D01*
X3828940Y21246520D01*
X3768030Y21393572D01*
X3671134Y21519848D01*
X3544858Y21616744D01*
X3529392Y21623151D01*
X3501046Y21634892D01*
X3446643Y21678734D01*
X3424579Y21745028D01*
X3424500Y21749453D01*
X3424500Y22395480D01*
X5565618Y22395480D01*
X5595620Y22225326D01*
X5596489Y22220401D01*
X5603869Y22203292D01*
X5666904Y22057161D01*
X5737022Y21962977D01*
X5773067Y21914561D01*
X5909254Y21800286D01*
X5930715Y21789508D01*
X6068118Y21720501D01*
X6068119Y21720501D01*
X6068123Y21720499D01*
X6241110Y21679500D01*
X6241113Y21679500D01*
X6374285Y21679500D01*
X6374292Y21679500D01*
X6506577Y21694962D01*
X6673635Y21755766D01*
X6822168Y21853457D01*
X6944167Y21982769D01*
X7033057Y22136731D01*
X7084045Y22307042D01*
X7094382Y22484520D01*
X7063511Y22659599D01*
X6993096Y22822838D01*
X6886933Y22965439D01*
X6814112Y23026543D01*
X6750746Y23079714D01*
X6750744Y23079715D01*
X6591881Y23159500D01*
X6591877Y23159501D01*
X6418890Y23200500D01*
X6285708Y23200500D01*
X6169958Y23186971D01*
X6153422Y23185038D01*
X6153419Y23185037D01*
X5986367Y23124236D01*
X5918675Y23079714D01*
X5837832Y23026543D01*
X5837831Y23026543D01*
X5837831Y23026542D01*
X5715833Y22897233D01*
X5626944Y22743272D01*
X5575955Y22572959D01*
X5575954Y22572954D01*
X5565618Y22395481D01*
X5565618Y22395480D01*
X3424500Y22395480D01*
X3424500Y24935480D01*
X5565618Y24935480D01*
X5596488Y24760404D01*
X5666904Y24597161D01*
X5773067Y24454561D01*
X5909254Y24340286D01*
X5960401Y24314599D01*
X6068118Y24260501D01*
X6068119Y24260501D01*
X6068123Y24260499D01*
X6241110Y24219500D01*
X6241113Y24219500D01*
X6374285Y24219500D01*
X6374292Y24219500D01*
X6506577Y24234962D01*
X6673635Y24295766D01*
X6822168Y24393457D01*
X6944167Y24522769D01*
X7033057Y24676731D01*
X7084045Y24847042D01*
X7094382Y25024520D01*
X7063511Y25199599D01*
X6993096Y25362838D01*
X6972805Y25390093D01*
X6919546Y25461632D01*
X6886933Y25505439D01*
X6873684Y25516556D01*
X6750746Y25619714D01*
X6750744Y25619715D01*
X6591881Y25699500D01*
X6591877Y25699501D01*
X6418890Y25740500D01*
X6285708Y25740500D01*
X6173169Y25727346D01*
X6153422Y25725038D01*
X6153419Y25725037D01*
X5986367Y25664236D01*
X5918675Y25619714D01*
X5837832Y25566543D01*
X5837831Y25566543D01*
X5837831Y25566542D01*
X5715833Y25437233D01*
X5626944Y25283272D01*
X5575955Y25112959D01*
X5575954Y25112954D01*
X5565618Y24935481D01*
X5565618Y24935480D01*
X3424500Y24935480D01*
X3424500Y27475480D01*
X5565618Y27475480D01*
X5595703Y27304855D01*
X5596489Y27300401D01*
X5615894Y27255416D01*
X5666904Y27137161D01*
X5727747Y27055436D01*
X5773067Y26994561D01*
X5909254Y26880286D01*
X5960401Y26854599D01*
X6068118Y26800501D01*
X6068119Y26800501D01*
X6068123Y26800499D01*
X6241110Y26759500D01*
X6241113Y26759500D01*
X6374285Y26759500D01*
X6374292Y26759500D01*
X6506577Y26774962D01*
X6673635Y26835766D01*
X6822168Y26933457D01*
X6944167Y27062769D01*
X7033057Y27216731D01*
X7084045Y27387042D01*
X7094382Y27564520D01*
X7063511Y27739599D01*
X6993096Y27902838D01*
X6886933Y28045439D01*
X6855990Y28071403D01*
X6750746Y28159714D01*
X6750744Y28159715D01*
X6591881Y28239500D01*
X6591877Y28239501D01*
X6418890Y28280500D01*
X6285708Y28280500D01*
X6169958Y28266971D01*
X6153422Y28265038D01*
X6153419Y28265037D01*
X5986367Y28204236D01*
X5918675Y28159714D01*
X5837832Y28106543D01*
X5837831Y28106543D01*
X5837831Y28106542D01*
X5715833Y27977233D01*
X5626944Y27823272D01*
X5575955Y27652959D01*
X5575954Y27652954D01*
X5565618Y27475481D01*
X5565618Y27475480D01*
X3424500Y27475480D01*
X3424500Y29249998D01*
X7390284Y29249998D01*
X7406131Y29129627D01*
X7411060Y29092193D01*
X7411061Y29092189D01*
X7471968Y28945143D01*
X7471969Y28945141D01*
X7471970Y28945140D01*
X7568866Y28818864D01*
X7606987Y28789613D01*
X7648189Y28733186D01*
X7655500Y28691238D01*
X7655500Y21840450D01*
X7655028Y21829642D01*
X7651516Y21789509D01*
X7661944Y21750592D01*
X7664285Y21740033D01*
X7671282Y21700351D01*
X7672227Y21697754D01*
X7681795Y21674657D01*
X7682960Y21672158D01*
X7706070Y21639154D01*
X7711882Y21630032D01*
X7732027Y21595140D01*
X7753136Y21577428D01*
X7791838Y21519258D01*
X7796369Y21466254D01*
X7791597Y21430001D01*
X7790280Y21420000D01*
X7809739Y21272194D01*
X7811056Y21262195D01*
X7811057Y21262191D01*
X7871964Y21115145D01*
X7871965Y21115143D01*
X7871966Y21115142D01*
X7968862Y20988866D01*
X8095138Y20891970D01*
X8095139Y20891970D01*
X8095140Y20891969D01*
X8105616Y20887630D01*
X8242190Y20831060D01*
X8381636Y20812702D01*
X8399995Y20810284D01*
X8399995Y20810285D01*
X8399996Y20810284D01*
X8453124Y20817279D01*
X8522159Y20806514D01*
X8574415Y20760135D01*
X8593301Y20692866D01*
X8572821Y20626065D01*
X8531596Y20589423D01*
X8532399Y20588202D01*
X8526366Y20584235D01*
X8526365Y20584234D01*
X8377832Y20486543D01*
X8377831Y20486543D01*
X8377831Y20486542D01*
X8255833Y20357233D01*
X8166944Y20203272D01*
X8115955Y20032959D01*
X8115954Y20032954D01*
X8105618Y19855481D01*
X8105618Y19855480D01*
X8134796Y19689999D01*
X8136489Y19680401D01*
X8163646Y19617445D01*
X8206904Y19517161D01*
X8308154Y19381160D01*
X8313067Y19374561D01*
X8449254Y19260286D01*
X8520245Y19224633D01*
X8608118Y19180501D01*
X8608119Y19180501D01*
X8608123Y19180499D01*
X8781110Y19139500D01*
X8781113Y19139500D01*
X8914285Y19139500D01*
X8914292Y19139500D01*
X9046577Y19154962D01*
X9213635Y19215766D01*
X9362168Y19313457D01*
X9484167Y19442769D01*
X9573057Y19596731D01*
X9624045Y19767042D01*
X9634063Y19939047D01*
X11370679Y19939047D01*
X11387524Y19811096D01*
X11391455Y19781242D01*
X11391456Y19781238D01*
X11452363Y19634192D01*
X11452364Y19634190D01*
X11452365Y19634189D01*
X11549261Y19507913D01*
X11675537Y19411017D01*
X11822589Y19350107D01*
X11962035Y19331749D01*
X11980394Y19329331D01*
X11980395Y19329331D01*
X11980396Y19329331D01*
X11996841Y19331497D01*
X12138201Y19350107D01*
X12285253Y19411017D01*
X12327478Y19443419D01*
X12392644Y19468613D01*
X12461089Y19454576D01*
X12478448Y19443421D01*
X12555142Y19384571D01*
X12555143Y19384571D01*
X12555144Y19384570D01*
X12596249Y19367544D01*
X12702194Y19323661D01*
X12841640Y19305303D01*
X12859999Y19302885D01*
X12860000Y19302885D01*
X12860001Y19302885D01*
X12876446Y19305051D01*
X13017806Y19323661D01*
X13108850Y19361373D01*
X13178318Y19368841D01*
X13240277Y19338047D01*
X13242627Y19335884D01*
X13246332Y19332329D01*
X13259652Y19319009D01*
X13293137Y19257686D01*
X13294910Y19215144D01*
X13290348Y19180488D01*
X13290284Y19180000D01*
X13306371Y19057806D01*
X13311060Y19022195D01*
X13311061Y19022191D01*
X13371968Y18875145D01*
X13371969Y18875143D01*
X13371970Y18875142D01*
X13468866Y18748866D01*
X13595142Y18651970D01*
X13595143Y18651970D01*
X13595144Y18651969D01*
X13604060Y18648276D01*
X13742194Y18591060D01*
X13881640Y18572702D01*
X13899999Y18570284D01*
X13900000Y18570284D01*
X13900001Y18570284D01*
X13916446Y18572450D01*
X14057806Y18591060D01*
X14204858Y18651970D01*
X14204865Y18651976D01*
X14209493Y18654647D01*
X14277392Y18671124D01*
X14343421Y18648276D01*
X14386615Y18593357D01*
X14395500Y18547264D01*
X14395500Y6052455D01*
X14375815Y5985416D01*
X14323011Y5939661D01*
X14318955Y5937895D01*
X14295146Y5928033D01*
X14295145Y5928033D01*
X14168866Y5831134D01*
X14071968Y5704856D01*
X14011061Y5557810D01*
X14011060Y5557806D01*
X13990284Y5400000D01*
X14010487Y5246543D01*
X14011060Y5242195D01*
X14011061Y5242191D01*
X14071968Y5095145D01*
X14071969Y5095143D01*
X14071970Y5095142D01*
X14168866Y4968866D01*
X14295142Y4871970D01*
X14442194Y4811060D01*
X14579682Y4792959D01*
X14599999Y4790284D01*
X14600000Y4790284D01*
X14600001Y4790284D01*
X14620280Y4792954D01*
X14757806Y4811060D01*
X14904858Y4871970D01*
X15031134Y4968866D01*
X15128030Y5095142D01*
X15188940Y5242194D01*
X15209716Y5400000D01*
X15188940Y5557806D01*
X15128030Y5704858D01*
X15128030Y5704859D01*
X15123966Y5711898D01*
X15125911Y5713022D01*
X15104929Y5767308D01*
X15104500Y5777616D01*
X15104500Y9600000D01*
X15390284Y9600000D01*
X15411060Y9442195D01*
X15411061Y9442191D01*
X15471968Y9295145D01*
X15471969Y9295143D01*
X15471970Y9295142D01*
X15568866Y9168866D01*
X15695142Y9071970D01*
X15695143Y9071970D01*
X15695144Y9071969D01*
X15734265Y9055765D01*
X15842194Y9011060D01*
X15981640Y8992702D01*
X15999999Y8990284D01*
X16000000Y8990284D01*
X16000001Y8990284D01*
X16016446Y8992450D01*
X16157806Y9011060D01*
X16304858Y9071970D01*
X16431134Y9168866D01*
X16528030Y9295142D01*
X16588940Y9442194D01*
X16609716Y9600000D01*
X16588940Y9757806D01*
X16528030Y9904858D01*
X16528029Y9904859D01*
X16528029Y9904860D01*
X16431133Y10031136D01*
X16428011Y10033531D01*
X16426044Y10036225D01*
X16425384Y10036885D01*
X16425486Y10036988D01*
X16386810Y10089960D01*
X16379500Y10131905D01*
X16379500Y14334292D01*
X16399185Y14401331D01*
X16451989Y14447086D01*
X16521147Y14457030D01*
X16550952Y14448853D01*
X16642194Y14411060D01*
X16781640Y14392702D01*
X16799999Y14390284D01*
X16800000Y14390284D01*
X16800001Y14390284D01*
X16816446Y14392450D01*
X16957806Y14411060D01*
X17104858Y14471970D01*
X17231134Y14568866D01*
X17233123Y14571458D01*
X17235361Y14573093D01*
X17236881Y14574612D01*
X17237117Y14574376D01*
X17289551Y14612662D01*
X17359297Y14616817D01*
X17420217Y14582606D01*
X17452971Y14520889D01*
X17455500Y14495973D01*
X17455500Y5234470D01*
X17435815Y5167431D01*
X17400785Y5134025D01*
X17401590Y5132977D01*
X17395144Y5128031D01*
X17395142Y5128030D01*
X17284119Y5042838D01*
X17268866Y5031134D01*
X17171968Y4904856D01*
X17111061Y4757810D01*
X17111060Y4757806D01*
X17090284Y4600001D01*
X17090284Y4600000D01*
X17111060Y4442195D01*
X17111061Y4442191D01*
X17171968Y4295145D01*
X17171969Y4295143D01*
X17171970Y4295142D01*
X17268866Y4168866D01*
X17395142Y4071970D01*
X17542194Y4011060D01*
X17681640Y3992702D01*
X17699999Y3990284D01*
X17700000Y3990284D01*
X17700001Y3990284D01*
X17716446Y3992450D01*
X17857806Y4011060D01*
X18004858Y4071970D01*
X18131134Y4168866D01*
X18228030Y4295142D01*
X18288940Y4442194D01*
X18309716Y4600000D01*
X18309675Y4600308D01*
X18304384Y4640500D01*
X18288940Y4757806D01*
X18228030Y4904858D01*
X18210861Y4927233D01*
X18170124Y4980323D01*
X18144930Y5045492D01*
X18144500Y5055809D01*
X18144500Y9107369D01*
X18164185Y9174408D01*
X18216989Y9220163D01*
X18286147Y9230107D01*
X18315945Y9221933D01*
X18342194Y9211060D01*
X18447398Y9197210D01*
X18499999Y9190284D01*
X18500000Y9190284D01*
X18500001Y9190284D01*
X18516446Y9192450D01*
X18657806Y9211060D01*
X18804858Y9271970D01*
X18931134Y9368866D01*
X19028030Y9495142D01*
X19088940Y9642194D01*
X19109716Y9800000D01*
X19088940Y9957806D01*
X19028030Y10104858D01*
X19028029Y10104859D01*
X19028029Y10104860D01*
X18957147Y10197233D01*
X18931134Y10231134D01*
X18881961Y10268867D01*
X18873012Y10275734D01*
X18831810Y10332163D01*
X18824500Y10374109D01*
X18824500Y16452516D01*
X18844185Y16519555D01*
X18896989Y16565310D01*
X18966147Y16575254D01*
X18995948Y16567079D01*
X19030818Y16552635D01*
X19170264Y16534277D01*
X19188623Y16531859D01*
X19188624Y16531859D01*
X19188625Y16531859D01*
X19205070Y16534025D01*
X19346430Y16552635D01*
X19493482Y16613545D01*
X19531734Y16642898D01*
X19596901Y16668093D01*
X19665346Y16654056D01*
X19682708Y16642898D01*
X19775140Y16571971D01*
X19775141Y16571971D01*
X19775142Y16571970D01*
X19922194Y16511060D01*
X20061640Y16492702D01*
X20079999Y16490284D01*
X20080000Y16490284D01*
X20080001Y16490284D01*
X20135121Y16497542D01*
X20215314Y16508099D01*
X20284349Y16497334D01*
X20336605Y16450954D01*
X20355500Y16385160D01*
X20355500Y11120454D01*
X20355028Y11109646D01*
X20351516Y11069513D01*
X20361944Y11030596D01*
X20364285Y11020037D01*
X20371282Y10980355D01*
X20372227Y10977758D01*
X20381795Y10954661D01*
X20382960Y10952162D01*
X20406070Y10919158D01*
X20411882Y10910036D01*
X20432027Y10875144D01*
X20432028Y10875143D01*
X20432030Y10875141D01*
X20462891Y10849245D01*
X20470865Y10841938D01*
X20472931Y10839872D01*
X20506416Y10778549D01*
X20508189Y10736006D01*
X20490284Y10600003D01*
X20490284Y10600000D01*
X20508781Y10459501D01*
X20511060Y10442195D01*
X20511061Y10442191D01*
X20571968Y10295145D01*
X20571969Y10295143D01*
X20571970Y10295142D01*
X20668866Y10168866D01*
X20795142Y10071970D01*
X20942194Y10011060D01*
X21081640Y9992702D01*
X21099999Y9990284D01*
X21100000Y9990284D01*
X21100001Y9990284D01*
X21116446Y9992450D01*
X21257806Y10011060D01*
X21404858Y10071970D01*
X21531134Y10168866D01*
X21628030Y10295142D01*
X21688940Y10442194D01*
X21709716Y10600000D01*
X21688940Y10757806D01*
X21628030Y10904858D01*
X21531134Y11031134D01*
X21404858Y11128030D01*
X21404857Y11128031D01*
X21404855Y11128032D01*
X21257809Y11188939D01*
X21257807Y11188940D01*
X21257806Y11188940D01*
X21216950Y11194319D01*
X21152314Y11202829D01*
X21088417Y11231096D01*
X21049947Y11289421D01*
X21044500Y11325768D01*
X21044500Y11600000D01*
X31290284Y11600000D01*
X31298846Y11534963D01*
X31311060Y11442195D01*
X31311061Y11442191D01*
X31371968Y11295145D01*
X31371969Y11295143D01*
X31371970Y11295142D01*
X31468866Y11168866D01*
X31595142Y11071970D01*
X31595143Y11071970D01*
X31595144Y11071969D01*
X31601076Y11069512D01*
X31742194Y11011060D01*
X31900000Y10990284D01*
X31900001Y10990284D01*
X31903519Y10990748D01*
X31915310Y10992300D01*
X31984345Y10981538D01*
X32036603Y10935160D01*
X32055500Y10869362D01*
X32055500Y7758762D01*
X32035815Y7691723D01*
X32006988Y7660387D01*
X31968866Y7631135D01*
X31871970Y7504860D01*
X31871969Y7504857D01*
X31811061Y7357810D01*
X31811060Y7357806D01*
X31803450Y7300000D01*
X31790284Y7200000D01*
X31797894Y7142194D01*
X31811060Y7042195D01*
X31811061Y7042191D01*
X31871968Y6895145D01*
X31871969Y6895143D01*
X31871970Y6895142D01*
X31968866Y6768866D01*
X32095142Y6671970D01*
X32242194Y6611060D01*
X32381640Y6592702D01*
X32399999Y6590284D01*
X32400000Y6590284D01*
X32400001Y6590284D01*
X32416446Y6592450D01*
X32557806Y6611060D01*
X32704858Y6671970D01*
X32831134Y6768866D01*
X32928030Y6895142D01*
X32988940Y7042194D01*
X33003855Y7155480D01*
X35365618Y7155480D01*
X35396488Y6980404D01*
X35466904Y6817161D01*
X35545894Y6711060D01*
X35573067Y6674561D01*
X35709254Y6560286D01*
X35787990Y6520743D01*
X35868118Y6480501D01*
X35868119Y6480501D01*
X35868123Y6480499D01*
X36041110Y6439500D01*
X36041113Y6439500D01*
X36174285Y6439500D01*
X36174292Y6439500D01*
X36306577Y6454962D01*
X36473635Y6515766D01*
X36622168Y6613457D01*
X36744167Y6742769D01*
X36833057Y6896731D01*
X36884045Y7067042D01*
X36889196Y7155480D01*
X37905618Y7155480D01*
X37936488Y6980404D01*
X38006904Y6817161D01*
X38085894Y6711060D01*
X38113067Y6674561D01*
X38249254Y6560286D01*
X38327990Y6520743D01*
X38408118Y6480501D01*
X38408119Y6480501D01*
X38408123Y6480499D01*
X38581110Y6439500D01*
X38581113Y6439500D01*
X38714285Y6439500D01*
X38714292Y6439500D01*
X38846577Y6454962D01*
X39013635Y6515766D01*
X39162168Y6613457D01*
X39284167Y6742769D01*
X39373057Y6896731D01*
X39424045Y7067042D01*
X39434382Y7244520D01*
X39403511Y7419599D01*
X39333096Y7582838D01*
X39316703Y7604857D01*
X39252034Y7691723D01*
X39226933Y7725439D01*
X39187220Y7758762D01*
X39090746Y7839714D01*
X39090744Y7839715D01*
X38931881Y7919500D01*
X38931877Y7919501D01*
X38758890Y7960500D01*
X38625708Y7960500D01*
X38509958Y7946971D01*
X38493422Y7945038D01*
X38493419Y7945037D01*
X38326367Y7884236D01*
X38258675Y7839714D01*
X38177832Y7786543D01*
X38177831Y7786543D01*
X38177831Y7786542D01*
X38055833Y7657233D01*
X37966944Y7503272D01*
X37915955Y7332959D01*
X37915954Y7332954D01*
X37905618Y7155481D01*
X37905618Y7155480D01*
X36889196Y7155480D01*
X36894382Y7244520D01*
X36863511Y7419599D01*
X36793096Y7582838D01*
X36776703Y7604857D01*
X36712034Y7691723D01*
X36686933Y7725439D01*
X36647220Y7758762D01*
X36550746Y7839714D01*
X36550744Y7839715D01*
X36391881Y7919500D01*
X36391877Y7919501D01*
X36218890Y7960500D01*
X36085708Y7960500D01*
X35969958Y7946971D01*
X35953422Y7945038D01*
X35953419Y7945037D01*
X35786367Y7884236D01*
X35718675Y7839714D01*
X35637832Y7786543D01*
X35637831Y7786543D01*
X35637831Y7786542D01*
X35515833Y7657233D01*
X35426944Y7503272D01*
X35375955Y7332959D01*
X35375954Y7332954D01*
X35365618Y7155481D01*
X35365618Y7155480D01*
X33003855Y7155480D01*
X33009716Y7200000D01*
X32988940Y7357806D01*
X32928030Y7504858D01*
X32928029Y7504859D01*
X32928029Y7504860D01*
X32831133Y7631135D01*
X32793012Y7660387D01*
X32751810Y7716816D01*
X32744500Y7758762D01*
X32744500Y9695480D01*
X35365618Y9695480D01*
X35382453Y9600000D01*
X35396489Y9520401D01*
X35407385Y9495142D01*
X35466904Y9357161D01*
X35530327Y9271970D01*
X35573067Y9214561D01*
X35709254Y9100286D01*
X35765636Y9071970D01*
X35868118Y9020501D01*
X35868119Y9020501D01*
X35868123Y9020499D01*
X36041110Y8979500D01*
X36041113Y8979500D01*
X36174285Y8979500D01*
X36174292Y8979500D01*
X36306577Y8994962D01*
X36473635Y9055766D01*
X36622168Y9153457D01*
X36744167Y9282769D01*
X36833057Y9436731D01*
X36884045Y9607042D01*
X36889196Y9695480D01*
X37905618Y9695480D01*
X37922453Y9600000D01*
X37936489Y9520401D01*
X37947385Y9495142D01*
X38006904Y9357161D01*
X38070327Y9271970D01*
X38113067Y9214561D01*
X38249254Y9100286D01*
X38305636Y9071970D01*
X38408118Y9020501D01*
X38408119Y9020501D01*
X38408123Y9020499D01*
X38581110Y8979500D01*
X38581113Y8979500D01*
X38714285Y8979500D01*
X38714292Y8979500D01*
X38846577Y8994962D01*
X39013635Y9055766D01*
X39162168Y9153457D01*
X39284167Y9282769D01*
X39373057Y9436731D01*
X39424045Y9607042D01*
X39434382Y9784520D01*
X39403511Y9959599D01*
X39333096Y10122838D01*
X39328920Y10128447D01*
X39226932Y10265440D01*
X39090746Y10379714D01*
X39090744Y10379715D01*
X38931881Y10459500D01*
X38931877Y10459501D01*
X38758890Y10500500D01*
X38625708Y10500500D01*
X38509958Y10486971D01*
X38493422Y10485038D01*
X38493419Y10485037D01*
X38326367Y10424236D01*
X38258675Y10379714D01*
X38177832Y10326543D01*
X38177831Y10326543D01*
X38177831Y10326542D01*
X38055833Y10197233D01*
X37966944Y10043272D01*
X37915955Y9872959D01*
X37915954Y9872954D01*
X37905618Y9695481D01*
X37905618Y9695480D01*
X36889196Y9695480D01*
X36894382Y9784520D01*
X36863511Y9959599D01*
X36793096Y10122838D01*
X36788920Y10128447D01*
X36686932Y10265440D01*
X36550746Y10379714D01*
X36550744Y10379715D01*
X36391881Y10459500D01*
X36391877Y10459501D01*
X36218890Y10500500D01*
X36085708Y10500500D01*
X35969958Y10486971D01*
X35953422Y10485038D01*
X35953419Y10485037D01*
X35786367Y10424236D01*
X35718675Y10379714D01*
X35637832Y10326543D01*
X35637831Y10326543D01*
X35637831Y10326542D01*
X35515833Y10197233D01*
X35426944Y10043272D01*
X35375955Y9872959D01*
X35375954Y9872954D01*
X35365618Y9695481D01*
X35365618Y9695480D01*
X32744500Y9695480D01*
X32744500Y11079548D01*
X32744972Y11090356D01*
X32748483Y11130488D01*
X32743602Y11148701D01*
X32738053Y11169414D01*
X32735714Y11179961D01*
X32728718Y11219643D01*
X32728716Y11219646D01*
X32727759Y11222277D01*
X32718219Y11245309D01*
X32717039Y11247839D01*
X32693933Y11280837D01*
X32688126Y11289950D01*
X32667973Y11324856D01*
X32666886Y11325768D01*
X32637114Y11350750D01*
X32629138Y11358058D01*
X32538701Y11448496D01*
X32505217Y11509820D01*
X32503444Y11552364D01*
X32504515Y11560499D01*
X32509716Y11600000D01*
X32488940Y11757806D01*
X32428030Y11904858D01*
X32331134Y12031134D01*
X32204858Y12128030D01*
X32204857Y12128031D01*
X32204855Y12128032D01*
X32057809Y12188939D01*
X32057807Y12188940D01*
X32057806Y12188940D01*
X31978903Y12199328D01*
X31900001Y12209716D01*
X31899999Y12209716D01*
X31742194Y12188940D01*
X31742190Y12188939D01*
X31595144Y12128032D01*
X31468866Y12031134D01*
X31371968Y11904856D01*
X31311061Y11757810D01*
X31311060Y11757806D01*
X31290284Y11600000D01*
X21044500Y11600000D01*
X21044500Y12883041D01*
X21748440Y12883041D01*
X21752407Y12851218D01*
X21753359Y12835879D01*
X21753359Y12835698D01*
X21756818Y12814966D01*
X21757556Y12809899D01*
X21764106Y12757360D01*
X21766364Y12749774D01*
X21768960Y12742212D01*
X21782040Y12718042D01*
X21796634Y12649713D01*
X21795923Y12642843D01*
X21790284Y12600005D01*
X21790284Y12600000D01*
X21811060Y12442195D01*
X21811061Y12442191D01*
X21871968Y12295145D01*
X21871969Y12295143D01*
X21871970Y12295142D01*
X21968866Y12168866D01*
X22095142Y12071970D01*
X22242194Y12011060D01*
X22381640Y11992702D01*
X22399999Y11990284D01*
X22400000Y11990284D01*
X22400001Y11990284D01*
X22416446Y11992450D01*
X22557806Y12011060D01*
X22704858Y12071970D01*
X22831134Y12168866D01*
X22882249Y12235480D01*
X35365618Y12235480D01*
X35396488Y12060404D01*
X35466904Y11897161D01*
X35570648Y11757810D01*
X35573067Y11754561D01*
X35709254Y11640286D01*
X35787990Y11600743D01*
X35868118Y11560501D01*
X35868119Y11560501D01*
X35868123Y11560499D01*
X36041110Y11519500D01*
X36041113Y11519500D01*
X36174285Y11519500D01*
X36174292Y11519500D01*
X36306577Y11534962D01*
X36473635Y11595766D01*
X36622168Y11693457D01*
X36744167Y11822769D01*
X36833057Y11976731D01*
X36884045Y12147042D01*
X36889196Y12235480D01*
X37905618Y12235480D01*
X37936488Y12060404D01*
X38006904Y11897161D01*
X38110648Y11757810D01*
X38113067Y11754561D01*
X38249254Y11640286D01*
X38327990Y11600743D01*
X38408118Y11560501D01*
X38408119Y11560501D01*
X38408123Y11560499D01*
X38581110Y11519500D01*
X38581113Y11519500D01*
X38714285Y11519500D01*
X38714292Y11519500D01*
X38846577Y11534962D01*
X39013635Y11595766D01*
X39162168Y11693457D01*
X39284167Y11822769D01*
X39373057Y11976731D01*
X39424045Y12147042D01*
X39434382Y12324520D01*
X39403511Y12499599D01*
X39333096Y12662838D01*
X39274002Y12742214D01*
X39226932Y12805440D01*
X39090746Y12919714D01*
X39090744Y12919715D01*
X38931881Y12999500D01*
X38931877Y12999501D01*
X38758890Y13040500D01*
X38625708Y13040500D01*
X38509958Y13026971D01*
X38493422Y13025038D01*
X38493419Y13025037D01*
X38326367Y12964236D01*
X38236084Y12904856D01*
X38177832Y12866543D01*
X38177831Y12866543D01*
X38177831Y12866542D01*
X38055833Y12737233D01*
X37966944Y12583272D01*
X37915955Y12412959D01*
X37915954Y12412954D01*
X37905618Y12235481D01*
X37905618Y12235480D01*
X36889196Y12235480D01*
X36894382Y12324520D01*
X36863511Y12499599D01*
X36793096Y12662838D01*
X36734002Y12742214D01*
X36686932Y12805440D01*
X36550746Y12919714D01*
X36550744Y12919715D01*
X36391881Y12999500D01*
X36391877Y12999501D01*
X36218890Y13040500D01*
X36085708Y13040500D01*
X35969958Y13026971D01*
X35953422Y13025038D01*
X35953419Y13025037D01*
X35786367Y12964236D01*
X35696084Y12904856D01*
X35637832Y12866543D01*
X35637831Y12866543D01*
X35637831Y12866542D01*
X35515833Y12737233D01*
X35426944Y12583272D01*
X35375955Y12412959D01*
X35375954Y12412954D01*
X35365618Y12235481D01*
X35365618Y12235480D01*
X22882249Y12235480D01*
X22928030Y12295142D01*
X22988940Y12442194D01*
X23009716Y12600000D01*
X22988940Y12757806D01*
X22928030Y12904858D01*
X22831134Y13031134D01*
X22704858Y13128030D01*
X22704857Y13128031D01*
X22704855Y13128032D01*
X22588907Y13176058D01*
X22534503Y13219898D01*
X22512438Y13286192D01*
X22512359Y13290619D01*
X22512359Y16958265D01*
X22532044Y17025304D01*
X22584848Y17071059D01*
X22652541Y17081204D01*
X22807859Y17060755D01*
X22963176Y17081204D01*
X23032208Y17070439D01*
X23084464Y17024059D01*
X23103359Y16958265D01*
X23103359Y14616995D01*
X23083674Y14549956D01*
X23073742Y14537631D01*
X23073807Y14537581D01*
X22971964Y14404860D01*
X22971963Y14404857D01*
X22911055Y14257810D01*
X22911054Y14257806D01*
X22890278Y14100001D01*
X22890278Y14100000D01*
X22911054Y13942195D01*
X22911055Y13942191D01*
X22971962Y13795145D01*
X22971963Y13795143D01*
X22971964Y13795142D01*
X23068860Y13668866D01*
X23195136Y13571970D01*
X23342188Y13511060D01*
X23481634Y13492702D01*
X23499993Y13490284D01*
X23499994Y13490284D01*
X23499995Y13490284D01*
X23516440Y13492450D01*
X23657800Y13511060D01*
X23804852Y13571970D01*
X23931128Y13668866D01*
X24028024Y13795142D01*
X24088934Y13942194D01*
X24109710Y14100000D01*
X24109070Y14104858D01*
X24104822Y14137127D01*
X24088934Y14257806D01*
X24060980Y14325293D01*
X24053512Y14394760D01*
X24084787Y14457239D01*
X24144876Y14492891D01*
X24159341Y14495680D01*
X24261069Y14509072D01*
X24408121Y14569982D01*
X24430477Y14587138D01*
X24495643Y14612333D01*
X24564088Y14598297D01*
X24581452Y14587138D01*
X24676629Y14514105D01*
X24676630Y14514105D01*
X24676631Y14514104D01*
X24823683Y14453194D01*
X24981489Y14432418D01*
X24981490Y14432419D01*
X24988191Y14431536D01*
X25052088Y14403269D01*
X25090559Y14344945D01*
X25091390Y14275080D01*
X25070382Y14233111D01*
X24971970Y14104859D01*
X24971969Y14104857D01*
X24911061Y13957810D01*
X24911060Y13957806D01*
X24890284Y13800000D01*
X24907548Y13668866D01*
X24911060Y13642195D01*
X24911061Y13642191D01*
X24971968Y13495145D01*
X24971969Y13495143D01*
X24971970Y13495142D01*
X25068866Y13368866D01*
X25195142Y13271970D01*
X25342194Y13211060D01*
X25481640Y13192702D01*
X25499999Y13190284D01*
X25500000Y13190284D01*
X25500001Y13190284D01*
X25516446Y13192450D01*
X25657806Y13211060D01*
X25804858Y13271970D01*
X25931134Y13368866D01*
X26028030Y13495142D01*
X26088940Y13642194D01*
X26109716Y13800000D01*
X26088940Y13957806D01*
X26034319Y14089675D01*
X26024880Y14137127D01*
X26024880Y14775480D01*
X35365618Y14775480D01*
X35387059Y14653878D01*
X35396489Y14600401D01*
X35414949Y14557607D01*
X35466904Y14437161D01*
X35535557Y14344945D01*
X35573067Y14294561D01*
X35709254Y14180286D01*
X35787990Y14140743D01*
X35868118Y14100501D01*
X35868119Y14100501D01*
X35868123Y14100499D01*
X36041110Y14059500D01*
X36041113Y14059500D01*
X36174285Y14059500D01*
X36174292Y14059500D01*
X36306577Y14074962D01*
X36473635Y14135766D01*
X36622168Y14233457D01*
X36744167Y14362769D01*
X36833057Y14516731D01*
X36884045Y14687042D01*
X36889196Y14775480D01*
X37905618Y14775480D01*
X37927059Y14653878D01*
X37936489Y14600401D01*
X37954949Y14557607D01*
X38006904Y14437161D01*
X38075557Y14344945D01*
X38113067Y14294561D01*
X38249254Y14180286D01*
X38327990Y14140743D01*
X38408118Y14100501D01*
X38408119Y14100501D01*
X38408123Y14100499D01*
X38581110Y14059500D01*
X38581113Y14059500D01*
X38714285Y14059500D01*
X38714292Y14059500D01*
X38846577Y14074962D01*
X39013635Y14135766D01*
X39162168Y14233457D01*
X39284167Y14362769D01*
X39373057Y14516731D01*
X39424045Y14687042D01*
X39434382Y14864520D01*
X39403511Y15039599D01*
X39333096Y15202838D01*
X39320584Y15219644D01*
X39246520Y15319129D01*
X39226933Y15345439D01*
X39214927Y15355513D01*
X39090746Y15459714D01*
X39090744Y15459715D01*
X38931881Y15539500D01*
X38913831Y15543778D01*
X38758890Y15580500D01*
X38625708Y15580500D01*
X38509958Y15566971D01*
X38493422Y15565038D01*
X38493419Y15565037D01*
X38326367Y15504236D01*
X38231540Y15441867D01*
X38177832Y15406543D01*
X38177831Y15406543D01*
X38177831Y15406542D01*
X38055833Y15277233D01*
X37966944Y15123272D01*
X37915955Y14952959D01*
X37915954Y14952954D01*
X37905618Y14775481D01*
X37905618Y14775480D01*
X36889196Y14775480D01*
X36894382Y14864520D01*
X36863511Y15039599D01*
X36793096Y15202838D01*
X36780584Y15219644D01*
X36706520Y15319129D01*
X36686933Y15345439D01*
X36674927Y15355513D01*
X36550746Y15459714D01*
X36550744Y15459715D01*
X36391881Y15539500D01*
X36373831Y15543778D01*
X36218890Y15580500D01*
X36085708Y15580500D01*
X35969958Y15566971D01*
X35953422Y15565038D01*
X35953419Y15565037D01*
X35786367Y15504236D01*
X35691540Y15441867D01*
X35637832Y15406543D01*
X35637831Y15406543D01*
X35637831Y15406542D01*
X35515833Y15277233D01*
X35426944Y15123272D01*
X35375955Y14952959D01*
X35375954Y14952954D01*
X35365618Y14775481D01*
X35365618Y14775480D01*
X26024880Y14775480D01*
X26024880Y14842892D01*
X26044565Y14909931D01*
X26097369Y14955686D01*
X26165065Y14965831D01*
X26229832Y14957304D01*
X26300379Y14948016D01*
X26300380Y14948016D01*
X26300381Y14948016D01*
X26316826Y14950182D01*
X26458186Y14968792D01*
X26605238Y15029702D01*
X26731514Y15126598D01*
X26828410Y15252874D01*
X26889320Y15399926D01*
X26910096Y15557732D01*
X26889320Y15715538D01*
X26828410Y15862590D01*
X26731514Y15988866D01*
X26731512Y15988868D01*
X26731511Y15988869D01*
X26703393Y16010445D01*
X26662191Y16066873D01*
X26654880Y16108820D01*
X26654880Y17247304D01*
X26657519Y17272750D01*
X26659475Y17282078D01*
X26655832Y17311306D01*
X26655573Y17315480D01*
X35365618Y17315480D01*
X35396488Y17140404D01*
X35466904Y16977161D01*
X35547527Y16868867D01*
X35573067Y16834561D01*
X35709254Y16720286D01*
X35768993Y16690284D01*
X35868118Y16640501D01*
X35868119Y16640501D01*
X35868123Y16640499D01*
X36041110Y16599500D01*
X36041113Y16599500D01*
X36174285Y16599500D01*
X36174292Y16599500D01*
X36306577Y16614962D01*
X36473635Y16675766D01*
X36622168Y16773457D01*
X36744167Y16902769D01*
X36833057Y17056731D01*
X36884045Y17227042D01*
X36889196Y17315480D01*
X37905618Y17315480D01*
X37936488Y17140404D01*
X38006904Y16977161D01*
X38087527Y16868867D01*
X38113067Y16834561D01*
X38249254Y16720286D01*
X38308993Y16690284D01*
X38408118Y16640501D01*
X38408119Y16640501D01*
X38408123Y16640499D01*
X38581110Y16599500D01*
X38581113Y16599500D01*
X38714285Y16599500D01*
X38714292Y16599500D01*
X38846577Y16614962D01*
X39013635Y16675766D01*
X39162168Y16773457D01*
X39284167Y16902769D01*
X39373057Y17056731D01*
X39424045Y17227042D01*
X39434382Y17404520D01*
X39403511Y17579599D01*
X39333096Y17742838D01*
X39320031Y17760387D01*
X39226932Y17885440D01*
X39090746Y17999714D01*
X39090744Y17999715D01*
X38931881Y18079500D01*
X38931877Y18079501D01*
X38758890Y18120500D01*
X38625708Y18120500D01*
X38509958Y18106971D01*
X38493422Y18105038D01*
X38493419Y18105037D01*
X38326367Y18044236D01*
X38227343Y17979107D01*
X38177832Y17946543D01*
X38177831Y17946543D01*
X38177831Y17946542D01*
X38055833Y17817233D01*
X37966944Y17663272D01*
X37915955Y17492959D01*
X37915954Y17492954D01*
X37905618Y17315481D01*
X37905618Y17315480D01*
X36889196Y17315480D01*
X36894382Y17404520D01*
X36884990Y17457785D01*
X36892734Y17527223D01*
X36936790Y17581452D01*
X36990917Y17602254D01*
X37057806Y17611060D01*
X37204858Y17671970D01*
X37331134Y17768866D01*
X37428030Y17895142D01*
X37488940Y18042194D01*
X37509716Y18200000D01*
X37488940Y18357806D01*
X37428030Y18504858D01*
X37428029Y18504859D01*
X37428029Y18504860D01*
X37340125Y18619417D01*
X37314930Y18684586D01*
X37314500Y18694904D01*
X37314500Y19855480D01*
X37905618Y19855480D01*
X37934796Y19689999D01*
X37936489Y19680401D01*
X37963646Y19617445D01*
X38006904Y19517161D01*
X38108154Y19381160D01*
X38113067Y19374561D01*
X38249254Y19260286D01*
X38320245Y19224633D01*
X38408118Y19180501D01*
X38408119Y19180501D01*
X38408123Y19180499D01*
X38581110Y19139500D01*
X38581113Y19139500D01*
X38714285Y19139500D01*
X38714292Y19139500D01*
X38846577Y19154962D01*
X39013635Y19215766D01*
X39162168Y19313457D01*
X39284167Y19442769D01*
X39373057Y19596731D01*
X39424045Y19767042D01*
X39434382Y19944520D01*
X39403511Y20119599D01*
X39333096Y20282838D01*
X39226933Y20425439D01*
X39154112Y20486543D01*
X39090746Y20539714D01*
X39090744Y20539715D01*
X38931881Y20619500D01*
X38931877Y20619501D01*
X38758890Y20660500D01*
X38625708Y20660500D01*
X38509958Y20646971D01*
X38493422Y20645038D01*
X38493419Y20645037D01*
X38326367Y20584236D01*
X38258675Y20539714D01*
X38177832Y20486543D01*
X38177831Y20486543D01*
X38177831Y20486542D01*
X38055833Y20357233D01*
X37966944Y20203272D01*
X37915955Y20032959D01*
X37915954Y20032954D01*
X37905618Y19855481D01*
X37905618Y19855480D01*
X37314500Y19855480D01*
X37314500Y20969794D01*
X37334185Y21036833D01*
X37386989Y21082588D01*
X37456147Y21092532D01*
X37485952Y21084355D01*
X37542192Y21061060D01*
X37681638Y21042702D01*
X37699997Y21040284D01*
X37699998Y21040284D01*
X37699999Y21040284D01*
X37716444Y21042450D01*
X37857804Y21061060D01*
X38004856Y21121970D01*
X38131132Y21218866D01*
X38228028Y21345142D01*
X38288938Y21492194D01*
X38303769Y21604847D01*
X38332036Y21668742D01*
X38390360Y21707213D01*
X38455303Y21709317D01*
X38527500Y21692206D01*
X38581109Y21679500D01*
X38581110Y21679500D01*
X38714285Y21679500D01*
X38714292Y21679500D01*
X38846577Y21694962D01*
X39013635Y21755766D01*
X39162168Y21853457D01*
X39284167Y21982769D01*
X39373057Y22136731D01*
X39424045Y22307042D01*
X39434382Y22484520D01*
X39403511Y22659599D01*
X39333096Y22822838D01*
X39226933Y22965439D01*
X39154112Y23026543D01*
X39090746Y23079714D01*
X39090744Y23079715D01*
X38931881Y23159500D01*
X38931877Y23159501D01*
X38758890Y23200500D01*
X38625708Y23200500D01*
X38509958Y23186971D01*
X38493422Y23185038D01*
X38493419Y23185037D01*
X38326367Y23124236D01*
X38258675Y23079714D01*
X38177832Y23026543D01*
X38177831Y23026543D01*
X38177831Y23026542D01*
X38055833Y22897233D01*
X37966943Y22743269D01*
X37964083Y22736638D01*
X37962632Y22737264D01*
X37929203Y22685850D01*
X37865494Y22657163D01*
X37796390Y22667474D01*
X37743830Y22713509D01*
X37724500Y22779993D01*
X37724500Y23365160D01*
X37744185Y23432199D01*
X37796989Y23477954D01*
X37864685Y23488099D01*
X37941742Y23477954D01*
X37999999Y23470284D01*
X38000000Y23470284D01*
X38000001Y23470284D01*
X38016446Y23472450D01*
X38157806Y23491060D01*
X38304858Y23551970D01*
X38431134Y23648866D01*
X38528030Y23775142D01*
X38588940Y23922194D01*
X38609716Y24080000D01*
X38609636Y24080608D01*
X38609716Y24081121D01*
X38609716Y24088128D01*
X38610809Y24088128D01*
X38620401Y24149643D01*
X38666780Y24201899D01*
X38718173Y24219954D01*
X38846577Y24234962D01*
X39013635Y24295766D01*
X39162168Y24393457D01*
X39284167Y24522769D01*
X39373057Y24676731D01*
X39424045Y24847042D01*
X39434382Y25024520D01*
X39403511Y25199599D01*
X39333096Y25362838D01*
X39312805Y25390093D01*
X39259546Y25461632D01*
X39226933Y25505439D01*
X39213684Y25516556D01*
X39090746Y25619714D01*
X39090744Y25619715D01*
X38931881Y25699500D01*
X38931877Y25699501D01*
X38758890Y25740500D01*
X38625708Y25740500D01*
X38513169Y25727346D01*
X38493422Y25725038D01*
X38493419Y25725037D01*
X38326366Y25664235D01*
X38326363Y25664234D01*
X38296638Y25644683D01*
X38229810Y25624291D01*
X38162566Y25643266D01*
X38116256Y25695584D01*
X38104500Y25748284D01*
X38104500Y26751950D01*
X38124185Y26818989D01*
X38176989Y26864744D01*
X38246147Y26874688D01*
X38284149Y26862761D01*
X38408123Y26800499D01*
X38581110Y26759500D01*
X38581113Y26759500D01*
X38714285Y26759500D01*
X38714292Y26759500D01*
X38846577Y26774962D01*
X39013635Y26835766D01*
X39162168Y26933457D01*
X39284167Y27062769D01*
X39373057Y27216731D01*
X39424045Y27387042D01*
X39434382Y27564520D01*
X39403511Y27739599D01*
X39333096Y27902838D01*
X39226933Y28045439D01*
X39195990Y28071403D01*
X39090746Y28159714D01*
X39090744Y28159715D01*
X38931881Y28239500D01*
X38931877Y28239501D01*
X38758890Y28280500D01*
X38691355Y28280500D01*
X38624316Y28300185D01*
X38578561Y28352989D01*
X38568617Y28422147D01*
X38574073Y28444760D01*
X38574498Y28445999D01*
X38574498Y28446004D01*
X38574500Y28446007D01*
X38574500Y28446011D01*
X38575724Y28453352D01*
X38576642Y28460708D01*
X38574606Y28509925D01*
X38574500Y28515051D01*
X38574500Y28977446D01*
X38577139Y29002892D01*
X38579095Y29012220D01*
X38575452Y29041445D01*
X38574580Y29055480D01*
X38574501Y29056440D01*
X38574500Y29056446D01*
X38574500Y29056450D01*
X38571286Y29075709D01*
X38570555Y29080726D01*
X38564460Y29129624D01*
X38564457Y29129630D01*
X38561721Y29138823D01*
X38561696Y29138928D01*
X38561589Y29139264D01*
X38561512Y29139523D01*
X38561555Y29139536D01*
X38558286Y29153623D01*
X38558269Y29153724D01*
X38561997Y29154352D01*
X38559703Y29205018D01*
X38594781Y29265444D01*
X38656958Y29297314D01*
X38680139Y29299500D01*
X38714285Y29299500D01*
X38714292Y29299500D01*
X38846577Y29314962D01*
X39013635Y29375766D01*
X39162168Y29473457D01*
X39284167Y29602769D01*
X39373057Y29756731D01*
X39424045Y29927042D01*
X39434382Y30104520D01*
X39403511Y30279599D01*
X39333096Y30442838D01*
X39331274Y30445285D01*
X39230076Y30581217D01*
X39226933Y30585439D01*
X39175486Y30628608D01*
X39090746Y30699714D01*
X39090744Y30699715D01*
X38931881Y30779500D01*
X38931877Y30779501D01*
X38758890Y30820500D01*
X38625708Y30820500D01*
X38509958Y30806971D01*
X38493422Y30805038D01*
X38493419Y30805037D01*
X38326366Y30744235D01*
X38326363Y30744234D01*
X38296638Y30724683D01*
X38229810Y30704291D01*
X38162566Y30723266D01*
X38116256Y30775584D01*
X38104500Y30828284D01*
X38104500Y31400000D01*
X39590284Y31400000D01*
X39611060Y31242195D01*
X39611061Y31242191D01*
X39671968Y31095145D01*
X39671969Y31095143D01*
X39671970Y31095142D01*
X39768866Y30968866D01*
X39895142Y30871970D01*
X39895143Y30871970D01*
X39895144Y30871969D01*
X39968977Y30841387D01*
X40023381Y30797547D01*
X40045446Y30731253D01*
X40045525Y30726826D01*
X40045525Y19451108D01*
X40025840Y19384069D01*
X39997013Y19352734D01*
X39968868Y19331138D01*
X39968867Y19331137D01*
X39871970Y19204860D01*
X39871969Y19204857D01*
X39811061Y19057810D01*
X39811060Y19057806D01*
X39795078Y18936410D01*
X39790284Y18900000D01*
X39810181Y18748867D01*
X39811060Y18742195D01*
X39811061Y18742191D01*
X39871968Y18595145D01*
X39871969Y18595143D01*
X39871970Y18595142D01*
X39968866Y18468866D01*
X40095142Y18371970D01*
X40095143Y18371970D01*
X40095144Y18371969D01*
X40099881Y18370007D01*
X40242194Y18311060D01*
X40381640Y18292702D01*
X40399999Y18290284D01*
X40400000Y18290284D01*
X40400001Y18290284D01*
X40416446Y18292450D01*
X40557806Y18311060D01*
X40704858Y18371970D01*
X40831134Y18468866D01*
X40928030Y18595142D01*
X40988940Y18742194D01*
X41009716Y18900000D01*
X40988940Y19057806D01*
X40928030Y19204858D01*
X40928029Y19204859D01*
X40928029Y19204860D01*
X40876221Y19272376D01*
X40831134Y19331134D01*
X40831132Y19331135D01*
X40831132Y19331136D01*
X40783038Y19368041D01*
X40741835Y19424469D01*
X40734525Y19466416D01*
X40734525Y31086159D01*
X40743964Y31133611D01*
X40758539Y31168799D01*
X40788940Y31242194D01*
X40809716Y31400000D01*
X40788940Y31557806D01*
X40745710Y31662173D01*
X40728031Y31704856D01*
X40728030Y31704857D01*
X40728030Y31704858D01*
X40631134Y31831134D01*
X40504858Y31928030D01*
X40504857Y31928031D01*
X40504855Y31928032D01*
X40357809Y31988939D01*
X40357807Y31988940D01*
X40357806Y31988940D01*
X40251825Y32002893D01*
X40200001Y32009716D01*
X40199999Y32009716D01*
X40042194Y31988940D01*
X40042190Y31988939D01*
X39895144Y31928032D01*
X39768866Y31831134D01*
X39671968Y31704856D01*
X39611061Y31557810D01*
X39611060Y31557806D01*
X39590284Y31400001D01*
X39590284Y31400000D01*
X38104500Y31400000D01*
X38104500Y31831950D01*
X38124185Y31898989D01*
X38176989Y31944744D01*
X38246147Y31954688D01*
X38284149Y31942761D01*
X38408123Y31880499D01*
X38581110Y31839500D01*
X38581113Y31839500D01*
X38714285Y31839500D01*
X38714292Y31839500D01*
X38846577Y31854962D01*
X39013635Y31915766D01*
X39162168Y32013457D01*
X39284167Y32142769D01*
X39373057Y32296731D01*
X39424045Y32467042D01*
X39434382Y32644520D01*
X39403511Y32819599D01*
X39333096Y32982838D01*
X39314643Y33007624D01*
X39226932Y33125440D01*
X39090746Y33239714D01*
X39090744Y33239715D01*
X38931881Y33319500D01*
X38931877Y33319501D01*
X38758890Y33360500D01*
X38625708Y33360500D01*
X38509958Y33346971D01*
X38493422Y33345038D01*
X38493418Y33345037D01*
X38362212Y33297282D01*
X38292483Y33292851D01*
X38231427Y33326822D01*
X38198430Y33388409D01*
X38196866Y33397600D01*
X38188940Y33457806D01*
X38128030Y33604858D01*
X38031134Y33731134D01*
X37904858Y33828030D01*
X37904857Y33828031D01*
X37904855Y33828032D01*
X37757809Y33888939D01*
X37757807Y33888940D01*
X37757806Y33888940D01*
X37663537Y33901351D01*
X37600001Y33909716D01*
X37599998Y33909716D01*
X37454685Y33890585D01*
X37385650Y33901351D01*
X37333394Y33947730D01*
X37314500Y34013524D01*
X37314500Y35095480D01*
X37905618Y35095480D01*
X37931188Y34950460D01*
X37936489Y34920401D01*
X37965033Y34854228D01*
X38006904Y34757161D01*
X38081226Y34657331D01*
X38113067Y34614561D01*
X38249254Y34500286D01*
X38327990Y34460743D01*
X38408118Y34420501D01*
X38408119Y34420501D01*
X38408123Y34420499D01*
X38581110Y34379500D01*
X38581113Y34379500D01*
X38714285Y34379500D01*
X38714292Y34379500D01*
X38846577Y34394962D01*
X39013635Y34455766D01*
X39162168Y34553457D01*
X39284167Y34682769D01*
X39373057Y34836731D01*
X39424045Y35007042D01*
X39434382Y35184520D01*
X39403511Y35359599D01*
X39333096Y35522838D01*
X39329229Y35528032D01*
X39226932Y35665440D01*
X39090746Y35779714D01*
X39090744Y35779715D01*
X38931881Y35859500D01*
X38931877Y35859501D01*
X38758890Y35900500D01*
X38625708Y35900500D01*
X38509958Y35886971D01*
X38493422Y35885038D01*
X38493419Y35885037D01*
X38326367Y35824236D01*
X38258675Y35779714D01*
X38177832Y35726543D01*
X38177831Y35726543D01*
X38177831Y35726542D01*
X38055833Y35597233D01*
X37966944Y35443272D01*
X37915955Y35272959D01*
X37915954Y35272954D01*
X37905618Y35095481D01*
X37905618Y35095480D01*
X37314500Y35095480D01*
X37314500Y35671238D01*
X37334185Y35738277D01*
X37363011Y35769612D01*
X37401132Y35798862D01*
X37498028Y35925138D01*
X37558938Y36072190D01*
X37579714Y36229996D01*
X37578108Y36242191D01*
X37577296Y36248356D01*
X37558938Y36387802D01*
X37498028Y36534854D01*
X37401132Y36661130D01*
X37274856Y36758026D01*
X37274855Y36758027D01*
X37274853Y36758028D01*
X37127807Y36818935D01*
X37127805Y36818936D01*
X37127804Y36818936D01*
X37035153Y36831134D01*
X36969999Y36839712D01*
X36969997Y36839712D01*
X36812192Y36818936D01*
X36812188Y36818935D01*
X36665142Y36758028D01*
X36538864Y36661130D01*
X36441966Y36534852D01*
X36381059Y36387806D01*
X36381058Y36387802D01*
X36360282Y36229997D01*
X36360282Y36229996D01*
X36381058Y36072191D01*
X36381059Y36072187D01*
X36384773Y36063220D01*
X36392239Y35993751D01*
X36360962Y35931273D01*
X36300871Y35895623D01*
X36241615Y35895115D01*
X36218890Y35900500D01*
X36085708Y35900500D01*
X35969958Y35886971D01*
X35953422Y35885038D01*
X35953419Y35885037D01*
X35786367Y35824236D01*
X35718675Y35779714D01*
X35637832Y35726543D01*
X35637831Y35726543D01*
X35637831Y35726542D01*
X35515833Y35597233D01*
X35426944Y35443272D01*
X35375955Y35272959D01*
X35375954Y35272954D01*
X35365618Y35095481D01*
X35365618Y35095480D01*
X35391188Y34950460D01*
X35396489Y34920401D01*
X35425033Y34854228D01*
X35466904Y34757161D01*
X35541226Y34657331D01*
X35573067Y34614561D01*
X35709254Y34500286D01*
X35787990Y34460743D01*
X35868118Y34420501D01*
X35868119Y34420501D01*
X35868123Y34420499D01*
X36041110Y34379500D01*
X36041113Y34379500D01*
X36174285Y34379500D01*
X36174292Y34379500D01*
X36306577Y34394962D01*
X36459090Y34450472D01*
X36528819Y34454903D01*
X36589874Y34420933D01*
X36622872Y34359346D01*
X36625500Y34333950D01*
X36625500Y33403206D01*
X36605815Y33336167D01*
X36553011Y33290412D01*
X36483853Y33280468D01*
X36445849Y33292395D01*
X36444941Y33292851D01*
X36391877Y33319501D01*
X36218890Y33360500D01*
X36085708Y33360500D01*
X35969958Y33346971D01*
X35953422Y33345038D01*
X35953419Y33345037D01*
X35786367Y33284236D01*
X35718675Y33239714D01*
X35637832Y33186543D01*
X35637831Y33186543D01*
X35637831Y33186542D01*
X35515833Y33057233D01*
X35426944Y32903272D01*
X35426943Y32903270D01*
X35426943Y32903269D01*
X35418164Y32873944D01*
X35375955Y32732959D01*
X35375954Y32732954D01*
X35365618Y32555481D01*
X35365618Y32555480D01*
X35382259Y32461100D01*
X35396489Y32380401D01*
X35404343Y32362194D01*
X35466904Y32217161D01*
X35562417Y32088866D01*
X35573067Y32074561D01*
X35709254Y31960286D01*
X35762209Y31933691D01*
X35868118Y31880501D01*
X35868119Y31880501D01*
X35868123Y31880499D01*
X36041110Y31839500D01*
X36041113Y31839500D01*
X36174285Y31839500D01*
X36174292Y31839500D01*
X36306577Y31854962D01*
X36459090Y31910472D01*
X36528819Y31914903D01*
X36589874Y31880933D01*
X36622872Y31819346D01*
X36625500Y31793950D01*
X36625500Y30863206D01*
X36605815Y30796167D01*
X36553011Y30750412D01*
X36483853Y30740468D01*
X36445849Y30752395D01*
X36391877Y30779501D01*
X36368789Y30784973D01*
X36218890Y30820500D01*
X36085708Y30820500D01*
X35969958Y30806971D01*
X35953422Y30805038D01*
X35953419Y30805037D01*
X35786367Y30744236D01*
X35718675Y30699714D01*
X35637832Y30646543D01*
X35637831Y30646543D01*
X35637831Y30646542D01*
X35515833Y30517233D01*
X35426944Y30363272D01*
X35426943Y30363270D01*
X35426943Y30363269D01*
X35418618Y30335461D01*
X35375955Y30192959D01*
X35375954Y30192954D01*
X35365618Y30015481D01*
X35365618Y30015480D01*
X35393083Y29859714D01*
X35396489Y29840401D01*
X35414574Y29798476D01*
X35466904Y29677161D01*
X35525713Y29598168D01*
X35573067Y29534561D01*
X35709254Y29420286D01*
X35767581Y29390993D01*
X35868118Y29340501D01*
X35868119Y29340501D01*
X35868123Y29340499D01*
X36041110Y29299500D01*
X36041113Y29299500D01*
X36174285Y29299500D01*
X36174292Y29299500D01*
X36306577Y29314962D01*
X36459090Y29370472D01*
X36528819Y29374903D01*
X36589874Y29340933D01*
X36622872Y29279346D01*
X36625500Y29253950D01*
X36625500Y28323206D01*
X36605815Y28256167D01*
X36553011Y28210412D01*
X36483853Y28200468D01*
X36445849Y28212395D01*
X36436122Y28217280D01*
X36391877Y28239501D01*
X36218890Y28280500D01*
X36085708Y28280500D01*
X35969958Y28266971D01*
X35953422Y28265038D01*
X35953419Y28265037D01*
X35786367Y28204236D01*
X35718675Y28159714D01*
X35637832Y28106543D01*
X35637831Y28106543D01*
X35637831Y28106542D01*
X35515833Y27977233D01*
X35426944Y27823272D01*
X35375955Y27652959D01*
X35375954Y27652954D01*
X35365618Y27475481D01*
X35365618Y27475480D01*
X35395703Y27304855D01*
X35396489Y27300401D01*
X35415894Y27255416D01*
X35466904Y27137161D01*
X35527747Y27055436D01*
X35573067Y26994561D01*
X35709254Y26880286D01*
X35760401Y26854599D01*
X35868118Y26800501D01*
X35868119Y26800501D01*
X35868123Y26800499D01*
X36041110Y26759500D01*
X36041113Y26759500D01*
X36174285Y26759500D01*
X36174292Y26759500D01*
X36306577Y26774962D01*
X36459090Y26830472D01*
X36528819Y26834903D01*
X36589874Y26800933D01*
X36622872Y26739346D01*
X36625500Y26713950D01*
X36625500Y25783206D01*
X36605815Y25716167D01*
X36553011Y25670412D01*
X36483853Y25660468D01*
X36445849Y25672395D01*
X36436122Y25677280D01*
X36391877Y25699501D01*
X36218890Y25740500D01*
X36085708Y25740500D01*
X35973169Y25727346D01*
X35953422Y25725038D01*
X35953419Y25725037D01*
X35786367Y25664236D01*
X35718675Y25619714D01*
X35637832Y25566543D01*
X35637831Y25566543D01*
X35637831Y25566542D01*
X35515833Y25437233D01*
X35426944Y25283272D01*
X35375955Y25112959D01*
X35375954Y25112954D01*
X35365618Y24935481D01*
X35365618Y24935480D01*
X35396488Y24760404D01*
X35466904Y24597161D01*
X35573067Y24454561D01*
X35709254Y24340286D01*
X35760401Y24314599D01*
X35868118Y24260501D01*
X35868119Y24260501D01*
X35868123Y24260499D01*
X36041110Y24219500D01*
X36041113Y24219500D01*
X36174285Y24219500D01*
X36174292Y24219500D01*
X36306577Y24234962D01*
X36459090Y24290472D01*
X36528819Y24294903D01*
X36589874Y24260933D01*
X36622872Y24199346D01*
X36625500Y24173950D01*
X36625500Y23243206D01*
X36605815Y23176167D01*
X36553011Y23130412D01*
X36483853Y23120468D01*
X36445849Y23132395D01*
X36436122Y23137280D01*
X36391877Y23159501D01*
X36218890Y23200500D01*
X36085708Y23200500D01*
X35969958Y23186971D01*
X35953422Y23185038D01*
X35953419Y23185037D01*
X35786367Y23124236D01*
X35718675Y23079714D01*
X35637832Y23026543D01*
X35637831Y23026543D01*
X35637831Y23026542D01*
X35515833Y22897233D01*
X35426944Y22743272D01*
X35375955Y22572959D01*
X35375954Y22572954D01*
X35365618Y22395481D01*
X35365618Y22395480D01*
X35395620Y22225326D01*
X35396489Y22220401D01*
X35403869Y22203292D01*
X35466904Y22057161D01*
X35537022Y21962977D01*
X35573067Y21914561D01*
X35709254Y21800286D01*
X35730715Y21789508D01*
X35868118Y21720501D01*
X35868119Y21720501D01*
X35868123Y21720499D01*
X36041110Y21679500D01*
X36041113Y21679500D01*
X36174285Y21679500D01*
X36174292Y21679500D01*
X36306577Y21694962D01*
X36459090Y21750472D01*
X36528819Y21754903D01*
X36589874Y21720933D01*
X36622872Y21659346D01*
X36625500Y21633950D01*
X36625500Y20703206D01*
X36605815Y20636167D01*
X36553011Y20590412D01*
X36483853Y20580468D01*
X36445849Y20592395D01*
X36391877Y20619501D01*
X36218890Y20660500D01*
X36085708Y20660500D01*
X35969958Y20646971D01*
X35953422Y20645038D01*
X35953419Y20645037D01*
X35786367Y20584236D01*
X35718675Y20539714D01*
X35637832Y20486543D01*
X35637831Y20486543D01*
X35637831Y20486542D01*
X35515833Y20357233D01*
X35426944Y20203272D01*
X35375955Y20032959D01*
X35375954Y20032954D01*
X35365618Y19855481D01*
X35365618Y19855480D01*
X35394796Y19689999D01*
X35396489Y19680401D01*
X35423646Y19617445D01*
X35466904Y19517161D01*
X35568154Y19381160D01*
X35573067Y19374561D01*
X35709254Y19260286D01*
X35780245Y19224633D01*
X35868118Y19180501D01*
X35868119Y19180501D01*
X35868123Y19180499D01*
X36041110Y19139500D01*
X36041113Y19139500D01*
X36174285Y19139500D01*
X36174292Y19139500D01*
X36306577Y19154962D01*
X36459090Y19210472D01*
X36528819Y19214903D01*
X36589874Y19180933D01*
X36622872Y19119346D01*
X36625500Y19093950D01*
X36625500Y18812475D01*
X36605815Y18745436D01*
X36576987Y18714100D01*
X36468868Y18631137D01*
X36371968Y18504856D01*
X36311061Y18357810D01*
X36311060Y18357806D01*
X36295279Y18237936D01*
X36294012Y18228314D01*
X36265745Y18164418D01*
X36207421Y18125947D01*
X36171073Y18120500D01*
X36085708Y18120500D01*
X35969958Y18106971D01*
X35953422Y18105038D01*
X35953419Y18105037D01*
X35786367Y18044236D01*
X35687343Y17979107D01*
X35637832Y17946543D01*
X35637831Y17946543D01*
X35637831Y17946542D01*
X35515833Y17817233D01*
X35426944Y17663272D01*
X35375955Y17492959D01*
X35375954Y17492954D01*
X35365618Y17315481D01*
X35365618Y17315480D01*
X26655573Y17315480D01*
X26654964Y17325290D01*
X26654880Y17326300D01*
X26654880Y17326308D01*
X26651672Y17345532D01*
X26650933Y17350605D01*
X26643570Y17409678D01*
X26646856Y17410088D01*
X26646660Y17462356D01*
X26684213Y17521276D01*
X26718321Y17542433D01*
X26721390Y17543704D01*
X26847666Y17640600D01*
X26944562Y17766876D01*
X27005472Y17913928D01*
X27026248Y18071734D01*
X27025225Y18079501D01*
X27021863Y18105038D01*
X27005472Y18229540D01*
X26944562Y18376592D01*
X26918112Y18411062D01*
X26890124Y18447538D01*
X26864930Y18512708D01*
X26864500Y18523024D01*
X26864500Y19111800D01*
X26884185Y19178839D01*
X26900815Y19199477D01*
X27071225Y19369887D01*
X27132547Y19403371D01*
X27202239Y19398387D01*
X27258172Y19356515D01*
X27281844Y19298391D01*
X27285629Y19269643D01*
X27293419Y19210472D01*
X27293516Y19209740D01*
X27293517Y19209735D01*
X27354424Y19062689D01*
X27354425Y19062687D01*
X27354426Y19062686D01*
X27451322Y18936410D01*
X27577598Y18839514D01*
X27724650Y18778604D01*
X27864096Y18760246D01*
X27882455Y18757828D01*
X27882456Y18757828D01*
X27882457Y18757828D01*
X27898902Y18759994D01*
X28040262Y18778604D01*
X28187314Y18839514D01*
X28313590Y18936410D01*
X28410486Y19062686D01*
X28471396Y19209738D01*
X28492172Y19367544D01*
X28477741Y19477151D01*
X28483399Y19533598D01*
X28494500Y19565932D01*
X28494500Y19565936D01*
X28495724Y19573277D01*
X28496642Y19580633D01*
X28494606Y19629850D01*
X28494500Y19634976D01*
X28494500Y28063227D01*
X28514185Y28130266D01*
X28566989Y28176021D01*
X28636147Y28185965D01*
X28665950Y28177789D01*
X28682194Y28171060D01*
X28840000Y28150284D01*
X28899081Y28158063D01*
X28968113Y28147298D01*
X29020370Y28100919D01*
X29029826Y28082576D01*
X29079710Y27962143D01*
X29079711Y27962141D01*
X29079712Y27962140D01*
X29176608Y27835864D01*
X29300999Y27740415D01*
X29342200Y27683988D01*
X29346355Y27614242D01*
X29313192Y27554359D01*
X29271935Y27513102D01*
X29252085Y27496981D01*
X29242777Y27490900D01*
X29223073Y27465584D01*
X29212927Y27454092D01*
X29212783Y27453949D01*
X29212775Y27453939D01*
X29200544Y27436811D01*
X29197489Y27432715D01*
X29164983Y27390949D01*
X29161207Y27383972D01*
X29157703Y27376806D01*
X29142605Y27326090D01*
X29141041Y27321209D01*
X29123857Y27271157D01*
X29122553Y27263342D01*
X29121565Y27255416D01*
X29123752Y27202568D01*
X29123858Y27197443D01*
X29123858Y20454208D01*
X29104173Y20387169D01*
X29075347Y20355834D01*
X29072224Y20353439D01*
X28975328Y20227163D01*
X28975327Y20227160D01*
X28914419Y20080113D01*
X28914418Y20080109D01*
X28895847Y19939048D01*
X28893642Y19922303D01*
X28912213Y19781242D01*
X28914418Y19764498D01*
X28914419Y19764494D01*
X28975326Y19617448D01*
X28975327Y19617446D01*
X28975328Y19617445D01*
X29072224Y19491169D01*
X29198500Y19394273D01*
X29198501Y19394273D01*
X29198502Y19394272D01*
X29246090Y19374561D01*
X29345552Y19333363D01*
X29484998Y19315005D01*
X29503357Y19312587D01*
X29503358Y19312587D01*
X29503359Y19312587D01*
X29519804Y19314753D01*
X29661164Y19333363D01*
X29808216Y19394273D01*
X29934492Y19491169D01*
X30031388Y19617445D01*
X30092298Y19764497D01*
X30113074Y19922303D01*
X30092298Y20080109D01*
X30031388Y20227161D01*
X30031387Y20227162D01*
X30031387Y20227163D01*
X29934491Y20353439D01*
X29931369Y20355834D01*
X29929402Y20358528D01*
X29928742Y20359188D01*
X29928844Y20359291D01*
X29890168Y20412263D01*
X29882858Y20454208D01*
X29882858Y26999274D01*
X29902543Y27066313D01*
X29919172Y27086951D01*
X30845313Y28013092D01*
X30906636Y28046576D01*
X30976328Y28041592D01*
X31032261Y27999720D01*
X31056678Y27934256D01*
X31056994Y27925410D01*
X31056994Y27559906D01*
X31037309Y27492867D01*
X31008481Y27461531D01*
X30968867Y27431134D01*
X30871970Y27304858D01*
X30871969Y27304855D01*
X30811061Y27157808D01*
X30811060Y27157804D01*
X30796318Y27045826D01*
X30790284Y26999998D01*
X30799044Y26933457D01*
X30811060Y26842193D01*
X30811061Y26842189D01*
X30871968Y26695143D01*
X30871969Y26695141D01*
X30871970Y26695140D01*
X30944974Y26600000D01*
X30968868Y26568862D01*
X31076848Y26486005D01*
X31118050Y26429577D01*
X31122205Y26359831D01*
X31099739Y26312147D01*
X31087819Y26296612D01*
X31087816Y26296607D01*
X31026908Y26149560D01*
X31026907Y26149556D01*
X31006131Y25991751D01*
X31006131Y25991750D01*
X31026907Y25833945D01*
X31026908Y25833941D01*
X31087815Y25686895D01*
X31087816Y25686893D01*
X31087817Y25686892D01*
X31184713Y25560616D01*
X31310989Y25463720D01*
X31458041Y25402810D01*
X31597487Y25384452D01*
X31615846Y25382034D01*
X31615847Y25382034D01*
X31615848Y25382034D01*
X31632293Y25384200D01*
X31773653Y25402810D01*
X31920705Y25463720D01*
X32046981Y25560616D01*
X32143877Y25686892D01*
X32143877Y25686894D01*
X32147222Y25691252D01*
X32203650Y25732455D01*
X32273396Y25736610D01*
X32334316Y25702398D01*
X32367069Y25640680D01*
X32369598Y25615766D01*
X32369598Y25322303D01*
X32349913Y25255264D01*
X32297109Y25209509D01*
X32261788Y25199364D01*
X32242192Y25196784D01*
X32095144Y25135876D01*
X31968866Y25038978D01*
X31871968Y24912700D01*
X31811061Y24765654D01*
X31811060Y24765650D01*
X31790284Y24607845D01*
X31790284Y24607844D01*
X31811060Y24450039D01*
X31811061Y24450035D01*
X31871968Y24302989D01*
X31871969Y24302987D01*
X31871970Y24302986D01*
X31924167Y24234962D01*
X31968867Y24176709D01*
X32045779Y24117692D01*
X32086982Y24061264D01*
X32091137Y23991518D01*
X32056925Y23930598D01*
X32017746Y23904755D01*
X31948008Y23875869D01*
X31821731Y23778972D01*
X31724833Y23652694D01*
X31663926Y23505648D01*
X31663925Y23505644D01*
X31643149Y23347839D01*
X31643149Y23347838D01*
X31663925Y23190033D01*
X31663926Y23190029D01*
X31724833Y23042983D01*
X31724834Y23042981D01*
X31724835Y23042980D01*
X31784334Y22965440D01*
X31821733Y22916702D01*
X31854658Y22891437D01*
X31895861Y22835009D01*
X31900015Y22765263D01*
X31865802Y22704343D01*
X31804084Y22671591D01*
X31795357Y22670123D01*
X31717877Y22659923D01*
X31691551Y22656456D01*
X31691550Y22656456D01*
X31691547Y22656455D01*
X31544501Y22595548D01*
X31418223Y22498650D01*
X31321325Y22372372D01*
X31260418Y22225326D01*
X31260417Y22225322D01*
X31242639Y22090284D01*
X31239641Y22067516D01*
X31254055Y21958030D01*
X31260417Y21909711D01*
X31260418Y21909707D01*
X31321325Y21762661D01*
X31321326Y21762659D01*
X31321327Y21762658D01*
X31418223Y21636382D01*
X31544499Y21539486D01*
X31691551Y21478576D01*
X31830997Y21460218D01*
X31849356Y21457800D01*
X31849357Y21457800D01*
X31849358Y21457800D01*
X31865803Y21459966D01*
X32007163Y21478576D01*
X32154215Y21539486D01*
X32280491Y21636382D01*
X32377387Y21762658D01*
X32438297Y21909710D01*
X32459073Y22067516D01*
X32456376Y22088003D01*
X32452801Y22115156D01*
X32463566Y22184192D01*
X32488056Y22219020D01*
X33433820Y23164783D01*
X33495142Y23198267D01*
X33564834Y23193283D01*
X33620767Y23151411D01*
X33645184Y23085947D01*
X33645500Y23077101D01*
X33645500Y19551088D01*
X33625815Y19484049D01*
X33596987Y19452713D01*
X33568868Y19431137D01*
X33471968Y19304856D01*
X33411061Y19157810D01*
X33411060Y19157806D01*
X33390284Y19000001D01*
X33390284Y19000000D01*
X33411060Y18842195D01*
X33411061Y18842191D01*
X33471968Y18695145D01*
X33471969Y18695143D01*
X33471970Y18695142D01*
X33568866Y18568866D01*
X33695142Y18471970D01*
X33695143Y18471970D01*
X33695144Y18471969D01*
X33744159Y18451667D01*
X33842194Y18411060D01*
X33981640Y18392702D01*
X33999999Y18390284D01*
X34000000Y18390284D01*
X34000001Y18390284D01*
X34016446Y18392450D01*
X34157806Y18411060D01*
X34304858Y18471970D01*
X34431134Y18568866D01*
X34528030Y18695142D01*
X34588940Y18842194D01*
X34609716Y19000000D01*
X34588940Y19157806D01*
X34528030Y19304858D01*
X34431134Y19431134D01*
X34431132Y19431136D01*
X34431131Y19431137D01*
X34403013Y19452713D01*
X34361811Y19509141D01*
X34354500Y19551088D01*
X34354500Y20733227D01*
X34374185Y20800266D01*
X34426989Y20846021D01*
X34496147Y20855965D01*
X34525950Y20847789D01*
X34542194Y20841060D01*
X34681640Y20822702D01*
X34699999Y20820284D01*
X34700000Y20820284D01*
X34700001Y20820284D01*
X34716446Y20822450D01*
X34857806Y20841060D01*
X35004858Y20901970D01*
X35131134Y20998866D01*
X35228030Y21125142D01*
X35288940Y21272194D01*
X35309716Y21430000D01*
X35288940Y21587806D01*
X35228030Y21734858D01*
X35131134Y21861134D01*
X35004858Y21958030D01*
X35004855Y21958031D01*
X34998410Y21962977D01*
X34999509Y21964410D01*
X34958276Y22007666D01*
X34944500Y22064470D01*
X34944500Y30420268D01*
X34964185Y30487307D01*
X35016989Y30533062D01*
X35021048Y30534829D01*
X35112794Y30572831D01*
X35134858Y30581970D01*
X35261134Y30678866D01*
X35358030Y30805142D01*
X35418940Y30952194D01*
X35439716Y31110000D01*
X35418940Y31267806D01*
X35358030Y31414858D01*
X35261134Y31541134D01*
X35134858Y31638030D01*
X35134857Y31638031D01*
X35134855Y31638032D01*
X34987809Y31698939D01*
X34987807Y31698940D01*
X34987806Y31698940D01*
X34908903Y31709328D01*
X34830001Y31719716D01*
X34829999Y31719716D01*
X34672194Y31698940D01*
X34672190Y31698939D01*
X34525952Y31638366D01*
X34456482Y31630897D01*
X34394004Y31662173D01*
X34358352Y31722262D01*
X34354500Y31752927D01*
X34354500Y33038532D01*
X34374185Y33105571D01*
X34426989Y33151326D01*
X34431048Y33153093D01*
X34488736Y33176988D01*
X34524858Y33191950D01*
X34651134Y33288846D01*
X34748030Y33415122D01*
X34808940Y33562174D01*
X34829716Y33719980D01*
X34808940Y33877786D01*
X34748030Y34024838D01*
X34651134Y34151114D01*
X34524858Y34248010D01*
X34524857Y34248011D01*
X34524855Y34248012D01*
X34377809Y34308919D01*
X34377807Y34308920D01*
X34377806Y34308920D01*
X34273534Y34322648D01*
X34220001Y34329696D01*
X34219998Y34329696D01*
X34084685Y34311882D01*
X34015650Y34322648D01*
X33963394Y34369028D01*
X33944500Y34434821D01*
X33944500Y37635480D01*
X35365618Y37635480D01*
X35384508Y37528345D01*
X35396489Y37460401D01*
X35404343Y37442194D01*
X35466904Y37297161D01*
X35562417Y37168866D01*
X35573067Y37154561D01*
X35709254Y37040286D01*
X35736585Y37026560D01*
X35868118Y36960501D01*
X35868119Y36960501D01*
X35868123Y36960499D01*
X36041110Y36919500D01*
X36041113Y36919500D01*
X36174285Y36919500D01*
X36174292Y36919500D01*
X36306577Y36934962D01*
X36473635Y36995766D01*
X36622168Y37093457D01*
X36744167Y37222769D01*
X36833057Y37376731D01*
X36884045Y37547042D01*
X36889196Y37635480D01*
X37905618Y37635480D01*
X37924508Y37528345D01*
X37936489Y37460401D01*
X37944343Y37442194D01*
X38006904Y37297161D01*
X38102417Y37168866D01*
X38113067Y37154561D01*
X38249254Y37040286D01*
X38276585Y37026560D01*
X38408118Y36960501D01*
X38408119Y36960501D01*
X38408123Y36960499D01*
X38581110Y36919500D01*
X38581113Y36919500D01*
X38714285Y36919500D01*
X38714292Y36919500D01*
X38846577Y36934962D01*
X39013635Y36995766D01*
X39162168Y37093457D01*
X39284167Y37222769D01*
X39373057Y37376731D01*
X39424045Y37547042D01*
X39434382Y37724520D01*
X39403511Y37899599D01*
X39333096Y38062838D01*
X39226933Y38205439D01*
X39154112Y38266543D01*
X39090746Y38319714D01*
X39090744Y38319715D01*
X38931881Y38399500D01*
X38931877Y38399501D01*
X38758890Y38440500D01*
X38625708Y38440500D01*
X38509958Y38426971D01*
X38493422Y38425038D01*
X38493419Y38425037D01*
X38326367Y38364236D01*
X38258675Y38319714D01*
X38177832Y38266543D01*
X38177831Y38266543D01*
X38177831Y38266542D01*
X38055833Y38137233D01*
X37966944Y37983272D01*
X37915955Y37812959D01*
X37915954Y37812954D01*
X37905618Y37635481D01*
X37905618Y37635480D01*
X36889196Y37635480D01*
X36894382Y37724520D01*
X36863511Y37899599D01*
X36793096Y38062838D01*
X36686933Y38205439D01*
X36614112Y38266543D01*
X36550746Y38319714D01*
X36550744Y38319715D01*
X36391881Y38399500D01*
X36391877Y38399501D01*
X36218890Y38440500D01*
X36085708Y38440500D01*
X35969958Y38426971D01*
X35953422Y38425038D01*
X35953419Y38425037D01*
X35786367Y38364236D01*
X35718675Y38319714D01*
X35637832Y38266543D01*
X35637831Y38266543D01*
X35637831Y38266542D01*
X35515833Y38137233D01*
X35426944Y37983272D01*
X35375955Y37812959D01*
X35375954Y37812954D01*
X35365618Y37635481D01*
X35365618Y37635480D01*
X33944500Y37635480D01*
X33944500Y39579552D01*
X33944972Y39590361D01*
X33945816Y39600001D01*
X33948483Y39630488D01*
X33938053Y39669413D01*
X33935713Y39679966D01*
X33928718Y39719643D01*
X33928715Y39719648D01*
X33927759Y39722277D01*
X33918223Y39745297D01*
X33917038Y39747840D01*
X33893927Y39780846D01*
X33888115Y39789969D01*
X33867972Y39824857D01*
X33837115Y39850749D01*
X33829139Y39858058D01*
X33638702Y40048495D01*
X33605217Y40109818D01*
X33603444Y40152362D01*
X33606488Y40175480D01*
X35365618Y40175480D01*
X35392078Y40025414D01*
X35396489Y40000401D01*
X35413859Y39960133D01*
X35466904Y39837161D01*
X35535295Y39745297D01*
X35573067Y39694561D01*
X35709254Y39580286D01*
X35762096Y39553748D01*
X35868118Y39500501D01*
X35868119Y39500501D01*
X35868123Y39500499D01*
X36041110Y39459500D01*
X36041113Y39459500D01*
X36174285Y39459500D01*
X36174292Y39459500D01*
X36306577Y39474962D01*
X36473635Y39535766D01*
X36622168Y39633457D01*
X36744167Y39762769D01*
X36833057Y39916731D01*
X36884045Y40087042D01*
X36889196Y40175480D01*
X37905618Y40175480D01*
X37932078Y40025414D01*
X37936489Y40000401D01*
X37953859Y39960133D01*
X38006904Y39837161D01*
X38075295Y39745297D01*
X38113067Y39694561D01*
X38249254Y39580286D01*
X38302096Y39553748D01*
X38408118Y39500501D01*
X38408119Y39500501D01*
X38408123Y39500499D01*
X38581110Y39459500D01*
X38581113Y39459500D01*
X38714285Y39459500D01*
X38714292Y39459500D01*
X38846577Y39474962D01*
X39013635Y39535766D01*
X39162168Y39633457D01*
X39284167Y39762769D01*
X39373057Y39916731D01*
X39424045Y40087042D01*
X39434382Y40264520D01*
X39403511Y40439599D01*
X39333096Y40602838D01*
X39312030Y40631134D01*
X39258990Y40702379D01*
X39226933Y40745439D01*
X39154112Y40806543D01*
X39090746Y40859714D01*
X39090744Y40859715D01*
X38931881Y40939500D01*
X38931877Y40939501D01*
X38758890Y40980500D01*
X38625708Y40980500D01*
X38509958Y40966971D01*
X38493422Y40965038D01*
X38493419Y40965037D01*
X38326367Y40904236D01*
X38258675Y40859714D01*
X38177832Y40806543D01*
X38177831Y40806543D01*
X38177831Y40806542D01*
X38055833Y40677233D01*
X37966944Y40523272D01*
X37966943Y40523270D01*
X37966943Y40523269D01*
X37954000Y40480038D01*
X37915955Y40352959D01*
X37915954Y40352954D01*
X37905618Y40175481D01*
X37905618Y40175480D01*
X36889196Y40175480D01*
X36894382Y40264520D01*
X36863511Y40439599D01*
X36793096Y40602838D01*
X36772030Y40631134D01*
X36718990Y40702379D01*
X36686933Y40745439D01*
X36614112Y40806543D01*
X36550746Y40859714D01*
X36550744Y40859715D01*
X36391881Y40939500D01*
X36391877Y40939501D01*
X36218890Y40980500D01*
X36085708Y40980500D01*
X35969958Y40966971D01*
X35953422Y40965038D01*
X35953419Y40965037D01*
X35786367Y40904236D01*
X35718675Y40859714D01*
X35637832Y40806543D01*
X35637831Y40806543D01*
X35637831Y40806542D01*
X35515833Y40677233D01*
X35426944Y40523272D01*
X35426943Y40523270D01*
X35426943Y40523269D01*
X35414000Y40480038D01*
X35375955Y40352959D01*
X35375954Y40352954D01*
X35365618Y40175481D01*
X35365618Y40175480D01*
X33606488Y40175480D01*
X33609716Y40200000D01*
X33604487Y40239714D01*
X33588940Y40357806D01*
X33528030Y40504858D01*
X33431134Y40631134D01*
X33304858Y40728030D01*
X33304857Y40728031D01*
X33304855Y40728032D01*
X33157809Y40788939D01*
X33157807Y40788940D01*
X33157806Y40788940D01*
X33078903Y40799328D01*
X33000001Y40809716D01*
X32999999Y40809716D01*
X32842194Y40788940D01*
X32842190Y40788939D01*
X32695144Y40728032D01*
X32568866Y40631134D01*
X32471968Y40504856D01*
X32411061Y40357810D01*
X32411060Y40357806D01*
X32395513Y40239714D01*
X32390284Y40200000D01*
X32410715Y40044811D01*
X32411060Y40042195D01*
X32411061Y40042191D01*
X32471968Y39895145D01*
X32471969Y39895143D01*
X32471970Y39895142D01*
X32568866Y39768866D01*
X32695142Y39671970D01*
X32842194Y39611060D01*
X33000000Y39590284D01*
X33000001Y39590284D01*
X33047638Y39596556D01*
X33116673Y39585791D01*
X33151505Y39561298D01*
X33219181Y39493622D01*
X33252666Y39432299D01*
X33255500Y39405941D01*
X33255500Y35504028D01*
X33235815Y35436989D01*
X33183011Y35391234D01*
X33113853Y35381290D01*
X33050297Y35410315D01*
X33033127Y35428537D01*
X33031134Y35431134D01*
X33023504Y35436989D01*
X32904858Y35528030D01*
X32904857Y35528031D01*
X32904855Y35528032D01*
X32757809Y35588939D01*
X32757807Y35588940D01*
X32757806Y35588940D01*
X32663097Y35601409D01*
X32600001Y35609716D01*
X32599999Y35609716D01*
X32442194Y35588940D01*
X32442190Y35588939D01*
X32295144Y35528032D01*
X32168866Y35431134D01*
X32071968Y35304856D01*
X32011061Y35157810D01*
X32011060Y35157806D01*
X31990284Y35000001D01*
X31990284Y35000000D01*
X32011060Y34842195D01*
X32011061Y34842191D01*
X32071968Y34695145D01*
X32071969Y34695144D01*
X32071970Y34695142D01*
X32168866Y34568866D01*
X32295142Y34471970D01*
X32295143Y34471970D01*
X32295144Y34471969D01*
X32334265Y34455765D01*
X32442194Y34411060D01*
X32600000Y34390284D01*
X32635141Y34394911D01*
X32704175Y34384146D01*
X32739008Y34359653D01*
X32809181Y34289480D01*
X32842666Y34228157D01*
X32845500Y34201799D01*
X32845500Y32986738D01*
X32825815Y32919699D01*
X32773011Y32873944D01*
X32703853Y32864000D01*
X32640297Y32893025D01*
X32623124Y32911251D01*
X32531134Y33031134D01*
X32404858Y33128030D01*
X32404857Y33128031D01*
X32404855Y33128032D01*
X32257809Y33188939D01*
X32257807Y33188940D01*
X32257806Y33188940D01*
X32178903Y33199328D01*
X32100001Y33209716D01*
X32099999Y33209716D01*
X31942194Y33188940D01*
X31942190Y33188939D01*
X31795144Y33128032D01*
X31668866Y33031134D01*
X31571968Y32904856D01*
X31511061Y32757810D01*
X31511060Y32757806D01*
X31492520Y32616980D01*
X31490284Y32600000D01*
X31507548Y32468866D01*
X31511060Y32442195D01*
X31511061Y32442191D01*
X31571968Y32295145D01*
X31571969Y32295143D01*
X31571970Y32295142D01*
X31668866Y32168866D01*
X31795142Y32071970D01*
X31942194Y32011060D01*
X32100000Y31990284D01*
X32135141Y31994911D01*
X32204175Y31984146D01*
X32239008Y31959653D01*
X32333279Y31865382D01*
X32366764Y31804059D01*
X32369598Y31777701D01*
X32369598Y31343449D01*
X32349913Y31276410D01*
X32297109Y31230655D01*
X32229413Y31220510D01*
X32094100Y31238324D01*
X32094097Y31238324D01*
X31936292Y31217548D01*
X31936288Y31217547D01*
X31789242Y31156640D01*
X31662964Y31059742D01*
X31566066Y30933464D01*
X31505159Y30786418D01*
X31505158Y30786414D01*
X31484382Y30628608D01*
X31502509Y30490919D01*
X31505158Y30470803D01*
X31505159Y30470799D01*
X31566066Y30323753D01*
X31566067Y30323751D01*
X31566068Y30323750D01*
X31617331Y30256944D01*
X31662964Y30197474D01*
X31716987Y30156020D01*
X31758190Y30099592D01*
X31765500Y30057645D01*
X31765500Y29433251D01*
X31745815Y29366212D01*
X31693011Y29320457D01*
X31623853Y29310513D01*
X31594050Y29318689D01*
X31569303Y29328939D01*
X31569301Y29328940D01*
X31569300Y29328940D01*
X31478206Y29340933D01*
X31411495Y29349716D01*
X31411493Y29349716D01*
X31253688Y29328940D01*
X31200951Y29307096D01*
X31131482Y29299628D01*
X31069003Y29330904D01*
X31033351Y29390993D01*
X31029500Y29421658D01*
X31029500Y41541445D01*
X31049185Y41608484D01*
X31065815Y41629122D01*
X31492234Y42055542D01*
X31553555Y42089025D01*
X31596104Y42090797D01*
X31600000Y42090284D01*
X31757806Y42111060D01*
X31904858Y42171970D01*
X32031134Y42268866D01*
X32128030Y42395142D01*
X32188940Y42542194D01*
X32209716Y42700000D01*
X32207678Y42715480D01*
X35365618Y42715480D01*
X35396488Y42540404D01*
X35466904Y42377161D01*
X35526513Y42297093D01*
X35573067Y42234561D01*
X35709254Y42120286D01*
X35768991Y42090285D01*
X35868118Y42040501D01*
X35868119Y42040501D01*
X35868123Y42040499D01*
X36041110Y41999500D01*
X36041113Y41999500D01*
X36174285Y41999500D01*
X36174292Y41999500D01*
X36306577Y42014962D01*
X36473635Y42075766D01*
X36622168Y42173457D01*
X36744167Y42302769D01*
X36833057Y42456731D01*
X36884045Y42627042D01*
X36889196Y42715480D01*
X37905618Y42715480D01*
X37936488Y42540404D01*
X38006904Y42377161D01*
X38066513Y42297093D01*
X38113067Y42234561D01*
X38249254Y42120286D01*
X38308991Y42090285D01*
X38408118Y42040501D01*
X38408119Y42040501D01*
X38408123Y42040499D01*
X38581110Y41999500D01*
X38581113Y41999500D01*
X38714285Y41999500D01*
X38714292Y41999500D01*
X38846577Y42014962D01*
X39013635Y42075766D01*
X39162168Y42173457D01*
X39284167Y42302769D01*
X39373057Y42456731D01*
X39424045Y42627042D01*
X39434382Y42804520D01*
X39403511Y42979599D01*
X39333096Y43142838D01*
X39309786Y43174148D01*
X39226932Y43285440D01*
X39090746Y43399714D01*
X39090744Y43399715D01*
X38931881Y43479500D01*
X38931877Y43479501D01*
X38758890Y43520500D01*
X38625708Y43520500D01*
X38509958Y43506971D01*
X38493422Y43505038D01*
X38493419Y43505037D01*
X38326367Y43444236D01*
X38258675Y43399714D01*
X38177832Y43346543D01*
X38177831Y43346543D01*
X38177831Y43346542D01*
X38055833Y43217233D01*
X37966944Y43063272D01*
X37915955Y42892959D01*
X37915954Y42892954D01*
X37905618Y42715481D01*
X37905618Y42715480D01*
X36889196Y42715480D01*
X36894382Y42804520D01*
X36863511Y42979599D01*
X36793096Y43142838D01*
X36769786Y43174148D01*
X36686932Y43285440D01*
X36550746Y43399714D01*
X36550744Y43399715D01*
X36391881Y43479500D01*
X36391877Y43479501D01*
X36218890Y43520500D01*
X36085708Y43520500D01*
X35969958Y43506971D01*
X35953422Y43505038D01*
X35953419Y43505037D01*
X35786367Y43444236D01*
X35718675Y43399714D01*
X35637832Y43346543D01*
X35637831Y43346543D01*
X35637831Y43346542D01*
X35515833Y43217233D01*
X35426944Y43063272D01*
X35375955Y42892959D01*
X35375954Y42892954D01*
X35365618Y42715481D01*
X35365618Y42715480D01*
X32207678Y42715480D01*
X32188940Y42857806D01*
X32138493Y42979597D01*
X32128031Y43004856D01*
X32128030Y43004857D01*
X32128030Y43004858D01*
X32031134Y43131134D01*
X31904858Y43228030D01*
X31904857Y43228031D01*
X31904855Y43228032D01*
X31757809Y43288939D01*
X31757807Y43288940D01*
X31757806Y43288940D01*
X31655516Y43302407D01*
X31600001Y43309716D01*
X31599999Y43309716D01*
X31442194Y43288940D01*
X31442190Y43288939D01*
X31295144Y43228032D01*
X31168866Y43131134D01*
X31071968Y43004856D01*
X31011061Y42857810D01*
X31011060Y42857806D01*
X30990284Y42700001D01*
X30990284Y42699998D01*
X30990797Y42696100D01*
X30990284Y42692811D01*
X30990284Y42691873D01*
X30990138Y42691873D01*
X30980031Y42627064D01*
X30955539Y42592235D01*
X30418577Y42055273D01*
X30398727Y42039152D01*
X30389419Y42033071D01*
X30369715Y42007755D01*
X30359569Y41996263D01*
X30359425Y41996120D01*
X30359417Y41996110D01*
X30347186Y41978982D01*
X30344131Y41974886D01*
X30311625Y41933120D01*
X30307849Y41926143D01*
X30304345Y41918977D01*
X30289247Y41868261D01*
X30287683Y41863380D01*
X30270499Y41813328D01*
X30269195Y41805513D01*
X30268207Y41797587D01*
X30270394Y41744739D01*
X30270500Y41739614D01*
X30270500Y28761566D01*
X30250815Y28694527D01*
X30198011Y28648772D01*
X30128853Y28638828D01*
X30065297Y28667853D01*
X30048125Y28686078D01*
X30038876Y28698132D01*
X30038874Y28698134D01*
X30038873Y28698135D01*
X30035753Y28700529D01*
X30033786Y28703223D01*
X30033126Y28703883D01*
X30033228Y28703986D01*
X29994552Y28756958D01*
X29987242Y28798903D01*
X29987242Y45255480D01*
X35365618Y45255480D01*
X35393889Y45095142D01*
X35396489Y45080401D01*
X35412750Y45042705D01*
X35466904Y44917161D01*
X35573067Y44774561D01*
X35709254Y44660286D01*
X35787990Y44620743D01*
X35868118Y44580501D01*
X35868119Y44580501D01*
X35868123Y44580499D01*
X36041110Y44539500D01*
X36041113Y44539500D01*
X36174285Y44539500D01*
X36174292Y44539500D01*
X36306577Y44554962D01*
X36473635Y44615766D01*
X36622168Y44713457D01*
X36744167Y44842769D01*
X36833057Y44996731D01*
X36884045Y45167042D01*
X36889196Y45255480D01*
X37905618Y45255480D01*
X37933889Y45095142D01*
X37936489Y45080401D01*
X37952750Y45042705D01*
X38006904Y44917161D01*
X38113067Y44774561D01*
X38249254Y44660286D01*
X38327990Y44620743D01*
X38408118Y44580501D01*
X38408119Y44580501D01*
X38408123Y44580499D01*
X38581110Y44539500D01*
X38581113Y44539500D01*
X38714285Y44539500D01*
X38714292Y44539500D01*
X38846577Y44554962D01*
X39013635Y44615766D01*
X39162168Y44713457D01*
X39284167Y44842769D01*
X39373057Y44996731D01*
X39424045Y45167042D01*
X39434382Y45344520D01*
X39403511Y45519599D01*
X39333096Y45682838D01*
X39316704Y45704856D01*
X39238638Y45809716D01*
X39226933Y45825439D01*
X39154112Y45886543D01*
X39090746Y45939714D01*
X39090744Y45939715D01*
X38931881Y46019500D01*
X38931877Y46019501D01*
X38758890Y46060500D01*
X38625708Y46060500D01*
X38509958Y46046971D01*
X38493422Y46045038D01*
X38493419Y46045037D01*
X38326367Y45984236D01*
X38258675Y45939714D01*
X38177832Y45886543D01*
X38177831Y45886543D01*
X38177831Y45886542D01*
X38055833Y45757233D01*
X37966944Y45603272D01*
X37915955Y45432959D01*
X37915954Y45432954D01*
X37905618Y45255481D01*
X37905618Y45255480D01*
X36889196Y45255480D01*
X36894382Y45344520D01*
X36863511Y45519599D01*
X36793096Y45682838D01*
X36776704Y45704856D01*
X36698638Y45809716D01*
X36686933Y45825439D01*
X36614112Y45886543D01*
X36550746Y45939714D01*
X36550744Y45939715D01*
X36391881Y46019500D01*
X36391877Y46019501D01*
X36218890Y46060500D01*
X36085708Y46060500D01*
X35969958Y46046971D01*
X35953422Y46045038D01*
X35953419Y46045037D01*
X35786367Y45984236D01*
X35718675Y45939714D01*
X35637832Y45886543D01*
X35637831Y45886543D01*
X35637831Y45886542D01*
X35515833Y45757233D01*
X35426944Y45603272D01*
X35375955Y45432959D01*
X35375954Y45432954D01*
X35365618Y45255481D01*
X35365618Y45255480D01*
X29987242Y45255480D01*
X29987242Y47734741D01*
X29989881Y47760186D01*
X29990878Y47764941D01*
X29992160Y47771056D01*
X29989116Y47795480D01*
X35365618Y47795480D01*
X35395850Y47624022D01*
X35396489Y47620401D01*
X35411489Y47585627D01*
X35466904Y47457161D01*
X35524905Y47379253D01*
X35573067Y47314561D01*
X35709254Y47200286D01*
X35761299Y47174148D01*
X35868118Y47120501D01*
X35868119Y47120501D01*
X35868123Y47120499D01*
X36041110Y47079500D01*
X36041113Y47079500D01*
X36174285Y47079500D01*
X36174292Y47079500D01*
X36306577Y47094962D01*
X36473635Y47155766D01*
X36622168Y47253457D01*
X36744167Y47382769D01*
X36833057Y47536731D01*
X36884045Y47707042D01*
X36889131Y47794372D01*
X36912680Y47860151D01*
X36968055Y47902759D01*
X37037674Y47908664D01*
X37056491Y47903253D01*
X37065976Y47899693D01*
X37082243Y47896741D01*
X37287450Y47859500D01*
X37287453Y47859500D01*
X37456148Y47859500D01*
X37456155Y47859500D01*
X37624188Y47874623D01*
X37748770Y47909006D01*
X37818627Y47907867D01*
X37876782Y47869139D01*
X37904766Y47805118D01*
X37905546Y47796698D01*
X37905616Y47795489D01*
X37935850Y47624022D01*
X37936489Y47620401D01*
X37951489Y47585627D01*
X38006904Y47457161D01*
X38064905Y47379253D01*
X38113067Y47314561D01*
X38249254Y47200286D01*
X38301299Y47174148D01*
X38408118Y47120501D01*
X38408119Y47120501D01*
X38408123Y47120499D01*
X38581110Y47079500D01*
X38581113Y47079500D01*
X38714285Y47079500D01*
X38714292Y47079500D01*
X38846577Y47094962D01*
X39013635Y47155766D01*
X39162168Y47253457D01*
X39284167Y47382769D01*
X39373057Y47536731D01*
X39424045Y47707042D01*
X39434382Y47884520D01*
X39403511Y48059599D01*
X39333096Y48222838D01*
X39329229Y48228032D01*
X39263370Y48316496D01*
X39226933Y48365439D01*
X39154112Y48426543D01*
X39090746Y48479714D01*
X39090744Y48479715D01*
X38931881Y48559500D01*
X38931877Y48559501D01*
X38758890Y48600500D01*
X38721860Y48600500D01*
X38654821Y48620185D01*
X38609066Y48672989D01*
X38599122Y48742147D01*
X38600969Y48752092D01*
X38618890Y48830613D01*
X38644191Y48941463D01*
X38654290Y49166330D01*
X38624075Y49389387D01*
X38602007Y49457303D01*
X38600013Y49527141D01*
X38636093Y49586974D01*
X38698793Y49617803D01*
X38712725Y49619409D01*
X38714284Y49619500D01*
X38714292Y49619500D01*
X38846577Y49634962D01*
X39013635Y49695766D01*
X39162168Y49793457D01*
X39284167Y49922769D01*
X39373057Y50076731D01*
X39424045Y50247042D01*
X39434382Y50424520D01*
X39403511Y50599599D01*
X39333096Y50762838D01*
X39226933Y50905439D01*
X39154112Y50966543D01*
X39090746Y51019714D01*
X39090744Y51019715D01*
X38931881Y51099500D01*
X38931877Y51099501D01*
X38758890Y51140500D01*
X38625708Y51140500D01*
X38509958Y51126971D01*
X38493422Y51125038D01*
X38493419Y51125037D01*
X38326367Y51064236D01*
X38258675Y51019714D01*
X38177832Y50966543D01*
X38177831Y50966543D01*
X38177831Y50966542D01*
X38055833Y50837233D01*
X37966944Y50683272D01*
X37915955Y50512959D01*
X37915954Y50512954D01*
X37910868Y50425630D01*
X37887318Y50359849D01*
X37831943Y50317242D01*
X37762323Y50311337D01*
X37743507Y50316748D01*
X37734022Y50320308D01*
X37512550Y50360500D01*
X37512547Y50360500D01*
X37343845Y50360500D01*
X37305399Y50357040D01*
X37175813Y50345378D01*
X37175807Y50345377D01*
X37051231Y50310995D01*
X36981370Y50312135D01*
X36923217Y50350863D01*
X36895233Y50414884D01*
X36894452Y50423317D01*
X36894381Y50424512D01*
X36894382Y50424520D01*
X36863511Y50599599D01*
X36793096Y50762838D01*
X36686933Y50905439D01*
X36614112Y50966543D01*
X36550746Y51019714D01*
X36550744Y51019715D01*
X36391881Y51099500D01*
X36391877Y51099501D01*
X36218890Y51140500D01*
X36085708Y51140500D01*
X35969958Y51126971D01*
X35953422Y51125038D01*
X35953419Y51125037D01*
X35786367Y51064236D01*
X35718675Y51019714D01*
X35637832Y50966543D01*
X35637831Y50966543D01*
X35637831Y50966542D01*
X35515833Y50837233D01*
X35426944Y50683272D01*
X35375955Y50512959D01*
X35375954Y50512954D01*
X35365618Y50335481D01*
X35365618Y50335480D01*
X35380769Y50249550D01*
X35396489Y50160401D01*
X35399776Y50152781D01*
X35466904Y49997161D01*
X35548384Y49887716D01*
X35573067Y49854561D01*
X35709254Y49740286D01*
X35726703Y49731523D01*
X35868118Y49660501D01*
X35868119Y49660501D01*
X35868123Y49660499D01*
X36041110Y49619500D01*
X36041113Y49619500D01*
X36078140Y49619500D01*
X36145179Y49599815D01*
X36190934Y49547011D01*
X36200878Y49477853D01*
X36199031Y49467908D01*
X36155810Y49278543D01*
X36155808Y49278532D01*
X36146392Y49068866D01*
X36145710Y49053670D01*
X36175925Y48830613D01*
X36175926Y48830609D01*
X36197991Y48762700D01*
X36199986Y48692859D01*
X36163906Y48633026D01*
X36101205Y48602198D01*
X36087299Y48600594D01*
X36085737Y48600503D01*
X36085711Y48600500D01*
X36085708Y48600500D01*
X35997775Y48590222D01*
X35953422Y48585038D01*
X35953419Y48585037D01*
X35786367Y48524236D01*
X35718675Y48479714D01*
X35637832Y48426543D01*
X35637831Y48426543D01*
X35637831Y48426542D01*
X35515833Y48297233D01*
X35426944Y48143272D01*
X35375955Y47972959D01*
X35375954Y47972954D01*
X35365618Y47795481D01*
X35365618Y47795480D01*
X29989116Y47795480D01*
X29988194Y47802875D01*
X29987242Y47818212D01*
X29987242Y47818397D01*
X29987241Y47818407D01*
X29983779Y47839145D01*
X29983041Y47844203D01*
X29976494Y47896739D01*
X29976492Y47896742D01*
X29974228Y47904352D01*
X29971643Y47911881D01*
X29946462Y47958412D01*
X29944117Y47962969D01*
X29920869Y48010524D01*
X29916283Y48016947D01*
X29911362Y48023270D01*
X29911361Y48023272D01*
X29872418Y48059122D01*
X29868744Y48062648D01*
X29691809Y48239583D01*
X29658324Y48300906D01*
X29656552Y48343455D01*
X29657065Y48347349D01*
X29636289Y48505155D01*
X29575379Y48652207D01*
X29478483Y48778483D01*
X29352207Y48875379D01*
X29352206Y48875380D01*
X29352204Y48875381D01*
X29205158Y48936288D01*
X29205156Y48936289D01*
X29205155Y48936289D01*
X29109261Y48948914D01*
X29047350Y48957065D01*
X29047348Y48957065D01*
X28889543Y48936289D01*
X28789153Y48894707D01*
X28719684Y48887239D01*
X28657205Y48918515D01*
X28621553Y48978604D01*
X28624048Y49048429D01*
X28643327Y49084756D01*
X28705918Y49166326D01*
X28728030Y49195142D01*
X28788940Y49342194D01*
X28809716Y49500000D01*
X28788940Y49657806D01*
X28748333Y49755841D01*
X28728031Y49804856D01*
X28728030Y49804857D01*
X28728030Y49804858D01*
X28631134Y49931134D01*
X28504858Y50028030D01*
X28504857Y50028031D01*
X28504855Y50028032D01*
X28357809Y50088939D01*
X28357807Y50088940D01*
X28357806Y50088940D01*
X28278903Y50099328D01*
X28200001Y50109716D01*
X28199999Y50109716D01*
X28042194Y50088940D01*
X28042190Y50088939D01*
X27895144Y50028032D01*
X27768866Y49931134D01*
X27671968Y49804856D01*
X27611061Y49657810D01*
X27611060Y49657806D01*
X27590284Y49500001D01*
X27590284Y49500000D01*
X27611060Y49342195D01*
X27611061Y49342191D01*
X27671968Y49195145D01*
X27671969Y49195144D01*
X27671970Y49195142D01*
X27768866Y49068866D01*
X27796987Y49047288D01*
X27838188Y48990864D01*
X27845500Y48948914D01*
X27845500Y47649627D01*
X27842861Y47624183D01*
X27840905Y47614855D01*
X27840905Y47614852D01*
X27844548Y47585627D01*
X27845418Y47571606D01*
X27845499Y47570623D01*
X27848703Y47551423D01*
X27849441Y47546357D01*
X27855538Y47497449D01*
X27857652Y47490347D01*
X27860071Y47483302D01*
X27883516Y47439978D01*
X27885860Y47435425D01*
X27907500Y47391162D01*
X27911827Y47385101D01*
X27916379Y47379253D01*
X27952634Y47345878D01*
X27956332Y47342329D01*
X28219161Y47079500D01*
X28449181Y46849481D01*
X28482666Y46788158D01*
X28485500Y46761800D01*
X28485500Y43415201D01*
X28465815Y43348162D01*
X28413011Y43302407D01*
X28343853Y43292463D01*
X28280297Y43321488D01*
X28273819Y43327520D01*
X28140347Y43460992D01*
X28106862Y43522315D01*
X28105089Y43564860D01*
X28109716Y43600000D01*
X28088940Y43757806D01*
X28028030Y43904858D01*
X27931134Y44031134D01*
X27804858Y44128030D01*
X27804857Y44128031D01*
X27804855Y44128032D01*
X27657809Y44188939D01*
X27657807Y44188940D01*
X27657806Y44188940D01*
X27578903Y44199328D01*
X27500001Y44209716D01*
X27499999Y44209716D01*
X27443238Y44202244D01*
X27342194Y44188940D01*
X27342193Y44188940D01*
X27334137Y44187879D01*
X27333906Y44189631D01*
X27274036Y44191056D01*
X27216174Y44230219D01*
X27188670Y44294447D01*
X27187793Y44309168D01*
X27187793Y45000613D01*
X27207478Y45067652D01*
X27213419Y45076101D01*
X27228029Y45095141D01*
X27228028Y45095141D01*
X27228030Y45095142D01*
X27288940Y45242194D01*
X27309716Y45400000D01*
X27288940Y45557806D01*
X27228030Y45704858D01*
X27131134Y45831134D01*
X27004858Y45928030D01*
X27004857Y45928031D01*
X27004855Y45928032D01*
X26857809Y45988939D01*
X26857807Y45988940D01*
X26857806Y45988940D01*
X26778903Y45999328D01*
X26700001Y46009716D01*
X26699999Y46009716D01*
X26542194Y45988940D01*
X26542190Y45988939D01*
X26425952Y45940792D01*
X26356483Y45933323D01*
X26294004Y45964599D01*
X26258352Y46024688D01*
X26254500Y46055353D01*
X26254500Y46734384D01*
X26263939Y46781837D01*
X26288940Y46842194D01*
X26309716Y47000000D01*
X26288940Y47157806D01*
X26228030Y47304858D01*
X26131134Y47431134D01*
X26004858Y47528030D01*
X26004857Y47528031D01*
X26004855Y47528032D01*
X25857809Y47588939D01*
X25857807Y47588940D01*
X25857806Y47588940D01*
X25737659Y47604758D01*
X25700001Y47609716D01*
X25699999Y47609716D01*
X25542194Y47588940D01*
X25542190Y47588939D01*
X25395144Y47528032D01*
X25268866Y47431134D01*
X25171968Y47304856D01*
X25111061Y47157810D01*
X25111060Y47157806D01*
X25090284Y47000001D01*
X25090284Y47000000D01*
X25111060Y46842195D01*
X25111061Y46842191D01*
X25171968Y46695145D01*
X25171969Y46695143D01*
X25171970Y46695142D01*
X25268866Y46568866D01*
X25395142Y46471970D01*
X25468954Y46441397D01*
X25523355Y46397559D01*
X25545421Y46331265D01*
X25545500Y46326837D01*
X25545500Y35063254D01*
X25525815Y34996215D01*
X25473011Y34950460D01*
X25403853Y34940516D01*
X25374048Y34948693D01*
X25277673Y34988612D01*
X25277671Y34988613D01*
X25277670Y34988613D01*
X25191179Y35000000D01*
X25119865Y35009389D01*
X25119863Y35009389D01*
X24962060Y34988614D01*
X24954370Y34985429D01*
X24925949Y34973657D01*
X24856482Y34966189D01*
X24794003Y34997465D01*
X24758351Y35057554D01*
X24754500Y35088219D01*
X24754500Y35848914D01*
X24774185Y35915953D01*
X24803010Y35947287D01*
X24831134Y35968866D01*
X24928030Y36095142D01*
X24988940Y36242194D01*
X25009716Y36400000D01*
X24988940Y36557806D01*
X24928030Y36704858D01*
X24831134Y36831134D01*
X24704858Y36928030D01*
X24704857Y36928031D01*
X24704855Y36928032D01*
X24557809Y36988939D01*
X24557807Y36988940D01*
X24557806Y36988940D01*
X24478903Y36999328D01*
X24400001Y37009716D01*
X24399999Y37009716D01*
X24242194Y36988940D01*
X24150951Y36951147D01*
X24081482Y36943680D01*
X24019003Y36974955D01*
X23983351Y37035045D01*
X23979500Y37065709D01*
X23979500Y44668097D01*
X23999185Y44735136D01*
X24028015Y44766473D01*
X24031134Y44768866D01*
X24128030Y44895142D01*
X24188940Y45042194D01*
X24209716Y45200000D01*
X24188940Y45357806D01*
X24128030Y45504858D01*
X24031134Y45631134D01*
X23904858Y45728030D01*
X23904857Y45728031D01*
X23904855Y45728032D01*
X23757809Y45788939D01*
X23757807Y45788940D01*
X23757806Y45788940D01*
X23678903Y45799328D01*
X23600001Y45809716D01*
X23599999Y45809716D01*
X23442194Y45788940D01*
X23442190Y45788939D01*
X23295144Y45728032D01*
X23168866Y45631134D01*
X23071968Y45504856D01*
X23011061Y45357810D01*
X23011060Y45357806D01*
X22990284Y45200000D01*
X23006029Y45080404D01*
X23011060Y45042195D01*
X23011061Y45042191D01*
X23071968Y44895145D01*
X23071969Y44895143D01*
X23071970Y44895142D01*
X23168866Y44768866D01*
X23171983Y44766475D01*
X23173946Y44763786D01*
X23174609Y44763123D01*
X23174505Y44763020D01*
X23213187Y44710051D01*
X23220500Y44668097D01*
X23220500Y32748669D01*
X23200815Y32681630D01*
X23148011Y32635875D01*
X23112686Y32625730D01*
X23030527Y32614913D01*
X22967704Y32606642D01*
X22967703Y32606642D01*
X22967700Y32606641D01*
X22820654Y32545734D01*
X22694376Y32448836D01*
X22597478Y32322558D01*
X22536571Y32175512D01*
X22536570Y32175508D01*
X22515794Y32017703D01*
X22515794Y32017702D01*
X22536570Y31859895D01*
X22552395Y31821689D01*
X22559862Y31752220D01*
X22528587Y31689741D01*
X22525514Y31686557D01*
X22003577Y31164620D01*
X21983727Y31148499D01*
X21974419Y31142418D01*
X21954715Y31117102D01*
X21944569Y31105610D01*
X21944425Y31105467D01*
X21944417Y31105457D01*
X21932186Y31088329D01*
X21929131Y31084233D01*
X21896625Y31042467D01*
X21892849Y31035490D01*
X21889345Y31028324D01*
X21874247Y30977608D01*
X21872683Y30972727D01*
X21855499Y30922675D01*
X21854192Y30914838D01*
X21851936Y30896740D01*
X21850258Y30896950D01*
X21846265Y30869559D01*
X21842880Y30859700D01*
X21841576Y30851886D01*
X21840588Y30843960D01*
X21842775Y30791112D01*
X21842881Y30785987D01*
X21842881Y18237936D01*
X21823196Y18170897D01*
X21816736Y18161776D01*
X21794484Y18133187D01*
X21790708Y18126209D01*
X21787204Y18119043D01*
X21772106Y18068327D01*
X21770542Y18063446D01*
X21753358Y18013394D01*
X21752054Y18005579D01*
X21751066Y17997653D01*
X21753253Y17944805D01*
X21753359Y17939680D01*
X21753359Y12919362D01*
X21750720Y12893914D01*
X21748440Y12883041D01*
X21044500Y12883041D01*
X21044500Y29605942D01*
X21064185Y29672981D01*
X21080815Y29693619D01*
X21329148Y29941953D01*
X21337100Y29949240D01*
X21367973Y29975144D01*
X21371446Y29981162D01*
X21388117Y30010035D01*
X21393933Y30019164D01*
X21397126Y30023725D01*
X21417039Y30052161D01*
X21417040Y30052167D01*
X21418237Y30054732D01*
X21427745Y30077685D01*
X21428714Y30080352D01*
X21428718Y30080357D01*
X21435718Y30120060D01*
X21438055Y30130596D01*
X21448482Y30169510D01*
X21444972Y30209633D01*
X21444500Y30220441D01*
X21444500Y32671995D01*
X21464185Y32739034D01*
X21516989Y32784789D01*
X21584684Y32794934D01*
X21619998Y32790284D01*
X21777804Y32811060D01*
X21924856Y32871970D01*
X22051132Y32968866D01*
X22148028Y33095142D01*
X22208938Y33242194D01*
X22229714Y33400000D01*
X22208938Y33557806D01*
X22148028Y33704858D01*
X22051132Y33831134D01*
X21924856Y33928030D01*
X21924855Y33928031D01*
X21924853Y33928032D01*
X21777807Y33988939D01*
X21777805Y33988940D01*
X21777804Y33988940D01*
X21698901Y33999328D01*
X21619999Y34009716D01*
X21619997Y34009716D01*
X21462192Y33988940D01*
X21462188Y33988939D01*
X21315142Y33928032D01*
X21188861Y33831132D01*
X21166875Y33802479D01*
X21110447Y33761276D01*
X21040701Y33757122D01*
X20979781Y33791335D01*
X20947028Y33853053D01*
X20944500Y33877966D01*
X20944500Y38874233D01*
X20964185Y38941272D01*
X21016989Y38987027D01*
X21052311Y38997172D01*
X21157804Y39011060D01*
X21304856Y39071970D01*
X21431132Y39168866D01*
X21528028Y39295142D01*
X21588938Y39442194D01*
X21609714Y39600000D01*
X21588938Y39757806D01*
X21532901Y39893094D01*
X21528029Y39904856D01*
X21528028Y39904857D01*
X21528028Y39904858D01*
X21431132Y40031134D01*
X21304856Y40128030D01*
X21304855Y40128031D01*
X21304853Y40128032D01*
X21157807Y40188939D01*
X21157805Y40188940D01*
X21157804Y40188940D01*
X21073789Y40200001D01*
X20999999Y40209716D01*
X20999997Y40209716D01*
X20842192Y40188940D01*
X20842188Y40188939D01*
X20695142Y40128032D01*
X20568864Y40031134D01*
X20471966Y39904856D01*
X20411059Y39757810D01*
X20411058Y39757806D01*
X20390282Y39600001D01*
X20390282Y39599999D01*
X20396371Y39553748D01*
X20385605Y39484713D01*
X20353141Y39442577D01*
X20332032Y39424864D01*
X20332025Y39424856D01*
X20311885Y39389972D01*
X20306076Y39380853D01*
X20282960Y39347839D01*
X20281794Y39345339D01*
X20272233Y39322259D01*
X20271280Y39319642D01*
X20264283Y39279961D01*
X20261943Y39269405D01*
X20251516Y39230491D01*
X20255028Y39190358D01*
X20255500Y39179550D01*
X20255500Y38763402D01*
X20235815Y38696363D01*
X20183011Y38650608D01*
X20113853Y38640664D01*
X20108813Y38641697D01*
X20104478Y38642268D01*
X19964712Y38660669D01*
X19946673Y38663044D01*
X19946671Y38663044D01*
X19788866Y38642268D01*
X19788862Y38642267D01*
X19641816Y38581360D01*
X19515538Y38484462D01*
X19418640Y38358184D01*
X19357733Y38211138D01*
X19357732Y38211134D01*
X19348003Y38137233D01*
X19336956Y38053328D01*
X19351004Y37946622D01*
X19357732Y37895523D01*
X19357733Y37895519D01*
X19418640Y37748473D01*
X19418641Y37748471D01*
X19418642Y37748470D01*
X19439597Y37721162D01*
X19464791Y37655995D01*
X19465221Y37645676D01*
X19465221Y36913561D01*
X19445536Y36846522D01*
X19392732Y36800767D01*
X19325036Y36790622D01*
X19180002Y36809716D01*
X19179999Y36809716D01*
X19022194Y36788940D01*
X19022190Y36788939D01*
X18875144Y36728032D01*
X18748866Y36631134D01*
X18651968Y36504856D01*
X18591061Y36357810D01*
X18591060Y36357806D01*
X18570284Y36200001D01*
X18570284Y36200000D01*
X18591060Y36042195D01*
X18591061Y36042191D01*
X18651968Y35895145D01*
X18651969Y35895143D01*
X18651970Y35895142D01*
X18725849Y35798862D01*
X18735628Y35786118D01*
X18760822Y35720948D01*
X18746784Y35652504D01*
X18697970Y35602514D01*
X18669347Y35590857D01*
X18662194Y35588941D01*
X18515144Y35528032D01*
X18388866Y35431134D01*
X18291968Y35304856D01*
X18231061Y35157810D01*
X18231060Y35157806D01*
X18210284Y35000001D01*
X18210284Y35000000D01*
X18231060Y34842195D01*
X18231061Y34842191D01*
X18291968Y34695145D01*
X18291969Y34695144D01*
X18291970Y34695142D01*
X18388866Y34568866D01*
X18446986Y34524268D01*
X18488189Y34467842D01*
X18495500Y34425893D01*
X18495500Y33456460D01*
X18475815Y33389421D01*
X18423011Y33343666D01*
X18353853Y33333722D01*
X18296014Y33358084D01*
X18204858Y33428030D01*
X18204856Y33428031D01*
X18057809Y33488939D01*
X18057807Y33488940D01*
X18057806Y33488940D01*
X17978903Y33499328D01*
X17900001Y33509716D01*
X17899999Y33509716D01*
X17742194Y33488940D01*
X17742190Y33488939D01*
X17595144Y33428032D01*
X17478987Y33338900D01*
X17413817Y33313706D01*
X17345373Y33327744D01*
X17295383Y33376558D01*
X17279500Y33437276D01*
X17279500Y48868097D01*
X17299185Y48935136D01*
X17328015Y48966473D01*
X17331134Y48968866D01*
X17428030Y49095142D01*
X17488940Y49242194D01*
X17509716Y49400000D01*
X17488940Y49557806D01*
X17446403Y49660501D01*
X17428031Y49704856D01*
X17428030Y49704857D01*
X17428030Y49704858D01*
X17331134Y49831134D01*
X17204858Y49928030D01*
X17204857Y49928031D01*
X17204855Y49928032D01*
X17057809Y49988939D01*
X17057807Y49988940D01*
X17057806Y49988940D01*
X16978903Y49999328D01*
X16900001Y50009716D01*
X16899999Y50009716D01*
X16742194Y49988940D01*
X16742190Y49988939D01*
X16595144Y49928032D01*
X16468866Y49831134D01*
X16371968Y49704856D01*
X16311061Y49557810D01*
X16311060Y49557806D01*
X16303450Y49500000D01*
X16290284Y49400000D01*
X16306274Y49278543D01*
X16311060Y49242195D01*
X16311061Y49242191D01*
X16371968Y49095145D01*
X16371969Y49095143D01*
X16371970Y49095142D01*
X16403789Y49053675D01*
X16461393Y48978604D01*
X16468866Y48968866D01*
X16471983Y48966475D01*
X16473946Y48963786D01*
X16474609Y48963123D01*
X16474505Y48963020D01*
X16513187Y48910051D01*
X16520500Y48868097D01*
X16520500Y30552221D01*
X16517861Y30526775D01*
X16515860Y30517231D01*
X16515581Y30515900D01*
X16519548Y30484077D01*
X16520500Y30468738D01*
X16520500Y30468557D01*
X16523959Y30447825D01*
X16524697Y30442758D01*
X16531247Y30390219D01*
X16533505Y30382633D01*
X16536101Y30375070D01*
X16561279Y30328546D01*
X16563624Y30323990D01*
X16586874Y30276431D01*
X16591472Y30269992D01*
X16596381Y30263684D01*
X16635323Y30227835D01*
X16638995Y30224311D01*
X16955539Y29907767D01*
X16989024Y29846444D01*
X16990798Y29803905D01*
X16990284Y29800000D01*
X17006456Y29677161D01*
X17011060Y29642195D01*
X17011061Y29642191D01*
X17071968Y29495145D01*
X17071969Y29495143D01*
X17071970Y29495142D01*
X17168866Y29368866D01*
X17295142Y29271970D01*
X17442194Y29211060D01*
X17581640Y29192702D01*
X17599999Y29190284D01*
X17600000Y29190284D01*
X17600001Y29190284D01*
X17616446Y29192450D01*
X17757806Y29211060D01*
X17904858Y29271970D01*
X17936014Y29295878D01*
X18001182Y29321071D01*
X18069627Y29307033D01*
X18119617Y29258219D01*
X18135500Y29197501D01*
X18135500Y25821059D01*
X18115815Y25754020D01*
X18063011Y25708265D01*
X17993853Y25698321D01*
X17930297Y25727346D01*
X17923819Y25733378D01*
X17688702Y25968495D01*
X17655217Y26029818D01*
X17653444Y26072362D01*
X17659716Y26120000D01*
X17655824Y26149560D01*
X17638940Y26277806D01*
X17578030Y26424858D01*
X17481134Y26551134D01*
X17354858Y26648030D01*
X17354857Y26648031D01*
X17354855Y26648032D01*
X17207809Y26708939D01*
X17207807Y26708940D01*
X17207806Y26708940D01*
X17128903Y26719328D01*
X17050001Y26729716D01*
X17049999Y26729716D01*
X16952784Y26716917D01*
X16883748Y26727682D01*
X16831492Y26774062D01*
X16812607Y26841331D01*
X16833087Y26908132D01*
X16848913Y26927533D01*
X17152234Y27230855D01*
X17213555Y27264338D01*
X17256104Y27266110D01*
X17260000Y27265597D01*
X17417806Y27286373D01*
X17564858Y27347283D01*
X17691134Y27444179D01*
X17788030Y27570455D01*
X17848940Y27717507D01*
X17869716Y27875313D01*
X17848940Y28033119D01*
X17797187Y28158063D01*
X17788031Y28180169D01*
X17788030Y28180170D01*
X17788030Y28180171D01*
X17691134Y28306447D01*
X17564858Y28403343D01*
X17564857Y28403344D01*
X17564855Y28403345D01*
X17417809Y28464252D01*
X17417807Y28464253D01*
X17417806Y28464253D01*
X17338903Y28474641D01*
X17260001Y28485029D01*
X17259999Y28485029D01*
X17102194Y28464253D01*
X17102190Y28464252D01*
X16955144Y28403345D01*
X16828866Y28306447D01*
X16731968Y28180169D01*
X16671061Y28033123D01*
X16671060Y28033119D01*
X16650284Y27875314D01*
X16650284Y27875311D01*
X16650797Y27871413D01*
X16650284Y27868124D01*
X16650284Y27867186D01*
X16650138Y27867186D01*
X16640031Y27802377D01*
X16615539Y27767548D01*
X16143577Y27295586D01*
X16123727Y27279465D01*
X16114419Y27273384D01*
X16094715Y27248068D01*
X16084569Y27236576D01*
X16084425Y27236433D01*
X16084417Y27236423D01*
X16072186Y27219295D01*
X16069131Y27215199D01*
X16036625Y27173433D01*
X16032849Y27166456D01*
X16029345Y27159290D01*
X16014247Y27108574D01*
X16012683Y27103693D01*
X15995499Y27053641D01*
X15994195Y27045826D01*
X15993207Y27037900D01*
X15995394Y26985052D01*
X15995500Y26979927D01*
X15995500Y22392682D01*
X15988781Y22352419D01*
X15975499Y22313733D01*
X15974195Y22305918D01*
X15973207Y22297992D01*
X15975394Y22245144D01*
X15975500Y22240019D01*
X15975500Y15863557D01*
X15955815Y15796518D01*
X15939181Y15775876D01*
X15768577Y15605273D01*
X15748727Y15589152D01*
X15739419Y15583071D01*
X15719715Y15557755D01*
X15709569Y15546263D01*
X15709425Y15546120D01*
X15709417Y15546110D01*
X15697186Y15528982D01*
X15694131Y15524886D01*
X15661625Y15483120D01*
X15657849Y15476143D01*
X15654345Y15468977D01*
X15639247Y15418261D01*
X15637683Y15413380D01*
X15620499Y15363328D01*
X15619195Y15355513D01*
X15618207Y15347587D01*
X15620394Y15294739D01*
X15620500Y15289614D01*
X15620500Y10131905D01*
X15600815Y10064866D01*
X15571989Y10033531D01*
X15568866Y10031136D01*
X15471970Y9904860D01*
X15471969Y9904857D01*
X15411061Y9757810D01*
X15411060Y9757806D01*
X15390284Y9600001D01*
X15390284Y9600000D01*
X15104500Y9600000D01*
X15104500Y25906126D01*
X15124185Y25973165D01*
X15176989Y26018920D01*
X15181048Y26020687D01*
X15183149Y26021558D01*
X15304858Y26071970D01*
X15431134Y26168866D01*
X15528030Y26295142D01*
X15588940Y26442194D01*
X15609716Y26600000D01*
X15588940Y26757806D01*
X15538208Y26880286D01*
X15528031Y26904856D01*
X15528030Y26904857D01*
X15528030Y26904858D01*
X15431134Y27031134D01*
X15304858Y27128030D01*
X15304857Y27128031D01*
X15304855Y27128032D01*
X15157809Y27188939D01*
X15157807Y27188940D01*
X15157806Y27188940D01*
X15073768Y27200004D01*
X15000001Y27209716D01*
X14999999Y27209716D01*
X14842194Y27188940D01*
X14842190Y27188939D01*
X14695144Y27128032D01*
X14568866Y27031134D01*
X14471968Y26904856D01*
X14411061Y26757810D01*
X14411060Y26757806D01*
X14408052Y26734959D01*
X14379784Y26671063D01*
X14321459Y26632593D01*
X14268928Y26628208D01*
X14115434Y26648416D01*
X14115431Y26648416D01*
X13957626Y26627640D01*
X13957622Y26627639D01*
X13810576Y26566732D01*
X13684295Y26469832D01*
X13617924Y26383336D01*
X13561496Y26342134D01*
X13491750Y26337979D01*
X13430830Y26372192D01*
X13398078Y26433909D01*
X13395549Y26458823D01*
X13395549Y32130720D01*
X13415234Y32197759D01*
X13421174Y32206207D01*
X13422495Y32207930D01*
X13428030Y32215142D01*
X13488940Y32362194D01*
X13509716Y32520000D01*
X13488940Y32677806D01*
X13433745Y32811061D01*
X13428031Y32824856D01*
X13428030Y32824857D01*
X13428030Y32824858D01*
X13331134Y32951134D01*
X13204858Y33048030D01*
X13204857Y33048031D01*
X13204855Y33048032D01*
X13057809Y33108939D01*
X13057807Y33108940D01*
X13057806Y33108940D01*
X12978903Y33119328D01*
X12900001Y33129716D01*
X12899999Y33129716D01*
X12742194Y33108940D01*
X12742190Y33108939D01*
X12595144Y33048032D01*
X12468866Y32951134D01*
X12371968Y32824856D01*
X12311061Y32677810D01*
X12311060Y32677806D01*
X12300817Y32600001D01*
X12290284Y32520000D01*
X12300527Y32442195D01*
X12311060Y32362195D01*
X12311061Y32362191D01*
X12371968Y32215145D01*
X12371969Y32215144D01*
X12371970Y32215142D01*
X12468866Y32088866D01*
X12595142Y31991970D01*
X12595143Y31991970D01*
X12595144Y31991969D01*
X12630001Y31977531D01*
X12684405Y31933691D01*
X12706470Y31867397D01*
X12706549Y31862970D01*
X12706549Y26104934D01*
X12686864Y26037895D01*
X12634060Y25992140D01*
X12566364Y25981995D01*
X12431051Y25999809D01*
X12431048Y25999809D01*
X12273243Y25979033D01*
X12273239Y25979032D01*
X12126193Y25918125D01*
X11999915Y25821227D01*
X11903017Y25694949D01*
X11842110Y25547903D01*
X11842109Y25547899D01*
X11821333Y25390094D01*
X11821333Y25390093D01*
X11842109Y25232288D01*
X11842110Y25232284D01*
X11903017Y25085238D01*
X11903018Y25085236D01*
X11903019Y25085235D01*
X11977907Y24987640D01*
X11999919Y24958954D01*
X12005662Y24953211D01*
X12004021Y24951571D01*
X12038188Y24904783D01*
X12045500Y24862830D01*
X12045500Y20666080D01*
X12025815Y20599041D01*
X11973011Y20553286D01*
X11937687Y20543141D01*
X11822589Y20527987D01*
X11822585Y20527986D01*
X11675539Y20467079D01*
X11549261Y20370181D01*
X11452363Y20243903D01*
X11391456Y20096857D01*
X11391455Y20096853D01*
X11371400Y19944520D01*
X11370679Y19939047D01*
X9634063Y19939047D01*
X9634382Y19944520D01*
X9603511Y20119599D01*
X9533096Y20282838D01*
X9426933Y20425439D01*
X9354112Y20486543D01*
X9290746Y20539714D01*
X9290744Y20539715D01*
X9131881Y20619500D01*
X9131877Y20619501D01*
X8958890Y20660500D01*
X8825708Y20660500D01*
X8815905Y20659355D01*
X8764531Y20653350D01*
X8695660Y20665120D01*
X8644085Y20712256D01*
X8626181Y20779793D01*
X8647633Y20846288D01*
X8697974Y20887630D01*
X8697815Y20887906D01*
X8699488Y20888873D01*
X8701629Y20890630D01*
X8702400Y20890954D01*
X8704854Y20891970D01*
X8831130Y20988866D01*
X8928026Y21115142D01*
X8988936Y21262194D01*
X9009712Y21420000D01*
X9008395Y21430000D01*
X8989843Y21570915D01*
X9000608Y21639950D01*
X9046988Y21692206D01*
X9070369Y21703622D01*
X9213635Y21755766D01*
X9362168Y21853457D01*
X9484167Y21982769D01*
X9573057Y22136731D01*
X9624045Y22307042D01*
X9634382Y22484520D01*
X9603511Y22659599D01*
X9533096Y22822838D01*
X9426933Y22965439D01*
X9354112Y23026543D01*
X9290746Y23079714D01*
X9290744Y23079715D01*
X9131881Y23159500D01*
X9131877Y23159501D01*
X8958890Y23200500D01*
X8825708Y23200500D01*
X8709958Y23186971D01*
X8693422Y23185038D01*
X8693419Y23185037D01*
X8526367Y23124236D01*
X8524149Y23123121D01*
X8522465Y23122816D01*
X8519578Y23121764D01*
X8519398Y23122258D01*
X8455405Y23110626D01*
X8390819Y23137280D01*
X8350897Y23194621D01*
X8344500Y23233933D01*
X8344500Y24191861D01*
X8364185Y24258900D01*
X8416989Y24304655D01*
X8486147Y24314599D01*
X8524151Y24302671D01*
X8608118Y24260501D01*
X8608119Y24260501D01*
X8608123Y24260499D01*
X8781110Y24219500D01*
X8781113Y24219500D01*
X8914285Y24219500D01*
X8914292Y24219500D01*
X9046577Y24234962D01*
X9213635Y24295766D01*
X9362168Y24393457D01*
X9484167Y24522769D01*
X9573057Y24676731D01*
X9624045Y24847042D01*
X9634382Y25024520D01*
X9603511Y25199599D01*
X9533096Y25362838D01*
X9512805Y25390093D01*
X9459546Y25461632D01*
X9426933Y25505439D01*
X9413684Y25516556D01*
X9290746Y25619714D01*
X9290744Y25619715D01*
X9131881Y25699500D01*
X9131877Y25699501D01*
X8958890Y25740500D01*
X8825708Y25740500D01*
X8713169Y25727346D01*
X8693422Y25725038D01*
X8693419Y25725037D01*
X8526367Y25664236D01*
X8524149Y25663121D01*
X8522465Y25662816D01*
X8519578Y25661764D01*
X8519398Y25662258D01*
X8455405Y25650626D01*
X8390819Y25677280D01*
X8350897Y25734621D01*
X8344500Y25773933D01*
X8344500Y26731861D01*
X8364185Y26798900D01*
X8416989Y26844655D01*
X8486147Y26854599D01*
X8524151Y26842671D01*
X8608118Y26800501D01*
X8608119Y26800501D01*
X8608123Y26800499D01*
X8781110Y26759500D01*
X8781113Y26759500D01*
X8914285Y26759500D01*
X8914292Y26759500D01*
X9046577Y26774962D01*
X9213635Y26835766D01*
X9362168Y26933457D01*
X9484167Y27062769D01*
X9573057Y27216731D01*
X9624045Y27387042D01*
X9634382Y27564520D01*
X9603511Y27739599D01*
X9533096Y27902838D01*
X9426933Y28045439D01*
X9395990Y28071403D01*
X9290746Y28159714D01*
X9290744Y28159715D01*
X9131881Y28239500D01*
X9131877Y28239501D01*
X8958890Y28280500D01*
X8825708Y28280500D01*
X8709958Y28266971D01*
X8693422Y28265038D01*
X8693419Y28265037D01*
X8526367Y28204236D01*
X8524149Y28203121D01*
X8522465Y28202816D01*
X8519578Y28201764D01*
X8519398Y28202258D01*
X8455405Y28190626D01*
X8390819Y28217280D01*
X8350897Y28274621D01*
X8344500Y28313933D01*
X8344500Y28691238D01*
X8364185Y28758277D01*
X8393011Y28789612D01*
X8431134Y28818864D01*
X8528030Y28945140D01*
X8588940Y29092192D01*
X8603299Y29201259D01*
X8631564Y29265153D01*
X8689888Y29303624D01*
X8754832Y29305728D01*
X8781110Y29299500D01*
X8781111Y29299500D01*
X8914285Y29299500D01*
X8914292Y29299500D01*
X9046577Y29314962D01*
X9213635Y29375766D01*
X9362168Y29473457D01*
X9484167Y29602769D01*
X9573057Y29756731D01*
X9624045Y29927042D01*
X9634382Y30104520D01*
X9603511Y30279599D01*
X9533096Y30442838D01*
X9531274Y30445285D01*
X9430076Y30581217D01*
X9426933Y30585439D01*
X9375486Y30628608D01*
X9290746Y30699714D01*
X9290744Y30699715D01*
X9131881Y30779500D01*
X9131877Y30779501D01*
X8958890Y30820500D01*
X8825708Y30820500D01*
X8709958Y30806971D01*
X8693422Y30805038D01*
X8693419Y30805037D01*
X8526367Y30744236D01*
X8458675Y30699714D01*
X8377832Y30646543D01*
X8377831Y30646543D01*
X8377831Y30646542D01*
X8255833Y30517233D01*
X8166944Y30363272D01*
X8166943Y30363270D01*
X8166943Y30363269D01*
X8158618Y30335461D01*
X8115955Y30192959D01*
X8115954Y30192954D01*
X8105618Y30015483D01*
X8105618Y30015480D01*
X8107572Y30004400D01*
X8099826Y29934961D01*
X8055768Y29880733D01*
X8001641Y29859931D01*
X7863758Y29841777D01*
X7842194Y29838938D01*
X7842193Y29838938D01*
X7842190Y29838937D01*
X7695144Y29778030D01*
X7568866Y29681132D01*
X7471968Y29554854D01*
X7411061Y29407808D01*
X7411060Y29407804D01*
X7392318Y29265444D01*
X7390284Y29249998D01*
X3424500Y29249998D01*
X3424500Y29598168D01*
X3444185Y29665207D01*
X3496989Y29710962D01*
X3501007Y29712712D01*
X3540121Y29728913D01*
X3666397Y29825809D01*
X3763293Y29952085D01*
X3789552Y30015480D01*
X5565618Y30015480D01*
X5593083Y29859714D01*
X5596489Y29840401D01*
X5614574Y29798476D01*
X5666904Y29677161D01*
X5725713Y29598168D01*
X5773067Y29534561D01*
X5909254Y29420286D01*
X5967581Y29390993D01*
X6068118Y29340501D01*
X6068119Y29340501D01*
X6068123Y29340499D01*
X6241110Y29299500D01*
X6241113Y29299500D01*
X6374285Y29299500D01*
X6374292Y29299500D01*
X6506577Y29314962D01*
X6673635Y29375766D01*
X6822168Y29473457D01*
X6944167Y29602769D01*
X7033057Y29756731D01*
X7084045Y29927042D01*
X7094382Y30104520D01*
X7063511Y30279599D01*
X6993096Y30442838D01*
X6991274Y30445285D01*
X6890076Y30581217D01*
X6886933Y30585439D01*
X6835486Y30628608D01*
X6750746Y30699714D01*
X6750744Y30699715D01*
X6591881Y30779500D01*
X6591877Y30779501D01*
X6418890Y30820500D01*
X6285708Y30820500D01*
X6169958Y30806971D01*
X6153422Y30805038D01*
X6153419Y30805037D01*
X5986367Y30744236D01*
X5918675Y30699714D01*
X5837832Y30646543D01*
X5837831Y30646543D01*
X5837831Y30646542D01*
X5715833Y30517233D01*
X5626944Y30363272D01*
X5626943Y30363270D01*
X5626943Y30363269D01*
X5618618Y30335461D01*
X5575955Y30192959D01*
X5575954Y30192954D01*
X5565618Y30015481D01*
X5565618Y30015480D01*
X3789552Y30015480D01*
X3824203Y30099137D01*
X3844979Y30256943D01*
X3843161Y30270748D01*
X3841975Y30279762D01*
X3824203Y30414749D01*
X3763293Y30561801D01*
X3666397Y30688077D01*
X3540121Y30784973D01*
X3540120Y30784974D01*
X3540118Y30784975D01*
X3393072Y30845882D01*
X3393070Y30845883D01*
X3393069Y30845883D01*
X3314166Y30856271D01*
X3235264Y30866659D01*
X3235261Y30866659D01*
X3084685Y30846835D01*
X3015650Y30857600D01*
X2963394Y30903980D01*
X2944500Y30969774D01*
X2944500Y32130127D01*
X2964185Y32197166D01*
X3016989Y32242921D01*
X3021029Y32244680D01*
X3044858Y32254550D01*
X3171134Y32351446D01*
X3268030Y32477722D01*
X3300238Y32555480D01*
X5565618Y32555480D01*
X5582259Y32461100D01*
X5596489Y32380401D01*
X5604343Y32362194D01*
X5666904Y32217161D01*
X5762417Y32088866D01*
X5773067Y32074561D01*
X5909254Y31960286D01*
X5962209Y31933691D01*
X6068118Y31880501D01*
X6068119Y31880501D01*
X6068123Y31880499D01*
X6241110Y31839500D01*
X6241113Y31839500D01*
X6374285Y31839500D01*
X6374292Y31839500D01*
X6506577Y31854962D01*
X6673635Y31915766D01*
X6822168Y32013457D01*
X6944167Y32142769D01*
X7033057Y32296731D01*
X7084045Y32467042D01*
X7089196Y32555480D01*
X8105618Y32555480D01*
X8122259Y32461100D01*
X8136489Y32380401D01*
X8144343Y32362194D01*
X8206904Y32217161D01*
X8302417Y32088866D01*
X8313067Y32074561D01*
X8449254Y31960286D01*
X8502209Y31933691D01*
X8608118Y31880501D01*
X8608119Y31880501D01*
X8608123Y31880499D01*
X8781110Y31839500D01*
X8781113Y31839500D01*
X8914285Y31839500D01*
X8914292Y31839500D01*
X9046577Y31854962D01*
X9213635Y31915766D01*
X9362168Y32013457D01*
X9484167Y32142769D01*
X9573057Y32296731D01*
X9624045Y32467042D01*
X9634382Y32644520D01*
X9603511Y32819599D01*
X9533096Y32982838D01*
X9514643Y33007624D01*
X9426932Y33125440D01*
X9290746Y33239714D01*
X9290744Y33239715D01*
X9131881Y33319500D01*
X9131877Y33319501D01*
X8958890Y33360500D01*
X8825708Y33360500D01*
X8709958Y33346971D01*
X8693422Y33345038D01*
X8693419Y33345037D01*
X8526367Y33284236D01*
X8458675Y33239714D01*
X8377832Y33186543D01*
X8377831Y33186543D01*
X8377831Y33186542D01*
X8255833Y33057233D01*
X8166944Y32903272D01*
X8166943Y32903270D01*
X8166943Y32903269D01*
X8158164Y32873944D01*
X8115955Y32732959D01*
X8115954Y32732954D01*
X8105618Y32555481D01*
X8105618Y32555480D01*
X7089196Y32555480D01*
X7094382Y32644520D01*
X7063511Y32819599D01*
X6993096Y32982838D01*
X6974643Y33007624D01*
X6886932Y33125440D01*
X6750746Y33239714D01*
X6750744Y33239715D01*
X6591881Y33319500D01*
X6591877Y33319501D01*
X6418890Y33360500D01*
X6285708Y33360500D01*
X6169958Y33346971D01*
X6153422Y33345038D01*
X6153419Y33345037D01*
X5986367Y33284236D01*
X5918675Y33239714D01*
X5837832Y33186543D01*
X5837831Y33186543D01*
X5837831Y33186542D01*
X5715833Y33057233D01*
X5626944Y32903272D01*
X5626943Y32903270D01*
X5626943Y32903269D01*
X5618164Y32873944D01*
X5575955Y32732959D01*
X5575954Y32732954D01*
X5565618Y32555481D01*
X5565618Y32555480D01*
X3300238Y32555480D01*
X3328940Y32624774D01*
X3349716Y32782580D01*
X3328940Y32940386D01*
X3268030Y33087438D01*
X3171134Y33213714D01*
X3044858Y33310610D01*
X3044857Y33310611D01*
X3044855Y33310612D01*
X2897809Y33371519D01*
X2897807Y33371520D01*
X2897806Y33371520D01*
X2793534Y33385248D01*
X2740001Y33392296D01*
X2739998Y33392296D01*
X2604685Y33374482D01*
X2535650Y33385248D01*
X2483394Y33431628D01*
X2464500Y33497421D01*
X2464500Y35095480D01*
X5565618Y35095480D01*
X5591188Y34950460D01*
X5596489Y34920401D01*
X5625033Y34854228D01*
X5666904Y34757161D01*
X5741226Y34657331D01*
X5773067Y34614561D01*
X5909254Y34500286D01*
X5987990Y34460743D01*
X6068118Y34420501D01*
X6068119Y34420501D01*
X6068123Y34420499D01*
X6241110Y34379500D01*
X6241113Y34379500D01*
X6374285Y34379500D01*
X6374292Y34379500D01*
X6506577Y34394962D01*
X6673635Y34455766D01*
X6822168Y34553457D01*
X6944167Y34682769D01*
X7033057Y34836731D01*
X7084045Y35007042D01*
X7089196Y35095480D01*
X8105618Y35095480D01*
X8131188Y34950460D01*
X8136489Y34920401D01*
X8165033Y34854228D01*
X8206904Y34757161D01*
X8281226Y34657331D01*
X8313067Y34614561D01*
X8449254Y34500286D01*
X8527990Y34460743D01*
X8608118Y34420501D01*
X8608119Y34420501D01*
X8608123Y34420499D01*
X8781110Y34379500D01*
X8781113Y34379500D01*
X8914285Y34379500D01*
X8914292Y34379500D01*
X9046577Y34394962D01*
X9213635Y34455766D01*
X9362168Y34553457D01*
X9484167Y34682769D01*
X9573057Y34836731D01*
X9624045Y35007042D01*
X9634382Y35184520D01*
X9603511Y35359599D01*
X9533096Y35522838D01*
X9529229Y35528032D01*
X9426932Y35665440D01*
X9290746Y35779714D01*
X9290744Y35779715D01*
X9131881Y35859500D01*
X9131877Y35859501D01*
X8958890Y35900500D01*
X8825708Y35900500D01*
X8709958Y35886971D01*
X8693422Y35885038D01*
X8693419Y35885037D01*
X8526367Y35824236D01*
X8458675Y35779714D01*
X8377832Y35726543D01*
X8377831Y35726543D01*
X8377831Y35726542D01*
X8255833Y35597233D01*
X8166944Y35443272D01*
X8115955Y35272959D01*
X8115954Y35272954D01*
X8105618Y35095481D01*
X8105618Y35095480D01*
X7089196Y35095480D01*
X7094382Y35184520D01*
X7063511Y35359599D01*
X6993096Y35522838D01*
X6989229Y35528032D01*
X6886932Y35665440D01*
X6750746Y35779714D01*
X6750744Y35779715D01*
X6591881Y35859500D01*
X6591877Y35859501D01*
X6418890Y35900500D01*
X6285708Y35900500D01*
X6169958Y35886971D01*
X6153422Y35885038D01*
X6153419Y35885037D01*
X5986367Y35824236D01*
X5918675Y35779714D01*
X5837832Y35726543D01*
X5837831Y35726543D01*
X5837831Y35726542D01*
X5715833Y35597233D01*
X5626944Y35443272D01*
X5575955Y35272959D01*
X5575954Y35272954D01*
X5565618Y35095481D01*
X5565618Y35095480D01*
X2464500Y35095480D01*
X2464500Y37170257D01*
X2484185Y37237296D01*
X2490125Y37245744D01*
X2528030Y37295142D01*
X2588940Y37442194D01*
X2609716Y37600000D01*
X2605045Y37635480D01*
X5565618Y37635480D01*
X5584508Y37528345D01*
X5596489Y37460401D01*
X5604343Y37442194D01*
X5666904Y37297161D01*
X5762417Y37168866D01*
X5773067Y37154561D01*
X5909254Y37040286D01*
X5936585Y37026560D01*
X6068118Y36960501D01*
X6068119Y36960501D01*
X6068123Y36960499D01*
X6241110Y36919500D01*
X6241113Y36919500D01*
X6374285Y36919500D01*
X6374292Y36919500D01*
X6506577Y36934962D01*
X6673635Y36995766D01*
X6822168Y37093457D01*
X6944167Y37222769D01*
X7033057Y37376731D01*
X7084045Y37547042D01*
X7089196Y37635480D01*
X8105618Y37635480D01*
X8124508Y37528345D01*
X8136489Y37460401D01*
X8144343Y37442194D01*
X8206904Y37297161D01*
X8302417Y37168866D01*
X8313067Y37154561D01*
X8449254Y37040286D01*
X8476585Y37026560D01*
X8608118Y36960501D01*
X8608119Y36960501D01*
X8608123Y36960499D01*
X8781110Y36919500D01*
X8781113Y36919500D01*
X8914285Y36919500D01*
X8914292Y36919500D01*
X9046577Y36934962D01*
X9213635Y36995766D01*
X9362168Y37093457D01*
X9484167Y37222769D01*
X9573057Y37376731D01*
X9624045Y37547042D01*
X9634382Y37724520D01*
X9603511Y37899599D01*
X9533096Y38062838D01*
X9426933Y38205439D01*
X9354112Y38266543D01*
X9290746Y38319714D01*
X9290744Y38319715D01*
X9131881Y38399500D01*
X9131877Y38399501D01*
X8958890Y38440500D01*
X8825708Y38440500D01*
X8709958Y38426971D01*
X8693422Y38425038D01*
X8693419Y38425037D01*
X8526367Y38364236D01*
X8458675Y38319714D01*
X8377832Y38266543D01*
X8377831Y38266543D01*
X8377831Y38266542D01*
X8255833Y38137233D01*
X8166944Y37983272D01*
X8115955Y37812959D01*
X8115954Y37812954D01*
X8105618Y37635481D01*
X8105618Y37635480D01*
X7089196Y37635480D01*
X7094382Y37724520D01*
X7063511Y37899599D01*
X6993096Y38062838D01*
X6886933Y38205439D01*
X6814112Y38266543D01*
X6750746Y38319714D01*
X6750744Y38319715D01*
X6591881Y38399500D01*
X6591877Y38399501D01*
X6418890Y38440500D01*
X6285708Y38440500D01*
X6169958Y38426971D01*
X6153422Y38425038D01*
X6153419Y38425037D01*
X5986367Y38364236D01*
X5918675Y38319714D01*
X5837832Y38266543D01*
X5837831Y38266543D01*
X5837831Y38266542D01*
X5715833Y38137233D01*
X5626944Y37983272D01*
X5575955Y37812959D01*
X5575954Y37812954D01*
X5565618Y37635481D01*
X5565618Y37635480D01*
X2605045Y37635480D01*
X2588940Y37757806D01*
X2528030Y37904858D01*
X2431134Y38031134D01*
X2304858Y38128030D01*
X2304857Y38128031D01*
X2304855Y38128032D01*
X2157809Y38188939D01*
X2157807Y38188940D01*
X2157806Y38188940D01*
X2078903Y38199328D01*
X2000001Y38209716D01*
X1999999Y38209716D01*
X1842194Y38188940D01*
X1842190Y38188939D01*
X1695144Y38128032D01*
X1568866Y38031134D01*
X1471968Y37904856D01*
X1411061Y37757810D01*
X1411060Y37757806D01*
X1390284Y37600000D01*
X1405425Y37484992D01*
X1411060Y37442195D01*
X1411061Y37442191D01*
X1471968Y37295145D01*
X1471969Y37295144D01*
X1471970Y37295142D01*
X1568866Y37168866D01*
X1695142Y37071970D01*
X1698948Y37070394D01*
X1701664Y37068206D01*
X1702179Y37067908D01*
X1702132Y37067828D01*
X1753350Y37026560D01*
X1775421Y36960268D01*
X1775500Y36955832D01*
X1775500Y33007624D01*
X1755815Y32940585D01*
X1703011Y32894830D01*
X1633853Y32884886D01*
X1604051Y32893061D01*
X1596948Y32896003D01*
X1584734Y32901062D01*
X1457979Y32917750D01*
X1426929Y32921838D01*
X1426927Y32921838D01*
X1269122Y32901062D01*
X1269118Y32901061D01*
X1122072Y32840154D01*
X995794Y32743256D01*
X898896Y32616978D01*
X837989Y32469932D01*
X837988Y32469928D01*
X817212Y32312123D01*
X817212Y32309097D01*
X816489Y32306638D01*
X816151Y32304064D01*
X815749Y32304117D01*
X797527Y32242058D01*
X744723Y32196303D01*
X677026Y32186158D01*
X650001Y32189716D01*
X649999Y32189716D01*
X492194Y32168940D01*
X471951Y32160555D01*
X402482Y32153087D01*
X340003Y32184363D01*
X304351Y32244453D01*
X300500Y32275117D01*
X300500Y40175480D01*
X5565618Y40175480D01*
X5592078Y40025414D01*
X5596489Y40000401D01*
X5613859Y39960133D01*
X5666904Y39837161D01*
X5735295Y39745297D01*
X5773067Y39694561D01*
X5909254Y39580286D01*
X5962096Y39553748D01*
X6068118Y39500501D01*
X6068119Y39500501D01*
X6068123Y39500499D01*
X6241110Y39459500D01*
X6241113Y39459500D01*
X6374285Y39459500D01*
X6374292Y39459500D01*
X6506577Y39474962D01*
X6673635Y39535766D01*
X6822168Y39633457D01*
X6944167Y39762769D01*
X7033057Y39916731D01*
X7084045Y40087042D01*
X7089196Y40175480D01*
X8105618Y40175480D01*
X8132078Y40025414D01*
X8136489Y40000401D01*
X8153859Y39960133D01*
X8206904Y39837161D01*
X8275295Y39745297D01*
X8313067Y39694561D01*
X8449254Y39580286D01*
X8502096Y39553748D01*
X8608118Y39500501D01*
X8608119Y39500501D01*
X8608123Y39500499D01*
X8781110Y39459500D01*
X8781113Y39459500D01*
X8914285Y39459500D01*
X8914292Y39459500D01*
X9046577Y39474962D01*
X9213635Y39535766D01*
X9362168Y39633457D01*
X9484167Y39762769D01*
X9573057Y39916731D01*
X9624045Y40087042D01*
X9634382Y40264520D01*
X9603511Y40439599D01*
X9533096Y40602838D01*
X9512030Y40631134D01*
X9458990Y40702379D01*
X9426933Y40745439D01*
X9354112Y40806543D01*
X9290746Y40859714D01*
X9290744Y40859715D01*
X9131881Y40939500D01*
X9131877Y40939501D01*
X8958890Y40980500D01*
X8825708Y40980500D01*
X8709958Y40966971D01*
X8693422Y40965038D01*
X8693419Y40965037D01*
X8526367Y40904236D01*
X8458675Y40859714D01*
X8377832Y40806543D01*
X8377831Y40806543D01*
X8377831Y40806542D01*
X8255833Y40677233D01*
X8166944Y40523272D01*
X8166943Y40523270D01*
X8166943Y40523269D01*
X8154000Y40480038D01*
X8115955Y40352959D01*
X8115954Y40352954D01*
X8105618Y40175481D01*
X8105618Y40175480D01*
X7089196Y40175480D01*
X7094382Y40264520D01*
X7063511Y40439599D01*
X6993096Y40602838D01*
X6972030Y40631134D01*
X6918990Y40702379D01*
X6886933Y40745439D01*
X6814112Y40806543D01*
X6750746Y40859714D01*
X6750744Y40859715D01*
X6591881Y40939500D01*
X6591877Y40939501D01*
X6418890Y40980500D01*
X6285708Y40980500D01*
X6169958Y40966971D01*
X6153422Y40965038D01*
X6153419Y40965037D01*
X5986367Y40904236D01*
X5918675Y40859714D01*
X5837832Y40806543D01*
X5837831Y40806543D01*
X5837831Y40806542D01*
X5715833Y40677233D01*
X5626944Y40523272D01*
X5626943Y40523270D01*
X5626943Y40523269D01*
X5614000Y40480038D01*
X5575955Y40352959D01*
X5575954Y40352954D01*
X5565618Y40175481D01*
X5565618Y40175480D01*
X300500Y40175480D01*
X300500Y42715480D01*
X5565618Y42715480D01*
X5596488Y42540404D01*
X5666904Y42377161D01*
X5726513Y42297093D01*
X5773067Y42234561D01*
X5909254Y42120286D01*
X5968991Y42090285D01*
X6068118Y42040501D01*
X6068119Y42040501D01*
X6068123Y42040499D01*
X6241110Y41999500D01*
X6241113Y41999500D01*
X6374285Y41999500D01*
X6374292Y41999500D01*
X6506577Y42014962D01*
X6673635Y42075766D01*
X6822168Y42173457D01*
X6944167Y42302769D01*
X7033057Y42456731D01*
X7084045Y42627042D01*
X7089196Y42715480D01*
X8105618Y42715480D01*
X8136488Y42540404D01*
X8206904Y42377161D01*
X8266513Y42297093D01*
X8313067Y42234561D01*
X8449254Y42120286D01*
X8508991Y42090285D01*
X8608118Y42040501D01*
X8608119Y42040501D01*
X8608123Y42040499D01*
X8781110Y41999500D01*
X8781113Y41999500D01*
X8914285Y41999500D01*
X8914292Y41999500D01*
X9046577Y42014962D01*
X9213635Y42075766D01*
X9362168Y42173457D01*
X9484167Y42302769D01*
X9573057Y42456731D01*
X9624045Y42627042D01*
X9634382Y42804520D01*
X9603511Y42979599D01*
X9533096Y43142838D01*
X9509786Y43174148D01*
X9426932Y43285440D01*
X9290746Y43399714D01*
X9290744Y43399715D01*
X9131881Y43479500D01*
X9131877Y43479501D01*
X8958890Y43520500D01*
X8825708Y43520500D01*
X8709958Y43506971D01*
X8693422Y43505038D01*
X8693419Y43505037D01*
X8526367Y43444236D01*
X8458675Y43399714D01*
X8377832Y43346543D01*
X8377831Y43346543D01*
X8377831Y43346542D01*
X8255833Y43217233D01*
X8166944Y43063272D01*
X8115955Y42892959D01*
X8115954Y42892954D01*
X8105618Y42715481D01*
X8105618Y42715480D01*
X7089196Y42715480D01*
X7094382Y42804520D01*
X7063511Y42979599D01*
X6993096Y43142838D01*
X6969786Y43174148D01*
X6886932Y43285440D01*
X6750746Y43399714D01*
X6750744Y43399715D01*
X6591881Y43479500D01*
X6591877Y43479501D01*
X6418890Y43520500D01*
X6285708Y43520500D01*
X6169958Y43506971D01*
X6153422Y43505038D01*
X6153419Y43505037D01*
X5986367Y43444236D01*
X5918675Y43399714D01*
X5837832Y43346543D01*
X5837831Y43346543D01*
X5837831Y43346542D01*
X5715833Y43217233D01*
X5626944Y43063272D01*
X5575955Y42892959D01*
X5575954Y42892954D01*
X5565618Y42715481D01*
X5565618Y42715480D01*
X300500Y42715480D01*
X300500Y45255480D01*
X5565618Y45255480D01*
X5593889Y45095142D01*
X5596489Y45080401D01*
X5612750Y45042705D01*
X5666904Y44917161D01*
X5773067Y44774561D01*
X5909254Y44660286D01*
X5987990Y44620743D01*
X6068118Y44580501D01*
X6068119Y44580501D01*
X6068123Y44580499D01*
X6241110Y44539500D01*
X6241113Y44539500D01*
X6374285Y44539500D01*
X6374292Y44539500D01*
X6506577Y44554962D01*
X6673635Y44615766D01*
X6822168Y44713457D01*
X6944167Y44842769D01*
X7033057Y44996731D01*
X7084045Y45167042D01*
X7089196Y45255480D01*
X8105618Y45255480D01*
X8133889Y45095142D01*
X8136489Y45080401D01*
X8152750Y45042705D01*
X8206904Y44917161D01*
X8313067Y44774561D01*
X8449254Y44660286D01*
X8527990Y44620743D01*
X8608118Y44580501D01*
X8608119Y44580501D01*
X8608123Y44580499D01*
X8781110Y44539500D01*
X8781113Y44539500D01*
X8914285Y44539500D01*
X8914292Y44539500D01*
X9046577Y44554962D01*
X9213635Y44615766D01*
X9362168Y44713457D01*
X9484167Y44842769D01*
X9573057Y44996731D01*
X9624045Y45167042D01*
X9634382Y45344520D01*
X9603511Y45519599D01*
X9533096Y45682838D01*
X9516704Y45704856D01*
X9438638Y45809716D01*
X9426933Y45825439D01*
X9354112Y45886543D01*
X9290746Y45939714D01*
X9290744Y45939715D01*
X9131881Y46019500D01*
X9131877Y46019501D01*
X8958890Y46060500D01*
X8825708Y46060500D01*
X8709958Y46046971D01*
X8693422Y46045038D01*
X8693419Y46045037D01*
X8526367Y45984236D01*
X8458675Y45939714D01*
X8377832Y45886543D01*
X8377831Y45886543D01*
X8377831Y45886542D01*
X8255833Y45757233D01*
X8166944Y45603272D01*
X8115955Y45432959D01*
X8115954Y45432954D01*
X8105618Y45255481D01*
X8105618Y45255480D01*
X7089196Y45255480D01*
X7094382Y45344520D01*
X7063511Y45519599D01*
X6993096Y45682838D01*
X6976704Y45704856D01*
X6898638Y45809716D01*
X6886933Y45825439D01*
X6814112Y45886543D01*
X6750746Y45939714D01*
X6750744Y45939715D01*
X6591881Y46019500D01*
X6591877Y46019501D01*
X6418890Y46060500D01*
X6285708Y46060500D01*
X6169958Y46046971D01*
X6153422Y46045038D01*
X6153419Y46045037D01*
X5986367Y45984236D01*
X5918675Y45939714D01*
X5837832Y45886543D01*
X5837831Y45886543D01*
X5837831Y45886542D01*
X5715833Y45757233D01*
X5626944Y45603272D01*
X5575955Y45432959D01*
X5575954Y45432954D01*
X5565618Y45255481D01*
X5565618Y45255480D01*
X300500Y45255480D01*
X300500Y47795480D01*
X5565618Y47795480D01*
X5595850Y47624022D01*
X5596489Y47620401D01*
X5611489Y47585627D01*
X5666904Y47457161D01*
X5724905Y47379253D01*
X5773067Y47314561D01*
X5909254Y47200286D01*
X5961299Y47174148D01*
X6068118Y47120501D01*
X6068119Y47120501D01*
X6068123Y47120499D01*
X6241110Y47079500D01*
X6241113Y47079500D01*
X6374285Y47079500D01*
X6374292Y47079500D01*
X6506577Y47094962D01*
X6673635Y47155766D01*
X6822168Y47253457D01*
X6944167Y47382769D01*
X7033057Y47536731D01*
X7084045Y47707042D01*
X7089131Y47794372D01*
X7112680Y47860151D01*
X7168055Y47902759D01*
X7237674Y47908664D01*
X7256491Y47903253D01*
X7265976Y47899693D01*
X7282243Y47896741D01*
X7487450Y47859500D01*
X7487453Y47859500D01*
X7656148Y47859500D01*
X7656155Y47859500D01*
X7824188Y47874623D01*
X7948770Y47909006D01*
X8018627Y47907867D01*
X8076782Y47869139D01*
X8104766Y47805118D01*
X8105546Y47796698D01*
X8105616Y47795489D01*
X8135850Y47624022D01*
X8136489Y47620401D01*
X8151489Y47585627D01*
X8206904Y47457161D01*
X8264905Y47379253D01*
X8313067Y47314561D01*
X8449254Y47200286D01*
X8501299Y47174148D01*
X8608118Y47120501D01*
X8608119Y47120501D01*
X8608123Y47120499D01*
X8781110Y47079500D01*
X8781113Y47079500D01*
X8914285Y47079500D01*
X8914292Y47079500D01*
X9046577Y47094962D01*
X9213635Y47155766D01*
X9362168Y47253457D01*
X9484167Y47382769D01*
X9573057Y47536731D01*
X9624045Y47707042D01*
X9634382Y47884520D01*
X9603511Y48059599D01*
X9533096Y48222838D01*
X9529229Y48228032D01*
X9463370Y48316496D01*
X9426933Y48365439D01*
X9354112Y48426543D01*
X9290746Y48479714D01*
X9290744Y48479715D01*
X9131881Y48559500D01*
X9131877Y48559501D01*
X8958890Y48600500D01*
X8921860Y48600500D01*
X8854821Y48620185D01*
X8809066Y48672989D01*
X8799122Y48742147D01*
X8800969Y48752092D01*
X8818890Y48830613D01*
X8844191Y48941463D01*
X8854290Y49166330D01*
X8824075Y49389387D01*
X8802007Y49457303D01*
X8800013Y49527141D01*
X8836093Y49586974D01*
X8898793Y49617803D01*
X8912725Y49619409D01*
X8914284Y49619500D01*
X8914292Y49619500D01*
X9046577Y49634962D01*
X9213635Y49695766D01*
X9362168Y49793457D01*
X9484167Y49922769D01*
X9573057Y50076731D01*
X9624045Y50247042D01*
X9634382Y50424520D01*
X9603511Y50599599D01*
X9533096Y50762838D01*
X9426933Y50905439D01*
X9354112Y50966543D01*
X9290746Y51019714D01*
X9290744Y51019715D01*
X9131881Y51099500D01*
X9131877Y51099501D01*
X8958890Y51140500D01*
X8825708Y51140500D01*
X8709958Y51126971D01*
X8693422Y51125038D01*
X8693419Y51125037D01*
X8526367Y51064236D01*
X8458675Y51019714D01*
X8377832Y50966543D01*
X8377831Y50966543D01*
X8377831Y50966542D01*
X8255833Y50837233D01*
X8166944Y50683272D01*
X8115955Y50512959D01*
X8115954Y50512954D01*
X8110868Y50425630D01*
X8087318Y50359849D01*
X8031943Y50317242D01*
X7962323Y50311337D01*
X7943507Y50316748D01*
X7934022Y50320308D01*
X7712550Y50360500D01*
X7712547Y50360500D01*
X7543845Y50360500D01*
X7505399Y50357040D01*
X7375813Y50345378D01*
X7375807Y50345377D01*
X7251231Y50310995D01*
X7181370Y50312135D01*
X7123217Y50350863D01*
X7095233Y50414884D01*
X7094452Y50423317D01*
X7094381Y50424512D01*
X7094382Y50424520D01*
X7063511Y50599599D01*
X6993096Y50762838D01*
X6886933Y50905439D01*
X6814112Y50966543D01*
X6750746Y51019714D01*
X6750744Y51019715D01*
X6591881Y51099500D01*
X6591877Y51099501D01*
X6418890Y51140500D01*
X6285708Y51140500D01*
X6169958Y51126971D01*
X6153422Y51125038D01*
X6153419Y51125037D01*
X5986367Y51064236D01*
X5918675Y51019714D01*
X5837832Y50966543D01*
X5837831Y50966543D01*
X5837831Y50966542D01*
X5715833Y50837233D01*
X5626944Y50683272D01*
X5575955Y50512959D01*
X5575954Y50512954D01*
X5565618Y50335481D01*
X5565618Y50335480D01*
X5580769Y50249550D01*
X5596489Y50160401D01*
X5599776Y50152781D01*
X5666904Y49997161D01*
X5748384Y49887716D01*
X5773067Y49854561D01*
X5909254Y49740286D01*
X5926703Y49731523D01*
X6068118Y49660501D01*
X6068119Y49660501D01*
X6068123Y49660499D01*
X6241110Y49619500D01*
X6241113Y49619500D01*
X6278140Y49619500D01*
X6345179Y49599815D01*
X6390934Y49547011D01*
X6400878Y49477853D01*
X6399031Y49467908D01*
X6355810Y49278543D01*
X6355808Y49278532D01*
X6346392Y49068866D01*
X6345710Y49053670D01*
X6375925Y48830613D01*
X6375926Y48830609D01*
X6397991Y48762700D01*
X6399986Y48692859D01*
X6363906Y48633026D01*
X6301205Y48602198D01*
X6287299Y48600594D01*
X6285737Y48600503D01*
X6285711Y48600500D01*
X6285708Y48600500D01*
X6197775Y48590222D01*
X6153422Y48585038D01*
X6153419Y48585037D01*
X5986367Y48524236D01*
X5918675Y48479714D01*
X5837832Y48426543D01*
X5837831Y48426543D01*
X5837831Y48426542D01*
X5715833Y48297233D01*
X5626944Y48143272D01*
X5575955Y47972959D01*
X5575954Y47972954D01*
X5565618Y47795481D01*
X5565618Y47795480D01*
X300500Y47795480D01*
X300500Y50495573D01*
X300816Y50504419D01*
X313607Y50683269D01*
X317165Y50733023D01*
X319683Y50750530D01*
X367459Y50970149D01*
X372436Y50987100D01*
X450985Y51197701D01*
X458325Y51213773D01*
X566044Y51411044D01*
X575600Y51425914D01*
X710294Y51605844D01*
X721868Y51619201D01*
X880799Y51778132D01*
X894156Y51789706D01*
X1074086Y51924400D01*
X1088956Y51933956D01*
X1286227Y52041675D01*
X1302299Y52049015D01*
X1512900Y52127564D01*
X1529851Y52132541D01*
X1749472Y52180318D01*
X1766977Y52182835D01*
X1995582Y52199184D01*
X2004428Y52199500D01*
X2047595Y52199500D01*
X18952405Y52199500D01*
X18993907Y52199500D01*
X19006061Y52198903D01*
G37*
G04 #@! TD.AperFunction*
M02*
