G04 #@! TF.GenerationSoftware,KiCad,Pcbnew,7.0.10-7.0.10~ubuntu22.04.1*
G04 #@! TF.CreationDate,2024-02-20T17:40:51-05:00*
G04 #@! TF.ProjectId,caravel-breakout-qfn,63617261-7665-46c2-9d62-7265616b6f75,2.2*
G04 #@! TF.SameCoordinates,PX2dc6c00PY42c1d80*
G04 #@! TF.FileFunction,Soldermask,Top*
G04 #@! TF.FilePolarity,Negative*
%FSLAX46Y46*%
G04 Gerber Fmt 4.6, Leading zero omitted, Abs format (unit mm)*
G04 Created by KiCad (PCBNEW 7.0.10-7.0.10~ubuntu22.04.1) date 2024-02-20 17:40:51*
%MOMM*%
%LPD*%
G01*
G04 APERTURE LIST*
G04 Aperture macros list*
%AMRoundRect*
0 Rectangle with rounded corners*
0 $1 Rounding radius*
0 $2 $3 $4 $5 $6 $7 $8 $9 X,Y pos of 4 corners*
0 Add a 4 corners polygon primitive as box body*
4,1,4,$2,$3,$4,$5,$6,$7,$8,$9,$2,$3,0*
0 Add four circle primitives for the rounded corners*
1,1,$1+$1,$2,$3*
1,1,$1+$1,$4,$5*
1,1,$1+$1,$6,$7*
1,1,$1+$1,$8,$9*
0 Add four rect primitives between the rounded corners*
20,1,$1+$1,$2,$3,$4,$5,0*
20,1,$1+$1,$4,$5,$6,$7,0*
20,1,$1+$1,$6,$7,$8,$9,0*
20,1,$1+$1,$8,$9,$2,$3,0*%
G04 Aperture macros list end*
%ADD10RoundRect,0.140000X-0.170000X0.140000X-0.170000X-0.140000X0.170000X-0.140000X0.170000X0.140000X0*%
%ADD11RoundRect,0.140000X0.140000X0.170000X-0.140000X0.170000X-0.140000X-0.170000X0.140000X-0.170000X0*%
%ADD12RoundRect,0.140000X-0.140000X-0.170000X0.140000X-0.170000X0.140000X0.170000X-0.140000X0.170000X0*%
%ADD13C,1.020000*%
%ADD14C,2.000000*%
%ADD15RoundRect,0.102000X-0.898000X-0.408000X0.898000X-0.408000X0.898000X0.408000X-0.898000X0.408000X0*%
%ADD16RoundRect,0.062500X-0.062500X0.362500X-0.062500X-0.362500X0.062500X-0.362500X0.062500X0.362500X0*%
%ADD17RoundRect,0.062500X-0.362500X0.062500X-0.362500X-0.062500X0.362500X-0.062500X0.362500X0.062500X0*%
%ADD18R,7.650000X7.650000*%
G04 APERTURE END LIST*
D10*
X30400000Y29580000D03*
X30400000Y28620000D03*
D11*
X30210000Y20900000D03*
X29250000Y20900000D03*
X22580000Y18800000D03*
X21620000Y18800000D03*
D12*
X16130000Y28850000D03*
X17090000Y28850000D03*
X16150000Y27850000D03*
X17110000Y27850000D03*
D11*
X16910000Y21950000D03*
X15950000Y21950000D03*
D12*
X22120000Y31200000D03*
X23080000Y31200000D03*
D13*
X38670000Y50380000D03*
X36130000Y50380000D03*
D14*
X37400000Y49110000D03*
D13*
X38670000Y47840000D03*
X36130000Y47840000D03*
X38670000Y45300000D03*
X36130000Y45300000D03*
X38670000Y42760000D03*
X36130000Y42760000D03*
X38670000Y40220000D03*
X36130000Y40220000D03*
X38670000Y37680000D03*
X36130000Y37680000D03*
X38670000Y35140000D03*
X36130000Y35140000D03*
X38670000Y32600000D03*
X36130000Y32600000D03*
X38670000Y30060000D03*
X36130000Y30060000D03*
X38670000Y27520000D03*
X36130000Y27520000D03*
X38670000Y24980000D03*
X36130000Y24980000D03*
X38670000Y22440000D03*
X36130000Y22440000D03*
X38670000Y19900000D03*
X36130000Y19900000D03*
X38670000Y17360000D03*
X36130000Y17360000D03*
X38670000Y14820000D03*
X36130000Y14820000D03*
X38670000Y12280000D03*
X36130000Y12280000D03*
X38670000Y9740000D03*
X36130000Y9740000D03*
X38670000Y7200000D03*
X36130000Y7200000D03*
X38670000Y4660000D03*
X36130000Y4660000D03*
D14*
X37400000Y3390000D03*
D13*
X38670000Y2120000D03*
X36130000Y2120000D03*
D15*
X34550000Y50380000D03*
X40250000Y50380000D03*
X34550000Y47840000D03*
X40250000Y47840000D03*
X34550000Y45300000D03*
X40250000Y45300000D03*
X34550000Y42760000D03*
X40250000Y42760000D03*
X34550000Y40220000D03*
X40250000Y40220000D03*
X34550000Y37680000D03*
X40250000Y37680000D03*
X34550000Y35140000D03*
X40250000Y35140000D03*
X34550000Y32600000D03*
X40250000Y32600000D03*
X34550000Y30060000D03*
X40250000Y30060000D03*
X34550000Y27520000D03*
X40250000Y27520000D03*
X34550000Y24980000D03*
X40250000Y24980000D03*
X34550000Y22440000D03*
X40250000Y22440000D03*
X34550000Y19900000D03*
X40250000Y19900000D03*
X34550000Y17360000D03*
X40250000Y17360000D03*
X34550000Y14820000D03*
X40250000Y14820000D03*
X34550000Y12280000D03*
X40250000Y12280000D03*
X34550000Y9740000D03*
X40250000Y9740000D03*
X34550000Y7200000D03*
X40250000Y7200000D03*
X34550000Y4660000D03*
X40250000Y4660000D03*
X34550000Y2120000D03*
X40250000Y2120000D03*
D10*
X29300000Y30180000D03*
X29300000Y29220000D03*
D12*
X27520000Y18000000D03*
X28480000Y18000000D03*
D16*
X26830000Y29350000D03*
X26330000Y29350000D03*
X25830000Y29350000D03*
X25330000Y29350000D03*
X24830000Y29350000D03*
X24330000Y29350000D03*
X23830000Y29350000D03*
X23330000Y29350000D03*
X22830000Y29350000D03*
X22330000Y29350000D03*
X21830000Y29350000D03*
X21330000Y29350000D03*
X20830000Y29350000D03*
X20330000Y29350000D03*
X19830000Y29350000D03*
X19330000Y29350000D03*
D17*
X18630000Y28650000D03*
X18630000Y28150000D03*
X18630000Y27650000D03*
X18630000Y27150000D03*
X18630000Y26650000D03*
X18630000Y26150000D03*
X18630000Y25650000D03*
X18630000Y25150000D03*
X18630000Y24650000D03*
X18630000Y24150000D03*
X18630000Y23650000D03*
X18630000Y23150000D03*
X18630000Y22650000D03*
X18630000Y22150000D03*
X18630000Y21650000D03*
X18630000Y21150000D03*
D16*
X19330000Y20450000D03*
X19830000Y20450000D03*
X20330000Y20450000D03*
X20830000Y20450000D03*
X21330000Y20450000D03*
X21830000Y20450000D03*
X22330000Y20450000D03*
X22830000Y20450000D03*
X23330000Y20450000D03*
X23830000Y20450000D03*
X24330000Y20450000D03*
X24830000Y20450000D03*
X25330000Y20450000D03*
X25830000Y20450000D03*
X26330000Y20450000D03*
X26830000Y20450000D03*
D17*
X27530000Y21150000D03*
X27530000Y21650000D03*
X27530000Y22150000D03*
X27530000Y22650000D03*
X27530000Y23150000D03*
X27530000Y23650000D03*
X27530000Y24150000D03*
X27530000Y24650000D03*
X27530000Y25150000D03*
X27530000Y25650000D03*
X27530000Y26150000D03*
X27530000Y26650000D03*
X27530000Y27150000D03*
X27530000Y27650000D03*
X27530000Y28150000D03*
X27530000Y28650000D03*
D18*
X23080000Y24900000D03*
D13*
X8870000Y50380000D03*
X6330000Y50380000D03*
D14*
X7600000Y49110000D03*
D13*
X8870000Y47840000D03*
X6330000Y47840000D03*
X8870000Y45300000D03*
X6330000Y45300000D03*
X8870000Y42760000D03*
X6330000Y42760000D03*
X8870000Y40220000D03*
X6330000Y40220000D03*
X8870000Y37680000D03*
X6330000Y37680000D03*
X8870000Y35140000D03*
X6330000Y35140000D03*
X8870000Y32600000D03*
X6330000Y32600000D03*
X8870000Y30060000D03*
X6330000Y30060000D03*
X8870000Y27520000D03*
X6330000Y27520000D03*
X8870000Y24980000D03*
X6330000Y24980000D03*
X8870000Y22440000D03*
X6330000Y22440000D03*
X8870000Y19900000D03*
X6330000Y19900000D03*
X8870000Y17360000D03*
X6330000Y17360000D03*
X8870000Y14820000D03*
X6330000Y14820000D03*
X8870000Y12280000D03*
X6330000Y12280000D03*
X8870000Y9740000D03*
X6330000Y9740000D03*
X8870000Y7200000D03*
X6330000Y7200000D03*
X8870000Y4660000D03*
X6330000Y4660000D03*
D14*
X7600000Y3390000D03*
D13*
X8870000Y2120000D03*
X6330000Y2120000D03*
D15*
X4750000Y50380000D03*
X10450000Y50380000D03*
X4750000Y47840000D03*
X10450000Y47840000D03*
X4750000Y45300000D03*
X10450000Y45300000D03*
X4750000Y42760000D03*
X10450000Y42760000D03*
X4750000Y40220000D03*
X10450000Y40220000D03*
X4750000Y37680000D03*
X10450000Y37680000D03*
X4750000Y35140000D03*
X10450000Y35140000D03*
X4750000Y32600000D03*
X10450000Y32600000D03*
X4750000Y30060000D03*
X10450000Y30060000D03*
X4750000Y27520000D03*
X10450000Y27520000D03*
X4750000Y24980000D03*
X10450000Y24980000D03*
X4750000Y22440000D03*
X10450000Y22440000D03*
X4750000Y19900000D03*
X10450000Y19900000D03*
X4750000Y17360000D03*
X10450000Y17360000D03*
X4750000Y14820000D03*
X10450000Y14820000D03*
X4750000Y12280000D03*
X10450000Y12280000D03*
X4750000Y9740000D03*
X10450000Y9740000D03*
X4750000Y7200000D03*
X10450000Y7200000D03*
X4750000Y4660000D03*
X10450000Y4660000D03*
X4750000Y2120000D03*
X10450000Y2120000D03*
M02*
