G04 #@! TF.GenerationSoftware,KiCad,Pcbnew,8.0.1-8.0.1-1~ubuntu22.04.1*
G04 #@! TF.CreationDate,2024-04-10T22:34:19-04:00*
G04 #@! TF.ProjectId,breakout-tt4-qfn,62726561-6b6f-4757-942d-7474342d7166,3.3*
G04 #@! TF.SameCoordinates,PX2dc6c00PY42c1d80*
G04 #@! TF.FileFunction,AssemblyDrawing,Top*
%FSLAX46Y46*%
G04 Gerber Fmt 4.6, Leading zero omitted, Abs format (unit mm)*
G04 Created by KiCad (PCBNEW 8.0.1-8.0.1-1~ubuntu22.04.1) date 2024-04-10 22:34:19*
%MOMM*%
%LPD*%
G01*
G04 APERTURE LIST*
%ADD10C,0.040000*%
%ADD11C,0.060000*%
%ADD12C,0.150000*%
%ADD13C,0.100000*%
G04 APERTURE END LIST*
D10*
X28858333Y31610235D02*
X28846429Y31598330D01*
X28846429Y31598330D02*
X28810714Y31586426D01*
X28810714Y31586426D02*
X28786905Y31586426D01*
X28786905Y31586426D02*
X28751191Y31598330D01*
X28751191Y31598330D02*
X28727381Y31622140D01*
X28727381Y31622140D02*
X28715476Y31645950D01*
X28715476Y31645950D02*
X28703572Y31693569D01*
X28703572Y31693569D02*
X28703572Y31729283D01*
X28703572Y31729283D02*
X28715476Y31776902D01*
X28715476Y31776902D02*
X28727381Y31800711D01*
X28727381Y31800711D02*
X28751191Y31824521D01*
X28751191Y31824521D02*
X28786905Y31836426D01*
X28786905Y31836426D02*
X28810714Y31836426D01*
X28810714Y31836426D02*
X28846429Y31824521D01*
X28846429Y31824521D02*
X28858333Y31812616D01*
X28941667Y31836426D02*
X29108333Y31836426D01*
X29108333Y31836426D02*
X29001191Y31586426D01*
X28589765Y22958334D02*
X28601670Y22946430D01*
X28601670Y22946430D02*
X28613574Y22910715D01*
X28613574Y22910715D02*
X28613574Y22886906D01*
X28613574Y22886906D02*
X28601670Y22851192D01*
X28601670Y22851192D02*
X28577860Y22827382D01*
X28577860Y22827382D02*
X28554050Y22815477D01*
X28554050Y22815477D02*
X28506431Y22803573D01*
X28506431Y22803573D02*
X28470717Y22803573D01*
X28470717Y22803573D02*
X28423098Y22815477D01*
X28423098Y22815477D02*
X28399289Y22827382D01*
X28399289Y22827382D02*
X28375479Y22851192D01*
X28375479Y22851192D02*
X28363574Y22886906D01*
X28363574Y22886906D02*
X28363574Y22910715D01*
X28363574Y22910715D02*
X28375479Y22946430D01*
X28375479Y22946430D02*
X28387384Y22958334D01*
X28613574Y23196430D02*
X28613574Y23053573D01*
X28613574Y23125001D02*
X28363574Y23125001D01*
X28363574Y23125001D02*
X28399289Y23101192D01*
X28399289Y23101192D02*
X28423098Y23077382D01*
X28423098Y23077382D02*
X28435003Y23053573D01*
X22089765Y21158334D02*
X22101670Y21146430D01*
X22101670Y21146430D02*
X22113574Y21110715D01*
X22113574Y21110715D02*
X22113574Y21086906D01*
X22113574Y21086906D02*
X22101670Y21051192D01*
X22101670Y21051192D02*
X22077860Y21027382D01*
X22077860Y21027382D02*
X22054050Y21015477D01*
X22054050Y21015477D02*
X22006431Y21003573D01*
X22006431Y21003573D02*
X21970717Y21003573D01*
X21970717Y21003573D02*
X21923098Y21015477D01*
X21923098Y21015477D02*
X21899289Y21027382D01*
X21899289Y21027382D02*
X21875479Y21051192D01*
X21875479Y21051192D02*
X21863574Y21086906D01*
X21863574Y21086906D02*
X21863574Y21110715D01*
X21863574Y21110715D02*
X21875479Y21146430D01*
X21875479Y21146430D02*
X21887384Y21158334D01*
X21887384Y21253573D02*
X21875479Y21265477D01*
X21875479Y21265477D02*
X21863574Y21289287D01*
X21863574Y21289287D02*
X21863574Y21348811D01*
X21863574Y21348811D02*
X21875479Y21372620D01*
X21875479Y21372620D02*
X21887384Y21384525D01*
X21887384Y21384525D02*
X21911193Y21396430D01*
X21911193Y21396430D02*
X21935003Y21396430D01*
X21935003Y21396430D02*
X21970717Y21384525D01*
X21970717Y21384525D02*
X22113574Y21241668D01*
X22113574Y21241668D02*
X22113574Y21396430D01*
X16589765Y32958334D02*
X16601670Y32946430D01*
X16601670Y32946430D02*
X16613574Y32910715D01*
X16613574Y32910715D02*
X16613574Y32886906D01*
X16613574Y32886906D02*
X16601670Y32851192D01*
X16601670Y32851192D02*
X16577860Y32827382D01*
X16577860Y32827382D02*
X16554050Y32815477D01*
X16554050Y32815477D02*
X16506431Y32803573D01*
X16506431Y32803573D02*
X16470717Y32803573D01*
X16470717Y32803573D02*
X16423098Y32815477D01*
X16423098Y32815477D02*
X16399289Y32827382D01*
X16399289Y32827382D02*
X16375479Y32851192D01*
X16375479Y32851192D02*
X16363574Y32886906D01*
X16363574Y32886906D02*
X16363574Y32910715D01*
X16363574Y32910715D02*
X16375479Y32946430D01*
X16375479Y32946430D02*
X16387384Y32958334D01*
X16363574Y33172620D02*
X16363574Y33125001D01*
X16363574Y33125001D02*
X16375479Y33101192D01*
X16375479Y33101192D02*
X16387384Y33089287D01*
X16387384Y33089287D02*
X16423098Y33065477D01*
X16423098Y33065477D02*
X16470717Y33053573D01*
X16470717Y33053573D02*
X16565955Y33053573D01*
X16565955Y33053573D02*
X16589765Y33065477D01*
X16589765Y33065477D02*
X16601670Y33077382D01*
X16601670Y33077382D02*
X16613574Y33101192D01*
X16613574Y33101192D02*
X16613574Y33148811D01*
X16613574Y33148811D02*
X16601670Y33172620D01*
X16601670Y33172620D02*
X16589765Y33184525D01*
X16589765Y33184525D02*
X16565955Y33196430D01*
X16565955Y33196430D02*
X16506431Y33196430D01*
X16506431Y33196430D02*
X16482622Y33184525D01*
X16482622Y33184525D02*
X16470717Y33172620D01*
X16470717Y33172620D02*
X16458812Y33148811D01*
X16458812Y33148811D02*
X16458812Y33101192D01*
X16458812Y33101192D02*
X16470717Y33077382D01*
X16470717Y33077382D02*
X16482622Y33065477D01*
X16482622Y33065477D02*
X16506431Y33053573D01*
X15958333Y31110235D02*
X15946429Y31098330D01*
X15946429Y31098330D02*
X15910714Y31086426D01*
X15910714Y31086426D02*
X15886905Y31086426D01*
X15886905Y31086426D02*
X15851191Y31098330D01*
X15851191Y31098330D02*
X15827381Y31122140D01*
X15827381Y31122140D02*
X15815476Y31145950D01*
X15815476Y31145950D02*
X15803572Y31193569D01*
X15803572Y31193569D02*
X15803572Y31229283D01*
X15803572Y31229283D02*
X15815476Y31276902D01*
X15815476Y31276902D02*
X15827381Y31300711D01*
X15827381Y31300711D02*
X15851191Y31324521D01*
X15851191Y31324521D02*
X15886905Y31336426D01*
X15886905Y31336426D02*
X15910714Y31336426D01*
X15910714Y31336426D02*
X15946429Y31324521D01*
X15946429Y31324521D02*
X15958333Y31312616D01*
X16172619Y31253092D02*
X16172619Y31086426D01*
X16113095Y31348330D02*
X16053572Y31169759D01*
X16053572Y31169759D02*
X16208333Y31169759D01*
X15458333Y24910235D02*
X15446429Y24898330D01*
X15446429Y24898330D02*
X15410714Y24886426D01*
X15410714Y24886426D02*
X15386905Y24886426D01*
X15386905Y24886426D02*
X15351191Y24898330D01*
X15351191Y24898330D02*
X15327381Y24922140D01*
X15327381Y24922140D02*
X15315476Y24945950D01*
X15315476Y24945950D02*
X15303572Y24993569D01*
X15303572Y24993569D02*
X15303572Y25029283D01*
X15303572Y25029283D02*
X15315476Y25076902D01*
X15315476Y25076902D02*
X15327381Y25100711D01*
X15327381Y25100711D02*
X15351191Y25124521D01*
X15351191Y25124521D02*
X15386905Y25136426D01*
X15386905Y25136426D02*
X15410714Y25136426D01*
X15410714Y25136426D02*
X15446429Y25124521D01*
X15446429Y25124521D02*
X15458333Y25112616D01*
X15541667Y25136426D02*
X15696429Y25136426D01*
X15696429Y25136426D02*
X15613095Y25041188D01*
X15613095Y25041188D02*
X15648810Y25041188D01*
X15648810Y25041188D02*
X15672619Y25029283D01*
X15672619Y25029283D02*
X15684524Y25017378D01*
X15684524Y25017378D02*
X15696429Y24993569D01*
X15696429Y24993569D02*
X15696429Y24934045D01*
X15696429Y24934045D02*
X15684524Y24910235D01*
X15684524Y24910235D02*
X15672619Y24898330D01*
X15672619Y24898330D02*
X15648810Y24886426D01*
X15648810Y24886426D02*
X15577381Y24886426D01*
X15577381Y24886426D02*
X15553572Y24898330D01*
X15553572Y24898330D02*
X15541667Y24910235D01*
X22289765Y34758334D02*
X22301670Y34746430D01*
X22301670Y34746430D02*
X22313574Y34710715D01*
X22313574Y34710715D02*
X22313574Y34686906D01*
X22313574Y34686906D02*
X22301670Y34651192D01*
X22301670Y34651192D02*
X22277860Y34627382D01*
X22277860Y34627382D02*
X22254050Y34615477D01*
X22254050Y34615477D02*
X22206431Y34603573D01*
X22206431Y34603573D02*
X22170717Y34603573D01*
X22170717Y34603573D02*
X22123098Y34615477D01*
X22123098Y34615477D02*
X22099289Y34627382D01*
X22099289Y34627382D02*
X22075479Y34651192D01*
X22075479Y34651192D02*
X22063574Y34686906D01*
X22063574Y34686906D02*
X22063574Y34710715D01*
X22063574Y34710715D02*
X22075479Y34746430D01*
X22075479Y34746430D02*
X22087384Y34758334D01*
X22063574Y34984525D02*
X22063574Y34865477D01*
X22063574Y34865477D02*
X22182622Y34853573D01*
X22182622Y34853573D02*
X22170717Y34865477D01*
X22170717Y34865477D02*
X22158812Y34889287D01*
X22158812Y34889287D02*
X22158812Y34948811D01*
X22158812Y34948811D02*
X22170717Y34972620D01*
X22170717Y34972620D02*
X22182622Y34984525D01*
X22182622Y34984525D02*
X22206431Y34996430D01*
X22206431Y34996430D02*
X22265955Y34996430D01*
X22265955Y34996430D02*
X22289765Y34984525D01*
X22289765Y34984525D02*
X22301670Y34972620D01*
X22301670Y34972620D02*
X22313574Y34948811D01*
X22313574Y34948811D02*
X22313574Y34889287D01*
X22313574Y34889287D02*
X22301670Y34865477D01*
X22301670Y34865477D02*
X22289765Y34853573D01*
X28489765Y33239286D02*
X28501670Y33227382D01*
X28501670Y33227382D02*
X28513574Y33191667D01*
X28513574Y33191667D02*
X28513574Y33167858D01*
X28513574Y33167858D02*
X28501670Y33132144D01*
X28501670Y33132144D02*
X28477860Y33108334D01*
X28477860Y33108334D02*
X28454050Y33096429D01*
X28454050Y33096429D02*
X28406431Y33084525D01*
X28406431Y33084525D02*
X28370717Y33084525D01*
X28370717Y33084525D02*
X28323098Y33096429D01*
X28323098Y33096429D02*
X28299289Y33108334D01*
X28299289Y33108334D02*
X28275479Y33132144D01*
X28275479Y33132144D02*
X28263574Y33167858D01*
X28263574Y33167858D02*
X28263574Y33191667D01*
X28263574Y33191667D02*
X28275479Y33227382D01*
X28275479Y33227382D02*
X28287384Y33239286D01*
X28513574Y33477382D02*
X28513574Y33334525D01*
X28513574Y33405953D02*
X28263574Y33405953D01*
X28263574Y33405953D02*
X28299289Y33382144D01*
X28299289Y33382144D02*
X28323098Y33358334D01*
X28323098Y33358334D02*
X28335003Y33334525D01*
X28513574Y33715477D02*
X28513574Y33572620D01*
X28513574Y33644048D02*
X28263574Y33644048D01*
X28263574Y33644048D02*
X28299289Y33620239D01*
X28299289Y33620239D02*
X28323098Y33596429D01*
X28323098Y33596429D02*
X28335003Y33572620D01*
D11*
X34921429Y50777597D02*
X34788096Y50777597D01*
X34788096Y50568073D02*
X34788096Y50968073D01*
X34788096Y50968073D02*
X34978572Y50968073D01*
X35130953Y50568073D02*
X35130953Y50968073D01*
X35321429Y50568073D02*
X35321429Y50968073D01*
X35321429Y50968073D02*
X35416667Y50968073D01*
X35416667Y50968073D02*
X35473810Y50949025D01*
X35473810Y50949025D02*
X35511905Y50910930D01*
X35511905Y50910930D02*
X35530952Y50872835D01*
X35530952Y50872835D02*
X35550000Y50796644D01*
X35550000Y50796644D02*
X35550000Y50739501D01*
X35550000Y50739501D02*
X35530952Y50663311D01*
X35530952Y50663311D02*
X35511905Y50625216D01*
X35511905Y50625216D02*
X35473810Y50587120D01*
X35473810Y50587120D02*
X35416667Y50568073D01*
X35416667Y50568073D02*
X35321429Y50568073D01*
X35702381Y50929978D02*
X35721429Y50949025D01*
X35721429Y50949025D02*
X35759524Y50968073D01*
X35759524Y50968073D02*
X35854762Y50968073D01*
X35854762Y50968073D02*
X35892857Y50949025D01*
X35892857Y50949025D02*
X35911905Y50929978D01*
X35911905Y50929978D02*
X35930952Y50891882D01*
X35930952Y50891882D02*
X35930952Y50853787D01*
X35930952Y50853787D02*
X35911905Y50796644D01*
X35911905Y50796644D02*
X35683333Y50568073D01*
X35683333Y50568073D02*
X35930952Y50568073D01*
X10571429Y2177597D02*
X10438096Y2177597D01*
X10438096Y1968073D02*
X10438096Y2368073D01*
X10438096Y2368073D02*
X10628572Y2368073D01*
X10780953Y1968073D02*
X10780953Y2368073D01*
X10971429Y1968073D02*
X10971429Y2368073D01*
X10971429Y2368073D02*
X11066667Y2368073D01*
X11066667Y2368073D02*
X11123810Y2349025D01*
X11123810Y2349025D02*
X11161905Y2310930D01*
X11161905Y2310930D02*
X11180952Y2272835D01*
X11180952Y2272835D02*
X11200000Y2196644D01*
X11200000Y2196644D02*
X11200000Y2139501D01*
X11200000Y2139501D02*
X11180952Y2063311D01*
X11180952Y2063311D02*
X11161905Y2025216D01*
X11161905Y2025216D02*
X11123810Y1987120D01*
X11123810Y1987120D02*
X11066667Y1968073D01*
X11066667Y1968073D02*
X10971429Y1968073D01*
X11580952Y1968073D02*
X11352381Y1968073D01*
X11466667Y1968073D02*
X11466667Y2368073D01*
X11466667Y2368073D02*
X11428571Y2310930D01*
X11428571Y2310930D02*
X11390476Y2272835D01*
X11390476Y2272835D02*
X11352381Y2253787D01*
D10*
X25989765Y21239286D02*
X26001670Y21227382D01*
X26001670Y21227382D02*
X26013574Y21191667D01*
X26013574Y21191667D02*
X26013574Y21167858D01*
X26013574Y21167858D02*
X26001670Y21132144D01*
X26001670Y21132144D02*
X25977860Y21108334D01*
X25977860Y21108334D02*
X25954050Y21096429D01*
X25954050Y21096429D02*
X25906431Y21084525D01*
X25906431Y21084525D02*
X25870717Y21084525D01*
X25870717Y21084525D02*
X25823098Y21096429D01*
X25823098Y21096429D02*
X25799289Y21108334D01*
X25799289Y21108334D02*
X25775479Y21132144D01*
X25775479Y21132144D02*
X25763574Y21167858D01*
X25763574Y21167858D02*
X25763574Y21191667D01*
X25763574Y21191667D02*
X25775479Y21227382D01*
X25775479Y21227382D02*
X25787384Y21239286D01*
X26013574Y21477382D02*
X26013574Y21334525D01*
X26013574Y21405953D02*
X25763574Y21405953D01*
X25763574Y21405953D02*
X25799289Y21382144D01*
X25799289Y21382144D02*
X25823098Y21358334D01*
X25823098Y21358334D02*
X25835003Y21334525D01*
X25763574Y21632143D02*
X25763574Y21655953D01*
X25763574Y21655953D02*
X25775479Y21679762D01*
X25775479Y21679762D02*
X25787384Y21691667D01*
X25787384Y21691667D02*
X25811193Y21703572D01*
X25811193Y21703572D02*
X25858812Y21715477D01*
X25858812Y21715477D02*
X25918336Y21715477D01*
X25918336Y21715477D02*
X25965955Y21703572D01*
X25965955Y21703572D02*
X25989765Y21691667D01*
X25989765Y21691667D02*
X26001670Y21679762D01*
X26001670Y21679762D02*
X26013574Y21655953D01*
X26013574Y21655953D02*
X26013574Y21632143D01*
X26013574Y21632143D02*
X26001670Y21608334D01*
X26001670Y21608334D02*
X25989765Y21596429D01*
X25989765Y21596429D02*
X25965955Y21584524D01*
X25965955Y21584524D02*
X25918336Y21572620D01*
X25918336Y21572620D02*
X25858812Y21572620D01*
X25858812Y21572620D02*
X25811193Y21584524D01*
X25811193Y21584524D02*
X25787384Y21596429D01*
X25787384Y21596429D02*
X25775479Y21608334D01*
X25775479Y21608334D02*
X25763574Y21632143D01*
D12*
X21954819Y27238096D02*
X22764342Y27238096D01*
X22764342Y27238096D02*
X22859580Y27285715D01*
X22859580Y27285715D02*
X22907200Y27333334D01*
X22907200Y27333334D02*
X22954819Y27428572D01*
X22954819Y27428572D02*
X22954819Y27619048D01*
X22954819Y27619048D02*
X22907200Y27714286D01*
X22907200Y27714286D02*
X22859580Y27761905D01*
X22859580Y27761905D02*
X22764342Y27809524D01*
X22764342Y27809524D02*
X21954819Y27809524D01*
X22954819Y28809524D02*
X22954819Y28238096D01*
X22954819Y28523810D02*
X21954819Y28523810D01*
X21954819Y28523810D02*
X22097676Y28428572D01*
X22097676Y28428572D02*
X22192914Y28333334D01*
X22192914Y28333334D02*
X22240533Y28238096D01*
D11*
X34571429Y2027597D02*
X34438096Y2027597D01*
X34438096Y1818073D02*
X34438096Y2218073D01*
X34438096Y2218073D02*
X34628572Y2218073D01*
X34780953Y1818073D02*
X34780953Y2218073D01*
X34971429Y1818073D02*
X34971429Y2218073D01*
X34971429Y2218073D02*
X35066667Y2218073D01*
X35066667Y2218073D02*
X35123810Y2199025D01*
X35123810Y2199025D02*
X35161905Y2160930D01*
X35161905Y2160930D02*
X35180952Y2122835D01*
X35180952Y2122835D02*
X35200000Y2046644D01*
X35200000Y2046644D02*
X35200000Y1989501D01*
X35200000Y1989501D02*
X35180952Y1913311D01*
X35180952Y1913311D02*
X35161905Y1875216D01*
X35161905Y1875216D02*
X35123810Y1837120D01*
X35123810Y1837120D02*
X35066667Y1818073D01*
X35066667Y1818073D02*
X34971429Y1818073D01*
X35333333Y2218073D02*
X35580952Y2218073D01*
X35580952Y2218073D02*
X35447619Y2065692D01*
X35447619Y2065692D02*
X35504762Y2065692D01*
X35504762Y2065692D02*
X35542857Y2046644D01*
X35542857Y2046644D02*
X35561905Y2027597D01*
X35561905Y2027597D02*
X35580952Y1989501D01*
X35580952Y1989501D02*
X35580952Y1894263D01*
X35580952Y1894263D02*
X35561905Y1856168D01*
X35561905Y1856168D02*
X35542857Y1837120D01*
X35542857Y1837120D02*
X35504762Y1818073D01*
X35504762Y1818073D02*
X35390476Y1818073D01*
X35390476Y1818073D02*
X35352381Y1837120D01*
X35352381Y1837120D02*
X35333333Y1856168D01*
X12201154Y36395436D02*
X12174217Y36395436D01*
X12174217Y36395436D02*
X12120342Y36422373D01*
X12120342Y36422373D02*
X12093405Y36449311D01*
X12093405Y36449311D02*
X12066467Y36503186D01*
X12066467Y36503186D02*
X12066467Y36557060D01*
X12066467Y36557060D02*
X12079936Y36597466D01*
X12079936Y36597466D02*
X12120342Y36664810D01*
X12120342Y36664810D02*
X12160748Y36705216D01*
X12160748Y36705216D02*
X12228092Y36745622D01*
X12228092Y36745622D02*
X12268498Y36759091D01*
X12268498Y36759091D02*
X12322373Y36759091D01*
X12322373Y36759091D02*
X12376247Y36732153D01*
X12376247Y36732153D02*
X12403185Y36705216D01*
X12403185Y36705216D02*
X12430122Y36651341D01*
X12430122Y36651341D02*
X12430122Y36624404D01*
X12497466Y36368499D02*
X12483997Y36408905D01*
X12483997Y36408905D02*
X12483997Y36435842D01*
X12483997Y36435842D02*
X12497466Y36476248D01*
X12497466Y36476248D02*
X12510934Y36489717D01*
X12510934Y36489717D02*
X12551341Y36503186D01*
X12551341Y36503186D02*
X12578278Y36503186D01*
X12578278Y36503186D02*
X12618684Y36489717D01*
X12618684Y36489717D02*
X12672559Y36435842D01*
X12672559Y36435842D02*
X12686028Y36395436D01*
X12686028Y36395436D02*
X12686028Y36368499D01*
X12686028Y36368499D02*
X12672559Y36328092D01*
X12672559Y36328092D02*
X12659090Y36314624D01*
X12659090Y36314624D02*
X12618684Y36301155D01*
X12618684Y36301155D02*
X12591747Y36301155D01*
X12591747Y36301155D02*
X12551341Y36314624D01*
X12551341Y36314624D02*
X12497466Y36368499D01*
X12497466Y36368499D02*
X12457060Y36381967D01*
X12457060Y36381967D02*
X12430122Y36381967D01*
X12430122Y36381967D02*
X12389716Y36368499D01*
X12389716Y36368499D02*
X12335841Y36314624D01*
X12335841Y36314624D02*
X12322373Y36274218D01*
X12322373Y36274218D02*
X12322373Y36247280D01*
X12322373Y36247280D02*
X12335841Y36206874D01*
X12335841Y36206874D02*
X12389716Y36152999D01*
X12389716Y36152999D02*
X12430122Y36139531D01*
X12430122Y36139531D02*
X12457060Y36139531D01*
X12457060Y36139531D02*
X12497466Y36152999D01*
X12497466Y36152999D02*
X12551341Y36206874D01*
X12551341Y36206874D02*
X12564809Y36247280D01*
X12564809Y36247280D02*
X12564809Y36274218D01*
X12564809Y36274218D02*
X12551341Y36314624D01*
D13*
X28400000Y31950000D02*
X29400000Y31950000D01*
X28400000Y31450000D02*
X28400000Y31950000D01*
X29400000Y31950000D02*
X29400000Y31450000D01*
X29400000Y31450000D02*
X28400000Y31450000D01*
X28250000Y23500000D02*
X28750000Y23500000D01*
X28250000Y22500000D02*
X28250000Y23500000D01*
X28750000Y23500000D02*
X28750000Y22500000D01*
X28750000Y22500000D02*
X28250000Y22500000D01*
X21750000Y21700000D02*
X22250000Y21700000D01*
X21750000Y20700000D02*
X21750000Y21700000D01*
X22250000Y21700000D02*
X22250000Y20700000D01*
X22250000Y20700000D02*
X21750000Y20700000D01*
X16250000Y33500000D02*
X16750000Y33500000D01*
X16250000Y32500000D02*
X16250000Y33500000D01*
X16750000Y33500000D02*
X16750000Y32500000D01*
X16750000Y32500000D02*
X16250000Y32500000D01*
X15500000Y31450000D02*
X16500000Y31450000D01*
X15500000Y30950000D02*
X15500000Y31450000D01*
X16500000Y31450000D02*
X16500000Y30950000D01*
X16500000Y30950000D02*
X15500000Y30950000D01*
X15000000Y25250000D02*
X16000000Y25250000D01*
X15000000Y24750000D02*
X15000000Y25250000D01*
X16000000Y25250000D02*
X16000000Y24750000D01*
X16000000Y24750000D02*
X15000000Y24750000D01*
X21950000Y35300000D02*
X22450000Y35300000D01*
X21950000Y34300000D02*
X21950000Y35300000D01*
X22450000Y35300000D02*
X22450000Y34300000D01*
X22450000Y34300000D02*
X21950000Y34300000D01*
X28150000Y33900000D02*
X28650000Y33900000D01*
X28150000Y32900000D02*
X28150000Y33900000D01*
X28650000Y33900000D02*
X28650000Y32900000D01*
X28650000Y32900000D02*
X28150000Y32900000D01*
X36350000Y50750000D02*
G75*
G02*
X34350000Y50750000I-1000000J0D01*
G01*
X34350000Y50750000D02*
G75*
G02*
X36350000Y50750000I1000000J0D01*
G01*
X12000000Y2150000D02*
G75*
G02*
X10000000Y2150000I-1000000J0D01*
G01*
X10000000Y2150000D02*
G75*
G02*
X12000000Y2150000I1000000J0D01*
G01*
X25650000Y21900000D02*
X26150000Y21900000D01*
X25650000Y20900000D02*
X25650000Y21900000D01*
X26150000Y21900000D02*
X26150000Y20900000D01*
X26150000Y20900000D02*
X25650000Y20900000D01*
X18000000Y32500000D02*
X26000000Y32500000D01*
X18000000Y23500000D02*
X18000000Y32500000D01*
X26000000Y32500000D02*
X27000000Y31500000D01*
X27000000Y31500000D02*
X27000000Y23500000D01*
X27000000Y23500000D02*
X18000000Y23500000D01*
X36000000Y2000000D02*
G75*
G02*
X34000000Y2000000I-1000000J0D01*
G01*
X34000000Y2000000D02*
G75*
G02*
X36000000Y2000000I1000000J0D01*
G01*
X11501472Y36732843D02*
X12067157Y37298528D01*
X12067157Y37298528D02*
X13198528Y36167157D01*
X12632843Y35601472D02*
X11501472Y36732843D01*
X13198528Y36167157D02*
X12632843Y35601472D01*
M02*
