M48
; DRILL file {KiCad 8.0.1-8.0.1-1~ubuntu22.04.1} date 2024-04-10T22:34:26-0400
; FORMAT={-:-/ absolute / metric / decimal}
; #@! TF.CreationDate,2024-04-10T22:34:26-04:00
; #@! TF.GenerationSoftware,Kicad,Pcbnew,8.0.1-8.0.1-1~ubuntu22.04.1
; #@! TF.FileFunction,Plated,1,2,PTH
FMAT,2
METRIC
; #@! TA.AperFunction,Plated,PTH,ViaDrill
T1C0.300
; #@! TA.AperFunction,Plated,PTH,ComponentDrill
T2C0.300
%
G90
G05
T1
X2.0Y41.0
X2.0Y33.5
X2.0Y21.0
X2.0Y13.25
X2.7Y44.3
X3.0Y41.8
X3.4Y7.6
X3.5Y21.6
X3.5Y1.3
X3.6Y50.8
X3.6Y46.9
X3.6Y36.8
X3.6Y34.3
X3.6Y30.4
X3.6Y26.7
X3.6Y24.1
X3.6Y17.7
X3.6Y12.6
X3.6Y10.1
X3.6Y5.0
X7.0Y48.9
X7.0Y28.3
X8.5Y36.8
X8.5Y5.1
X8.6Y46.9
X8.6Y44.4
X8.6Y34.6
X8.6Y29.2
X8.6Y19.7
X8.6Y17.1
X8.6Y7.6
X8.7Y42.1
X8.7Y32.0
X8.7Y24.6
X8.7Y22.2
X8.7Y12.2
X8.7Y9.8
X9.0Y40.0
X9.0Y14.5
X9.0Y2.0
X12.205Y33.405
X12.416Y36.198
X14.2Y25.1
X14.9Y31.7
X15.6Y33.2
X16.1Y47.95
X16.155Y34.155
X16.45Y30.25
X16.483Y28.47
X16.7Y25.55
X21.2Y4.6
X21.4Y22.6
X21.4Y21.6
X21.498Y34.55
X21.552Y33.643
X22.0Y47.0
X22.0Y36.0
X22.0Y20.1
X26.5Y22.0
X26.5Y20.5
X27.1Y32.9
X27.5Y4.5
X27.6Y33.8
X28.1Y27.94
X28.1Y25.7
X28.5Y21.5
X29.185Y23.122
X29.5Y10.5
X30.2Y31.7
X35.1Y34.9
X35.35Y48.65
X36.0Y32.4
X36.0Y20.0
X36.0Y11.97
X36.2Y9.5
X36.2Y4.5
X36.4Y25.3
X36.4Y15.2
X36.5Y17.7
X36.6Y37.43
X36.655Y22.855
X36.8Y45.05
X36.8Y40.2
X36.95Y42.25
X37.8Y48.4
X41.3Y15.3
X41.3Y12.7
X41.4Y17.8
X41.5Y31.7
X42.1Y20.4
X42.3Y25.5
X42.4Y43.2
X42.5Y45.9
X42.5Y41.0
X43.0Y51.0
X43.0Y48.5
X43.0Y38.5
X43.0Y28.5
X43.0Y23.5
X43.0Y10.5
X43.0Y8.0
X43.0Y5.5
X43.0Y3.0
T2
X1.9Y51.8
X1.9Y48.9
X1.95Y38.55
X1.95Y36.15
X2.0Y5.65
X2.0Y3.1
X4.45Y44.35
X4.45Y38.4
X4.45Y28.7
X4.45Y23.15
X4.45Y15.8
X4.45Y7.55
X5.9Y51.8
X9.1Y11.35
X9.1Y8.95
X9.15Y33.1
X9.9Y51.8
X9.9Y5.25
X10.0Y26.6
X10.1Y36.55
X10.9Y30.1
X13.9Y51.8
X13.9Y27.1
X13.9Y1.7
X14.6Y41.8
X14.6Y16.3
X14.6Y13.7
X14.6Y11.35
X14.6Y8.95
X14.6Y5.25
X14.7Y35.85
X14.8Y47.55
X16.1Y23.0
X16.4Y46.9
X16.4Y42.2
X17.1Y17.95
X17.5Y20.5
X17.9Y51.8
X17.9Y0.7
X20.1Y36.5
X20.2Y18.1
X20.2Y10.6
X20.2Y5.4
X20.4Y41.65
X21.2Y29.4
X21.2Y26.6
X21.9Y51.8
X22.4Y46.0
X22.7Y6.4
X22.8Y13.2
X23.8Y29.4
X23.8Y26.6
X25.9Y51.8
X25.9Y0.7
X26.4Y16.7
X26.6Y12.2
X28.5Y18.1
X28.5Y14.3
X28.6Y6.4
X29.35Y46.2
X29.7Y33.8
X29.9Y51.8
X29.9Y0.7
X30.3Y11.2
X30.4Y16.2
X31.0Y44.3
X31.0Y42.7
X31.0Y38.5
X31.5Y22.0
X33.5Y0.7
X33.9Y51.8
X33.9Y49.35
X34.65Y47.75
X34.8Y30.5
X35.1Y42.7
X35.2Y13.9
X35.2Y5.4
X35.25Y23.15
X37.0Y38.75
X37.9Y51.8
X40.45Y30.75
X40.5Y46.5
X40.5Y41.8
X40.5Y36.2
X40.5Y25.7
X40.5Y20.8
X40.5Y16.9
X40.5Y10.7
X40.5Y5.7
X41.9Y51.8
X43.8Y43.8
M30
