G04 #@! TF.GenerationSoftware,KiCad,Pcbnew,8.0.6-8.0.6-0~ubuntu24.04.1*
G04 #@! TF.CreationDate,2024-11-04T16:08:37-05:00*
G04 #@! TF.ProjectId,breakout-tt06-qfn,62726561-6b6f-4757-942d-747430362d71,1.1*
G04 #@! TF.SameCoordinates,PX2b64660PY42c1d80*
G04 #@! TF.FileFunction,Paste,Bot*
G04 #@! TF.FilePolarity,Positive*
%FSLAX46Y46*%
G04 Gerber Fmt 4.6, Leading zero omitted, Abs format (unit mm)*
G04 Created by KiCad (PCBNEW 8.0.6-8.0.6-0~ubuntu24.04.1) date 2024-11-04 16:08:37*
%MOMM*%
%LPD*%
G01*
G04 APERTURE LIST*
%ADD10R,3.000000X1.000000*%
%ADD11R,2.800000X1.000000*%
G04 APERTURE END LIST*
D10*
X42480000Y50130000D03*
D11*
X47520000Y50130000D03*
D10*
X42480000Y47590000D03*
X47520000Y47590000D03*
X42480000Y45050000D03*
X47520000Y45050000D03*
X42480000Y42510000D03*
X47520000Y42510000D03*
X42480000Y39970000D03*
X47520000Y39970000D03*
X42480000Y37430000D03*
X47520000Y37430000D03*
X42480000Y34890000D03*
X47520000Y34890000D03*
X42480000Y32350000D03*
X47520000Y32350000D03*
X42480000Y29810000D03*
X47520000Y29810000D03*
X42480000Y27270000D03*
X47520000Y27270000D03*
X42480000Y24730000D03*
X47520000Y24730000D03*
X42480000Y22190000D03*
X47520000Y22190000D03*
X42480000Y19650000D03*
X47520000Y19650000D03*
X42480000Y17110000D03*
X47520000Y17110000D03*
X42480000Y14570000D03*
X47520000Y14570000D03*
X42480000Y12030000D03*
X47520000Y12030000D03*
X42480000Y9490000D03*
X47520000Y9490000D03*
X42480000Y6950000D03*
X47520000Y6950000D03*
X42480000Y4410000D03*
X47520000Y4410000D03*
X42480000Y1870000D03*
X47520000Y1870000D03*
D11*
X2480000Y50130000D03*
D10*
X7520000Y50130000D03*
X2480000Y47590000D03*
X7520000Y47590000D03*
X2480000Y45050000D03*
X7520000Y45050000D03*
X2480000Y42510000D03*
X7520000Y42510000D03*
X2480000Y39970000D03*
X7520000Y39970000D03*
X2480000Y37430000D03*
X7520000Y37430000D03*
X2480000Y34890000D03*
X7520000Y34890000D03*
X2480000Y32350000D03*
X7520000Y32350000D03*
X2480000Y29810000D03*
X7520000Y29810000D03*
X2480000Y27270000D03*
X7520000Y27270000D03*
X2480000Y24730000D03*
X7520000Y24730000D03*
X2480000Y22190000D03*
X7520000Y22190000D03*
X2480000Y19650000D03*
X7520000Y19650000D03*
X2480000Y17110000D03*
X7520000Y17110000D03*
X2480000Y14570000D03*
X7520000Y14570000D03*
X2480000Y12030000D03*
X7520000Y12030000D03*
X2480000Y9490000D03*
X7520000Y9490000D03*
X2480000Y6950000D03*
X7520000Y6950000D03*
X2480000Y4410000D03*
X7520000Y4410000D03*
X2480000Y1870000D03*
X7520000Y1870000D03*
M02*
