G04 #@! TF.GenerationSoftware,KiCad,Pcbnew,8.0.6-8.0.6-0~ubuntu24.04.1*
G04 #@! TF.CreationDate,2024-11-04T16:08:47-05:00*
G04 #@! TF.ProjectId,breakout-tt06-qfn,62726561-6b6f-4757-942d-747430362d71,1.1*
G04 #@! TF.SameCoordinates,PX2b64660PY42c1d80*
G04 #@! TF.FileFunction,Soldermask,Top*
G04 #@! TF.FilePolarity,Negative*
%FSLAX46Y46*%
G04 Gerber Fmt 4.6, Leading zero omitted, Abs format (unit mm)*
G04 Created by KiCad (PCBNEW 8.0.6-8.0.6-0~ubuntu24.04.1) date 2024-11-04 16:08:47*
%MOMM*%
%LPD*%
G01*
G04 APERTURE LIST*
G04 Aperture macros list*
%AMRoundRect*
0 Rectangle with rounded corners*
0 $1 Rounding radius*
0 $2 $3 $4 $5 $6 $7 $8 $9 X,Y pos of 4 corners*
0 Add a 4 corners polygon primitive as box body*
4,1,4,$2,$3,$4,$5,$6,$7,$8,$9,$2,$3,0*
0 Add four circle primitives for the rounded corners*
1,1,$1+$1,$2,$3*
1,1,$1+$1,$4,$5*
1,1,$1+$1,$6,$7*
1,1,$1+$1,$8,$9*
0 Add four rect primitives between the rounded corners*
20,1,$1+$1,$2,$3,$4,$5,0*
20,1,$1+$1,$4,$5,$6,$7,0*
20,1,$1+$1,$6,$7,$8,$9,0*
20,1,$1+$1,$8,$9,$2,$3,0*%
%AMFreePoly0*
4,1,19,0.500000,-0.750000,0.000000,-0.750000,0.000000,-0.744911,-0.071157,-0.744911,-0.207708,-0.704816,-0.327430,-0.627875,-0.420627,-0.520320,-0.479746,-0.390866,-0.500000,-0.250000,-0.500000,0.250000,-0.479746,0.390866,-0.420627,0.520320,-0.327430,0.627875,-0.207708,0.704816,-0.071157,0.744911,0.000000,0.744911,0.000000,0.750000,0.500000,0.750000,0.500000,-0.750000,0.500000,-0.750000,
$1*%
%AMFreePoly1*
4,1,19,0.000000,0.744911,0.071157,0.744911,0.207708,0.704816,0.327430,0.627875,0.420627,0.520320,0.479746,0.390866,0.500000,0.250000,0.500000,-0.250000,0.479746,-0.390866,0.420627,-0.520320,0.327430,-0.627875,0.207708,-0.704816,0.071157,-0.744911,0.000000,-0.744911,0.000000,-0.750000,-0.500000,-0.750000,-0.500000,0.750000,0.000000,0.750000,0.000000,0.744911,0.000000,0.744911,
$1*%
G04 Aperture macros list end*
%ADD10RoundRect,0.140000X0.170000X-0.140000X0.170000X0.140000X-0.170000X0.140000X-0.170000X-0.140000X0*%
%ADD11RoundRect,0.140000X0.140000X0.170000X-0.140000X0.170000X-0.140000X-0.170000X0.140000X-0.170000X0*%
%ADD12R,2.000000X3.800000*%
%ADD13RoundRect,0.102000X0.525000X-0.500000X0.525000X0.500000X-0.525000X0.500000X-0.525000X-0.500000X0*%
%ADD14RoundRect,0.102000X1.100000X-0.525000X1.100000X0.525000X-1.100000X0.525000X-1.100000X-0.525000X0*%
%ADD15RoundRect,0.225000X-0.250000X0.225000X-0.250000X-0.225000X0.250000X-0.225000X0.250000X0.225000X0*%
%ADD16RoundRect,0.140000X-0.170000X0.140000X-0.170000X-0.140000X0.170000X-0.140000X0.170000X0.140000X0*%
%ADD17C,1.000000*%
%ADD18RoundRect,0.102000X-0.525000X0.500000X-0.525000X-0.500000X0.525000X-0.500000X0.525000X0.500000X0*%
%ADD19RoundRect,0.102000X-1.100000X0.525000X-1.100000X-0.525000X1.100000X-0.525000X1.100000X0.525000X0*%
%ADD20RoundRect,0.135000X0.135000X0.185000X-0.135000X0.185000X-0.135000X-0.185000X0.135000X-0.185000X0*%
%ADD21C,2.000000*%
%ADD22FreePoly0,0.000000*%
%ADD23FreePoly1,0.000000*%
%ADD24RoundRect,0.062500X0.362500X0.062500X-0.362500X0.062500X-0.362500X-0.062500X0.362500X-0.062500X0*%
%ADD25RoundRect,0.062500X0.062500X0.362500X-0.062500X0.362500X-0.062500X-0.362500X0.062500X-0.362500X0*%
%ADD26R,7.650000X7.650000*%
%ADD27FreePoly0,180.000000*%
%ADD28FreePoly1,180.000000*%
%ADD29R,0.300000X0.750000*%
%ADD30R,1.450000X1.750000*%
%ADD31RoundRect,0.250000X-0.625000X0.312500X-0.625000X-0.312500X0.625000X-0.312500X0.625000X0.312500X0*%
%ADD32RoundRect,0.225000X0.250000X-0.225000X0.250000X0.225000X-0.250000X0.225000X-0.250000X-0.225000X0*%
%ADD33RoundRect,0.250000X0.625000X-0.312500X0.625000X0.312500X-0.625000X0.312500X-0.625000X-0.312500X0*%
%ADD34R,1.700000X1.700000*%
%ADD35O,1.700000X1.700000*%
%ADD36RoundRect,0.135000X-0.185000X0.135000X-0.185000X-0.135000X0.185000X-0.135000X0.185000X0.135000X0*%
%ADD37C,1.600000*%
G04 APERTURE END LIST*
D10*
X28800000Y20820000D03*
X28800000Y21780000D03*
X20250000Y21020000D03*
X20250000Y21980000D03*
X29900000Y20820000D03*
X29900000Y21780000D03*
X28500000Y34020000D03*
X28500000Y34980000D03*
X22000000Y34520000D03*
X22000000Y35480000D03*
D11*
X32230000Y28100000D03*
X31270000Y28100000D03*
D12*
X14500000Y44600000D03*
X20000000Y39250000D03*
D13*
X10912500Y25700000D03*
D14*
X9387500Y24225000D03*
X9387500Y27175000D03*
D15*
X31900000Y19575000D03*
X31900000Y18025000D03*
D16*
X29500000Y34980000D03*
X29500000Y34020000D03*
D17*
X23600000Y10800000D03*
D18*
X38700000Y42800000D03*
D19*
X40225000Y44275000D03*
X40225000Y41325000D03*
D20*
X5510000Y46200000D03*
X4490000Y46200000D03*
D21*
X39500000Y50750000D03*
D22*
X38875000Y32200000D03*
D23*
X40175000Y32200000D03*
D18*
X34700000Y46000000D03*
D19*
X36225000Y47475000D03*
X36225000Y44525000D03*
D15*
X5200000Y6425000D03*
X5200000Y4875000D03*
X22250000Y39025000D03*
X22250000Y37475000D03*
D24*
X29350000Y24050000D03*
X29350000Y24550000D03*
X29350000Y25050000D03*
X29350000Y25550000D03*
X29350000Y26050000D03*
X29350000Y26550000D03*
X29350000Y27050000D03*
X29350000Y27550000D03*
X29350000Y28050000D03*
X29350000Y28550000D03*
X29350000Y29050000D03*
X29350000Y29550000D03*
X29350000Y30050000D03*
X29350000Y30550000D03*
X29350000Y31050000D03*
X29350000Y31550000D03*
D25*
X28650000Y32250000D03*
X28150000Y32250000D03*
X27650000Y32250000D03*
X27150000Y32250000D03*
X26650000Y32250000D03*
X26150000Y32250000D03*
X25650000Y32250000D03*
X25150000Y32250000D03*
X24650000Y32250000D03*
X24150000Y32250000D03*
X23650000Y32250000D03*
X23150000Y32250000D03*
X22650000Y32250000D03*
X22150000Y32250000D03*
X21650000Y32250000D03*
X21150000Y32250000D03*
D24*
X20450000Y31550000D03*
X20450000Y31050000D03*
X20450000Y30550000D03*
X20450000Y30050000D03*
X20450000Y29550000D03*
X20450000Y29050000D03*
X20450000Y28550000D03*
X20450000Y28050000D03*
X20450000Y27550000D03*
X20450000Y27050000D03*
X20450000Y26550000D03*
X20450000Y26050000D03*
X20450000Y25550000D03*
X20450000Y25050000D03*
X20450000Y24550000D03*
X20450000Y24050000D03*
D25*
X21150000Y23350000D03*
X21650000Y23350000D03*
X22150000Y23350000D03*
X22650000Y23350000D03*
X23150000Y23350000D03*
X23650000Y23350000D03*
X24150000Y23350000D03*
X24650000Y23350000D03*
X25150000Y23350000D03*
X25650000Y23350000D03*
X26150000Y23350000D03*
X26650000Y23350000D03*
X27150000Y23350000D03*
X27650000Y23350000D03*
X28150000Y23350000D03*
X28650000Y23350000D03*
D26*
X24900000Y27800000D03*
D13*
X14862500Y22200000D03*
D14*
X13337500Y20725000D03*
X13337500Y23675000D03*
D18*
X38700000Y28700000D03*
D19*
X40225000Y30175000D03*
X40225000Y27225000D03*
D22*
X42775000Y42925000D03*
D23*
X44075000Y42925000D03*
D17*
X21800000Y13600000D03*
D27*
X6787500Y18600000D03*
D28*
X5487500Y18600000D03*
D29*
X29100000Y37000000D03*
X29600000Y37000000D03*
X30100000Y37000000D03*
X30600000Y37000000D03*
X30600000Y39900000D03*
X30100000Y39900000D03*
X29600000Y39900000D03*
X29100000Y39900000D03*
D30*
X29850000Y38450000D03*
D21*
X18000000Y1500000D03*
D31*
X17600000Y46062500D03*
X17600000Y43137500D03*
D10*
X18200000Y28270000D03*
X18200000Y29230000D03*
D22*
X42975000Y35925000D03*
D23*
X44275000Y35925000D03*
D22*
X38875000Y39300000D03*
D23*
X40175000Y39300000D03*
D32*
X4700000Y14825000D03*
X4700000Y16375000D03*
D16*
X19100000Y24080000D03*
X19100000Y23120000D03*
D15*
X22800000Y44475000D03*
X22800000Y42925000D03*
D32*
X45350000Y13575000D03*
X45350000Y15125000D03*
D27*
X10787500Y15200000D03*
D28*
X9487500Y15200000D03*
D18*
X34700000Y32600000D03*
D19*
X36225000Y34075000D03*
X36225000Y31125000D03*
D17*
X21000000Y19500000D03*
D12*
X13900000Y39250000D03*
D33*
X17000000Y37787500D03*
X17000000Y40712500D03*
D17*
X20000000Y35250000D03*
D21*
X39000000Y1500000D03*
D34*
X19250000Y50200000D03*
D35*
X16710000Y50200000D03*
X14170000Y50200000D03*
X11630000Y50200000D03*
D27*
X10787500Y29200000D03*
D28*
X9487500Y29200000D03*
D15*
X44000000Y46975000D03*
X44000000Y45425000D03*
D27*
X6837500Y25600000D03*
D28*
X5537500Y25600000D03*
D27*
X6837500Y11800000D03*
D28*
X5537500Y11800000D03*
D22*
X38875000Y46300000D03*
D23*
X40175000Y46300000D03*
D13*
X10912500Y11700000D03*
D14*
X9387500Y10225000D03*
X9387500Y13175000D03*
D20*
X5610000Y50400000D03*
X4590000Y50400000D03*
D36*
X27500000Y47010000D03*
X27500000Y45990000D03*
X25650000Y47020000D03*
X25650000Y46000000D03*
D22*
X42775000Y29025000D03*
D23*
X44075000Y29025000D03*
D13*
X14862500Y29200000D03*
D14*
X13337500Y27725000D03*
X13337500Y30675000D03*
D27*
X10787500Y22200000D03*
D28*
X9487500Y22200000D03*
D13*
X14862500Y15200000D03*
D14*
X13337500Y13725000D03*
X13337500Y16675000D03*
D12*
X29900000Y45500000D03*
D18*
X34700000Y39300000D03*
D19*
X36225000Y40775000D03*
X36225000Y37825000D03*
D32*
X5100000Y40650000D03*
X5100000Y42200000D03*
D11*
X29880000Y41200000D03*
X28920000Y41200000D03*
D12*
X20600000Y44600000D03*
D18*
X38700000Y35750000D03*
D19*
X40225000Y37225000D03*
X40225000Y34275000D03*
D13*
X10912500Y18700000D03*
D14*
X9387500Y17225000D03*
X9387500Y20175000D03*
D32*
X33450000Y16375000D03*
X33450000Y17925000D03*
D37*
X45000000Y3140000D03*
X45000000Y48860000D03*
X5000000Y3140000D03*
X5000000Y48860000D03*
M02*
