G04 #@! TF.GenerationSoftware,KiCad,Pcbnew,8.0.6-8.0.6-0~ubuntu24.04.1*
G04 #@! TF.CreationDate,2024-11-04T16:08:34-05:00*
G04 #@! TF.ProjectId,breakout-tt06-qfn,62726561-6b6f-4757-942d-747430362d71,1.1*
G04 #@! TF.SameCoordinates,PX2b64660PY42c1d80*
G04 #@! TF.FileFunction,Paste,Top*
G04 #@! TF.FilePolarity,Positive*
%FSLAX46Y46*%
G04 Gerber Fmt 4.6, Leading zero omitted, Abs format (unit mm)*
G04 Created by KiCad (PCBNEW 8.0.6-8.0.6-0~ubuntu24.04.1) date 2024-11-04 16:08:34*
%MOMM*%
%LPD*%
G01*
G04 APERTURE LIST*
G04 Aperture macros list*
%AMRoundRect*
0 Rectangle with rounded corners*
0 $1 Rounding radius*
0 $2 $3 $4 $5 $6 $7 $8 $9 X,Y pos of 4 corners*
0 Add a 4 corners polygon primitive as box body*
4,1,4,$2,$3,$4,$5,$6,$7,$8,$9,$2,$3,0*
0 Add four circle primitives for the rounded corners*
1,1,$1+$1,$2,$3*
1,1,$1+$1,$4,$5*
1,1,$1+$1,$6,$7*
1,1,$1+$1,$8,$9*
0 Add four rect primitives between the rounded corners*
20,1,$1+$1,$2,$3,$4,$5,0*
20,1,$1+$1,$4,$5,$6,$7,0*
20,1,$1+$1,$6,$7,$8,$9,0*
20,1,$1+$1,$8,$9,$2,$3,0*%
G04 Aperture macros list end*
%ADD10RoundRect,0.140000X0.170000X-0.140000X0.170000X0.140000X-0.170000X0.140000X-0.170000X-0.140000X0*%
%ADD11RoundRect,0.140000X0.140000X0.170000X-0.140000X0.170000X-0.140000X-0.170000X0.140000X-0.170000X0*%
%ADD12R,2.000000X3.800000*%
%ADD13R,1.050000X1.000000*%
%ADD14R,2.200000X1.050000*%
%ADD15RoundRect,0.225000X-0.250000X0.225000X-0.250000X-0.225000X0.250000X-0.225000X0.250000X0.225000X0*%
%ADD16RoundRect,0.140000X-0.170000X0.140000X-0.170000X-0.140000X0.170000X-0.140000X0.170000X0.140000X0*%
%ADD17RoundRect,0.135000X0.135000X0.185000X-0.135000X0.185000X-0.135000X-0.185000X0.135000X-0.185000X0*%
%ADD18RoundRect,0.250000X0.265000X0.265000X-0.265000X0.265000X-0.265000X-0.265000X0.265000X-0.265000X0*%
%ADD19RoundRect,0.062500X0.362500X0.062500X-0.362500X0.062500X-0.362500X-0.062500X0.362500X-0.062500X0*%
%ADD20RoundRect,0.062500X0.062500X0.362500X-0.062500X0.362500X-0.062500X-0.362500X0.062500X-0.362500X0*%
%ADD21R,0.580000X0.710000*%
%ADD22R,0.300000X0.750000*%
%ADD23RoundRect,0.250000X-0.625000X0.312500X-0.625000X-0.312500X0.625000X-0.312500X0.625000X0.312500X0*%
%ADD24RoundRect,0.225000X0.250000X-0.225000X0.250000X0.225000X-0.250000X0.225000X-0.250000X-0.225000X0*%
%ADD25RoundRect,0.250000X0.625000X-0.312500X0.625000X0.312500X-0.625000X0.312500X-0.625000X-0.312500X0*%
%ADD26RoundRect,0.135000X-0.185000X0.135000X-0.185000X-0.135000X0.185000X-0.135000X0.185000X0.135000X0*%
G04 APERTURE END LIST*
D10*
X28800000Y20820000D03*
X28800000Y21780000D03*
X20250000Y21020000D03*
X20250000Y21980000D03*
X29900000Y20820000D03*
X29900000Y21780000D03*
X28500000Y34020000D03*
X28500000Y34980000D03*
X22000000Y34520000D03*
X22000000Y35480000D03*
D11*
X32230000Y28100000D03*
X31270000Y28100000D03*
D12*
X14500000Y44600000D03*
X20000000Y39250000D03*
D13*
X10912500Y25700000D03*
D14*
X9387500Y24225000D03*
X9387500Y27175000D03*
D15*
X31900000Y19575000D03*
X31900000Y18025000D03*
D16*
X29500000Y34980000D03*
X29500000Y34020000D03*
D13*
X38700000Y42800000D03*
D14*
X40225000Y44275000D03*
X40225000Y41325000D03*
D17*
X5510000Y46200000D03*
X4490000Y46200000D03*
D13*
X34700000Y46000000D03*
D14*
X36225000Y47475000D03*
X36225000Y44525000D03*
D15*
X5200000Y6425000D03*
X5200000Y4875000D03*
X22250000Y39025000D03*
X22250000Y37475000D03*
D18*
X28100000Y24600000D03*
X28100000Y25880000D03*
X28100000Y27160000D03*
X28100000Y28440000D03*
X28100000Y29720000D03*
X28100000Y31000000D03*
X26820000Y24600000D03*
X26820000Y25880000D03*
X26820000Y27160000D03*
X26820000Y28440000D03*
X26820000Y29720000D03*
X26820000Y31000000D03*
X25540000Y24600000D03*
X25540000Y25880000D03*
X25540000Y27160000D03*
X25540000Y28440000D03*
X25540000Y29720000D03*
X25540000Y31000000D03*
X24260000Y24600000D03*
X24260000Y25880000D03*
X24260000Y27160000D03*
X24260000Y28440000D03*
X24260000Y29720000D03*
X24260000Y31000000D03*
X22980000Y24600000D03*
X22980000Y25880000D03*
X22980000Y27160000D03*
X22980000Y28440000D03*
X22980000Y29720000D03*
X22980000Y31000000D03*
X21700000Y24600000D03*
X21700000Y25880000D03*
X21700000Y27160000D03*
X21700000Y28440000D03*
X21700000Y29720000D03*
X21700000Y31000000D03*
D19*
X29350000Y24050000D03*
X29350000Y24550000D03*
X29350000Y25050000D03*
X29350000Y25550000D03*
X29350000Y26050000D03*
X29350000Y26550000D03*
X29350000Y27050000D03*
X29350000Y27550000D03*
X29350000Y28050000D03*
X29350000Y28550000D03*
X29350000Y29050000D03*
X29350000Y29550000D03*
X29350000Y30050000D03*
X29350000Y30550000D03*
X29350000Y31050000D03*
X29350000Y31550000D03*
D20*
X28650000Y32250000D03*
X28150000Y32250000D03*
X27650000Y32250000D03*
X27150000Y32250000D03*
X26650000Y32250000D03*
X26150000Y32250000D03*
X25650000Y32250000D03*
X25150000Y32250000D03*
X24650000Y32250000D03*
X24150000Y32250000D03*
X23650000Y32250000D03*
X23150000Y32250000D03*
X22650000Y32250000D03*
X22150000Y32250000D03*
X21650000Y32250000D03*
X21150000Y32250000D03*
D19*
X20450000Y31550000D03*
X20450000Y31050000D03*
X20450000Y30550000D03*
X20450000Y30050000D03*
X20450000Y29550000D03*
X20450000Y29050000D03*
X20450000Y28550000D03*
X20450000Y28050000D03*
X20450000Y27550000D03*
X20450000Y27050000D03*
X20450000Y26550000D03*
X20450000Y26050000D03*
X20450000Y25550000D03*
X20450000Y25050000D03*
X20450000Y24550000D03*
X20450000Y24050000D03*
D20*
X21150000Y23350000D03*
X21650000Y23350000D03*
X22150000Y23350000D03*
X22650000Y23350000D03*
X23150000Y23350000D03*
X23650000Y23350000D03*
X24150000Y23350000D03*
X24650000Y23350000D03*
X25150000Y23350000D03*
X25650000Y23350000D03*
X26150000Y23350000D03*
X26650000Y23350000D03*
X27150000Y23350000D03*
X27650000Y23350000D03*
X28150000Y23350000D03*
X28650000Y23350000D03*
D13*
X14862500Y22200000D03*
D14*
X13337500Y20725000D03*
X13337500Y23675000D03*
D13*
X38700000Y28700000D03*
D14*
X40225000Y30175000D03*
X40225000Y27225000D03*
D21*
X29487500Y38012500D03*
X30212500Y38012500D03*
X29487500Y38887500D03*
X30212500Y38887500D03*
D22*
X29100000Y37000000D03*
X29600000Y37000000D03*
X30100000Y37000000D03*
X30600000Y37000000D03*
X30600000Y39900000D03*
X30100000Y39900000D03*
X29600000Y39900000D03*
X29100000Y39900000D03*
D23*
X17600000Y46062500D03*
X17600000Y43137500D03*
D10*
X18200000Y28270000D03*
X18200000Y29230000D03*
D24*
X4700000Y14825000D03*
X4700000Y16375000D03*
D16*
X19100000Y24080000D03*
X19100000Y23120000D03*
D15*
X22800000Y44475000D03*
X22800000Y42925000D03*
D24*
X45350000Y13575000D03*
X45350000Y15125000D03*
D13*
X34700000Y32600000D03*
D14*
X36225000Y34075000D03*
X36225000Y31125000D03*
D12*
X13900000Y39250000D03*
D25*
X17000000Y37787500D03*
X17000000Y40712500D03*
D15*
X44000000Y46975000D03*
X44000000Y45425000D03*
D13*
X10912500Y11700000D03*
D14*
X9387500Y10225000D03*
X9387500Y13175000D03*
D17*
X5610000Y50400000D03*
X4590000Y50400000D03*
D26*
X27500000Y47010000D03*
X27500000Y45990000D03*
X25650000Y47020000D03*
X25650000Y46000000D03*
D13*
X14862500Y29200000D03*
D14*
X13337500Y27725000D03*
X13337500Y30675000D03*
D13*
X14862500Y15200000D03*
D14*
X13337500Y13725000D03*
X13337500Y16675000D03*
D12*
X29900000Y45500000D03*
D13*
X34700000Y39300000D03*
D14*
X36225000Y40775000D03*
X36225000Y37825000D03*
D24*
X5100000Y40650000D03*
X5100000Y42200000D03*
D11*
X29880000Y41200000D03*
X28920000Y41200000D03*
D12*
X20600000Y44600000D03*
D13*
X38700000Y35750000D03*
D14*
X40225000Y37225000D03*
X40225000Y34275000D03*
D13*
X10912500Y18700000D03*
D14*
X9387500Y17225000D03*
X9387500Y20175000D03*
D24*
X33450000Y16375000D03*
X33450000Y17925000D03*
M02*
