G04 #@! TF.GenerationSoftware,KiCad,Pcbnew,8.0.6-8.0.6-0~ubuntu24.04.1*
G04 #@! TF.CreationDate,2024-11-04T16:08:56-05:00*
G04 #@! TF.ProjectId,breakout-tt06-qfn,62726561-6b6f-4757-942d-747430362d71,1.1*
G04 #@! TF.SameCoordinates,PX2b64660PY42c1d80*
G04 #@! TF.FileFunction,AssemblyDrawing,Top*
%FSLAX46Y46*%
G04 Gerber Fmt 4.6, Leading zero omitted, Abs format (unit mm)*
G04 Created by KiCad (PCBNEW 8.0.6-8.0.6-0~ubuntu24.04.1) date 2024-11-04 16:08:56*
%MOMM*%
%LPD*%
G01*
G04 APERTURE LIST*
%ADD10C,0.040000*%
%ADD11C,0.135000*%
%ADD12C,0.060000*%
%ADD13C,0.150000*%
%ADD14C,0.105000*%
%ADD15C,0.120000*%
%ADD16C,0.100000*%
%ADD17C,0.200000*%
G04 APERTURE END LIST*
D10*
X28889765Y21258334D02*
X28901670Y21246430D01*
X28901670Y21246430D02*
X28913574Y21210715D01*
X28913574Y21210715D02*
X28913574Y21186906D01*
X28913574Y21186906D02*
X28901670Y21151192D01*
X28901670Y21151192D02*
X28877860Y21127382D01*
X28877860Y21127382D02*
X28854050Y21115477D01*
X28854050Y21115477D02*
X28806431Y21103573D01*
X28806431Y21103573D02*
X28770717Y21103573D01*
X28770717Y21103573D02*
X28723098Y21115477D01*
X28723098Y21115477D02*
X28699289Y21127382D01*
X28699289Y21127382D02*
X28675479Y21151192D01*
X28675479Y21151192D02*
X28663574Y21186906D01*
X28663574Y21186906D02*
X28663574Y21210715D01*
X28663574Y21210715D02*
X28675479Y21246430D01*
X28675479Y21246430D02*
X28687384Y21258334D01*
X28663574Y21484525D02*
X28663574Y21365477D01*
X28663574Y21365477D02*
X28782622Y21353573D01*
X28782622Y21353573D02*
X28770717Y21365477D01*
X28770717Y21365477D02*
X28758812Y21389287D01*
X28758812Y21389287D02*
X28758812Y21448811D01*
X28758812Y21448811D02*
X28770717Y21472620D01*
X28770717Y21472620D02*
X28782622Y21484525D01*
X28782622Y21484525D02*
X28806431Y21496430D01*
X28806431Y21496430D02*
X28865955Y21496430D01*
X28865955Y21496430D02*
X28889765Y21484525D01*
X28889765Y21484525D02*
X28901670Y21472620D01*
X28901670Y21472620D02*
X28913574Y21448811D01*
X28913574Y21448811D02*
X28913574Y21389287D01*
X28913574Y21389287D02*
X28901670Y21365477D01*
X28901670Y21365477D02*
X28889765Y21353573D01*
X20339765Y21458334D02*
X20351670Y21446430D01*
X20351670Y21446430D02*
X20363574Y21410715D01*
X20363574Y21410715D02*
X20363574Y21386906D01*
X20363574Y21386906D02*
X20351670Y21351192D01*
X20351670Y21351192D02*
X20327860Y21327382D01*
X20327860Y21327382D02*
X20304050Y21315477D01*
X20304050Y21315477D02*
X20256431Y21303573D01*
X20256431Y21303573D02*
X20220717Y21303573D01*
X20220717Y21303573D02*
X20173098Y21315477D01*
X20173098Y21315477D02*
X20149289Y21327382D01*
X20149289Y21327382D02*
X20125479Y21351192D01*
X20125479Y21351192D02*
X20113574Y21386906D01*
X20113574Y21386906D02*
X20113574Y21410715D01*
X20113574Y21410715D02*
X20125479Y21446430D01*
X20125479Y21446430D02*
X20137384Y21458334D01*
X20196908Y21672620D02*
X20363574Y21672620D01*
X20101670Y21613096D02*
X20280241Y21553573D01*
X20280241Y21553573D02*
X20280241Y21708334D01*
X29989765Y21258334D02*
X30001670Y21246430D01*
X30001670Y21246430D02*
X30013574Y21210715D01*
X30013574Y21210715D02*
X30013574Y21186906D01*
X30013574Y21186906D02*
X30001670Y21151192D01*
X30001670Y21151192D02*
X29977860Y21127382D01*
X29977860Y21127382D02*
X29954050Y21115477D01*
X29954050Y21115477D02*
X29906431Y21103573D01*
X29906431Y21103573D02*
X29870717Y21103573D01*
X29870717Y21103573D02*
X29823098Y21115477D01*
X29823098Y21115477D02*
X29799289Y21127382D01*
X29799289Y21127382D02*
X29775479Y21151192D01*
X29775479Y21151192D02*
X29763574Y21186906D01*
X29763574Y21186906D02*
X29763574Y21210715D01*
X29763574Y21210715D02*
X29775479Y21246430D01*
X29775479Y21246430D02*
X29787384Y21258334D01*
X29870717Y21401192D02*
X29858812Y21377382D01*
X29858812Y21377382D02*
X29846908Y21365477D01*
X29846908Y21365477D02*
X29823098Y21353573D01*
X29823098Y21353573D02*
X29811193Y21353573D01*
X29811193Y21353573D02*
X29787384Y21365477D01*
X29787384Y21365477D02*
X29775479Y21377382D01*
X29775479Y21377382D02*
X29763574Y21401192D01*
X29763574Y21401192D02*
X29763574Y21448811D01*
X29763574Y21448811D02*
X29775479Y21472620D01*
X29775479Y21472620D02*
X29787384Y21484525D01*
X29787384Y21484525D02*
X29811193Y21496430D01*
X29811193Y21496430D02*
X29823098Y21496430D01*
X29823098Y21496430D02*
X29846908Y21484525D01*
X29846908Y21484525D02*
X29858812Y21472620D01*
X29858812Y21472620D02*
X29870717Y21448811D01*
X29870717Y21448811D02*
X29870717Y21401192D01*
X29870717Y21401192D02*
X29882622Y21377382D01*
X29882622Y21377382D02*
X29894527Y21365477D01*
X29894527Y21365477D02*
X29918336Y21353573D01*
X29918336Y21353573D02*
X29965955Y21353573D01*
X29965955Y21353573D02*
X29989765Y21365477D01*
X29989765Y21365477D02*
X30001670Y21377382D01*
X30001670Y21377382D02*
X30013574Y21401192D01*
X30013574Y21401192D02*
X30013574Y21448811D01*
X30013574Y21448811D02*
X30001670Y21472620D01*
X30001670Y21472620D02*
X29989765Y21484525D01*
X29989765Y21484525D02*
X29965955Y21496430D01*
X29965955Y21496430D02*
X29918336Y21496430D01*
X29918336Y21496430D02*
X29894527Y21484525D01*
X29894527Y21484525D02*
X29882622Y21472620D01*
X29882622Y21472620D02*
X29870717Y21448811D01*
X28589765Y34458334D02*
X28601670Y34446430D01*
X28601670Y34446430D02*
X28613574Y34410715D01*
X28613574Y34410715D02*
X28613574Y34386906D01*
X28613574Y34386906D02*
X28601670Y34351192D01*
X28601670Y34351192D02*
X28577860Y34327382D01*
X28577860Y34327382D02*
X28554050Y34315477D01*
X28554050Y34315477D02*
X28506431Y34303573D01*
X28506431Y34303573D02*
X28470717Y34303573D01*
X28470717Y34303573D02*
X28423098Y34315477D01*
X28423098Y34315477D02*
X28399289Y34327382D01*
X28399289Y34327382D02*
X28375479Y34351192D01*
X28375479Y34351192D02*
X28363574Y34386906D01*
X28363574Y34386906D02*
X28363574Y34410715D01*
X28363574Y34410715D02*
X28375479Y34446430D01*
X28375479Y34446430D02*
X28387384Y34458334D01*
X28363574Y34672620D02*
X28363574Y34625001D01*
X28363574Y34625001D02*
X28375479Y34601192D01*
X28375479Y34601192D02*
X28387384Y34589287D01*
X28387384Y34589287D02*
X28423098Y34565477D01*
X28423098Y34565477D02*
X28470717Y34553573D01*
X28470717Y34553573D02*
X28565955Y34553573D01*
X28565955Y34553573D02*
X28589765Y34565477D01*
X28589765Y34565477D02*
X28601670Y34577382D01*
X28601670Y34577382D02*
X28613574Y34601192D01*
X28613574Y34601192D02*
X28613574Y34648811D01*
X28613574Y34648811D02*
X28601670Y34672620D01*
X28601670Y34672620D02*
X28589765Y34684525D01*
X28589765Y34684525D02*
X28565955Y34696430D01*
X28565955Y34696430D02*
X28506431Y34696430D01*
X28506431Y34696430D02*
X28482622Y34684525D01*
X28482622Y34684525D02*
X28470717Y34672620D01*
X28470717Y34672620D02*
X28458812Y34648811D01*
X28458812Y34648811D02*
X28458812Y34601192D01*
X28458812Y34601192D02*
X28470717Y34577382D01*
X28470717Y34577382D02*
X28482622Y34565477D01*
X28482622Y34565477D02*
X28506431Y34553573D01*
X22089765Y34839286D02*
X22101670Y34827382D01*
X22101670Y34827382D02*
X22113574Y34791667D01*
X22113574Y34791667D02*
X22113574Y34767858D01*
X22113574Y34767858D02*
X22101670Y34732144D01*
X22101670Y34732144D02*
X22077860Y34708334D01*
X22077860Y34708334D02*
X22054050Y34696429D01*
X22054050Y34696429D02*
X22006431Y34684525D01*
X22006431Y34684525D02*
X21970717Y34684525D01*
X21970717Y34684525D02*
X21923098Y34696429D01*
X21923098Y34696429D02*
X21899289Y34708334D01*
X21899289Y34708334D02*
X21875479Y34732144D01*
X21875479Y34732144D02*
X21863574Y34767858D01*
X21863574Y34767858D02*
X21863574Y34791667D01*
X21863574Y34791667D02*
X21875479Y34827382D01*
X21875479Y34827382D02*
X21887384Y34839286D01*
X22113574Y35077382D02*
X22113574Y34934525D01*
X22113574Y35005953D02*
X21863574Y35005953D01*
X21863574Y35005953D02*
X21899289Y34982144D01*
X21899289Y34982144D02*
X21923098Y34958334D01*
X21923098Y34958334D02*
X21935003Y34934525D01*
X21863574Y35232143D02*
X21863574Y35255953D01*
X21863574Y35255953D02*
X21875479Y35279762D01*
X21875479Y35279762D02*
X21887384Y35291667D01*
X21887384Y35291667D02*
X21911193Y35303572D01*
X21911193Y35303572D02*
X21958812Y35315477D01*
X21958812Y35315477D02*
X22018336Y35315477D01*
X22018336Y35315477D02*
X22065955Y35303572D01*
X22065955Y35303572D02*
X22089765Y35291667D01*
X22089765Y35291667D02*
X22101670Y35279762D01*
X22101670Y35279762D02*
X22113574Y35255953D01*
X22113574Y35255953D02*
X22113574Y35232143D01*
X22113574Y35232143D02*
X22101670Y35208334D01*
X22101670Y35208334D02*
X22089765Y35196429D01*
X22089765Y35196429D02*
X22065955Y35184524D01*
X22065955Y35184524D02*
X22018336Y35172620D01*
X22018336Y35172620D02*
X21958812Y35172620D01*
X21958812Y35172620D02*
X21911193Y35184524D01*
X21911193Y35184524D02*
X21887384Y35196429D01*
X21887384Y35196429D02*
X21875479Y35208334D01*
X21875479Y35208334D02*
X21863574Y35232143D01*
X31589285Y28010235D02*
X31577381Y27998330D01*
X31577381Y27998330D02*
X31541666Y27986426D01*
X31541666Y27986426D02*
X31517857Y27986426D01*
X31517857Y27986426D02*
X31482143Y27998330D01*
X31482143Y27998330D02*
X31458333Y28022140D01*
X31458333Y28022140D02*
X31446428Y28045950D01*
X31446428Y28045950D02*
X31434524Y28093569D01*
X31434524Y28093569D02*
X31434524Y28129283D01*
X31434524Y28129283D02*
X31446428Y28176902D01*
X31446428Y28176902D02*
X31458333Y28200711D01*
X31458333Y28200711D02*
X31482143Y28224521D01*
X31482143Y28224521D02*
X31517857Y28236426D01*
X31517857Y28236426D02*
X31541666Y28236426D01*
X31541666Y28236426D02*
X31577381Y28224521D01*
X31577381Y28224521D02*
X31589285Y28212616D01*
X31827381Y27986426D02*
X31684524Y27986426D01*
X31755952Y27986426D02*
X31755952Y28236426D01*
X31755952Y28236426D02*
X31732143Y28200711D01*
X31732143Y28200711D02*
X31708333Y28176902D01*
X31708333Y28176902D02*
X31684524Y28164997D01*
X31910714Y28236426D02*
X32065476Y28236426D01*
X32065476Y28236426D02*
X31982142Y28141188D01*
X31982142Y28141188D02*
X32017857Y28141188D01*
X32017857Y28141188D02*
X32041666Y28129283D01*
X32041666Y28129283D02*
X32053571Y28117378D01*
X32053571Y28117378D02*
X32065476Y28093569D01*
X32065476Y28093569D02*
X32065476Y28034045D01*
X32065476Y28034045D02*
X32053571Y28010235D01*
X32053571Y28010235D02*
X32041666Y27998330D01*
X32041666Y27998330D02*
X32017857Y27986426D01*
X32017857Y27986426D02*
X31946428Y27986426D01*
X31946428Y27986426D02*
X31922619Y27998330D01*
X31922619Y27998330D02*
X31910714Y28010235D01*
D11*
X14009337Y43464287D02*
X14009337Y43978572D01*
X14909337Y43721430D02*
X14009337Y43721430D01*
X14909337Y44278572D02*
X14009337Y44278572D01*
X14009337Y44278572D02*
X14009337Y44621429D01*
X14009337Y44621429D02*
X14052194Y44707144D01*
X14052194Y44707144D02*
X14095051Y44750001D01*
X14095051Y44750001D02*
X14180765Y44792858D01*
X14180765Y44792858D02*
X14309337Y44792858D01*
X14309337Y44792858D02*
X14395051Y44750001D01*
X14395051Y44750001D02*
X14437908Y44707144D01*
X14437908Y44707144D02*
X14480765Y44621429D01*
X14480765Y44621429D02*
X14480765Y44278572D01*
X14009337Y45092858D02*
X14009337Y45650001D01*
X14009337Y45650001D02*
X14352194Y45350001D01*
X14352194Y45350001D02*
X14352194Y45478572D01*
X14352194Y45478572D02*
X14395051Y45564286D01*
X14395051Y45564286D02*
X14437908Y45607144D01*
X14437908Y45607144D02*
X14523622Y45650001D01*
X14523622Y45650001D02*
X14737908Y45650001D01*
X14737908Y45650001D02*
X14823622Y45607144D01*
X14823622Y45607144D02*
X14866480Y45564286D01*
X14866480Y45564286D02*
X14909337Y45478572D01*
X14909337Y45478572D02*
X14909337Y45221429D01*
X14909337Y45221429D02*
X14866480Y45135715D01*
X14866480Y45135715D02*
X14823622Y45092858D01*
X19509337Y38114287D02*
X19509337Y38628572D01*
X20409337Y38371430D02*
X19509337Y38371430D01*
X20409337Y38928572D02*
X19509337Y38928572D01*
X19509337Y38928572D02*
X19509337Y39271429D01*
X19509337Y39271429D02*
X19552194Y39357144D01*
X19552194Y39357144D02*
X19595051Y39400001D01*
X19595051Y39400001D02*
X19680765Y39442858D01*
X19680765Y39442858D02*
X19809337Y39442858D01*
X19809337Y39442858D02*
X19895051Y39400001D01*
X19895051Y39400001D02*
X19937908Y39357144D01*
X19937908Y39357144D02*
X19980765Y39271429D01*
X19980765Y39271429D02*
X19980765Y38928572D01*
X19595051Y39785715D02*
X19552194Y39828572D01*
X19552194Y39828572D02*
X19509337Y39914286D01*
X19509337Y39914286D02*
X19509337Y40128572D01*
X19509337Y40128572D02*
X19552194Y40214286D01*
X19552194Y40214286D02*
X19595051Y40257144D01*
X19595051Y40257144D02*
X19680765Y40300001D01*
X19680765Y40300001D02*
X19766480Y40300001D01*
X19766480Y40300001D02*
X19895051Y40257144D01*
X19895051Y40257144D02*
X20409337Y39742858D01*
X20409337Y39742858D02*
X20409337Y40300001D01*
D12*
X32043832Y18542858D02*
X32062880Y18523810D01*
X32062880Y18523810D02*
X32081927Y18466668D01*
X32081927Y18466668D02*
X32081927Y18428572D01*
X32081927Y18428572D02*
X32062880Y18371429D01*
X32062880Y18371429D02*
X32024784Y18333334D01*
X32024784Y18333334D02*
X31986689Y18314287D01*
X31986689Y18314287D02*
X31910499Y18295239D01*
X31910499Y18295239D02*
X31853356Y18295239D01*
X31853356Y18295239D02*
X31777165Y18314287D01*
X31777165Y18314287D02*
X31739070Y18333334D01*
X31739070Y18333334D02*
X31700975Y18371429D01*
X31700975Y18371429D02*
X31681927Y18428572D01*
X31681927Y18428572D02*
X31681927Y18466668D01*
X31681927Y18466668D02*
X31700975Y18523810D01*
X31700975Y18523810D02*
X31720022Y18542858D01*
X32081927Y18923810D02*
X32081927Y18695239D01*
X32081927Y18809525D02*
X31681927Y18809525D01*
X31681927Y18809525D02*
X31739070Y18771429D01*
X31739070Y18771429D02*
X31777165Y18733334D01*
X31777165Y18733334D02*
X31796213Y18695239D01*
X32081927Y19114286D02*
X32081927Y19190477D01*
X32081927Y19190477D02*
X32062880Y19228572D01*
X32062880Y19228572D02*
X32043832Y19247620D01*
X32043832Y19247620D02*
X31986689Y19285715D01*
X31986689Y19285715D02*
X31910499Y19304762D01*
X31910499Y19304762D02*
X31758118Y19304762D01*
X31758118Y19304762D02*
X31720022Y19285715D01*
X31720022Y19285715D02*
X31700975Y19266667D01*
X31700975Y19266667D02*
X31681927Y19228572D01*
X31681927Y19228572D02*
X31681927Y19152381D01*
X31681927Y19152381D02*
X31700975Y19114286D01*
X31700975Y19114286D02*
X31720022Y19095239D01*
X31720022Y19095239D02*
X31758118Y19076191D01*
X31758118Y19076191D02*
X31853356Y19076191D01*
X31853356Y19076191D02*
X31891451Y19095239D01*
X31891451Y19095239D02*
X31910499Y19114286D01*
X31910499Y19114286D02*
X31929546Y19152381D01*
X31929546Y19152381D02*
X31929546Y19228572D01*
X31929546Y19228572D02*
X31910499Y19266667D01*
X31910499Y19266667D02*
X31891451Y19285715D01*
X31891451Y19285715D02*
X31853356Y19304762D01*
D10*
X29589765Y34458334D02*
X29601670Y34446430D01*
X29601670Y34446430D02*
X29613574Y34410715D01*
X29613574Y34410715D02*
X29613574Y34386906D01*
X29613574Y34386906D02*
X29601670Y34351192D01*
X29601670Y34351192D02*
X29577860Y34327382D01*
X29577860Y34327382D02*
X29554050Y34315477D01*
X29554050Y34315477D02*
X29506431Y34303573D01*
X29506431Y34303573D02*
X29470717Y34303573D01*
X29470717Y34303573D02*
X29423098Y34315477D01*
X29423098Y34315477D02*
X29399289Y34327382D01*
X29399289Y34327382D02*
X29375479Y34351192D01*
X29375479Y34351192D02*
X29363574Y34386906D01*
X29363574Y34386906D02*
X29363574Y34410715D01*
X29363574Y34410715D02*
X29375479Y34446430D01*
X29375479Y34446430D02*
X29387384Y34458334D01*
X29363574Y34541668D02*
X29363574Y34708334D01*
X29363574Y34708334D02*
X29613574Y34601192D01*
D13*
X22338095Y12795181D02*
X22909523Y12795181D01*
X22623809Y11795181D02*
X22623809Y12795181D01*
X23242857Y11795181D02*
X23242857Y12795181D01*
X23242857Y12795181D02*
X23623809Y12795181D01*
X23623809Y12795181D02*
X23719047Y12747562D01*
X23719047Y12747562D02*
X23766666Y12699943D01*
X23766666Y12699943D02*
X23814285Y12604705D01*
X23814285Y12604705D02*
X23814285Y12461848D01*
X23814285Y12461848D02*
X23766666Y12366610D01*
X23766666Y12366610D02*
X23719047Y12318991D01*
X23719047Y12318991D02*
X23623809Y12271372D01*
X23623809Y12271372D02*
X23242857Y12271372D01*
X24385714Y12366610D02*
X24290476Y12414229D01*
X24290476Y12414229D02*
X24242857Y12461848D01*
X24242857Y12461848D02*
X24195238Y12557086D01*
X24195238Y12557086D02*
X24195238Y12604705D01*
X24195238Y12604705D02*
X24242857Y12699943D01*
X24242857Y12699943D02*
X24290476Y12747562D01*
X24290476Y12747562D02*
X24385714Y12795181D01*
X24385714Y12795181D02*
X24576190Y12795181D01*
X24576190Y12795181D02*
X24671428Y12747562D01*
X24671428Y12747562D02*
X24719047Y12699943D01*
X24719047Y12699943D02*
X24766666Y12604705D01*
X24766666Y12604705D02*
X24766666Y12557086D01*
X24766666Y12557086D02*
X24719047Y12461848D01*
X24719047Y12461848D02*
X24671428Y12414229D01*
X24671428Y12414229D02*
X24576190Y12366610D01*
X24576190Y12366610D02*
X24385714Y12366610D01*
X24385714Y12366610D02*
X24290476Y12318991D01*
X24290476Y12318991D02*
X24242857Y12271372D01*
X24242857Y12271372D02*
X24195238Y12176134D01*
X24195238Y12176134D02*
X24195238Y11985658D01*
X24195238Y11985658D02*
X24242857Y11890420D01*
X24242857Y11890420D02*
X24290476Y11842800D01*
X24290476Y11842800D02*
X24385714Y11795181D01*
X24385714Y11795181D02*
X24576190Y11795181D01*
X24576190Y11795181D02*
X24671428Y11842800D01*
X24671428Y11842800D02*
X24719047Y11890420D01*
X24719047Y11890420D02*
X24766666Y11985658D01*
X24766666Y11985658D02*
X24766666Y12176134D01*
X24766666Y12176134D02*
X24719047Y12271372D01*
X24719047Y12271372D02*
X24671428Y12318991D01*
X24671428Y12318991D02*
X24576190Y12366610D01*
D10*
X4956667Y46081800D02*
X4870000Y46205609D01*
X4808095Y46081800D02*
X4808095Y46341800D01*
X4808095Y46341800D02*
X4907143Y46341800D01*
X4907143Y46341800D02*
X4931905Y46329419D01*
X4931905Y46329419D02*
X4944286Y46317038D01*
X4944286Y46317038D02*
X4956667Y46292276D01*
X4956667Y46292276D02*
X4956667Y46255133D01*
X4956667Y46255133D02*
X4944286Y46230371D01*
X4944286Y46230371D02*
X4931905Y46217990D01*
X4931905Y46217990D02*
X4907143Y46205609D01*
X4907143Y46205609D02*
X4808095Y46205609D01*
X5204286Y46081800D02*
X5055714Y46081800D01*
X5130000Y46081800D02*
X5130000Y46341800D01*
X5130000Y46341800D02*
X5105238Y46304657D01*
X5105238Y46304657D02*
X5080476Y46279895D01*
X5080476Y46279895D02*
X5055714Y46267514D01*
D12*
X39071429Y50777597D02*
X38938096Y50777597D01*
X38938096Y50568073D02*
X38938096Y50968073D01*
X38938096Y50968073D02*
X39128572Y50968073D01*
X39280953Y50568073D02*
X39280953Y50968073D01*
X39471429Y50568073D02*
X39471429Y50968073D01*
X39471429Y50968073D02*
X39566667Y50968073D01*
X39566667Y50968073D02*
X39623810Y50949025D01*
X39623810Y50949025D02*
X39661905Y50910930D01*
X39661905Y50910930D02*
X39680952Y50872835D01*
X39680952Y50872835D02*
X39700000Y50796644D01*
X39700000Y50796644D02*
X39700000Y50739501D01*
X39700000Y50739501D02*
X39680952Y50663311D01*
X39680952Y50663311D02*
X39661905Y50625216D01*
X39661905Y50625216D02*
X39623810Y50587120D01*
X39623810Y50587120D02*
X39566667Y50568073D01*
X39566667Y50568073D02*
X39471429Y50568073D01*
X39852381Y50929978D02*
X39871429Y50949025D01*
X39871429Y50949025D02*
X39909524Y50968073D01*
X39909524Y50968073D02*
X40004762Y50968073D01*
X40004762Y50968073D02*
X40042857Y50949025D01*
X40042857Y50949025D02*
X40061905Y50929978D01*
X40061905Y50929978D02*
X40080952Y50891882D01*
X40080952Y50891882D02*
X40080952Y50853787D01*
X40080952Y50853787D02*
X40061905Y50796644D01*
X40061905Y50796644D02*
X39833333Y50568073D01*
X39833333Y50568073D02*
X40080952Y50568073D01*
X5343832Y5392858D02*
X5362880Y5373810D01*
X5362880Y5373810D02*
X5381927Y5316668D01*
X5381927Y5316668D02*
X5381927Y5278572D01*
X5381927Y5278572D02*
X5362880Y5221429D01*
X5362880Y5221429D02*
X5324784Y5183334D01*
X5324784Y5183334D02*
X5286689Y5164287D01*
X5286689Y5164287D02*
X5210499Y5145239D01*
X5210499Y5145239D02*
X5153356Y5145239D01*
X5153356Y5145239D02*
X5077165Y5164287D01*
X5077165Y5164287D02*
X5039070Y5183334D01*
X5039070Y5183334D02*
X5000975Y5221429D01*
X5000975Y5221429D02*
X4981927Y5278572D01*
X4981927Y5278572D02*
X4981927Y5316668D01*
X4981927Y5316668D02*
X5000975Y5373810D01*
X5000975Y5373810D02*
X5020022Y5392858D01*
X5381927Y5773810D02*
X5381927Y5545239D01*
X5381927Y5659525D02*
X4981927Y5659525D01*
X4981927Y5659525D02*
X5039070Y5621429D01*
X5039070Y5621429D02*
X5077165Y5583334D01*
X5077165Y5583334D02*
X5096213Y5545239D01*
X5115260Y6116667D02*
X5381927Y6116667D01*
X4962880Y6021429D02*
X5248594Y5926191D01*
X5248594Y5926191D02*
X5248594Y6173810D01*
X22393832Y38183334D02*
X22412880Y38164286D01*
X22412880Y38164286D02*
X22431927Y38107144D01*
X22431927Y38107144D02*
X22431927Y38069048D01*
X22431927Y38069048D02*
X22412880Y38011905D01*
X22412880Y38011905D02*
X22374784Y37973810D01*
X22374784Y37973810D02*
X22336689Y37954763D01*
X22336689Y37954763D02*
X22260499Y37935715D01*
X22260499Y37935715D02*
X22203356Y37935715D01*
X22203356Y37935715D02*
X22127165Y37954763D01*
X22127165Y37954763D02*
X22089070Y37973810D01*
X22089070Y37973810D02*
X22050975Y38011905D01*
X22050975Y38011905D02*
X22031927Y38069048D01*
X22031927Y38069048D02*
X22031927Y38107144D01*
X22031927Y38107144D02*
X22050975Y38164286D01*
X22050975Y38164286D02*
X22070022Y38183334D01*
X22070022Y38335715D02*
X22050975Y38354763D01*
X22050975Y38354763D02*
X22031927Y38392858D01*
X22031927Y38392858D02*
X22031927Y38488096D01*
X22031927Y38488096D02*
X22050975Y38526191D01*
X22050975Y38526191D02*
X22070022Y38545239D01*
X22070022Y38545239D02*
X22108118Y38564286D01*
X22108118Y38564286D02*
X22146213Y38564286D01*
X22146213Y38564286D02*
X22203356Y38545239D01*
X22203356Y38545239D02*
X22431927Y38316667D01*
X22431927Y38316667D02*
X22431927Y38564286D01*
D13*
X24138095Y28345181D02*
X24138095Y27535658D01*
X24138095Y27535658D02*
X24185714Y27440420D01*
X24185714Y27440420D02*
X24233333Y27392800D01*
X24233333Y27392800D02*
X24328571Y27345181D01*
X24328571Y27345181D02*
X24519047Y27345181D01*
X24519047Y27345181D02*
X24614285Y27392800D01*
X24614285Y27392800D02*
X24661904Y27440420D01*
X24661904Y27440420D02*
X24709523Y27535658D01*
X24709523Y27535658D02*
X24709523Y28345181D01*
X25709523Y27345181D02*
X25138095Y27345181D01*
X25423809Y27345181D02*
X25423809Y28345181D01*
X25423809Y28345181D02*
X25328571Y28202324D01*
X25328571Y28202324D02*
X25233333Y28107086D01*
X25233333Y28107086D02*
X25138095Y28059467D01*
X20538095Y15595181D02*
X21109523Y15595181D01*
X20823809Y14595181D02*
X20823809Y15595181D01*
X21442857Y14595181D02*
X21442857Y15595181D01*
X21442857Y15595181D02*
X21823809Y15595181D01*
X21823809Y15595181D02*
X21919047Y15547562D01*
X21919047Y15547562D02*
X21966666Y15499943D01*
X21966666Y15499943D02*
X22014285Y15404705D01*
X22014285Y15404705D02*
X22014285Y15261848D01*
X22014285Y15261848D02*
X21966666Y15166610D01*
X21966666Y15166610D02*
X21919047Y15118991D01*
X21919047Y15118991D02*
X21823809Y15071372D01*
X21823809Y15071372D02*
X21442857Y15071372D01*
X22347619Y15595181D02*
X23014285Y15595181D01*
X23014285Y15595181D02*
X22585714Y14595181D01*
D14*
X29468373Y37916667D02*
X30035040Y37916667D01*
X30035040Y37916667D02*
X30101706Y37950000D01*
X30101706Y37950000D02*
X30135040Y37983334D01*
X30135040Y37983334D02*
X30168373Y38050000D01*
X30168373Y38050000D02*
X30168373Y38183334D01*
X30168373Y38183334D02*
X30135040Y38250000D01*
X30135040Y38250000D02*
X30101706Y38283334D01*
X30101706Y38283334D02*
X30035040Y38316667D01*
X30035040Y38316667D02*
X29468373Y38316667D01*
X29535040Y38616667D02*
X29501706Y38650000D01*
X29501706Y38650000D02*
X29468373Y38716667D01*
X29468373Y38716667D02*
X29468373Y38883333D01*
X29468373Y38883333D02*
X29501706Y38950000D01*
X29501706Y38950000D02*
X29535040Y38983333D01*
X29535040Y38983333D02*
X29601706Y39016667D01*
X29601706Y39016667D02*
X29668373Y39016667D01*
X29668373Y39016667D02*
X29768373Y38983333D01*
X29768373Y38983333D02*
X30168373Y38583333D01*
X30168373Y38583333D02*
X30168373Y39016667D01*
D12*
X17571429Y1527597D02*
X17438096Y1527597D01*
X17438096Y1318073D02*
X17438096Y1718073D01*
X17438096Y1718073D02*
X17628572Y1718073D01*
X17780953Y1318073D02*
X17780953Y1718073D01*
X17971429Y1318073D02*
X17971429Y1718073D01*
X17971429Y1718073D02*
X18066667Y1718073D01*
X18066667Y1718073D02*
X18123810Y1699025D01*
X18123810Y1699025D02*
X18161905Y1660930D01*
X18161905Y1660930D02*
X18180952Y1622835D01*
X18180952Y1622835D02*
X18200000Y1546644D01*
X18200000Y1546644D02*
X18200000Y1489501D01*
X18200000Y1489501D02*
X18180952Y1413311D01*
X18180952Y1413311D02*
X18161905Y1375216D01*
X18161905Y1375216D02*
X18123810Y1337120D01*
X18123810Y1337120D02*
X18066667Y1318073D01*
X18066667Y1318073D02*
X17971429Y1318073D01*
X18580952Y1318073D02*
X18352381Y1318073D01*
X18466667Y1318073D02*
X18466667Y1718073D01*
X18466667Y1718073D02*
X18428571Y1660930D01*
X18428571Y1660930D02*
X18390476Y1622835D01*
X18390476Y1622835D02*
X18352381Y1603787D01*
D15*
X17963855Y44466668D02*
X17582902Y44200001D01*
X17963855Y44009525D02*
X17163855Y44009525D01*
X17163855Y44009525D02*
X17163855Y44314287D01*
X17163855Y44314287D02*
X17201950Y44390477D01*
X17201950Y44390477D02*
X17240045Y44428572D01*
X17240045Y44428572D02*
X17316236Y44466668D01*
X17316236Y44466668D02*
X17430521Y44466668D01*
X17430521Y44466668D02*
X17506712Y44428572D01*
X17506712Y44428572D02*
X17544807Y44390477D01*
X17544807Y44390477D02*
X17582902Y44314287D01*
X17582902Y44314287D02*
X17582902Y44009525D01*
X17163855Y44733334D02*
X17163855Y45228572D01*
X17163855Y45228572D02*
X17468617Y44961906D01*
X17468617Y44961906D02*
X17468617Y45076191D01*
X17468617Y45076191D02*
X17506712Y45152382D01*
X17506712Y45152382D02*
X17544807Y45190477D01*
X17544807Y45190477D02*
X17620998Y45228572D01*
X17620998Y45228572D02*
X17811474Y45228572D01*
X17811474Y45228572D02*
X17887664Y45190477D01*
X17887664Y45190477D02*
X17925760Y45152382D01*
X17925760Y45152382D02*
X17963855Y45076191D01*
X17963855Y45076191D02*
X17963855Y44847620D01*
X17963855Y44847620D02*
X17925760Y44771429D01*
X17925760Y44771429D02*
X17887664Y44733334D01*
D10*
X18289765Y28589286D02*
X18301670Y28577382D01*
X18301670Y28577382D02*
X18313574Y28541667D01*
X18313574Y28541667D02*
X18313574Y28517858D01*
X18313574Y28517858D02*
X18301670Y28482144D01*
X18301670Y28482144D02*
X18277860Y28458334D01*
X18277860Y28458334D02*
X18254050Y28446429D01*
X18254050Y28446429D02*
X18206431Y28434525D01*
X18206431Y28434525D02*
X18170717Y28434525D01*
X18170717Y28434525D02*
X18123098Y28446429D01*
X18123098Y28446429D02*
X18099289Y28458334D01*
X18099289Y28458334D02*
X18075479Y28482144D01*
X18075479Y28482144D02*
X18063574Y28517858D01*
X18063574Y28517858D02*
X18063574Y28541667D01*
X18063574Y28541667D02*
X18075479Y28577382D01*
X18075479Y28577382D02*
X18087384Y28589286D01*
X18313574Y28827382D02*
X18313574Y28684525D01*
X18313574Y28755953D02*
X18063574Y28755953D01*
X18063574Y28755953D02*
X18099289Y28732144D01*
X18099289Y28732144D02*
X18123098Y28708334D01*
X18123098Y28708334D02*
X18135003Y28684525D01*
X18313574Y29065477D02*
X18313574Y28922620D01*
X18313574Y28994048D02*
X18063574Y28994048D01*
X18063574Y28994048D02*
X18099289Y28970239D01*
X18099289Y28970239D02*
X18123098Y28946429D01*
X18123098Y28946429D02*
X18135003Y28922620D01*
D12*
X4843832Y15342858D02*
X4862880Y15323810D01*
X4862880Y15323810D02*
X4881927Y15266668D01*
X4881927Y15266668D02*
X4881927Y15228572D01*
X4881927Y15228572D02*
X4862880Y15171429D01*
X4862880Y15171429D02*
X4824784Y15133334D01*
X4824784Y15133334D02*
X4786689Y15114287D01*
X4786689Y15114287D02*
X4710499Y15095239D01*
X4710499Y15095239D02*
X4653356Y15095239D01*
X4653356Y15095239D02*
X4577165Y15114287D01*
X4577165Y15114287D02*
X4539070Y15133334D01*
X4539070Y15133334D02*
X4500975Y15171429D01*
X4500975Y15171429D02*
X4481927Y15228572D01*
X4481927Y15228572D02*
X4481927Y15266668D01*
X4481927Y15266668D02*
X4500975Y15323810D01*
X4500975Y15323810D02*
X4520022Y15342858D01*
X4881927Y15723810D02*
X4881927Y15495239D01*
X4881927Y15609525D02*
X4481927Y15609525D01*
X4481927Y15609525D02*
X4539070Y15571429D01*
X4539070Y15571429D02*
X4577165Y15533334D01*
X4577165Y15533334D02*
X4596213Y15495239D01*
X4481927Y15857143D02*
X4481927Y16123810D01*
X4481927Y16123810D02*
X4881927Y15952381D01*
D10*
X19189765Y23439286D02*
X19201670Y23427382D01*
X19201670Y23427382D02*
X19213574Y23391667D01*
X19213574Y23391667D02*
X19213574Y23367858D01*
X19213574Y23367858D02*
X19201670Y23332144D01*
X19201670Y23332144D02*
X19177860Y23308334D01*
X19177860Y23308334D02*
X19154050Y23296429D01*
X19154050Y23296429D02*
X19106431Y23284525D01*
X19106431Y23284525D02*
X19070717Y23284525D01*
X19070717Y23284525D02*
X19023098Y23296429D01*
X19023098Y23296429D02*
X18999289Y23308334D01*
X18999289Y23308334D02*
X18975479Y23332144D01*
X18975479Y23332144D02*
X18963574Y23367858D01*
X18963574Y23367858D02*
X18963574Y23391667D01*
X18963574Y23391667D02*
X18975479Y23427382D01*
X18975479Y23427382D02*
X18987384Y23439286D01*
X19213574Y23677382D02*
X19213574Y23534525D01*
X19213574Y23605953D02*
X18963574Y23605953D01*
X18963574Y23605953D02*
X18999289Y23582144D01*
X18999289Y23582144D02*
X19023098Y23558334D01*
X19023098Y23558334D02*
X19035003Y23534525D01*
X18987384Y23772620D02*
X18975479Y23784524D01*
X18975479Y23784524D02*
X18963574Y23808334D01*
X18963574Y23808334D02*
X18963574Y23867858D01*
X18963574Y23867858D02*
X18975479Y23891667D01*
X18975479Y23891667D02*
X18987384Y23903572D01*
X18987384Y23903572D02*
X19011193Y23915477D01*
X19011193Y23915477D02*
X19035003Y23915477D01*
X19035003Y23915477D02*
X19070717Y23903572D01*
X19070717Y23903572D02*
X19213574Y23760715D01*
X19213574Y23760715D02*
X19213574Y23915477D01*
D12*
X22943832Y43633334D02*
X22962880Y43614286D01*
X22962880Y43614286D02*
X22981927Y43557144D01*
X22981927Y43557144D02*
X22981927Y43519048D01*
X22981927Y43519048D02*
X22962880Y43461905D01*
X22962880Y43461905D02*
X22924784Y43423810D01*
X22924784Y43423810D02*
X22886689Y43404763D01*
X22886689Y43404763D02*
X22810499Y43385715D01*
X22810499Y43385715D02*
X22753356Y43385715D01*
X22753356Y43385715D02*
X22677165Y43404763D01*
X22677165Y43404763D02*
X22639070Y43423810D01*
X22639070Y43423810D02*
X22600975Y43461905D01*
X22600975Y43461905D02*
X22581927Y43519048D01*
X22581927Y43519048D02*
X22581927Y43557144D01*
X22581927Y43557144D02*
X22600975Y43614286D01*
X22600975Y43614286D02*
X22620022Y43633334D01*
X22581927Y43766667D02*
X22581927Y44014286D01*
X22581927Y44014286D02*
X22734308Y43880953D01*
X22734308Y43880953D02*
X22734308Y43938096D01*
X22734308Y43938096D02*
X22753356Y43976191D01*
X22753356Y43976191D02*
X22772403Y43995239D01*
X22772403Y43995239D02*
X22810499Y44014286D01*
X22810499Y44014286D02*
X22905737Y44014286D01*
X22905737Y44014286D02*
X22943832Y43995239D01*
X22943832Y43995239D02*
X22962880Y43976191D01*
X22962880Y43976191D02*
X22981927Y43938096D01*
X22981927Y43938096D02*
X22981927Y43823810D01*
X22981927Y43823810D02*
X22962880Y43785715D01*
X22962880Y43785715D02*
X22943832Y43766667D01*
X45493832Y14092858D02*
X45512880Y14073810D01*
X45512880Y14073810D02*
X45531927Y14016668D01*
X45531927Y14016668D02*
X45531927Y13978572D01*
X45531927Y13978572D02*
X45512880Y13921429D01*
X45512880Y13921429D02*
X45474784Y13883334D01*
X45474784Y13883334D02*
X45436689Y13864287D01*
X45436689Y13864287D02*
X45360499Y13845239D01*
X45360499Y13845239D02*
X45303356Y13845239D01*
X45303356Y13845239D02*
X45227165Y13864287D01*
X45227165Y13864287D02*
X45189070Y13883334D01*
X45189070Y13883334D02*
X45150975Y13921429D01*
X45150975Y13921429D02*
X45131927Y13978572D01*
X45131927Y13978572D02*
X45131927Y14016668D01*
X45131927Y14016668D02*
X45150975Y14073810D01*
X45150975Y14073810D02*
X45170022Y14092858D01*
X45531927Y14473810D02*
X45531927Y14245239D01*
X45531927Y14359525D02*
X45131927Y14359525D01*
X45131927Y14359525D02*
X45189070Y14321429D01*
X45189070Y14321429D02*
X45227165Y14283334D01*
X45227165Y14283334D02*
X45246213Y14245239D01*
X45131927Y14816667D02*
X45131927Y14740477D01*
X45131927Y14740477D02*
X45150975Y14702381D01*
X45150975Y14702381D02*
X45170022Y14683334D01*
X45170022Y14683334D02*
X45227165Y14645239D01*
X45227165Y14645239D02*
X45303356Y14626191D01*
X45303356Y14626191D02*
X45455737Y14626191D01*
X45455737Y14626191D02*
X45493832Y14645239D01*
X45493832Y14645239D02*
X45512880Y14664286D01*
X45512880Y14664286D02*
X45531927Y14702381D01*
X45531927Y14702381D02*
X45531927Y14778572D01*
X45531927Y14778572D02*
X45512880Y14816667D01*
X45512880Y14816667D02*
X45493832Y14835715D01*
X45493832Y14835715D02*
X45455737Y14854762D01*
X45455737Y14854762D02*
X45360499Y14854762D01*
X45360499Y14854762D02*
X45322403Y14835715D01*
X45322403Y14835715D02*
X45303356Y14816667D01*
X45303356Y14816667D02*
X45284308Y14778572D01*
X45284308Y14778572D02*
X45284308Y14702381D01*
X45284308Y14702381D02*
X45303356Y14664286D01*
X45303356Y14664286D02*
X45322403Y14645239D01*
X45322403Y14645239D02*
X45360499Y14626191D01*
D13*
X19738095Y21495181D02*
X20309523Y21495181D01*
X20023809Y20495181D02*
X20023809Y21495181D01*
X20642857Y20495181D02*
X20642857Y21495181D01*
X20642857Y21495181D02*
X21023809Y21495181D01*
X21023809Y21495181D02*
X21119047Y21447562D01*
X21119047Y21447562D02*
X21166666Y21399943D01*
X21166666Y21399943D02*
X21214285Y21304705D01*
X21214285Y21304705D02*
X21214285Y21161848D01*
X21214285Y21161848D02*
X21166666Y21066610D01*
X21166666Y21066610D02*
X21119047Y21018991D01*
X21119047Y21018991D02*
X21023809Y20971372D01*
X21023809Y20971372D02*
X20642857Y20971372D01*
X22071428Y21495181D02*
X21880952Y21495181D01*
X21880952Y21495181D02*
X21785714Y21447562D01*
X21785714Y21447562D02*
X21738095Y21399943D01*
X21738095Y21399943D02*
X21642857Y21257086D01*
X21642857Y21257086D02*
X21595238Y21066610D01*
X21595238Y21066610D02*
X21595238Y20685658D01*
X21595238Y20685658D02*
X21642857Y20590420D01*
X21642857Y20590420D02*
X21690476Y20542800D01*
X21690476Y20542800D02*
X21785714Y20495181D01*
X21785714Y20495181D02*
X21976190Y20495181D01*
X21976190Y20495181D02*
X22071428Y20542800D01*
X22071428Y20542800D02*
X22119047Y20590420D01*
X22119047Y20590420D02*
X22166666Y20685658D01*
X22166666Y20685658D02*
X22166666Y20923753D01*
X22166666Y20923753D02*
X22119047Y21018991D01*
X22119047Y21018991D02*
X22071428Y21066610D01*
X22071428Y21066610D02*
X21976190Y21114229D01*
X21976190Y21114229D02*
X21785714Y21114229D01*
X21785714Y21114229D02*
X21690476Y21066610D01*
X21690476Y21066610D02*
X21642857Y21018991D01*
X21642857Y21018991D02*
X21595238Y20923753D01*
D11*
X13409337Y38114287D02*
X13409337Y38628572D01*
X14309337Y38371430D02*
X13409337Y38371430D01*
X14309337Y38928572D02*
X13409337Y38928572D01*
X13409337Y38928572D02*
X13409337Y39271429D01*
X13409337Y39271429D02*
X13452194Y39357144D01*
X13452194Y39357144D02*
X13495051Y39400001D01*
X13495051Y39400001D02*
X13580765Y39442858D01*
X13580765Y39442858D02*
X13709337Y39442858D01*
X13709337Y39442858D02*
X13795051Y39400001D01*
X13795051Y39400001D02*
X13837908Y39357144D01*
X13837908Y39357144D02*
X13880765Y39271429D01*
X13880765Y39271429D02*
X13880765Y38928572D01*
X13709337Y40214286D02*
X14309337Y40214286D01*
X13366480Y40000001D02*
X14009337Y39785715D01*
X14009337Y39785715D02*
X14009337Y40342858D01*
D15*
X17363855Y39116668D02*
X16982902Y38850001D01*
X17363855Y38659525D02*
X16563855Y38659525D01*
X16563855Y38659525D02*
X16563855Y38964287D01*
X16563855Y38964287D02*
X16601950Y39040477D01*
X16601950Y39040477D02*
X16640045Y39078572D01*
X16640045Y39078572D02*
X16716236Y39116668D01*
X16716236Y39116668D02*
X16830521Y39116668D01*
X16830521Y39116668D02*
X16906712Y39078572D01*
X16906712Y39078572D02*
X16944807Y39040477D01*
X16944807Y39040477D02*
X16982902Y38964287D01*
X16982902Y38964287D02*
X16982902Y38659525D01*
X16830521Y39802382D02*
X17363855Y39802382D01*
X16525760Y39611906D02*
X17097188Y39421429D01*
X17097188Y39421429D02*
X17097188Y39916668D01*
D13*
X18738095Y37245181D02*
X19309523Y37245181D01*
X19023809Y36245181D02*
X19023809Y37245181D01*
X19642857Y36245181D02*
X19642857Y37245181D01*
X19642857Y37245181D02*
X20023809Y37245181D01*
X20023809Y37245181D02*
X20119047Y37197562D01*
X20119047Y37197562D02*
X20166666Y37149943D01*
X20166666Y37149943D02*
X20214285Y37054705D01*
X20214285Y37054705D02*
X20214285Y36911848D01*
X20214285Y36911848D02*
X20166666Y36816610D01*
X20166666Y36816610D02*
X20119047Y36768991D01*
X20119047Y36768991D02*
X20023809Y36721372D01*
X20023809Y36721372D02*
X19642857Y36721372D01*
X21119047Y37245181D02*
X20642857Y37245181D01*
X20642857Y37245181D02*
X20595238Y36768991D01*
X20595238Y36768991D02*
X20642857Y36816610D01*
X20642857Y36816610D02*
X20738095Y36864229D01*
X20738095Y36864229D02*
X20976190Y36864229D01*
X20976190Y36864229D02*
X21071428Y36816610D01*
X21071428Y36816610D02*
X21119047Y36768991D01*
X21119047Y36768991D02*
X21166666Y36673753D01*
X21166666Y36673753D02*
X21166666Y36435658D01*
X21166666Y36435658D02*
X21119047Y36340420D01*
X21119047Y36340420D02*
X21071428Y36292800D01*
X21071428Y36292800D02*
X20976190Y36245181D01*
X20976190Y36245181D02*
X20738095Y36245181D01*
X20738095Y36245181D02*
X20642857Y36292800D01*
X20642857Y36292800D02*
X20595238Y36340420D01*
D12*
X38571429Y1527597D02*
X38438096Y1527597D01*
X38438096Y1318073D02*
X38438096Y1718073D01*
X38438096Y1718073D02*
X38628572Y1718073D01*
X38780953Y1318073D02*
X38780953Y1718073D01*
X38971429Y1318073D02*
X38971429Y1718073D01*
X38971429Y1718073D02*
X39066667Y1718073D01*
X39066667Y1718073D02*
X39123810Y1699025D01*
X39123810Y1699025D02*
X39161905Y1660930D01*
X39161905Y1660930D02*
X39180952Y1622835D01*
X39180952Y1622835D02*
X39200000Y1546644D01*
X39200000Y1546644D02*
X39200000Y1489501D01*
X39200000Y1489501D02*
X39180952Y1413311D01*
X39180952Y1413311D02*
X39161905Y1375216D01*
X39161905Y1375216D02*
X39123810Y1337120D01*
X39123810Y1337120D02*
X39066667Y1318073D01*
X39066667Y1318073D02*
X38971429Y1318073D01*
X39333333Y1718073D02*
X39580952Y1718073D01*
X39580952Y1718073D02*
X39447619Y1565692D01*
X39447619Y1565692D02*
X39504762Y1565692D01*
X39504762Y1565692D02*
X39542857Y1546644D01*
X39542857Y1546644D02*
X39561905Y1527597D01*
X39561905Y1527597D02*
X39580952Y1489501D01*
X39580952Y1489501D02*
X39580952Y1394263D01*
X39580952Y1394263D02*
X39561905Y1356168D01*
X39561905Y1356168D02*
X39542857Y1337120D01*
X39542857Y1337120D02*
X39504762Y1318073D01*
X39504762Y1318073D02*
X39390476Y1318073D01*
X39390476Y1318073D02*
X39352381Y1337120D01*
X39352381Y1337120D02*
X39333333Y1356168D01*
D13*
X15106666Y50745181D02*
X15106666Y50030896D01*
X15106666Y50030896D02*
X15059047Y49888039D01*
X15059047Y49888039D02*
X14963809Y49792800D01*
X14963809Y49792800D02*
X14820952Y49745181D01*
X14820952Y49745181D02*
X14725714Y49745181D01*
X16106666Y49745181D02*
X15535238Y49745181D01*
X15820952Y49745181D02*
X15820952Y50745181D01*
X15820952Y50745181D02*
X15725714Y50602324D01*
X15725714Y50602324D02*
X15630476Y50507086D01*
X15630476Y50507086D02*
X15535238Y50459467D01*
D12*
X44143832Y46133334D02*
X44162880Y46114286D01*
X44162880Y46114286D02*
X44181927Y46057144D01*
X44181927Y46057144D02*
X44181927Y46019048D01*
X44181927Y46019048D02*
X44162880Y45961905D01*
X44162880Y45961905D02*
X44124784Y45923810D01*
X44124784Y45923810D02*
X44086689Y45904763D01*
X44086689Y45904763D02*
X44010499Y45885715D01*
X44010499Y45885715D02*
X43953356Y45885715D01*
X43953356Y45885715D02*
X43877165Y45904763D01*
X43877165Y45904763D02*
X43839070Y45923810D01*
X43839070Y45923810D02*
X43800975Y45961905D01*
X43800975Y45961905D02*
X43781927Y46019048D01*
X43781927Y46019048D02*
X43781927Y46057144D01*
X43781927Y46057144D02*
X43800975Y46114286D01*
X43800975Y46114286D02*
X43820022Y46133334D01*
X44181927Y46514286D02*
X44181927Y46285715D01*
X44181927Y46400001D02*
X43781927Y46400001D01*
X43781927Y46400001D02*
X43839070Y46361905D01*
X43839070Y46361905D02*
X43877165Y46323810D01*
X43877165Y46323810D02*
X43896213Y46285715D01*
D10*
X5056667Y50281800D02*
X4970000Y50405609D01*
X4908095Y50281800D02*
X4908095Y50541800D01*
X4908095Y50541800D02*
X5007143Y50541800D01*
X5007143Y50541800D02*
X5031905Y50529419D01*
X5031905Y50529419D02*
X5044286Y50517038D01*
X5044286Y50517038D02*
X5056667Y50492276D01*
X5056667Y50492276D02*
X5056667Y50455133D01*
X5056667Y50455133D02*
X5044286Y50430371D01*
X5044286Y50430371D02*
X5031905Y50417990D01*
X5031905Y50417990D02*
X5007143Y50405609D01*
X5007143Y50405609D02*
X4908095Y50405609D01*
X5155714Y50517038D02*
X5168095Y50529419D01*
X5168095Y50529419D02*
X5192857Y50541800D01*
X5192857Y50541800D02*
X5254762Y50541800D01*
X5254762Y50541800D02*
X5279524Y50529419D01*
X5279524Y50529419D02*
X5291905Y50517038D01*
X5291905Y50517038D02*
X5304286Y50492276D01*
X5304286Y50492276D02*
X5304286Y50467514D01*
X5304286Y50467514D02*
X5291905Y50430371D01*
X5291905Y50430371D02*
X5143333Y50281800D01*
X5143333Y50281800D02*
X5304286Y50281800D01*
X27618200Y46456668D02*
X27494391Y46370001D01*
X27618200Y46308096D02*
X27358200Y46308096D01*
X27358200Y46308096D02*
X27358200Y46407144D01*
X27358200Y46407144D02*
X27370581Y46431906D01*
X27370581Y46431906D02*
X27382962Y46444287D01*
X27382962Y46444287D02*
X27407724Y46456668D01*
X27407724Y46456668D02*
X27444867Y46456668D01*
X27444867Y46456668D02*
X27469629Y46444287D01*
X27469629Y46444287D02*
X27482010Y46431906D01*
X27482010Y46431906D02*
X27494391Y46407144D01*
X27494391Y46407144D02*
X27494391Y46308096D01*
X27358200Y46543334D02*
X27358200Y46716668D01*
X27358200Y46716668D02*
X27618200Y46605239D01*
X25768200Y46466668D02*
X25644391Y46380001D01*
X25768200Y46318096D02*
X25508200Y46318096D01*
X25508200Y46318096D02*
X25508200Y46417144D01*
X25508200Y46417144D02*
X25520581Y46441906D01*
X25520581Y46441906D02*
X25532962Y46454287D01*
X25532962Y46454287D02*
X25557724Y46466668D01*
X25557724Y46466668D02*
X25594867Y46466668D01*
X25594867Y46466668D02*
X25619629Y46454287D01*
X25619629Y46454287D02*
X25632010Y46441906D01*
X25632010Y46441906D02*
X25644391Y46417144D01*
X25644391Y46417144D02*
X25644391Y46318096D01*
X25508200Y46689525D02*
X25508200Y46640001D01*
X25508200Y46640001D02*
X25520581Y46615239D01*
X25520581Y46615239D02*
X25532962Y46602858D01*
X25532962Y46602858D02*
X25570105Y46578096D01*
X25570105Y46578096D02*
X25619629Y46565715D01*
X25619629Y46565715D02*
X25718677Y46565715D01*
X25718677Y46565715D02*
X25743439Y46578096D01*
X25743439Y46578096D02*
X25755820Y46590477D01*
X25755820Y46590477D02*
X25768200Y46615239D01*
X25768200Y46615239D02*
X25768200Y46664763D01*
X25768200Y46664763D02*
X25755820Y46689525D01*
X25755820Y46689525D02*
X25743439Y46701906D01*
X25743439Y46701906D02*
X25718677Y46714287D01*
X25718677Y46714287D02*
X25656772Y46714287D01*
X25656772Y46714287D02*
X25632010Y46701906D01*
X25632010Y46701906D02*
X25619629Y46689525D01*
X25619629Y46689525D02*
X25607248Y46664763D01*
X25607248Y46664763D02*
X25607248Y46615239D01*
X25607248Y46615239D02*
X25619629Y46590477D01*
X25619629Y46590477D02*
X25632010Y46578096D01*
X25632010Y46578096D02*
X25656772Y46565715D01*
D11*
X29409337Y44364287D02*
X29409337Y44878572D01*
X30309337Y44621430D02*
X29409337Y44621430D01*
X30309337Y45178572D02*
X29409337Y45178572D01*
X29409337Y45178572D02*
X29409337Y45521429D01*
X29409337Y45521429D02*
X29452194Y45607144D01*
X29452194Y45607144D02*
X29495051Y45650001D01*
X29495051Y45650001D02*
X29580765Y45692858D01*
X29580765Y45692858D02*
X29709337Y45692858D01*
X29709337Y45692858D02*
X29795051Y45650001D01*
X29795051Y45650001D02*
X29837908Y45607144D01*
X29837908Y45607144D02*
X29880765Y45521429D01*
X29880765Y45521429D02*
X29880765Y45178572D01*
X30309337Y46121429D02*
X30309337Y46292858D01*
X30309337Y46292858D02*
X30266480Y46378572D01*
X30266480Y46378572D02*
X30223622Y46421429D01*
X30223622Y46421429D02*
X30095051Y46507144D01*
X30095051Y46507144D02*
X29923622Y46550001D01*
X29923622Y46550001D02*
X29580765Y46550001D01*
X29580765Y46550001D02*
X29495051Y46507144D01*
X29495051Y46507144D02*
X29452194Y46464286D01*
X29452194Y46464286D02*
X29409337Y46378572D01*
X29409337Y46378572D02*
X29409337Y46207144D01*
X29409337Y46207144D02*
X29452194Y46121429D01*
X29452194Y46121429D02*
X29495051Y46078572D01*
X29495051Y46078572D02*
X29580765Y46035715D01*
X29580765Y46035715D02*
X29795051Y46035715D01*
X29795051Y46035715D02*
X29880765Y46078572D01*
X29880765Y46078572D02*
X29923622Y46121429D01*
X29923622Y46121429D02*
X29966480Y46207144D01*
X29966480Y46207144D02*
X29966480Y46378572D01*
X29966480Y46378572D02*
X29923622Y46464286D01*
X29923622Y46464286D02*
X29880765Y46507144D01*
X29880765Y46507144D02*
X29795051Y46550001D01*
D12*
X5243832Y41167858D02*
X5262880Y41148810D01*
X5262880Y41148810D02*
X5281927Y41091668D01*
X5281927Y41091668D02*
X5281927Y41053572D01*
X5281927Y41053572D02*
X5262880Y40996429D01*
X5262880Y40996429D02*
X5224784Y40958334D01*
X5224784Y40958334D02*
X5186689Y40939287D01*
X5186689Y40939287D02*
X5110499Y40920239D01*
X5110499Y40920239D02*
X5053356Y40920239D01*
X5053356Y40920239D02*
X4977165Y40939287D01*
X4977165Y40939287D02*
X4939070Y40958334D01*
X4939070Y40958334D02*
X4900975Y40996429D01*
X4900975Y40996429D02*
X4881927Y41053572D01*
X4881927Y41053572D02*
X4881927Y41091668D01*
X4881927Y41091668D02*
X4900975Y41148810D01*
X4900975Y41148810D02*
X4920022Y41167858D01*
X5281927Y41548810D02*
X5281927Y41320239D01*
X5281927Y41434525D02*
X4881927Y41434525D01*
X4881927Y41434525D02*
X4939070Y41396429D01*
X4939070Y41396429D02*
X4977165Y41358334D01*
X4977165Y41358334D02*
X4996213Y41320239D01*
X4881927Y41910715D02*
X4881927Y41720239D01*
X4881927Y41720239D02*
X5072403Y41701191D01*
X5072403Y41701191D02*
X5053356Y41720239D01*
X5053356Y41720239D02*
X5034308Y41758334D01*
X5034308Y41758334D02*
X5034308Y41853572D01*
X5034308Y41853572D02*
X5053356Y41891667D01*
X5053356Y41891667D02*
X5072403Y41910715D01*
X5072403Y41910715D02*
X5110499Y41929762D01*
X5110499Y41929762D02*
X5205737Y41929762D01*
X5205737Y41929762D02*
X5243832Y41910715D01*
X5243832Y41910715D02*
X5262880Y41891667D01*
X5262880Y41891667D02*
X5281927Y41853572D01*
X5281927Y41853572D02*
X5281927Y41758334D01*
X5281927Y41758334D02*
X5262880Y41720239D01*
X5262880Y41720239D02*
X5243832Y41701191D01*
D10*
X29358333Y41110235D02*
X29346429Y41098330D01*
X29346429Y41098330D02*
X29310714Y41086426D01*
X29310714Y41086426D02*
X29286905Y41086426D01*
X29286905Y41086426D02*
X29251191Y41098330D01*
X29251191Y41098330D02*
X29227381Y41122140D01*
X29227381Y41122140D02*
X29215476Y41145950D01*
X29215476Y41145950D02*
X29203572Y41193569D01*
X29203572Y41193569D02*
X29203572Y41229283D01*
X29203572Y41229283D02*
X29215476Y41276902D01*
X29215476Y41276902D02*
X29227381Y41300711D01*
X29227381Y41300711D02*
X29251191Y41324521D01*
X29251191Y41324521D02*
X29286905Y41336426D01*
X29286905Y41336426D02*
X29310714Y41336426D01*
X29310714Y41336426D02*
X29346429Y41324521D01*
X29346429Y41324521D02*
X29358333Y41312616D01*
X29477381Y41086426D02*
X29525000Y41086426D01*
X29525000Y41086426D02*
X29548810Y41098330D01*
X29548810Y41098330D02*
X29560714Y41110235D01*
X29560714Y41110235D02*
X29584524Y41145950D01*
X29584524Y41145950D02*
X29596429Y41193569D01*
X29596429Y41193569D02*
X29596429Y41288807D01*
X29596429Y41288807D02*
X29584524Y41312616D01*
X29584524Y41312616D02*
X29572619Y41324521D01*
X29572619Y41324521D02*
X29548810Y41336426D01*
X29548810Y41336426D02*
X29501191Y41336426D01*
X29501191Y41336426D02*
X29477381Y41324521D01*
X29477381Y41324521D02*
X29465476Y41312616D01*
X29465476Y41312616D02*
X29453572Y41288807D01*
X29453572Y41288807D02*
X29453572Y41229283D01*
X29453572Y41229283D02*
X29465476Y41205473D01*
X29465476Y41205473D02*
X29477381Y41193569D01*
X29477381Y41193569D02*
X29501191Y41181664D01*
X29501191Y41181664D02*
X29548810Y41181664D01*
X29548810Y41181664D02*
X29572619Y41193569D01*
X29572619Y41193569D02*
X29584524Y41205473D01*
X29584524Y41205473D02*
X29596429Y41229283D01*
D11*
X20109337Y43464287D02*
X20109337Y43978572D01*
X21009337Y43721430D02*
X20109337Y43721430D01*
X21009337Y44278572D02*
X20109337Y44278572D01*
X20109337Y44278572D02*
X20109337Y44621429D01*
X20109337Y44621429D02*
X20152194Y44707144D01*
X20152194Y44707144D02*
X20195051Y44750001D01*
X20195051Y44750001D02*
X20280765Y44792858D01*
X20280765Y44792858D02*
X20409337Y44792858D01*
X20409337Y44792858D02*
X20495051Y44750001D01*
X20495051Y44750001D02*
X20537908Y44707144D01*
X20537908Y44707144D02*
X20580765Y44621429D01*
X20580765Y44621429D02*
X20580765Y44278572D01*
X21009337Y45650001D02*
X21009337Y45135715D01*
X21009337Y45392858D02*
X20109337Y45392858D01*
X20109337Y45392858D02*
X20237908Y45307144D01*
X20237908Y45307144D02*
X20323622Y45221429D01*
X20323622Y45221429D02*
X20366480Y45135715D01*
D12*
X33593832Y16892858D02*
X33612880Y16873810D01*
X33612880Y16873810D02*
X33631927Y16816668D01*
X33631927Y16816668D02*
X33631927Y16778572D01*
X33631927Y16778572D02*
X33612880Y16721429D01*
X33612880Y16721429D02*
X33574784Y16683334D01*
X33574784Y16683334D02*
X33536689Y16664287D01*
X33536689Y16664287D02*
X33460499Y16645239D01*
X33460499Y16645239D02*
X33403356Y16645239D01*
X33403356Y16645239D02*
X33327165Y16664287D01*
X33327165Y16664287D02*
X33289070Y16683334D01*
X33289070Y16683334D02*
X33250975Y16721429D01*
X33250975Y16721429D02*
X33231927Y16778572D01*
X33231927Y16778572D02*
X33231927Y16816668D01*
X33231927Y16816668D02*
X33250975Y16873810D01*
X33250975Y16873810D02*
X33270022Y16892858D01*
X33631927Y17273810D02*
X33631927Y17045239D01*
X33631927Y17159525D02*
X33231927Y17159525D01*
X33231927Y17159525D02*
X33289070Y17121429D01*
X33289070Y17121429D02*
X33327165Y17083334D01*
X33327165Y17083334D02*
X33346213Y17045239D01*
X33403356Y17502381D02*
X33384308Y17464286D01*
X33384308Y17464286D02*
X33365260Y17445239D01*
X33365260Y17445239D02*
X33327165Y17426191D01*
X33327165Y17426191D02*
X33308118Y17426191D01*
X33308118Y17426191D02*
X33270022Y17445239D01*
X33270022Y17445239D02*
X33250975Y17464286D01*
X33250975Y17464286D02*
X33231927Y17502381D01*
X33231927Y17502381D02*
X33231927Y17578572D01*
X33231927Y17578572D02*
X33250975Y17616667D01*
X33250975Y17616667D02*
X33270022Y17635715D01*
X33270022Y17635715D02*
X33308118Y17654762D01*
X33308118Y17654762D02*
X33327165Y17654762D01*
X33327165Y17654762D02*
X33365260Y17635715D01*
X33365260Y17635715D02*
X33384308Y17616667D01*
X33384308Y17616667D02*
X33403356Y17578572D01*
X33403356Y17578572D02*
X33403356Y17502381D01*
X33403356Y17502381D02*
X33422403Y17464286D01*
X33422403Y17464286D02*
X33441451Y17445239D01*
X33441451Y17445239D02*
X33479546Y17426191D01*
X33479546Y17426191D02*
X33555737Y17426191D01*
X33555737Y17426191D02*
X33593832Y17445239D01*
X33593832Y17445239D02*
X33612880Y17464286D01*
X33612880Y17464286D02*
X33631927Y17502381D01*
X33631927Y17502381D02*
X33631927Y17578572D01*
X33631927Y17578572D02*
X33612880Y17616667D01*
X33612880Y17616667D02*
X33593832Y17635715D01*
X33593832Y17635715D02*
X33555737Y17654762D01*
X33555737Y17654762D02*
X33479546Y17654762D01*
X33479546Y17654762D02*
X33441451Y17635715D01*
X33441451Y17635715D02*
X33422403Y17616667D01*
X33422403Y17616667D02*
X33403356Y17578572D01*
D16*
X28550000Y21800000D02*
X29050000Y21800000D01*
X28550000Y20800000D02*
X28550000Y21800000D01*
X29050000Y21800000D02*
X29050000Y20800000D01*
X29050000Y20800000D02*
X28550000Y20800000D01*
X20000000Y22000000D02*
X20500000Y22000000D01*
X20000000Y21000000D02*
X20000000Y22000000D01*
X20500000Y22000000D02*
X20500000Y21000000D01*
X20500000Y21000000D02*
X20000000Y21000000D01*
X29650000Y21800000D02*
X30150000Y21800000D01*
X29650000Y20800000D02*
X29650000Y21800000D01*
X30150000Y21800000D02*
X30150000Y20800000D01*
X30150000Y20800000D02*
X29650000Y20800000D01*
X28250000Y35000000D02*
X28750000Y35000000D01*
X28250000Y34000000D02*
X28250000Y35000000D01*
X28750000Y35000000D02*
X28750000Y34000000D01*
X28750000Y34000000D02*
X28250000Y34000000D01*
X21750000Y35500000D02*
X22250000Y35500000D01*
X21750000Y34500000D02*
X21750000Y35500000D01*
X22250000Y35500000D02*
X22250000Y34500000D01*
X22250000Y34500000D02*
X21750000Y34500000D01*
X31250000Y28350000D02*
X32250000Y28350000D01*
X31250000Y27850000D02*
X31250000Y28350000D01*
X32250000Y28350000D02*
X32250000Y27850000D01*
X32250000Y27850000D02*
X31250000Y27850000D01*
D13*
X13500000Y45850000D02*
X13500000Y43350000D01*
X13500000Y43350000D02*
X14000000Y43350000D01*
X14000000Y46350000D02*
X14000000Y45850000D01*
X14000000Y45850000D02*
X13500000Y45850000D01*
X14000000Y44600000D02*
X13500000Y44600000D01*
X14000000Y43350000D02*
X14000000Y42850000D01*
X14000000Y42700000D02*
X14000000Y46500000D01*
X14000000Y42700000D02*
X15000000Y42700000D01*
X15000000Y46500000D02*
X14000000Y46500000D01*
X15000000Y46500000D02*
X15000000Y42700000D01*
X15000000Y45850000D02*
X15000000Y46350000D01*
X15000000Y43350000D02*
X15500000Y43350000D01*
X15000000Y42850000D02*
X15000000Y43350000D01*
X15500000Y45850000D02*
X15000000Y45850000D01*
X15500000Y44600000D02*
X15000000Y44600000D01*
X15500000Y43350000D02*
X15500000Y45850000D01*
X19000000Y40500000D02*
X19000000Y38000000D01*
X19000000Y39250000D02*
X19500000Y39250000D01*
X19000000Y38000000D02*
X19500000Y38000000D01*
X19500000Y41000000D02*
X19500000Y40500000D01*
X19500000Y40500000D02*
X19000000Y40500000D01*
X19500000Y38000000D02*
X19500000Y37500000D01*
X19500000Y37350000D02*
X19500000Y41150000D01*
X19500000Y37350000D02*
X20500000Y37350000D01*
X20500000Y41150000D02*
X19500000Y41150000D01*
X20500000Y41150000D02*
X20500000Y37350000D01*
X20500000Y40500000D02*
X20500000Y41000000D01*
X20500000Y39250000D02*
X21000000Y39250000D01*
X20500000Y38000000D02*
X21000000Y38000000D01*
X20500000Y37500000D02*
X20500000Y38000000D01*
X21000000Y40500000D02*
X20500000Y40500000D01*
X21000000Y38000000D02*
X21000000Y40500000D01*
D16*
X8087500Y27000000D02*
X8087500Y24400000D01*
X8087500Y24400000D02*
X10687500Y24400000D01*
X10687500Y27000000D02*
X8087500Y27000000D01*
X10687500Y24400000D02*
X10687500Y27000000D01*
D17*
X12087500Y25700000D02*
G75*
G02*
X11887500Y25700000I-100000J0D01*
G01*
X11887500Y25700000D02*
G75*
G02*
X12087500Y25700000I100000J0D01*
G01*
D16*
X31500000Y19600000D02*
X32300000Y19600000D01*
X31500000Y18000000D02*
X31500000Y19600000D01*
X32300000Y19600000D02*
X32300000Y18000000D01*
X32300000Y18000000D02*
X31500000Y18000000D01*
X29250000Y35000000D02*
X29750000Y35000000D01*
X29250000Y34000000D02*
X29250000Y35000000D01*
X29750000Y35000000D02*
X29750000Y34000000D01*
X29750000Y34000000D02*
X29250000Y34000000D01*
X38925000Y44100000D02*
X38925000Y41500000D01*
X38925000Y41500000D02*
X41525000Y41500000D01*
X41525000Y44100000D02*
X38925000Y44100000D01*
X41525000Y41500000D02*
X41525000Y44100000D01*
D17*
X37725000Y42800000D02*
G75*
G02*
X37525000Y42800000I-100000J0D01*
G01*
X37525000Y42800000D02*
G75*
G02*
X37725000Y42800000I100000J0D01*
G01*
D16*
X4475000Y46470000D02*
X5525000Y46470000D01*
X4475000Y45930000D02*
X4475000Y46470000D01*
X5525000Y46470000D02*
X5525000Y45930000D01*
X5525000Y45930000D02*
X4475000Y45930000D01*
X40500000Y50750000D02*
G75*
G02*
X38500000Y50750000I-1000000J0D01*
G01*
X38500000Y50750000D02*
G75*
G02*
X40500000Y50750000I1000000J0D01*
G01*
X34925000Y47300000D02*
X34925000Y44700000D01*
X34925000Y44700000D02*
X37525000Y44700000D01*
X37525000Y47300000D02*
X34925000Y47300000D01*
X37525000Y44700000D02*
X37525000Y47300000D01*
D17*
X33725000Y46000000D02*
G75*
G02*
X33525000Y46000000I-100000J0D01*
G01*
X33525000Y46000000D02*
G75*
G02*
X33725000Y46000000I100000J0D01*
G01*
D16*
X4800000Y6450000D02*
X5600000Y6450000D01*
X4800000Y4850000D02*
X4800000Y6450000D01*
X5600000Y6450000D02*
X5600000Y4850000D01*
X5600000Y4850000D02*
X4800000Y4850000D01*
X21850000Y39050000D02*
X22650000Y39050000D01*
X21850000Y37450000D02*
X21850000Y39050000D01*
X22650000Y39050000D02*
X22650000Y37450000D01*
X22650000Y37450000D02*
X21850000Y37450000D01*
X20400000Y32300000D02*
X29400000Y32300000D01*
X20400000Y23300000D02*
X20400000Y32300000D01*
X28400000Y23300000D02*
X20400000Y23300000D01*
X29400000Y32300000D02*
X29400000Y24300000D01*
X29400000Y24300000D02*
X28400000Y23300000D01*
X12037500Y23500000D02*
X12037500Y20900000D01*
X12037500Y20900000D02*
X14637500Y20900000D01*
X14637500Y23500000D02*
X12037500Y23500000D01*
X14637500Y20900000D02*
X14637500Y23500000D01*
D17*
X16037500Y22200000D02*
G75*
G02*
X15837500Y22200000I-100000J0D01*
G01*
X15837500Y22200000D02*
G75*
G02*
X16037500Y22200000I100000J0D01*
G01*
D16*
X38925000Y30000000D02*
X38925000Y27400000D01*
X38925000Y27400000D02*
X41525000Y27400000D01*
X41525000Y30000000D02*
X38925000Y30000000D01*
X41525000Y27400000D02*
X41525000Y30000000D01*
D17*
X37725000Y28700000D02*
G75*
G02*
X37525000Y28700000I-100000J0D01*
G01*
X37525000Y28700000D02*
G75*
G02*
X37725000Y28700000I100000J0D01*
G01*
D16*
X28850000Y39950000D02*
X30850000Y39950000D01*
X28850000Y37450000D02*
X28850000Y39950000D01*
X29350000Y36950000D02*
X28850000Y37450000D01*
X30850000Y39950000D02*
X30850000Y36950000D01*
X30850000Y36950000D02*
X29350000Y36950000D01*
X19000000Y1500000D02*
G75*
G02*
X17000000Y1500000I-1000000J0D01*
G01*
X17000000Y1500000D02*
G75*
G02*
X19000000Y1500000I1000000J0D01*
G01*
X16800000Y46200000D02*
X18400000Y46200000D01*
X16800000Y43000000D02*
X16800000Y46200000D01*
X18400000Y46200000D02*
X18400000Y43000000D01*
X18400000Y43000000D02*
X16800000Y43000000D01*
X17950000Y29250000D02*
X18450000Y29250000D01*
X17950000Y28250000D02*
X17950000Y29250000D01*
X18450000Y29250000D02*
X18450000Y28250000D01*
X18450000Y28250000D02*
X17950000Y28250000D01*
X4300000Y16400000D02*
X5100000Y16400000D01*
X4300000Y14800000D02*
X4300000Y16400000D01*
X5100000Y16400000D02*
X5100000Y14800000D01*
X5100000Y14800000D02*
X4300000Y14800000D01*
X18850000Y24100000D02*
X19350000Y24100000D01*
X18850000Y23100000D02*
X18850000Y24100000D01*
X19350000Y24100000D02*
X19350000Y23100000D01*
X19350000Y23100000D02*
X18850000Y23100000D01*
X22400000Y44500000D02*
X23200000Y44500000D01*
X22400000Y42900000D02*
X22400000Y44500000D01*
X23200000Y44500000D02*
X23200000Y42900000D01*
X23200000Y42900000D02*
X22400000Y42900000D01*
X44950000Y15150000D02*
X45750000Y15150000D01*
X44950000Y13550000D02*
X44950000Y15150000D01*
X45750000Y15150000D02*
X45750000Y13550000D01*
X45750000Y13550000D02*
X44950000Y13550000D01*
X34925000Y33900000D02*
X34925000Y31300000D01*
X34925000Y31300000D02*
X37525000Y31300000D01*
X37525000Y33900000D02*
X34925000Y33900000D01*
X37525000Y31300000D02*
X37525000Y33900000D01*
D17*
X33725000Y32600000D02*
G75*
G02*
X33525000Y32600000I-100000J0D01*
G01*
X33525000Y32600000D02*
G75*
G02*
X33725000Y32600000I100000J0D01*
G01*
D13*
X12900000Y40500000D02*
X12900000Y38000000D01*
X12900000Y39250000D02*
X13400000Y39250000D01*
X12900000Y38000000D02*
X13400000Y38000000D01*
X13400000Y41000000D02*
X13400000Y40500000D01*
X13400000Y40500000D02*
X12900000Y40500000D01*
X13400000Y38000000D02*
X13400000Y37500000D01*
X13400000Y37350000D02*
X13400000Y41150000D01*
X13400000Y37350000D02*
X14400000Y37350000D01*
X14400000Y41150000D02*
X13400000Y41150000D01*
X14400000Y41150000D02*
X14400000Y37350000D01*
X14400000Y40500000D02*
X14400000Y41000000D01*
X14400000Y39250000D02*
X14900000Y39250000D01*
X14400000Y38000000D02*
X14900000Y38000000D01*
X14400000Y37500000D02*
X14400000Y38000000D01*
X14900000Y40500000D02*
X14400000Y40500000D01*
X14900000Y38000000D02*
X14900000Y40500000D01*
D16*
X16200000Y40850000D02*
X17800000Y40850000D01*
X16200000Y37650000D02*
X16200000Y40850000D01*
X17800000Y40850000D02*
X17800000Y37650000D01*
X17800000Y37650000D02*
X16200000Y37650000D01*
X40000000Y1500000D02*
G75*
G02*
X38000000Y1500000I-1000000J0D01*
G01*
X38000000Y1500000D02*
G75*
G02*
X40000000Y1500000I1000000J0D01*
G01*
X10360000Y51470000D02*
X19885000Y51470000D01*
X10360000Y48930000D02*
X10360000Y51470000D01*
X19885000Y51470000D02*
X20520000Y50835000D01*
X20520000Y50835000D02*
X20520000Y48930000D01*
X20520000Y48930000D02*
X10360000Y48930000D01*
X43600000Y47000000D02*
X44400000Y47000000D01*
X43600000Y45400000D02*
X43600000Y47000000D01*
X44400000Y47000000D02*
X44400000Y45400000D01*
X44400000Y45400000D02*
X43600000Y45400000D01*
X8087500Y13000000D02*
X8087500Y10400000D01*
X8087500Y10400000D02*
X10687500Y10400000D01*
X10687500Y13000000D02*
X8087500Y13000000D01*
X10687500Y10400000D02*
X10687500Y13000000D01*
D17*
X12087500Y11700000D02*
G75*
G02*
X11887500Y11700000I-100000J0D01*
G01*
X11887500Y11700000D02*
G75*
G02*
X12087500Y11700000I100000J0D01*
G01*
D16*
X4575000Y50670000D02*
X5625000Y50670000D01*
X4575000Y50130000D02*
X4575000Y50670000D01*
X5625000Y50670000D02*
X5625000Y50130000D01*
X5625000Y50130000D02*
X4575000Y50130000D01*
X27230000Y47025000D02*
X27770000Y47025000D01*
X27230000Y45975000D02*
X27230000Y47025000D01*
X27770000Y47025000D02*
X27770000Y45975000D01*
X27770000Y45975000D02*
X27230000Y45975000D01*
X25380000Y47035000D02*
X25920000Y47035000D01*
X25380000Y45985000D02*
X25380000Y47035000D01*
X25920000Y47035000D02*
X25920000Y45985000D01*
X25920000Y45985000D02*
X25380000Y45985000D01*
X12037500Y30500000D02*
X12037500Y27900000D01*
X12037500Y27900000D02*
X14637500Y27900000D01*
X14637500Y30500000D02*
X12037500Y30500000D01*
X14637500Y27900000D02*
X14637500Y30500000D01*
D17*
X16037500Y29200000D02*
G75*
G02*
X15837500Y29200000I-100000J0D01*
G01*
X15837500Y29200000D02*
G75*
G02*
X16037500Y29200000I100000J0D01*
G01*
D16*
X12037500Y16500000D02*
X12037500Y13900000D01*
X12037500Y13900000D02*
X14637500Y13900000D01*
X14637500Y16500000D02*
X12037500Y16500000D01*
X14637500Y13900000D02*
X14637500Y16500000D01*
D17*
X16037500Y15200000D02*
G75*
G02*
X15837500Y15200000I-100000J0D01*
G01*
X15837500Y15200000D02*
G75*
G02*
X16037500Y15200000I100000J0D01*
G01*
D13*
X28900000Y46750000D02*
X28900000Y44250000D01*
X28900000Y44250000D02*
X29400000Y44250000D01*
X29400000Y47250000D02*
X29400000Y46750000D01*
X29400000Y46750000D02*
X28900000Y46750000D01*
X29400000Y45500000D02*
X28900000Y45500000D01*
X29400000Y44250000D02*
X29400000Y43750000D01*
X29400000Y43600000D02*
X29400000Y47400000D01*
X29400000Y43600000D02*
X30400000Y43600000D01*
X30400000Y47400000D02*
X29400000Y47400000D01*
X30400000Y47400000D02*
X30400000Y43600000D01*
X30400000Y46750000D02*
X30400000Y47250000D01*
X30400000Y44250000D02*
X30900000Y44250000D01*
X30400000Y43750000D02*
X30400000Y44250000D01*
X30900000Y46750000D02*
X30400000Y46750000D01*
X30900000Y45500000D02*
X30400000Y45500000D01*
X30900000Y44250000D02*
X30900000Y46750000D01*
D16*
X34925000Y40600000D02*
X34925000Y38000000D01*
X34925000Y38000000D02*
X37525000Y38000000D01*
X37525000Y40600000D02*
X34925000Y40600000D01*
X37525000Y38000000D02*
X37525000Y40600000D01*
D17*
X33725000Y39300000D02*
G75*
G02*
X33525000Y39300000I-100000J0D01*
G01*
X33525000Y39300000D02*
G75*
G02*
X33725000Y39300000I100000J0D01*
G01*
D16*
X4700000Y42225000D02*
X5500000Y42225000D01*
X4700000Y40625000D02*
X4700000Y42225000D01*
X5500000Y42225000D02*
X5500000Y40625000D01*
X5500000Y40625000D02*
X4700000Y40625000D01*
X28900000Y41450000D02*
X29900000Y41450000D01*
X28900000Y40950000D02*
X28900000Y41450000D01*
X29900000Y41450000D02*
X29900000Y40950000D01*
X29900000Y40950000D02*
X28900000Y40950000D01*
D13*
X19600000Y45850000D02*
X19600000Y43350000D01*
X19600000Y43350000D02*
X20100000Y43350000D01*
X20100000Y46350000D02*
X20100000Y45850000D01*
X20100000Y45850000D02*
X19600000Y45850000D01*
X20100000Y44600000D02*
X19600000Y44600000D01*
X20100000Y43350000D02*
X20100000Y42850000D01*
X20100000Y42700000D02*
X20100000Y46500000D01*
X20100000Y42700000D02*
X21100000Y42700000D01*
X21100000Y46500000D02*
X20100000Y46500000D01*
X21100000Y46500000D02*
X21100000Y42700000D01*
X21100000Y45850000D02*
X21100000Y46350000D01*
X21100000Y43350000D02*
X21600000Y43350000D01*
X21100000Y42850000D02*
X21100000Y43350000D01*
X21600000Y45850000D02*
X21100000Y45850000D01*
X21600000Y44600000D02*
X21100000Y44600000D01*
X21600000Y43350000D02*
X21600000Y45850000D01*
D16*
X38925000Y37050000D02*
X38925000Y34450000D01*
X38925000Y34450000D02*
X41525000Y34450000D01*
X41525000Y37050000D02*
X38925000Y37050000D01*
X41525000Y34450000D02*
X41525000Y37050000D01*
D17*
X37725000Y35750000D02*
G75*
G02*
X37525000Y35750000I-100000J0D01*
G01*
X37525000Y35750000D02*
G75*
G02*
X37725000Y35750000I100000J0D01*
G01*
D16*
X8087500Y20000000D02*
X8087500Y17400000D01*
X8087500Y17400000D02*
X10687500Y17400000D01*
X10687500Y20000000D02*
X8087500Y20000000D01*
X10687500Y17400000D02*
X10687500Y20000000D01*
D17*
X12087500Y18700000D02*
G75*
G02*
X11887500Y18700000I-100000J0D01*
G01*
X11887500Y18700000D02*
G75*
G02*
X12087500Y18700000I100000J0D01*
G01*
D16*
X33050000Y17950000D02*
X33850000Y17950000D01*
X33050000Y16350000D02*
X33050000Y17950000D01*
X33850000Y17950000D02*
X33850000Y16350000D01*
X33850000Y16350000D02*
X33050000Y16350000D01*
M02*
