G04 #@! TF.GenerationSoftware,KiCad,Pcbnew,8.0.6-8.0.6-0~ubuntu24.04.1*
G04 #@! TF.CreationDate,2024-11-04T16:08:31-05:00*
G04 #@! TF.ProjectId,breakout-tt06-qfn,62726561-6b6f-4757-942d-747430362d71,1.1*
G04 #@! TF.SameCoordinates,PX2b64660PY42c1d80*
G04 #@! TF.FileFunction,Copper,L2,Bot*
G04 #@! TF.FilePolarity,Positive*
%FSLAX46Y46*%
G04 Gerber Fmt 4.6, Leading zero omitted, Abs format (unit mm)*
G04 Created by KiCad (PCBNEW 8.0.6-8.0.6-0~ubuntu24.04.1) date 2024-11-04 16:08:31*
%MOMM*%
%LPD*%
G01*
G04 APERTURE LIST*
G04 #@! TA.AperFunction,ComponentPad*
%ADD10C,0.820000*%
G04 #@! TD*
G04 #@! TA.AperFunction,ComponentPad*
%ADD11C,0.630000*%
G04 #@! TD*
G04 #@! TA.AperFunction,ComponentPad*
%ADD12R,1.700000X1.700000*%
G04 #@! TD*
G04 #@! TA.AperFunction,ComponentPad*
%ADD13O,1.700000X1.700000*%
G04 #@! TD*
G04 #@! TA.AperFunction,WasherPad*
%ADD14C,1.600000*%
G04 #@! TD*
G04 #@! TA.AperFunction,SMDPad,CuDef*
%ADD15R,3.000000X1.000000*%
G04 #@! TD*
G04 #@! TA.AperFunction,SMDPad,CuDef*
%ADD16R,2.800000X1.000000*%
G04 #@! TD*
G04 #@! TA.AperFunction,ViaPad*
%ADD17C,0.700000*%
G04 #@! TD*
G04 #@! TA.AperFunction,ViaPad*
%ADD18C,0.800000*%
G04 #@! TD*
G04 #@! TA.AperFunction,Conductor*
%ADD19C,0.254000*%
G04 #@! TD*
G04 #@! TA.AperFunction,Conductor*
%ADD20C,0.300000*%
G04 #@! TD*
G04 #@! TA.AperFunction,Conductor*
%ADD21C,0.200000*%
G04 #@! TD*
G04 APERTURE END LIST*
D10*
X28600000Y4400000D03*
D11*
X16900000Y28200000D03*
D10*
X16150000Y46800000D03*
X1300000Y5700000D03*
X28600000Y900000D03*
X45700000Y22900000D03*
D11*
X17000000Y26400000D03*
D10*
X45000000Y8300000D03*
X45100000Y33400000D03*
X30400000Y23100000D03*
X36600000Y50100000D03*
D11*
X27300000Y10400000D03*
X27300000Y12500000D03*
D10*
X39900000Y3100000D03*
D11*
X39600000Y9100000D03*
D10*
X11300000Y4900000D03*
X11900000Y38700000D03*
X29650000Y50000000D03*
D11*
X23600000Y26500000D03*
D10*
X33800000Y49350000D03*
D11*
X32700000Y5000000D03*
D10*
X3400000Y8200000D03*
X47500000Y48800000D03*
X6800000Y38700000D03*
X5050000Y31150000D03*
D11*
X15700000Y19600000D03*
X27300000Y18600000D03*
D10*
X5000000Y23400000D03*
D11*
X23600000Y29050000D03*
X19200000Y13900000D03*
X22500000Y15200000D03*
D10*
X44800000Y10900000D03*
D11*
X29850000Y38450000D03*
D10*
X5000000Y33500000D03*
D11*
X9700000Y48150000D03*
D10*
X11900000Y43900000D03*
X44900000Y19200000D03*
X36400000Y17900000D03*
X48300000Y3100000D03*
D11*
X27300000Y14600000D03*
D10*
X5000000Y28500000D03*
X39600000Y7000000D03*
X28600000Y6700000D03*
X39600000Y14300000D03*
X45500000Y29600000D03*
X4200000Y36100000D03*
X43950000Y15550000D03*
D11*
X31300000Y30400000D03*
X5500000Y1200000D03*
X14900000Y7400000D03*
D10*
X22900000Y50600000D03*
D11*
X27300000Y16600000D03*
D10*
X39600000Y18900000D03*
X1300000Y41200000D03*
X45100000Y40000000D03*
D11*
X20300000Y12900000D03*
D10*
X1300000Y46300000D03*
D11*
X2800000Y700000D03*
D12*
X19250000Y50200000D03*
D13*
X16710000Y50200000D03*
X14170000Y50200000D03*
X11630000Y50200000D03*
D10*
X15500000Y900000D03*
D11*
X36000000Y28100000D03*
D10*
X1300000Y36200000D03*
X3050000Y15800000D03*
X32500000Y17100000D03*
D11*
X15450000Y51300000D03*
D10*
X21400000Y6700000D03*
X6200000Y15800000D03*
X3500000Y10800000D03*
X39600000Y10700000D03*
D11*
X26200000Y29050000D03*
D10*
X1300000Y21000000D03*
D11*
X30400000Y32600000D03*
D10*
X1300000Y28500000D03*
X21400000Y900000D03*
X21400000Y4400000D03*
D11*
X33800000Y25400000D03*
X39600000Y12300000D03*
D10*
X11300000Y2000000D03*
X33200000Y14800000D03*
X1300000Y13300000D03*
X16250000Y44000000D03*
D11*
X26200000Y26500000D03*
X4600000Y51300000D03*
X25800000Y37300000D03*
D14*
X45000000Y3140000D03*
X45000000Y48860000D03*
D15*
X42480000Y50130000D03*
D16*
X47520000Y50130000D03*
D15*
X42480000Y47590000D03*
X47520000Y47590000D03*
X42480000Y45050000D03*
X47520000Y45050000D03*
X42480000Y42510000D03*
X47520000Y42510000D03*
X42480000Y39970000D03*
X47520000Y39970000D03*
X42480000Y37430000D03*
X47520000Y37430000D03*
X42480000Y34890000D03*
X47520000Y34890000D03*
X42480000Y32350000D03*
X47520000Y32350000D03*
X42480000Y29810000D03*
X47520000Y29810000D03*
X42480000Y27270000D03*
X47520000Y27270000D03*
X42480000Y24730000D03*
X47520000Y24730000D03*
X42480000Y22190000D03*
X47520000Y22190000D03*
X42480000Y19650000D03*
X47520000Y19650000D03*
X42480000Y17110000D03*
X47520000Y17110000D03*
X42480000Y14570000D03*
X47520000Y14570000D03*
X42480000Y12030000D03*
X47520000Y12030000D03*
X42480000Y9490000D03*
X47520000Y9490000D03*
X42480000Y6950000D03*
X47520000Y6950000D03*
X42480000Y4410000D03*
X47520000Y4410000D03*
X42480000Y1870000D03*
X47520000Y1870000D03*
D14*
X5000000Y3140000D03*
X5000000Y48860000D03*
D16*
X2480000Y50130000D03*
D15*
X7520000Y50130000D03*
X2480000Y47590000D03*
X7520000Y47590000D03*
X2480000Y45050000D03*
X7520000Y45050000D03*
X2480000Y42510000D03*
X7520000Y42510000D03*
X2480000Y39970000D03*
X7520000Y39970000D03*
X2480000Y37430000D03*
X7520000Y37430000D03*
X2480000Y34890000D03*
X7520000Y34890000D03*
X2480000Y32350000D03*
X7520000Y32350000D03*
X2480000Y29810000D03*
X7520000Y29810000D03*
X2480000Y27270000D03*
X7520000Y27270000D03*
X2480000Y24730000D03*
X7520000Y24730000D03*
X2480000Y22190000D03*
X7520000Y22190000D03*
X2480000Y19650000D03*
X7520000Y19650000D03*
X2480000Y17110000D03*
X7520000Y17110000D03*
X2480000Y14570000D03*
X7520000Y14570000D03*
X2480000Y12030000D03*
X7520000Y12030000D03*
X2480000Y9490000D03*
X7520000Y9490000D03*
X2480000Y6950000D03*
X7520000Y6950000D03*
X2480000Y4410000D03*
X7520000Y4410000D03*
X2480000Y1870000D03*
X7520000Y1870000D03*
D17*
X25573195Y48400000D03*
D18*
X7400000Y13100000D03*
X40200000Y28499996D03*
X33500000Y32500000D03*
D17*
X24750000Y21750000D03*
D18*
X31200000Y20500000D03*
D17*
X33250002Y28099997D03*
D18*
X41800000Y30100000D03*
X45000000Y1739997D03*
X48000000Y13400000D03*
X42100000Y41400000D03*
X13200000Y12500000D03*
X38300000Y44400000D03*
X7800000Y23500000D03*
X36200000Y35100000D03*
X30000000Y20000000D03*
X48100000Y31000000D03*
X15200000Y27700000D03*
X36212754Y36600000D03*
X38300000Y30900000D03*
X38600000Y27600000D03*
X38200000Y34000000D03*
X49300000Y23500000D03*
X34500000Y40600000D03*
X38100000Y47500000D03*
X48200000Y34900000D03*
X48000000Y8389998D03*
X13300000Y24900000D03*
X42500000Y48800000D03*
X34300000Y47500000D03*
D17*
X19800000Y19800000D03*
D18*
X41984415Y43950000D03*
X15100000Y16700000D03*
X34400000Y31100000D03*
X8500000Y16009998D03*
X14900000Y30600000D03*
X34400000Y44500000D03*
X41700000Y36329998D03*
X11300000Y20300000D03*
X41000000Y33450002D03*
X11200000Y10200000D03*
X16700000Y13900000D03*
X7500000Y20750002D03*
X36300000Y42100000D03*
X22000000Y41750000D03*
X38300000Y40700000D03*
X28500000Y35750000D03*
X13300000Y19400000D03*
X11400000Y16900000D03*
X5100000Y43350000D03*
X9700000Y26300000D03*
D17*
X25755777Y33636491D03*
D18*
X11300000Y23800000D03*
X22543309Y21695245D03*
D17*
X17750004Y29691908D03*
X18173909Y22060664D03*
D18*
X27525000Y33575000D03*
X7400000Y10590002D03*
X48100000Y42400000D03*
D17*
X30543906Y28727858D03*
D18*
X38300000Y37300000D03*
X11300000Y13175000D03*
X11000000Y30800000D03*
X45200000Y45300000D03*
X29900000Y48050000D03*
X29400000Y35699990D03*
X22250000Y36400000D03*
X11400000Y27800000D03*
X6650000Y4950000D03*
X40200000Y22200000D03*
D17*
X32000000Y41900000D03*
D18*
X45700000Y46283893D03*
X44783055Y46283893D03*
D17*
X29000000Y41900000D03*
D18*
X32749996Y48500000D03*
X45250000Y26500000D03*
X47000000Y750000D03*
X2700000Y41070002D03*
X23000000Y45000000D03*
X5526892Y40872904D03*
X47999998Y28500000D03*
X18500000Y41750000D03*
X17500000Y44750000D03*
X4000000Y700000D03*
X21131492Y49400000D03*
X12590000Y41660000D03*
X22900000Y40085836D03*
X24470281Y41909619D03*
X4250000Y37250000D03*
X10280331Y1219669D03*
X4059313Y39059313D03*
X40500000Y8600000D03*
X4376345Y7417563D03*
X8500000Y21500000D03*
X45750000Y5000000D03*
X7750000Y28000000D03*
X45500000Y12000000D03*
X3900000Y28400000D03*
X2850000Y47100000D03*
X25700000Y39800000D03*
X30500000Y42677000D03*
X25600000Y51300000D03*
X5750000Y19750000D03*
X5750000Y14000000D03*
D17*
X6200000Y50500000D03*
D18*
X26953195Y47803682D03*
X3700000Y31200000D03*
X4250000Y35000000D03*
X8894485Y35150000D03*
X4750000Y1750000D03*
X40500000Y4311522D03*
X9500000Y32250000D03*
X7450091Y15996002D03*
X10250000Y6750000D03*
X40500000Y11500000D03*
X45750000Y10000000D03*
X6000000Y24250000D03*
X44000000Y41750000D03*
X41250000Y45500000D03*
X40469669Y19750000D03*
X46123656Y25917564D03*
X40394525Y15201227D03*
X41000000Y39500000D03*
X44724724Y23343086D03*
X44000000Y31250000D03*
X45750000Y20500000D03*
X45500000Y18050000D03*
X44000000Y37250000D03*
X45154658Y24833542D03*
X42250000Y33430002D03*
X45904516Y24098547D03*
X24750000Y43250000D03*
X6750000Y48750000D03*
X27500000Y48800000D03*
X31400000Y49100000D03*
D17*
X6050000Y46300000D03*
D18*
X8250000Y8650000D03*
X5250000Y8250000D03*
X45400000Y16300000D03*
X28500000Y51250000D03*
X48750000Y5849998D03*
X48800000Y16009998D03*
X47000000Y51250000D03*
X6000000Y5800000D03*
X23999994Y50500000D03*
D19*
X31400000Y49100000D02*
X31100000Y48800000D01*
X31100000Y48800000D02*
X27500000Y48800000D01*
X11630000Y50200000D02*
X14223075Y47606925D01*
X14223075Y47606925D02*
X26756438Y47606925D01*
X14170000Y50200000D02*
X15970000Y48400000D01*
X25973195Y48800000D02*
X25573195Y48400000D01*
X27500000Y48800000D02*
X25973195Y48800000D01*
X26756438Y47606925D02*
X26953195Y47803682D01*
X15970000Y48400000D02*
X25573195Y48400000D01*
D20*
X24199994Y50300000D02*
X23999994Y50500000D01*
X26931371Y51500000D02*
X25731371Y50300000D01*
D19*
X17887000Y51377000D02*
X16710000Y50200000D01*
D20*
X46750000Y51500000D02*
X26931371Y51500000D01*
X47000000Y51250000D02*
X46750000Y51500000D01*
X25731371Y50300000D02*
X24199994Y50300000D01*
D19*
X25523000Y51377000D02*
X17887000Y51377000D01*
X25600000Y51300000D02*
X25523000Y51377000D01*
D20*
X19250000Y50200000D02*
X19350000Y50300000D01*
D19*
X47520000Y13880000D02*
X48000000Y13400000D01*
X40210000Y22190000D02*
X40200000Y22200000D01*
X47520000Y7909998D02*
X48000000Y8389998D01*
D20*
X19350000Y50300000D02*
X22600000Y50300000D01*
D19*
X42480000Y50130000D02*
X42480000Y48820000D01*
X47520000Y34890000D02*
X48190000Y34890000D01*
X47520000Y30780000D02*
X47880000Y30780000D01*
X47520000Y1870000D02*
X45130003Y1870000D01*
D20*
X16312943Y48900000D02*
X15450000Y49762943D01*
X22600000Y50300000D02*
X22900000Y50600000D01*
D19*
X47880000Y30780000D02*
X48100000Y31000000D01*
X45130003Y1870000D02*
X45000000Y1739997D01*
D20*
X19250000Y50200000D02*
X19200000Y50200000D01*
D19*
X42480000Y48820000D02*
X42500000Y48800000D01*
X47520000Y22190000D02*
X48490000Y22190000D01*
X44869997Y1870000D02*
X45000000Y1739997D01*
X47520000Y14570000D02*
X47520000Y13880000D01*
X48490000Y22190000D02*
X49300000Y23000000D01*
X49300000Y23000000D02*
X49300000Y23500000D01*
X42480000Y22190000D02*
X40210000Y22190000D01*
X47520000Y29810000D02*
X47520000Y30780000D01*
X48190000Y34890000D02*
X48200000Y34900000D01*
X42480000Y1870000D02*
X44869997Y1870000D01*
D20*
X17900000Y48900000D02*
X16312943Y48900000D01*
X15450000Y49762943D02*
X15450000Y51300000D01*
X19200000Y50200000D02*
X17900000Y48900000D01*
D19*
X47520000Y42510000D02*
X47990000Y42510000D01*
X47520000Y6950000D02*
X47520000Y7909998D01*
X47990000Y42510000D02*
X48100000Y42400000D01*
X39000000Y48500000D02*
X41250000Y46250000D01*
X45248893Y46283893D02*
X46555000Y47590000D01*
X29000000Y41900000D02*
X32000000Y41900000D01*
X32749996Y48500000D02*
X39000000Y48500000D01*
X46555000Y47590000D02*
X47520000Y47590000D01*
X44783055Y46283893D02*
X45248893Y46283893D01*
X41250000Y46250000D02*
X44749162Y46250000D01*
X44783055Y46283893D02*
X45700000Y46283893D01*
X44749162Y46250000D02*
X44783055Y46283893D01*
D20*
X17500000Y44750000D02*
X22750000Y44750000D01*
X2910002Y40860000D02*
X17610000Y40860000D01*
X13250000Y450000D02*
X15750000Y2950000D01*
X2700000Y41070002D02*
X2910002Y40860000D01*
X45250000Y27700000D02*
X46050000Y28500000D01*
X4350000Y450000D02*
X13250000Y450000D01*
X4050000Y750000D02*
X4350000Y450000D01*
X45250000Y26500000D02*
X45250000Y27700000D01*
X4000000Y700000D02*
X4050000Y750000D01*
X15750000Y2950000D02*
X29150000Y2950000D01*
X46050000Y28500000D02*
X47999998Y28500000D01*
X31350000Y750000D02*
X47000000Y750000D01*
X22750000Y44750000D02*
X23000000Y45000000D01*
X29150000Y2950000D02*
X31350000Y750000D01*
X17610000Y40860000D02*
X18500000Y41750000D01*
X29310661Y51000000D02*
X27912733Y49602072D01*
X27912733Y49602072D02*
X21333564Y49602072D01*
X47520000Y50130000D02*
X46570000Y50130000D01*
X45700000Y51000000D02*
X29310661Y51000000D01*
X46570000Y50130000D02*
X45700000Y51000000D01*
X21333564Y49602072D02*
X21131492Y49400000D01*
X4300000Y41660000D02*
X12590000Y41660000D01*
X2480000Y42510000D02*
X3450000Y42510000D01*
X3450000Y42510000D02*
X4300000Y41660000D01*
D21*
X7520000Y39970000D02*
X22784164Y39970000D01*
X22784164Y39970000D02*
X22900000Y40085836D01*
X23869900Y42510000D02*
X7520000Y42510000D01*
X24470281Y41909619D02*
X23869900Y42510000D01*
X2660000Y37250000D02*
X2480000Y37430000D01*
X4250000Y37250000D02*
X2660000Y37250000D01*
X9630000Y1870000D02*
X10280331Y1219669D01*
X7520000Y1870000D02*
X9630000Y1870000D01*
X2480000Y39970000D02*
X3830000Y39970000D01*
X4059313Y39740687D02*
X4059313Y39059313D01*
X3830000Y39970000D02*
X4059313Y39740687D01*
X42480000Y9490000D02*
X41490000Y9490000D01*
X40600000Y8600000D02*
X40500000Y8600000D01*
X41490000Y9490000D02*
X40600000Y8600000D01*
X2947563Y7417563D02*
X4376345Y7417563D01*
X2480000Y6950000D02*
X2947563Y7417563D01*
X8210000Y21500000D02*
X7520000Y22190000D01*
X8500000Y21500000D02*
X8210000Y21500000D01*
X46340000Y4410000D02*
X47520000Y4410000D01*
X45750000Y5000000D02*
X46340000Y4410000D01*
X7750000Y27500000D02*
X7520000Y27270000D01*
X7750000Y28000000D02*
X7750000Y27500000D01*
X45500000Y12000000D02*
X47490000Y12000000D01*
X47490000Y12000000D02*
X47520000Y12030000D01*
X3900000Y27700000D02*
X3900000Y28400000D01*
X3470000Y27270000D02*
X3900000Y27700000D01*
X2480000Y27270000D02*
X3470000Y27270000D01*
D19*
X28577000Y42677000D02*
X30500000Y42677000D01*
X2850000Y47220000D02*
X2850000Y47100000D01*
X25700000Y39800000D02*
X28577000Y42677000D01*
X2480000Y47590000D02*
X2850000Y47220000D01*
D21*
X5750000Y19750000D02*
X7420000Y19750000D01*
X7420000Y19750000D02*
X7520000Y19650000D01*
X5750000Y14000000D02*
X6950000Y14000000D01*
X6950000Y14000000D02*
X7520000Y14570000D01*
X2480000Y29810000D02*
X3310000Y29810000D01*
X3700000Y30200000D02*
X3700000Y31200000D01*
X3310000Y29810000D02*
X3700000Y30200000D01*
X2590000Y35000000D02*
X2480000Y34890000D01*
X4250000Y35000000D02*
X2590000Y35000000D01*
X7520000Y34890000D02*
X7780000Y35150000D01*
X7780000Y35150000D02*
X8894485Y35150000D01*
X4750000Y1750000D02*
X2600000Y1750000D01*
X2600000Y1750000D02*
X2480000Y1870000D01*
X40500000Y4311522D02*
X42381522Y4311522D01*
X42381522Y4311522D02*
X42480000Y4410000D01*
X9500000Y32250000D02*
X7620000Y32250000D01*
X7620000Y32250000D02*
X7520000Y32350000D01*
X7520000Y17110000D02*
X7520000Y16065911D01*
X7520000Y16065911D02*
X7450091Y15996002D01*
X7720000Y6750000D02*
X7520000Y6950000D01*
X10250000Y6750000D02*
X7720000Y6750000D01*
X40500000Y11500000D02*
X41100000Y11500000D01*
X41100000Y11500000D02*
X41630000Y12030000D01*
X41630000Y12030000D02*
X42480000Y12030000D01*
X45750000Y10000000D02*
X47010000Y10000000D01*
X47010000Y10000000D02*
X47520000Y9490000D01*
X6000000Y24250000D02*
X7040000Y24250000D01*
X7040000Y24250000D02*
X7520000Y24730000D01*
X44000000Y41750000D02*
X43240000Y42510000D01*
X43240000Y42510000D02*
X42480000Y42510000D01*
X41250000Y45500000D02*
X42030000Y45500000D01*
X42030000Y45500000D02*
X42480000Y45050000D01*
X42480000Y19650000D02*
X42380000Y19750000D01*
X42380000Y19750000D02*
X40469669Y19750000D01*
X46123656Y26823656D02*
X46123656Y25917564D01*
X46570000Y27270000D02*
X46123656Y26823656D01*
X47520000Y27270000D02*
X46570000Y27270000D01*
X40394525Y15201227D02*
X40394525Y15994525D01*
X40394525Y15994525D02*
X41510000Y17110000D01*
X41510000Y17110000D02*
X42480000Y17110000D01*
X42010000Y39500000D02*
X42480000Y39970000D01*
X41000000Y39500000D02*
X42010000Y39500000D01*
X42480000Y24730000D02*
X43470000Y24730000D01*
X43470000Y24730000D02*
X44724724Y23475276D01*
X44724724Y23475276D02*
X44724724Y23343086D01*
X44000000Y31800000D02*
X43450000Y32350000D01*
X44000000Y31250000D02*
X44000000Y31800000D01*
X43450000Y32350000D02*
X42480000Y32350000D01*
X45750000Y20500000D02*
X46600000Y19650000D01*
X46600000Y19650000D02*
X47520000Y19650000D01*
X47520000Y17110000D02*
X46440000Y17110000D01*
X46440000Y17110000D02*
X45500000Y18050000D01*
X42660000Y37250000D02*
X42480000Y37430000D01*
X44000000Y37250000D02*
X42660000Y37250000D01*
X45154658Y25545342D02*
X45154658Y24833542D01*
X43430000Y27270000D02*
X45154658Y25545342D01*
X42480000Y27270000D02*
X43430000Y27270000D01*
X42250000Y33430002D02*
X42250000Y34660000D01*
X42250000Y34660000D02*
X42480000Y34890000D01*
X47520000Y24730000D02*
X46535969Y24730000D01*
X46535969Y24730000D02*
X45904516Y24098547D01*
X7520000Y45050000D02*
X8550000Y45050000D01*
X10600000Y43000000D02*
X24500000Y43000000D01*
X8550000Y45050000D02*
X10600000Y43000000D01*
X24500000Y43000000D02*
X24750000Y43250000D01*
X6555000Y47590000D02*
X6050000Y47085000D01*
D19*
X7520000Y48380000D02*
X7520000Y47590000D01*
X7150000Y48750000D02*
X7520000Y48380000D01*
D21*
X7520000Y47590000D02*
X6555000Y47590000D01*
D19*
X6750000Y48750000D02*
X7150000Y48750000D01*
D21*
X6050000Y47085000D02*
X6050000Y46300000D01*
X7520000Y9490000D02*
X8250000Y8760000D01*
X8250000Y8760000D02*
X8250000Y8650000D01*
D20*
X48750000Y5849998D02*
X48650002Y5750000D01*
X48650002Y5750000D02*
X6020000Y5750000D01*
X6020000Y5750000D02*
X5250000Y6520000D01*
D19*
X45690002Y16009998D02*
X45400000Y16300000D01*
X48800000Y16009998D02*
X45690002Y16009998D01*
D20*
X5250000Y6520000D02*
X5250000Y8250000D01*
G04 #@! TA.AperFunction,Conductor*
G36*
X3344985Y1095816D02*
G01*
X3390740Y1043012D01*
X3400684Y973854D01*
X3393888Y947530D01*
X3359850Y857783D01*
X3340693Y700001D01*
X3340693Y700000D01*
X3359850Y542219D01*
X3370241Y514821D01*
X3387820Y468471D01*
X3393187Y398809D01*
X3360040Y337302D01*
X3298902Y303481D01*
X3271878Y300500D01*
X2503751Y300500D01*
X2496264Y300726D01*
X2242364Y316085D01*
X2227500Y317890D01*
X1981001Y363062D01*
X1966461Y366646D01*
X1727211Y441200D01*
X1713211Y446509D01*
X1484680Y549362D01*
X1471421Y556321D01*
X1256960Y685967D01*
X1244637Y694473D01*
X1237582Y700000D01*
X1047363Y849028D01*
X1036155Y858958D01*
X991293Y903820D01*
X957808Y965143D01*
X962792Y1034835D01*
X1004664Y1090768D01*
X1070128Y1115185D01*
X1078947Y1115501D01*
X3277946Y1115501D01*
X3344985Y1095816D01*
G37*
G04 #@! TD.AperFunction*
G04 #@! TA.AperFunction,Conductor*
G36*
X22475768Y2525815D02*
G01*
X22521523Y2473011D01*
X22531467Y2403853D01*
X22509048Y2348615D01*
X22387712Y2181610D01*
X22294781Y1999224D01*
X22231522Y1804535D01*
X22199500Y1602352D01*
X22199500Y1006093D01*
X22198903Y993938D01*
X22187256Y875689D01*
X22182514Y851849D01*
X22149798Y743998D01*
X22140495Y721539D01*
X22087370Y622151D01*
X22073866Y601941D01*
X22002369Y514821D01*
X21985179Y497631D01*
X21898059Y426134D01*
X21877849Y412630D01*
X21778461Y359505D01*
X21756002Y350202D01*
X21648151Y317486D01*
X21624311Y312744D01*
X21537215Y304166D01*
X21506060Y301097D01*
X21493907Y300500D01*
X13971911Y300500D01*
X13904872Y320185D01*
X13859117Y372989D01*
X13849173Y442147D01*
X13878198Y505703D01*
X13884230Y512181D01*
X15881230Y2509181D01*
X15942553Y2542666D01*
X15968911Y2545500D01*
X22408729Y2545500D01*
X22475768Y2525815D01*
G37*
G04 #@! TD.AperFunction*
G04 #@! TA.AperFunction,Conductor*
G36*
X28998128Y2525815D02*
G01*
X29018770Y2509181D01*
X31015770Y512181D01*
X31049255Y450858D01*
X31044271Y381166D01*
X31002399Y325233D01*
X30936935Y300816D01*
X30928089Y300500D01*
X28506093Y300500D01*
X28493939Y301097D01*
X28443081Y306107D01*
X28375688Y312744D01*
X28351848Y317486D01*
X28243997Y350202D01*
X28221541Y359504D01*
X28148007Y398809D01*
X28122150Y412630D01*
X28101940Y426134D01*
X28014820Y497631D01*
X27997630Y514821D01*
X27926133Y601941D01*
X27912629Y622151D01*
X27889834Y664797D01*
X27859501Y721547D01*
X27850201Y743998D01*
X27817483Y851855D01*
X27812744Y875683D01*
X27801097Y993939D01*
X27800500Y1006093D01*
X27800500Y1602352D01*
X27768477Y1804535D01*
X27705218Y1999224D01*
X27612287Y2181610D01*
X27490952Y2348615D01*
X27467473Y2414422D01*
X27483299Y2482476D01*
X27533405Y2531170D01*
X27591271Y2545500D01*
X28931089Y2545500D01*
X28998128Y2525815D01*
G37*
G04 #@! TD.AperFunction*
G04 #@! TA.AperFunction,Conductor*
G36*
X5716693Y2245202D02*
G01*
X5758064Y2188897D01*
X5765500Y2146602D01*
X5765500Y1344937D01*
X5780266Y1270699D01*
X5836515Y1186516D01*
X5854970Y1174185D01*
X5920699Y1130266D01*
X5920702Y1130266D01*
X5920703Y1130265D01*
X5945666Y1125300D01*
X5994933Y1115500D01*
X9045066Y1115501D01*
X9119301Y1130266D01*
X9203484Y1186516D01*
X9259734Y1270699D01*
X9274500Y1344933D01*
X9274500Y1391500D01*
X9294185Y1458539D01*
X9346989Y1504294D01*
X9398500Y1515500D01*
X9431799Y1515500D01*
X9498838Y1495815D01*
X9519480Y1479181D01*
X9595435Y1403226D01*
X9628920Y1341903D01*
X9630850Y1300600D01*
X9621024Y1219670D01*
X9621024Y1219669D01*
X9640182Y1061887D01*
X9655130Y1022471D01*
X9660497Y952807D01*
X9627349Y891301D01*
X9566211Y857480D01*
X9539188Y854500D01*
X4872929Y854500D01*
X4805890Y874185D01*
X4760135Y926989D01*
X4750191Y996147D01*
X4779216Y1059703D01*
X4837994Y1097477D01*
X4843254Y1098897D01*
X4910618Y1115501D01*
X4983793Y1133537D01*
X5124529Y1207401D01*
X5243498Y1312799D01*
X5333787Y1443605D01*
X5390149Y1592218D01*
X5409307Y1750000D01*
X5407817Y1762268D01*
X5390149Y1907782D01*
X5351530Y2009610D01*
X5346163Y2079274D01*
X5379310Y2140780D01*
X5409019Y2162940D01*
X5583047Y2255960D01*
X5651450Y2270202D01*
X5716693Y2245202D01*
G37*
G04 #@! TD.AperFunction*
G04 #@! TA.AperFunction,Conductor*
G36*
X17437654Y51679815D02*
G01*
X17483409Y51627011D01*
X17493353Y51557853D01*
X17464328Y51494297D01*
X17458296Y51487819D01*
X17232003Y51261527D01*
X17170680Y51228042D01*
X17100988Y51233026D01*
X17099528Y51233582D01*
X17013556Y51266888D01*
X16812347Y51304500D01*
X16607653Y51304500D01*
X16406444Y51266888D01*
X16406441Y51266888D01*
X16406441Y51266887D01*
X16215575Y51192946D01*
X16215569Y51192943D01*
X16041539Y51085188D01*
X16041537Y51085186D01*
X15890269Y50947288D01*
X15766912Y50783936D01*
X15675673Y50600705D01*
X15619654Y50403817D01*
X15600768Y50200001D01*
X15600768Y50200000D01*
X15619654Y49996184D01*
X15619654Y49996182D01*
X15619655Y49996179D01*
X15664888Y49837201D01*
X15675673Y49799296D01*
X15766912Y49616065D01*
X15890269Y49452713D01*
X16030176Y49325172D01*
X16041260Y49315067D01*
X16041537Y49314815D01*
X16041539Y49314813D01*
X16215569Y49207058D01*
X16215575Y49207055D01*
X16240054Y49197572D01*
X16406444Y49133112D01*
X16607653Y49095500D01*
X16607656Y49095500D01*
X16812344Y49095500D01*
X16812347Y49095500D01*
X17013556Y49133112D01*
X17204427Y49207056D01*
X17378462Y49314814D01*
X17529732Y49452715D01*
X17653088Y49616065D01*
X17665000Y49639989D01*
X17712502Y49691224D01*
X17780165Y49708646D01*
X17846505Y49686721D01*
X17890461Y49632410D01*
X17900000Y49584716D01*
X17900000Y49302156D01*
X17906401Y49242628D01*
X17906403Y49242621D01*
X17956645Y49107914D01*
X17956649Y49107907D01*
X18048125Y48985712D01*
X18046985Y48984859D01*
X18075926Y48931858D01*
X18070942Y48862166D01*
X18029070Y48806233D01*
X17963606Y48781816D01*
X17954760Y48781500D01*
X16179384Y48781500D01*
X16112345Y48801185D01*
X16091703Y48817819D01*
X15235010Y49674513D01*
X15201525Y49735836D01*
X15203425Y49796129D01*
X15204325Y49799295D01*
X15204328Y49799299D01*
X15260345Y49996179D01*
X15279232Y50200000D01*
X15278204Y50211089D01*
X15271190Y50286789D01*
X15260345Y50403821D01*
X15204328Y50600701D01*
X15113088Y50783935D01*
X15036906Y50884816D01*
X14989730Y50947288D01*
X14838462Y51085186D01*
X14838460Y51085188D01*
X14664430Y51192943D01*
X14664424Y51192946D01*
X14487394Y51261527D01*
X14473556Y51266888D01*
X14272347Y51304500D01*
X14067653Y51304500D01*
X13866444Y51266888D01*
X13866441Y51266888D01*
X13866441Y51266887D01*
X13675575Y51192946D01*
X13675569Y51192943D01*
X13501539Y51085188D01*
X13501537Y51085186D01*
X13350269Y50947288D01*
X13226912Y50783936D01*
X13135673Y50600705D01*
X13079654Y50403817D01*
X13060768Y50200001D01*
X13060768Y50200000D01*
X13079654Y49996184D01*
X13079654Y49996182D01*
X13079655Y49996179D01*
X13124888Y49837201D01*
X13135673Y49799296D01*
X13226912Y49616065D01*
X13350269Y49452713D01*
X13490176Y49325172D01*
X13501260Y49315067D01*
X13501537Y49314815D01*
X13501539Y49314813D01*
X13675569Y49207058D01*
X13675575Y49207055D01*
X13700054Y49197572D01*
X13866444Y49133112D01*
X14067653Y49095500D01*
X14067656Y49095500D01*
X14272344Y49095500D01*
X14272347Y49095500D01*
X14473556Y49133112D01*
X14559530Y49166420D01*
X14629151Y49172282D01*
X14690891Y49139573D01*
X14692004Y49138474D01*
X15630372Y48200106D01*
X15663857Y48138783D01*
X15658873Y48069091D01*
X15617001Y48013158D01*
X15551537Y47988741D01*
X15542691Y47988425D01*
X14432460Y47988425D01*
X14365421Y48008110D01*
X14344779Y48024744D01*
X12695010Y49674513D01*
X12661525Y49735836D01*
X12663425Y49796129D01*
X12664325Y49799295D01*
X12664328Y49799299D01*
X12720345Y49996179D01*
X12739232Y50200000D01*
X12738204Y50211089D01*
X12731190Y50286789D01*
X12720345Y50403821D01*
X12664328Y50600701D01*
X12573088Y50783935D01*
X12496906Y50884816D01*
X12449730Y50947288D01*
X12298462Y51085186D01*
X12298460Y51085188D01*
X12124430Y51192943D01*
X12124424Y51192946D01*
X11947394Y51261527D01*
X11933556Y51266888D01*
X11732347Y51304500D01*
X11527653Y51304500D01*
X11326444Y51266888D01*
X11326441Y51266888D01*
X11326441Y51266887D01*
X11135575Y51192946D01*
X11135569Y51192943D01*
X10961539Y51085188D01*
X10961537Y51085186D01*
X10810269Y50947288D01*
X10686912Y50783936D01*
X10595673Y50600705D01*
X10539654Y50403817D01*
X10520768Y50200001D01*
X10520768Y50200000D01*
X10539654Y49996184D01*
X10539654Y49996182D01*
X10539655Y49996179D01*
X10584888Y49837201D01*
X10595673Y49799296D01*
X10686912Y49616065D01*
X10810269Y49452713D01*
X10950176Y49325172D01*
X10961260Y49315067D01*
X10961537Y49314815D01*
X10961539Y49314813D01*
X11135569Y49207058D01*
X11135575Y49207055D01*
X11160054Y49197572D01*
X11326444Y49133112D01*
X11527653Y49095500D01*
X11527656Y49095500D01*
X11732344Y49095500D01*
X11732347Y49095500D01*
X11933556Y49133112D01*
X12019532Y49166420D01*
X12089150Y49172282D01*
X12150890Y49139573D01*
X12152003Y49138474D01*
X13988828Y47301649D01*
X14075822Y47251423D01*
X14172850Y47225425D01*
X26616044Y47225425D01*
X26673666Y47211223D01*
X26719402Y47187219D01*
X26719404Y47187219D01*
X26719405Y47187218D01*
X26873723Y47149182D01*
X26873724Y47149182D01*
X27032667Y47149182D01*
X27084106Y47161861D01*
X27186988Y47187219D01*
X27327724Y47261083D01*
X27446693Y47366481D01*
X27536982Y47497287D01*
X27593344Y47645900D01*
X27612502Y47803682D01*
X27607424Y47845500D01*
X27593344Y47961464D01*
X27577962Y48002022D01*
X27572595Y48071686D01*
X27605742Y48133192D01*
X27664229Y48166391D01*
X27733793Y48183537D01*
X27874529Y48257401D01*
X27993498Y48362799D01*
X27994977Y48364943D01*
X27996462Y48366146D01*
X27998471Y48368413D01*
X27998848Y48368079D01*
X28049261Y48408931D01*
X28097026Y48418500D01*
X31150222Y48418500D01*
X31150225Y48418500D01*
X31247254Y48444499D01*
X31247256Y48444501D01*
X31253502Y48446174D01*
X31315273Y48446795D01*
X31318779Y48445932D01*
X31320526Y48445501D01*
X31320527Y48445500D01*
X31320529Y48445500D01*
X31479472Y48445500D01*
X31530911Y48458179D01*
X31633793Y48483537D01*
X31774529Y48557401D01*
X31891875Y48661362D01*
X31955105Y48691081D01*
X32024368Y48681899D01*
X32077672Y48636727D01*
X32098093Y48569908D01*
X32097196Y48553601D01*
X32090689Y48500004D01*
X32090689Y48500000D01*
X32109846Y48342219D01*
X32136736Y48271317D01*
X32164777Y48197380D01*
X32166210Y48193603D01*
X32204050Y48138783D01*
X32256498Y48062799D01*
X32256500Y48062797D01*
X32256502Y48062795D01*
X32375465Y47957402D01*
X32375467Y47957401D01*
X32516203Y47883537D01*
X32534278Y47879082D01*
X32670524Y47845500D01*
X32670525Y47845500D01*
X32829468Y47845500D01*
X32883772Y47858885D01*
X32983789Y47883537D01*
X33124525Y47957401D01*
X33243494Y48062799D01*
X33244973Y48064943D01*
X33246458Y48066146D01*
X33248467Y48068413D01*
X33248844Y48068079D01*
X33299257Y48108931D01*
X33347022Y48118500D01*
X38790615Y48118500D01*
X38857654Y48098815D01*
X38878296Y48082181D01*
X40804812Y46155666D01*
X40838297Y46094343D01*
X40833313Y46024651D01*
X40799360Y45975171D01*
X40756503Y45937203D01*
X40756500Y45937199D01*
X40666214Y45806398D01*
X40609850Y45657782D01*
X40590693Y45500001D01*
X40590693Y45500000D01*
X40609850Y45342219D01*
X40666214Y45193603D01*
X40703550Y45139513D01*
X40725433Y45073159D01*
X40725500Y45069073D01*
X40725500Y44524937D01*
X40740266Y44450699D01*
X40796515Y44366516D01*
X40817788Y44352302D01*
X40880699Y44310266D01*
X40880702Y44310266D01*
X40880703Y44310265D01*
X40905666Y44305300D01*
X40954933Y44295500D01*
X44005066Y44295501D01*
X44079301Y44310266D01*
X44163484Y44366516D01*
X44219734Y44450699D01*
X44229969Y44502156D01*
X45520000Y44502156D01*
X45526401Y44442628D01*
X45526403Y44442621D01*
X45576645Y44307914D01*
X45576649Y44307907D01*
X45662809Y44192813D01*
X45662812Y44192810D01*
X45777906Y44106650D01*
X45777913Y44106646D01*
X45912620Y44056404D01*
X45912627Y44056402D01*
X45972155Y44050001D01*
X45972172Y44050000D01*
X47270000Y44050000D01*
X47270000Y44800000D01*
X45520000Y44800000D01*
X45520000Y44502156D01*
X44229969Y44502156D01*
X44234500Y44524933D01*
X44234499Y45575066D01*
X44227946Y45608012D01*
X44234175Y45677600D01*
X44277038Y45732777D01*
X44342928Y45756021D01*
X44407190Y45741996D01*
X44408523Y45741296D01*
X44408526Y45741294D01*
X44549262Y45667430D01*
X44549264Y45667430D01*
X44549265Y45667429D01*
X44703583Y45629393D01*
X44703584Y45629393D01*
X44862527Y45629393D01*
X44913966Y45642072D01*
X45016848Y45667430D01*
X45157584Y45741294D01*
X45159295Y45742810D01*
X45160817Y45743526D01*
X45163756Y45745554D01*
X45164093Y45745066D01*
X45222522Y45772535D01*
X45291786Y45763358D01*
X45323756Y45742813D01*
X45325469Y45741295D01*
X45325471Y45741294D01*
X45453626Y45674034D01*
X45503838Y45625449D01*
X45520000Y45564237D01*
X45520000Y45300000D01*
X47270000Y45300000D01*
X47270000Y46050000D01*
X46470875Y46050000D01*
X46403836Y46069685D01*
X46358081Y46122489D01*
X46347779Y46188946D01*
X46359307Y46283893D01*
X46359307Y46283894D01*
X46340149Y46441676D01*
X46283787Y46590288D01*
X46265318Y46617045D01*
X46243435Y46683399D01*
X46260900Y46751051D01*
X46279685Y46775164D01*
X46303706Y46799184D01*
X46365029Y46832668D01*
X46391385Y46835501D01*
X49045064Y46835501D01*
X49045066Y46835501D01*
X49119301Y46850266D01*
X49203484Y46906516D01*
X49259734Y46990699D01*
X49274500Y47064933D01*
X49274499Y48115066D01*
X49259734Y48189301D01*
X49224392Y48242194D01*
X49203484Y48273485D01*
X49153019Y48307204D01*
X49119301Y48329734D01*
X49119299Y48329735D01*
X49119296Y48329736D01*
X49045071Y48344500D01*
X46112768Y48344500D01*
X46045729Y48364185D01*
X45999974Y48416989D01*
X45990030Y48486147D01*
X45994108Y48504495D01*
X46039242Y48653282D01*
X46059602Y48860000D01*
X46039242Y49066718D01*
X45994106Y49215510D01*
X45993484Y49285372D01*
X46030732Y49344485D01*
X46094026Y49374076D01*
X46112754Y49375501D01*
X48945066Y49375501D01*
X49019301Y49390266D01*
X49103484Y49446516D01*
X49159734Y49530699D01*
X49174500Y49604933D01*
X49174499Y50529050D01*
X49194183Y50596088D01*
X49246987Y50641843D01*
X49316146Y50651787D01*
X49379702Y50622762D01*
X49404613Y50593202D01*
X49425180Y50559181D01*
X49443680Y50528578D01*
X49450638Y50515320D01*
X49553491Y50286789D01*
X49558800Y50272789D01*
X49633354Y50033539D01*
X49636938Y50018999D01*
X49682110Y49772500D01*
X49683915Y49757636D01*
X49699274Y49503737D01*
X49699500Y49496250D01*
X49699500Y45845447D01*
X49679815Y45778408D01*
X49627011Y45732653D01*
X49557853Y45722709D01*
X49494297Y45751734D01*
X49466670Y45786016D01*
X49463352Y45792091D01*
X49377190Y45907188D01*
X49377187Y45907191D01*
X49262093Y45993351D01*
X49262086Y45993355D01*
X49127379Y46043597D01*
X49127372Y46043599D01*
X49067844Y46050000D01*
X47770000Y46050000D01*
X47770000Y44050000D01*
X49067828Y44050000D01*
X49067844Y44050001D01*
X49127372Y44056402D01*
X49127379Y44056404D01*
X49262086Y44106646D01*
X49262093Y44106650D01*
X49377187Y44192810D01*
X49377190Y44192813D01*
X49463350Y44307907D01*
X49466668Y44313982D01*
X49516074Y44363387D01*
X49584347Y44378238D01*
X49649811Y44353821D01*
X49691682Y44297887D01*
X49699500Y44254554D01*
X49699500Y43305447D01*
X49679815Y43238408D01*
X49627011Y43192653D01*
X49557853Y43182709D01*
X49494297Y43211734D01*
X49466670Y43246016D01*
X49463352Y43252091D01*
X49377190Y43367188D01*
X49377187Y43367191D01*
X49262093Y43453351D01*
X49262086Y43453355D01*
X49127379Y43503597D01*
X49127372Y43503599D01*
X49067844Y43510000D01*
X47770000Y43510000D01*
X47770000Y41510000D01*
X49067828Y41510000D01*
X49067844Y41510001D01*
X49127372Y41516402D01*
X49127379Y41516404D01*
X49262086Y41566646D01*
X49262093Y41566650D01*
X49377187Y41652810D01*
X49377190Y41652813D01*
X49463350Y41767907D01*
X49466668Y41773982D01*
X49516074Y41823387D01*
X49584347Y41838238D01*
X49649811Y41813821D01*
X49691682Y41757887D01*
X49699500Y41714554D01*
X49699500Y40765447D01*
X49679815Y40698408D01*
X49627011Y40652653D01*
X49557853Y40642709D01*
X49494297Y40671734D01*
X49466670Y40706016D01*
X49463352Y40712091D01*
X49377190Y40827188D01*
X49377187Y40827191D01*
X49262093Y40913351D01*
X49262086Y40913355D01*
X49127379Y40963597D01*
X49127372Y40963599D01*
X49067844Y40970000D01*
X47770000Y40970000D01*
X47770000Y38970000D01*
X49067828Y38970000D01*
X49067844Y38970001D01*
X49127372Y38976402D01*
X49127379Y38976404D01*
X49262086Y39026646D01*
X49262093Y39026650D01*
X49377187Y39112810D01*
X49377190Y39112813D01*
X49463350Y39227907D01*
X49466668Y39233982D01*
X49516074Y39283387D01*
X49584347Y39298238D01*
X49649811Y39273821D01*
X49691682Y39217887D01*
X49699500Y39174554D01*
X49699500Y38225447D01*
X49679815Y38158408D01*
X49627011Y38112653D01*
X49557853Y38102709D01*
X49494297Y38131734D01*
X49466670Y38166016D01*
X49463352Y38172091D01*
X49377190Y38287188D01*
X49377187Y38287191D01*
X49262093Y38373351D01*
X49262086Y38373355D01*
X49127379Y38423597D01*
X49127372Y38423599D01*
X49067844Y38430000D01*
X47770000Y38430000D01*
X47770000Y36430000D01*
X49067828Y36430000D01*
X49067844Y36430001D01*
X49127372Y36436402D01*
X49127379Y36436404D01*
X49262086Y36486646D01*
X49262093Y36486650D01*
X49377187Y36572810D01*
X49377190Y36572813D01*
X49463350Y36687907D01*
X49466668Y36693982D01*
X49516074Y36743387D01*
X49584347Y36758238D01*
X49649811Y36733821D01*
X49691682Y36677887D01*
X49699500Y36634554D01*
X49699500Y35685447D01*
X49679815Y35618408D01*
X49627011Y35572653D01*
X49557853Y35562709D01*
X49494297Y35591734D01*
X49466670Y35626016D01*
X49463352Y35632091D01*
X49377190Y35747188D01*
X49377187Y35747191D01*
X49262093Y35833351D01*
X49262086Y35833355D01*
X49127379Y35883597D01*
X49127372Y35883599D01*
X49067844Y35890000D01*
X47770000Y35890000D01*
X47770000Y33890000D01*
X49067828Y33890000D01*
X49067844Y33890001D01*
X49127372Y33896402D01*
X49127379Y33896404D01*
X49262086Y33946646D01*
X49262093Y33946650D01*
X49377187Y34032810D01*
X49377190Y34032813D01*
X49463350Y34147907D01*
X49466668Y34153982D01*
X49516074Y34203387D01*
X49584347Y34218238D01*
X49649811Y34193821D01*
X49691682Y34137887D01*
X49699500Y34094554D01*
X49699500Y33145447D01*
X49679815Y33078408D01*
X49627011Y33032653D01*
X49557853Y33022709D01*
X49494297Y33051734D01*
X49466670Y33086016D01*
X49463352Y33092091D01*
X49377190Y33207188D01*
X49377187Y33207191D01*
X49262093Y33293351D01*
X49262086Y33293355D01*
X49127379Y33343597D01*
X49127372Y33343599D01*
X49067844Y33350000D01*
X47770000Y33350000D01*
X47770000Y31350000D01*
X49067828Y31350000D01*
X49067844Y31350001D01*
X49127372Y31356402D01*
X49127379Y31356404D01*
X49262086Y31406646D01*
X49262093Y31406650D01*
X49377187Y31492810D01*
X49377190Y31492813D01*
X49463350Y31607907D01*
X49466668Y31613982D01*
X49516074Y31663387D01*
X49584347Y31678238D01*
X49649811Y31653821D01*
X49691682Y31597887D01*
X49699500Y31554554D01*
X49699500Y30605447D01*
X49679815Y30538408D01*
X49627011Y30492653D01*
X49557853Y30482709D01*
X49494297Y30511734D01*
X49466670Y30546016D01*
X49463352Y30552091D01*
X49377190Y30667188D01*
X49377187Y30667191D01*
X49262093Y30753351D01*
X49262086Y30753355D01*
X49127379Y30803597D01*
X49127372Y30803599D01*
X49067844Y30810000D01*
X47770000Y30810000D01*
X47770000Y29684000D01*
X47750315Y29616961D01*
X47697511Y29571206D01*
X47646000Y29560000D01*
X45520000Y29560000D01*
X45520000Y29262156D01*
X45526401Y29202628D01*
X45526403Y29202621D01*
X45576645Y29067914D01*
X45576649Y29067907D01*
X45662809Y28952813D01*
X45662812Y28952810D01*
X45701489Y28923856D01*
X45743360Y28867922D01*
X45748344Y28798231D01*
X45714859Y28736909D01*
X45001631Y28023680D01*
X44926322Y27948372D01*
X44926320Y27948369D01*
X44873066Y27856132D01*
X44845500Y27753253D01*
X44845500Y27071855D01*
X44825815Y27004816D01*
X44803728Y26979040D01*
X44756502Y26937202D01*
X44756500Y26937199D01*
X44666214Y26806397D01*
X44666213Y26806396D01*
X44659630Y26789038D01*
X44617450Y26733336D01*
X44551852Y26709281D01*
X44483662Y26724510D01*
X44456008Y26745331D01*
X44270818Y26930521D01*
X44237333Y26991844D01*
X44234499Y27018202D01*
X44234499Y27795064D01*
X44234499Y27795066D01*
X44219734Y27869301D01*
X44166900Y27948372D01*
X44163484Y27953485D01*
X44113019Y27987204D01*
X44079301Y28009734D01*
X44079299Y28009735D01*
X44079296Y28009736D01*
X44005069Y28024500D01*
X40954936Y28024500D01*
X40880698Y28009734D01*
X40796515Y27953485D01*
X40740266Y27869301D01*
X40740264Y27869297D01*
X40725500Y27795072D01*
X40725500Y26744937D01*
X40740266Y26670699D01*
X40796515Y26586516D01*
X40830234Y26563986D01*
X40880699Y26530266D01*
X40880702Y26530266D01*
X40880703Y26530265D01*
X40905666Y26525300D01*
X40954933Y26515500D01*
X43631798Y26515501D01*
X43698837Y26495816D01*
X43719479Y26479182D01*
X44709461Y25489200D01*
X44742946Y25427877D01*
X44737962Y25358185D01*
X44704009Y25308705D01*
X44661161Y25270745D01*
X44661158Y25270741D01*
X44570872Y25139940D01*
X44514508Y24991324D01*
X44495351Y24833543D01*
X44495351Y24833542D01*
X44514508Y24675761D01*
X44555085Y24568769D01*
X44570871Y24527147D01*
X44661160Y24396341D01*
X44661162Y24396339D01*
X44661164Y24396337D01*
X44780127Y24290944D01*
X44780129Y24290943D01*
X44908431Y24223605D01*
X44958642Y24175023D01*
X44974617Y24107004D01*
X44951282Y24041146D01*
X44896047Y23998358D01*
X44826447Y23992226D01*
X44821132Y23993412D01*
X44804195Y23997586D01*
X44755115Y23997586D01*
X44688076Y24017271D01*
X44667434Y24033905D01*
X44270818Y24430521D01*
X44237333Y24491844D01*
X44234499Y24518202D01*
X44234499Y25255064D01*
X44234499Y25255066D01*
X44219734Y25329301D01*
X44188436Y25376141D01*
X44163484Y25413485D01*
X44113019Y25447204D01*
X44079301Y25469734D01*
X44079299Y25469735D01*
X44079296Y25469736D01*
X44005069Y25484500D01*
X40954936Y25484500D01*
X40880698Y25469734D01*
X40796515Y25413485D01*
X40740266Y25329301D01*
X40740264Y25329297D01*
X40725500Y25255072D01*
X40725500Y24204937D01*
X40740266Y24130699D01*
X40796515Y24046516D01*
X40815389Y24033905D01*
X40880699Y23990266D01*
X40880702Y23990266D01*
X40880703Y23990265D01*
X40905666Y23985300D01*
X40954933Y23975500D01*
X43671798Y23975501D01*
X43738837Y23955816D01*
X43759479Y23939182D01*
X44059016Y23639645D01*
X44092501Y23578322D01*
X44087517Y23508630D01*
X44087278Y23507995D01*
X44084575Y23500870D01*
X44084574Y23500865D01*
X44065417Y23343087D01*
X44067134Y23328947D01*
X44055674Y23260024D01*
X44008770Y23208237D01*
X43944038Y23190000D01*
X42730000Y23190000D01*
X42730000Y22440000D01*
X44480000Y22440000D01*
X44480000Y22571043D01*
X44499685Y22638082D01*
X44552489Y22683837D01*
X44621647Y22693781D01*
X44633678Y22691439D01*
X44645252Y22688586D01*
X44645253Y22688586D01*
X44804196Y22688586D01*
X44855635Y22701265D01*
X44958517Y22726623D01*
X44979899Y22737845D01*
X45520000Y22737845D01*
X45520000Y22440000D01*
X47270000Y22440000D01*
X47270000Y23190000D01*
X45972155Y23190000D01*
X45912627Y23183599D01*
X45912620Y23183597D01*
X45777913Y23133355D01*
X45777906Y23133351D01*
X45662812Y23047191D01*
X45662809Y23047188D01*
X45576649Y22932094D01*
X45576645Y22932087D01*
X45526403Y22797380D01*
X45526401Y22797373D01*
X45520000Y22737845D01*
X44979899Y22737845D01*
X45099253Y22800487D01*
X45218222Y22905885D01*
X45308511Y23036691D01*
X45364873Y23185304D01*
X45384031Y23343086D01*
X45374969Y23417717D01*
X45386429Y23486637D01*
X45433333Y23538424D01*
X45500788Y23556631D01*
X45555690Y23542458D01*
X45670723Y23482084D01*
X45747884Y23463066D01*
X45825044Y23444047D01*
X45825045Y23444047D01*
X45983988Y23444047D01*
X46035427Y23456726D01*
X46138309Y23482084D01*
X46279045Y23555948D01*
X46398014Y23661346D01*
X46488303Y23792152D01*
X46527487Y23895474D01*
X46569665Y23951175D01*
X46635263Y23975232D01*
X46643429Y23975501D01*
X49045064Y23975501D01*
X49045066Y23975501D01*
X49119301Y23990266D01*
X49203484Y24046516D01*
X49259734Y24130699D01*
X49274500Y24204933D01*
X49274499Y25255066D01*
X49259734Y25329301D01*
X49228436Y25376141D01*
X49203484Y25413485D01*
X49153019Y25447204D01*
X49119301Y25469734D01*
X49119299Y25469735D01*
X49119296Y25469736D01*
X49045071Y25484500D01*
X49045067Y25484500D01*
X46839049Y25484500D01*
X46772010Y25504185D01*
X46726255Y25556989D01*
X46716311Y25626147D01*
X46723107Y25652472D01*
X46763805Y25759782D01*
X46782963Y25917564D01*
X46763805Y26075346D01*
X46707443Y26223959D01*
X46640417Y26321062D01*
X46618535Y26387415D01*
X46636000Y26455067D01*
X46687268Y26502537D01*
X46742468Y26515501D01*
X49045064Y26515501D01*
X49045066Y26515501D01*
X49119301Y26530266D01*
X49203484Y26586516D01*
X49259734Y26670699D01*
X49274500Y26744933D01*
X49274499Y27795066D01*
X49259734Y27869301D01*
X49206900Y27948372D01*
X49203484Y27953485D01*
X49153019Y27987204D01*
X49119301Y28009734D01*
X49119299Y28009735D01*
X49119296Y28009736D01*
X49045071Y28024500D01*
X49045067Y28024500D01*
X48699297Y28024500D01*
X48632258Y28044185D01*
X48586503Y28096989D01*
X48576559Y28166147D01*
X48583355Y28192472D01*
X48583785Y28193605D01*
X48640147Y28342218D01*
X48659305Y28500000D01*
X48646580Y28604797D01*
X48639243Y28665228D01*
X48640906Y28665430D01*
X48643575Y28726127D01*
X48683895Y28783189D01*
X48748664Y28809394D01*
X48760903Y28810000D01*
X49067828Y28810000D01*
X49067844Y28810001D01*
X49127372Y28816402D01*
X49127379Y28816404D01*
X49262086Y28866646D01*
X49262093Y28866650D01*
X49377187Y28952810D01*
X49377190Y28952813D01*
X49463350Y29067907D01*
X49466668Y29073982D01*
X49516074Y29123387D01*
X49584347Y29138238D01*
X49649811Y29113821D01*
X49691682Y29057887D01*
X49699500Y29014554D01*
X49699500Y22985447D01*
X49679815Y22918408D01*
X49627011Y22872653D01*
X49557853Y22862709D01*
X49494297Y22891734D01*
X49466670Y22926016D01*
X49463352Y22932091D01*
X49377190Y23047188D01*
X49377187Y23047191D01*
X49262093Y23133351D01*
X49262086Y23133355D01*
X49127379Y23183597D01*
X49127372Y23183599D01*
X49067844Y23190000D01*
X47770000Y23190000D01*
X47770000Y21190000D01*
X49067828Y21190000D01*
X49067844Y21190001D01*
X49127372Y21196402D01*
X49127379Y21196404D01*
X49262086Y21246646D01*
X49262093Y21246650D01*
X49377187Y21332810D01*
X49377190Y21332813D01*
X49463350Y21447907D01*
X49466668Y21453982D01*
X49516074Y21503387D01*
X49584347Y21518238D01*
X49649811Y21493821D01*
X49691682Y21437887D01*
X49699500Y21394554D01*
X49699500Y16081797D01*
X49679815Y16014758D01*
X49673347Y16009154D01*
X49697821Y15958539D01*
X49699500Y15938200D01*
X49699500Y15365447D01*
X49679815Y15298408D01*
X49627011Y15252653D01*
X49557853Y15242709D01*
X49494297Y15271734D01*
X49466670Y15306016D01*
X49463352Y15312091D01*
X49377190Y15427187D01*
X49351265Y15446595D01*
X49309394Y15502529D01*
X49304410Y15572221D01*
X49323525Y15616299D01*
X49383787Y15703603D01*
X49440149Y15852216D01*
X49452404Y15953146D01*
X49478212Y16013112D01*
X49456523Y16046862D01*
X49452404Y16066851D01*
X49440149Y16167780D01*
X49432659Y16187530D01*
X49383787Y16316393D01*
X49293498Y16447199D01*
X49293497Y16447200D01*
X49289237Y16453372D01*
X49291300Y16454797D01*
X49266698Y16507121D01*
X49267614Y16550319D01*
X49274500Y16584933D01*
X49274499Y17635066D01*
X49259734Y17709301D01*
X49211316Y17781763D01*
X49203484Y17793485D01*
X49153019Y17827204D01*
X49119301Y17849734D01*
X49119299Y17849735D01*
X49119296Y17849736D01*
X49045071Y17864500D01*
X49045067Y17864500D01*
X46276750Y17864500D01*
X46209711Y17884185D01*
X46163956Y17936989D01*
X46153654Y18003447D01*
X46159307Y18050000D01*
X46140149Y18207782D01*
X46083787Y18356395D01*
X45993498Y18487201D01*
X45993495Y18487204D01*
X45993493Y18487206D01*
X45874530Y18592599D01*
X45733791Y18666464D01*
X45579472Y18704500D01*
X45579471Y18704500D01*
X45420529Y18704500D01*
X45420528Y18704500D01*
X45266208Y18666464D01*
X45125469Y18592599D01*
X45006506Y18487206D01*
X45006500Y18487199D01*
X44916214Y18356398D01*
X44859850Y18207782D01*
X44840693Y18050001D01*
X44840693Y18050000D01*
X44859850Y17892219D01*
X44916214Y17743603D01*
X44939891Y17709301D01*
X45006502Y17612799D01*
X45006504Y17612797D01*
X45006506Y17612795D01*
X45125469Y17507402D01*
X45125471Y17507401D01*
X45266207Y17433537D01*
X45343368Y17414519D01*
X45420528Y17395500D01*
X45420529Y17395500D01*
X45579469Y17395500D01*
X45579471Y17395500D01*
X45579472Y17395501D01*
X45585240Y17396201D01*
X45654164Y17384744D01*
X45687874Y17360787D01*
X45729181Y17319480D01*
X45762666Y17258157D01*
X45765500Y17231799D01*
X45765500Y17042275D01*
X45745815Y16975236D01*
X45693011Y16929481D01*
X45623853Y16919537D01*
X45611825Y16921878D01*
X45479472Y16954500D01*
X45479471Y16954500D01*
X45320529Y16954500D01*
X45320528Y16954500D01*
X45166208Y16916464D01*
X45025469Y16842599D01*
X44906506Y16737206D01*
X44906500Y16737199D01*
X44816214Y16606398D01*
X44759850Y16457782D01*
X44740693Y16300001D01*
X44740693Y16300000D01*
X44759850Y16142219D01*
X44782766Y16081797D01*
X44816213Y15993605D01*
X44906502Y15862799D01*
X44906504Y15862797D01*
X44906506Y15862795D01*
X45025469Y15757402D01*
X45025471Y15757401D01*
X45166207Y15683537D01*
X45243368Y15664519D01*
X45320528Y15645500D01*
X45320529Y15645500D01*
X45479471Y15645500D01*
X45498952Y15650302D01*
X45560718Y15649682D01*
X45609257Y15636675D01*
X45668915Y15600312D01*
X45699444Y15537465D01*
X45691149Y15468090D01*
X45664848Y15429226D01*
X45662808Y15427187D01*
X45576649Y15312094D01*
X45576645Y15312087D01*
X45526403Y15177380D01*
X45526401Y15177373D01*
X45520000Y15117845D01*
X45520000Y14820000D01*
X47646000Y14820000D01*
X47713039Y14800315D01*
X47758794Y14747511D01*
X47770000Y14696000D01*
X47770000Y13570000D01*
X49067828Y13570000D01*
X49067844Y13570001D01*
X49127372Y13576402D01*
X49127379Y13576404D01*
X49262086Y13626646D01*
X49262093Y13626650D01*
X49377187Y13712810D01*
X49377190Y13712813D01*
X49463350Y13827907D01*
X49466668Y13833982D01*
X49516074Y13883387D01*
X49584347Y13898238D01*
X49649811Y13873821D01*
X49691682Y13817887D01*
X49699500Y13774554D01*
X49699500Y7745447D01*
X49679815Y7678408D01*
X49627011Y7632653D01*
X49557853Y7622709D01*
X49494297Y7651734D01*
X49466670Y7686016D01*
X49463352Y7692091D01*
X49377190Y7807188D01*
X49377187Y7807191D01*
X49262093Y7893351D01*
X49262086Y7893355D01*
X49127379Y7943597D01*
X49127372Y7943599D01*
X49067844Y7950000D01*
X47770000Y7950000D01*
X47770000Y6824000D01*
X47750315Y6756961D01*
X47697511Y6711206D01*
X47646000Y6700000D01*
X45520000Y6700000D01*
X45520000Y6402156D01*
X45526401Y6342628D01*
X45526403Y6342620D01*
X45534156Y6321835D01*
X45539142Y6252144D01*
X45505658Y6190820D01*
X45444335Y6157334D01*
X45417975Y6154500D01*
X44582025Y6154500D01*
X44514986Y6174185D01*
X44469231Y6226989D01*
X44459287Y6296147D01*
X44465844Y6321835D01*
X44473596Y6342620D01*
X44473598Y6342628D01*
X44479999Y6402156D01*
X44480000Y6402173D01*
X44480000Y6700000D01*
X40480000Y6700000D01*
X40480000Y6402156D01*
X40486401Y6342628D01*
X40486403Y6342620D01*
X40494156Y6321835D01*
X40499142Y6252144D01*
X40465658Y6190820D01*
X40404335Y6157334D01*
X40377975Y6154500D01*
X10870494Y6154500D01*
X10803455Y6174185D01*
X10757700Y6226989D01*
X10747756Y6296147D01*
X10768444Y6348940D01*
X10833787Y6443605D01*
X10890149Y6592218D01*
X10909307Y6750000D01*
X10890149Y6907782D01*
X10833787Y7056395D01*
X10743498Y7187201D01*
X10743495Y7187204D01*
X10743493Y7187206D01*
X10624530Y7292599D01*
X10483791Y7366464D01*
X10329472Y7404500D01*
X10329471Y7404500D01*
X10170529Y7404500D01*
X10170528Y7404500D01*
X10016208Y7366464D01*
X9875469Y7292599D01*
X9756506Y7187206D01*
X9756502Y7187201D01*
X9736387Y7158060D01*
X9682106Y7114070D01*
X9634338Y7104500D01*
X9398499Y7104500D01*
X9331460Y7124185D01*
X9285705Y7176989D01*
X9274499Y7228500D01*
X9274499Y7475064D01*
X9274499Y7475066D01*
X9259734Y7549301D01*
X9210684Y7622709D01*
X9203484Y7633485D01*
X9136251Y7678408D01*
X9119301Y7689734D01*
X9119299Y7689735D01*
X9119296Y7689736D01*
X9045069Y7704500D01*
X5994934Y7704500D01*
X5916827Y7688964D01*
X5847235Y7695193D01*
X5792059Y7738057D01*
X5768816Y7803947D01*
X5784885Y7871944D01*
X5790581Y7881012D01*
X5829812Y7937848D01*
X5833785Y7943602D01*
X5833785Y7943603D01*
X5833787Y7943605D01*
X5890149Y8092218D01*
X5909307Y8250000D01*
X5904012Y8293605D01*
X5890149Y8407782D01*
X5877089Y8442218D01*
X5833787Y8556395D01*
X5833782Y8556402D01*
X5830701Y8562273D01*
X5816976Y8630782D01*
X5842469Y8695835D01*
X5899085Y8736779D01*
X5964689Y8741516D01*
X5994933Y8735500D01*
X7470456Y8735501D01*
X7537495Y8715816D01*
X7583250Y8663013D01*
X7593552Y8626448D01*
X7609850Y8492219D01*
X7666214Y8343603D01*
X7700727Y8293603D01*
X7756502Y8212799D01*
X7756504Y8212797D01*
X7756506Y8212795D01*
X7875469Y8107402D01*
X7875471Y8107401D01*
X8016207Y8033537D01*
X8072131Y8019753D01*
X8170528Y7995500D01*
X8170529Y7995500D01*
X8329472Y7995500D01*
X8380911Y8008179D01*
X8483793Y8033537D01*
X8624529Y8107401D01*
X8743498Y8212799D01*
X8833787Y8343605D01*
X8890149Y8492218D01*
X8903236Y8600001D01*
X39840693Y8600001D01*
X39840693Y8600000D01*
X39859850Y8442219D01*
X39916214Y8293603D01*
X39946311Y8250000D01*
X40006502Y8162799D01*
X40006504Y8162797D01*
X40006506Y8162795D01*
X40125469Y8057402D01*
X40125471Y8057401D01*
X40266207Y7983537D01*
X40322407Y7969685D01*
X40420528Y7945500D01*
X40478628Y7945500D01*
X40545667Y7925815D01*
X40591422Y7873011D01*
X40601366Y7803853D01*
X40577895Y7747189D01*
X40536646Y7692089D01*
X40536645Y7692087D01*
X40486403Y7557380D01*
X40486401Y7557373D01*
X40480000Y7497845D01*
X40480000Y7200000D01*
X42230000Y7200000D01*
X42730000Y7200000D01*
X44480000Y7200000D01*
X44480000Y7497828D01*
X44479999Y7497845D01*
X45520000Y7497845D01*
X45520000Y7200000D01*
X47270000Y7200000D01*
X47270000Y7950000D01*
X45972155Y7950000D01*
X45912627Y7943599D01*
X45912620Y7943597D01*
X45777913Y7893355D01*
X45777906Y7893351D01*
X45662812Y7807191D01*
X45662809Y7807188D01*
X45576649Y7692094D01*
X45576645Y7692087D01*
X45526403Y7557380D01*
X45526401Y7557373D01*
X45520000Y7497845D01*
X44479999Y7497845D01*
X44473598Y7557373D01*
X44473596Y7557380D01*
X44423354Y7692087D01*
X44423350Y7692094D01*
X44337190Y7807188D01*
X44337187Y7807191D01*
X44222093Y7893351D01*
X44222086Y7893355D01*
X44087379Y7943597D01*
X44087372Y7943599D01*
X44027844Y7950000D01*
X42730000Y7950000D01*
X42730000Y7200000D01*
X42230000Y7200000D01*
X42230000Y7950000D01*
X41080259Y7950000D01*
X41013220Y7969685D01*
X40967465Y8022489D01*
X40957521Y8091647D01*
X40986546Y8155203D01*
X40988677Y8157359D01*
X40993493Y8162795D01*
X40993498Y8162799D01*
X41083787Y8293605D01*
X41140149Y8442218D01*
X41159307Y8600000D01*
X41159307Y8600001D01*
X41159307Y8606607D01*
X41178992Y8673646D01*
X41195626Y8694288D01*
X41200520Y8699182D01*
X41261843Y8732667D01*
X41288201Y8735501D01*
X44005064Y8735501D01*
X44005066Y8735501D01*
X44079301Y8750266D01*
X44163484Y8806516D01*
X44219734Y8890699D01*
X44234500Y8964933D01*
X44234499Y10000001D01*
X45090693Y10000001D01*
X45090693Y10000000D01*
X45109850Y9842219D01*
X45148618Y9740000D01*
X45166213Y9693605D01*
X45256502Y9562799D01*
X45256504Y9562797D01*
X45256506Y9562795D01*
X45375469Y9457402D01*
X45375471Y9457401D01*
X45516207Y9383537D01*
X45670529Y9345500D01*
X45670531Y9345500D01*
X45671176Y9345341D01*
X45731556Y9310185D01*
X45763345Y9247966D01*
X45765501Y9224944D01*
X45765501Y8964934D01*
X45777144Y8906398D01*
X45780266Y8890699D01*
X45836515Y8806516D01*
X45857344Y8792599D01*
X45920699Y8750266D01*
X45920702Y8750266D01*
X45920703Y8750265D01*
X45945666Y8745300D01*
X45994933Y8735500D01*
X49045066Y8735501D01*
X49119301Y8750266D01*
X49203484Y8806516D01*
X49259734Y8890699D01*
X49274500Y8964933D01*
X49274499Y10015066D01*
X49259734Y10089301D01*
X49211316Y10161763D01*
X49203484Y10173485D01*
X49153019Y10207204D01*
X49119301Y10229734D01*
X49119299Y10229735D01*
X49119296Y10229736D01*
X49045071Y10244500D01*
X49045067Y10244500D01*
X47318201Y10244500D01*
X47251162Y10264185D01*
X47230520Y10280819D01*
X47227669Y10283670D01*
X47227668Y10283671D01*
X47146832Y10330341D01*
X47146833Y10330341D01*
X47116778Y10338394D01*
X47056671Y10354500D01*
X47056669Y10354500D01*
X46365662Y10354500D01*
X46298623Y10374185D01*
X46263613Y10408059D01*
X46243498Y10437201D01*
X46243494Y10437205D01*
X46243493Y10437206D01*
X46124530Y10542599D01*
X45983791Y10616464D01*
X45829472Y10654500D01*
X45829471Y10654500D01*
X45670529Y10654500D01*
X45670528Y10654500D01*
X45516208Y10616464D01*
X45375469Y10542599D01*
X45256506Y10437206D01*
X45256500Y10437199D01*
X45166214Y10306398D01*
X45109850Y10157782D01*
X45090693Y10000001D01*
X44234499Y10000001D01*
X44234499Y10015066D01*
X44219734Y10089301D01*
X44171316Y10161763D01*
X44163484Y10173485D01*
X44113019Y10207204D01*
X44079301Y10229734D01*
X44079299Y10229735D01*
X44079296Y10229736D01*
X44005069Y10244500D01*
X40954936Y10244500D01*
X40880698Y10229734D01*
X40796515Y10173485D01*
X40740266Y10089301D01*
X40740264Y10089297D01*
X40725500Y10015072D01*
X40725500Y9376737D01*
X40705815Y9309698D01*
X40653011Y9263943D01*
X40586562Y9253640D01*
X40579475Y9254500D01*
X40579471Y9254500D01*
X40420529Y9254500D01*
X40420528Y9254500D01*
X40266208Y9216464D01*
X40125469Y9142599D01*
X40006506Y9037206D01*
X40006500Y9037199D01*
X39916214Y8906398D01*
X39859850Y8757782D01*
X39840693Y8600001D01*
X8903236Y8600001D01*
X8906447Y8626448D01*
X8934069Y8690625D01*
X8992003Y8729682D01*
X9029543Y8735501D01*
X9045064Y8735501D01*
X9045066Y8735501D01*
X9119301Y8750266D01*
X9203484Y8806516D01*
X9259734Y8890699D01*
X9274500Y8964933D01*
X9274499Y10015066D01*
X9259734Y10089301D01*
X9211316Y10161763D01*
X9203484Y10173485D01*
X9153019Y10207204D01*
X9119301Y10229734D01*
X9119299Y10229735D01*
X9119296Y10229736D01*
X9045069Y10244500D01*
X5994936Y10244500D01*
X5920698Y10229734D01*
X5836515Y10173485D01*
X5780266Y10089301D01*
X5780264Y10089297D01*
X5765500Y10015072D01*
X5765500Y8964937D01*
X5765501Y8964934D01*
X5769556Y8944543D01*
X5763328Y8874952D01*
X5720465Y8819775D01*
X5654575Y8796532D01*
X5590314Y8810557D01*
X5483791Y8866464D01*
X5329472Y8904500D01*
X5329471Y8904500D01*
X5170529Y8904500D01*
X5170528Y8904500D01*
X5016208Y8866464D01*
X4875469Y8792599D01*
X4756506Y8687206D01*
X4756500Y8687199D01*
X4666214Y8556398D01*
X4609850Y8407782D01*
X4590693Y8250001D01*
X4590693Y8250000D01*
X4595562Y8209899D01*
X4584101Y8140976D01*
X4537197Y8089190D01*
X4469742Y8070983D01*
X4457531Y8071856D01*
X4455825Y8072063D01*
X4455816Y8072063D01*
X4296874Y8072063D01*
X4296873Y8072063D01*
X4142553Y8034027D01*
X4001814Y7960162D01*
X3882851Y7854769D01*
X3882847Y7854764D01*
X3862732Y7825623D01*
X3808451Y7781633D01*
X3760683Y7772063D01*
X2900892Y7772063D01*
X2855811Y7759984D01*
X2810729Y7747904D01*
X2810726Y7747902D01*
X2769255Y7723959D01*
X2769249Y7723955D01*
X2764317Y7721108D01*
X2702325Y7704500D01*
X954936Y7704500D01*
X880698Y7689734D01*
X796515Y7633485D01*
X740266Y7549301D01*
X740264Y7549297D01*
X725500Y7475072D01*
X725500Y6424937D01*
X740266Y6350699D01*
X796515Y6266516D01*
X815515Y6253821D01*
X880699Y6210266D01*
X880702Y6210266D01*
X880703Y6210265D01*
X892538Y6207911D01*
X954933Y6195500D01*
X4005066Y6195501D01*
X4079301Y6210266D01*
X4163484Y6266516D01*
X4219734Y6350699D01*
X4234500Y6424933D01*
X4234499Y6639064D01*
X4254183Y6706102D01*
X4306987Y6751857D01*
X4358499Y6763063D01*
X4455817Y6763063D01*
X4532977Y6782082D01*
X4610138Y6801100D01*
X4663874Y6829304D01*
X4732382Y6843029D01*
X4797436Y6817536D01*
X4838380Y6760921D01*
X4845500Y6719507D01*
X4845500Y6573253D01*
X4845500Y6466747D01*
X4873066Y6363869D01*
X4926320Y6271631D01*
X4926322Y6271629D01*
X5304374Y5893577D01*
X5337859Y5832254D01*
X5340693Y5805896D01*
X5340693Y5800000D01*
X5359850Y5642219D01*
X5416214Y5493603D01*
X5473921Y5410000D01*
X5506502Y5362799D01*
X5558049Y5317132D01*
X5595175Y5257944D01*
X5594407Y5188079D01*
X5580268Y5160211D01*
X5580895Y5159868D01*
X5576645Y5152087D01*
X5526403Y5017380D01*
X5526401Y5017373D01*
X5520000Y4957845D01*
X5520000Y4660000D01*
X9520000Y4660000D01*
X9520000Y4957828D01*
X9519999Y4957845D01*
X9513598Y5017373D01*
X9513596Y5017380D01*
X9463354Y5152087D01*
X9459103Y5159872D01*
X9461751Y5161319D01*
X9442604Y5212650D01*
X9457454Y5280924D01*
X9506858Y5330330D01*
X9566288Y5345500D01*
X40764911Y5345500D01*
X40831950Y5325815D01*
X40877705Y5273011D01*
X40887649Y5203853D01*
X40858624Y5140297D01*
X40833802Y5118398D01*
X40796515Y5093485D01*
X40741024Y5010436D01*
X40687411Y4965631D01*
X40618086Y4956924D01*
X40608249Y4958930D01*
X40579474Y4966022D01*
X40579471Y4966022D01*
X40420529Y4966022D01*
X40420528Y4966022D01*
X40266208Y4927986D01*
X40125469Y4854121D01*
X40006506Y4748728D01*
X40006500Y4748721D01*
X39916214Y4617920D01*
X39859850Y4469304D01*
X39840693Y4311523D01*
X39840693Y4311522D01*
X39859850Y4153741D01*
X39900427Y4046749D01*
X39916213Y4005127D01*
X40006502Y3874321D01*
X40006504Y3874319D01*
X40006506Y3874317D01*
X40125469Y3768924D01*
X40125471Y3768923D01*
X40266207Y3695059D01*
X40320841Y3681593D01*
X40420528Y3657022D01*
X40420529Y3657022D01*
X40579472Y3657022D01*
X40648280Y3673982D01*
X40733793Y3695059D01*
X40733795Y3695060D01*
X40740805Y3697718D01*
X40741676Y3695420D01*
X40798544Y3706816D01*
X40856558Y3686396D01*
X40880696Y3670268D01*
X40880699Y3670266D01*
X40880702Y3670266D01*
X40880703Y3670265D01*
X40905666Y3665300D01*
X40954933Y3655500D01*
X43887231Y3655501D01*
X43954270Y3635816D01*
X44000025Y3583012D01*
X44009969Y3513854D01*
X44005892Y3495506D01*
X43960757Y3346717D01*
X43940398Y3140001D01*
X43953581Y3006154D01*
X43940562Y2937508D01*
X43892497Y2886798D01*
X43830178Y2870000D01*
X42730000Y2870000D01*
X42730000Y2120000D01*
X44479999Y2120000D01*
X44485595Y2125596D01*
X44546917Y2159082D01*
X44609269Y2156578D01*
X44793282Y2100758D01*
X45000000Y2080398D01*
X45206718Y2100758D01*
X45390729Y2156578D01*
X45460593Y2157200D01*
X45514403Y2125597D01*
X45520000Y2120000D01*
X47270000Y2120000D01*
X47270000Y2870000D01*
X46169822Y2870000D01*
X46102783Y2889685D01*
X46057028Y2942489D01*
X46046419Y3006154D01*
X46059602Y3140000D01*
X46039242Y3346718D01*
X45994106Y3495510D01*
X45993484Y3565372D01*
X46030732Y3624485D01*
X46094026Y3654076D01*
X46112755Y3655501D01*
X49045066Y3655501D01*
X49119301Y3670266D01*
X49203484Y3726516D01*
X49259734Y3810699D01*
X49274500Y3884933D01*
X49274499Y4935066D01*
X49259734Y5009301D01*
X49211316Y5081763D01*
X49203484Y5093485D01*
X49154497Y5126217D01*
X49109692Y5179830D01*
X49100985Y5249155D01*
X49131140Y5312182D01*
X49141161Y5322134D01*
X49145316Y5325815D01*
X49243498Y5412797D01*
X49333787Y5543603D01*
X49390149Y5692216D01*
X49409307Y5849998D01*
X49390149Y6007780D01*
X49388554Y6011984D01*
X49383185Y6081644D01*
X49405229Y6130269D01*
X49463352Y6207911D01*
X49466668Y6213982D01*
X49516074Y6263387D01*
X49584347Y6278238D01*
X49649811Y6253821D01*
X49691682Y6197887D01*
X49699500Y6154554D01*
X49699500Y2665447D01*
X49679815Y2598408D01*
X49627011Y2552653D01*
X49557853Y2542709D01*
X49494297Y2571734D01*
X49466670Y2606016D01*
X49463352Y2612091D01*
X49377190Y2727188D01*
X49377187Y2727191D01*
X49262093Y2813351D01*
X49262086Y2813355D01*
X49127379Y2863597D01*
X49127372Y2863599D01*
X49067844Y2870000D01*
X47770000Y2870000D01*
X47770000Y1744000D01*
X47750315Y1676961D01*
X47697511Y1631206D01*
X47646000Y1620000D01*
X45520000Y1620000D01*
X45520000Y1322161D01*
X45523270Y1291758D01*
X45510866Y1222998D01*
X45463257Y1171860D01*
X45399981Y1154500D01*
X44600019Y1154500D01*
X44532980Y1174185D01*
X44487225Y1226989D01*
X44476730Y1291758D01*
X44479999Y1322161D01*
X44480000Y1322173D01*
X44480000Y1620000D01*
X40480000Y1620000D01*
X40480000Y1322161D01*
X40483270Y1291758D01*
X40470866Y1222998D01*
X40423257Y1171860D01*
X40359981Y1154500D01*
X31568911Y1154500D01*
X31501872Y1174185D01*
X31481230Y1190819D01*
X30254204Y2417845D01*
X40480000Y2417845D01*
X40480000Y2120000D01*
X42230000Y2120000D01*
X42230000Y2870000D01*
X40932155Y2870000D01*
X40872627Y2863599D01*
X40872620Y2863597D01*
X40737913Y2813355D01*
X40737906Y2813351D01*
X40622812Y2727191D01*
X40622809Y2727188D01*
X40536649Y2612094D01*
X40536645Y2612087D01*
X40486403Y2477380D01*
X40486401Y2477373D01*
X40480000Y2417845D01*
X30254204Y2417845D01*
X29398371Y3273678D01*
X29398369Y3273680D01*
X29306131Y3326934D01*
X29203253Y3354500D01*
X15803253Y3354500D01*
X15696747Y3354500D01*
X15593868Y3326934D01*
X15501631Y3273680D01*
X15501628Y3273678D01*
X13118770Y890819D01*
X13057447Y857334D01*
X13031089Y854500D01*
X11021474Y854500D01*
X10954435Y874185D01*
X10908680Y926989D01*
X10898736Y996147D01*
X10905532Y1022471D01*
X10912734Y1041462D01*
X10920480Y1061887D01*
X10939638Y1219669D01*
X10924428Y1344932D01*
X10920480Y1377451D01*
X10910705Y1403226D01*
X10864118Y1526064D01*
X10773829Y1656870D01*
X10773826Y1656873D01*
X10773824Y1656875D01*
X10654861Y1762268D01*
X10514122Y1836133D01*
X10359803Y1874169D01*
X10359802Y1874169D01*
X10200860Y1874169D01*
X10200858Y1874169D01*
X10195078Y1873467D01*
X10126155Y1884931D01*
X10092456Y1908883D01*
X9847669Y2153670D01*
X9847668Y2153671D01*
X9766832Y2200341D01*
X9766833Y2200341D01*
X9736778Y2208394D01*
X9676671Y2224500D01*
X9676669Y2224500D01*
X9398499Y2224500D01*
X9331460Y2244185D01*
X9285705Y2296989D01*
X9274499Y2348500D01*
X9274499Y2395064D01*
X9274499Y2395066D01*
X9259734Y2469301D01*
X9218394Y2531170D01*
X9203484Y2553485D01*
X9136251Y2598408D01*
X9119301Y2609734D01*
X9119299Y2609735D01*
X9119296Y2609736D01*
X9045071Y2624500D01*
X6112768Y2624500D01*
X6045729Y2644185D01*
X5999974Y2696989D01*
X5990030Y2766147D01*
X5994108Y2784495D01*
X6039242Y2933282D01*
X6059602Y3140000D01*
X6046419Y3273847D01*
X6059438Y3342492D01*
X6107503Y3393202D01*
X6169822Y3410000D01*
X7270000Y3410000D01*
X7770000Y3410000D01*
X9067828Y3410000D01*
X9067844Y3410001D01*
X9127372Y3416402D01*
X9127379Y3416404D01*
X9262086Y3466646D01*
X9262093Y3466650D01*
X9377187Y3552810D01*
X9377190Y3552813D01*
X9463350Y3667907D01*
X9463354Y3667914D01*
X9513596Y3802621D01*
X9513598Y3802628D01*
X9519999Y3862156D01*
X9520000Y3862173D01*
X9520000Y4160000D01*
X7770000Y4160000D01*
X7770000Y3410000D01*
X7270000Y3410000D01*
X7270000Y4160000D01*
X5519999Y4160000D01*
X5514402Y4154403D01*
X5453079Y4120918D01*
X5390727Y4123424D01*
X5206716Y4179243D01*
X5000000Y4199602D01*
X4793283Y4179243D01*
X4609272Y4123424D01*
X4539405Y4122801D01*
X4485596Y4154404D01*
X4480000Y4160000D01*
X2730000Y4160000D01*
X2730000Y3410000D01*
X3830178Y3410000D01*
X3897217Y3390315D01*
X3942972Y3337511D01*
X3953580Y3273848D01*
X3953564Y3273678D01*
X3940398Y3140000D01*
X3960757Y2933284D01*
X3987059Y2846578D01*
X4005891Y2784496D01*
X4005892Y2784495D01*
X4006515Y2714628D01*
X3969267Y2655515D01*
X3905973Y2625924D01*
X3887231Y2624500D01*
X954936Y2624500D01*
X880698Y2609734D01*
X796515Y2553485D01*
X740266Y2469301D01*
X740264Y2469297D01*
X725500Y2395072D01*
X725500Y1670968D01*
X705815Y1603929D01*
X653011Y1558174D01*
X583853Y1548230D01*
X520297Y1577255D01*
X488424Y1620077D01*
X483415Y1631206D01*
X446507Y1713215D01*
X441199Y1727212D01*
X428586Y1767687D01*
X366644Y1966464D01*
X363061Y1981002D01*
X359722Y1999224D01*
X317888Y2227505D01*
X316084Y2242365D01*
X315912Y2245202D01*
X300726Y2496264D01*
X300500Y2503751D01*
X300500Y3614554D01*
X320185Y3681593D01*
X372989Y3727348D01*
X442147Y3737292D01*
X505703Y3708267D01*
X533332Y3673982D01*
X536649Y3667907D01*
X622809Y3552813D01*
X622812Y3552810D01*
X737906Y3466650D01*
X737913Y3466646D01*
X872620Y3416404D01*
X872627Y3416402D01*
X932155Y3410001D01*
X932172Y3410000D01*
X2230000Y3410000D01*
X2230000Y4660000D01*
X2730000Y4660000D01*
X4480000Y4660000D01*
X4480000Y4957828D01*
X4479999Y4957845D01*
X4473598Y5017373D01*
X4473596Y5017380D01*
X4423354Y5152087D01*
X4423350Y5152094D01*
X4337190Y5267188D01*
X4337187Y5267191D01*
X4222093Y5353351D01*
X4222086Y5353355D01*
X4087379Y5403597D01*
X4087372Y5403599D01*
X4027844Y5410000D01*
X2730000Y5410000D01*
X2730000Y4660000D01*
X2230000Y4660000D01*
X2230000Y5410000D01*
X932155Y5410000D01*
X872627Y5403599D01*
X872620Y5403597D01*
X737913Y5353355D01*
X737906Y5353351D01*
X622812Y5267191D01*
X622809Y5267188D01*
X536647Y5152091D01*
X533330Y5146016D01*
X483923Y5096613D01*
X415649Y5081763D01*
X350186Y5106183D01*
X308317Y5162118D01*
X300500Y5205447D01*
X300500Y8694554D01*
X320185Y8761593D01*
X372989Y8807348D01*
X442147Y8817292D01*
X505703Y8788267D01*
X533332Y8753982D01*
X536649Y8747907D01*
X622809Y8632813D01*
X622812Y8632810D01*
X737906Y8546650D01*
X737913Y8546646D01*
X872620Y8496404D01*
X872627Y8496402D01*
X932155Y8490001D01*
X932172Y8490000D01*
X2230000Y8490000D01*
X2730000Y8490000D01*
X4027828Y8490000D01*
X4027844Y8490001D01*
X4087372Y8496402D01*
X4087379Y8496404D01*
X4222086Y8546646D01*
X4222093Y8546650D01*
X4337187Y8632810D01*
X4337190Y8632813D01*
X4423350Y8747907D01*
X4423354Y8747914D01*
X4473596Y8882621D01*
X4473598Y8882628D01*
X4479999Y8942156D01*
X4480000Y8942173D01*
X4480000Y9240000D01*
X2730000Y9240000D01*
X2730000Y8490000D01*
X2230000Y8490000D01*
X2230000Y9740000D01*
X2730000Y9740000D01*
X4480000Y9740000D01*
X4480000Y10037828D01*
X4479999Y10037845D01*
X4473598Y10097373D01*
X4473596Y10097380D01*
X4423354Y10232087D01*
X4423350Y10232094D01*
X4337190Y10347188D01*
X4337187Y10347191D01*
X4222093Y10433351D01*
X4222086Y10433355D01*
X4087379Y10483597D01*
X4087372Y10483599D01*
X4027844Y10490000D01*
X2730000Y10490000D01*
X2730000Y9740000D01*
X2230000Y9740000D01*
X2230000Y10490000D01*
X932155Y10490000D01*
X872627Y10483599D01*
X872620Y10483597D01*
X737913Y10433355D01*
X737906Y10433351D01*
X622812Y10347191D01*
X622809Y10347188D01*
X536647Y10232091D01*
X533330Y10226016D01*
X483923Y10176613D01*
X415649Y10161763D01*
X350186Y10186183D01*
X308317Y10242118D01*
X300500Y10285447D01*
X300500Y11234554D01*
X320185Y11301593D01*
X372989Y11347348D01*
X442147Y11357292D01*
X505703Y11328267D01*
X533332Y11293982D01*
X536649Y11287907D01*
X622809Y11172813D01*
X622812Y11172810D01*
X737906Y11086650D01*
X737913Y11086646D01*
X872620Y11036404D01*
X872627Y11036402D01*
X932155Y11030001D01*
X932172Y11030000D01*
X2230000Y11030000D01*
X2730000Y11030000D01*
X4027828Y11030000D01*
X4027844Y11030001D01*
X4087372Y11036402D01*
X4087379Y11036404D01*
X4222086Y11086646D01*
X4222093Y11086650D01*
X4337187Y11172810D01*
X4337190Y11172813D01*
X4423350Y11287907D01*
X4423354Y11287914D01*
X4473596Y11422621D01*
X4473598Y11422628D01*
X4479999Y11482156D01*
X5520000Y11482156D01*
X5526401Y11422628D01*
X5526403Y11422621D01*
X5576645Y11287914D01*
X5576649Y11287907D01*
X5662809Y11172813D01*
X5662812Y11172810D01*
X5777906Y11086650D01*
X5777913Y11086646D01*
X5912620Y11036404D01*
X5912627Y11036402D01*
X5972155Y11030001D01*
X5972172Y11030000D01*
X7270000Y11030000D01*
X7770000Y11030000D01*
X9067828Y11030000D01*
X9067844Y11030001D01*
X9127372Y11036402D01*
X9127379Y11036404D01*
X9262086Y11086646D01*
X9262093Y11086650D01*
X9377187Y11172810D01*
X9377190Y11172813D01*
X9463350Y11287907D01*
X9463354Y11287914D01*
X9513596Y11422621D01*
X9513598Y11422628D01*
X9519999Y11482156D01*
X9520000Y11482173D01*
X9520000Y11500001D01*
X39840693Y11500001D01*
X39840693Y11500000D01*
X39859850Y11342219D01*
X39916214Y11193603D01*
X39956023Y11135930D01*
X40006502Y11062799D01*
X40006504Y11062797D01*
X40006506Y11062795D01*
X40125469Y10957402D01*
X40125471Y10957401D01*
X40266207Y10883537D01*
X40343368Y10864519D01*
X40420528Y10845500D01*
X40420529Y10845500D01*
X40579472Y10845500D01*
X40630911Y10858179D01*
X40733793Y10883537D01*
X40874529Y10957401D01*
X40993498Y11062799D01*
X41013612Y11091941D01*
X41067894Y11135930D01*
X41115662Y11145500D01*
X41146669Y11145500D01*
X41146671Y11145500D01*
X41236832Y11169659D01*
X41317668Y11216329D01*
X41340520Y11239182D01*
X41401842Y11272667D01*
X41428202Y11275501D01*
X44005064Y11275501D01*
X44005066Y11275501D01*
X44079301Y11290266D01*
X44163484Y11346516D01*
X44219734Y11430699D01*
X44234500Y11504933D01*
X44234500Y12000001D01*
X44840693Y12000001D01*
X44840693Y12000000D01*
X44859850Y11842219D01*
X44873437Y11806395D01*
X44916213Y11693605D01*
X45006502Y11562799D01*
X45006504Y11562797D01*
X45006506Y11562795D01*
X45125469Y11457402D01*
X45125471Y11457401D01*
X45266207Y11383537D01*
X45343368Y11364519D01*
X45420528Y11345500D01*
X45420529Y11345500D01*
X45579472Y11345500D01*
X45718599Y11379792D01*
X45788401Y11376723D01*
X45826246Y11353129D01*
X45826361Y11353301D01*
X45831808Y11349661D01*
X45835955Y11347076D01*
X45836514Y11346517D01*
X45842948Y11342218D01*
X45920699Y11290266D01*
X45920702Y11290266D01*
X45920703Y11290265D01*
X45945666Y11285300D01*
X45994933Y11275500D01*
X49045066Y11275501D01*
X49119301Y11290266D01*
X49203484Y11346516D01*
X49259734Y11430699D01*
X49274500Y11504933D01*
X49274499Y12555066D01*
X49259734Y12629301D01*
X49211316Y12701763D01*
X49203484Y12713485D01*
X49153019Y12747204D01*
X49119301Y12769734D01*
X49119299Y12769735D01*
X49119296Y12769736D01*
X49045069Y12784500D01*
X45994936Y12784500D01*
X45920698Y12769734D01*
X45836515Y12713485D01*
X45814652Y12680764D01*
X45761039Y12635960D01*
X45691714Y12627254D01*
X45681876Y12629260D01*
X45579472Y12654500D01*
X45579471Y12654500D01*
X45420529Y12654500D01*
X45420528Y12654500D01*
X45266208Y12616464D01*
X45125469Y12542599D01*
X45006506Y12437206D01*
X45006500Y12437199D01*
X44916214Y12306398D01*
X44859850Y12157782D01*
X44840693Y12000001D01*
X44234500Y12000001D01*
X44234499Y12555066D01*
X44219734Y12629301D01*
X44171316Y12701763D01*
X44163484Y12713485D01*
X44113019Y12747204D01*
X44079301Y12769734D01*
X44079299Y12769735D01*
X44079296Y12769736D01*
X44005069Y12784500D01*
X40954936Y12784500D01*
X40880698Y12769734D01*
X40796515Y12713485D01*
X40740266Y12629301D01*
X40740264Y12629297D01*
X40725500Y12555072D01*
X40725500Y12276737D01*
X40705815Y12209698D01*
X40653011Y12163943D01*
X40586562Y12153640D01*
X40579475Y12154500D01*
X40579471Y12154500D01*
X40420529Y12154500D01*
X40420528Y12154500D01*
X40266208Y12116464D01*
X40125469Y12042599D01*
X40006506Y11937206D01*
X40006500Y11937199D01*
X39916214Y11806398D01*
X39859850Y11657782D01*
X39840693Y11500001D01*
X9520000Y11500001D01*
X9520000Y11780000D01*
X7770000Y11780000D01*
X7770000Y11030000D01*
X7270000Y11030000D01*
X7270000Y11780000D01*
X5520000Y11780000D01*
X5520000Y11482156D01*
X4479999Y11482156D01*
X4480000Y11482173D01*
X4480000Y11780000D01*
X2730000Y11780000D01*
X2730000Y11030000D01*
X2230000Y11030000D01*
X2230000Y12280000D01*
X2730000Y12280000D01*
X4480000Y12280000D01*
X4480000Y12577828D01*
X4479999Y12577845D01*
X5520000Y12577845D01*
X5520000Y12280000D01*
X7270000Y12280000D01*
X7770000Y12280000D01*
X9520000Y12280000D01*
X9520000Y12577828D01*
X9519999Y12577845D01*
X9513598Y12637373D01*
X9513596Y12637380D01*
X9463354Y12772087D01*
X9463350Y12772094D01*
X9377190Y12887188D01*
X9377187Y12887191D01*
X9262093Y12973351D01*
X9262086Y12973355D01*
X9127379Y13023597D01*
X9127372Y13023599D01*
X9067844Y13030000D01*
X7770000Y13030000D01*
X7770000Y12280000D01*
X7270000Y12280000D01*
X7270000Y13030000D01*
X5972155Y13030000D01*
X5912627Y13023599D01*
X5912620Y13023597D01*
X5777913Y12973355D01*
X5777906Y12973351D01*
X5662812Y12887191D01*
X5662809Y12887188D01*
X5576649Y12772094D01*
X5576645Y12772087D01*
X5526403Y12637380D01*
X5526401Y12637373D01*
X5520000Y12577845D01*
X4479999Y12577845D01*
X4473598Y12637373D01*
X4473596Y12637380D01*
X4423354Y12772087D01*
X4423350Y12772094D01*
X4337190Y12887188D01*
X4337187Y12887191D01*
X4222093Y12973351D01*
X4222086Y12973355D01*
X4087379Y13023597D01*
X4087372Y13023599D01*
X4027844Y13030000D01*
X2730000Y13030000D01*
X2730000Y12280000D01*
X2230000Y12280000D01*
X2230000Y13030000D01*
X932155Y13030000D01*
X872627Y13023599D01*
X872620Y13023597D01*
X737913Y12973355D01*
X737906Y12973351D01*
X622812Y12887191D01*
X622809Y12887188D01*
X536647Y12772091D01*
X533330Y12766016D01*
X483923Y12716613D01*
X415649Y12701763D01*
X350186Y12726183D01*
X308317Y12782118D01*
X300500Y12825447D01*
X300500Y13774554D01*
X320185Y13841593D01*
X372989Y13887348D01*
X442147Y13897292D01*
X505703Y13868267D01*
X533332Y13833982D01*
X536649Y13827907D01*
X622809Y13712813D01*
X622812Y13712810D01*
X737906Y13626650D01*
X737913Y13626646D01*
X872620Y13576404D01*
X872627Y13576402D01*
X932155Y13570001D01*
X932172Y13570000D01*
X2230000Y13570000D01*
X2730000Y13570000D01*
X4027828Y13570000D01*
X4027844Y13570001D01*
X4087372Y13576402D01*
X4087379Y13576404D01*
X4222086Y13626646D01*
X4222093Y13626650D01*
X4337187Y13712810D01*
X4337190Y13712813D01*
X4423350Y13827907D01*
X4423354Y13827914D01*
X4473596Y13962621D01*
X4473598Y13962628D01*
X4477617Y14000001D01*
X5090693Y14000001D01*
X5090693Y14000000D01*
X5109850Y13842219D01*
X5135513Y13774554D01*
X5158929Y13712810D01*
X5166214Y13693603D01*
X5236388Y13591939D01*
X5256502Y13562799D01*
X5256504Y13562797D01*
X5256506Y13562795D01*
X5375469Y13457402D01*
X5375471Y13457401D01*
X5516207Y13383537D01*
X5593368Y13364519D01*
X5670528Y13345500D01*
X5670529Y13345500D01*
X5829472Y13345500D01*
X5880911Y13358179D01*
X5983793Y13383537D01*
X6124529Y13457401D01*
X6243498Y13562799D01*
X6263612Y13591941D01*
X6317894Y13635930D01*
X6365662Y13645500D01*
X6996669Y13645500D01*
X6996671Y13645500D01*
X7086832Y13669659D01*
X7167668Y13716329D01*
X7230520Y13779183D01*
X7291843Y13812667D01*
X7318202Y13815501D01*
X9045064Y13815501D01*
X9045066Y13815501D01*
X9119301Y13830266D01*
X9203484Y13886516D01*
X9259734Y13970699D01*
X9274500Y14044933D01*
X9274499Y15095066D01*
X9259734Y15169301D01*
X9241068Y15197235D01*
X9238400Y15201228D01*
X39735218Y15201228D01*
X39735218Y15201227D01*
X39754375Y15043446D01*
X39794952Y14936454D01*
X39810738Y14894832D01*
X39901027Y14764026D01*
X39901029Y14764024D01*
X39901031Y14764022D01*
X40019994Y14658629D01*
X40019996Y14658628D01*
X40160732Y14584764D01*
X40237893Y14565746D01*
X40315053Y14546727D01*
X40356000Y14546727D01*
X40423039Y14527042D01*
X40468794Y14474238D01*
X40480000Y14422727D01*
X40480000Y14022156D01*
X40486401Y13962628D01*
X40486403Y13962621D01*
X40536645Y13827914D01*
X40536649Y13827907D01*
X40622809Y13712813D01*
X40622812Y13712810D01*
X40737906Y13626650D01*
X40737913Y13626646D01*
X40872620Y13576404D01*
X40872627Y13576402D01*
X40932155Y13570001D01*
X40932172Y13570000D01*
X42230000Y13570000D01*
X42730000Y13570000D01*
X44027828Y13570000D01*
X44027844Y13570001D01*
X44087372Y13576402D01*
X44087379Y13576404D01*
X44222086Y13626646D01*
X44222093Y13626650D01*
X44337187Y13712810D01*
X44337190Y13712813D01*
X44423350Y13827907D01*
X44423354Y13827914D01*
X44473596Y13962621D01*
X44473598Y13962628D01*
X44479999Y14022156D01*
X45520000Y14022156D01*
X45526401Y13962628D01*
X45526403Y13962621D01*
X45576645Y13827914D01*
X45576649Y13827907D01*
X45662809Y13712813D01*
X45662812Y13712810D01*
X45777906Y13626650D01*
X45777913Y13626646D01*
X45912620Y13576404D01*
X45912627Y13576402D01*
X45972155Y13570001D01*
X45972172Y13570000D01*
X47270000Y13570000D01*
X47270000Y14320000D01*
X45520000Y14320000D01*
X45520000Y14022156D01*
X44479999Y14022156D01*
X44480000Y14022173D01*
X44480000Y14320000D01*
X42730000Y14320000D01*
X42730000Y13570000D01*
X42230000Y13570000D01*
X42230000Y14820000D01*
X42730000Y14820000D01*
X44480000Y14820000D01*
X44480000Y15117828D01*
X44479999Y15117845D01*
X44473598Y15177373D01*
X44473596Y15177380D01*
X44423354Y15312087D01*
X44423350Y15312094D01*
X44337190Y15427188D01*
X44337187Y15427191D01*
X44222093Y15513351D01*
X44222086Y15513355D01*
X44087379Y15563597D01*
X44087372Y15563599D01*
X44027844Y15570000D01*
X42730000Y15570000D01*
X42730000Y14820000D01*
X42230000Y14820000D01*
X42230000Y15570000D01*
X41000336Y15570000D01*
X40933297Y15589685D01*
X40898287Y15623559D01*
X40888026Y15638424D01*
X40888024Y15638426D01*
X40888023Y15638428D01*
X40888020Y15638431D01*
X40888018Y15638433D01*
X40801961Y15714673D01*
X40764834Y15773862D01*
X40765602Y15843728D01*
X40796505Y15895167D01*
X41220520Y16319183D01*
X41281843Y16352667D01*
X41308201Y16355501D01*
X44005064Y16355501D01*
X44005066Y16355501D01*
X44079301Y16370266D01*
X44163484Y16426516D01*
X44219734Y16510699D01*
X44234500Y16584933D01*
X44234499Y17635066D01*
X44219734Y17709301D01*
X44171316Y17781763D01*
X44163484Y17793485D01*
X44113019Y17827204D01*
X44079301Y17849734D01*
X44079299Y17849735D01*
X44079296Y17849736D01*
X44005069Y17864500D01*
X40954936Y17864500D01*
X40880698Y17849734D01*
X40796515Y17793485D01*
X40740266Y17709301D01*
X40740264Y17709297D01*
X40725500Y17635072D01*
X40725500Y16878202D01*
X40705815Y16811163D01*
X40689181Y16790521D01*
X40176857Y16278196D01*
X40110855Y16212195D01*
X40110853Y16212192D01*
X40064184Y16131358D01*
X40040025Y16041195D01*
X40040025Y15817378D01*
X40020340Y15750339D01*
X39998253Y15724563D01*
X39901027Y15638429D01*
X39901025Y15638426D01*
X39810739Y15507625D01*
X39754375Y15359009D01*
X39735218Y15201228D01*
X9238400Y15201228D01*
X9203484Y15253485D01*
X9136251Y15298408D01*
X9119301Y15309734D01*
X9119299Y15309735D01*
X9119296Y15309736D01*
X9045071Y15324500D01*
X8006078Y15324500D01*
X7939039Y15344185D01*
X7893284Y15396989D01*
X7883340Y15466147D01*
X7912365Y15529703D01*
X7923839Y15541305D01*
X7943589Y15558801D01*
X8033878Y15689607D01*
X8090240Y15838220D01*
X8109398Y15996002D01*
X8107321Y16013112D01*
X8090240Y16153785D01*
X8077442Y16187530D01*
X8072075Y16257193D01*
X8105222Y16318699D01*
X8166360Y16352521D01*
X8193384Y16355501D01*
X9045064Y16355501D01*
X9045066Y16355501D01*
X9119301Y16370266D01*
X9203484Y16426516D01*
X9259734Y16510699D01*
X9274500Y16584933D01*
X9274499Y17635066D01*
X9259734Y17709301D01*
X9211316Y17781763D01*
X9203484Y17793485D01*
X9153019Y17827204D01*
X9119301Y17849734D01*
X9119299Y17849735D01*
X9119296Y17849736D01*
X9045069Y17864500D01*
X5994936Y17864500D01*
X5920698Y17849734D01*
X5836515Y17793485D01*
X5780266Y17709301D01*
X5780264Y17709297D01*
X5765500Y17635072D01*
X5765500Y16584937D01*
X5780266Y16510699D01*
X5836515Y16426516D01*
X5863827Y16408267D01*
X5920699Y16370266D01*
X5920702Y16370266D01*
X5920703Y16370265D01*
X5945666Y16365300D01*
X5994933Y16355500D01*
X6706798Y16355501D01*
X6773837Y16335817D01*
X6819592Y16283013D01*
X6829536Y16213854D01*
X6822740Y16187530D01*
X6809941Y16153785D01*
X6790784Y15996003D01*
X6790784Y15996002D01*
X6809941Y15838221D01*
X6866305Y15689605D01*
X6908485Y15628497D01*
X6956593Y15558801D01*
X6956595Y15558799D01*
X6956597Y15558797D01*
X6976330Y15541315D01*
X7013457Y15482126D01*
X7012689Y15412260D01*
X6974271Y15353901D01*
X6910401Y15325576D01*
X6894103Y15324500D01*
X5994936Y15324500D01*
X5920698Y15309734D01*
X5836515Y15253485D01*
X5780266Y15169301D01*
X5780264Y15169297D01*
X5765500Y15095072D01*
X5765500Y14775057D01*
X5745815Y14708018D01*
X5693011Y14662263D01*
X5671176Y14654660D01*
X5516208Y14616464D01*
X5375469Y14542599D01*
X5256506Y14437206D01*
X5256500Y14437199D01*
X5166214Y14306398D01*
X5109850Y14157782D01*
X5090693Y14000001D01*
X4477617Y14000001D01*
X4479999Y14022156D01*
X4480000Y14022173D01*
X4480000Y14320000D01*
X2730000Y14320000D01*
X2730000Y13570000D01*
X2230000Y13570000D01*
X2230000Y14820000D01*
X2730000Y14820000D01*
X4480000Y14820000D01*
X4480000Y15117828D01*
X4479999Y15117845D01*
X4473598Y15177373D01*
X4473596Y15177380D01*
X4423354Y15312087D01*
X4423350Y15312094D01*
X4337190Y15427188D01*
X4337187Y15427191D01*
X4222093Y15513351D01*
X4222086Y15513355D01*
X4087379Y15563597D01*
X4087372Y15563599D01*
X4027844Y15570000D01*
X2730000Y15570000D01*
X2730000Y14820000D01*
X2230000Y14820000D01*
X2230000Y15570000D01*
X932155Y15570000D01*
X872627Y15563599D01*
X872620Y15563597D01*
X737913Y15513355D01*
X737906Y15513351D01*
X622812Y15427191D01*
X622809Y15427188D01*
X536647Y15312091D01*
X533330Y15306016D01*
X483923Y15256613D01*
X415649Y15241763D01*
X350186Y15266183D01*
X308317Y15322118D01*
X300500Y15365447D01*
X300500Y16314554D01*
X320185Y16381593D01*
X372989Y16427348D01*
X442147Y16437292D01*
X505703Y16408267D01*
X533332Y16373982D01*
X536649Y16367907D01*
X622809Y16252813D01*
X622812Y16252810D01*
X737906Y16166650D01*
X737913Y16166646D01*
X872620Y16116404D01*
X872627Y16116402D01*
X932155Y16110001D01*
X932172Y16110000D01*
X2230000Y16110000D01*
X2730000Y16110000D01*
X4027828Y16110000D01*
X4027844Y16110001D01*
X4087372Y16116402D01*
X4087379Y16116404D01*
X4222086Y16166646D01*
X4222093Y16166650D01*
X4337187Y16252810D01*
X4337190Y16252813D01*
X4423350Y16367907D01*
X4423354Y16367914D01*
X4473596Y16502621D01*
X4473598Y16502628D01*
X4479999Y16562156D01*
X4480000Y16562173D01*
X4480000Y16860000D01*
X2730000Y16860000D01*
X2730000Y16110000D01*
X2230000Y16110000D01*
X2230000Y17360000D01*
X2730000Y17360000D01*
X4480000Y17360000D01*
X4480000Y17657828D01*
X4479999Y17657845D01*
X4473598Y17717373D01*
X4473596Y17717380D01*
X4423354Y17852087D01*
X4423350Y17852094D01*
X4337190Y17967188D01*
X4337187Y17967191D01*
X4222093Y18053351D01*
X4222086Y18053355D01*
X4087379Y18103597D01*
X4087372Y18103599D01*
X4027844Y18110000D01*
X2730000Y18110000D01*
X2730000Y17360000D01*
X2230000Y17360000D01*
X2230000Y18110000D01*
X932155Y18110000D01*
X872627Y18103599D01*
X872620Y18103597D01*
X737913Y18053355D01*
X737906Y18053351D01*
X622812Y17967191D01*
X622809Y17967188D01*
X536647Y17852091D01*
X533330Y17846016D01*
X483923Y17796613D01*
X415649Y17781763D01*
X350186Y17806183D01*
X308317Y17862118D01*
X300500Y17905447D01*
X300500Y18854554D01*
X320185Y18921593D01*
X372989Y18967348D01*
X442147Y18977292D01*
X505703Y18948267D01*
X533332Y18913982D01*
X536649Y18907907D01*
X622809Y18792813D01*
X622812Y18792810D01*
X737906Y18706650D01*
X737913Y18706646D01*
X872620Y18656404D01*
X872627Y18656402D01*
X932155Y18650001D01*
X932172Y18650000D01*
X2230000Y18650000D01*
X2730000Y18650000D01*
X4027828Y18650000D01*
X4027844Y18650001D01*
X4087372Y18656402D01*
X4087379Y18656404D01*
X4222086Y18706646D01*
X4222093Y18706650D01*
X4337187Y18792810D01*
X4337190Y18792813D01*
X4423350Y18907907D01*
X4423354Y18907914D01*
X4473596Y19042621D01*
X4473598Y19042628D01*
X4479999Y19102156D01*
X4480000Y19102173D01*
X4480000Y19400000D01*
X2730000Y19400000D01*
X2730000Y18650000D01*
X2230000Y18650000D01*
X2230000Y19750001D01*
X5090693Y19750001D01*
X5090693Y19750000D01*
X5109850Y19592219D01*
X5150427Y19485227D01*
X5166213Y19443605D01*
X5256502Y19312799D01*
X5256504Y19312797D01*
X5256506Y19312795D01*
X5375469Y19207402D01*
X5375471Y19207401D01*
X5516207Y19133537D01*
X5593368Y19114519D01*
X5670528Y19095500D01*
X5670529Y19095500D01*
X5684052Y19095500D01*
X5751091Y19075815D01*
X5787154Y19040391D01*
X5836515Y18966516D01*
X5863827Y18948267D01*
X5920699Y18910266D01*
X5920702Y18910266D01*
X5920703Y18910265D01*
X5945666Y18905300D01*
X5994933Y18895500D01*
X9045066Y18895501D01*
X9119301Y18910266D01*
X9203484Y18966516D01*
X9259734Y19050699D01*
X9274500Y19124933D01*
X9274499Y19750001D01*
X39810362Y19750001D01*
X39810362Y19750000D01*
X39829519Y19592219D01*
X39870096Y19485227D01*
X39885882Y19443605D01*
X39976171Y19312799D01*
X39976173Y19312797D01*
X39976175Y19312795D01*
X40095138Y19207402D01*
X40095140Y19207401D01*
X40235876Y19133537D01*
X40313037Y19114519D01*
X40390197Y19095500D01*
X40390198Y19095500D01*
X40549142Y19095500D01*
X40549142Y19095501D01*
X40603083Y19108796D01*
X40672885Y19105728D01*
X40729948Y19065409D01*
X40735862Y19057291D01*
X40740265Y19050701D01*
X40740266Y19050699D01*
X40745659Y19042628D01*
X40796515Y18966516D01*
X40823827Y18948267D01*
X40880699Y18910266D01*
X40880702Y18910266D01*
X40880703Y18910265D01*
X40905666Y18905300D01*
X40954933Y18895500D01*
X44005066Y18895501D01*
X44079301Y18910266D01*
X44163484Y18966516D01*
X44219734Y19050699D01*
X44234500Y19124933D01*
X44234499Y20175066D01*
X44219734Y20249301D01*
X44190803Y20292599D01*
X44163484Y20333485D01*
X44087740Y20384095D01*
X44079301Y20389734D01*
X44079299Y20389735D01*
X44079296Y20389736D01*
X44005069Y20404500D01*
X40954936Y20404500D01*
X40880698Y20389734D01*
X40844490Y20365540D01*
X40777812Y20344663D01*
X40717977Y20358845D01*
X40703462Y20366463D01*
X40703458Y20366464D01*
X40549141Y20404500D01*
X40549140Y20404500D01*
X40390198Y20404500D01*
X40390197Y20404500D01*
X40235877Y20366464D01*
X40095138Y20292599D01*
X39976175Y20187206D01*
X39976169Y20187199D01*
X39885883Y20056398D01*
X39829519Y19907782D01*
X39810362Y19750001D01*
X9274499Y19750001D01*
X9274499Y20175066D01*
X9259734Y20249301D01*
X9230803Y20292599D01*
X9203484Y20333485D01*
X9127740Y20384095D01*
X9119301Y20389734D01*
X9119299Y20389735D01*
X9119296Y20389736D01*
X9045069Y20404500D01*
X5994936Y20404500D01*
X5963780Y20398303D01*
X5930433Y20391671D01*
X5876571Y20392891D01*
X5829471Y20404500D01*
X5670529Y20404500D01*
X5670528Y20404500D01*
X5516208Y20366464D01*
X5375469Y20292599D01*
X5256506Y20187206D01*
X5256500Y20187199D01*
X5166214Y20056398D01*
X5109850Y19907782D01*
X5090693Y19750001D01*
X2230000Y19750001D01*
X2230000Y19900000D01*
X2730000Y19900000D01*
X4480000Y19900000D01*
X4480000Y20197828D01*
X4479999Y20197845D01*
X4473598Y20257373D01*
X4473596Y20257380D01*
X4423354Y20392087D01*
X4423350Y20392094D01*
X4342570Y20500001D01*
X45090693Y20500001D01*
X45090693Y20500000D01*
X45109850Y20342219D01*
X45117616Y20321743D01*
X45164611Y20197828D01*
X45166214Y20193603D01*
X45179011Y20175064D01*
X45256502Y20062799D01*
X45256504Y20062797D01*
X45256506Y20062795D01*
X45375469Y19957402D01*
X45375471Y19957401D01*
X45516207Y19883537D01*
X45670529Y19845500D01*
X45670530Y19845500D01*
X45671175Y19845341D01*
X45731556Y19810185D01*
X45763344Y19747965D01*
X45765500Y19724944D01*
X45765500Y19124937D01*
X45780266Y19050699D01*
X45836515Y18966516D01*
X45863827Y18948267D01*
X45920699Y18910266D01*
X45920702Y18910266D01*
X45920703Y18910265D01*
X45945666Y18905300D01*
X45994933Y18895500D01*
X49045066Y18895501D01*
X49119301Y18910266D01*
X49203484Y18966516D01*
X49259734Y19050699D01*
X49274500Y19124933D01*
X49274499Y20175066D01*
X49259734Y20249301D01*
X49230803Y20292599D01*
X49203484Y20333485D01*
X49127740Y20384095D01*
X49119301Y20389734D01*
X49119299Y20389735D01*
X49119296Y20389736D01*
X49045071Y20404500D01*
X49045067Y20404500D01*
X46530757Y20404500D01*
X46463718Y20424185D01*
X46417963Y20476989D01*
X46407661Y20513554D01*
X46390149Y20657782D01*
X46333787Y20806395D01*
X46243498Y20937201D01*
X46243495Y20937204D01*
X46243493Y20937206D01*
X46202881Y20973185D01*
X46165754Y21032374D01*
X46166522Y21102240D01*
X46204940Y21160599D01*
X46268810Y21188924D01*
X46285108Y21190000D01*
X47270000Y21190000D01*
X47270000Y21940000D01*
X45520000Y21940000D01*
X45520000Y21642156D01*
X45526401Y21582628D01*
X45526403Y21582621D01*
X45576645Y21447914D01*
X45576647Y21447911D01*
X45664490Y21330569D01*
X45688908Y21265104D01*
X45674057Y21196831D01*
X45624652Y21147425D01*
X45594901Y21135861D01*
X45516211Y21116465D01*
X45516210Y21116465D01*
X45375469Y21042599D01*
X45256506Y20937206D01*
X45256500Y20937199D01*
X45166214Y20806398D01*
X45109850Y20657782D01*
X45090693Y20500001D01*
X4342570Y20500001D01*
X4337190Y20507188D01*
X4337187Y20507191D01*
X4222093Y20593351D01*
X4222086Y20593355D01*
X4087379Y20643597D01*
X4087372Y20643599D01*
X4027844Y20650000D01*
X2730000Y20650000D01*
X2730000Y19900000D01*
X2230000Y19900000D01*
X2230000Y20650000D01*
X932155Y20650000D01*
X872627Y20643599D01*
X872620Y20643597D01*
X737913Y20593355D01*
X737906Y20593351D01*
X622812Y20507191D01*
X622809Y20507188D01*
X536647Y20392091D01*
X533330Y20386016D01*
X483923Y20336613D01*
X415649Y20321763D01*
X350186Y20346183D01*
X308317Y20402118D01*
X300500Y20445447D01*
X300500Y21394554D01*
X320185Y21461593D01*
X372989Y21507348D01*
X442147Y21517292D01*
X505703Y21488267D01*
X533332Y21453982D01*
X536649Y21447907D01*
X622809Y21332813D01*
X622812Y21332810D01*
X737906Y21246650D01*
X737913Y21246646D01*
X872620Y21196404D01*
X872627Y21196402D01*
X932155Y21190001D01*
X932172Y21190000D01*
X2230000Y21190000D01*
X2730000Y21190000D01*
X4027828Y21190000D01*
X4027844Y21190001D01*
X4087372Y21196402D01*
X4087379Y21196404D01*
X4222086Y21246646D01*
X4222093Y21246650D01*
X4337187Y21332810D01*
X4337190Y21332813D01*
X4423350Y21447907D01*
X4423354Y21447914D01*
X4473596Y21582621D01*
X4473598Y21582628D01*
X4479999Y21642156D01*
X4480000Y21642173D01*
X4480000Y21940000D01*
X2730000Y21940000D01*
X2730000Y21190000D01*
X2230000Y21190000D01*
X2230000Y22440000D01*
X2730000Y22440000D01*
X4480000Y22440000D01*
X4480000Y22715072D01*
X5765500Y22715072D01*
X5765500Y21664937D01*
X5780266Y21590699D01*
X5836515Y21506516D01*
X5855515Y21493821D01*
X5920699Y21450266D01*
X5920702Y21450266D01*
X5920703Y21450265D01*
X5945666Y21445300D01*
X5994933Y21435500D01*
X7721797Y21435501D01*
X7788836Y21415816D01*
X7809478Y21399182D01*
X7837002Y21371658D01*
X7865261Y21327951D01*
X7915152Y21196402D01*
X7916214Y21193603D01*
X7918701Y21190000D01*
X8006502Y21062799D01*
X8006504Y21062797D01*
X8006506Y21062795D01*
X8125469Y20957402D01*
X8125471Y20957401D01*
X8266207Y20883537D01*
X8343368Y20864519D01*
X8420528Y20845500D01*
X8420529Y20845500D01*
X8579472Y20845500D01*
X8630911Y20858179D01*
X8733793Y20883537D01*
X8874529Y20957401D01*
X8993498Y21062799D01*
X9083787Y21193605D01*
X9140149Y21342218D01*
X9149404Y21418444D01*
X9177025Y21482621D01*
X9203191Y21506223D01*
X9203483Y21506515D01*
X9211316Y21518238D01*
X9259734Y21590699D01*
X9269969Y21642156D01*
X40480000Y21642156D01*
X40486401Y21582628D01*
X40486403Y21582621D01*
X40536645Y21447914D01*
X40536649Y21447907D01*
X40622809Y21332813D01*
X40622812Y21332810D01*
X40737906Y21246650D01*
X40737913Y21246646D01*
X40872620Y21196404D01*
X40872627Y21196402D01*
X40932155Y21190001D01*
X40932172Y21190000D01*
X42230000Y21190000D01*
X42730000Y21190000D01*
X44027828Y21190000D01*
X44027844Y21190001D01*
X44087372Y21196402D01*
X44087379Y21196404D01*
X44222086Y21246646D01*
X44222093Y21246650D01*
X44337187Y21332810D01*
X44337190Y21332813D01*
X44423350Y21447907D01*
X44423354Y21447914D01*
X44473596Y21582621D01*
X44473598Y21582628D01*
X44479999Y21642156D01*
X44480000Y21642173D01*
X44480000Y21940000D01*
X42730000Y21940000D01*
X42730000Y21190000D01*
X42230000Y21190000D01*
X42230000Y21940000D01*
X40480000Y21940000D01*
X40480000Y21642156D01*
X9269969Y21642156D01*
X9274500Y21664933D01*
X9274499Y22715066D01*
X9269968Y22737845D01*
X40480000Y22737845D01*
X40480000Y22440000D01*
X42230000Y22440000D01*
X42230000Y23190000D01*
X40932155Y23190000D01*
X40872627Y23183599D01*
X40872620Y23183597D01*
X40737913Y23133355D01*
X40737906Y23133351D01*
X40622812Y23047191D01*
X40622809Y23047188D01*
X40536649Y22932094D01*
X40536645Y22932087D01*
X40486403Y22797380D01*
X40486401Y22797373D01*
X40480000Y22737845D01*
X9269968Y22737845D01*
X9259734Y22789301D01*
X9210684Y22862709D01*
X9203484Y22873485D01*
X9136251Y22918408D01*
X9119301Y22929734D01*
X9119299Y22929735D01*
X9119296Y22929736D01*
X9045069Y22944500D01*
X5994936Y22944500D01*
X5920698Y22929734D01*
X5836515Y22873485D01*
X5780266Y22789301D01*
X5780264Y22789297D01*
X5765500Y22715072D01*
X4480000Y22715072D01*
X4480000Y22737828D01*
X4479999Y22737845D01*
X4473598Y22797373D01*
X4473596Y22797380D01*
X4423354Y22932087D01*
X4423350Y22932094D01*
X4337190Y23047188D01*
X4337187Y23047191D01*
X4222093Y23133351D01*
X4222086Y23133355D01*
X4087379Y23183597D01*
X4087372Y23183599D01*
X4027844Y23190000D01*
X2730000Y23190000D01*
X2730000Y22440000D01*
X2230000Y22440000D01*
X2230000Y23190000D01*
X932155Y23190000D01*
X872627Y23183599D01*
X872620Y23183597D01*
X737913Y23133355D01*
X737906Y23133351D01*
X622812Y23047191D01*
X622809Y23047188D01*
X536647Y22932091D01*
X533330Y22926016D01*
X483923Y22876613D01*
X415649Y22861763D01*
X350186Y22886183D01*
X308317Y22942118D01*
X300500Y22985447D01*
X300500Y23934554D01*
X320185Y24001593D01*
X372989Y24047348D01*
X442147Y24057292D01*
X505703Y24028267D01*
X533332Y23993982D01*
X536649Y23987907D01*
X622809Y23872813D01*
X622812Y23872810D01*
X737906Y23786650D01*
X737913Y23786646D01*
X872620Y23736404D01*
X872627Y23736402D01*
X932155Y23730001D01*
X932172Y23730000D01*
X2230000Y23730000D01*
X2730000Y23730000D01*
X4027828Y23730000D01*
X4027844Y23730001D01*
X4087372Y23736402D01*
X4087379Y23736404D01*
X4222086Y23786646D01*
X4222093Y23786650D01*
X4337187Y23872810D01*
X4337190Y23872813D01*
X4423350Y23987907D01*
X4423354Y23987914D01*
X4473596Y24122621D01*
X4473598Y24122628D01*
X4479999Y24182156D01*
X4480000Y24182173D01*
X4480000Y24250001D01*
X5340693Y24250001D01*
X5340693Y24250000D01*
X5359850Y24092219D01*
X5397773Y23992226D01*
X5410416Y23958889D01*
X5416214Y23943603D01*
X5449437Y23895472D01*
X5506502Y23812799D01*
X5506504Y23812797D01*
X5506506Y23812795D01*
X5625469Y23707402D01*
X5625471Y23707401D01*
X5766207Y23633537D01*
X5843368Y23614519D01*
X5920528Y23595500D01*
X5920529Y23595500D01*
X6079472Y23595500D01*
X6130911Y23608179D01*
X6233793Y23633537D01*
X6374529Y23707401D01*
X6493498Y23812799D01*
X6513612Y23841941D01*
X6567894Y23885930D01*
X6615662Y23895500D01*
X7086669Y23895500D01*
X7086671Y23895500D01*
X7176832Y23919659D01*
X7244781Y23958890D01*
X7306780Y23975501D01*
X9045064Y23975501D01*
X9045066Y23975501D01*
X9119301Y23990266D01*
X9203484Y24046516D01*
X9259734Y24130699D01*
X9274500Y24204933D01*
X9274499Y25255066D01*
X9259734Y25329301D01*
X9228436Y25376141D01*
X9203484Y25413485D01*
X9153019Y25447204D01*
X9119301Y25469734D01*
X9119299Y25469735D01*
X9119296Y25469736D01*
X9045069Y25484500D01*
X5994936Y25484500D01*
X5920698Y25469734D01*
X5836515Y25413485D01*
X5780266Y25329301D01*
X5780264Y25329297D01*
X5765500Y25255072D01*
X5765500Y24941053D01*
X5745815Y24874014D01*
X5699127Y24831257D01*
X5625471Y24792599D01*
X5625466Y24792596D01*
X5506506Y24687206D01*
X5506500Y24687199D01*
X5416214Y24556398D01*
X5359850Y24407782D01*
X5340693Y24250001D01*
X4480000Y24250001D01*
X4480000Y24480000D01*
X2730000Y24480000D01*
X2730000Y23730000D01*
X2230000Y23730000D01*
X2230000Y24980000D01*
X2730000Y24980000D01*
X4480000Y24980000D01*
X4480000Y25277828D01*
X4479999Y25277845D01*
X4473598Y25337373D01*
X4473596Y25337380D01*
X4423354Y25472087D01*
X4423350Y25472094D01*
X4337190Y25587188D01*
X4337187Y25587191D01*
X4222093Y25673351D01*
X4222086Y25673355D01*
X4087379Y25723597D01*
X4087372Y25723599D01*
X4027844Y25730000D01*
X2730000Y25730000D01*
X2730000Y24980000D01*
X2230000Y24980000D01*
X2230000Y25730000D01*
X932155Y25730000D01*
X872627Y25723599D01*
X872620Y25723597D01*
X737913Y25673355D01*
X737906Y25673351D01*
X622812Y25587191D01*
X622809Y25587188D01*
X536647Y25472091D01*
X533330Y25466016D01*
X483923Y25416613D01*
X415649Y25401763D01*
X350186Y25426183D01*
X308317Y25482118D01*
X300500Y25525447D01*
X300500Y30335072D01*
X725500Y30335072D01*
X725500Y29284937D01*
X740266Y29210699D01*
X796515Y29126516D01*
X811561Y29116463D01*
X880699Y29070266D01*
X880702Y29070266D01*
X880703Y29070265D01*
X905666Y29065300D01*
X954933Y29055500D01*
X3325950Y29055501D01*
X3392989Y29035816D01*
X3438744Y28983013D01*
X3448688Y28913854D01*
X3419663Y28850298D01*
X3408182Y28838690D01*
X3406506Y28837206D01*
X3406500Y28837199D01*
X3316214Y28706398D01*
X3259850Y28557782D01*
X3240693Y28400001D01*
X3240693Y28400000D01*
X3259851Y28242218D01*
X3278717Y28192471D01*
X3284084Y28122807D01*
X3250936Y28061301D01*
X3189798Y28027480D01*
X3162775Y28024500D01*
X954936Y28024500D01*
X880698Y28009734D01*
X796515Y27953485D01*
X740266Y27869301D01*
X740264Y27869297D01*
X725500Y27795072D01*
X725500Y26744937D01*
X740266Y26670699D01*
X796515Y26586516D01*
X830234Y26563986D01*
X880699Y26530266D01*
X880702Y26530266D01*
X880703Y26530265D01*
X905666Y26525300D01*
X954933Y26515500D01*
X4005066Y26515501D01*
X4079301Y26530266D01*
X4163484Y26586516D01*
X4219734Y26670699D01*
X4234500Y26744933D01*
X4234499Y27562361D01*
X4238724Y27594454D01*
X4251853Y27643452D01*
X4254500Y27653329D01*
X4254500Y27783850D01*
X4274185Y27850889D01*
X4296273Y27876665D01*
X4377213Y27948372D01*
X4393498Y27962799D01*
X4483787Y28093605D01*
X4540149Y28242218D01*
X4559307Y28400000D01*
X4554789Y28437206D01*
X4540149Y28557782D01*
X4517894Y28616463D01*
X4483787Y28706395D01*
X4393498Y28837201D01*
X4393495Y28837204D01*
X4393493Y28837206D01*
X4274529Y28942599D01*
X4274527Y28942601D01*
X4223397Y28969436D01*
X4173184Y29018021D01*
X4157210Y29086040D01*
X4177920Y29148122D01*
X4219734Y29210699D01*
X4229969Y29262156D01*
X5520000Y29262156D01*
X5526401Y29202628D01*
X5526403Y29202621D01*
X5576645Y29067914D01*
X5576649Y29067907D01*
X5662809Y28952813D01*
X5662812Y28952810D01*
X5777906Y28866650D01*
X5777913Y28866646D01*
X5912620Y28816404D01*
X5912627Y28816402D01*
X5972155Y28810001D01*
X5972172Y28810000D01*
X7381873Y28810000D01*
X7448912Y28790315D01*
X7494667Y28737511D01*
X7504611Y28668353D01*
X7475586Y28604797D01*
X7439500Y28576205D01*
X7409416Y28560416D01*
X7375468Y28542598D01*
X7256506Y28437206D01*
X7256500Y28437199D01*
X7166214Y28306398D01*
X7109851Y28157783D01*
X7109848Y28157774D01*
X7106907Y28133550D01*
X7079284Y28069373D01*
X7021349Y28030318D01*
X6983812Y28024500D01*
X5994936Y28024500D01*
X5920698Y28009734D01*
X5836515Y27953485D01*
X5780266Y27869301D01*
X5780264Y27869297D01*
X5765500Y27795072D01*
X5765500Y26744937D01*
X5780266Y26670699D01*
X5836515Y26586516D01*
X5870234Y26563986D01*
X5920699Y26530266D01*
X5920702Y26530266D01*
X5920703Y26530265D01*
X5945666Y26525300D01*
X5994933Y26515500D01*
X9045066Y26515501D01*
X9119301Y26530266D01*
X9203484Y26586516D01*
X9259734Y26670699D01*
X9274500Y26744933D01*
X9274499Y27795066D01*
X9259734Y27869301D01*
X9206900Y27948372D01*
X9203484Y27953485D01*
X9153019Y27987204D01*
X9119301Y28009734D01*
X9119299Y28009735D01*
X9119296Y28009736D01*
X9045071Y28024500D01*
X9045067Y28024500D01*
X8516187Y28024500D01*
X8449148Y28044185D01*
X8403393Y28096989D01*
X8393091Y28133553D01*
X8390149Y28157782D01*
X8390149Y28157783D01*
X8333787Y28306395D01*
X8243498Y28437201D01*
X8243495Y28437204D01*
X8243493Y28437206D01*
X8124531Y28542598D01*
X8095600Y28557782D01*
X8060499Y28576205D01*
X8010289Y28624788D01*
X7994314Y28692807D01*
X8017649Y28758665D01*
X8072885Y28801452D01*
X8118127Y28810000D01*
X9067828Y28810000D01*
X9067844Y28810001D01*
X9127372Y28816402D01*
X9127379Y28816404D01*
X9262086Y28866646D01*
X9262093Y28866650D01*
X9377187Y28952810D01*
X9377190Y28952813D01*
X9463350Y29067907D01*
X9463354Y29067914D01*
X9513596Y29202621D01*
X9513598Y29202628D01*
X9519999Y29262156D01*
X40480000Y29262156D01*
X40486401Y29202628D01*
X40486403Y29202621D01*
X40536645Y29067914D01*
X40536649Y29067907D01*
X40622809Y28952813D01*
X40622812Y28952810D01*
X40737906Y28866650D01*
X40737913Y28866646D01*
X40872620Y28816404D01*
X40872627Y28816402D01*
X40932155Y28810001D01*
X40932172Y28810000D01*
X42230000Y28810000D01*
X42730000Y28810000D01*
X44027828Y28810000D01*
X44027844Y28810001D01*
X44087372Y28816402D01*
X44087379Y28816404D01*
X44222086Y28866646D01*
X44222093Y28866650D01*
X44337187Y28952810D01*
X44337190Y28952813D01*
X44423350Y29067907D01*
X44423354Y29067914D01*
X44473596Y29202621D01*
X44473598Y29202628D01*
X44479999Y29262156D01*
X44480000Y29262173D01*
X44480000Y29560000D01*
X42730000Y29560000D01*
X42730000Y28810000D01*
X42230000Y28810000D01*
X42230000Y29560000D01*
X40480000Y29560000D01*
X40480000Y29262156D01*
X9519999Y29262156D01*
X9520000Y29262173D01*
X9520000Y29560000D01*
X5520000Y29560000D01*
X5520000Y29262156D01*
X4229969Y29262156D01*
X4234500Y29284933D01*
X4234499Y30335066D01*
X4229968Y30357845D01*
X5520000Y30357845D01*
X5520000Y30060000D01*
X7270000Y30060000D01*
X7770000Y30060000D01*
X9520000Y30060000D01*
X9520000Y30357828D01*
X9519999Y30357845D01*
X40480000Y30357845D01*
X40480000Y30060000D01*
X42230000Y30060000D01*
X42230000Y30810000D01*
X40932155Y30810000D01*
X40872627Y30803599D01*
X40872620Y30803597D01*
X40737913Y30753355D01*
X40737906Y30753351D01*
X40622812Y30667191D01*
X40622809Y30667188D01*
X40536649Y30552094D01*
X40536645Y30552087D01*
X40486403Y30417380D01*
X40486401Y30417373D01*
X40480000Y30357845D01*
X9519999Y30357845D01*
X9513598Y30417373D01*
X9513596Y30417380D01*
X9463354Y30552087D01*
X9463350Y30552094D01*
X9377190Y30667188D01*
X9377187Y30667191D01*
X9262093Y30753351D01*
X9262086Y30753355D01*
X9127379Y30803597D01*
X9127372Y30803599D01*
X9067844Y30810000D01*
X7770000Y30810000D01*
X7770000Y30060000D01*
X7270000Y30060000D01*
X7270000Y30810000D01*
X5972155Y30810000D01*
X5912627Y30803599D01*
X5912620Y30803597D01*
X5777913Y30753355D01*
X5777906Y30753351D01*
X5662812Y30667191D01*
X5662809Y30667188D01*
X5576649Y30552094D01*
X5576645Y30552087D01*
X5526403Y30417380D01*
X5526401Y30417373D01*
X5520000Y30357845D01*
X4229968Y30357845D01*
X4219734Y30409301D01*
X4170684Y30482709D01*
X4163484Y30493485D01*
X4140966Y30508531D01*
X4096162Y30562144D01*
X4087456Y30631469D01*
X4117612Y30694496D01*
X4127617Y30704434D01*
X4193498Y30762799D01*
X4283787Y30893605D01*
X4340149Y31042218D01*
X4359307Y31200000D01*
X4340149Y31357782D01*
X4329330Y31386307D01*
X4323964Y31455970D01*
X4346006Y31504589D01*
X4423353Y31607912D01*
X4423354Y31607914D01*
X4473596Y31742621D01*
X4473598Y31742628D01*
X4479999Y31802156D01*
X4480000Y31802173D01*
X4480000Y32100000D01*
X2730000Y32100000D01*
X2730000Y31350000D01*
X2918939Y31350000D01*
X2985978Y31330315D01*
X3031733Y31277511D01*
X3042035Y31211055D01*
X3040693Y31200002D01*
X3040693Y31200000D01*
X3059850Y31042219D01*
X3097250Y30943605D01*
X3110636Y30908309D01*
X3116214Y30893603D01*
X3209165Y30758940D01*
X3231048Y30692585D01*
X3213582Y30624934D01*
X3162315Y30577464D01*
X3107115Y30564500D01*
X954936Y30564500D01*
X880698Y30549734D01*
X796515Y30493485D01*
X740266Y30409301D01*
X740264Y30409297D01*
X725500Y30335072D01*
X300500Y30335072D01*
X300500Y31554554D01*
X320185Y31621593D01*
X372989Y31667348D01*
X442147Y31677292D01*
X505703Y31648267D01*
X533332Y31613982D01*
X536649Y31607907D01*
X622809Y31492813D01*
X622812Y31492810D01*
X737906Y31406650D01*
X737913Y31406646D01*
X872620Y31356404D01*
X872627Y31356402D01*
X932155Y31350001D01*
X932172Y31350000D01*
X2230000Y31350000D01*
X2230000Y32600000D01*
X2730000Y32600000D01*
X4480000Y32600000D01*
X4480000Y32875072D01*
X5765500Y32875072D01*
X5765500Y31824937D01*
X5780266Y31750699D01*
X5836515Y31666516D01*
X5855515Y31653821D01*
X5920699Y31610266D01*
X5920702Y31610266D01*
X5920703Y31610265D01*
X5945666Y31605300D01*
X5994933Y31595500D01*
X9045066Y31595501D01*
X9119301Y31610266D01*
X9142167Y31625545D01*
X9208842Y31646422D01*
X9258604Y31634628D01*
X9259199Y31636195D01*
X9266206Y31633537D01*
X9420528Y31595500D01*
X9420529Y31595500D01*
X9579472Y31595500D01*
X9654455Y31613982D01*
X9733793Y31633537D01*
X9874529Y31707401D01*
X9993498Y31812799D01*
X10083787Y31943605D01*
X10140149Y32092218D01*
X10159307Y32250000D01*
X10140149Y32407782D01*
X10083787Y32556395D01*
X9993498Y32687201D01*
X9993495Y32687204D01*
X9993493Y32687206D01*
X9874530Y32792599D01*
X9733791Y32866464D01*
X9579472Y32904500D01*
X9579471Y32904500D01*
X9420529Y32904500D01*
X9420524Y32904500D01*
X9392623Y32897623D01*
X9322820Y32900693D01*
X9265759Y32941014D01*
X9259847Y32949130D01*
X9259734Y32949299D01*
X9259734Y32949301D01*
X9203484Y33033484D01*
X9198801Y33036613D01*
X9136251Y33078408D01*
X9119301Y33089734D01*
X9119299Y33089735D01*
X9119296Y33089736D01*
X9045069Y33104500D01*
X5994936Y33104500D01*
X5920698Y33089734D01*
X5836515Y33033485D01*
X5780266Y32949301D01*
X5780264Y32949297D01*
X5765500Y32875072D01*
X4480000Y32875072D01*
X4480000Y32897828D01*
X4479999Y32897845D01*
X4473598Y32957373D01*
X4473596Y32957380D01*
X4423354Y33092087D01*
X4423350Y33092094D01*
X4337190Y33207188D01*
X4337187Y33207191D01*
X4222093Y33293351D01*
X4222086Y33293355D01*
X4087379Y33343597D01*
X4087372Y33343599D01*
X4027844Y33350000D01*
X2730000Y33350000D01*
X2730000Y32600000D01*
X2230000Y32600000D01*
X2230000Y33350000D01*
X932155Y33350000D01*
X872627Y33343599D01*
X872620Y33343597D01*
X737913Y33293355D01*
X737906Y33293351D01*
X622812Y33207191D01*
X622809Y33207188D01*
X536647Y33092091D01*
X533330Y33086016D01*
X483923Y33036613D01*
X415649Y33021763D01*
X350186Y33046183D01*
X308317Y33102118D01*
X300500Y33145447D01*
X300500Y35415072D01*
X725500Y35415072D01*
X725500Y34364937D01*
X740266Y34290699D01*
X796515Y34206516D01*
X815515Y34193821D01*
X880699Y34150266D01*
X880702Y34150266D01*
X880703Y34150265D01*
X905666Y34145300D01*
X954933Y34135500D01*
X4005066Y34135501D01*
X4079301Y34150266D01*
X4163484Y34206516D01*
X4219528Y34290392D01*
X4273140Y34335196D01*
X4322630Y34345500D01*
X4329472Y34345500D01*
X4408297Y34364929D01*
X4483793Y34383537D01*
X4624529Y34457401D01*
X4743498Y34562799D01*
X4833787Y34693605D01*
X4890149Y34842218D01*
X4909307Y35000000D01*
X4890149Y35157782D01*
X4833787Y35306395D01*
X4758773Y35415072D01*
X5765500Y35415072D01*
X5765500Y34364937D01*
X5780266Y34290699D01*
X5836515Y34206516D01*
X5855515Y34193821D01*
X5920699Y34150266D01*
X5920702Y34150266D01*
X5920703Y34150265D01*
X5945666Y34145300D01*
X5994933Y34135500D01*
X9045066Y34135501D01*
X9119301Y34150266D01*
X9203484Y34206516D01*
X9259734Y34290699D01*
X9274500Y34364933D01*
X9274499Y34556454D01*
X9294183Y34623493D01*
X9316267Y34649265D01*
X9387983Y34712799D01*
X9478272Y34843605D01*
X9534634Y34992218D01*
X9553792Y35150000D01*
X9534634Y35307782D01*
X9493944Y35415072D01*
X40725500Y35415072D01*
X40725500Y34364937D01*
X40740266Y34290699D01*
X40796515Y34206516D01*
X40815515Y34193821D01*
X40880699Y34150266D01*
X40880702Y34150266D01*
X40880703Y34150265D01*
X40905666Y34145300D01*
X40954933Y34135500D01*
X41732386Y34135501D01*
X41799425Y34115817D01*
X41845180Y34063013D01*
X41855124Y33993854D01*
X41826099Y33930298D01*
X41814614Y33918686D01*
X41756502Y33867204D01*
X41756500Y33867201D01*
X41666214Y33736400D01*
X41609850Y33587784D01*
X41590693Y33430003D01*
X41590693Y33430002D01*
X41609851Y33272219D01*
X41611646Y33264936D01*
X41610361Y33264620D01*
X41615121Y33202800D01*
X41581969Y33141296D01*
X41520829Y33107479D01*
X41493813Y33104500D01*
X40954936Y33104500D01*
X40880698Y33089734D01*
X40796515Y33033485D01*
X40740266Y32949301D01*
X40740264Y32949297D01*
X40725500Y32875072D01*
X40725500Y31824937D01*
X40740266Y31750699D01*
X40796515Y31666516D01*
X40815515Y31653821D01*
X40880699Y31610266D01*
X40880702Y31610266D01*
X40880703Y31610265D01*
X40905666Y31605300D01*
X40954933Y31595500D01*
X43251398Y31595501D01*
X43318437Y31575816D01*
X43364192Y31523013D01*
X43374136Y31453854D01*
X43367340Y31427530D01*
X43359851Y31407783D01*
X43340693Y31250001D01*
X43340693Y31250000D01*
X43359850Y31092219D01*
X43378715Y31042476D01*
X43403180Y30977970D01*
X43408547Y30908309D01*
X43375400Y30846802D01*
X43314262Y30812981D01*
X43287238Y30810000D01*
X42730000Y30810000D01*
X42730000Y30060000D01*
X44480000Y30060000D01*
X44480000Y30357828D01*
X44479999Y30357845D01*
X45520000Y30357845D01*
X45520000Y30060000D01*
X47270000Y30060000D01*
X47270000Y30810000D01*
X45972155Y30810000D01*
X45912627Y30803599D01*
X45912620Y30803597D01*
X45777913Y30753355D01*
X45777906Y30753351D01*
X45662812Y30667191D01*
X45662809Y30667188D01*
X45576649Y30552094D01*
X45576645Y30552087D01*
X45526403Y30417380D01*
X45526401Y30417373D01*
X45520000Y30357845D01*
X44479999Y30357845D01*
X44473598Y30417373D01*
X44473596Y30417380D01*
X44423354Y30552087D01*
X44423353Y30552089D01*
X44402407Y30580069D01*
X44377990Y30645533D01*
X44392841Y30713806D01*
X44419447Y30747195D01*
X44483113Y30803599D01*
X44493498Y30812799D01*
X44583787Y30943605D01*
X44640149Y31092218D01*
X44659307Y31250000D01*
X44640149Y31407782D01*
X44583787Y31556395D01*
X44493498Y31687201D01*
X44493495Y31687204D01*
X44493493Y31687206D01*
X44394580Y31774835D01*
X44377443Y31802156D01*
X45520000Y31802156D01*
X45526401Y31742628D01*
X45526403Y31742621D01*
X45576645Y31607914D01*
X45576649Y31607907D01*
X45662809Y31492813D01*
X45662812Y31492810D01*
X45777906Y31406650D01*
X45777913Y31406646D01*
X45912620Y31356404D01*
X45912627Y31356402D01*
X45972155Y31350001D01*
X45972172Y31350000D01*
X47270000Y31350000D01*
X47270000Y32100000D01*
X45520000Y32100000D01*
X45520000Y31802156D01*
X44377443Y31802156D01*
X44357453Y31834024D01*
X44356022Y31840986D01*
X44354500Y31846667D01*
X44354500Y31846671D01*
X44330341Y31936832D01*
X44283671Y32017668D01*
X44270818Y32030521D01*
X44237333Y32091844D01*
X44234499Y32118202D01*
X44234499Y32875064D01*
X44234499Y32875066D01*
X44229968Y32897845D01*
X45520000Y32897845D01*
X45520000Y32600000D01*
X47270000Y32600000D01*
X47270000Y33350000D01*
X45972155Y33350000D01*
X45912627Y33343599D01*
X45912620Y33343597D01*
X45777913Y33293355D01*
X45777906Y33293351D01*
X45662812Y33207191D01*
X45662809Y33207188D01*
X45576649Y33092094D01*
X45576645Y33092087D01*
X45526403Y32957380D01*
X45526401Y32957373D01*
X45520000Y32897845D01*
X44229968Y32897845D01*
X44219734Y32949301D01*
X44170684Y33022709D01*
X44163484Y33033485D01*
X44096251Y33078408D01*
X44079301Y33089734D01*
X44079299Y33089735D01*
X44079296Y33089736D01*
X44005071Y33104500D01*
X44005067Y33104500D01*
X43006186Y33104500D01*
X42939147Y33124185D01*
X42893392Y33176989D01*
X42883448Y33246147D01*
X42889500Y33269590D01*
X42890146Y33272215D01*
X42890149Y33272220D01*
X42909307Y33430002D01*
X42890149Y33587784D01*
X42833787Y33736397D01*
X42743498Y33867203D01*
X42685385Y33918687D01*
X42648260Y33977876D01*
X42649028Y34047741D01*
X42687446Y34106101D01*
X42751317Y34134425D01*
X42767614Y34135501D01*
X44005064Y34135501D01*
X44005066Y34135501D01*
X44079301Y34150266D01*
X44163484Y34206516D01*
X44219734Y34290699D01*
X44229969Y34342156D01*
X45520000Y34342156D01*
X45526401Y34282628D01*
X45526403Y34282621D01*
X45576645Y34147914D01*
X45576649Y34147907D01*
X45662809Y34032813D01*
X45662812Y34032810D01*
X45777906Y33946650D01*
X45777913Y33946646D01*
X45912620Y33896404D01*
X45912627Y33896402D01*
X45972155Y33890001D01*
X45972172Y33890000D01*
X47270000Y33890000D01*
X47270000Y34640000D01*
X45520000Y34640000D01*
X45520000Y34342156D01*
X44229969Y34342156D01*
X44234500Y34364933D01*
X44234499Y35415066D01*
X44229968Y35437845D01*
X45520000Y35437845D01*
X45520000Y35140000D01*
X47270000Y35140000D01*
X47270000Y35890000D01*
X45972155Y35890000D01*
X45912627Y35883599D01*
X45912620Y35883597D01*
X45777913Y35833355D01*
X45777906Y35833351D01*
X45662812Y35747191D01*
X45662809Y35747188D01*
X45576649Y35632094D01*
X45576645Y35632087D01*
X45526403Y35497380D01*
X45526401Y35497373D01*
X45520000Y35437845D01*
X44229968Y35437845D01*
X44219734Y35489301D01*
X44170684Y35562709D01*
X44163484Y35573485D01*
X44099162Y35616463D01*
X44079301Y35629734D01*
X44079299Y35629735D01*
X44079296Y35629736D01*
X44005069Y35644500D01*
X40954936Y35644500D01*
X40880698Y35629734D01*
X40796515Y35573485D01*
X40740266Y35489301D01*
X40740264Y35489297D01*
X40725500Y35415072D01*
X9493944Y35415072D01*
X9478272Y35456395D01*
X9387983Y35587201D01*
X9387980Y35587204D01*
X9387978Y35587206D01*
X9269015Y35692599D01*
X9128276Y35766464D01*
X8973957Y35804500D01*
X8973956Y35804500D01*
X8815014Y35804500D01*
X8815013Y35804500D01*
X8660693Y35766464D01*
X8519954Y35692599D01*
X8500862Y35675684D01*
X8437629Y35645963D01*
X8418636Y35644500D01*
X5994936Y35644500D01*
X5920698Y35629734D01*
X5836515Y35573485D01*
X5780266Y35489301D01*
X5780264Y35489297D01*
X5765500Y35415072D01*
X4758773Y35415072D01*
X4743498Y35437201D01*
X4743495Y35437204D01*
X4743493Y35437206D01*
X4624530Y35542599D01*
X4483791Y35616464D01*
X4329472Y35654500D01*
X4329471Y35654500D01*
X4170529Y35654500D01*
X4170528Y35654500D01*
X4100977Y35637358D01*
X4047114Y35636137D01*
X4022334Y35641066D01*
X4005067Y35644500D01*
X4005066Y35644500D01*
X954936Y35644500D01*
X880698Y35629734D01*
X796515Y35573485D01*
X740266Y35489301D01*
X740264Y35489297D01*
X725500Y35415072D01*
X300500Y35415072D01*
X300500Y44254554D01*
X320185Y44321593D01*
X372989Y44367348D01*
X442147Y44377292D01*
X505703Y44348267D01*
X533332Y44313982D01*
X536649Y44307907D01*
X622809Y44192813D01*
X622812Y44192810D01*
X737906Y44106650D01*
X737913Y44106646D01*
X872620Y44056404D01*
X872627Y44056402D01*
X932155Y44050001D01*
X932172Y44050000D01*
X2230000Y44050000D01*
X2730000Y44050000D01*
X4027828Y44050000D01*
X4027844Y44050001D01*
X4087372Y44056402D01*
X4087379Y44056404D01*
X4222086Y44106646D01*
X4222093Y44106650D01*
X4337187Y44192810D01*
X4337190Y44192813D01*
X4423350Y44307907D01*
X4423354Y44307914D01*
X4473596Y44442621D01*
X4473598Y44442628D01*
X4479999Y44502156D01*
X4480000Y44502173D01*
X4480000Y44800000D01*
X2730000Y44800000D01*
X2730000Y44050000D01*
X2230000Y44050000D01*
X2230000Y45300000D01*
X2730000Y45300000D01*
X4480000Y45300000D01*
X4480000Y45597828D01*
X4479999Y45597845D01*
X4473598Y45657373D01*
X4473596Y45657380D01*
X4423354Y45792087D01*
X4423350Y45792094D01*
X4337190Y45907188D01*
X4337187Y45907191D01*
X4222093Y45993351D01*
X4222086Y45993355D01*
X4087379Y46043597D01*
X4087372Y46043599D01*
X4027844Y46050000D01*
X2730000Y46050000D01*
X2730000Y45300000D01*
X2230000Y45300000D01*
X2230000Y46050000D01*
X932155Y46050000D01*
X872627Y46043599D01*
X872620Y46043597D01*
X737913Y45993355D01*
X737906Y45993351D01*
X622812Y45907191D01*
X622809Y45907188D01*
X536647Y45792091D01*
X533330Y45786016D01*
X483923Y45736613D01*
X415649Y45721763D01*
X350186Y45746183D01*
X308317Y45802118D01*
X300500Y45845447D01*
X300500Y48115072D01*
X725500Y48115072D01*
X725500Y47064937D01*
X740266Y46990699D01*
X796515Y46906516D01*
X830234Y46883986D01*
X880699Y46850266D01*
X880702Y46850266D01*
X880703Y46850265D01*
X905666Y46845300D01*
X954933Y46835500D01*
X2172214Y46835501D01*
X2239253Y46815816D01*
X2274264Y46781941D01*
X2356502Y46662799D01*
X2356504Y46662797D01*
X2356506Y46662795D01*
X2475469Y46557402D01*
X2475471Y46557401D01*
X2616207Y46483537D01*
X2693368Y46464519D01*
X2770528Y46445500D01*
X2770529Y46445500D01*
X2929472Y46445500D01*
X2980911Y46458179D01*
X3083793Y46483537D01*
X3224529Y46557401D01*
X3343498Y46662799D01*
X3425736Y46781941D01*
X3480019Y46825931D01*
X3527786Y46835501D01*
X4005064Y46835501D01*
X4005066Y46835501D01*
X4079301Y46850266D01*
X4163484Y46906516D01*
X4219734Y46990699D01*
X4234500Y47064933D01*
X4234499Y47866603D01*
X4254183Y47933641D01*
X4306987Y47979396D01*
X4376146Y47989340D01*
X4416952Y47975960D01*
X4594503Y47881057D01*
X4594505Y47881057D01*
X4594508Y47881055D01*
X4793282Y47820758D01*
X5000000Y47800398D01*
X5206718Y47820758D01*
X5405492Y47881055D01*
X5405496Y47881057D01*
X5583047Y47975960D01*
X5651449Y47990202D01*
X5716693Y47965202D01*
X5758064Y47908897D01*
X5765500Y47866602D01*
X5765500Y47334458D01*
X5748888Y47272461D01*
X5719659Y47221832D01*
X5710385Y47187219D01*
X5695500Y47131670D01*
X5695500Y46851088D01*
X5675815Y46784049D01*
X5646987Y46752713D01*
X5618868Y46731137D01*
X5521968Y46604856D01*
X5461061Y46457810D01*
X5461060Y46457806D01*
X5440284Y46300001D01*
X5440284Y46300000D01*
X5461060Y46142195D01*
X5461061Y46142191D01*
X5521968Y45995145D01*
X5521969Y45995144D01*
X5521970Y45995142D01*
X5618866Y45868866D01*
X5735611Y45779284D01*
X5776812Y45722857D01*
X5781741Y45656719D01*
X5765500Y45575066D01*
X5765500Y44524937D01*
X5780266Y44450699D01*
X5836515Y44366516D01*
X5857788Y44352302D01*
X5920699Y44310266D01*
X5920702Y44310266D01*
X5920703Y44310265D01*
X5945666Y44305300D01*
X5994933Y44295500D01*
X8751798Y44295501D01*
X8818837Y44275816D01*
X8839479Y44259182D01*
X10022480Y43076181D01*
X10055965Y43014858D01*
X10050981Y42945166D01*
X10009109Y42889233D01*
X9943645Y42864816D01*
X9934799Y42864500D01*
X9398499Y42864500D01*
X9331460Y42884185D01*
X9285705Y42936989D01*
X9274499Y42988500D01*
X9274499Y43035064D01*
X9274499Y43035066D01*
X9259734Y43109301D01*
X9210684Y43182709D01*
X9203484Y43193485D01*
X9136251Y43238408D01*
X9119301Y43249734D01*
X9119299Y43249735D01*
X9119296Y43249736D01*
X9045069Y43264500D01*
X5994936Y43264500D01*
X5920698Y43249734D01*
X5836515Y43193485D01*
X5780266Y43109301D01*
X5780264Y43109297D01*
X5765500Y43035072D01*
X5765500Y43035069D01*
X5765500Y43035067D01*
X5765500Y42564119D01*
X5765501Y42188500D01*
X5745817Y42121461D01*
X5693013Y42075706D01*
X5641501Y42064500D01*
X4518912Y42064500D01*
X4451873Y42084185D01*
X4431231Y42100819D01*
X4270818Y42261232D01*
X4237333Y42322555D01*
X4234499Y42348913D01*
X4234499Y43035064D01*
X4234499Y43035066D01*
X4219734Y43109301D01*
X4170684Y43182709D01*
X4163484Y43193485D01*
X4096251Y43238408D01*
X4079301Y43249734D01*
X4079299Y43249735D01*
X4079296Y43249736D01*
X4005069Y43264500D01*
X954936Y43264500D01*
X880698Y43249734D01*
X796515Y43193485D01*
X740266Y43109301D01*
X740264Y43109297D01*
X725500Y43035072D01*
X725500Y41984937D01*
X740266Y41910699D01*
X796515Y41826516D01*
X830234Y41803986D01*
X880699Y41770266D01*
X880702Y41770266D01*
X880703Y41770265D01*
X905666Y41765300D01*
X954933Y41755500D01*
X2159811Y41755501D01*
X2226849Y41735816D01*
X2272604Y41683013D01*
X2282548Y41613854D01*
X2253523Y41550298D01*
X2242039Y41538687D01*
X2206503Y41507205D01*
X2206500Y41507201D01*
X2116214Y41376400D01*
X2059850Y41227784D01*
X2040693Y41070003D01*
X2040693Y41070002D01*
X2059850Y40912220D01*
X2067341Y40892469D01*
X2072707Y40822806D01*
X2039558Y40761300D01*
X1978419Y40727480D01*
X1951398Y40724500D01*
X954936Y40724500D01*
X880698Y40709734D01*
X796515Y40653485D01*
X740266Y40569301D01*
X740264Y40569297D01*
X725500Y40495072D01*
X725500Y39444937D01*
X740266Y39370699D01*
X796515Y39286516D01*
X815515Y39273821D01*
X880699Y39230266D01*
X880702Y39230266D01*
X880703Y39230265D01*
X905666Y39225300D01*
X954933Y39215500D01*
X3279003Y39215501D01*
X3346042Y39195816D01*
X3391797Y39143013D01*
X3402099Y39076558D01*
X3400006Y39059317D01*
X3400006Y39059313D01*
X3419163Y38901532D01*
X3425988Y38883537D01*
X3475526Y38752918D01*
X3565815Y38622112D01*
X3565817Y38622110D01*
X3565819Y38622108D01*
X3684782Y38516715D01*
X3684784Y38516714D01*
X3825520Y38442850D01*
X3863718Y38433435D01*
X3882129Y38428897D01*
X3942510Y38393741D01*
X3974298Y38331521D01*
X3967402Y38261993D01*
X3924011Y38207230D01*
X3857901Y38184620D01*
X3852454Y38184500D01*
X954936Y38184500D01*
X880698Y38169734D01*
X796515Y38113485D01*
X740266Y38029301D01*
X740264Y38029297D01*
X725500Y37955072D01*
X725500Y36904937D01*
X740266Y36830699D01*
X796515Y36746516D01*
X815515Y36733821D01*
X880699Y36690266D01*
X880702Y36690266D01*
X880703Y36690265D01*
X905666Y36685300D01*
X954933Y36675500D01*
X3905687Y36675501D01*
X3963311Y36661298D01*
X3997463Y36643375D01*
X4016206Y36633538D01*
X4016206Y36633537D01*
X4170528Y36595500D01*
X4170529Y36595500D01*
X4329472Y36595500D01*
X4380911Y36608179D01*
X4483793Y36633537D01*
X4624529Y36707401D01*
X4743498Y36812799D01*
X4791372Y36882156D01*
X5520000Y36882156D01*
X5526401Y36822628D01*
X5526403Y36822621D01*
X5576645Y36687914D01*
X5576649Y36687907D01*
X5662809Y36572813D01*
X5662812Y36572810D01*
X5777906Y36486650D01*
X5777913Y36486646D01*
X5912620Y36436404D01*
X5912627Y36436402D01*
X5972155Y36430001D01*
X5972172Y36430000D01*
X7270000Y36430000D01*
X7770000Y36430000D01*
X9067828Y36430000D01*
X9067844Y36430001D01*
X9127372Y36436402D01*
X9127379Y36436404D01*
X9262086Y36486646D01*
X9262093Y36486650D01*
X9377187Y36572810D01*
X9377190Y36572813D01*
X9463350Y36687907D01*
X9463354Y36687914D01*
X9513596Y36822621D01*
X9513598Y36822628D01*
X9519999Y36882156D01*
X9520000Y36882173D01*
X9520000Y37180000D01*
X7770000Y37180000D01*
X7770000Y36430000D01*
X7270000Y36430000D01*
X7270000Y37180000D01*
X5520000Y37180000D01*
X5520000Y36882156D01*
X4791372Y36882156D01*
X4833787Y36943605D01*
X4890149Y37092218D01*
X4909307Y37250000D01*
X4890149Y37407782D01*
X4833787Y37556395D01*
X4743498Y37687201D01*
X4743495Y37687204D01*
X4743493Y37687206D01*
X4624530Y37792599D01*
X4483791Y37866464D01*
X4322189Y37906295D01*
X4322634Y37908102D01*
X4267426Y37931865D01*
X4236430Y37977845D01*
X5520000Y37977845D01*
X5520000Y37680000D01*
X7270000Y37680000D01*
X7770000Y37680000D01*
X9520000Y37680000D01*
X9520000Y37955072D01*
X40725500Y37955072D01*
X40725500Y36904937D01*
X40740266Y36830699D01*
X40796515Y36746516D01*
X40815515Y36733821D01*
X40880699Y36690266D01*
X40880702Y36690266D01*
X40880703Y36690265D01*
X40905666Y36685300D01*
X40954933Y36675500D01*
X43655687Y36675501D01*
X43713311Y36661298D01*
X43747463Y36643375D01*
X43766206Y36633538D01*
X43766206Y36633537D01*
X43920528Y36595500D01*
X43920529Y36595500D01*
X44079472Y36595500D01*
X44130911Y36608179D01*
X44233793Y36633537D01*
X44374529Y36707401D01*
X44493498Y36812799D01*
X44541372Y36882156D01*
X45520000Y36882156D01*
X45526401Y36822628D01*
X45526403Y36822621D01*
X45576645Y36687914D01*
X45576649Y36687907D01*
X45662809Y36572813D01*
X45662812Y36572810D01*
X45777906Y36486650D01*
X45777913Y36486646D01*
X45912620Y36436404D01*
X45912627Y36436402D01*
X45972155Y36430001D01*
X45972172Y36430000D01*
X47270000Y36430000D01*
X47270000Y37180000D01*
X45520000Y37180000D01*
X45520000Y36882156D01*
X44541372Y36882156D01*
X44583787Y36943605D01*
X44640149Y37092218D01*
X44659307Y37250000D01*
X44640149Y37407782D01*
X44583787Y37556395D01*
X44493498Y37687201D01*
X44493495Y37687204D01*
X44493493Y37687206D01*
X44374529Y37792599D01*
X44374530Y37792599D01*
X44300872Y37831258D01*
X44250660Y37879843D01*
X44234499Y37941054D01*
X44234499Y37955064D01*
X44234499Y37955066D01*
X44229968Y37977845D01*
X45520000Y37977845D01*
X45520000Y37680000D01*
X47270000Y37680000D01*
X47270000Y38430000D01*
X45972155Y38430000D01*
X45912627Y38423599D01*
X45912620Y38423597D01*
X45777913Y38373355D01*
X45777906Y38373351D01*
X45662812Y38287191D01*
X45662809Y38287188D01*
X45576649Y38172094D01*
X45576645Y38172087D01*
X45526403Y38037380D01*
X45526401Y38037373D01*
X45520000Y37977845D01*
X44229968Y37977845D01*
X44219734Y38029301D01*
X44170684Y38102709D01*
X44163484Y38113485D01*
X44096251Y38158408D01*
X44079301Y38169734D01*
X44079299Y38169735D01*
X44079296Y38169736D01*
X44005069Y38184500D01*
X40954936Y38184500D01*
X40880698Y38169734D01*
X40796515Y38113485D01*
X40740266Y38029301D01*
X40740264Y38029297D01*
X40725500Y37955072D01*
X9520000Y37955072D01*
X9520000Y37977828D01*
X9519999Y37977845D01*
X9513598Y38037373D01*
X9513596Y38037380D01*
X9463354Y38172087D01*
X9463350Y38172094D01*
X9377190Y38287188D01*
X9377187Y38287191D01*
X9262093Y38373351D01*
X9262086Y38373355D01*
X9127379Y38423597D01*
X9127372Y38423599D01*
X9067844Y38430000D01*
X7770000Y38430000D01*
X7770000Y37680000D01*
X7270000Y37680000D01*
X7270000Y38430000D01*
X5972155Y38430000D01*
X5912627Y38423599D01*
X5912620Y38423597D01*
X5777913Y38373355D01*
X5777906Y38373351D01*
X5662812Y38287191D01*
X5662809Y38287188D01*
X5576649Y38172094D01*
X5576645Y38172087D01*
X5526403Y38037380D01*
X5526401Y38037373D01*
X5520000Y37977845D01*
X4236430Y37977845D01*
X4228371Y37989800D01*
X4224937Y38003141D01*
X4219734Y38029301D01*
X4170684Y38102709D01*
X4163484Y38113485D01*
X4069146Y38176519D01*
X4071182Y38179567D01*
X4033297Y38210102D01*
X4011239Y38276398D01*
X4028524Y38344096D01*
X4079666Y38391702D01*
X4135160Y38404813D01*
X4138785Y38404813D01*
X4190224Y38417492D01*
X4293106Y38442850D01*
X4433842Y38516714D01*
X4552811Y38622112D01*
X4643100Y38752918D01*
X4699462Y38901531D01*
X4718620Y39059313D01*
X4699462Y39217095D01*
X4643100Y39365708D01*
X4552811Y39496514D01*
X4455584Y39582650D01*
X4418459Y39641839D01*
X4413813Y39675464D01*
X4413813Y39684014D01*
X4413814Y39684027D01*
X4413814Y39787357D01*
X4410426Y39800001D01*
X4389655Y39877518D01*
X4389651Y39877525D01*
X4342988Y39958349D01*
X4342982Y39958357D01*
X4270818Y40030521D01*
X4237333Y40091844D01*
X4234499Y40118202D01*
X4234499Y40331500D01*
X4254184Y40398539D01*
X4306988Y40444294D01*
X4358499Y40455500D01*
X4964021Y40455500D01*
X5031060Y40435815D01*
X5046244Y40424319D01*
X5152363Y40330305D01*
X5293099Y40256441D01*
X5345124Y40243618D01*
X5447420Y40218404D01*
X5447421Y40218404D01*
X5606362Y40218404D01*
X5606363Y40218404D01*
X5611819Y40219749D01*
X5681619Y40216684D01*
X5738684Y40176368D01*
X5764894Y40111601D01*
X5765500Y40099354D01*
X5765500Y39444937D01*
X5780266Y39370699D01*
X5836515Y39286516D01*
X5855515Y39273821D01*
X5920699Y39230266D01*
X5920702Y39230266D01*
X5920703Y39230265D01*
X5945666Y39225300D01*
X5994933Y39215500D01*
X9045066Y39215501D01*
X9119301Y39230266D01*
X9203484Y39286516D01*
X9259734Y39370699D01*
X9274500Y39444933D01*
X9274500Y39491500D01*
X9294185Y39558539D01*
X9346989Y39604294D01*
X9398500Y39615500D01*
X22396876Y39615500D01*
X22463915Y39595815D01*
X22479103Y39584315D01*
X22525469Y39543238D01*
X22525471Y39543237D01*
X22666207Y39469373D01*
X22743368Y39450355D01*
X22820528Y39431336D01*
X22820529Y39431336D01*
X22979472Y39431336D01*
X23034652Y39444937D01*
X23133793Y39469373D01*
X23274529Y39543237D01*
X23393498Y39648635D01*
X23483787Y39779441D01*
X23491584Y39800001D01*
X25040693Y39800001D01*
X25040693Y39800000D01*
X25059850Y39642219D01*
X25097390Y39543237D01*
X25115109Y39496515D01*
X25116214Y39493603D01*
X25159194Y39431336D01*
X25206502Y39362799D01*
X25206504Y39362797D01*
X25206506Y39362795D01*
X25325469Y39257402D01*
X25325471Y39257401D01*
X25466207Y39183537D01*
X25522508Y39169660D01*
X25620528Y39145500D01*
X25620529Y39145500D01*
X25779472Y39145500D01*
X25830911Y39158179D01*
X25933793Y39183537D01*
X26074529Y39257401D01*
X26193498Y39362799D01*
X26283787Y39493605D01*
X26286213Y39500001D01*
X40340693Y39500001D01*
X40340693Y39500000D01*
X40359850Y39342219D01*
X40380976Y39286516D01*
X40415374Y39195816D01*
X40416214Y39193603D01*
X40451134Y39143013D01*
X40506502Y39062799D01*
X40506504Y39062797D01*
X40506506Y39062795D01*
X40625469Y38957402D01*
X40625471Y38957401D01*
X40766207Y38883537D01*
X40843368Y38864519D01*
X40920528Y38845500D01*
X40920529Y38845500D01*
X41079472Y38845500D01*
X41130911Y38858179D01*
X41233793Y38883537D01*
X41374529Y38957401D01*
X41493498Y39062799D01*
X41513612Y39091941D01*
X41567894Y39135930D01*
X41615662Y39145500D01*
X42056669Y39145500D01*
X42056671Y39145500D01*
X42146832Y39169659D01*
X42197458Y39198889D01*
X42259458Y39215501D01*
X44005064Y39215501D01*
X44005066Y39215501D01*
X44079301Y39230266D01*
X44163484Y39286516D01*
X44219734Y39370699D01*
X44229969Y39422156D01*
X45520000Y39422156D01*
X45526401Y39362628D01*
X45526403Y39362621D01*
X45576645Y39227914D01*
X45576649Y39227907D01*
X45662809Y39112813D01*
X45662812Y39112810D01*
X45777906Y39026650D01*
X45777913Y39026646D01*
X45912620Y38976404D01*
X45912627Y38976402D01*
X45972155Y38970001D01*
X45972172Y38970000D01*
X47270000Y38970000D01*
X47270000Y39720000D01*
X45520000Y39720000D01*
X45520000Y39422156D01*
X44229969Y39422156D01*
X44234500Y39444933D01*
X44234499Y40495066D01*
X44229968Y40517845D01*
X45520000Y40517845D01*
X45520000Y40220000D01*
X47270000Y40220000D01*
X47270000Y40970000D01*
X45972155Y40970000D01*
X45912627Y40963599D01*
X45912620Y40963597D01*
X45777913Y40913355D01*
X45777906Y40913351D01*
X45662812Y40827191D01*
X45662809Y40827188D01*
X45576649Y40712094D01*
X45576645Y40712087D01*
X45526403Y40577380D01*
X45526401Y40577373D01*
X45520000Y40517845D01*
X44229968Y40517845D01*
X44219734Y40569301D01*
X44201068Y40597235D01*
X44163484Y40653485D01*
X44096251Y40698408D01*
X44079301Y40709734D01*
X44079299Y40709735D01*
X44079296Y40709736D01*
X44005069Y40724500D01*
X40954936Y40724500D01*
X40880698Y40709734D01*
X40796515Y40653485D01*
X40740266Y40569301D01*
X40740264Y40569297D01*
X40725500Y40495072D01*
X40725500Y40170060D01*
X40705815Y40103021D01*
X40659127Y40060264D01*
X40625474Y40042602D01*
X40625468Y40042598D01*
X40506506Y39937206D01*
X40506500Y39937199D01*
X40416214Y39806398D01*
X40359850Y39657782D01*
X40340693Y39500001D01*
X26286213Y39500001D01*
X26340149Y39642218D01*
X26359307Y39800000D01*
X26353614Y39846882D01*
X26365074Y39915803D01*
X26389026Y39949505D01*
X28212664Y41773144D01*
X28273985Y41806627D01*
X28343677Y41801643D01*
X28399610Y41759771D01*
X28414904Y41732913D01*
X28471968Y41595145D01*
X28471969Y41595143D01*
X28471970Y41595142D01*
X28568866Y41468866D01*
X28695142Y41371970D01*
X28695143Y41371970D01*
X28695144Y41371969D01*
X28739480Y41353605D01*
X28842194Y41311060D01*
X28981640Y41292702D01*
X28999999Y41290284D01*
X29000000Y41290284D01*
X29000001Y41290284D01*
X29016446Y41292450D01*
X29157806Y41311060D01*
X29304858Y41371970D01*
X29431134Y41468866D01*
X29431368Y41469172D01*
X29431995Y41469987D01*
X29432962Y41470694D01*
X29436881Y41474612D01*
X29437492Y41474001D01*
X29488423Y41511190D01*
X29530370Y41518500D01*
X31469630Y41518500D01*
X31536669Y41498815D01*
X31563051Y41474545D01*
X31563119Y41474612D01*
X31564743Y41472988D01*
X31568005Y41469987D01*
X31568863Y41468869D01*
X31568864Y41468868D01*
X31568866Y41468866D01*
X31695142Y41371970D01*
X31695143Y41371970D01*
X31695144Y41371969D01*
X31739480Y41353605D01*
X31842194Y41311060D01*
X31981640Y41292702D01*
X31999999Y41290284D01*
X32000000Y41290284D01*
X32000001Y41290284D01*
X32016446Y41292450D01*
X32157806Y41311060D01*
X32304858Y41371970D01*
X32431134Y41468866D01*
X32528030Y41595142D01*
X32588940Y41742194D01*
X32609716Y41900000D01*
X32608691Y41907782D01*
X32607298Y41918360D01*
X32588940Y42057806D01*
X32548333Y42155841D01*
X32528031Y42204856D01*
X32528030Y42204857D01*
X32528030Y42204858D01*
X32431134Y42331134D01*
X32304858Y42428030D01*
X32304857Y42428031D01*
X32304855Y42428032D01*
X32157809Y42488939D01*
X32157807Y42488940D01*
X32157806Y42488940D01*
X32078903Y42499328D01*
X32000001Y42509716D01*
X31999999Y42509716D01*
X31842194Y42488940D01*
X31842190Y42488939D01*
X31695144Y42428032D01*
X31568863Y42331132D01*
X31568005Y42330013D01*
X31567037Y42329307D01*
X31563119Y42325388D01*
X31562507Y42326000D01*
X31511577Y42288810D01*
X31469630Y42281500D01*
X31229639Y42281500D01*
X31162600Y42301185D01*
X31116845Y42353989D01*
X31106901Y42423147D01*
X31113695Y42449468D01*
X31140149Y42519218D01*
X31159307Y42677000D01*
X31140149Y42834782D01*
X31083787Y42983395D01*
X31048117Y43035072D01*
X40725500Y43035072D01*
X40725500Y41984937D01*
X40740266Y41910699D01*
X40796515Y41826516D01*
X40830234Y41803986D01*
X40880699Y41770266D01*
X40880702Y41770266D01*
X40880703Y41770265D01*
X40905666Y41765300D01*
X40954933Y41755500D01*
X43230170Y41755501D01*
X43297209Y41735816D01*
X43342964Y41683013D01*
X43353266Y41646448D01*
X43359850Y41592219D01*
X43387809Y41518500D01*
X43405284Y41472421D01*
X43416214Y41443603D01*
X43442068Y41406147D01*
X43506502Y41312799D01*
X43506504Y41312797D01*
X43506506Y41312795D01*
X43625469Y41207402D01*
X43625471Y41207401D01*
X43766207Y41133537D01*
X43843368Y41114519D01*
X43920528Y41095500D01*
X43920529Y41095500D01*
X44079472Y41095500D01*
X44130911Y41108179D01*
X44233793Y41133537D01*
X44374529Y41207401D01*
X44493498Y41312799D01*
X44583787Y41443605D01*
X44640149Y41592218D01*
X44659307Y41750000D01*
X44656846Y41770265D01*
X44640149Y41907782D01*
X44639043Y41910699D01*
X44619528Y41962156D01*
X45520000Y41962156D01*
X45526401Y41902628D01*
X45526403Y41902621D01*
X45576645Y41767914D01*
X45576649Y41767907D01*
X45662809Y41652813D01*
X45662812Y41652810D01*
X45777906Y41566650D01*
X45777913Y41566646D01*
X45912620Y41516404D01*
X45912627Y41516402D01*
X45972155Y41510001D01*
X45972172Y41510000D01*
X47270000Y41510000D01*
X47270000Y42260000D01*
X45520000Y42260000D01*
X45520000Y41962156D01*
X44619528Y41962156D01*
X44583787Y42056395D01*
X44493498Y42187201D01*
X44493495Y42187204D01*
X44493493Y42187206D01*
X44374529Y42292599D01*
X44374530Y42292599D01*
X44300872Y42331258D01*
X44250660Y42379843D01*
X44234499Y42441054D01*
X44234499Y43035064D01*
X44234499Y43035066D01*
X44229968Y43057845D01*
X45520000Y43057845D01*
X45520000Y42760000D01*
X47270000Y42760000D01*
X47270000Y43510000D01*
X45972155Y43510000D01*
X45912627Y43503599D01*
X45912620Y43503597D01*
X45777913Y43453355D01*
X45777906Y43453351D01*
X45662812Y43367191D01*
X45662809Y43367188D01*
X45576649Y43252094D01*
X45576645Y43252087D01*
X45526403Y43117380D01*
X45526401Y43117373D01*
X45520000Y43057845D01*
X44229968Y43057845D01*
X44219734Y43109301D01*
X44170684Y43182709D01*
X44163484Y43193485D01*
X44096251Y43238408D01*
X44079301Y43249734D01*
X44079299Y43249735D01*
X44079296Y43249736D01*
X44005069Y43264500D01*
X40954936Y43264500D01*
X40880698Y43249734D01*
X40796515Y43193485D01*
X40740266Y43109301D01*
X40740264Y43109297D01*
X40725500Y43035072D01*
X31048117Y43035072D01*
X30993498Y43114201D01*
X30993495Y43114204D01*
X30993493Y43114206D01*
X30874530Y43219599D01*
X30733791Y43293464D01*
X30579472Y43331500D01*
X30579471Y43331500D01*
X30420529Y43331500D01*
X30420528Y43331500D01*
X30266208Y43293464D01*
X30125469Y43219599D01*
X30006506Y43114206D01*
X30006501Y43114200D01*
X30005023Y43112058D01*
X30003537Y43110855D01*
X30001529Y43108587D01*
X30001151Y43108922D01*
X29950739Y43068069D01*
X29902974Y43058500D01*
X28526775Y43058500D01*
X28454003Y43039001D01*
X28429745Y43032501D01*
X28342754Y42982277D01*
X28342751Y42982275D01*
X28271722Y42911245D01*
X25851295Y40490819D01*
X25789972Y40457334D01*
X25763614Y40454500D01*
X25620528Y40454500D01*
X25466208Y40416464D01*
X25325469Y40342599D01*
X25206506Y40237206D01*
X25206500Y40237199D01*
X25116214Y40106398D01*
X25059850Y39957782D01*
X25040693Y39800001D01*
X23491584Y39800001D01*
X23540149Y39928054D01*
X23559307Y40085836D01*
X23549080Y40170060D01*
X23540149Y40243618D01*
X23509474Y40324500D01*
X23483787Y40392231D01*
X23393498Y40523037D01*
X23393495Y40523040D01*
X23393493Y40523042D01*
X23274530Y40628435D01*
X23133791Y40702300D01*
X22979472Y40740336D01*
X22979471Y40740336D01*
X22820529Y40740336D01*
X22820528Y40740336D01*
X22666208Y40702300D01*
X22525469Y40628435D01*
X22406506Y40523042D01*
X22406500Y40523035D01*
X22316212Y40392231D01*
X22315505Y40390882D01*
X22314725Y40390077D01*
X22311952Y40386058D01*
X22311284Y40386520D01*
X22266924Y40340666D01*
X22205705Y40324500D01*
X17945911Y40324500D01*
X17878872Y40344185D01*
X17833117Y40396989D01*
X17823173Y40466147D01*
X17852198Y40529703D01*
X17858230Y40536181D01*
X18381229Y41059181D01*
X18442552Y41092666D01*
X18468910Y41095500D01*
X18579472Y41095500D01*
X18630911Y41108179D01*
X18733793Y41133537D01*
X18874529Y41207401D01*
X18993498Y41312799D01*
X19083787Y41443605D01*
X19140149Y41592218D01*
X19159307Y41750000D01*
X19140149Y41907782D01*
X19109905Y41987529D01*
X19104538Y42057192D01*
X19137685Y42118698D01*
X19198823Y42152520D01*
X19225847Y42155500D01*
X23671699Y42155500D01*
X23738738Y42135815D01*
X23759380Y42119181D01*
X23785385Y42093176D01*
X23818870Y42031853D01*
X23820800Y41990550D01*
X23810974Y41909620D01*
X23810974Y41909619D01*
X23830131Y41751838D01*
X23886495Y41603222D01*
X23958562Y41498815D01*
X23976783Y41472418D01*
X23976785Y41472416D01*
X23976787Y41472414D01*
X24095750Y41367021D01*
X24095752Y41367020D01*
X24236488Y41293156D01*
X24272885Y41284185D01*
X24390809Y41255119D01*
X24390810Y41255119D01*
X24549753Y41255119D01*
X24601192Y41267798D01*
X24704074Y41293156D01*
X24844810Y41367020D01*
X24963779Y41472418D01*
X25054068Y41603224D01*
X25110430Y41751837D01*
X25129588Y41909619D01*
X25121887Y41973039D01*
X25110430Y42067401D01*
X25090792Y42119181D01*
X25054068Y42216014D01*
X24963779Y42346820D01*
X24963776Y42346823D01*
X24963774Y42346825D01*
X24891786Y42410601D01*
X24854659Y42469790D01*
X24855427Y42539656D01*
X24893845Y42598015D01*
X24944338Y42623813D01*
X24983793Y42633537D01*
X25124529Y42707401D01*
X25243498Y42812799D01*
X25333787Y42943605D01*
X25390149Y43092218D01*
X25409307Y43250000D01*
X25407546Y43264500D01*
X25390149Y43407782D01*
X25372865Y43453355D01*
X25333787Y43556395D01*
X25243498Y43687201D01*
X25243495Y43687204D01*
X25243493Y43687206D01*
X25124530Y43792599D01*
X24983791Y43866464D01*
X24829472Y43904500D01*
X24829471Y43904500D01*
X24670529Y43904500D01*
X24670528Y43904500D01*
X24516208Y43866464D01*
X24375469Y43792599D01*
X24256506Y43687206D01*
X24256500Y43687199D01*
X24166214Y43556398D01*
X24166213Y43556395D01*
X24127134Y43453351D01*
X24119995Y43434528D01*
X24077817Y43378826D01*
X24012219Y43354769D01*
X24004053Y43354500D01*
X10798201Y43354500D01*
X10731162Y43374185D01*
X10710520Y43390819D01*
X9351338Y44750001D01*
X16840693Y44750001D01*
X16840693Y44750000D01*
X16859850Y44592219D01*
X16894001Y44502173D01*
X16910980Y44457402D01*
X16916214Y44443603D01*
X16978806Y44352924D01*
X17006502Y44312799D01*
X17006504Y44312797D01*
X17006506Y44312795D01*
X17125469Y44207402D01*
X17125471Y44207401D01*
X17266207Y44133537D01*
X17343368Y44114519D01*
X17420528Y44095500D01*
X17420529Y44095500D01*
X17579472Y44095500D01*
X17630911Y44108179D01*
X17733793Y44133537D01*
X17874529Y44207401D01*
X17891251Y44222216D01*
X17995210Y44314315D01*
X18058443Y44344037D01*
X18077437Y44345500D01*
X22803252Y44345500D01*
X22803253Y44345500D01*
X22828636Y44352303D01*
X22890409Y44352924D01*
X22892933Y44352302D01*
X22920526Y44345501D01*
X22920527Y44345500D01*
X22920529Y44345500D01*
X23079472Y44345500D01*
X23130911Y44358179D01*
X23233793Y44383537D01*
X23374529Y44457401D01*
X23493498Y44562799D01*
X23583787Y44693605D01*
X23640149Y44842218D01*
X23659307Y45000000D01*
X23652459Y45056395D01*
X23640149Y45157782D01*
X23611042Y45234529D01*
X23583787Y45306395D01*
X23493498Y45437201D01*
X23493495Y45437204D01*
X23493493Y45437206D01*
X23374530Y45542599D01*
X23233791Y45616464D01*
X23079472Y45654500D01*
X23079471Y45654500D01*
X22920529Y45654500D01*
X22920528Y45654500D01*
X22766208Y45616464D01*
X22625469Y45542599D01*
X22506506Y45437206D01*
X22506500Y45437199D01*
X22416214Y45306397D01*
X22416213Y45306396D01*
X22388958Y45234529D01*
X22346780Y45178826D01*
X22281182Y45154769D01*
X22273016Y45154500D01*
X18077437Y45154500D01*
X18010398Y45174185D01*
X17995210Y45185685D01*
X17874530Y45292599D01*
X17733791Y45366464D01*
X17579472Y45404500D01*
X17579471Y45404500D01*
X17420529Y45404500D01*
X17420528Y45404500D01*
X17266208Y45366464D01*
X17125469Y45292599D01*
X17006506Y45187206D01*
X17006500Y45187199D01*
X16916214Y45056398D01*
X16859850Y44907782D01*
X16840693Y44750001D01*
X9351338Y44750001D01*
X9310818Y44790521D01*
X9277333Y44851844D01*
X9274499Y44878202D01*
X9274499Y45575064D01*
X9274499Y45575066D01*
X9259734Y45649301D01*
X9210585Y45722857D01*
X9203484Y45733485D01*
X9136251Y45778408D01*
X9119301Y45789734D01*
X9119299Y45789735D01*
X9119296Y45789736D01*
X9045071Y45804500D01*
X9045067Y45804500D01*
X6682737Y45804500D01*
X6615698Y45824185D01*
X6569943Y45876989D01*
X6559999Y45946147D01*
X6575350Y45990500D01*
X6578025Y45995136D01*
X6578030Y45995142D01*
X6638940Y46142194D01*
X6659716Y46300000D01*
X6638940Y46457806D01*
X6578030Y46604858D01*
X6578029Y46604859D01*
X6578029Y46604860D01*
X6554123Y46636014D01*
X6528928Y46701183D01*
X6542966Y46769628D01*
X6591779Y46819618D01*
X6652498Y46835501D01*
X9045064Y46835501D01*
X9045066Y46835501D01*
X9119301Y46850266D01*
X9203484Y46906516D01*
X9259734Y46990699D01*
X9274500Y47064933D01*
X9274499Y48115066D01*
X9259734Y48189301D01*
X9224392Y48242194D01*
X9203484Y48273485D01*
X9153019Y48307204D01*
X9119301Y48329734D01*
X9119299Y48329735D01*
X9119296Y48329736D01*
X9045071Y48344500D01*
X9045067Y48344500D01*
X8019618Y48344500D01*
X7952579Y48364185D01*
X7906824Y48416989D01*
X7899846Y48436398D01*
X7875501Y48527254D01*
X7825276Y48614247D01*
X7754247Y48685276D01*
X7384247Y49055276D01*
X7382309Y49056395D01*
X7325824Y49089007D01*
X7285776Y49125951D01*
X7247735Y49181063D01*
X7225853Y49247415D01*
X7243318Y49315067D01*
X7294586Y49362537D01*
X7349786Y49375501D01*
X9045064Y49375501D01*
X9045066Y49375501D01*
X9119301Y49390266D01*
X9203484Y49446516D01*
X9259734Y49530699D01*
X9274500Y49604933D01*
X9274499Y50655066D01*
X9259734Y50729301D01*
X9240958Y50757401D01*
X9203484Y50813485D01*
X9138674Y50856789D01*
X9119301Y50869734D01*
X9119299Y50869735D01*
X9119296Y50869736D01*
X9045071Y50884500D01*
X9045067Y50884500D01*
X6728068Y50884500D01*
X6661029Y50904185D01*
X6637411Y50925912D01*
X6636885Y50925384D01*
X6631136Y50931133D01*
X6504859Y51028030D01*
X6504856Y51028031D01*
X6357809Y51088939D01*
X6357807Y51088940D01*
X6357806Y51088940D01*
X6278903Y51099328D01*
X6200001Y51109716D01*
X6199999Y51109716D01*
X6042194Y51088940D01*
X6042190Y51088939D01*
X5895144Y51028032D01*
X5768866Y50931134D01*
X5671968Y50804856D01*
X5611061Y50657810D01*
X5611060Y50657806D01*
X5591207Y50507007D01*
X5590284Y50500000D01*
X5602946Y50403821D01*
X5611060Y50342195D01*
X5611061Y50342191D01*
X5671969Y50195144D01*
X5671970Y50195142D01*
X5739876Y50106645D01*
X5765070Y50041476D01*
X5765500Y50031159D01*
X5765500Y49853399D01*
X5745815Y49786360D01*
X5693011Y49740605D01*
X5623853Y49730661D01*
X5583047Y49744041D01*
X5405496Y49838944D01*
X5206716Y49899243D01*
X5000000Y49919602D01*
X4793283Y49899243D01*
X4594503Y49838944D01*
X4562453Y49821812D01*
X4494050Y49807570D01*
X4428806Y49832570D01*
X4418811Y49846174D01*
X4416319Y49843681D01*
X4380000Y49880000D01*
X2730000Y49880000D01*
X2730000Y49130000D01*
X3830178Y49130000D01*
X3897217Y49110315D01*
X3942972Y49057511D01*
X3953580Y48993848D01*
X3946121Y48918103D01*
X3940398Y48860000D01*
X3960757Y48653284D01*
X3986049Y48569908D01*
X4005891Y48504496D01*
X4005892Y48504495D01*
X4006515Y48434628D01*
X3969267Y48375515D01*
X3905973Y48345924D01*
X3887231Y48344500D01*
X954936Y48344500D01*
X880698Y48329734D01*
X796515Y48273485D01*
X740266Y48189301D01*
X740264Y48189297D01*
X725500Y48115072D01*
X300500Y48115072D01*
X300500Y49496250D01*
X300726Y49503737D01*
X302750Y49537201D01*
X316084Y49757641D01*
X317889Y49772500D01*
X334031Y49860587D01*
X365477Y49922978D01*
X425664Y49958465D01*
X495482Y49955779D01*
X552765Y49915774D01*
X579325Y49851149D01*
X580000Y49838233D01*
X580000Y49582156D01*
X586401Y49522628D01*
X586403Y49522621D01*
X636645Y49387914D01*
X636649Y49387907D01*
X722809Y49272813D01*
X722812Y49272810D01*
X837906Y49186650D01*
X837913Y49186646D01*
X972620Y49136404D01*
X972627Y49136402D01*
X1032155Y49130001D01*
X1032172Y49130000D01*
X2230000Y49130000D01*
X2230000Y50380000D01*
X2730000Y50380000D01*
X4380000Y50380000D01*
X4380000Y50677828D01*
X4379999Y50677845D01*
X4373598Y50737373D01*
X4373596Y50737380D01*
X4323354Y50872087D01*
X4323350Y50872094D01*
X4237190Y50987188D01*
X4237187Y50987191D01*
X4122093Y51073351D01*
X4122086Y51073355D01*
X3987379Y51123597D01*
X3987372Y51123599D01*
X3927844Y51130000D01*
X2730000Y51130000D01*
X2730000Y50380000D01*
X2230000Y50380000D01*
X2230000Y51130000D01*
X1397342Y51130000D01*
X1330303Y51149685D01*
X1284548Y51202489D01*
X1274604Y51271647D01*
X1303629Y51335203D01*
X1333192Y51360117D01*
X1471421Y51443680D01*
X1484680Y51450639D01*
X1581685Y51494297D01*
X1713219Y51553496D01*
X1727202Y51558798D01*
X1966467Y51633357D01*
X1980995Y51636938D01*
X2227506Y51682112D01*
X2242359Y51683916D01*
X2496264Y51699274D01*
X2503751Y51699500D01*
X2547595Y51699500D01*
X17370615Y51699500D01*
X17437654Y51679815D01*
G37*
G04 #@! TD.AperFunction*
G04 #@! TA.AperFunction,Conductor*
G36*
X40423039Y50575815D02*
G01*
X40468794Y50523011D01*
X40480000Y50471500D01*
X40480000Y50380000D01*
X44480000Y50380000D01*
X44480000Y50471500D01*
X44499685Y50538539D01*
X44552489Y50584294D01*
X44604000Y50595500D01*
X45481089Y50595500D01*
X45548128Y50575815D01*
X45568770Y50559181D01*
X45829181Y50298770D01*
X45862666Y50237447D01*
X45865500Y50211089D01*
X45865500Y49776026D01*
X45845815Y49708987D01*
X45793011Y49663232D01*
X45723853Y49653288D01*
X45662836Y49680172D01*
X45588683Y49741027D01*
X45588677Y49741031D01*
X45405496Y49838944D01*
X45206716Y49899243D01*
X45000000Y49919602D01*
X44793283Y49899243D01*
X44609272Y49843424D01*
X44539405Y49842801D01*
X44485596Y49874404D01*
X44480000Y49880000D01*
X42730000Y49880000D01*
X42730000Y49130000D01*
X43830178Y49130000D01*
X43897217Y49110315D01*
X43942972Y49057511D01*
X43953580Y48993848D01*
X43940398Y48860000D01*
X43948098Y48781816D01*
X43953581Y48726154D01*
X43940562Y48657508D01*
X43892497Y48606798D01*
X43830178Y48590000D01*
X42730000Y48590000D01*
X42730000Y47840000D01*
X44479999Y47840000D01*
X44485595Y47845596D01*
X44546917Y47879082D01*
X44609269Y47876578D01*
X44793282Y47820758D01*
X45000000Y47800398D01*
X45206718Y47820758D01*
X45405492Y47881055D01*
X45405496Y47881057D01*
X45583047Y47975960D01*
X45651449Y47990202D01*
X45716693Y47965202D01*
X45758064Y47908897D01*
X45765500Y47866602D01*
X45765500Y47391386D01*
X45745815Y47324347D01*
X45729181Y47303705D01*
X45283999Y46858524D01*
X45222676Y46825039D01*
X45152984Y46830023D01*
X45138693Y46836408D01*
X45016846Y46900357D01*
X44862527Y46938393D01*
X44862526Y46938393D01*
X44703584Y46938393D01*
X44703582Y46938393D01*
X44633674Y46921163D01*
X44563872Y46924233D01*
X44506810Y46964553D01*
X44480605Y47029322D01*
X44480000Y47041560D01*
X44480000Y47340000D01*
X42354000Y47340000D01*
X42286961Y47359685D01*
X42241206Y47412489D01*
X42230000Y47464000D01*
X42230000Y48590000D01*
X40932155Y48590000D01*
X40872627Y48583599D01*
X40872620Y48583597D01*
X40737913Y48533355D01*
X40737906Y48533351D01*
X40622812Y48447191D01*
X40622809Y48447188D01*
X40536649Y48332094D01*
X40536645Y48332087D01*
X40486403Y48197380D01*
X40486401Y48197373D01*
X40480000Y48137845D01*
X40480000Y47858885D01*
X40460315Y47791846D01*
X40407511Y47746091D01*
X40338353Y47736147D01*
X40274797Y47765172D01*
X40268319Y47771204D01*
X39234248Y48805275D01*
X39234240Y48805281D01*
X39189460Y48831134D01*
X39189457Y48831135D01*
X39147256Y48855500D01*
X39147255Y48855501D01*
X39122380Y48862166D01*
X39050225Y48881500D01*
X39050222Y48881500D01*
X33347022Y48881500D01*
X33279983Y48901185D01*
X33248515Y48931631D01*
X33248467Y48931587D01*
X33247905Y48932221D01*
X33244973Y48935058D01*
X33243494Y48937201D01*
X33243490Y48937204D01*
X33243489Y48937206D01*
X33124526Y49042599D01*
X32983787Y49116464D01*
X32829468Y49154500D01*
X32829467Y49154500D01*
X32670525Y49154500D01*
X32670524Y49154500D01*
X32516204Y49116464D01*
X32375465Y49042599D01*
X32258122Y48938641D01*
X32194889Y48908919D01*
X32125626Y48918103D01*
X32072322Y48963275D01*
X32051902Y49030094D01*
X32052799Y49046403D01*
X32053877Y49055276D01*
X32059307Y49100000D01*
X32058666Y49105276D01*
X32040149Y49257782D01*
X32037225Y49265492D01*
X31983787Y49406395D01*
X31893498Y49537201D01*
X31893495Y49537204D01*
X31893493Y49537206D01*
X31842755Y49582156D01*
X40480000Y49582156D01*
X40486401Y49522628D01*
X40486403Y49522621D01*
X40536645Y49387914D01*
X40536649Y49387907D01*
X40622809Y49272813D01*
X40622812Y49272810D01*
X40737906Y49186650D01*
X40737913Y49186646D01*
X40872620Y49136404D01*
X40872627Y49136402D01*
X40932155Y49130001D01*
X40932172Y49130000D01*
X42230000Y49130000D01*
X42230000Y49880000D01*
X40480000Y49880000D01*
X40480000Y49582156D01*
X31842755Y49582156D01*
X31774530Y49642599D01*
X31633791Y49716464D01*
X31479472Y49754500D01*
X31479471Y49754500D01*
X31320529Y49754500D01*
X31320528Y49754500D01*
X31166208Y49716464D01*
X31025469Y49642599D01*
X30906506Y49537206D01*
X30906500Y49537199D01*
X30816214Y49406398D01*
X30810096Y49390267D01*
X30765551Y49272810D01*
X30761272Y49261528D01*
X30719094Y49205826D01*
X30653496Y49181769D01*
X30645330Y49181500D01*
X28363572Y49181500D01*
X28296533Y49201185D01*
X28250778Y49253989D01*
X28240834Y49323147D01*
X28269859Y49386703D01*
X28275891Y49393181D01*
X29441891Y50559181D01*
X29503214Y50592666D01*
X29529572Y50595500D01*
X40356000Y50595500D01*
X40423039Y50575815D01*
G37*
G04 #@! TD.AperFunction*
G04 #@! TA.AperFunction,Conductor*
G36*
X23377513Y50975815D02*
G01*
X23423268Y50923011D01*
X23433212Y50853853D01*
X23417646Y50814114D01*
X23419694Y50813039D01*
X23416208Y50806399D01*
X23359844Y50657782D01*
X23340687Y50500001D01*
X23340687Y50500000D01*
X23359844Y50342219D01*
X23383459Y50279953D01*
X23416207Y50193605D01*
X23416208Y50193604D01*
X23419048Y50188192D01*
X23432769Y50119683D01*
X23407273Y50054631D01*
X23350655Y50013690D01*
X23309248Y50006572D01*
X21414089Y50006572D01*
X21370115Y50014631D01*
X21365283Y50016464D01*
X21210964Y50054500D01*
X21210963Y50054500D01*
X21052021Y50054500D01*
X21052020Y50054500D01*
X20897700Y50016464D01*
X20756959Y49942598D01*
X20753518Y49940222D01*
X20750602Y49939261D01*
X20750321Y49939113D01*
X20750296Y49939160D01*
X20687162Y49918344D01*
X20619511Y49935814D01*
X20601303Y49950000D01*
X19683012Y49950000D01*
X19715925Y50007007D01*
X19750000Y50134174D01*
X19750000Y50265826D01*
X19715925Y50392993D01*
X19683012Y50450000D01*
X20600000Y50450000D01*
X20600000Y50871500D01*
X20619685Y50938539D01*
X20672489Y50984294D01*
X20724000Y50995500D01*
X23310474Y50995500D01*
X23377513Y50975815D01*
G37*
G04 #@! TD.AperFunction*
M02*
