M48
; DRILL file {KiCad 8.0.6-8.0.6-0~ubuntu24.04.1} date 2024-11-04T16:09:15-0500
; FORMAT={-:-/ absolute / inch / decimal}
; #@! TF.CreationDate,2024-11-04T16:09:15-05:00
; #@! TF.GenerationSoftware,Kicad,Pcbnew,8.0.6-8.0.6-0~ubuntu24.04.1
; #@! TF.FileFunction,Plated,1,2,PTH
FMAT,2
INCH
; #@! TA.AperFunction,Plated,PTH,ViaDrill
T1C0.0118
; #@! TA.AperFunction,Plated,PTH,ComponentDrill
T2C0.0118
; #@! TA.AperFunction,Plated,PTH,ViaDrill
T3C0.0157
; #@! TA.AperFunction,Plated,PTH,ComponentDrill
T4C0.0157
; #@! TA.AperFunction,Plated,PTH,ComponentDrill
T5C0.0394
%
G90
G05
T1
X0.2382Y1.8228
X0.2441Y1.9882
X0.6988Y1.169
X0.7155Y0.8685
X0.7795Y0.7795
X0.9744Y0.8563
X1.0068Y1.9055
X1.014Y1.3243
X1.1417Y1.6496
X1.2025Y1.131
X1.2598Y1.6496
X1.3091Y1.1063
T2
X0.1102Y0.0276
X0.1811Y2.0197
X0.2165Y0.0472
X0.3819Y1.8957
X0.5866Y0.2913
X0.6083Y2.0197
X0.6181Y0.7717
X0.6654Y1.1102
X0.6693Y1.0394
X0.7559Y0.5472
X0.7992Y0.5079
X0.8858Y0.5984
X0.9291Y1.1437
X0.9291Y1.0433
X1.0157Y1.4685
X1.0315Y1.1437
X1.0315Y1.0433
X1.0748Y0.7323
X1.0748Y0.6535
X1.0748Y0.5748
X1.0748Y0.4921
X1.0748Y0.4094
X1.1752Y1.5138
X1.1969Y1.2835
X1.2323Y1.1969
X1.2874Y0.1969
X1.3307Y1.0
X1.4173Y1.1063
X1.5591Y0.4843
X1.5591Y0.3583
T3
X0.1063Y1.6169
X0.1122Y1.8543
X0.1457Y1.2283
X0.1535Y1.1181
X0.1575Y0.0276
X0.1598Y1.5378
X0.1673Y1.4665
X0.1673Y1.378
X0.1723Y0.292
X0.187Y0.0689
X0.2008Y1.7067
X0.2067Y0.3248
X0.2176Y1.6092
X0.2264Y0.7776
X0.2264Y0.5512
X0.2362Y0.9547
X0.2362Y0.2283
X0.2618Y0.1949
X0.2657Y1.9193
X0.2913Y0.5157
X0.2913Y0.4169
X0.2933Y0.6298
X0.2953Y0.8169
X0.3051Y1.1024
X0.3071Y0.9252
X0.3248Y0.3406
X0.3346Y0.8465
X0.3346Y0.6303
X0.3502Y1.3839
X0.374Y1.2697
X0.3819Y1.0354
X0.4035Y0.2657
X0.4047Y0.048
X0.4331Y1.2126
X0.4409Y0.4016
X0.4449Y0.937
X0.4449Y0.7992
X0.4449Y0.5187
X0.4488Y1.0945
X0.4488Y0.6654
X0.4957Y1.6402
X0.5197Y0.4921
X0.5236Y0.9803
X0.5236Y0.7638
X0.5866Y1.2047
X0.5945Y0.6575
X0.5984Y1.0906
X0.6575Y0.5472
X0.689Y1.7618
X0.7283Y1.6437
X0.8319Y1.9449
X0.8661Y1.6437
X0.876Y1.4331
X0.8875Y0.8541
X0.9016Y1.5782
X0.9055Y1.7717
X0.9449Y1.9882
X0.9634Y1.65
X0.9744Y1.7028
X1.0079Y2.0197
X1.0118Y1.5669
X1.0611Y1.882
X1.0827Y1.9213
X1.0837Y1.3219
X1.122Y2.0177
X1.122Y1.4075
X1.1575Y1.4055
X1.1772Y1.8917
X1.1811Y0.7874
X1.2008Y1.6802
X1.2283Y0.8071
X1.2362Y1.9331
X1.2894Y1.9094
X1.3189Y1.2795
X1.3504Y1.8701
X1.3543Y1.752
X1.3543Y1.2244
X1.3583Y1.5984
X1.4252Y1.3819
X1.4257Y1.4409
X1.4291Y1.6575
X1.5Y1.8701
X1.5039Y1.3386
X1.5079Y1.748
X1.5079Y1.6024
X1.5079Y1.4685
X1.5079Y1.2165
X1.5197Y1.0866
X1.5827Y1.122
X1.5827Y0.874
X1.5903Y0.5985
X1.5933Y0.7776
X1.5945Y0.4528
X1.5945Y0.3386
X1.5945Y0.1697
X1.6142Y1.5551
X1.6142Y1.3169
X1.624Y1.7913
X1.6417Y1.4303
X1.6457Y1.185
X1.6529Y1.7303
X1.6575Y1.6299
X1.6634Y1.3161
X1.6732Y1.9213
X1.7323Y1.6437
X1.7323Y1.4665
X1.7323Y1.2303
X1.7608Y0.919
X1.7631Y1.8222
X1.7717Y0.0685
X1.7777Y0.9777
X1.7795Y1.7835
X1.7815Y1.0433
X1.7874Y0.6417
X1.7913Y0.7106
X1.7913Y0.4724
X1.7992Y1.8222
X1.8012Y0.8071
X1.8012Y0.3937
X1.8012Y0.1969
X1.8073Y0.9488
X1.8159Y1.0204
X1.8504Y2.0177
X1.8504Y0.0295
X1.8898Y1.122
X1.8898Y0.5276
X1.8898Y0.3303
X1.8937Y1.6693
X1.8937Y1.2205
X1.8976Y1.374
X1.9193Y0.2303
X1.9213Y0.6303
X1.9409Y0.9252
T4
X0.0512Y1.8228
X0.0512Y1.622
X0.0512Y1.4252
X0.0512Y1.122
X0.0512Y0.8268
X0.0512Y0.5236
X0.0512Y0.2244
X0.1201Y0.622
X0.1339Y0.3228
X0.1378Y0.4252
X0.1654Y1.4213
X0.1969Y1.3189
X0.1969Y1.122
X0.1969Y0.9213
X0.1988Y1.2264
X0.2441Y0.622
X0.2677Y1.5236
X0.4449Y0.1929
X0.4449Y0.0787
X0.4685Y1.7283
X0.4685Y1.5236
X0.6102Y0.0354
X0.6358Y1.8425
X0.6398Y1.7323
X0.8425Y0.2638
X0.8425Y0.1732
X0.8425Y0.0354
X0.9016Y1.9921
X1.126Y0.2638
X1.126Y0.1732
X1.126Y0.0354
X1.1673Y1.9685
X1.1969Y0.9094
X1.2795Y0.6732
X1.3071Y0.5827
X1.3307Y1.9429
X1.4331Y0.7047
X1.4409Y1.9724
X1.5591Y0.7441
X1.5591Y0.563
X1.5591Y0.4213
X1.5591Y0.2756
X1.5709Y0.122
X1.7303Y0.6122
X1.7638Y0.4291
X1.7677Y0.7559
X1.7717Y0.3268
X1.7756Y1.5748
X1.7756Y1.315
X1.7913Y1.1654
X1.7992Y0.9016
X1.8701Y1.9213
X1.9016Y0.122
T5
X0.4579Y1.9764
X0.5579Y1.9764
X0.6579Y1.9764
X0.7579Y1.9764
M30
