<?xml version="1.0" encoding="UTF-8" standalone="no"?>
<svg
   width="15.55mm"
   height="15.55mm"
   viewBox="0 0 15.55 15.55"
   version="1.1"
   id="svg109"
   sodipodi:docname="bond23x-m.svg"
   inkscape:version="1.3.2 (091e20ef0f, 2023-11-25)"
   xmlns:inkscape="http://www.inkscape.org/namespaces/inkscape"
   xmlns:sodipodi="http://sodipodi.sourceforge.net/DTD/sodipodi-0.dtd"
   xmlns="http://www.w3.org/2000/svg"
   xmlns:svg="http://www.w3.org/2000/svg"
   xmlns:rdf="http://www.w3.org/1999/02/22-rdf-syntax-ns#"
   xmlns:cc="http://creativecommons.org/ns#"
   xmlns:dc="http://purl.org/dc/elements/1.1/">
  <defs
     id="defs109">
    <inkscape:path-effect
       effect="offset"
       id="path-effect165"
       is_visible="true"
       lpeversion="1.2"
       linejoin_type="round"
       unit="mm"
       offset="-0.2"
       miter_limit="4"
       attempt_force_join="false"
       update_on_knot_move="true" />
    <inkscape:path-effect
       effect="offset"
       id="path-effect164"
       is_visible="true"
       lpeversion="1.2"
       linejoin_type="round"
       unit="mm"
       offset="0.4"
       miter_limit="4"
       attempt_force_join="false"
       update_on_knot_move="true" />
    <inkscape:path-effect
       effect="offset"
       id="path-effect2"
       is_visible="true"
       lpeversion="1.2"
       linejoin_type="round"
       unit="mm"
       offset="-0.8"
       miter_limit="4"
       attempt_force_join="false"
       update_on_knot_move="true" />
    <inkscape:path-effect
       effect="offset"
       id="path-effect1"
       is_visible="true"
       lpeversion="1.2"
       linejoin_type="round"
       unit="mm"
       offset="1"
       miter_limit="4"
       attempt_force_join="false"
       update_on_knot_move="true" />
    <inkscape:path-effect
       effect="offset"
       id="path-effect678"
       is_visible="true"
       lpeversion="1.2"
       linejoin_type="miter"
       unit="mm"
       offset="0"
       miter_limit="4"
       attempt_force_join="false"
       update_on_knot_move="true" />
    <inkscape:path-effect
       effect="offset"
       id="path-effect653"
       is_visible="true"
       lpeversion="1.2"
       linejoin_type="miter"
       unit="mm"
       offset="0"
       miter_limit="4"
       attempt_force_join="false"
       update_on_knot_move="true" />
  </defs>
  <sodipodi:namedview
     id="namedview109"
     pagecolor="#ffffff"
     bordercolor="#666666"
     borderopacity="1.0"
     inkscape:showpageshadow="2"
     inkscape:pageopacity="0.0"
     inkscape:pagecheckerboard="0"
     inkscape:deskcolor="#d1d1d1"
     inkscape:document-units="mm"
     inkscape:zoom="17.287245"
     inkscape:cx="29.385828"
     inkscape:cy="29.385828"
     inkscape:window-width="1920"
     inkscape:window-height="1216"
     inkscape:window-x="0"
     inkscape:window-y="0"
     inkscape:window-maximized="1"
     inkscape:current-layer="svg109" />
  <title
     id="title1">Exported SVG</title>
  <style
     id="style1"><![CDATA[
polygon {
shape-rendering:crispEdges;
stroke-width:16.426968;
}
.s0 {
stroke:#000000;
stroke-width:11.485752;
stroke-linecap:round;
stroke-linejoin:round;
fill:none;
}
.s1 {
stroke:#000000;
stroke-width:11.485752;
stroke-linecap:round;
stroke-linejoin:round;
fill:none;
}
.s2 {
stroke:#19b219;
stroke-width:11.485752;
stroke-linecap:round;
stroke-linejoin:round;
fill:none;
}
.s3 {
stroke:#7f4c00;
stroke-width:11.485752;
stroke-linecap:round;
stroke-linejoin:round;
fill:none;
}
.s4 {
stroke:#00cc00;
stroke-width:11.485752;
stroke-linecap:round;
stroke-linejoin:round;
fill:none;
}
.s5 {
stroke:#000000;
stroke-width:7.657168;
stroke-linecap:round;
stroke-linejoin:round;
fill:none;
}
.s6 {
stroke:#ff19ff;
stroke-width:7.657168;
stroke-linecap:round;
stroke-linejoin:round;
fill:none;
}
.s7 {
stroke:#ff0000;
stroke-width:11.485752;
stroke-linecap:round;
stroke-linejoin:round;
fill:none;
}
.s8 {
stroke:#ffff00;
stroke-width:11.485752;
stroke-linecap:round;
stroke-linejoin:round;
fill:none;
}
.s9 {
stroke:#001919;
stroke-width:7.657168;
stroke-linecap:round;
stroke-linejoin:round;
fill:none;
}
.sa {
stroke:#006666;
stroke-width:7.657168;
stroke-linecap:round;
stroke-linejoin:round;
fill:none;
}
.sb {
stroke:#00ffff;
stroke-width:22.971504;
stroke-linecap:round;
stroke-linejoin:round;
fill:none;
}
.sc {
stroke:#ff0000;
stroke-width:61.257344;
stroke-linecap:round;
stroke-linejoin:round;
fill:none;
}
.sd {
stroke:#191919;
stroke-width:7.657168;
stroke-linecap:round;
stroke-linejoin:round;
fill:none;
}
.se {
stroke:#000000;
stroke-width:7.657168;
stroke-linecap:round;
stroke-linejoin:round;
stroke-dasharray:114.858,114.858;
fill:none;
}
.sf {
stroke:#000000;
stroke-width:22.971504;
stroke-linecap:round;
stroke-linejoin:round;
fill:none;
}
]]></style>
  <path
     id="path430"
     style="color:#000000;fill:#000000;stroke:none;stroke-width:0.25;stroke-linejoin:round;stroke-dasharray:none;-inkscape-stroke:none"
     d="m 7.4609375,1.0957031 c 0.1096238,-0.00281 0.2025448,0.085715 0.2050781,0.1953125 l 0.013672,0.5957031 c 0.00196,0.1018667 0.080184,0.1859786 0.1816406,0.1953126 0.018164,0.00154 0.030556,0.00266 0.041016,0.00391 0.1074006,0.012315 0.2051491,-0.062942 0.2207032,-0.1699219 l 0.09375,-0.6230469 C 8.2331042,1.1847561 8.3371469,1.108717 8.4453125,1.125 l 0.2402344,0.037109 c 0.015459,0.00278 0.030537,0.00737 0.044922,0.013672 0.056099,0.024059 0.1201136,0.021181 0.1738281,-0.00781 0.037657,-0.020107 0.082016,-0.026481 0.1171875,-0.021484 l 0.2441406,0.044922 c 0.023876,0.00462 0.045737,0.012579 0.066406,0.025391 0.055835,0.034798 0.1252139,0.03991 0.1855468,0.013672 0.039894,-0.017645 0.085376,-0.023407 0.1191407,-0.015625 l 0.2402343,0.068359 C 9.9817129,1.3131299 10.043027,1.4261175 10.013672,1.53125 L 9.84375,2.140625 c -0.00673,0.015087 -0.013205,0.029977 -0.023437,0.042969 -0.093656,0.120935 -0.022412,0.297965 0.1289063,0.3203125 0.094305,0.013031 0.1853172,0.030515 0.2753902,0.052734 0.13968,0.03512 0.26957,-0.084462 0.246094,-0.2265625 -0.0073,-0.042247 -0.0014,-0.086801 0.01367,-0.1171875 l 0.318359,-0.5664062 c 0.05369,-0.095417 0.177936,-0.1299708 0.273438,-0.076172 l 0.216797,0.1230469 c 0.06431,0.036777 0.104174,0.1056535 0.101562,0.1796875 -0.0044,0.1285931 0.112007,0.2278283 0.238282,0.203125 0.04974,-0.00986 0.101475,5.568e-4 0.144531,0.027344 l 0.195312,0.1367188 c 0.08974,0.062547 0.113258,0.1895183 0.05078,0.2792969 l -0.359375,0.5175781 c -0.01165,0.012286 -0.02469,0.022273 -0.03906,0.03125 -0.105031,0.065799 -0.125542,0.2103075 -0.04297,0.3027344 0.139819,0.1559486 0.260651,0.3281536 0.361328,0.5136718 0.05498,0.1009902 0.183596,0.1349298 0.28125,0.074219 l 0.46875,-0.2871094 c 0.09327,-0.056694 0.218218,-0.026894 0.275391,0.066406 l 0.130859,0.2109375 c 0.02831,0.046522 0.03545,0.1036117 0.02149,0.1562499 -0.01225,0.054783 -9.07e-4,0.1121913 0.03125,0.1582032 l 0.002,0.00195 0.109375,0.2226562 c 0.02259,0.045818 0.02679,0.099627 0.01172,0.1484375 -0.02062,0.06659 -0.0051,0.1391121 0.04101,0.1914063 l 0.08203,0.203125 c 0.01749,0.044394 0.01755,0.093579 0.002,0.1386719 -0.02087,0.061399 -0.01068,0.1291077 0.02734,0.1816406 0.0033,0.00453 0.0069,0.00888 0.0098,0.013672 l 0.06641,0.2148437 c 0.01265,0.042317 0.01,0.087667 -0.0059,0.1289063 -0.02247,0.059589 -0.01522,0.1263174 0.01953,0.1796875 0.0049,0.00768 0.0079,0.017115 0.01172,0.025391 l 0.05078,0.2246094 c 0.009,0.039762 0.0056,0.081369 -0.0098,0.1191406 -0.02286,0.056689 -0.01855,0.1207207 0.01172,0.1738281 0.0068,0.011784 0.01329,0.024197 0.01758,0.037109 l 0.0293,0.2226562 c 0.0047,0.035828 6.5e-4,0.072288 -0.01367,0.1054688 -0.02403,0.054404 -0.02259,0.1166794 0.0039,0.1699219 0.0085,0.017166 0.01426,0.035825 0.01758,0.054687 2.49e-4,0.00142 0.0017,0.00248 0.002,0.00391 l 0.01172,0.2304688 c 0.0016,0.02793 -0.0038,0.055877 -0.01367,0.082031 -0.0179,0.047318 -0.0172,0.099661 0.002,0.1464844 0.01019,0.025102 0.01613,0.051848 0.01563,0.078125 l -0.0059,0.2304687 c -0.0026,0.022041 -0.0079,0.042518 -0.01758,0.0625 -0.0259,0.052701 -0.02732,0.1141207 -0.0039,0.1679688 0.01379,0.031613 0.01904,0.066613 0.01563,0.099609 l -0.02734,0.2480469 c -0.01157,0.1086969 -0.109895,0.1891449 -0.21875,0.1777343 l -0.90039,-0.09375 c -0.118126,-0.012294 -0.220877,0.080456 -0.220703,0.1992188 v 0.4941406 c -4.95e-4,0.1507006 0.159539,0.2477878 0.292968,0.1777344 0.04721,-0.024818 0.102382,-0.030676 0.144532,-0.017578 l 0.611328,0.2246093 c 0.103121,0.037987 0.155697,0.1549805 0.117187,0.2578125 l -0.08008,0.2109374 c -8.51e-4,0.0011 -0.0011,0.0028 -0.002,0.0039 -0.04202,0.05288 -0.05451,0.123404 -0.0332,0.1875 0.01552,0.04743 0.01178,0.09918 -0.0078,0.142579 l -0.101562,0.21875 -0.0039,0.0078 c -0.03137,0.04711 -0.0413,0.105307 -0.02734,0.160156 0.01542,0.05241 0.0077,0.108997 -0.01953,0.15625 l -0.125,0.216797 c -0.0297,0.04516 -0.03972,0.100532 -0.02734,0.154297 0.01338,0.05467 0.0031,0.112972 -0.02734,0.158203 l -0.140625,0.205078 c -0.0229,0.03334 -0.03516,0.07283 -0.03516,0.113282 v 0.002 c -1.14e-4,0.01377 0.0012,0.02751 0.0039,0.04101 0.01216,0.05891 -0.004,0.120741 -0.04101,0.166016 l -0.144532,0.173828 c -0.03682,0.04465 -0.05249,0.103068 -0.04297,0.160156 0.01083,0.06379 -0.0091,0.130091 -0.05469,0.175782 l -0.173828,0.173828 c -0.02321,0.02195 -0.05134,0.03803 -0.08203,0.04687 -0.101275,0.02891 -0.162773,0.131409 -0.140625,0.234375 0.0167,0.07741 -0.0144,0.156931 -0.07813,0.203125 l -0.191407,0.138672 c -0.01335,0.0067 -0.02649,0.01208 -0.04101,0.01563 -0.09583,0.02315 -0.160493,0.112687 -0.152344,0.210937 0.0066,0.07151 -0.02611,0.143342 -0.08398,0.183594 l -0.205078,0.140625 c -0.0903,0.0621 -0.217237,0.03785 -0.279297,-0.05274 l -0.492188,-0.716796 c -0.04958,-0.07256 -0.140707,-0.104257 -0.224609,-0.07813 -0.08597,0.02728 -0.16723,0.05258 -0.25,0.07031 -0.131076,0.03153 -0.1940419,0.18108 -0.125,0.296875 0.0022,0.0073 0.0048,0.01448 0.0078,0.02148 l 0.205078,0.578125 c 0.03697,0.103155 -0.01954,0.21895 -0.123046,0.25586 L 9.875,14.248047 c -0.057937,0.01842 -0.121359,0.01039 -0.171875,-0.02344 -0.084549,-0.05644 -0.1979842,-0.04047 -0.2636719,0.03711 -0.027829,0.03278 -0.066522,0.05499 -0.1074218,0.06445 l -0.2324219,0.05273 c -0.055108,0.0097 -0.1117981,-0.0031 -0.15625,-0.03711 -0.080631,-0.06197 -0.1949248,-0.05356 -0.265625,0.01953 -0.033095,0.03447 -0.078032,0.056 -0.125,0.06055 L 8.3125,14.445313 c -0.053256,0.0024 -0.1053316,-0.01661 -0.1445312,-0.05274 -0.078214,-0.07218 -0.1992556,-0.07046 -0.2753907,0.0039 -0.035763,0.03531 -0.082631,0.0569 -0.1328125,0.05859 l -0.2324219,-0.0078 c -0.048553,-0.0039 -0.093146,-0.02548 -0.1269531,-0.06055 -0.073485,-0.07722 -0.1946184,-0.08323 -0.2753906,-0.01367 -0.042325,0.03632 -0.09716,0.05417 -0.1445313,0.04883 L 6.7324219,14.382813 C 6.6250411,14.365569 6.5501425,14.263202 6.5664062,14.15625 l 0.099609,-0.638672 c 0.00569,-0.03126 0.017768,-0.06072 0.037109,-0.08594 0.08846,-0.116579 0.025869,-0.285575 -0.1171875,-0.316407 -0.0834,-0.01754 -0.1458812,-0.03115 -0.1777344,-0.03711 -0.012282,-0.0018 -0.024706,-0.0025 -0.037109,-0.002 H 6.1445312 c -0.1319317,7.86e-4 -0.2269689,0.126855 -0.1914062,0.253906 0.012626,0.04386 0.00903,0.09074 -0.00781,0.13086 L 5.6875,14.058594 c -0.042938,0.100243 -0.1614281,0.147865 -0.2617188,0.105469 l -0.2285156,-0.09766 c -0.033743,-0.01463 -0.062811,-0.03829 -0.083984,-0.06836 -0.057594,-0.08198 -0.166957,-0.108691 -0.2558593,-0.0625 -0.060742,0.03136 -0.1326395,0.02916 -0.1894532,-0.0039 L 4.4511719,13.802734 c -0.094129,-0.05607 -0.1247571,-0.181004 -0.068359,-0.27539 l 0.3183594,-0.535156 c 0.056884,-0.09589 0.024374,-0.219785 -0.072266,-0.275391 C 4.4428205,12.609532 4.27314,12.477368 4.1152344,12.326172 c -0.077435,-0.07451 -0.1999086,-0.07451 -0.2773438,0 L 3.4082031,12.736328 C 3.3288967,12.812134 3.2002928,12.809734 3.125,12.730469 L 2.9550781,12.548828 c -0.074872,-0.07942 -0.071555,-0.20784 0.00781,-0.283203 L 3.2089844,12.03125 C 3.3846938,11.865037 3.1694162,11.58776 2.9648438,11.716797 l -0.099609,0.0625 c -0.092988,0.05771 -0.2177001,0.02848 -0.2753906,-0.06445 L 2.4628906,11.511719 c -0.024452,-0.04397 -0.031436,-0.09565 -0.019531,-0.144531 0.014008,-0.05663 0.00259,-0.11655 -0.03125,-0.164063 -0.00128,-0.0013 -0.00259,-0.0026 -0.00391,-0.0039 l -0.099609,-0.19336 c -0.019817,-0.04316 -0.022649,-0.091 -0.00977,-0.136718 0.016667,-0.06086 0.00364,-0.126015 -0.035156,-0.175782 l -0.083984,-0.197265 c -0.015176,-0.04146 -0.01523,-0.0868 -0.00195,-0.128906 0.018977,-0.06054 0.00811,-0.12649 -0.029297,-0.177735 0,0 -0.00195,-0.002 -0.00195,-0.002 L 2.0761719,9.9785156 c -0.012083,-0.039883 -0.011399,-0.081618 0.00195,-0.1210937 0.019306,-0.057582 0.011401,-0.120817 -0.021484,-0.171875 -0.00282,-0.00443 -0.00535,-0.00903 -0.00781,-0.013672 L 1.9960937,9.4570313 c -0.00839,-0.03772 -0.00568,-0.077071 0.00781,-0.1132813 0.021682,-0.057279 0.015924,-0.1213342 -0.015625,-0.1738281 -0.00385,-0.00641 -0.00666,-0.012739 -0.00977,-0.019531 L 1.9394531,8.9296875 c -0.00575,-0.034439 -0.00238,-0.068829 0.00977,-0.1015625 0.019847,-0.052138 0.017015,-0.110197 -0.00781,-0.1601562 -0.00619,-0.012381 -0.01017,-0.025682 -0.013672,-0.039063 L 1.90625,8.4082031 C 1.8991997,8.3082224 1.9682357,8.2174742 2.0664063,8.1972656 2.2814399,8.1520416 2.2768344,7.8434739 2.0605469,7.8046875 1.9631777,7.7869537 1.8935334,7.7017833 1.8964844,7.6074219 l 0.011719,-0.2265625 v -0.00195 c 0.00321,-0.017283 0.00803,-0.034924 0.015625,-0.050781 0.023629,-0.049684 0.025749,-0.1069075 0.00586,-0.1582031 -0.011513,-0.029483 -0.014324,-0.061374 -0.011719,-0.087891 l 0.029297,-0.2285156 c 0.00316,-0.00925 0.00528,-0.018644 0.00977,-0.027344 0.025466,-0.049683 0.029006,-0.1077478 0.00977,-0.1601563 -0.012523,-0.034023 -0.016235,-0.071413 -0.00977,-0.1054687 L 2,6.3417969 c 0.00356,-0.00849 0.00703,-0.017471 0.011719,-0.025391 0.030371,-0.050648 0.036805,-0.1121299 0.017578,-0.1679687 -0.013104,-0.037397 -0.016467,-0.077629 -0.00781,-0.1113281 l 0.060547,-0.2148438 c 0.00231,-0.00398 0.00523,-0.00791 0.00781,-0.011719 0.034159,-0.051244 0.042805,-0.1153674 0.023437,-0.1738282 -0.013351,-0.040582 -0.013095,-0.084909 -0.00195,-0.1191406 L 2.1875,5.3105469 c 0.040702,-0.051162 0.05383,-0.118987 0.035156,-0.1816407 -0.013016,-0.043334 -0.011082,-0.089852 0.00195,-0.1230468 l 0.09375,-0.2070313 c 0.036959,-0.048343 0.049898,-0.1108824 0.035156,-0.1699219 -0.012445,-0.046629 -0.0069,-0.09632 0.00977,-0.1308593 l 0.1171875,-0.2109375 0.00391,-0.00781 c 0.026971,-0.043752 0.036064,-0.096208 0.025391,-0.1464844 -0.011247,-0.049993 -0.00285,-0.1024965 0.023437,-0.1464844 L 2.6679688,3.7871094 c 0.041483,-0.06065 0.1124903,-0.093816 0.1855468,-0.085937 0.1921156,0.021818 0.300297,-0.2145782 0.1582032,-0.3457031 l -0.0625,-0.056641 C 2.8689994,3.2231439 2.866429,3.0935873 2.9433594,3.0136719 l 0.171875,-0.1796875 c 0.075427,-0.078873 0.2034571,-0.081545 0.2832031,-0.00586 l 0.4335938,0.4082031 c 0.077697,0.072719 0.1987327,0.071861 0.2753906,-0.00195 0.1597469,-0.153793 0.331898,-0.2899277 0.5195312,-0.3984375 0.1235168,-0.071348 0.1347765,-0.2453607 0.021484,-0.3320312 -0.018684,-0.014219 -0.03423,-0.032967 -0.046875,-0.052734 0,0 -0.00195,-0.00195 -0.00195,-0.00195 L 4.3105469,1.8847656 c -0.05026,-0.097263 -0.01153,-0.2192155 0.085937,-0.2695312 l 0.21875,-0.1132813 C 4.706454,1.4568682 4.8215403,1.489594 4.875,1.5761719 4.9793675,1.7422307 5.2355411,1.6744599 5.2441406,1.4785156 5.2474986,1.3960714 5.3036397,1.3226997 5.375,1.2988281 l 0.2285156,-0.066406 c 0.044634,-0.010486 0.091537,-0.00629 0.1328125,0.013672 0.066879,0.03326 0.1467174,0.026481 0.2070313,-0.017578 0.018315,-0.013458 0.038791,-0.024673 0.060547,-0.03125 l 0.2167969,-0.042969 c 0.041295,-0.00663 0.083679,8.395e-4 0.1210938,0.019531 0.063227,0.031121 0.1381672,0.026669 0.1972656,-0.011719 0.021712,-0.013951 0.046899,-0.022592 0.072266,-0.027344 L 6.8417969,1.109375 c 0.037012,-0.00328 0.07422,0.0048 0.1074218,0.021484 0.058746,0.02921 0.1280824,0.02775 0.1855469,-0.00391 0.025554,-0.014096 0.05401,-0.023815 0.074219,-0.025391 z M 5.9746094,4.1757812 c -0.5289,0 -0.9552917,0.4099545 -0.9921875,0.9296875 -0.00547,0.077951 0.034963,0.1519472 0.1035156,0.1894532 0.070777,0.038204 0.1313648,0.090623 0.1777344,0.1523437 0.1158814,0.1528497 0.3596293,0.070717 0.359375,-0.1210937 V 5.1757812 c 0,-0.1922776 0.1592848,-0.3515625 0.3515625,-0.3515625 h 1.25 C 7.3344569,4.8237905 7.4233999,4.7348475 7.4238281,4.625 V 4.375 C 7.4233999,4.2651525 7.3344569,4.1762095 7.2246094,4.1757812 Z m 2.3515625,0 C 8.2163244,4.1762095 8.1273814,4.2651525 8.1269531,4.375 v 0.25 c 4.283e-4,0.1098475 0.089371,0.1987905 0.1992188,0.1992187 h 1.2480469 c 0.023848,10e-8 0.048648,0.00376 0.076172,0.00977 C 9.8070882,4.8682898 9.9383846,4.7134273 9.8789063,4.5644531 9.8555207,4.5054211 9.8414338,4.4423692 9.8398438,4.375 9.8377837,4.2724494 9.7584773,4.1880809 9.65625,4.1796875 c -0.020608,-0.00169 -0.050169,-0.00391 -0.082031,-0.00391 z m 1.7890621,0.6816407 c -0.02417,-3.311e-4 -0.04919,0.00327 -0.07226,0.011719 C 9.94896,4.903393 9.8947274,5.001846 9.9160156,5.0996094 c 0.006,0.027524 0.00977,0.052324 0.00977,0.076172 v 1.3222657 c -1.482e-4,0.1316798 0.1247937,0.2275653 0.2519527,0.1933593 l 0.25,-0.068359 c 0.0868,-0.024105 0.146778,-0.1032709 0.146485,-0.1933594 V 5.1757812 c 0,-0.031862 -0.0022,-0.061423 -0.0039,-0.082031 -0.0084,-0.1022273 -0.09276,-0.1815337 -0.195313,-0.1835938 -0.06737,-0.00159 -0.130422,-0.015677 -0.189453,-0.039063 -0.02284,-0.00907 -0.04615,-0.013341 -0.07031,-0.013672 z M 5.4375,6.0253906 C 5.370077,6.0203774 5.3046851,6.049767 5.2636719,6.1035156 5.2156918,6.1673599 5.1540378,6.2198192 5.0820312,6.2578125 5.0166167,6.2928949 4.9760124,6.3613207 4.9765625,6.4355469 V 7.9765625 C 4.9764143,8.1082423 5.1013561,8.2041279 5.2285156,8.1699219 L 5.4765625,8.1015625 C 5.5633666,8.0774571 5.6233405,7.9982916 5.6230469,7.9082031 V 6.2246094 C 5.6229116,6.1198598 5.5419758,6.0329603 5.4375,6.0253906 Z m 4.945313,1.3457031 c -0.02036,-0.00115 -0.04078,8.306e-4 -0.06055,0.00586 l -0.25,0.068359 C 9.9854615,7.4694179 9.9254876,7.5485834 9.9257813,7.6386719 v 1.6875 c 0.0016,0.1908286 0.2440917,0.2712192 0.3593747,0.1191406 0.04751,-0.0638 0.110497,-0.1156429 0.183594,-0.1542969 0.06541,-0.035082 0.106019,-0.1035081 0.105469,-0.1777343 V 7.5703125 C 10.5739,7.463429 10.489598,7.3756859 10.382813,7.3710937 Z M 5.4316406,8.8515625 c -0.020363,-0.00115 -0.040781,8.305e-4 -0.060547,0.00586 L 5.1230469,8.9257813 C 5.0362428,8.9498866 4.9762689,9.0290521 4.9765625,9.1191406 V 10.375 c 0,0.02876 0.00244,0.06089 0.00391,0.08008 0.00839,0.102227 0.092762,0.181534 0.1953125,0.183594 0.068467,0.0016 0.1323204,0.01469 0.1894532,0.03711 0.1473372,0.05647 0.2989866,-0.07193 0.2675781,-0.226562 -0.00632,-0.02997 -0.00977,-0.05336 -0.00977,-0.07422 V 9.0507813 C 5.6227281,8.9438978 5.5384259,8.8561547 5.4316406,8.8515625 Z m 4.7128904,1.1718755 c -0.117383,-0.01105 -0.2188085,0.08132 -0.2187497,0.199218 V 10.375 c 0,0.192276 -0.1592867,0.351562 -0.3515625,0.351563 H 8.3261719 c -0.1098475,4.28e-4 -0.1987905,0.08937 -0.1992188,0.199218 v 0.248047 c 4.283e-4,0.109848 0.089371,0.198791 0.1992188,0.199219 h 1.2480469 c 0.5290512,0 0.9566572,-0.408673 0.9941402,-0.927734 0.0055,-0.07795 -0.03496,-0.151948 -0.103515,-0.189454 -0.07213,-0.03896 -0.133396,-0.09017 -0.179688,-0.152343 -0.0335,-0.04531 -0.08456,-0.07439 -0.140625,-0.08008 z M 5.84375,10.712891 c -0.1273964,0.01 -0.2193358,0.142564 -0.1699219,0.271484 0.022418,0.05713 0.035494,0.120987 0.037109,0.189453 0.00206,0.102551 0.081366,0.186919 0.1835937,0.195313 0.019824,0.0016 0.051511,0.0039 0.080078,0.0039 h 1.25 c 0.1098475,-4.28e-4 0.1987905,-0.08937 0.1992187,-0.199219 v -0.248047 c -4.282e-4,-0.109847 -0.089371,-0.19879 -0.1992187,-0.199218 h -1.25 c -0.020862,0 -0.044249,-0.0034 -0.074219,-0.0098 -0.019329,-0.0039 -0.038441,-0.0053 -0.056641,-0.0039 z"
     inkscape:path-effect="#path-effect164;#path-effect165"
     inkscape:original-d="M 7.4651774 1.2970785 L 7.2150635 1.3027629 L 7.2305664 1.9533691 L 7.4806803 1.947168 L 7.4651774 1.2970785 z M 6.8672811 1.308964 L 6.6171672 1.3358358 L 6.6895142 1.9823079 L 6.937561 1.9554362 L 6.8672811 1.308964 z M 8.4139567 1.324467 L 8.3162882 1.966805 L 8.5627848 2.004012 L 8.6604533 1.361674 L 8.4139567 1.324467 z M 8.9844645 1.3420369 L 8.867159 1.9807576 L 9.1115885 2.0272664 L 9.2304443 1.3869954 L 8.9844645 1.3420369 z M 6.2678345 1.3497884 L 6.0234049 1.3983643 L 6.150529 2.037085 L 6.3944417 1.9885091 L 6.2678345 1.3497884 z M 9.5823608 1.4081828 L 9.4082113 2.0350179 L 9.6485067 2.1016805 L 9.8221395 1.4769124 L 9.5823608 1.4081828 z M 5.6720052 1.4221354 L 5.4317098 1.4924154 L 5.6151611 2.1171834 L 5.8554565 2.0469035 L 5.6720052 1.4221354 z M 4.7108236 1.6779338 L 4.4886149 1.7931722 L 4.7852376 2.3714315 L 5.0079631 2.256193 L 4.7108236 1.6779338 z M 10.978658 1.7440796 L 10.660331 2.3104533 L 10.878923 2.43396 L 11.197249 1.8670695 L 10.978658 1.7440796 z M 11.654586 2.2618774 L 11.283549 2.7951782 L 11.488188 2.9378052 L 11.859741 2.4045044 L 11.654586 2.2618774 z M 7.775236 2.2753133 C 7.5878075 2.2753133 7.4221705 2.3351374 7.277592 2.3828003 C 7.0933166 2.44355 6.9555198 2.540235 6.828007 2.5822713 C 6.712614 2.6203123 6.4194318 2.6738157 6.4083944 2.6758057 L 5.9748291 2.6758057 C 5.1635821 2.6758064 4.445448 3.0622841 3.9889038 3.6597249 L 3.2597493 2.9719116 L 3.0881836 3.1532959 L 3.8462769 3.8684977 C 3.6121536 4.249147 3.4747233 4.695551 3.4747233 5.1759115 L 3.4747233 7.4393392 L 2.109432 7.3669922 L 2.0965129 7.6165894 L 3.4550863 7.6884196 C 3.4366216 7.7862438 3.409129 7.9241116 3.3827393 8.0041626 C 3.3407024 8.1316756 3.2424672 8.2689553 3.1817179 8.4532308 C 3.1340557 8.5978093 3.0742309 8.7618959 3.074231 8.9493245 C 3.074231 9.1367532 3.1340554 9.3029057 3.1817179 9.4474854 C 3.2424679 9.6317605 3.3407027 9.7690412 3.3827393 9.8965535 C 3.420615 10.011443 3.4722883 10.302667 3.4747233 10.316166 L 3.4747233 10.375077 C 3.4747233 10.860373 3.614039 11.311632 3.8519613 11.694893 L 3.0995524 12.410095 L 3.2716349 12.591479 L 3.9956217 11.902633 C 4.4512703 12.493462 5.1646302 12.875184 5.9748291 12.875183 L 6.4099447 12.875183 C 6.4234994 12.877583 6.7131292 12.92877 6.828007 12.96665 C 6.9555175 13.00869 7.0933119 13.107444 7.277592 13.168188 C 7.4221717 13.215848 7.5878082 13.275159 7.775236 13.275159 C 7.9626638 13.275159 8.1267498 13.21585 8.2713298 13.168188 C 8.4556077 13.107441 8.5949564 13.008683 8.722465 12.96665 C 8.8373427 12.92878 9.1269725 12.877633 9.1405273 12.875183 L 9.5740926 12.875183 C 9.9397456 12.875183 10.286008 12.795136 10.598836 12.654525 L 11.26908 13.627075 L 11.474752 13.485482 L 10.823629 12.539286 C 11.570799 12.107342 12.074198 11.301472 12.074198 10.375077 L 12.074198 8.2082845 L 13.416752 8.3493612 L 13.44259 8.1007975 L 12.076265 7.957137 C 12.081034 7.9309805 12.130788 7.6588962 12.167733 7.5468262 C 12.209773 7.4193152 12.306456 7.2820373 12.367204 7.097758 C 12.414864 6.9531781 12.474691 6.787025 12.474691 6.5995972 C 12.474691 6.4121695 12.414865 6.2480832 12.367204 6.1035034 C 12.306454 5.919226 12.209766 5.7798773 12.167733 5.6523682 C 12.129693 5.5369773 12.076188 5.2432762 12.074198 5.2322388 L 12.074198 5.1759115 C 12.074198 5.1465921 12.071062 5.1181681 12.070064 5.0890951 L 13.08654 4.5774984 L 12.974402 4.3537394 L 12.046293 4.8208944 C 11.873863 3.6075765 10.835608 2.6758068 9.5740926 2.6758057 L 9.1425944 2.6758057 C 9.131557 2.6738164 8.8378586 2.6203124 8.722465 2.5822713 C 8.594952 2.5402347 8.4556052 2.4435493 8.2713298 2.3828003 C 8.126751 2.3351378 7.9626645 2.2753133 7.775236 2.2753133 z M 7.775236 2.5740031 C 7.8951244 2.5740031 8.0305083 2.6194992 8.1777954 2.6680542 C 8.3053082 2.7100912 8.4446552 2.8062589 8.6289307 2.8670085 C 8.8032438 2.9244732 9.099703 2.9724284 9.099703 2.9724284 A 0.15001501 0.15001501 0 0 0 9.1250244 2.9744954 L 9.5740926 2.9744954 C 10.795483 2.9744965 11.775509 3.9545218 11.775509 5.1759115 L 11.775509 5.2498088 A 0.15001501 0.15001501 0 0 0 11.777576 5.275647 C 11.777576 5.275647 11.825527 5.5715865 11.882996 5.7459025 C 11.943746 5.930182 12.039914 6.0695265 12.08195 6.1970378 C 12.13051 6.3443235 12.176001 6.4797084 12.176001 6.5995972 C 12.176001 6.719486 12.13051 6.8564208 12.08195 7.0037069 C 12.03992 7.1312158 11.943745 7.2690146 11.882996 7.4532918 C 11.825526 7.6276065 11.777576 7.9240641 11.777576 7.9240641 A 0.15001501 0.15001501 0 0 0 11.775509 7.9493856 L 11.775509 10.375077 C 11.775509 11.596467 10.795483 12.574427 9.5740926 12.574426 L 9.1250244 12.574426 A 0.15001501 0.15001501 0 0 0 9.099703 12.575977 C 9.099703 12.575977 8.8032456 12.624444 8.6289307 12.681913 C 8.4446505 12.742663 8.3053059 12.840899 8.1777954 12.882935 C 8.0305095 12.931495 7.895125 12.974402 7.775236 12.974402 C 7.655347 12.974402 7.5184125 12.931495 7.3711263 12.882935 C 7.2436182 12.840855 7.106336 12.742146 6.9220581 12.681396 C 6.7477431 12.623932 6.4512858 12.575977 6.4512858 12.575977 A 0.15001501 0.15001501 0 0 0 6.4259644 12.574426 L 5.9748291 12.574426 C 4.7452024 12.574474 3.7754801 11.597063 3.7754801 10.375077 L 3.7754801 10.300663 A 0.15001501 0.15001501 0 0 0 3.7734131 10.275342 C 3.7734131 10.275342 3.7254596 9.9768177 3.6679932 9.8025024 C 3.6072407 9.6182282 3.5090085 9.4809469 3.4669718 9.3534342 C 3.4184164 9.2061475 3.3749878 9.0692136 3.3749878 8.9493245 C 3.3749878 8.8294363 3.4184167 8.6940524 3.4669718 8.5467651 C 3.5090084 8.4192525 3.6072435 8.2819725 3.6679932 8.0976969 C 3.7254579 7.9233835 3.7734131 7.6248576 3.7734131 7.6248576 A 0.15001501 0.15001501 0 0 0 3.7754801 7.5995361 L 3.7754801 5.1759115 C 3.7754801 3.9545218 4.7534394 2.9744965 5.9748291 2.9744954 L 6.4259644 2.9744954 A 0.15001501 0.15001501 0 0 0 6.4512858 2.9724284 C 6.4512858 2.9724284 6.7477444 2.924474 6.9220581 2.8670085 C 7.1063335 2.8062595 7.2436134 2.710091 7.3711263 2.6680542 C 7.5184137 2.6194992 7.6553476 2.5740031 7.775236 2.5740031 z M 7.775236 2.7750244 A 0.34999999 0.34999999 0 0 0 7.4574259 3.0029175 C 7.4045927 3.0108617 7.3514666 3.0187942 7.3008464 3.0272054 C 7.1332919 3.0550474 6.9853168 3.1044079 6.8497111 3.1269409 C 6.7060427 3.1508139 6.5611727 3.1679975 6.4161458 3.1760335 C 6.282931 3.1834035 5.9784465 3.1760334 5.9784465 3.1760335 A 0.15001501 0.15001501 0 0 0 5.9748291 3.1760335 C 4.8694281 3.1760338 3.9744344 4.0705105 3.9744344 5.1759115 L 3.9744344 7.5876506 C 3.9744344 7.5876506 3.9500106 7.8924439 3.9279256 8.0253499 C 3.9053926 8.1609553 3.8539655 8.3068634 3.826123 8.4744181 C 3.8176203 8.5255885 3.8100601 8.5796331 3.8023519 8.6330648 A 0.34999999 0.34999999 0 0 0 3.5749756 8.9498413 A 0.34999999 0.34999999 0 0 0 3.8023519 9.2676514 C 3.8099798 9.3203167 3.8177374 9.373248 3.826123 9.4237142 C 3.853965 9.5912686 3.9053921 9.739245 3.9279256 9.8748494 C 3.9500106 10.007756 3.9744344 10.312549 3.9744344 10.312549 L 3.9744344 10.375077 C 3.9744344 11.479596 4.861089 12.374956 5.9748291 12.374955 A 0.15001501 0.15001501 0 0 0 5.9784465 12.374955 C 5.9784465 12.374955 6.2829507 12.367555 6.4161458 12.374955 C 6.5611734 12.382955 6.706044 12.400178 6.8497111 12.424048 C 6.9853207 12.446588 7.1332959 12.495427 7.3008464 12.523267 C 7.3514759 12.531681 7.404583 12.539391 7.4574259 12.547038 A 0.34999999 0.34999999 0 0 0 7.775236 12.774931 A 0.34999999 0.34999999 0 0 0 8.0920125 12.547038 C 8.1452668 12.539348 8.199135 12.531743 8.2501424 12.523267 C 8.4176923 12.495417 8.5636009 12.446588 8.6992106 12.424048 C 8.8429098 12.400168 8.9878147 12.382945 9.1327759 12.374955 C 9.2659712 12.367555 9.5704753 12.374955 9.5704753 12.374955 A 0.15001501 0.15001501 0 0 0 9.5740926 12.374955 C 10.679495 12.374956 11.573971 11.480478 11.573971 10.375077 L 11.573971 7.9628215 C 11.573971 7.9628215 11.600973 7.6585438 11.623063 7.5256388 C 11.645603 7.3900295 11.694959 7.2415373 11.722799 7.0739868 C 11.731238 7.0232031 11.739121 6.9699012 11.747087 6.9168905 A 0.34999999 0.34999999 0 0 0 11.97498 6.6001139 A 0.34999999 0.34999999 0 0 0 11.745536 6.2709351 C 11.738037 6.2218985 11.730629 6.1723264 11.722799 6.1252075 C 11.694959 5.9576569 11.645603 5.8112321 11.623063 5.6756226 C 11.600983 5.5427177 11.573971 5.2384399 11.573971 5.2384399 L 11.573971 5.1759115 C 11.573971 4.0698216 10.672992 3.1760334 9.5740926 3.1760335 A 0.15001501 0.15001501 0 0 0 9.5704753 3.1760335 C 9.5704753 3.1760335 9.2659712 3.1834135 9.1327759 3.1760335 C 8.9877543 3.1680015 8.8428814 3.1508141 8.6992106 3.1269409 C 8.5636049 3.1044074 8.4176966 3.0550478 8.2501424 3.0272054 C 8.1991447 3.0187313 8.1452566 3.0109081 8.0920125 3.0029175 A 0.34999999 0.34999999 0 0 0 7.775236 2.7750244 z M 7.4755127 3.3036743 A 0.34999999 0.34999999 0 0 0 7.775236 3.4752401 A 0.34999999 0.34999999 0 0 0 8.0759928 3.3036743 C 8.1175208 3.3098686 8.1584071 3.3151922 8.2010498 3.3222778 C 8.3366554 3.3448108 8.4830804 3.3962379 8.6506348 3.4240804 C 8.804726 3.4496854 8.9609115 3.4660633 9.1172729 3.4747233 C 9.2815117 3.4838233 9.5667586 3.4749451 9.5740926 3.4747233 C 10.510864 3.4747233 11.275281 4.2322096 11.275281 5.1759115 L 11.275281 5.2498088 A 0.15001501 0.15001501 0 0 0 11.275281 5.2616943 C 11.275281 5.2616943 11.298534 5.5598579 11.325924 5.7247152 C 11.353764 5.8922658 11.405194 6.0381736 11.427726 6.1737834 C 11.434897 6.2169427 11.440078 6.2583736 11.44633 6.3003906 A 0.34999999 0.34999999 0 0 0 11.274764 6.6001139 A 0.34999999 0.34999999 0 0 0 11.44633 6.8998372 C 11.440117 6.9415282 11.43484 6.9825962 11.427726 7.025411 C 11.405186 7.1610203 11.353766 7.3069285 11.325924 7.4744792 C 11.29853 7.6393359 11.275281 7.9375 11.275281 7.9375 A 0.15001501 0.15001501 0 0 0 11.275281 7.9493856 L 11.275281 10.375077 C 11.275281 11.319468 10.518484 12.074199 9.5740926 12.074198 C 9.5667626 12.073976 9.2815118 12.067165 9.1172729 12.076265 C 8.9608511 12.084865 8.8046976 12.101308 8.6506348 12.126908 C 8.483084 12.154748 8.3366601 12.204104 8.2010498 12.226644 C 8.1576963 12.233847 8.1161264 12.239772 8.0739258 12.246281 A 0.34999999 0.34999999 0 0 0 7.775236 12.075232 A 0.34999999 0.34999999 0 0 0 7.4755127 12.246281 C 7.4336376 12.239814 7.3924315 12.23379 7.3494222 12.226644 C 7.2138127 12.204104 7.0679044 12.154748 6.900354 12.126908 C 6.7462589 12.101298 6.5900716 12.084925 6.4337158 12.076265 C 6.2687754 12.067165 5.9797542 12.074098 5.9748291 12.074198 C 5.0206915 12.074199 4.2751912 11.32035 4.2751912 10.375077 L 4.2751912 10.300663 A 0.15001501 0.15001501 0 0 0 4.2751912 10.287227 C 4.2751912 10.287227 4.2498743 9.9911287 4.2224813 9.8262736 C 4.1946386 9.6587183 4.1457956 9.5107429 4.1232625 9.3751383 C 4.116204 9.3326603 4.1100278 9.2919703 4.1036255 9.2505981 A 0.34999999 0.34999999 0 0 0 4.2751912 8.9498413 A 0.34999999 0.34999999 0 0 0 4.1036255 8.650118 C 4.1100519 8.6087878 4.1161712 8.568253 4.1232625 8.5255778 C 4.145796 8.3899725 4.1946391 8.2419974 4.2224813 8.0744425 C 4.2498751 7.9095868 4.2751912 7.6134888 4.2751912 7.6134888 A 0.15001501 0.15001501 0 0 0 4.2751912 7.5995361 L 4.2751912 5.1759115 C 4.2751912 4.2315206 5.0304381 3.4747236 5.9748291 3.4747233 C 5.9797591 3.4748725 6.2687949 3.4838533 6.4337158 3.4747233 C 6.5900723 3.4660633 6.7462602 3.4496854 6.900354 3.4240804 C 7.0679083 3.3962384 7.2138164 3.3448113 7.3494222 3.3222778 C 7.3924097 3.3151349 7.4336584 3.3099077 7.4755127 3.3036743 z M 5.9748291 3.6757446 C 5.1464269 3.6757445 4.4746623 4.3475094 4.4746623 5.1759115 L 4.4746623 10.375077 C 4.4746623 11.203479 5.1464269 11.875244 5.9748291 11.875244 L 9.5740926 11.875244 C 10.402494 11.875244 11.074259 11.203479 11.074259 10.375077 L 11.074259 9.777181 A 0.34999999 0.34999999 0 0 0 11.074776 9.7751139 A 0.34999999 0.34999999 0 0 0 11.074259 9.7689128 L 11.074259 5.1759115 C 11.074259 4.7767323 10.9172 4.414761 10.662915 4.1460002 A 0.34999999 0.34999999 0 0 0 10.604004 4.087089 C 10.335242 3.8328052 9.9732716 3.6757446 9.5740926 3.6757446 L 5.9748291 3.6757446 z M 12.798702 3.8421427 L 12.244214 4.1816569 L 12.377022 4.3945638 L 12.92996 4.0550496 L 12.798702 3.8421427 z M 2.8339355 3.896403 L 2.6933757 4.1056925 L 3.2344279 4.4669108 L 3.3729207 4.258138 L 2.8339355 3.896403 z M 5.9748291 3.9744344 L 7.6248576 3.9744344 L 7.6248576 5.0250163 L 5.9748291 5.0250163 C 5.8917293 5.0250163 5.8249674 5.0917781 5.8249674 5.1748779 L 5.8249674 8.2139689 L 4.7754191 8.5018066 L 4.7754191 6.1117716 A 0.34999999 0.34999999 0 0 0 4.8250285 6.1252075 A 0.34999999 0.34999999 0 0 0 5.1748779 5.7748413 A 0.34999999 0.34999999 0 0 0 4.8250285 5.4249919 A 0.34999999 0.34999999 0 0 0 4.7754191 5.4384277 L 4.7754191 5.1759115 C 4.7754191 4.5085194 5.3074373 3.9744344 5.9748291 3.9744344 z M 7.9256144 3.9744344 L 9.5740926 3.9744344 C 9.7837408 3.9744344 9.9804446 4.027222 10.151318 4.1201619 A 0.34999999 0.34999999 0 0 0 10.038147 4.3620076 A 0.34999999 0.34999999 0 0 0 10.387996 4.7118571 A 0.34999999 0.34999999 0 0 0 10.629842 4.5986857 C 10.722782 4.76956 10.77557 4.9662631 10.77557 5.1759115 L 10.77557 6.7360229 L 9.7249878 7.0243774 L 9.7249878 5.1748779 C 9.7249878 5.0917781 9.6582261 5.0250163 9.5751261 5.0250163 L 7.9256144 5.0250163 L 7.9256144 3.9744344 z M 2.6582357 4.3749268 L 2.5373128 4.5940348 L 3.1036865 4.9102946 L 3.2266764 4.6917033 L 2.6582357 4.3749268 z M 2.5099243 4.861202 L 2.4065715 5.0880615 L 2.9961995 5.3593628 L 3.1016195 5.13302 L 2.5099243 4.861202 z M 13.119096 4.8751546 L 12.515515 5.1190674 L 12.609566 5.3495443 L 13.213147 5.1076986 L 13.119096 4.8751546 z M 2.3848674 5.3536784 L 2.2990845 5.5877726 L 2.9083496 5.8125651 L 2.9941325 5.5784709 L 2.3848674 5.3536784 z M 13.238468 5.4043213 L 12.617318 5.5960409 L 12.691732 5.8342692 L 13.312366 5.6425496 L 13.238468 5.4043213 z M 2.2830648 5.8518392 L 2.2148519 6.0921346 L 2.8401367 6.2699015 L 2.9083496 6.0296061 L 2.2830648 5.8518392 z M 13.330452 5.9376221 L 12.695349 6.078182 L 12.750126 6.3226115 L 13.384713 6.1815348 L 13.330452 5.9376221 z M 2.2034831 6.3536174 L 2.1543905 6.5995972 L 2.7910441 6.7287882 L 2.8401367 6.4843587 L 2.2034831 6.3536174 z M 13.396598 6.4745402 L 12.752193 6.5644572 L 12.787333 6.8125041 L 13.431738 6.7225871 L 13.396598 6.4745402 z M 2.146639 6.8595296 L 2.1151164 7.1075765 L 2.7600382 7.189742 L 2.7910441 6.9416951 L 2.146639 6.8595296 z M 13.437423 7.0155924 L 12.7894 7.0527995 L 12.802836 7.3029134 L 13.451375 7.2657064 L 13.437423 7.0155924 z M 10.77557 7.0471151 L 10.77557 9.4288818 A 0.34999999 0.34999999 0 0 0 10.724927 9.4247477 A 0.34999999 0.34999999 0 0 0 10.375077 9.7751139 A 0.34999999 0.34999999 0 0 0 10.724927 10.124963 A 0.34999999 0.34999999 0 0 0 10.77557 10.111528 L 10.77557 10.375077 C 10.77557 11.042471 10.241483 11.573971 9.5740926 11.573971 L 7.9256144 11.573971 L 7.9256144 10.524939 L 9.5751261 10.524939 C 9.6582261 10.524939 9.7249878 10.458177 9.7249878 10.375077 L 9.7249878 7.3354696 L 10.77557 7.0471151 z M 12.802836 7.5432088 L 12.797152 7.7933228 L 13.447241 7.8067586 L 13.453442 7.5566447 L 12.802836 7.5432088 z M 2.7522868 8.3224894 L 2.1058146 8.3850179 L 2.129069 8.6351318 L 2.7776082 8.5705363 L 2.7522868 8.3224894 z M 5.8249674 8.5245443 L 5.8249674 10.375077 C 5.8249674 10.458177 5.8917293 10.524939 5.9748291 10.524939 L 7.6248576 10.524939 L 7.6248576 11.573971 L 5.9748291 11.573971 C 5.7695851 11.573971 5.5770481 11.523514 5.4089722 11.434444 A 0.34999999 0.34999999 0 0 0 5.5118083 11.187948 A 0.34999999 0.34999999 0 0 0 5.1619588 10.838098 A 0.34999999 0.34999999 0 0 0 4.9206299 10.950753 C 4.828089 10.780235 4.7754191 10.584563 4.7754191 10.375077 L 4.7754191 8.8128988 L 5.8249674 8.5245443 z M 2.7755412 8.7834432 L 2.1368205 8.8945475 L 2.1797119 9.1405273 L 2.8184326 9.029423 L 2.7755412 8.7834432 z M 2.8184326 9.2423299 L 2.1895304 9.4025269 L 2.2499919 9.6448893 L 2.8809611 9.4846924 L 2.8184326 9.2423299 z M 12.642639 9.4960612 L 12.556856 9.7306722 L 13.166121 9.9549479 L 13.253971 9.7208537 L 12.642639 9.4960612 z M 2.878894 9.7012166 L 2.2639445 9.9084391 L 2.344043 10.1446 L 2.9589925 9.9373779 L 2.878894 9.7012166 z M 12.547038 9.9787191 L 12.443685 10.205062 L 13.031246 10.47843 L 13.136666 10.252087 L 12.547038 9.9787191 z M 2.9610596 10.156486 L 2.361613 10.40815 L 2.4592814 10.638627 L 3.056661 10.386963 L 2.9610596 10.156486 z M 12.429732 10.457243 L 12.304675 10.673767 L 12.869499 10.996228 L 12.994039 10.779187 L 12.429732 10.457243 z M 3.0607951 10.607621 L 2.4825358 10.906311 L 2.5977743 11.129036 L 3.1760335 10.830347 L 3.0607951 10.607621 z M 12.287105 10.928015 L 12.144478 11.133171 L 12.679846 11.504207 L 12.820406 11.296985 L 12.287105 10.928015 z M 3.1796509 11.054622 L 2.6287801 11.398787 L 2.7600382 11.609627 L 3.3124593 11.265979 L 3.1796509 11.054622 z M 12.121224 11.390519 L 11.961027 11.584306 L 12.461255 11.998234 L 12.621452 11.806514 L 12.121224 11.390519 z M 11.927954 11.843722 L 11.750187 12.021488 L 12.211141 12.480375 L 12.388908 12.302608 L 11.927954 11.843722 z M 11.55485 12.416296 L 11.353829 12.564608 L 11.736235 13.08809 L 11.939323 12.941329 L 11.55485 12.416296 z M 4.8870402 13.072587 L 4.5547607 13.631209 L 4.7697347 13.759884 L 5.1014974 13.201261 L 4.8870402 13.072587 z M 5.5314453 13.283427 L 5.2735799 13.880806 L 5.5040568 13.978475 L 5.7619222 13.383162 L 5.5314453 13.283427 z M 9.8164551 13.367143 L 9.5823608 13.451375 L 9.8009521 14.062708 L 10.035046 13.978475 L 9.8164551 13.367143 z M 9.1503459 13.496334 L 8.9064331 13.551111 L 9.046993 14.185697 L 9.2893555 14.13092 L 9.1503459 13.496334 z M 6.863147 13.542843 L 6.7639282 14.185697 L 7.0119751 14.224972 L 7.1111938 13.582117 L 6.863147 13.542843 z M 8.4749349 13.576432 L 8.224821 13.599687 L 8.2852824 14.246159 L 8.5353963 14.222904 L 8.4749349 13.576432 z M 7.5432088 13.596069 L 7.5235718 14.246159 L 7.7736857 14.25391 L 7.7933228 13.603821 L 7.5432088 13.596069 z " />
  <metadata
     id="metadata109">
    <rdf:RDF>
      <cc:Work
         rdf:about="">
        <dc:title>Exported SVG</dc:title>
      </cc:Work>
    </rdf:RDF>
  </metadata>
</svg>
