<?xml version="1.0" encoding="UTF-8" standalone="no"?>
<svg
   width="15.55mm"
   height="15.55mm"
   viewBox="0 0 15.55 15.55"
   version="1.1"
   id="svg109"
   sodipodi:docname="cob_keepout.svg"
   inkscape:version="1.3.2 (091e20ef0f, 2023-11-25)"
   xmlns:inkscape="http://www.inkscape.org/namespaces/inkscape"
   xmlns:sodipodi="http://sodipodi.sourceforge.net/DTD/sodipodi-0.dtd"
   xmlns="http://www.w3.org/2000/svg"
   xmlns:svg="http://www.w3.org/2000/svg"
   xmlns:rdf="http://www.w3.org/1999/02/22-rdf-syntax-ns#"
   xmlns:cc="http://creativecommons.org/ns#"
   xmlns:dc="http://purl.org/dc/elements/1.1/">
  <defs
     id="defs109">
    <inkscape:path-effect
       effect="offset"
       id="path-effect6"
       is_visible="true"
       lpeversion="1.2"
       linejoin_type="round"
       unit="mm"
       offset="-1.3"
       miter_limit="4"
       attempt_force_join="false"
       update_on_knot_move="true" />
    <inkscape:path-effect
       effect="offset"
       id="path-effect4"
       is_visible="true"
       lpeversion="1.2"
       linejoin_type="round"
       unit="mm"
       offset="1.5"
       miter_limit="4"
       attempt_force_join="false"
       update_on_knot_move="true" />
    <inkscape:path-effect
       effect="offset"
       id="path-effect69"
       is_visible="true"
       lpeversion="1.2"
       linejoin_type="round"
       unit="mm"
       offset="-0.3"
       miter_limit="4"
       attempt_force_join="false"
       update_on_knot_move="true" />
    <inkscape:path-effect
       effect="offset"
       id="path-effect68"
       is_visible="true"
       lpeversion="1.2"
       linejoin_type="round"
       unit="mm"
       offset="0.5"
       miter_limit="4"
       attempt_force_join="false"
       update_on_knot_move="true" />
    <inkscape:path-effect
       effect="offset"
       id="path-effect473"
       is_visible="true"
       lpeversion="1.2"
       linejoin_type="round"
       unit="mm"
       offset="-0.3"
       miter_limit="4"
       attempt_force_join="false"
       update_on_knot_move="true" />
    <inkscape:path-effect
       effect="offset"
       id="path-effect472"
       is_visible="true"
       lpeversion="1.2"
       linejoin_type="round"
       unit="mm"
       offset="0.5"
       miter_limit="4"
       attempt_force_join="false"
       update_on_knot_move="true" />
    <inkscape:path-effect
       effect="offset"
       id="path-effect165"
       is_visible="true"
       lpeversion="1.2"
       linejoin_type="round"
       unit="mm"
       offset="-0.2"
       miter_limit="4"
       attempt_force_join="false"
       update_on_knot_move="true" />
    <inkscape:path-effect
       effect="offset"
       id="path-effect164"
       is_visible="true"
       lpeversion="1.2"
       linejoin_type="round"
       unit="mm"
       offset="0.4"
       miter_limit="4"
       attempt_force_join="false"
       update_on_knot_move="true" />
    <inkscape:path-effect
       effect="offset"
       id="path-effect2"
       is_visible="true"
       lpeversion="1.2"
       linejoin_type="round"
       unit="mm"
       offset="-0.8"
       miter_limit="4"
       attempt_force_join="false"
       update_on_knot_move="true" />
    <inkscape:path-effect
       effect="offset"
       id="path-effect1"
       is_visible="true"
       lpeversion="1.2"
       linejoin_type="round"
       unit="mm"
       offset="1"
       miter_limit="4"
       attempt_force_join="false"
       update_on_knot_move="true" />
    <inkscape:path-effect
       effect="offset"
       id="path-effect678"
       is_visible="true"
       lpeversion="1.2"
       linejoin_type="miter"
       unit="mm"
       offset="0"
       miter_limit="4"
       attempt_force_join="false"
       update_on_knot_move="true" />
    <inkscape:path-effect
       effect="offset"
       id="path-effect653"
       is_visible="true"
       lpeversion="1.2"
       linejoin_type="miter"
       unit="mm"
       offset="0"
       miter_limit="4"
       attempt_force_join="false"
       update_on_knot_move="true" />
  </defs>
  <sodipodi:namedview
     id="namedview109"
     pagecolor="#ffffff"
     bordercolor="#666666"
     borderopacity="1.0"
     inkscape:showpageshadow="2"
     inkscape:pageopacity="0.0"
     inkscape:pagecheckerboard="0"
     inkscape:deskcolor="#d1d1d1"
     inkscape:document-units="mm"
     inkscape:zoom="12.809053"
     inkscape:cx="29.783624"
     inkscape:cy="28.963891"
     inkscape:window-width="1920"
     inkscape:window-height="1216"
     inkscape:window-x="0"
     inkscape:window-y="0"
     inkscape:window-maximized="1"
     inkscape:current-layer="svg109" />
  <title
     id="title1">Exported SVG</title>
  <style
     id="style1"><![CDATA[
polygon {
shape-rendering:crispEdges;
stroke-width:16.426968;
}
.s0 {
stroke:#000000;
stroke-width:11.485752;
stroke-linecap:round;
stroke-linejoin:round;
fill:none;
}
.s1 {
stroke:#000000;
stroke-width:11.485752;
stroke-linecap:round;
stroke-linejoin:round;
fill:none;
}
.s2 {
stroke:#19b219;
stroke-width:11.485752;
stroke-linecap:round;
stroke-linejoin:round;
fill:none;
}
.s3 {
stroke:#7f4c00;
stroke-width:11.485752;
stroke-linecap:round;
stroke-linejoin:round;
fill:none;
}
.s4 {
stroke:#00cc00;
stroke-width:11.485752;
stroke-linecap:round;
stroke-linejoin:round;
fill:none;
}
.s5 {
stroke:#000000;
stroke-width:7.657168;
stroke-linecap:round;
stroke-linejoin:round;
fill:none;
}
.s6 {
stroke:#ff19ff;
stroke-width:7.657168;
stroke-linecap:round;
stroke-linejoin:round;
fill:none;
}
.s7 {
stroke:#ff0000;
stroke-width:11.485752;
stroke-linecap:round;
stroke-linejoin:round;
fill:none;
}
.s8 {
stroke:#ffff00;
stroke-width:11.485752;
stroke-linecap:round;
stroke-linejoin:round;
fill:none;
}
.s9 {
stroke:#001919;
stroke-width:7.657168;
stroke-linecap:round;
stroke-linejoin:round;
fill:none;
}
.sa {
stroke:#006666;
stroke-width:7.657168;
stroke-linecap:round;
stroke-linejoin:round;
fill:none;
}
.sb {
stroke:#00ffff;
stroke-width:22.971504;
stroke-linecap:round;
stroke-linejoin:round;
fill:none;
}
.sc {
stroke:#ff0000;
stroke-width:61.257344;
stroke-linecap:round;
stroke-linejoin:round;
fill:none;
}
.sd {
stroke:#191919;
stroke-width:7.657168;
stroke-linecap:round;
stroke-linejoin:round;
fill:none;
}
.se {
stroke:#000000;
stroke-width:7.657168;
stroke-linecap:round;
stroke-linejoin:round;
stroke-dasharray:114.858,114.858;
fill:none;
}
.sf {
stroke:#000000;
stroke-width:22.971504;
stroke-linecap:round;
stroke-linejoin:round;
fill:none;
}
]]></style>
  <path
     id="path1"
     style="color:#000000;fill:#000000;stroke-linejoin:round;-inkscape-stroke:none"
     d="m 13.742495,6.5783277 -9.91e-4,-0.00694 -0.03252,-0.1553711 0.03516,0.2441406 c 0.0022,0.015971 0.0017,0.0328 0,0.048828 -0.01,0.1025389 -0.0026,0.2049275 0.01172,0.3066406 l 0.01172,0.2109375 c 4.97e-4,0.010374 9.5e-4,0.019903 0,0.029297 -0.0094,0.092899 -0.0087,0.1865383 0.002,0.2792968 8.81e-4,0.00765 -4.8e-5,0.016878 0,0.015625 l -0.0039,0.1953125 c -0.0097,0.056838 -0.01554,0.114257 -0.01758,0.171875 v 0.00195 c -4.6e-5,0.053535 0.0032,0.1070229 0.0098,0.1601562 0.0018,0.014826 0.0032,0.028985 0.002,0.041016 l -0.02149,0.21875 -0.002,0.00391 c -0.0047,0.03159 -0.01646,0.061953 -0.03516,0.087891 -0.261307,0.3625151 -0.318101,0.8338348 -0.150391,1.2480469 0.01842,0.045532 0.0187,0.096412 0.002,0.1425781 l -0.02344,0.0625 c -0.05123,0.1349854 -0.07961,0.2775624 -0.08398,0.4218754 -8.15e-4,0.02542 -0.0074,0.04898 -0.01758,0.07226 0,0 0,0.002 0,0.002 l -0.0078,0.01563 c -0.06728,0.141845 -0.108303,0.294704 -0.121094,0.451172 -0.0024,0.02823 -0.01163,0.05531 -0.02539,0.08008 -0.07767,0.140463 -0.128664,0.294095 -0.150391,0.453125 -0.004,0.02863 -0.01566,0.05574 -0.03125,0.08008 -0.08725,0.136583 -0.148196,0.288279 -0.179688,0.447265 -0.0056,0.02817 -0.01636,0.05485 -0.0332,0.07813 -0.09645,0.133349 -0.166707,0.283801 -0.207031,0.44336 -0.0087,0.03435 -0.02621,0.06487 -0.05078,0.08984 l -0.123047,0.125 c -0.127342,0.128503 -0.22646,0.282171 -0.291016,0.451172 -0.0136,0.03595 -0.03675,0.06793 -0.06641,0.08984 l -0.03711,0.02734 c -0.16389,0.121063 -0.297028,0.278955 -0.388672,0.460937 -0.01484,0.02935 -0.03682,0.05305 -0.05859,0.06836 L 11.464844,13.875 c -0.04161,0.02595 -0.09026,0.03581 -0.138672,0.02734 -0.404554,-0.07078 -0.818764,0.05377 -1.117188,0.335937 -0.02,0.01886 -0.04339,0.03343 -0.06445,0.04102 l -0.2128904,0.07617 c 0,0 -0.00195,0 -0.00195,0 -0.022425,0.0073 -0.046769,0.0107 -0.070312,0.0098 -0.1584658,-0.0059 -0.3166696,0.01729 -0.4667969,0.06836 -0.00711,0.0024 -0.014206,0.0026 -0.029297,0.0059 l -0.2421875,0.05469 c -0.021119,0.0047 -0.042979,0.0062 -0.064453,0.0039 -0.1584946,-0.01671 -0.318711,-0.0041 -0.4726562,0.03711 -0.00575,0.0015 -0.011715,0.0029 -0.017578,0.0039 h -0.00586 c -0.00263,3.81e-4 -0.00516,0.0017 -0.00781,0.002 l -0.2109375,0.01953 c -0.015314,4.17e-4 -0.029866,-8.12e-4 -0.044922,-0.0039 -0.1865947,-0.03813 -0.3792891,-0.0348 -0.5644531,0.0098 -0.00928,0.0022 -0.019767,0.003 -0.029297,0.0039 l -0.1074219,-0.0039 c -0.00318,-7.14e-4 -0.00662,-0.0011 -0.00977,-0.002 -0.1826293,-0.04982 -0.3739359,-0.05915 -0.5605469,-0.02734 -0.020877,0.0035 -0.043202,0.0032 -0.064453,0 l -0.2128906,-0.03125 c -0.030011,-0.0056 -0.057561,-0.01881 -0.082031,-0.03711 -0.3346711,-0.250276 -0.769256,-0.324402 -1.1679687,-0.199219 -0.043444,0.01362 -0.090465,0.01068 -0.1328125,-0.0059 h -0.00391 l -0.203125,-0.08789 -0.00977,-0.0039 C 4.9952931,14.09583 4.8294224,14.048576 4.6582031,14.037109 c -0.030531,-0.0017 -0.059274,-0.01044 -0.085937,-0.02539 L 4.4082031,13.914063 C 4.3661721,13.887882 4.3357338,13.84648 4.3222656,13.798828 4.172459,13.269263 3.7054215,12.891409 3.15625,12.855469 c -0.048816,-0.0032 -0.094679,-0.02559 -0.1289062,-0.06055 l 0.013672,0.01758 -0.1621093,-0.171875 c -0.030264,-0.03265 -0.048961,-0.07479 -0.052734,-0.119141 -0.02653,-0.302034 -0.1577983,-0.585296 -0.3710938,-0.800781 -0.00258,-0.0039 -0.00519,-0.0078 -0.00781,-0.01172 L 2.3769531,11.59375 v -0.002 c -0.01299,-0.02286 -0.022149,-0.04812 -0.025391,-0.07422 -0.018622,-0.146941 -0.062218,-0.28962 -0.1289062,-0.421875 l -0.00781,-0.01563 c -0.011199,-0.0229 -0.01766,-0.0488 -0.019531,-0.07422 C 2.1846881,10.862527 2.1503684,10.721948 2.09375,10.589844 l -0.015625,-0.03516 v -0.002 c -0.00864,-0.02167 -0.01492,-0.04503 -0.015625,-0.06836 -0.00399,-0.126267 -0.026358,-0.25128 -0.066406,-0.371094 l -0.029297,-0.09375 c -0.00682,-0.020836 -0.01003,-0.042531 -0.00977,-0.064453 C 1.9578219,9.8376962 1.9427106,9.7207476 1.9121094,9.6074219 L 1.8886719,9.515625 c -0.00388,-0.0169 -0.00645,-0.033452 -0.00586,-0.050781 0.00338,-0.08956 -0.00251,-0.1792299 -0.017578,-0.2675782 L 1.8261719,8.9746094 c -0.00277,-0.023223 -0.00147,-0.045568 0.00391,-0.068359 0.056146,-0.2381183 0.04396,-0.4872478 -0.035156,-0.71875 -0.00651,-0.019055 -0.011307,-0.040418 -0.011719,-0.054687 l -0.00391,-0.1542969 c 0.029867,-0.1533371 0.031852,-0.3108025 0.00586,-0.4648437 l 0.00195,-0.050781 c 1.9e-6,-0.0013 1.9e-6,-0.0026 0,-0.00391 0.033433,-0.1479847 0.040704,-0.3006799 0.021484,-0.4511719 -8.312e-4,-0.00657 1.758e-4,-0.012915 0,-0.019531 l 0.00781,-0.068359 c 0.032405,-0.1308339 0.044265,-0.2659117 0.035156,-0.4003907 -9.226e-4,-0.013359 1.954e-4,-0.025794 0.00195,-0.039063 1.754e-4,-0.00132 -2.019e-4,-0.00259 0,-0.00391 l 0.027344,-0.1367188 c 0.018569,-0.095178 0.026431,-0.1921358 0.023437,-0.2890625 -5.536e-4,-0.018557 0.00326,-0.036703 0.00781,-0.054687 3.193e-4,-0.00126 -3.442e-4,-0.00265 0,-0.00391 l 0.033203,-0.1132813 c 0.032757,-0.1136827 0.049841,-0.2313052 0.050781,-0.3496093 1.656e-4,-0.020213 0.00359,-0.039369 0.00977,-0.058594 L 2.03125,5.4003906 C 2.0784659,5.2732169 2.1054856,5.1394362 2.1113281,5.0039062 2.1123199,4.9812686 2.1165475,4.9584956 2.125,4.9375 c 7.655e-4,-0.0019 0.00113,-0.00398 0.00195,-0.00586 l 0.013672,-0.027344 c 0.0604,-0.1327386 0.098035,-0.2746945 0.1113281,-0.4199219 0.00236,-0.026011 0.0094,-0.051065 0.021484,-0.074219 L 2.3613281,4.25 C 2.5048636,4.0408809 2.5890376,3.7962337 2.59375,3.5410156 2.5942534,3.4973772 2.6077016,3.4550166 2.6289063,3.4277344 L 2.7734375,3.2460938 c 0.014736,-0.018148 0.032672,-0.034876 0.052734,-0.046875 0.3419356,-0.2050397 0.5708748,-0.5556479 0.6210937,-0.9511719 0.00664,-0.052384 0.034734,-0.1004236 0.076172,-0.1328125 L 3.6679688,2.015625 c 0.00408,-0.00181 0.00752,-0.00432 0.011719,-0.00586 0.2364913,-0.086522 0.4427631,-0.2398691 0.59375,-0.4414062 0.016601,-0.022152 0.03645,-0.041083 0.060547,-0.054687 h 0.00195 l 0.1601562,-0.082031 c 0.027969,-0.013573 0.058758,-0.019924 0.089844,-0.019531 0.2507855,0.00274 0.4970096,-0.067129 0.7089844,-0.2011719 0.012056,-0.0076 0.023718,-0.01271 0.037109,-0.017578 L 5.5019531,1.140625 c 0.021342,-0.00643 0.044136,-0.00873 0.066406,-0.00781 0.1175903,0.00416 0.235201,-0.00767 0.3496093,-0.035156 l 0.21875,-0.046875 c 0.01961,-0.00402 0.038671,-0.00585 0.058594,-0.00391 0.1294507,0.010906 0.2598054,0.00235 0.3867187,-0.025391 l 0.1464844,-0.019531 h 0.00586 c 0.013547,-7.253e-4 0.027592,-7.44e-5 0.041016,0.00195 0.084925,0.00929 0.1704429,0.01017 0.2553161,0.0027 0.059561,-0.00303 0.1189205,-0.0101636 0.1775423,-0.0212792 l 0.1765166,-0.004858 c 0.026822,-8.384e-5 0.053399,0.005232 0.078125,0.015625 0.2970655,0.12445075 0.6297538,0.13419475 0.9335938,0.0273438 0.028784,-0.010106 0.059548,-0.013364 0.089844,-0.00977 L 8.6035156,1.03125 c 0.1288252,0.019477 0.2598467,0.019477 0.3886719,0 0.021954,-0.00333 0.04289,-0.0025 0.056641,0 L 9.2949219,1.078125 9.1894531,1.0527344 c 0.1412595,0.041467 0.2885367,0.058638 0.4355469,0.050781 0.021216,-0.00119 0.043161,3.128e-4 0.056641,0.00391 l 0.234375,0.064453 c 0.024622,0.00692 0.048098,0.017593 0.068359,0.033203 0.293344,0.2260819 0.669193,0.3163139 1.033203,0.2480469 0.04409,-0.00828 0.08921,-0.00119 0.128906,0.019531 0.0013,6.81e-4 0.0026,0.00124 0.0039,0.00195 l 0.199218,0.1132812 c 0.02441,0.013912 0.04588,0.033985 0.0625,0.056641 0.119174,0.1558651 0.272084,0.2827332 0.447266,0.3710938 l 0.181641,0.1269531 c 0.0563,0.039125 0.08891,0.1033799 0.08594,0.171875 -0.02469,0.5613775 0.314098,1.0750795 0.839844,1.2734375 0.04075,0.01539 0.07438,0.043413 0.09375,0.074219 l 0.132812,0.2109375 c 0.01571,0.025264 0.02599,0.05442 0.0293,0.083984 0.01272,0.1158863 0.04097,0.2295358 0.08399,0.3378906 l 0.0039,0.00977 c 0.01511,0.038547 0.03206,0.076351 0.05078,0.1132812 0.0129,0.025065 0.01996,0.051926 0.02149,0.080078 0.0077,0.1442094 0.03939,0.286127 0.09375,0.4199218 L 13.5,4.9746094 c 0.0091,0.022781 0.01333,0.045772 0.01367,0.070312 0.0022,0.1232593 0.02194,0.2455784 0.05859,0.3632812 l 0.03906,0.1289063 c 0.0066,0.021128 0.01037,0.044263 0.0098,0.066406 -8.28e-4,0.01236 -0.0015,0.024731 -0.002,0.037109 v 0.00195 c -7.9e-5,0.098599 0.01106,0.1968878 0.0332,0.2929688 l 0.03711,0.1621093 c 0.0036,0.017185 0.0049,0.035228 0.0039,0.052734 -0.0075,0.1443991 0.0091,0.2890297 0.04914,0.4279371 z" />
  <metadata
     id="metadata109">
    <rdf:RDF>
      <cc:Work
         rdf:about="">
        <dc:title>Exported SVG</dc:title>
      </cc:Work>
    </rdf:RDF>
  </metadata>
</svg>
