<?xml version="1.0" encoding="UTF-8" standalone="no"?>
<svg
   width="15.55mm"
   height="15.55mm"
   viewBox="0 0 15.55 15.55"
   version="1.1"
   id="svg109"
   sodipodi:docname="bond23x-b.svg"
   inkscape:version="1.3.2 (091e20ef0f, 2023-11-25)"
   xmlns:inkscape="http://www.inkscape.org/namespaces/inkscape"
   xmlns:sodipodi="http://sodipodi.sourceforge.net/DTD/sodipodi-0.dtd"
   xmlns="http://www.w3.org/2000/svg"
   xmlns:svg="http://www.w3.org/2000/svg"
   xmlns:rdf="http://www.w3.org/1999/02/22-rdf-syntax-ns#"
   xmlns:cc="http://creativecommons.org/ns#"
   xmlns:dc="http://purl.org/dc/elements/1.1/">
  <defs
     id="defs109">
    <inkscape:path-effect
       effect="offset"
       id="path-effect165"
       is_visible="true"
       lpeversion="1.2"
       linejoin_type="round"
       unit="mm"
       offset="-0.2"
       miter_limit="4"
       attempt_force_join="false"
       update_on_knot_move="true" />
    <inkscape:path-effect
       effect="offset"
       id="path-effect164"
       is_visible="true"
       lpeversion="1.2"
       linejoin_type="round"
       unit="mm"
       offset="0.4"
       miter_limit="4"
       attempt_force_join="false"
       update_on_knot_move="true" />
    <inkscape:path-effect
       effect="offset"
       id="path-effect2"
       is_visible="true"
       lpeversion="1.2"
       linejoin_type="round"
       unit="mm"
       offset="-0.8"
       miter_limit="4"
       attempt_force_join="false"
       update_on_knot_move="true" />
    <inkscape:path-effect
       effect="offset"
       id="path-effect1"
       is_visible="true"
       lpeversion="1.2"
       linejoin_type="round"
       unit="mm"
       offset="1"
       miter_limit="4"
       attempt_force_join="false"
       update_on_knot_move="true" />
    <inkscape:path-effect
       effect="offset"
       id="path-effect678"
       is_visible="true"
       lpeversion="1.2"
       linejoin_type="miter"
       unit="mm"
       offset="0"
       miter_limit="4"
       attempt_force_join="false"
       update_on_knot_move="true" />
    <inkscape:path-effect
       effect="offset"
       id="path-effect653"
       is_visible="true"
       lpeversion="1.2"
       linejoin_type="miter"
       unit="mm"
       offset="0"
       miter_limit="4"
       attempt_force_join="false"
       update_on_knot_move="true" />
  </defs>
  <sodipodi:namedview
     id="namedview109"
     pagecolor="#ffffff"
     bordercolor="#666666"
     borderopacity="1.0"
     inkscape:showpageshadow="2"
     inkscape:pageopacity="0.0"
     inkscape:pagecheckerboard="0"
     inkscape:deskcolor="#d1d1d1"
     inkscape:document-units="mm"
     inkscape:zoom="17.287245"
     inkscape:cx="29.472597"
     inkscape:cy="29.385828"
     inkscape:window-width="1920"
     inkscape:window-height="1216"
     inkscape:window-x="0"
     inkscape:window-y="0"
     inkscape:window-maximized="1"
     inkscape:current-layer="svg109" />
  <title
     id="title1">Exported SVG</title>
  <style
     id="style1"><![CDATA[
polygon {
shape-rendering:crispEdges;
stroke-width:16.426968;
}
.s0 {
stroke:#000000;
stroke-width:11.485752;
stroke-linecap:round;
stroke-linejoin:round;
fill:none;
}
.s1 {
stroke:#000000;
stroke-width:11.485752;
stroke-linecap:round;
stroke-linejoin:round;
fill:none;
}
.s2 {
stroke:#19b219;
stroke-width:11.485752;
stroke-linecap:round;
stroke-linejoin:round;
fill:none;
}
.s3 {
stroke:#7f4c00;
stroke-width:11.485752;
stroke-linecap:round;
stroke-linejoin:round;
fill:none;
}
.s4 {
stroke:#00cc00;
stroke-width:11.485752;
stroke-linecap:round;
stroke-linejoin:round;
fill:none;
}
.s5 {
stroke:#000000;
stroke-width:7.657168;
stroke-linecap:round;
stroke-linejoin:round;
fill:none;
}
.s6 {
stroke:#ff19ff;
stroke-width:7.657168;
stroke-linecap:round;
stroke-linejoin:round;
fill:none;
}
.s7 {
stroke:#ff0000;
stroke-width:11.485752;
stroke-linecap:round;
stroke-linejoin:round;
fill:none;
}
.s8 {
stroke:#ffff00;
stroke-width:11.485752;
stroke-linecap:round;
stroke-linejoin:round;
fill:none;
}
.s9 {
stroke:#001919;
stroke-width:7.657168;
stroke-linecap:round;
stroke-linejoin:round;
fill:none;
}
.sa {
stroke:#006666;
stroke-width:7.657168;
stroke-linecap:round;
stroke-linejoin:round;
fill:none;
}
.sb {
stroke:#00ffff;
stroke-width:22.971504;
stroke-linecap:round;
stroke-linejoin:round;
fill:none;
}
.sc {
stroke:#ff0000;
stroke-width:61.257344;
stroke-linecap:round;
stroke-linejoin:round;
fill:none;
}
.sd {
stroke:#191919;
stroke-width:7.657168;
stroke-linecap:round;
stroke-linejoin:round;
fill:none;
}
.se {
stroke:#000000;
stroke-width:7.657168;
stroke-linecap:round;
stroke-linejoin:round;
stroke-dasharray:114.858,114.858;
fill:none;
}
.sf {
stroke:#000000;
stroke-width:22.971504;
stroke-linecap:round;
stroke-linejoin:round;
fill:none;
}
]]></style>
  <metadata
     id="metadata109">
    <rdf:RDF>
      <cc:Work
         rdf:about="">
        <dc:title>Exported SVG</dc:title>
      </cc:Work>
    </rdf:RDF>
  </metadata>
  <path
     style="color:#000000;fill:#000000;fill-opacity:1;stroke-linecap:round;stroke-linejoin:round;-inkscape-stroke:none"
     d="M 15.408362,9.0020345 10.70684,9.6505737 a 0.125,0.125 0 0 0 -0.03204,0.013953 0.1250125,0.1250125 0 0 0 -0.01912,0.00827 0.125,0.125 0 0 0 -0.03566,0.040824 0.1250125,0.1250125 0 0 0 -0.01034,0.013436 0.125,0.125 0 0 0 -0.0083,0.066146 0.125,0.125 0 0 0 5.17e-4,0.00103 0.1250125,0.1250125 0 0 0 -5.17e-4,0.00465 l 1.101742,5.6503013 a 0.125,0.125 0 0 0 0.146244,0.09767 0.125,0.125 0 0 0 0.09767,-0.146245 L 10.878923,9.9084391 15.41818,10.150285 A 0.125,0.125 0 0 0 15.550989,10.031429 0.125,0.125 0 0 0 15.431616,9.9001709 L 12.034408,9.7198201 15.441435,9.2480143 a 0.125,0.125 0 0 0 0.107487,-0.1405599 0.125,0.125 0 0 0 -0.14056,-0.1054199 z"
     id="path5" />
  <path
     style="color:#000000;fill:#000000;fill-opacity:1;stroke-linecap:round;stroke-linejoin:round;-inkscape-stroke:none"
     d="m 3.8958866,8.8278849 a 0.125,0.125 0 0 0 -0.09095,0.0863 l -2.000395,6.4745401 a 0.125,0.125 0 0 0 0.08423,0.156063 0.125,0.125 0 0 0 0.156063,-0.08372 l 1.999878,-6.4745401 a 0.125,0.125 0 0 0 -0.08372,-0.1565796 0.125,0.125 0 0 0 -0.06511,-0.00207 z"
     id="path4" />
  <path
     style="color:#000000;fill:#000000;fill-opacity:1;stroke-linecap:round;stroke-linejoin:round;-inkscape-stroke:none"
     d="m 1.0490316,0.00206706 a 0.125,0.125 0 0 0 -0.09405,0.01963704 0.125,0.125 0 0 0 -0.03307,0.17363281 L 4.6426146,5.7283325 0.06666663,8.1131999 a 0.125,0.125 0 0 0 -0.05323,0.1700154 0.125,0.125 0 0 0 0.170015,0.05271 L 4.8829063,5.8864624 a 0.1250125,0.1250125 0 0 0 0.04703,-0.1813843 L 1.1291296,0.05477702 a 0.125,0.125 0 0 0 -0.0801,-0.05270996 z"
     id="path3" />
  <path
     style="color:#000000;fill:#000000;fill-opacity:1;stroke-linecap:round;stroke-linejoin:round;-inkscape-stroke:none"
     d="M 14.512292,0.00103353 A 0.125,0.125 0 0 0 14.409973,0.07441406 L 11.511959,6.5489543 a 0.125,0.125 0 0 0 0.06201,0.1658813 0.125,0.125 0 0 0 0.164331,-0.064595 L 14.6389,0.17569987 A 0.125,0.125 0 0 0 14.57637,0.01188558 0.125,0.125 0 0 0 14.51229,0.00103353 Z"
     id="path2" />
  <path
     style="color:#000000;fill:#000000;fill-opacity:1;stroke-linecap:round;stroke-linejoin:round;-inkscape-stroke:none"
     d="m 2.8442706,0.00103353 a 0.125,0.125 0 0 0 -0.04909,0.00310058 0.125,0.125 0 0 0 -0.07648,0.05632732 0.125,0.125 0 0 0 0.04082,0.17208252 L 7.7111573,3.2323608 a 0.125,0.125 0 0 0 0.171566,-0.042891 0.125,0.125 0 0 0 -0.04289,-0.1720825 L 2.8907796,0.01756999 A 0.125,0.125 0 0 0 2.8442706,0.00103353 Z"
     id="path1" />
  <path
     style="color:#000000;fill:#000000;fill-opacity:1;stroke-linecap:round;stroke-linejoin:round;-inkscape-stroke:none"
     d="m 8.2150023,0 a 0.125,0.125 0 0 0 -0.04702,0.01343587 0.125,0.125 0 0 0 -0.05478,0.16794841 L 10.277411,4.4178182 a 0.1250125,0.1250125 0 0 0 0.22841,-0.015503 L 11.943457,0.16588135 A 0.125,0.125 0 0 0 11.865426,0.00568441 0.125,0.125 0 0 0 11.706779,0.08423258 L 10.365259,4.041097 8.3359253,0.06821289 A 0.125,0.125 0 0 0 8.2635783,0.00568441 0.125,0.125 0 0 0 8.2150023,0 Z"
     id="path176" />
  <g
     id="g201"
     style="fill:#000000;fill-opacity:1">
    <circle
       style="fill:#000000;fill-opacity:1;stroke:none;stroke-width:0.25;stroke-linecap:butt;stroke-linejoin:round;stroke-dasharray:none"
       id="circle185"
       cx="7.7750001"
       cy="3.125"
       r="0.34999999" />
    <circle
       style="fill:#000000;fill-opacity:1;stroke:none;stroke-width:0.25;stroke-linecap:butt;stroke-linejoin:round;stroke-dasharray:none"
       id="circle187"
       cx="7.7750001"
       cy="12.424999"
       r="0.34999999" />
    <circle
       style="fill:#000000;fill-opacity:1;stroke:none;stroke-width:0.25;stroke-linecap:butt;stroke-linejoin:round;stroke-dasharray:none"
       id="circle189"
       cx="11.625"
       cy="6.5999999"
       r="0.34999999" />
    <circle
       style="fill:#000000;fill-opacity:1;stroke:none;stroke-width:0.25;stroke-linecap:butt;stroke-linejoin:round;stroke-dasharray:none"
       id="circle191"
       cx="3.925"
       cy="8.9499998"
       r="0.34999999" />
    <circle
       style="fill:#000000;fill-opacity:1;stroke:none;stroke-width:0.25;stroke-linecap:butt;stroke-linejoin:round;stroke-dasharray:none"
       id="circle193"
       cx="4.8249998"
       cy="5.7750001"
       r="0.34999999" />
    <circle
       style="fill:#000000;fill-opacity:1;stroke:none;stroke-width:0.25;stroke-linecap:butt;stroke-linejoin:round;stroke-dasharray:none"
       id="circle195"
       cx="10.725"
       cy="9.7749996"
       r="0.34999999" />
    <circle
       style="fill:#000000;fill-opacity:1;stroke:none;stroke-width:0.25;stroke-linecap:butt;stroke-linejoin:round;stroke-dasharray:none"
       id="circle197"
       cx="10.388173"
       cy="4.3618274"
       r="0.34999999" />
    <circle
       style="fill:#000000;fill-opacity:1;stroke:none;stroke-width:0.25;stroke-linecap:butt;stroke-linejoin:round;stroke-dasharray:none"
       id="circle199"
       cx="5.1618271"
       cy="11.188172"
       r="0.34999999" />
  </g>
  <path
     style="color:#000000;fill:#1a1a1a;stroke-linecap:round;stroke-linejoin:round;-inkscape-stroke:none;opacity:1"
     d="m 5.1640625,11.0625 a 0.1250125,0.1250125 0 0 0 -0.1210938,0.08594 l -1.4355468,4.236328 a 0.125,0.125 0 0 0 0.078125,0.158203 0.125,0.125 0 0 0 0.1582031,-0.07813 l 1.3105469,-3.867188 1.1503906,3.863282 a 0.125,0.125 0 0 0 0.15625,0.08398 0.125,0.125 0 0 0 0.083984,-0.15625 L 5.28125,11.152344 A 0.1250125,0.1250125 0 0 0 5.1640625,11.0625 Z"
     id="path174" />
</svg>
