<?xml version="1.0" encoding="UTF-8" standalone="no"?>
<svg
   width="15.55mm"
   height="15.55mm"
   viewBox="0 0 15.55 15.55"
   version="1.1"
   id="svg109"
   sodipodi:docname="cob_soldermask.svg"
   inkscape:version="1.3.2 (091e20ef0f, 2023-11-25)"
   xmlns:inkscape="http://www.inkscape.org/namespaces/inkscape"
   xmlns:sodipodi="http://sodipodi.sourceforge.net/DTD/sodipodi-0.dtd"
   xmlns="http://www.w3.org/2000/svg"
   xmlns:svg="http://www.w3.org/2000/svg"
   xmlns:rdf="http://www.w3.org/1999/02/22-rdf-syntax-ns#"
   xmlns:cc="http://creativecommons.org/ns#"
   xmlns:dc="http://purl.org/dc/elements/1.1/">
  <defs
     id="defs109">
    <inkscape:path-effect
       effect="offset"
       id="path-effect473"
       is_visible="true"
       lpeversion="1.2"
       linejoin_type="round"
       unit="mm"
       offset="-0.3"
       miter_limit="4"
       attempt_force_join="false"
       update_on_knot_move="true" />
    <inkscape:path-effect
       effect="offset"
       id="path-effect472"
       is_visible="true"
       lpeversion="1.2"
       linejoin_type="round"
       unit="mm"
       offset="0.5"
       miter_limit="4"
       attempt_force_join="false"
       update_on_knot_move="true" />
    <inkscape:path-effect
       effect="offset"
       id="path-effect165"
       is_visible="true"
       lpeversion="1.2"
       linejoin_type="round"
       unit="mm"
       offset="-0.2"
       miter_limit="4"
       attempt_force_join="false"
       update_on_knot_move="true" />
    <inkscape:path-effect
       effect="offset"
       id="path-effect164"
       is_visible="true"
       lpeversion="1.2"
       linejoin_type="round"
       unit="mm"
       offset="0.4"
       miter_limit="4"
       attempt_force_join="false"
       update_on_knot_move="true" />
    <inkscape:path-effect
       effect="offset"
       id="path-effect2"
       is_visible="true"
       lpeversion="1.2"
       linejoin_type="round"
       unit="mm"
       offset="-0.8"
       miter_limit="4"
       attempt_force_join="false"
       update_on_knot_move="true" />
    <inkscape:path-effect
       effect="offset"
       id="path-effect1"
       is_visible="true"
       lpeversion="1.2"
       linejoin_type="round"
       unit="mm"
       offset="1"
       miter_limit="4"
       attempt_force_join="false"
       update_on_knot_move="true" />
    <inkscape:path-effect
       effect="offset"
       id="path-effect678"
       is_visible="true"
       lpeversion="1.2"
       linejoin_type="miter"
       unit="mm"
       offset="0"
       miter_limit="4"
       attempt_force_join="false"
       update_on_knot_move="true" />
    <inkscape:path-effect
       effect="offset"
       id="path-effect653"
       is_visible="true"
       lpeversion="1.2"
       linejoin_type="miter"
       unit="mm"
       offset="0"
       miter_limit="4"
       attempt_force_join="false"
       update_on_knot_move="true" />
    <inkscape:path-effect
       effect="offset"
       id="path-effect68"
       is_visible="true"
       lpeversion="1.2"
       linejoin_type="round"
       unit="mm"
       offset="0.5"
       miter_limit="4"
       attempt_force_join="false"
       update_on_knot_move="true" />
    <inkscape:path-effect
       effect="offset"
       id="path-effect69"
       is_visible="true"
       lpeversion="1.2"
       linejoin_type="round"
       unit="mm"
       offset="-0.3"
       miter_limit="4"
       attempt_force_join="false"
       update_on_knot_move="true" />
  </defs>
  <sodipodi:namedview
     id="namedview109"
     pagecolor="#ffffff"
     bordercolor="#666666"
     borderopacity="1.0"
     inkscape:showpageshadow="2"
     inkscape:pageopacity="0.0"
     inkscape:pagecheckerboard="0"
     inkscape:deskcolor="#d1d1d1"
     inkscape:document-units="mm"
     inkscape:zoom="17.287245"
     inkscape:cx="29.443674"
     inkscape:cy="29.385828"
     inkscape:window-width="1920"
     inkscape:window-height="1216"
     inkscape:window-x="0"
     inkscape:window-y="0"
     inkscape:window-maximized="1"
     inkscape:current-layer="svg109" />
  <title
     id="title1">Exported SVG</title>
  <style
     id="style1"><![CDATA[
polygon {
shape-rendering:crispEdges;
stroke-width:16.426968;
}
.s0 {
stroke:#000000;
stroke-width:11.485752;
stroke-linecap:round;
stroke-linejoin:round;
fill:none;
}
.s1 {
stroke:#000000;
stroke-width:11.485752;
stroke-linecap:round;
stroke-linejoin:round;
fill:none;
}
.s2 {
stroke:#19b219;
stroke-width:11.485752;
stroke-linecap:round;
stroke-linejoin:round;
fill:none;
}
.s3 {
stroke:#7f4c00;
stroke-width:11.485752;
stroke-linecap:round;
stroke-linejoin:round;
fill:none;
}
.s4 {
stroke:#00cc00;
stroke-width:11.485752;
stroke-linecap:round;
stroke-linejoin:round;
fill:none;
}
.s5 {
stroke:#000000;
stroke-width:7.657168;
stroke-linecap:round;
stroke-linejoin:round;
fill:none;
}
.s6 {
stroke:#ff19ff;
stroke-width:7.657168;
stroke-linecap:round;
stroke-linejoin:round;
fill:none;
}
.s7 {
stroke:#ff0000;
stroke-width:11.485752;
stroke-linecap:round;
stroke-linejoin:round;
fill:none;
}
.s8 {
stroke:#ffff00;
stroke-width:11.485752;
stroke-linecap:round;
stroke-linejoin:round;
fill:none;
}
.s9 {
stroke:#001919;
stroke-width:7.657168;
stroke-linecap:round;
stroke-linejoin:round;
fill:none;
}
.sa {
stroke:#006666;
stroke-width:7.657168;
stroke-linecap:round;
stroke-linejoin:round;
fill:none;
}
.sb {
stroke:#00ffff;
stroke-width:22.971504;
stroke-linecap:round;
stroke-linejoin:round;
fill:none;
}
.sc {
stroke:#ff0000;
stroke-width:61.257344;
stroke-linecap:round;
stroke-linejoin:round;
fill:none;
}
.sd {
stroke:#191919;
stroke-width:7.657168;
stroke-linecap:round;
stroke-linejoin:round;
fill:none;
}
.se {
stroke:#000000;
stroke-width:7.657168;
stroke-linecap:round;
stroke-linejoin:round;
stroke-dasharray:114.858,114.858;
fill:none;
}
.sf {
stroke:#000000;
stroke-width:22.971504;
stroke-linecap:round;
stroke-linejoin:round;
fill:none;
}
]]></style>
  <metadata
     id="metadata109">
    <rdf:RDF>
      <cc:Work
         rdf:about="">
        <dc:title>Exported SVG</dc:title>
      </cc:Work>
    </rdf:RDF>
  </metadata>
  <path
     id="path167-6"
     style="color:#000000;fill:#000000;stroke-linejoin:round;-inkscape-stroke:none"
     d="m 7.4179687,0.98046875 c 0.1048336,-0.002306 0.1977306,0.0809437 0.2050782,0.18554685 0.023178,0.3572663 0.539893,0.3809843 0.5957031,0.027344 l 0.00195,-0.015625 C 8.2369366,1.0701177 8.3396448,0.99367091 8.4472656,1.0097656 l 0.25,0.037109 c 0.011402,0.00163 0.022251,0.00425 0.033203,0.00781 0.069172,0.022416 0.144132,0.018945 0.2109375,-0.00977 0.035432,-0.015175 0.074921,-0.019186 0.1074218,-0.013672 l 0.2460938,0.046875 c 0.018196,0.00353 0.036204,0.00919 0.052734,0.017578 0.070843,0.035872 0.1530193,0.042193 0.2285156,0.017578 0.036106,-0.011893 0.074226,-0.013722 0.1054687,-0.00586 l 0.2421875,0.066406 C 10.029534,1.2030325 10.092732,1.3159226 10.0625,1.421875 L 9.8925781,2.0195313 c -0.00485,0.00905 -0.00944,0.019132 -0.015625,0.027344 -0.1332666,0.1787273 -0.031936,0.4352213 0.1874999,0.4746094 0.01677,0.00296 0.02465,0.00457 0.03125,0.00586 0.02032,0.00395 0.03333,0.00696 0.06055,0.013672 0.202903,0.050858 0.394257,-0.116326 0.371094,-0.3242187 -0.0043,-0.039603 0.0029,-0.079352 0.01758,-0.1074219 l 0.318359,-0.5664063 c 0.05333,-0.095249 0.177237,-0.1292495 0.271485,-0.076172 l 0.21875,0.1230468 c 0.05121,0.028781 0.0866,0.079026 0.09766,0.1367188 0.02611,0.138143 0.144641,0.2396293 0.285156,0.2441406 0.03734,0.0012 0.07314,0.011678 0.09961,0.029297 l 0.205078,0.1425781 c 0.08926,0.06218 0.112926,0.1897352 0.05078,0.2792969 L 11.867188,2.7441406 11.732422,2.9375 c -0.01194,0.012528 -0.02429,0.024144 -0.03906,0.033203 -0.157925,0.096021 -0.1923,0.3106294 -0.07226,0.4511719 0.10081,0.1174832 0.191524,0.240738 0.269531,0.3710938 0.08582,0.1442995 0.273355,0.1900822 0.416016,0.1015625 l 0.478515,-0.2988282 c 0.09276,-0.057655 0.217655,-0.027164 0.275391,0.066406 l 0.130859,0.2089844 c 0.0251,0.041076 0.03534,0.089251 0.02734,0.1367187 -0.01122,0.064655 -9.26e-4,0.1312059 0.0293,0.1894531 l 0.115234,0.2226563 c 0.02126,0.041102 0.02723,0.087552 0.01758,0.1328125 -0.01182,0.064442 -0.0022,0.1309822 0.02734,0.1894531 l 0.09375,0.234375 c 0.01583,0.039181 0.01806,0.082051 0.0078,0.1230469 -0.01454,0.068197 -0.0049,0.1393303 0.02734,0.2011718 l 0.07227,0.2324219 c 0.01131,0.037045 0.01084,0.075903 0,0.1132813 -0.02266,0.081454 -0.0099,0.1686878 0.03516,0.2402343 0,0 0,0.00195 0,0.00195 l 0.04687,0.2089843 c 0.0076,0.034435 0.0068,0.069912 -0.0039,0.1035157 -0.02462,0.075496 -0.01829,0.1576721 0.01758,0.2285156 0.0034,0.0067 0.0052,0.014457 0.0078,0.021484 l 0.03125,0.2128906 c 0.0043,0.031299 6.53e-4,0.061991 -0.0098,0.091797 -0.0259,0.074143 -0.02169,0.155487 0.01172,0.2265625 0.0059,0.012554 0.0086,0.025579 0.01172,0.039063 l 0.01172,0.2109375 c 0.0011,0.023807 -0.0025,0.047619 -0.0098,0.070312 -0.01961,0.060295 -0.01961,0.1252519 0,0.1855468 0.0069,0.020692 0.0099,0.043746 0.0098,0.0625 l -0.0039,0.2246094 c -0.0028,0.013676 -0.0061,0.026254 -0.01172,0.039063 -0.03097,0.071284 -0.03308,0.1518074 -0.0059,0.2246094 0.01026,0.027675 0.01382,0.057327 0.01172,0.082031 l -0.02539,0.25 c -0.01094,0.1082399 -0.110253,0.1885087 -0.21875,0.1777343 l -0.912109,-0.089844 c -0.176818,-0.017818 -0.33028,0.1211151 -0.330078,0.2988281 V 9.078125 c -1.35e-4,0.2181181 0.225157,0.3634681 0.423828,0.2734375 0.04445,-0.019994 0.09408,-0.022277 0.140625,-0.00781 l 0.597656,0.2167969 c 0.102459,0.037571 0.157175,0.1547814 0.119141,0.2578125 l -0.08594,0.2343746 c -0.03042,0.0596 -0.04005,0.127661 -0.02734,0.19336 0.01006,0.0429 0.006,0.0878 -0.01172,0.126953 l -0.103516,0.226562 c -0.02901,0.05744 -0.0386,0.123404 -0.02734,0.1875 0.0088,0.04656 2.48e-4,0.09505 -0.02344,0.136719 l -0.117188,0.207031 c -0.0331,0.05868 -0.04548,0.126788 -0.03516,0.19336 0.0076,0.05003 -0.0045,0.100686 -0.0332,0.142578 l -0.123047,0.179687 c -0.04077,0.05941 -0.0588,0.131516 -0.05078,0.203125 0.0059,0.05331 -0.01,0.10598 -0.04297,0.146485 l -0.126953,0.154297 c -0.04867,0.05979 -0.07245,0.13603 -0.06641,0.21289 0.0041,0.0572 -0.01677,0.11384 -0.05664,0.154297 l -0.15625,0.158203 c -0.01702,0.0143 -0.03591,0.02721 -0.05664,0.03516 -0.122918,0.04736 -0.200559,0.169371 -0.191406,0.300781 0.0051,0.0681 -0.02496,0.134067 -0.07813,0.173828 l -0.175781,0.128906 c -0.0028,9.76e-4 -0.0049,0.0031 -0.0078,0.0039 -0.121874,0.03588 -0.207938,0.144628 -0.214843,0.271485 -0.0033,0.0613 -0.03619,0.117586 -0.08594,0.152344 l -0.205078,0.142578 c -0.08938,0.06202 -0.215727,0.03962 -0.277344,-0.04883 l -0.521484,-0.753907 c -0.07263,-0.105811 -0.204526,-0.153701 -0.328125,-0.11914 -0.03495,0.01 -0.0618,0.01881 -0.08789,0.02539 -0.188039,0.04972 -0.2750889,0.260037 -0.1875,0.427735 l 0.216797,0.607422 c 0.03654,0.102549 -0.01712,0.217448 -0.119141,0.253906 l -0.2226559,0.08008 c -0.00124,3.73e-4 -0.00266,-3.48e-4 -0.00391,0 -0.046495,0.01304 -0.096952,0.0091 -0.140625,-0.01172 -0.1097637,-0.05206 -0.2400869,-0.03278 -0.3300781,0.04883 -0.025198,0.02295 -0.057562,0.03975 -0.087891,0.04687 L 9.125,14.494141 c -0.042828,0.0057 -0.087201,-0.0022 -0.125,-0.02344 -0.1060323,-0.05883 -0.237051,-0.04804 -0.3320312,0.02734 -0.029899,0.02368 -0.066017,0.03739 -0.1015625,0.04102 L 8.3222656,14.5625 c -0.040857,0.001 -0.081054,-0.01063 -0.1152343,-0.0332 -0.1035683,-0.0686 -0.2387018,-0.06627 -0.3398438,0.0059 -0.033034,0.02337 -0.072839,0.03463 -0.1132813,0.03516 l -0.234375,-0.0059 c -0.039602,-0.0021 -0.077676,-0.01718 -0.109375,-0.04101 -0.098259,-0.07338 -0.2312907,-0.07957 -0.3359375,-0.01563 -0.037442,0.02282 -0.0814,0.03193 -0.125,0.02734 L 6.7167969,14.5 C 6.6087933,14.483773 6.5323251,14.380951 6.5488281,14.273438 l 0.097656,-0.63086 c 0.0057,-0.02821 0.016256,-0.05486 0.033203,-0.07813 0.1289626,-0.178192 0.028663,-0.429988 -0.1875,-0.470703 -0.023936,-0.0044 -0.050139,-0.01128 -0.076172,-0.01563 -0.016142,-0.0026 -0.032473,-0.0039 -0.048828,-0.0039 H 6.1972656 c -0.1953113,-2.9e-5 -0.3385719,0.183613 -0.2910156,0.373047 0.010272,0.0419 0.00628,0.08524 -0.00977,0.123047 L 5.6386719,14.166016 C 5.5953389,14.265622 5.4755309,14.312822 5.375,14.269531 l -0.2148438,-0.0918 c -0.025536,-0.01229 -0.048178,-0.03104 -0.066406,-0.05273 -0.081922,-0.09771 -0.2166593,-0.132963 -0.3359375,-0.08789 -0.052788,0.01971 -0.1121519,0.01604 -0.1621094,-0.0098 -0.00129,-6.66e-4 -0.00263,-0.0013 -0.00391,-0.002 L 4.3886719,13.902344 C 4.295315,13.846353 4.2642698,13.722556 4.3203125,13.628906 l 0.3300781,-0.552734 c 0.083539,-0.140484 0.039248,-0.321989 -0.099609,-0.408203 -0.023247,-0.01444 -0.036321,-0.02196 -0.044922,-0.02734 0,0 -0.00195,-0.002 -0.00195,-0.002 0,0 -0.00195,-0.002 -0.00195,-0.002 0,0 0.023629,0.01616 -0.00977,-0.0059 -0.1103354,-0.07245 -0.2147034,-0.155116 -0.3144531,-0.24414 -0.1168365,-0.103456 -0.2934776,-0.100059 -0.40625,0.0078 l -0.4453125,0.423828 c -0.079066,0.07569 -0.2079574,0.07173 -0.2832031,-0.0078 L 2.875,12.634766 c -0.06718,-0.07397 -0.068265,-0.192826 -0.00195,-0.267578 0.1713931,-0.191557 0.038257,-0.495869 -0.21875,-0.5 -0.06731,-0.0011 -0.1301712,-0.03442 -0.1640625,-0.08789 l -0.125,-0.201172 -0.00195,-0.0059 c -0.019236,-0.03747 -0.025974,-0.08132 -0.019531,-0.123047 0.00932,-0.06296 -0.00162,-0.127261 -0.03125,-0.183594 L 2.2070313,11.0625 c -0.018121,-0.03787 -0.02504,-0.08173 -0.017578,-0.123047 0.010289,-0.05879 0.00281,-0.119312 -0.021484,-0.173828 l -0.00195,-0.0039 -0.00391,-0.0098 -0.087891,-0.207031 c -0.014636,-0.03701 -0.018291,-0.07832 -0.00977,-0.117188 0.016182,-0.07325 0.00434,-0.149899 -0.033203,-0.214843 0,0 0,-0.002 0,-0.002 l -0.068359,-0.195313 c -0.011336,-0.0357 -0.011245,-0.075053 -0.00195,-0.1113281 0.017955,-0.072521 0.0082,-0.1491324 -0.027344,-0.2148438 L 1.8808594,9.4804688 c -0.00889,-0.034082 -0.00941,-0.069558 0,-0.1035157 0.00751,-0.026041 0.011447,-0.052979 0.011719,-0.080078 v -0.00195 c -7.38e-5,-0.04756 -0.011454,-0.094422 -0.033203,-0.1367188 0,0 -0.00195,-0.00195 -0.00195,-0.00195 L 1.8222656,8.9511719 C 1.8101182,8.8802658 1.8386738,8.8070527 1.8945312,8.7617188 2.0516352,8.6346991 2.04082,8.3918483 1.8730469,8.2792969 1.8208929,8.2443016 1.7881476,8.1866454 1.7851562,8.1328125 l -0.00586,-0.2285156 c 0.00221,-0.016902 0.00529,-0.033008 0.011719,-0.048828 0.02919,-0.07122 0.029889,-0.1509351 0.00195,-0.2226562 -0.007,-0.018068 -0.010176,-0.037346 -0.011719,-0.056641 l 0.00781,-0.1875 c 0.00311,-0.012832 0.00614,-0.025126 0.011719,-0.037109 C 1.8341928,7.280487 1.8384002,7.1991433 1.8125,7.125 c -0.00858,-0.024443 -0.013005,-0.050309 -0.011719,-0.076172 0,0 0,-0.00195 0,-0.00195 l 0.025391,-0.1933594 c 0.00146,-0.00338 0.00226,-0.00647 0.00391,-0.00977 0.034434,-0.06838 0.041421,-0.1473384 0.019531,-0.2207031 -0.00911,-0.030125 -0.010197,-0.063146 -0.00586,-0.087891 l 0.039063,-0.2011718 c 6.711e-4,-0.00195 0.00132,-0.0039 0.00195,-0.00586 0.036907,-0.068153 0.046006,-0.1479442 0.025391,-0.2226563 -0.00943,-0.034514 -0.0086,-0.070054 0,-0.1015625 L 1.96875,5.7988281 c 0.03621,-0.065457 0.046658,-0.1420813 0.029297,-0.2148437 -0.00869,-0.036748 -0.00626,-0.075637 0.00391,-0.1054688 l 0.072266,-0.1992187 c 6.605e-4,-0.0013 0.00131,-0.0026 0.00195,-0.00391 0.036084,-0.063316 0.047886,-0.1376024 0.033203,-0.2089844 -0.00813,-0.039197 -0.00355,-0.080213 0.011719,-0.1171875 v -0.00195 L 2.2226563,4.7304687 c 0.018948,-0.03966 0.028949,-0.083 0.029297,-0.1269531 v -0.00195 c -5.048e-4,-0.017063 -0.00246,-0.034052 -0.00586,-0.050781 -0.00732,-0.041987 5.458e-4,-0.086843 0.019531,-0.125 L 2.3710938,4.2324219 C 2.3978666,4.1893966 2.4412915,4.1576661 2.4902344,4.1445312 2.700403,4.0871934 2.7813093,3.8320271 2.6425781,3.6640625 2.5847835,3.5942598 2.583725,3.4932741 2.6367188,3.4199219 c 0,0 0,-0.00195 0,-0.00195 l 0.1484375,-0.1875 C 2.8527682,3.1448012 2.9792628,3.1297222 3.0644531,3.1972656 L 3.4648438,3.515625 c 0.1280805,0.1032298 0.3154028,0.084062 0.4199218,-0.042969 0.019764,-0.02403 0.035947,-0.045158 0.052734,-0.064453 0.1219722,-0.140216 0.088416,-0.356466 -0.070312,-0.453125 -0.018145,-0.010984 -0.035025,-0.024926 -0.048828,-0.041016 0,0 -0.00195,-0.00195 -0.00195,-0.00195 L 3.4648438,2.3984375 C 3.403529,2.3090386 3.4265922,2.182982 3.515625,2.1210938 L 3.7109375,1.9863281 C 3.752669,1.9607445 3.8013888,1.9503429 3.8496094,1.9589844 4.0232432,1.9899525 4.1859989,1.8651731 4.2011719,1.6894531 4.2068648,1.622066 4.2471645,1.5611228 4.3027344,1.53125 l 0.21875,-0.1132813 C 4.5873282,1.3849116 4.6664746,1.3909601 4.7265625,1.4335937 4.8805248,1.5430492 5.0961163,1.4846794 5.1738281,1.3125 5.1950801,1.2656246 5.2336807,1.2301219 5.28125,1.2109375 l 0.2285156,-0.070312 0.00391,-0.00195 c 0.03676,-0.00769 0.075973,-0.00528 0.1113281,0.00781 0.09114,0.033902 0.1930596,0.021526 0.2734375,-0.033203 0.010433,-0.00716 0.021624,-0.012521 0.033203,-0.017578 l 0.2109375,-0.044922 c 0.038271,-0.00756 0.077144,-0.00493 0.1132813,0.00977 0.085876,0.03525 0.1832346,0.02876 0.2636718,-0.017578 0.014886,-0.00868 0.03223,-0.014938 0.048828,-0.019531 l 0.2167968,-0.0273438 c 0.035003,-0.004494 0.069041,0.001923 0.1015625,0.015625 0.079934,0.03332 0.1703679,0.030471 0.2480469,-0.00781 0.01626,-0.007931 0.034984,-0.0123371 0.052734,-0.015625 z M 5.9746094,4.1738281 c -0.4940159,0 -0.9027639,0.3645252 -0.9824219,0.8378906 C 4.9726819,5.1294723 5.0248366,5.2475873 5.125,5.3125 c 0.00713,0.0046 0.014552,0.010485 0.029297,0.021484 0.1842499,0.1369184 0.4477392,0.024611 0.4765625,-0.203125 0.020666,-0.1692005 0.1664463,-0.3046875 0.34375,-0.3046875 H 7.125 C 7.291296,4.8266055 7.4262149,4.6916866 7.4257812,4.5253906 V 4.4746094 C 7.4262149,4.3083134 7.291296,4.1733945 7.125,4.1738281 Z m 2.4511719,0 C 8.2594852,4.1733945 8.1245664,4.3083134 8.125,4.4746094 v 0.050781 c -4.336e-4,0.166296 0.1344852,0.3012149 0.3007813,0.3007813 H 9.5566406 C 9.745558,4.826467 9.8877227,4.6541747 9.8515625,4.46875 c 0,0 0.00129,0.00575 -0.00391,-0.033203 C 9.8284356,4.2861483 9.7014108,4.1741659 9.5507813,4.1738281 Z m 1.7871097,0.71875 c -0.157194,0.00557 -0.2893211,0.1354785 -0.2890629,0.3007813 v 1.1738281 c 2.467e-4,0.197644 0.1882209,0.3410472 0.3789059,0.2890625 l 0.05078,-0.013672 c 0.131018,-0.034959 0.222296,-0.1534608 0.222656,-0.2890625 V 5.1992187 c -3.38e-4,-0.1506295 -0.11232,-0.2776543 -0.261719,-0.296875 -0.03896,-0.0052 -0.0332,-0.00391 -0.0332,-0.00391 -0.02318,-0.00452 -0.0459,-0.00666 -0.06836,-0.00586 z M 5.3027344,6.1621094 c -0.055118,0.00447 -0.1091607,0.023463 -0.1542969,0.056641 -0.016353,0.011946 -0.022661,0.018083 -0.03125,0.023437 -0.08817,0.054348 -0.1420689,0.1503331 -0.1425781,0.2539062 v 1.3496094 c 2.467e-4,0.197644 0.1882211,0.3410472 0.3789062,0.2890625 l 0.050781,-0.013672 C 5.5353152,8.0861343 5.6265932,7.967633 5.6269531,7.8320312 V 6.4609375 C 5.6271479,6.3069047 5.5106584,6.1777532 5.3574219,6.1621094 c -0.018571,-0.00195 -0.036315,-0.00149 -0.054687,0 z m 4.9726566,1.2382812 c -0.02645,4.454e-4 -0.05271,0.00439 -0.07813,0.011719 l -0.05078,0.013672 C 10.015466,7.4607407 9.924188,7.579242 9.9238281,7.7148437 v 1.3730469 c -8.91e-4,0.2468591 0.2801179,0.3890841 0.4785159,0.2421875 0.01632,-0.011926 0.02265,-0.018074 0.03125,-0.023437 0.08817,-0.054348 0.142069,-0.1503331 0.142578,-0.2539062 V 7.7011719 C 10.576606,7.5348759 10.441687,7.399957 10.275391,7.4003906 Z M 5.3261719,8.8789063 c -0.026444,4.454e-4 -0.052714,0.00439 -0.078125,0.011719 l -0.050781,0.013672 C 5.0662473,8.9392563 4.9749693,9.0577577 4.9746094,9.1933594 v 1.1562496 c 2.073e-4,0.149979 0.1111421,0.276761 0.2597656,0.296875 0.040467,0.0055 0.035156,0.0039 0.035156,0.0039 0.1854247,0.03616 0.3577171,-0.106005 0.3574219,-0.294922 V 9.1796875 C 5.6273868,9.0133915 5.4924679,8.8784726 5.3261719,8.8789063 Z M 10.199219,10.15625 c -0.145289,0.0081 -0.2638525,0.119204 -0.2812502,0.263672 -0.020615,0.173246 -0.1544391,0.304687 -0.3417969,0.304687 H 8.4257813 C 8.2594852,10.724176 8.1245664,10.859095 8.125,11.025391 v 0.04883 c -4.336e-4,0.166296 0.1344852,0.301215 0.3007813,0.300781 h 1.1484375 c 0.4949082,0 0.9074102,-0.363508 0.9863282,-0.837891 0.01911,-0.118168 -0.03386,-0.236386 -0.134766,-0.300781 -0.0071,-0.0046 -0.01457,-0.01049 -0.0293,-0.02148 -0.05679,-0.04218 -0.126658,-0.06293 -0.197265,-0.05859 z m -4.2031253,0.568359 c -0.1889174,-2.95e-4 -0.3310821,0.171998 -0.2949218,0.357422 0,0 -0.00586,-0.02744 0.00195,0.03125 C 5.7223456,11.26268 5.8493705,11.374662 6,11.375 h 1.125 c 0.166296,4.34e-4 0.3012149,-0.134485 0.3007812,-0.300781 v -0.04883 C 7.4262149,10.859095 7.291296,10.724176 7.125,10.724609 Z"
     transform="translate(-4.3375377e-5,2.3744235e-5)" />
</svg>
