<?xml version="1.0" encoding="UTF-8" standalone="no"?>
<svg
   width="15.55mm"
   height="15.55mm"
   viewBox="0 0 15.55 15.55"
   version="1.1"
   id="svg109"
   sodipodi:docname="bond23x-c.svg"
   inkscape:version="1.3.2 (091e20ef0f, 2023-11-25)"
   xmlns:inkscape="http://www.inkscape.org/namespaces/inkscape"
   xmlns:sodipodi="http://sodipodi.sourceforge.net/DTD/sodipodi-0.dtd"
   xmlns="http://www.w3.org/2000/svg"
   xmlns:svg="http://www.w3.org/2000/svg"
   xmlns:rdf="http://www.w3.org/1999/02/22-rdf-syntax-ns#"
   xmlns:cc="http://creativecommons.org/ns#"
   xmlns:dc="http://purl.org/dc/elements/1.1/">
  <defs
     id="defs109">
    <inkscape:path-effect
       effect="offset"
       id="path-effect165"
       is_visible="true"
       lpeversion="1.2"
       linejoin_type="round"
       unit="mm"
       offset="-0.2"
       miter_limit="4"
       attempt_force_join="false"
       update_on_knot_move="true" />
    <inkscape:path-effect
       effect="offset"
       id="path-effect164"
       is_visible="true"
       lpeversion="1.2"
       linejoin_type="round"
       unit="mm"
       offset="0.4"
       miter_limit="4"
       attempt_force_join="false"
       update_on_knot_move="true" />
    <inkscape:path-effect
       effect="offset"
       id="path-effect2"
       is_visible="true"
       lpeversion="1.2"
       linejoin_type="round"
       unit="mm"
       offset="-0.8"
       miter_limit="4"
       attempt_force_join="false"
       update_on_knot_move="true" />
    <inkscape:path-effect
       effect="offset"
       id="path-effect1"
       is_visible="true"
       lpeversion="1.2"
       linejoin_type="round"
       unit="mm"
       offset="1"
       miter_limit="4"
       attempt_force_join="false"
       update_on_knot_move="true" />
    <inkscape:path-effect
       effect="offset"
       id="path-effect678"
       is_visible="true"
       lpeversion="1.2"
       linejoin_type="miter"
       unit="mm"
       offset="0"
       miter_limit="4"
       attempt_force_join="false"
       update_on_knot_move="true" />
    <inkscape:path-effect
       effect="offset"
       id="path-effect653"
       is_visible="true"
       lpeversion="1.2"
       linejoin_type="miter"
       unit="mm"
       offset="0"
       miter_limit="4"
       attempt_force_join="false"
       update_on_knot_move="true" />
  </defs>
  <sodipodi:namedview
     id="namedview109"
     pagecolor="#ffffff"
     bordercolor="#666666"
     borderopacity="1.0"
     inkscape:showpageshadow="2"
     inkscape:pageopacity="0.0"
     inkscape:pagecheckerboard="0"
     inkscape:deskcolor="#d1d1d1"
     inkscape:document-units="mm"
     inkscape:zoom="17.287245"
     inkscape:cx="29.385827"
     inkscape:cy="29.385827"
     inkscape:window-width="1920"
     inkscape:window-height="1216"
     inkscape:window-x="0"
     inkscape:window-y="0"
     inkscape:window-maximized="1"
     inkscape:current-layer="svg109" />
  <title
     id="title1">Exported SVG</title>
  <style
     id="style1"><![CDATA[
polygon {
shape-rendering:crispEdges;
stroke-width:16.426968;
}
.s0 {
stroke:#000000;
stroke-width:11.485752;
stroke-linecap:round;
stroke-linejoin:round;
fill:none;
}
.s1 {
stroke:#000000;
stroke-width:11.485752;
stroke-linecap:round;
stroke-linejoin:round;
fill:none;
}
.s2 {
stroke:#19b219;
stroke-width:11.485752;
stroke-linecap:round;
stroke-linejoin:round;
fill:none;
}
.s3 {
stroke:#7f4c00;
stroke-width:11.485752;
stroke-linecap:round;
stroke-linejoin:round;
fill:none;
}
.s4 {
stroke:#00cc00;
stroke-width:11.485752;
stroke-linecap:round;
stroke-linejoin:round;
fill:none;
}
.s5 {
stroke:#000000;
stroke-width:7.657168;
stroke-linecap:round;
stroke-linejoin:round;
fill:none;
}
.s6 {
stroke:#ff19ff;
stroke-width:7.657168;
stroke-linecap:round;
stroke-linejoin:round;
fill:none;
}
.s7 {
stroke:#ff0000;
stroke-width:11.485752;
stroke-linecap:round;
stroke-linejoin:round;
fill:none;
}
.s8 {
stroke:#ffff00;
stroke-width:11.485752;
stroke-linecap:round;
stroke-linejoin:round;
fill:none;
}
.s9 {
stroke:#001919;
stroke-width:7.657168;
stroke-linecap:round;
stroke-linejoin:round;
fill:none;
}
.sa {
stroke:#006666;
stroke-width:7.657168;
stroke-linecap:round;
stroke-linejoin:round;
fill:none;
}
.sb {
stroke:#00ffff;
stroke-width:22.971504;
stroke-linecap:round;
stroke-linejoin:round;
fill:none;
}
.sc {
stroke:#ff0000;
stroke-width:61.257344;
stroke-linecap:round;
stroke-linejoin:round;
fill:none;
}
.sd {
stroke:#191919;
stroke-width:7.657168;
stroke-linecap:round;
stroke-linejoin:round;
fill:none;
}
.se {
stroke:#000000;
stroke-width:7.657168;
stroke-linecap:round;
stroke-linejoin:round;
stroke-dasharray:114.858,114.858;
fill:none;
}
.sf {
stroke:#000000;
stroke-width:22.971504;
stroke-linecap:round;
stroke-linejoin:round;
fill:none;
}
]]></style>
  <rect
     style="fill:#000000;fill-opacity:1;stroke:none;stroke-width:0.1;stroke-linecap:round;stroke-linejoin:round"
     id="rect3"
     width="3.9000001"
     height="5.5"
     x="5.8249998"
     y="5.0249996"
     rx="0.15000001"
     ry="0.15000001" />
  <g
     id="g157"
     style="fill:#000000">
    <path
       style="color:#000000;fill:#000000;stroke-linecap:round;stroke-linejoin:round;-inkscape-stroke:none"
       d="M 7.7753906,3.7890625 A 0.15000001,0.15000001 0 0 0 7.625,3.9394531 V 6.9609375 A 0.15000001,0.15000001 0 0 0 7.7753906,7.1113281 0.15000001,0.15000001 0 0 0 7.9257812,6.9609375 V 3.9394531 A 0.15000001,0.15000001 0 0 0 7.7753906,3.7890625 Z"
       id="path109" />
    <path
       style="color:#000000;fill:#000000;stroke-linecap:round;stroke-linejoin:round;-inkscape-stroke:none"
       d="M 7.0097656,7.8886719 4.6113281,8.546875 A 0.15000001,0.15000001 0 0 0 4.5058594,8.7324219 0.15000001,0.15000001 0 0 0 4.6914062,8.8359375 L 7.0878906,8.1777344 A 0.15000001,0.15000001 0 0 0 7.1933594,7.9941406 0.15000001,0.15000001 0 0 0 7.0097656,7.8886719 Z"
       id="path110" />
    <path
       style="color:#000000;fill:#000000;stroke-linecap:round;stroke-linejoin:round;-inkscape-stroke:none"
       d="M 7.7753906,8.4394531 A 0.15000001,0.15000001 0 0 0 7.625,8.5878906 v 3.0234374 a 0.15000001,0.15000001 0 0 0 0.1503906,0.150391 0.15000001,0.15000001 0 0 0 0.1503906,-0.150391 V 8.5878906 A 0.15000001,0.15000001 0 0 0 7.7753906,8.4394531 Z"
       id="path111" />
    <path
       style="color:#000000;fill:#000000;stroke-linecap:round;stroke-linejoin:round;-inkscape-stroke:none"
       d="M 10.859375,6.7128906 8.4609375,7.3710937 A 0.15000001,0.15000001 0 0 0 8.3574219,7.5566406 0.15000001,0.15000001 0 0 0 8.5410156,7.6601562 L 10.939453,7.0019531 A 0.15000001,0.15000001 0 0 0 11.042969,6.8183594 0.15000001,0.15000001 0 0 0 10.859375,6.7128906 Z"
       id="path157" />
  </g>
  <g
     id="g409"
     style="stroke:#ffff00;stroke-width:250.00000006;fill:#000000"
     transform="matrix(0.001,0,0,0.001,0.11925717,0.11925712)">
    <path
       style="color:#000000;fill:#000000;stroke:none;stroke-linejoin:round;-inkscape-stroke:none"
       d="m 12855.168,4234.6953 -1110.441,558.6152 112.349,223.3321 1110.442,-558.6153 z"
       id="path404" />
    <path
       style="color:#000000;fill:#000000;stroke:none;stroke-linejoin:round;-inkscape-stroke:none"
       d="m 11818.809,7823.3145 -26.131,248.6308 1504.584,158.1211 26.131,-248.6309 z"
       id="path405" />
    <path
       style="color:#000000;fill:#000000;stroke:none;stroke-linejoin:round;-inkscape-stroke:none"
       d="m 10611.672,12285.732 -205.897,141.799 744.026,1080.35 205.894,-141.799 z"
       id="path406" />
    <path
       style="color:#000000;fill:#000000;stroke:none;stroke-linejoin:round;-inkscape-stroke:none"
       d="m 3826.1641,11486.375 -845.9532,804.654 172.2989,181.143 845.9531,-804.652 z"
       id="path407" />
    <path
       style="color:#000000;fill:#000000;stroke:none;stroke-linejoin:round;-inkscape-stroke:none"
       d="m 1990.3457,7247.5039 -13.2305,249.6484 1522.0118,80.6582 13.2304,-249.6503 z"
       id="path408" />
    <path
       style="color:#000000;fill:#000000;stroke:none;stroke-linejoin:round;-inkscape-stroke:none"
       d="m 3140.5918,2852.4355 -171.5508,181.8516 850.1719,802.0176 171.5508,-181.8516 z"
       id="path409" />
  </g>
  <g
     id="g429"
     style="stroke:#ffff00;fill:#000000">
    <path
       style="color:#000000;fill:#000000;stroke:none;stroke-linejoin:round;-inkscape-stroke:none"
       d="m 7.7753906,2.2753906 c -0.1874291,0 -0.3534678,0.059759 -0.4980469,0.1074219 -0.1842757,0.06075 -0.3217056,0.1571822 -0.4492187,0.1992188 -0.1153933,0.038041 -0.4088845,0.09176 -0.4199219,0.09375 H 5.9746094 c -1.3824037,1.2e-6 -2.5,1.1175959 -2.5,2.4999999 V 7.5839844 C 3.4721745,7.5974834 3.420688,7.889015 3.3828125,8.0039063 3.3407756,8.1314196 3.2423899,8.2688489 3.1816406,8.453125 3.1339781,8.5977041 3.0742187,8.7617896 3.0742188,8.9492188 c 0,0.187429 0.059759,0.3534668 0.1074218,0.4980468 0.06075,0.1842757 0.1591353,0.3217059 0.2011719,0.4492188 0.037876,0.1148896 0.089362,0.4064226 0.091797,0.4199216 V 10.375 c 0,1.381808 1.1103128,2.500001 2.5,2.5 h 0.4355468 c 0.013555,0.0024 0.3030907,0.05392 0.4179688,0.0918 0.1275108,0.04204 0.2649383,0.140425 0.4492187,0.201172 0.1445803,0.04766 0.3106185,0.107422 0.4980469,0.107422 0.1874284,0 0.3515135,-0.05976 0.4960938,-0.107422 0.1842785,-0.06075 0.323663,-0.159139 0.4511719,-0.201172 0.114878,-0.03787 0.4044136,-0.08935 0.4179687,-0.0918 h 0.4335938 c 1.3824042,10e-7 2.5000002,-1.117596 2.5000002,-2.5 V 7.9667969 c 0.002,-0.011037 0.05571,-0.3045291 0.09375,-0.4199219 0.04204,-0.1275113 0.138471,-0.2649389 0.199219,-0.4492188 0.04766,-0.1445802 0.107421,-0.3106184 0.107421,-0.4980468 0,-0.1874283 -0.05976,-0.3515137 -0.107421,-0.4960938 -0.06075,-0.184278 -0.157186,-0.3236622 -0.199219,-0.4511719 -0.03804,-0.1153912 -0.09176,-0.4088844 -0.09375,-0.4199218 v -0.056641 c 0,-1.382404 -1.117596,-2.4999987 -2.5000002,-2.4999999 H 9.1425781 C 9.1315407,2.6737917 8.8380502,2.6200724 8.7226563,2.5820313 8.595143,2.5399944 8.4557604,2.4435618 8.2714844,2.3828125 8.1269053,2.33515 7.9628197,2.2753906 7.7753906,2.2753906 Z m 0,0.2988282 c 0.1198887,0 0.2550561,0.045195 0.4023438,0.09375 0.1275131,0.042037 0.2668961,0.1384691 0.4511719,0.1992187 0.1743137,0.057465 0.4707031,0.1054688 0.4707031,0.1054688 A 0.15001501,0.15001501 0 0 0 9.125,2.9746094 h 0.4492188 c 1.2213932,1.1e-6 2.2011722,0.9797785 2.2011722,2.2011718 V 5.25 a 0.15001501,0.15001501 0 0 0 0.002,0.025391 c 0,0 0.048,0.2963865 0.105469,0.4707031 0.06075,0.1842801 0.157182,0.3236603 0.199218,0.4511719 0.04856,0.1472863 0.09375,0.2824547 0.09375,0.4023438 0,0.1198894 -0.04519,0.2570104 -0.09375,0.4042968 -0.04203,0.1275095 -0.138469,0.264941 -0.199218,0.4492188 -0.05747,0.174315 -0.105469,0.4707031 -0.105469,0.4707031 a 0.15001501,0.15001501 0 0 0 -0.002,0.025391 V 10.375 c 0,1.221393 -0.979779,2.19922 -2.2011722,2.199219 H 9.125 a 0.15001501,0.15001501 0 0 0 -0.025391,0.002 c 0,0 -0.2963876,0.048 -0.4707031,0.105469 -0.1842805,0.06075 -0.3236611,0.159136 -0.4511719,0.201172 -0.1472865,0.04856 -0.2824545,0.0918 -0.4023438,0.0918 -0.1198893,0 -0.2570104,-0.04324 -0.4042969,-0.0918 C 7.2435849,12.84078 7.1061535,12.742391 6.921875,12.681641 6.7475594,12.624174 6.4511719,12.576172 6.4511719,12.576172 a 0.15001501,0.15001501 0 0 0 -0.025391,-0.002 H 5.9746094 C 4.7449791,12.57422 3.7753906,11.596989 3.7753906,10.375 v -0.07422 a 0.15001501,0.15001501 0 0 0 -0.00195,-0.02539 c 0,0 -0.048002,-0.298341 -0.1054687,-0.4726566 C 3.6072194,9.6184586 3.5088336,9.4810286 3.4667969,9.3535156 3.4182412,9.2062283 3.375,9.0691082 3.375,8.9492188 3.375,8.82933 3.4182415,8.6941626 3.4667969,8.546875 3.5088335,8.4193618 3.6072191,8.2819322 3.6679688,8.0976563 3.7254338,7.9233423 3.7734375,7.625 3.7734375,7.625 a 0.15001501,0.15001501 0 0 0 0.00195,-0.025391 V 5.1757812 c 0,-1.2213933 0.9778255,-2.2011707 2.1992188,-2.2011718 h 0.4511718 a 0.15001501,0.15001501 0 0 0 0.025391,-0.00195 c 0,0 0.2963888,-0.048003 0.4707031,-0.1054688 0.184276,-0.060749 0.3217055,-0.1571819 0.4492187,-0.1992187 0.1472877,-0.048555 0.2844082,-0.09375 0.4042969,-0.09375 z"
       id="rect404" />
    <path
       style="color:#000000;fill:#000000;stroke:none;stroke-linejoin:round;-inkscape-stroke:none"
       d="m 7.7753906,2.9746094 c -0.1676606,0 -0.3259236,0.028028 -0.4746094,0.052734 -0.1675548,0.027842 -0.3155658,0.077076 -0.4511718,0.099609 -0.1436687,0.023873 -0.2885666,0.040792 -0.4335938,0.048828 -0.1332154,0.00737 -0.4375,-1e-7 -0.4375,0 a 0.15001501,0.15001501 0 0 0 -0.00391,0 c -1.1054043,3e-7 -2,0.8945956 -2,1.9999999 v 2.4121094 c 0,0 -0.02479,0.3045934 -0.046875,0.4375 -0.022533,0.1356057 -0.07372,0.2816635 -0.1015625,0.4492188 -0.024707,0.148686 -0.050781,0.306949 -0.050781,0.4746094 0,0.1676607 0.026074,0.3259226 0.050781,0.4746093 0.027842,0.167555 0.079029,0.3155669 0.1015625,0.4511719 0.022085,0.132907 0.046875,0.4375 0.046875,0.4375 v 0.0625 c 0,1.104522 0.8862566,2.000001 2,2 a 0.15001501,0.15001501 0 0 0 0.00391,0 c 0,0 0.3043043,-0.0074 0.4375,0 0.1450279,0.008 0.2899264,0.02496 0.4335938,0.04883 0.1356099,0.02254 0.283621,0.07177 0.4511718,0.09961 0.148687,0.02471 0.3069495,0.05078 0.4746094,0.05078 0.16766,0 0.3259225,-0.02607 0.4746094,-0.05078 0.1675505,-0.02785 0.3136088,-0.07707 0.4492188,-0.09961 0.1436995,-0.02388 0.2886322,-0.04084 0.4335937,-0.04883 0.1331959,-0.0074 0.4375,0 0.4375,0 a 0.15001501,0.15001501 0 0 0 0.00391,0 c 1.1054052,10e-7 2.0000002,-0.894596 2.0000002,-2 V 7.9628906 c 0,0 0.02674,-0.3045947 0.04883,-0.4375 0.02254,-0.1356099 0.07177,-0.2836208 0.09961,-0.4511719 0.02471,-0.1486869 0.05274,-0.3069494 0.05274,-0.4746093 0,-0.1676599 -0.02803,-0.3259226 -0.05274,-0.4746094 -0.02784,-0.1675512 -0.07707,-0.3136087 -0.09961,-0.4492188 -0.02208,-0.1329052 -0.04883,-0.4375 -0.04883,-0.4375 v -0.0625 c 0,-1.1060932 -0.901098,-2 -2.0000002,-1.9999999 a 0.15001501,0.15001501 0 0 0 -0.00391,0 c 0,0 -0.3043041,0.00738 -0.4375,0 C 8.9877906,3.1677493 8.8428899,3.1508263 8.6992188,3.1269531 8.5636128,3.1044196 8.4175548,3.0551862 8.25,3.0273438 8.1013143,3.0026373 7.9430512,2.9746094 7.7753906,2.9746094 Z m 0,0.3007812 c 0.1341853,0 0.2767039,0.022104 0.4257813,0.046875 0.1356059,0.022533 0.281664,0.07372 0.4492187,0.1015625 0.1540918,0.025605 0.3104349,0.042121 0.4667969,0.050781 0.1642391,0.0091 0.4496973,2.218e-4 0.4570313,0 0.9367742,0 1.7011722,0.7574672 1.7011722,1.7011718 V 5.25 a 0.15001501,0.15001501 0 0 0 0,0.011719 c 0,0 0.02339,0.2980331 0.05078,0.4628907 0.02784,0.1675512 0.07903,0.3136086 0.101562,0.4492187 0.02477,0.1490759 0.04687,0.2915954 0.04687,0.4257813 0,0.1341859 -0.0221,0.2767052 -0.04687,0.4257812 -0.02254,0.1356099 -0.07372,0.2816678 -0.101562,0.4492188 C 11.298777,7.639467 11.275391,7.9375 11.275391,7.9375 a 0.15001501,0.15001501 0 0 0 0,0.011719 V 10.375 c 0,0.944394 -0.756778,1.69922 -1.7011722,1.699219 -0.00733,-2.22e-4 -0.2927921,-0.0071 -0.4570313,0.002 -0.1564224,0.0086 -0.3127335,0.02518 -0.4667969,0.05078 -0.1675511,0.02784 -0.3136081,0.07707 -0.4492187,0.09961 -0.149076,0.02477 -0.2915953,0.04883 -0.4257813,0.04883 -0.1341859,0 -0.2767051,-0.02406 -0.4257812,-0.04883 -0.1356098,-0.02254 -0.2816678,-0.07177 -0.4492188,-0.09961 -0.1540957,-0.02561 -0.3104408,-0.04212 -0.4667969,-0.05078 -0.164941,-0.0091 -0.4540592,-0.0021 -0.4589843,-0.002 -0.9541406,1e-6 -1.6992188,-0.753943 -1.6992188,-1.699219 v -0.07422 a 0.15001501,0.15001501 0 0 0 0,-0.01367 c 0,0 -0.025341,-0.2960814 -0.052734,-0.4609371 C 4.1948139,9.658617 4.14558,9.5106049 4.1230469,9.375 4.098275,9.2259226 4.0742188,9.0834049 4.0742187,8.9492188 c 0,-0.1341856 0.024056,-0.2747513 0.048828,-0.4238282 C 4.1455802,8.389785 4.194814,8.241774 4.2226562,8.0742188 4.25005,7.9093625 4.2753906,7.6132812 4.2753906,7.6132812 a 0.15001501,0.15001501 0 0 0 0,-0.013672 V 5.1757812 c 0,-0.9443936 0.7548251,-1.7011715 1.6992188,-1.7011718 0.00493,1.492e-4 0.2940628,0.00913 0.4589843,0 0.1563568,-0.00866 0.3127025,-0.025176 0.4667969,-0.050781 0.1675549,-0.027842 0.3136127,-0.079029 0.4492188,-0.1015625 0.1490774,-0.024771 0.2915959,-0.046875 0.4257812,-0.046875 z"
       id="rect403" />
    <path
       style="color:#000000;fill:#000000;stroke:none;stroke-linejoin:round;-inkscape-stroke:none"
       d="m 5.9746094,3.6757813 c -0.8284046,-1e-7 -1.5,0.6715954 -1.5,1.4999999 V 10.375 c 0,0.828405 0.6715954,1.5 1.5,1.5 h 3.5996094 c 0.8284042,0 1.5000002,-0.671595 1.5000002,-1.5 V 5.1757812 c 0,-0.8284045 -0.671596,-1.5 -1.5000002,-1.4999999 z m 0,0.2988281 h 3.5996094 c 0.6673932,0 1.2011722,0.5337779 1.2011722,1.2011718 V 10.375 c 0,0.667394 -0.533779,1.199219 -1.2011722,1.199219 H 5.9746094 c -0.6673939,0 -1.1992188,-0.531825 -1.1992188,-1.199219 V 5.1757812 c 0,-0.6673939 0.5318249,-1.2011718 1.1992188,-1.2011718 z"
       id="rect161" />
    <path
       style="color:#000000;fill:#000000;stroke:none;stroke-linejoin:round;-inkscape-stroke:none"
       d="m 5.9746094,3.6757813 c -0.8284046,0 -1.5,0.6715954 -1.5,1.4999999 V 10.375 c 0,0.828405 0.6715954,1.5 1.5,1.5 h 3.5996094 c 0.8284042,0 1.5000002,-0.671595 1.5000002,-1.5 V 5.1757812 c 0,-0.8284045 -0.671596,-1.4999999 -1.5000002,-1.4999999 z m 0,0.2988281 h 3.5996094 c 0.6673942,0 1.2011722,0.5337779 1.2011722,1.2011718 V 10.375 c 0,0.667394 -0.533778,1.199219 -1.2011722,1.199219 H 5.9746094 c -0.6673939,0 -1.1992188,-0.531825 -1.1992188,-1.199219 V 5.1757812 c 0,-0.6673939 0.5318249,-1.2011718 1.1992188,-1.2011718 z"
       id="rect161-1" />
  </g>
  <circle
     style="fill:#000000;fill-opacity:1;stroke:none;stroke-width:0.25;stroke-linecap:butt;stroke-linejoin:round;stroke-dasharray:none"
     id="path340"
     cx="7.7750001"
     cy="3.125"
     r="0.34999999" />
  <circle
     style="fill:#000000;fill-opacity:1;stroke:none;stroke-width:0.25;stroke-linecap:butt;stroke-linejoin:round;stroke-dasharray:none"
     id="circle415"
     cx="7.7750001"
     cy="12.424999"
     r="0.34999999" />
  <circle
     style="fill:#000000;fill-opacity:1;stroke:none;stroke-width:0.25;stroke-linecap:butt;stroke-linejoin:round;stroke-dasharray:none"
     id="circle417"
     cx="11.625"
     cy="6.5999999"
     r="0.34999999" />
  <circle
     style="fill:#000000;fill-opacity:1;stroke:none;stroke-width:0.25;stroke-linecap:butt;stroke-linejoin:round;stroke-dasharray:none"
     id="circle419"
     cx="3.925"
     cy="8.9499998"
     r="0.34999999" />
  <circle
     style="fill:#000000;fill-opacity:1;stroke:none;stroke-width:0.25;stroke-linecap:butt;stroke-linejoin:round;stroke-dasharray:none"
     id="circle421"
     cx="4.8249998"
     cy="5.7750001"
     r="0.34999999" />
  <circle
     style="fill:#000000;fill-opacity:1;stroke:none;stroke-width:0.25;stroke-linecap:butt;stroke-linejoin:round;stroke-dasharray:none"
     id="circle423"
     cx="10.725"
     cy="9.7749996"
     r="0.34999999" />
  <circle
     style="fill:#000000;fill-opacity:1;stroke:none;stroke-width:0.25;stroke-linecap:butt;stroke-linejoin:round;stroke-dasharray:none"
     id="circle425"
     cx="10.388173"
     cy="4.3618274"
     r="0.34999999" />
  <circle
     style="fill:#000000;fill-opacity:1;stroke:none;stroke-width:0.25;stroke-linecap:butt;stroke-linejoin:round;stroke-dasharray:none"
     id="circle427"
     cx="5.1618271"
     cy="11.188172"
     r="0.34999999" />
  <g
     id="g156"
     transform="translate(0.11925717,0.11925712)"
     style="stroke:#ffff00;stroke-width:0.25;fill:#000000">
    <g
       id="path112"
       style="fill:#000000">
      <path
         style="color:#000000;fill:#000000;stroke:none;stroke-linejoin:round;-inkscape-stroke:none"
         d="M 4.4807469,1.6158979 4.7779346,2.1939806"
         id="path202" />
      <path
         style="color:#000000;fill:#000000;stroke:none;stroke-linejoin:round;-inkscape-stroke:none"
         d="M 4.5917969,1.5585937 4.3691406,1.6738281 4.6660156,2.2519531 4.8886719,2.1367188 Z"
         id="path203" />
    </g>
    <g
       id="path113"
       style="fill:#000000">
      <path
         style="color:#000000;fill:#000000;stroke:none;stroke-linejoin:round;-inkscape-stroke:none"
         d="M 5.4332259,1.3382399 5.6158732,1.9620501"
         id="path204" />
      <path
         style="color:#000000;fill:#000000;stroke:none;stroke-linejoin:round;-inkscape-stroke:none"
         d="M 5.5527344,1.3027344 5.3125,1.3730469 l 0.1835937,0.625 0.2402344,-0.070312 z"
         id="path205" />
    </g>
    <g
       id="path114"
       style="fill:#000000">
      <path
         style="color:#000000;fill:#000000;stroke:none;stroke-linejoin:round;-inkscape-stroke:none"
         d="M 6.0264589,1.2556179 6.15373,1.8930365"
         id="path206" />
      <path
         style="color:#000000;fill:#000000;stroke:none;stroke-linejoin:round;-inkscape-stroke:none"
         d="M 6.1484375,1.2304687 5.9042969,1.2792969 6.03125,1.9179687 6.2753906,1.8691406 Z"
         id="path207" />
    </g>
    <g
       id="path115"
       style="fill:#000000">
      <path
         style="color:#000000;fill:#000000;stroke:none;stroke-linejoin:round;-inkscape-stroke:none"
         d="M 6.6229079,1.2030829 6.6942752,1.849153"
         id="path208" />
      <path
         style="color:#000000;fill:#000000;stroke:none;stroke-linejoin:round;-inkscape-stroke:none"
         d="m 6.7480469,1.1894531 -0.25,0.027344 0.072266,0.6464843 0.2480469,-0.027344 z"
         id="path209" />
    </g>
    <g
       id="path116"
       style="fill:#000000">
      <path
         style="color:#000000;fill:#000000;stroke:none;stroke-linejoin:round;-inkscape-stroke:none"
         d="M 7.2363373,1.8301419 7.2209779,1.1803239"
         id="path210" />
      <path
         style="color:#000000;fill:#000000;stroke:none;stroke-linejoin:round;-inkscape-stroke:none"
         d="m 7.3457031,1.1777344 -0.25,0.00586 0.015625,0.6503907 0.25,-0.00586 z"
         id="path211" />
    </g>
    <g
       id="path117"
       style="fill:#000000">
      <path
         style="color:#000000;fill:#000000;stroke:none;stroke-linejoin:round;-inkscape-stroke:none"
         d="M 8.3199309,1.8668515 8.4178599,1.2242719"
         id="path212" />
      <path
         style="color:#000000;fill:#000000;stroke:none;stroke-linejoin:round;-inkscape-stroke:none"
         d="m 8.2949219,1.2050781 -0.097656,0.6425781 0.2460938,0.037109 0.097656,-0.6425781 z"
         id="path213" />
    </g>
    <g
       id="path118"
       style="fill:#000000">
      <path
         style="color:#000000;fill:#000000;stroke:none;stroke-linejoin:round;-inkscape-stroke:none"
         d="M 8.8701741,1.8846397 8.9888539,1.2455649"
         id="path214" />
      <path
         style="color:#000000;fill:#000000;stroke:none;stroke-linejoin:round;-inkscape-stroke:none"
         d="M 8.8652344,1.2226562 8.7480469,1.8613281 8.9921875,1.9082031 9.1113281,1.2675781 Z"
         id="path215" />
    </g>
    <g
       id="path119"
       style="fill:#000000">
      <path
         style="color:#000000;fill:#000000;stroke:none;stroke-linejoin:round;-inkscape-stroke:none"
         d="M 9.4085276,1.9497526 9.5826809,1.3235179"
         id="path216" />
      <path
         style="color:#000000;fill:#000000;stroke:none;stroke-linejoin:round;-inkscape-stroke:none"
         d="m 9.4628906,1.2890625 -0.1738281,0.6269531 0.2402344,0.066406 0.1738281,-0.625 z"
         id="path217" />
    </g>
    <g
       id="path120"
       style="fill:#000000">
      <path
         style="color:#000000;fill:#000000;stroke:none;stroke-linejoin:round;-inkscape-stroke:none"
         d="M 10.650194,2.2524281 10.968803,1.6858699"
         id="path218" />
      <path
         style="color:#000000;fill:#000000;stroke:none;stroke-linejoin:round;-inkscape-stroke:none"
         d="m 10.859375,1.625 -0.318359,0.5664063 0.21875,0.1230468 0.318359,-0.5664062 z"
         id="path219" />
    </g>
    <g
       id="path121"
       style="fill:#000000">
      <path
         style="color:#000000;fill:#000000;stroke:none;stroke-linejoin:round;-inkscape-stroke:none"
         d="m 11.267152,2.7472222 0.37099,-0.5337293"
         id="path220" />
      <path
         style="color:#000000;fill:#000000;stroke:none;stroke-linejoin:round;-inkscape-stroke:none"
         d="m 11.535156,2.1425781 -0.371093,0.5332032 0.205078,0.1425781 0.371093,-0.5332031 z"
         id="path221" />
    </g>
    <g
       id="path122"
       style="fill:#000000">
      <path
         style="color:#000000;fill:#000000;stroke:none;stroke-linejoin:round;-inkscape-stroke:none"
         d="M 12.191384,4.1694492 12.744599,3.8281979"
         id="path222" />
      <path
         style="color:#000000;fill:#000000;stroke:none;stroke-linejoin:round;-inkscape-stroke:none"
         d="M 12.679688,3.7226563 12.125,4.0625 12.257813,4.2753906 12.810547,3.9355469 Z"
         id="path223" />
    </g>
    <g
       id="path123"
       style="fill:#000000">
      <path
         style="color:#000000;fill:#000000;stroke:none;stroke-linejoin:round;-inkscape-stroke:none"
         d="m 12.443761,5.1151109 0.602975,-0.242736"
         id="path224" />
      <path
         style="color:#000000;fill:#000000;stroke:none;stroke-linejoin:round;-inkscape-stroke:none"
         d="M 13,4.7558594 12.396484,5 12.490234,5.2304687 13.09375,4.9882812 Z"
         id="path225" />
    </g>
    <g
       id="path124"
       style="fill:#000000">
      <path
         style="color:#000000;fill:#000000;stroke:none;stroke-linejoin:round;-inkscape-stroke:none"
         d="M 12.534831,5.5963767 13.155762,5.4041679"
         id="path226" />
      <path
         style="color:#000000;fill:#000000;stroke:none;stroke-linejoin:round;-inkscape-stroke:none"
         d="m 13.119141,5.2851562 -0.621094,0.1914063 0.07422,0.2382812 0.621093,-0.1914062 z"
         id="path227" />
    </g>
    <g
       id="path125"
       style="fill:#000000">
      <path
         style="color:#000000;fill:#000000;stroke:none;stroke-linejoin:round;-inkscape-stroke:none"
         d="M 12.603825,6.0813748 13.23836,5.9404289"
         id="path228" />
      <path
         style="color:#000000;fill:#000000;stroke:none;stroke-linejoin:round;-inkscape-stroke:none"
         d="M 13.210938,5.8183594 12.576172,5.9589844 12.630859,6.203125 13.265625,6.0625 Z"
         id="path229" />
    </g>
    <g
       id="path126"
       style="fill:#000000">
      <path
         style="color:#000000;fill:#000000;stroke:none;stroke-linejoin:round;-inkscape-stroke:none"
         d="m 12.650971,6.5690794 0.64383,-0.089347"
         id="path230" />
      <path
         style="color:#000000;fill:#000000;stroke:none;stroke-linejoin:round;-inkscape-stroke:none"
         d="m 13.277344,6.3554687 -0.644531,0.089844 0.03516,0.2480469 0.644531,-0.089844 z"
         id="path231" />
    </g>
    <g
       id="path127"
       style="fill:#000000">
      <path
         style="color:#000000;fill:#000000;stroke:none;stroke-linejoin:round;-inkscape-stroke:none"
         d="M 12.676849,7.058363 13.325782,7.021122"
         id="path232" />
      <path
         style="color:#000000;fill:#000000;stroke:none;stroke-linejoin:round;-inkscape-stroke:none"
         d="m 13.318359,6.8964844 -0.648437,0.037109 0.01367,0.25 0.648437,-0.037109 z"
         id="path233" />
    </g>
    <g
       id="path128"
       style="fill:#000000">
      <path
         style="color:#000000;fill:#000000;stroke:none;stroke-linejoin:round;-inkscape-stroke:none"
         d="m 12.681409,7.5483658 0.649831,0.014811"
         id="path234" />
      <path
         style="color:#000000;fill:#000000;stroke:none;stroke-linejoin:round;-inkscape-stroke:none"
         d="m 12.683594,7.4238281 -0.0059,0.25 0.650391,0.013672 0.0059,-0.25 z"
         id="path235" />
    </g>
    <g
       id="path129"
       style="fill:#000000">
      <path
         style="color:#000000;fill:#000000;stroke:none;stroke-linejoin:round;-inkscape-stroke:none"
         d="m 12.480571,9.4946657 0.610233,0.2238652"
         id="path236" />
      <path
         style="color:#000000;fill:#000000;stroke:none;stroke-linejoin:round;-inkscape-stroke:none"
         d="m 12.523438,9.3769531 -0.08594,0.234375 0.609375,0.2246094 0.08789,-0.234375 z"
         id="path237" />
    </g>
    <g
       id="path130"
       style="fill:#000000">
      <path
         style="color:#000000;fill:#000000;stroke:none;stroke-linejoin:round;-inkscape-stroke:none"
         d="m 12.375882,9.9731405 0.589592,0.2736435"
         id="path238" />
      <path
         style="color:#000000;fill:#000000;stroke:none;stroke-linejoin:round;-inkscape-stroke:none"
         d="m 12.427734,9.859375 -0.103515,0.226563 0.58789,0.273437 0.105469,-0.226562 z"
         id="path239" />
    </g>
    <g
       id="path131"
       style="fill:#000000">
      <path
         style="color:#000000;fill:#000000;stroke:none;stroke-linejoin:round;-inkscape-stroke:none"
         d="m 12.247963,10.445768 0.56437,0.322469"
         id="path240" />
      <path
         style="color:#000000;fill:#000000;stroke:none;stroke-linejoin:round;-inkscape-stroke:none"
         d="m 12.310547,10.337891 -0.125,0.216797 0.564453,0.322265 0.125,-0.216797 z"
         id="path241" />
    </g>
    <g
       id="path132"
       style="fill:#000000">
      <path
         style="color:#000000;fill:#000000;stroke:none;stroke-linejoin:round;-inkscape-stroke:none"
         d="m 12.096463,10.911225 0.534501,0.369877"
         id="path242" />
      <path
         style="color:#000000;fill:#000000;stroke:none;stroke-linejoin:round;-inkscape-stroke:none"
         d="m 12.167969,10.808594 -0.142578,0.205078 0.535156,0.371094 0.140625,-0.207032 z"
         id="path243" />
    </g>
    <g
       id="path133"
       style="fill:#000000">
      <path
         style="color:#000000;fill:#000000;stroke:none;stroke-linejoin:round;-inkscape-stroke:none"
         d="m 11.921186,11.368116 0.499942,0.415401"
         id="path244" />
      <path
         style="color:#000000;fill:#000000;stroke:none;stroke-linejoin:round;-inkscape-stroke:none"
         d="m 12.001953,11.271484 -0.160156,0.19336 0.5,0.414062 0.160156,-0.191406 z"
         id="path245" />
    </g>
    <g
       id="path134"
       style="fill:#000000">
      <path
         style="color:#000000;fill:#000000;stroke:none;stroke-linejoin:round;-inkscape-stroke:none"
         d="m 11.720093,11.813963 0.460294,0.458944"
         id="path246" />
      <path
         style="color:#000000;fill:#000000;stroke:none;stroke-linejoin:round;-inkscape-stroke:none"
         d="m 11.808594,11.724609 -0.177735,0.177735 0.460938,0.458984 0.177734,-0.177734 z"
         id="path247" />
    </g>
    <g
       id="path135"
       style="fill:#000000">
      <path
         style="color:#000000;fill:#000000;stroke:none;stroke-linejoin:round;-inkscape-stroke:none"
         d="m 11.334613,12.371105 0.38429,0.524233"
         id="path248" />
      <path
         style="color:#000000;fill:#000000;stroke:none;stroke-linejoin:round;-inkscape-stroke:none"
         d="m 11.435547,12.296875 -0.201172,0.148438 0.382813,0.523437 0.203125,-0.146484 z"
         id="path249" />
    </g>
    <g
       id="path136"
       style="fill:#000000">
      <path
         style="color:#000000;fill:#000000;stroke:none;stroke-linejoin:round;-inkscape-stroke:none"
         d="m 9.5799007,13.289901 0.2187862,0.612073"
         id="path250" />
      <path
         style="color:#000000;fill:#000000;stroke:none;stroke-linejoin:round;-inkscape-stroke:none"
         d="m 9.6972656,13.248047 -0.234375,0.08398 0.21875,0.611328 0.234375,-0.08398 z"
         id="path251" />
    </g>
    <g
       id="path137"
       style="fill:#000000">
      <path
         style="color:#000000;fill:#000000;stroke:none;stroke-linejoin:round;-inkscape-stroke:none"
         d="m 8.9084125,13.404424 0.1404144,0.634652"
         id="path252" />
      <path
         style="color:#000000;fill:#000000;stroke:none;stroke-linejoin:round;-inkscape-stroke:none"
         d="m 9.03125,13.376953 -0.2441406,0.05469 0.140625,0.634765 0.2421875,-0.05469 z"
         id="path253" />
    </g>
    <g
       id="path138"
       style="fill:#000000">
      <path
         style="color:#000000;fill:#000000;stroke:none;stroke-linejoin:round;-inkscape-stroke:none"
         d="m 8.2300681,13.467862 0.060692,0.647161"
         id="path254" />
      <path
         style="color:#000000;fill:#000000;stroke:none;stroke-linejoin:round;-inkscape-stroke:none"
         d="m 8.3554688,13.457031 -0.25,0.02344 0.060547,0.646484 0.25,-0.02344 z"
         id="path255" />
    </g>
    <g
       id="path139"
       style="fill:#000000">
      <path
         style="color:#000000;fill:#000000;stroke:none;stroke-linejoin:round;-inkscape-stroke:none"
         d="m 7.5488347,13.480766 -0.0196,0.649704"
         id="path256" />
      <path
         style="color:#000000;fill:#000000;stroke:none;stroke-linejoin:round;-inkscape-stroke:none"
         d="m 7.4238281,13.476563 -0.019531,0.65039 0.25,0.0078 0.019531,-0.650391 z"
         id="path257" />
    </g>
    <g
       id="path140"
       style="fill:#000000">
      <path
         style="color:#000000;fill:#000000;stroke:none;stroke-linejoin:round;-inkscape-stroke:none"
         d="m 6.8685295,13.443246 -0.099709,0.642307"
         id="path258" />
      <path
         style="color:#000000;fill:#000000;stroke:none;stroke-linejoin:round;-inkscape-stroke:none"
         d="m 6.7441406,13.423828 -0.099609,0.642578 0.2480469,0.03906 0.099609,-0.642578 z"
         id="path259" />
    </g>
    <g
       id="path141"
       style="fill:#000000">
      <path
         style="color:#000000;fill:#000000;stroke:none;stroke-linejoin:round;-inkscape-stroke:none"
         d="M 5.5269132,13.213266 5.2697459,13.810229"
         id="path260" />
      <path
         style="color:#000000;fill:#000000;stroke:none;stroke-linejoin:round;-inkscape-stroke:none"
         d="m 5.4121094,13.164063 -0.2578125,0.597656 0.2304687,0.09766 0.2578125,-0.595703 z"
         id="path261" />
    </g>
    <g
       id="path142"
       style="fill:#000000">
      <path
         style="color:#000000;fill:#000000;stroke:none;stroke-linejoin:round;-inkscape-stroke:none"
         d="M 4.8750534,13.017433 4.5423989,13.57586"
         id="path262" />
      <path
         style="color:#000000;fill:#000000;stroke:none;stroke-linejoin:round;-inkscape-stroke:none"
         d="m 4.7675781,12.953125 -0.3320312,0.558594 0.2148437,0.128906 0.3320313,-0.558594 z"
         id="path263" />
    </g>
    <g
       id="path143"
       style="fill:#000000">
      <path
         style="color:#000000;fill:#000000;stroke:none;stroke-linejoin:round;-inkscape-stroke:none"
         d="M 3.1269271,11.041054 2.5750579,11.384476"
         id="path264" />
      <path
         style="color:#000000;fill:#000000;stroke:none;stroke-linejoin:round;-inkscape-stroke:none"
         d="m 3.0605469,10.935547 -0.5507813,0.34375 0.1308594,0.210937 0.5527344,-0.34375 z"
         id="path265" />
    </g>
    <g
       id="path144"
       style="fill:#000000">
      <path
         style="color:#000000;fill:#000000;stroke:none;stroke-linejoin:round;-inkscape-stroke:none"
         d="M 2.9983681,10.599055 2.4211499,10.89792"
         id="path266" />
      <path
         style="color:#000000;fill:#000000;stroke:none;stroke-linejoin:round;-inkscape-stroke:none"
         d="m 2.9414063,10.488281 -0.578125,0.298828 0.1152343,0.222657 0.578125,-0.298828 z"
         id="path267" />
    </g>
    <g
       id="path145"
       style="fill:#000000">
      <path
         style="color:#000000;fill:#000000;stroke:none;stroke-linejoin:round;-inkscape-stroke:none"
         d="M 2.8897087,10.151636 2.2910679,10.404873"
         id="path268" />
      <path
         style="color:#000000;fill:#000000;stroke:none;stroke-linejoin:round;-inkscape-stroke:none"
         d="M 2.8417969,10.037109 2.2421875,10.289063 2.3398438,10.519531 2.9375,10.267578 Z"
         id="path269" />
    </g>
    <g
       id="path146"
       style="fill:#000000">
      <path
         style="color:#000000;fill:#000000;stroke:none;stroke-linejoin:round;-inkscape-stroke:none"
         d="M 2.8004365,9.6998573 2.1841949,9.9066069"
         id="path270" />
      <path
         style="color:#000000;fill:#000000;stroke:none;stroke-linejoin:round;-inkscape-stroke:none"
         d="M 2.7597656,9.5820313 2.1445313,9.7890625 2.2246094,10.025391 2.8398438,9.8183594 Z"
         id="path271" />
    </g>
    <g
       id="path147"
       style="fill:#000000">
      <path
         style="color:#000000;fill:#000000;stroke:none;stroke-linejoin:round;-inkscape-stroke:none"
         d="M 2.7301324,9.2446713 2.1000289,9.4042619"
         id="path272" />
      <path
         style="color:#000000;fill:#000000;stroke:none;stroke-linejoin:round;-inkscape-stroke:none"
         d="M 2.6992188,9.1230469 2.0703125,9.2832031 2.1308594,9.5253906 2.7617188,9.3652344 Z"
         id="path273" />
    </g>
    <g
       id="path148"
       style="fill:#000000">
      <path
         style="color:#000000;fill:#000000;stroke:none;stroke-linejoin:round;-inkscape-stroke:none"
         d="M 2.6784682,8.7869414 2.0381779,8.8988729"
         id="path274" />
      <path
         style="color:#000000;fill:#000000;stroke:none;stroke-linejoin:round;-inkscape-stroke:none"
         d="M 2.65625,8.6640625 2.0175781,8.7753906 2.0605469,9.0214844 2.6992188,8.9101563 Z"
         id="path275" />
    </g>
    <g
       id="path149"
       style="fill:#000000">
      <path
         style="color:#000000;fill:#000000;stroke:none;stroke-linejoin:round;-inkscape-stroke:none"
         d="M 2.6451213,8.3276988 1.9981789,8.3906839"
         id="path276" />
      <path
         style="color:#000000;fill:#000000;stroke:none;stroke-linejoin:round;-inkscape-stroke:none"
         d="m 2.6328125,8.203125 -0.6464844,0.0625 0.023438,0.25 0.6484375,-0.064453 z"
         id="path277" />
    </g>
    <g
       id="path150"
       style="fill:#000000">
      <path
         style="color:#000000;fill:#000000;stroke:none;stroke-linejoin:round;-inkscape-stroke:none"
         d="M 2.6559078,6.9466239 2.0111689,6.8640869"
         id="path278" />
      <path
         style="color:#000000;fill:#000000;stroke:none;stroke-linejoin:round;-inkscape-stroke:none"
         d="m 2.0273438,6.7402344 -0.03125,0.2480468 0.6445313,0.082031 0.03125,-0.2480469 z"
         id="path279" />
    </g>
    <g
       id="path151"
       style="fill:#000000">
      <path
         style="color:#000000;fill:#000000;stroke:none;stroke-linejoin:round;-inkscape-stroke:none"
         d="M 2.6962702,6.4877361 2.0594899,6.3573099"
         id="path280" />
      <path
         style="color:#000000;fill:#000000;stroke:none;stroke-linejoin:round;-inkscape-stroke:none"
         d="M 2.0839844,6.234375 2.0351563,6.4804687 2.671875,6.609375 2.7207031,6.3652344 Z"
         id="path281" />
    </g>
    <g
       id="path152"
       style="fill:#000000">
      <path
         style="color:#000000;fill:#000000;stroke:none;stroke-linejoin:round;-inkscape-stroke:none"
         d="M 2.755117,6.0308934 2.1299379,5.8529819"
         id="path282" />
      <path
         style="color:#000000;fill:#000000;stroke:none;stroke-linejoin:round;-inkscape-stroke:none"
         d="m 2.1640625,5.7324219 -0.068359,0.2402343 0.625,0.1777344 0.068359,-0.2402344 z"
         id="path283" />
    </g>
    <g
       id="path153"
       style="fill:#000000">
      <path
         style="color:#000000;fill:#000000;stroke:none;stroke-linejoin:round;-inkscape-stroke:none"
         d="M 2.832718,5.576919 2.2228399,5.3520879"
         id="path284" />
      <path
         style="color:#000000;fill:#000000;stroke:none;stroke-linejoin:round;-inkscape-stroke:none"
         d="M 2.265625,5.234375 2.1796875,5.46875 2.7890625,5.6933594 2.875,5.4589844 Z"
         id="path285" />
    </g>
    <g
       id="path154"
       style="fill:#000000">
      <path
         style="color:#000000;fill:#000000;stroke:none;stroke-linejoin:round;-inkscape-stroke:none"
         d="M 2.9294377,5.1267096 2.3386309,4.8556999"
         id="path286" />
      <path
         style="color:#000000;fill:#000000;stroke:none;stroke-linejoin:round;-inkscape-stroke:none"
         d="M 2.390625,4.7421875 2.2871094,4.96875 2.8769531,5.2402344 2.9824219,5.0136719 Z"
         id="path287" />
    </g>
    <g
       id="path155"
       style="fill:#000000">
      <path
         style="color:#000000;fill:#000000;stroke:none;stroke-linejoin:round;-inkscape-stroke:none"
         d="M 3.0457339,4.6812545 2.4778549,4.3650049"
         id="path288" />
      <path
         style="color:#000000;fill:#000000;stroke:none;stroke-linejoin:round;-inkscape-stroke:none"
         d="m 2.5390625,4.2558594 -0.1210937,0.21875 0.5664062,0.3164062 0.1230469,-0.21875 z"
         id="path289" />
    </g>
    <g
       id="path156"
       style="fill:#000000">
      <path
         style="color:#000000;fill:#000000;stroke:none;stroke-linejoin:round;-inkscape-stroke:none"
         d="M 3.1851033,4.2428304 2.6446269,3.8817399"
         id="path290" />
      <path
         style="color:#000000;fill:#000000;stroke:none;stroke-linejoin:round;-inkscape-stroke:none"
         d="M 2.7148438,3.7773438 2.5742188,3.9863281 3.1152344,4.3476562 3.2539063,4.1386719 Z"
         id="path291" />
    </g>
  </g>
  <g
     id="g110"
     transform="matrix(0.001,0,0,0.001,0.11925712,0.11925712)"
     style="stroke:#ffff00;stroke-width:250;fill:#000000">
    <path
       style="color:#000000;fill:#000000;stroke:none;stroke-linecap:round;stroke-linejoin:round;-inkscape-stroke:none"
       d="m 3599.623,-119.10742 a 125,125 0 0 0 -53.5644,15.01953 125,125 0 0 0 -50.1465,169.515624 L 4370.916,1675.582 a 125,125 0 0 0 169.5156,50.1465 125,125 0 0 0 50.1465,-169.5156 L 3715.5742,-53.941406 A 125,125 0 0 0 3599.623,-119.10742 Z"
       id="path46" />
    <path
       style="color:#000000;fill:#000000;stroke:none;stroke-linecap:round;stroke-linejoin:round;-inkscape-stroke:none"
       d="m 4513.8789,-118.99219 a 125,125 0 0 0 -79.5469,22.140628 125,125 0 0 0 -31.1836,174.005859 L 5330.6309,1409.6504 a 125,125 0 0 0 174.0058,31.1836 125,125 0 0 0 31.1836,-174.0039 L 4608.3379,-65.667969 a 125,125 0 0 0 -94.459,-53.324221 z"
       id="path47" />
    <path
       style="color:#000000;fill:#000000;stroke:none;stroke-linecap:round;stroke-linejoin:round;-inkscape-stroke:none"
       d="m 5404.2246,-119.24805 a 125,125 0 0 0 -54.0801,13.03711 125,125 0 0 0 -56.3554,167.552737 L 5914.5039,1311.2168 a 125,125 0 0 0 167.5547,56.3555 125,125 0 0 0 56.3555,-167.5528 L 5517.6973,-49.855469 a 125,125 0 0 0 -113.4727,-69.392581 z"
       id="path48" />
    <path
       style="color:#000000;fill:#000000;stroke:none;stroke-linecap:round;stroke-linejoin:round;-inkscape-stroke:none"
       d="m 6301.4258,-119.18164 a 125,125 0 0 0 -27.6895,4.0918 A 125,125 0 0 0 6184.9102,37.75 l 317.166,1197.3398 a 125,125 0 0 0 152.8398,88.8262 125,125 0 0 0 88.8242,-152.8398 L 6426.5762,-26.263672 a 125,125 0 0 0 -125.1504,-92.917968 z"
       id="path49" />
    <path
       style="color:#000000;fill:#000000;stroke:none;stroke-linecap:round;stroke-linejoin:round;-inkscape-stroke:none"
       d="M 7204.1211,-119.24609 A 125,125 0 0 0 7080.7539,7.3632812 L 7095.9883,1181.9453 a 125,125 0 0 0 126.6113,123.3672 125,125 0 0 0 123.3672,-126.6094 L 7330.7324,4.1210937 A 125,125 0 0 0 7204.1211,-119.24609 Z"
       id="path50" />
    <path
       style="color:#000000;fill:#000000;stroke:none;stroke-linecap:round;stroke-linejoin:round;-inkscape-stroke:none"
       d="m 9005.832,-119.25781 a 125,125 0 0 0 -112.6718,70.685544 L 8305.2773,1169.957 a 125,125 0 0 0 58.2676,166.8965 125,125 0 0 0 166.8965,-58.2656 L 9118.3262,60.058594 a 125,125 0 0 0 -58.2676,-166.898434 125,125 0 0 0 -54.2266,-12.41797 z"
       id="path51" />
    <path
       style="color:#000000;fill:#000000;stroke:none;stroke-linecap:round;stroke-linejoin:round;-inkscape-stroke:none"
       d="m 9901.1895,-119.17383 a 125,125 0 0 0 -95.9493,50.591799 L 8888.3516,1171.2402 a 125,125 0 0 0 26.1777,174.8282 125,125 0 0 0 174.8281,-26.1778 L 10006.246,80.068359 a 125,125 0 0 0 -26.1776,-174.828125 125,125 0 0 0 -78.8789,-24.414064 z"
       id="path52" />
    <path
       style="color:#000000;fill:#000000;stroke:none;stroke-linecap:round;stroke-linejoin:round;-inkscape-stroke:none"
       d="m 10815.102,-118.90625 a 125,125 0 0 0 -100.979,39.615234 L 9491.0605,1238.4824 a 125,125 0 0 0 6.586,176.6543 125,125 0 0 0 176.6543,-6.584 L 10897.363,90.777344 a 125,125 0 0 0 -6.586,-176.654297 125,125 0 0 0 -75.675,-33.029297 z"
       id="path53" />
    <path
       style="color:#000000;fill:#000000;stroke:none;stroke-linecap:round;stroke-linejoin:round;-inkscape-stroke:none"
       d="m 12618.121,-118.64258 a 125,125 0 0 0 -101.91,37.156252 L 10879.271,1598.6406 a 125,125 0 0 0 2.301,176.7617 125,125 0 0 0 176.762,-2.3027 L 12695.275,92.972656 a 125,125 0 0 0 -2.302,-176.761718 125,125 0 0 0 -74.852,-34.853518 z"
       id="path54" />
    <path
       style="color:#000000;fill:#000000;stroke:none;stroke-linecap:round;stroke-linejoin:round;-inkscape-stroke:none"
       d="m 13509.359,-119.20508 a 125,125 0 0 0 -99.05,44.216799 l -1867.6,2207.749981 a 125,125 0 0 0 14.703,176.1641 125,125 0 0 0 176.164,-14.7031 L 13601.178,86.472656 a 125,125 0 0 0 -14.705,-176.164062 125,125 0 0 0 -77.114,-29.513674 z"
       id="path55" />
    <path
       style="color:#000000;fill:#000000;stroke:none;stroke-linecap:round;stroke-linejoin:round;-inkscape-stroke:none"
       d="m 15311.541,780.87695 a 125,125 0 0 0 -99.807,42.48047 L 12650.59,3745.8125 a 125,125 0 0 0 11.623,176.3945 125,125 0 0 0 176.394,-11.623 L 15399.752,988.12891 a 125,125 0 0 0 -11.623,-176.39454 125,125 0 0 0 -76.588,-30.85742 z"
       id="path56" />
    <path
       style="color:#000000;fill:#000000;stroke:none;stroke-linecap:round;stroke-linejoin:round;-inkscape-stroke:none"
       d="m 15294.342,2581.2637 a 125,125 0 0 0 -75.123,34.2656 l -2259.008,2166.6328 a 125,125 0 0 0 -3.69,176.7383 125,125 0 0 0 176.739,3.6875 L 15392.268,2795.957 a 125,125 0 0 0 3.689,-176.7382 125,125 0 0 0 -101.615,-37.9551 z"
       id="path57" />
    <path
       style="color:#000000;fill:#000000;stroke:none;stroke-linecap:round;stroke-linejoin:round;-inkscape-stroke:none"
       d="m 15302.818,3480.7773 a 125,125 0 0 0 -77.277,29.086 l -2149.98,1798.4258 a 125,125 0 0 0 -15.678,176.08 125,125 0 0 0 176.08,15.6778 l 2149.98,-1798.4258 a 125,125 0 0 0 15.678,-176.0801 125,125 0 0 0 -98.803,-44.7637 z"
       id="path58" />
    <path
       style="color:#000000;fill:#000000;stroke:none;stroke-linecap:round;stroke-linejoin:round;-inkscape-stroke:none"
       d="m 15314.055,4381.0195 a 125,125 0 0 0 -79.578,22.0293 l -2067.383,1434.6856 a 125,125 0 0 0 -31.428,173.9609 125,125 0 0 0 173.961,31.4277 L 15377.01,4608.4375 a 125,125 0 0 0 31.428,-173.9609 125,125 0 0 0 -94.383,-53.4571 z"
       id="path59" />
    <path
       style="color:#000000;fill:#000000;stroke:none;stroke-linecap:round;stroke-linejoin:round;-inkscape-stroke:none"
       d="m 15300.527,5280.8516 a 125,125 0 0 0 -53.672,14.6308 l -2010.941,1073.9883 a 125,125 0 0 0 -51.373,169.1484 125,125 0 0 0 169.147,51.3731 l 2010.943,-1073.9883 a 125,125 0 0 0 51.373,-169.1484 125,125 0 0 0 -115.477,-66.0039 z"
       id="path60" />
    <path
       style="color:#000000;fill:#000000;stroke:none;stroke-linecap:round;stroke-linejoin:round;-inkscape-stroke:none"
       d="m 15318.48,6181.3945 a 125,125 0 0 0 -55.212,6.7871 l -1979.961,715.3789 a 125,125 0 0 0 -75.086,160.0372 125,125 0 0 0 160.037,75.0859 l 1979.961,-715.3789 a 125,125 0 0 0 75.086,-160.0371 125,125 0 0 0 -104.825,-81.8731 z"
       id="path61" />
    <path
       style="color:#000000;fill:#000000;stroke:none;stroke-linecap:round;stroke-linejoin:round;-inkscape-stroke:none"
       d="m 15311.406,7080.8711 a 125,125 0 0 0 -27.929,1.8711 l -1974.502,357.4336 a 125,125 0 0 0 -100.737,145.2676 125,125 0 0 0 145.268,100.7343 l 1974.504,-357.4336 a 125,125 0 0 0 100.734,-145.2675 125,125 0 0 0 -117.338,-102.6055 z"
       id="path62" />
    <path
       style="color:#000000;fill:#000000;stroke:none;stroke-linecap:round;stroke-linejoin:round;-inkscape-stroke:none"
       d="m 13091.742,9593.5352 a 125,125 0 0 0 -113.148,69.916 125,125 0 0 0 57.131,167.291 l 2214.939,1087.2108 a 125,125 0 0 0 167.289,-57.131 125,125 0 0 0 -57.131,-167.291 L 13145.883,9606.3203 a 125,125 0 0 0 -54.141,-12.7851 z"
       id="path63" />
    <path
       style="color:#000000;fill:#000000;stroke:none;stroke-linecap:round;stroke-linejoin:round;-inkscape-stroke:none"
       d="m 12979.029,10122.521 a 125,125 0 0 0 -119.631,58.133 125,125 0 0 0 39.948,172.205 l 2340.267,1458.959 a 125,125 0 0 0 172.205,-39.947 125,125 0 0 0 -39.947,-172.203 l -2340.267,-1458.959 a 125,125 0 0 0 -52.575,-18.188 z"
       id="path64" />
    <path
       style="color:#000000;fill:#000000;stroke:none;stroke-linecap:round;stroke-linejoin:round;-inkscape-stroke:none"
       d="m 12807.57,10643.328 a 125,125 0 0 0 -95.865,50.752 125,125 0 0 0 26.471,174.783 l 2493.41,1837.506 a 125,125 0 0 0 174.783,-26.469 125,125 0 0 0 -26.469,-174.785 l -2493.41,-1837.506 a 125,125 0 0 0 -78.92,-24.281 z"
       id="path65" />
    <path
       style="color:#000000;fill:#000000;stroke:none;stroke-linecap:round;stroke-linejoin:round;-inkscape-stroke:none"
       d="m 12633.537,11156.129 a 125,125 0 0 0 -98.678,45.043 125,125 0 0 0 16.174,176.035 l 2674.78,2224.641 a 125,125 0 0 0 176.035,-16.174 125,125 0 0 0 -16.174,-176.035 l -2674.779,-2224.641 a 125,125 0 0 0 -77.358,-28.869 z"
       id="path66" />
    <path
       style="color:#000000;fill:#000000;stroke:none;stroke-linecap:round;stroke-linejoin:round;-inkscape-stroke:none"
       d="m 12429.195,11658.777 a 125,125 0 0 0 -100.562,40.659 125,125 0 0 0 8.414,176.576 l 2884.615,2622.226 a 125,125 0 0 0 176.576,-8.414 125,125 0 0 0 -8.414,-176.576 l -2884.615,-2622.227 a 125,125 0 0 0 -76.014,-32.244 z"
       id="path67" />
    <path
       style="color:#000000;fill:#000000;stroke:none;stroke-linecap:round;stroke-linejoin:round;-inkscape-stroke:none"
       d="m 12185.408,12148.008 a 125,125 0 0 0 -78.969,24.119 125,125 0 0 0 -26.832,174.728 l 2225.356,3032.836 a 125,125 0 0 0 174.728,26.832 125,125 0 0 0 26.832,-174.728 l -2225.355,-3032.836 a 125,125 0 0 0 -95.76,-50.951 z"
       id="path68" />
    <path
       style="color:#000000;fill:#000000;stroke:none;stroke-linecap:round;stroke-linejoin:round;-inkscape-stroke:none"
       d="m 11723.313,12770.416 a 125,125 0 0 0 -78.85,24.504 125,125 0 0 0 -25.977,174.857 l 1786.84,2410.407 a 125,125 0 0 0 174.858,25.976 125,125 0 0 0 25.976,-174.857 l -1786.84,-2410.405 a 125,125 0 0 0 -96.007,-50.482 z"
       id="path69" />
    <path
       style="color:#000000;fill:#000000;stroke:none;stroke-linecap:round;stroke-linejoin:round;-inkscape-stroke:none"
       d="m 9805.0449,13777.137 a 125,125 0 0 0 -79.2226,23.269 125,125 0 0 0 -28.7032,174.432 l 1007.0569,1403.769 a 125,125 0 0 0 174.431,28.704 125,125 0 0 0 28.704,-174.432 l -1007.0571,-1403.77 a 125,125 0 0 0 -95.209,-51.972 z"
       id="path70" />
    <path
       style="color:#000000;fill:#000000;stroke:none;stroke-linecap:round;stroke-linejoin:round;-inkscape-stroke:none"
       d="m 8279.2813,13990.551 a 125,125 0 0 0 -52.8692,17.306 125,125 0 0 0 -42.8164,171.514 l 714.9824,1190.721 a 125,125 0 0 0 171.5137,42.816 125,125 0 0 0 42.8164,-171.513 l -714.9844,-1190.721 a 125,125 0 0 0 -118.6425,-60.123 z"
       id="path71" />
    <path
       style="color:#000000;fill:#000000;stroke:none;stroke-linecap:round;stroke-linejoin:round;-inkscape-stroke:none"
       d="m 7528.3301,14005.473 a 125,125 0 0 0 -54.1446,12.771 125,125 0 0 0 -57.1757,167.276 l 576.5078,1175.273 a 125,125 0 0 0 167.2754,57.176 125,125 0 0 0 57.1758,-167.276 L 7641.4609,14075.42 a 125,125 0 0 0 -113.1308,-69.947 z"
       id="path72" />
    <path
       style="color:#000000;fill:#000000;stroke:none;stroke-linecap:round;stroke-linejoin:round;-inkscape-stroke:none"
       d="m 6781.916,13961.24 a 125,125 0 0 0 -55.2344,6.631 125,125 0 0 0 -75.5429,159.822 l 436.9218,1220.19 a 125,125 0 0 0 159.8223,75.543 125,125 0 0 0 75.543,-159.822 l -436.9219,-1220.19 a 125,125 0 0 0 -104.5879,-82.174 z"
       id="path73" />
    <path
       style="color:#000000;fill:#000000;stroke:none;stroke-linecap:round;stroke-linejoin:round;-inkscape-stroke:none"
       d="m 5258.4258,13685.742 a 125,125 0 0 0 -113.166,135.807 l 135.9961,1495.514 a 125,125 0 0 0 135.8066,113.166 125,125 0 0 0 113.166,-135.807 l -135.9961,-1495.514 a 125,125 0 0 0 -135.8066,-113.166 z"
       id="path74" />
    <path
       style="color:#000000;fill:#000000;stroke:none;stroke-linecap:round;stroke-linejoin:round;-inkscape-stroke:none"
       d="m 4545.0469,13450.889 a 125,125 0 0 0 -127.6192,122.322 l -36.6562,1729.885 a 125,125 0 0 0 122.3242,127.619 125,125 0 0 0 127.6191,-122.324 l 36.6563,-1729.883 a 125,125 0 0 0 -122.3242,-127.619 z"
       id="path75" />
    <path
       style="color:#000000;fill:#000000;stroke:none;stroke-linecap:round;stroke-linejoin:round;-inkscape-stroke:none"
       d="m 2578.998,11259.539 a 125,125 0 0 0 -99.164,43.959 L -89.480469,14324.764 a 125,125 0 0 0 14.244141,176.203 125,125 0 0 0 176.203128,-14.244 l 2569.3145,-3021.268 a 125,125 0 0 0 -14.2442,-176.203 125,125 0 0 0 -77.0391,-29.713 z"
       id="path76" />
    <path
       style="color:#000000;fill:#000000;stroke:none;stroke-linecap:round;stroke-linejoin:round;-inkscape-stroke:none"
       d="m 2430.3809,10773.262 a 125,125 0 0 0 -100.9375,39.718 L -85.964844,13420.803 a 125,125 0 0 0 6.767578,176.646 125,125 0 0 0 176.646485,-6.765 L 2512.8574,10982.859 a 125,125 0 0 0 -6.7676,-176.646 125,125 0 0 0 -75.7089,-32.951 z"
       id="path77" />
    <path
       style="color:#000000;fill:#000000;stroke:none;stroke-linecap:round;stroke-linejoin:round;-inkscape-stroke:none"
       d="m 2279.4121,10280.418 a 125,125 0 0 0 -75.0527,34.418 L -80.966797,12515.707 a 125,125 0 0 0 -3.326172,176.744 125,125 0 0 0 176.744141,3.328 L 2377.7773,10494.91 a 125,125 0 0 0 3.3262,-176.746 125,125 0 0 0 -101.6914,-37.746 z"
       id="path78" />
    <path
       style="color:#000000;fill:#000000;stroke:none;stroke-linecap:round;stroke-linejoin:round;-inkscape-stroke:none"
       d="m 2182.0547,9781.625 a 125,125 0 0 0 -77.459,28.6016 L -73.855469,11609.363 a 125,125 0 0 0 -16.78125,175.979 125,125 0 0 0 175.978516,16.781 L 2263.793,10002.986 a 125,125 0 0 0 16.7812,-175.9782 125,125 0 0 0 -98.5195,-45.3828 z"
       id="path79" />
    <path
       style="color:#000000;fill:#000000;stroke:none;stroke-linecap:round;stroke-linejoin:round;-inkscape-stroke:none"
       d="m 2110.4473,9279.6973 a 125,125 0 0 0 -79.9375,20.6797 l -2094.285191,1401.48 a 125,125 0 0 0 -34.367187,173.405 125,125 0 0 0 173.404297,34.367 L 2169.5488,9508.1465 a 125,125 0 0 0 34.3653,-173.4043 125,125 0 0 0 -93.4668,-55.0449 z"
       id="path80" />
    <path
       style="color:#000000;fill:#000000;stroke:none;stroke-linecap:round;stroke-linejoin:round;-inkscape-stroke:none"
       d="m 2036.7832,8773.8809 a 125,125 0 0 0 -54.0937,12.9824 L -49.746094,9793.7344 a 125,125 0 0 0 -56.519536,167.498 125,125 0 0 0 167.498052,56.5196 L 2093.668,9010.8809 a 125,125 0 0 0 56.5195,-167.4981 125,125 0 0 0 -113.4043,-69.5019 z"
       id="path81" />
    <path
       style="color:#000000;fill:#000000;stroke:none;stroke-linecap:round;stroke-linejoin:round;-inkscape-stroke:none"
       d="m 1988.8105,8266.0352 a 125,125 0 0 0 -27.5019,5.2109 L -31.126953,8886.3047 a 125,125 0 0 0 -82.568357,156.3086 125,125 0 0 0 156.308591,82.5683 L 2035.0488,8510.123 a 125,125 0 0 0 82.5684,-156.3085 125,125 0 0 0 -128.8067,-87.7793 z"
       id="path82" />
    <path
       style="color:#000000;fill:#000000;stroke:none;stroke-linecap:round;stroke-linejoin:round;-inkscape-stroke:none"
       d="m 11.632813,6180.8809 a 125,125 0 0 0 -126.310543,91.3359 125,125 0 0 0 86.894527,153.9453 L 1977.6426,6984.5059 a 125,125 0 0 0 153.9453,-86.8926 125,125 0 0 0 -86.8926,-153.9453 L 39.269531,6185.3223 a 125,125 0 0 0 -27.636718,-4.4414 z"
       id="path83" />
    <path
       style="color:#000000;fill:#000000;stroke:none;stroke-linecap:round;stroke-linejoin:round;-inkscape-stroke:none"
       d="m 3.8789063,5280.7559 a 125,125 0 0 0 -111.5527363,72.4375 125,125 0 0 0 60.867189,165.9668 L 2006.9395,6470.7266 a 125,125 0 0 0 165.9687,-60.8672 125,125 0 0 0 -60.8691,-165.9668 L 58.292969,5292.3262 A 125,125 0 0 0 3.8789063,5280.7559 Z"
       id="path84" />
    <path
       style="color:#000000;fill:#000000;stroke:none;stroke-linecap:round;stroke-linejoin:round;-inkscape-stroke:none"
       d="m -7.7285156,4381.4707 a 125,125 0 0 0 -92.0878904,57.3223 125,125 0 0 0 38.609375,172.5097 L 2062.9883,5958.541 a 125,125 0 0 0 172.5097,-38.6094 125,125 0 0 0 -38.6113,-172.5097 L 72.691406,4400.1836 a 125,125 0 0 0 -80.4199216,-18.7129 z"
       id="path85" />
    <path
       style="color:#000000;fill:#000000;stroke:none;stroke-linecap:round;stroke-linejoin:round;-inkscape-stroke:none"
       d="m 4.9902344,3480.7461 a 125,125 0 0 0 -97.4433594,47.6504 125,125 0 0 0 20.849609,175.543 L 2145.4941,5450.2852 a 125,125 0 0 0 175.543,-20.8516 125,125 0 0 0 -20.8516,-175.543 L 83.089844,3507.5469 A 125,125 0 0 0 4.9902344,3480.7461 Z"
       id="path86" />
    <path
       style="color:#000000;fill:#000000;stroke:none;stroke-linecap:round;stroke-linejoin:round;-inkscape-stroke:none"
       d="m 14.662109,2581.0625 a 125,125 0 0 0 -100.83789,39.9688 125,125 0 0 0 7.207031,176.6308 l 2332.88865,2149.957 a 125,125 0 0 0 176.6289,-7.2089 125,125 0 0 0 -7.207,-176.629 L 90.453125,2613.8242 a 125,125 0 0 0 -75.791016,-32.7617 z"
       id="path87" />
    <path
       style="color:#000000;fill:#000000;stroke:none;stroke-linecap:round;stroke-linejoin:round;-inkscape-stroke:none"
       d="m -6.0996094,1681.3047 a 125,125 0 0 0 -75.0019526,34.5332 125,125 0 0 0 -3.060547,176.75 L 2387.9492,4451.8496 a 125,125 0 0 0 176.75,3.0606 125,125 0 0 0 3.0625,-176.75 L 95.648437,1718.8984 A 125,125 0 0 0 -6.0996094,1681.3047 Z"
       id="path88" />
    <path
       style="color:#000000;fill:#000000;stroke:none;stroke-linecap:round;stroke-linejoin:round;-inkscape-stroke:none"
       d="M -0.78320312,780.91406 A 125,125 0 0 0 -77.189453,812.2168 125,125 0 0 0 -87.783203,988.67578 L 2551.0996,3964.6719 a 125,125 0 0 0 176.459,10.5937 125,125 0 0 0 10.5957,-176.457 L 99.269531,822.81055 A 125,125 0 0 0 -0.78320312,780.91406 Z"
       id="path89" />
    <path
       style="color:#000000;fill:#000000;stroke:none;stroke-linecap:round;stroke-linejoin:round;-inkscape-stroke:none"
       d="m 9058.6191,13914.461 a 125,125 0 0 0 -79.8339,21.082 125,125 0 0 0 -33.4922,173.574 l 856.916,1266.668 a 125,125 0 0 0 173.5762,33.492 125,125 0 0 0 33.4898,-173.576 l -856.9156,-1266.666 a 125,125 0 0 0 -93.7403,-54.574 z"
       id="path90" />
    <path
       style="color:#000000;fill:#000000;stroke:none;stroke-linecap:round;stroke-linejoin:round;-inkscape-stroke:none"
       d="m 15316.201,1681.1699 a 125,125 0 0 0 -101.279,38.8379 L 12820.377,4260.627 a 125,125 0 0 0 5.23,176.6992 125,125 0 0 0 176.7,-5.2305 l 2394.545,-2540.6191 a 125,125 0 0 0 -5.231,-176.6993 125,125 0 0 0 -75.42,-33.6074 z"
       id="path410" />
    <path
       style="color:#000000;fill:#000000;stroke:none;stroke-linecap:round;stroke-linejoin:round;-inkscape-stroke:none"
       d="m 15305.246,7980.7402 -1994.92,0.01 a 125,125 0 0 0 -125,125.002 125,125 0 0 0 125.002,124.998 l 1994.918,-0.01 a 125,125 0 0 0 125,-125 125,125 0 0 0 -125,-125 z"
       id="path411" />
    <path
       style="color:#000000;fill:#000000;stroke:none;stroke-linecap:round;stroke-linejoin:round;-inkscape-stroke:none"
       d="m 11258.57,13312.117 a 125,125 0 0 0 -79.121,23.612 125,125 0 0 0 -27.955,174.552 l 1352.836,1868.762 a 125,125 0 0 0 174.553,27.953 125,125 0 0 0 27.953,-174.553 l -1352.834,-1868.761 a 125,125 0 0 0 -95.432,-51.565 z"
       id="path412" />
    <path
       style="color:#000000;fill:#000000;stroke:none;stroke-linecap:round;stroke-linejoin:round;-inkscape-stroke:none"
       d="m 3061.7559,12256.686 a 125,125 0 0 0 -95.9297,50.63 L 805.20898,15231.459 a 125,125 0 0 0 26.25,174.818 125,125 0 0 0 174.81832,-26.252 l 2160.6172,-2924.142 a 125,125 0 0 0 -26.2519,-174.817 125,125 0 0 0 -78.8867,-24.38 z"
       id="path413" />
    <path
       style="color:#000000;fill:#000000;stroke:none;stroke-linecap:round;stroke-linejoin:round;-inkscape-stroke:none"
       d="M 16.232422,7081.1836 A 125,125 0 0 0 -118.81641,7195.252 125,125 0 0 0 -4.7480469,7330.3027 L 1973.2402,7496.8867 a 125,125 0 0 0 135.0489,-114.0683 125,125 0 0 0 -114.0684,-135.0489 z"
       id="path414" />
    <path
       style="color:#000000;fill:#000000;stroke:none;stroke-linecap:round;stroke-linejoin:round;-inkscape-stroke:none"
       d="m 1811.5859,-119.12109 a 125,125 0 0 0 -54.7558,9.83007 125,125 0 0 0 -66.1211,163.945317 L 2939.7832,2992.2734 a 125,125 0 0 0 163.9453,66.1211 125,125 0 0 0 66.1211,-163.9453 L 1920.7754,-43.169922 a 125,125 0 0 0 -109.1895,-75.951168 z"
       id="path415" />
  </g>
  <metadata
     id="metadata109">
    <rdf:RDF>
      <cc:Work
         rdf:about="">
        <dc:title>Exported SVG</dc:title>
      </cc:Work>
    </rdf:RDF>
  </metadata>
</svg>
