<?xml version="1.0" encoding="UTF-8" standalone="no"?>
<svg
   width="15.55mm"
   height="15.55mm"
   viewBox="0 0 15.55 15.55"
   version="1.1"
   id="svg109"
   sodipodi:docname="cob_copper_back.svg"
   inkscape:version="1.3.2 (091e20ef0f, 2023-11-25)"
   xmlns:inkscape="http://www.inkscape.org/namespaces/inkscape"
   xmlns:sodipodi="http://sodipodi.sourceforge.net/DTD/sodipodi-0.dtd"
   xmlns="http://www.w3.org/2000/svg"
   xmlns:svg="http://www.w3.org/2000/svg"
   xmlns:rdf="http://www.w3.org/1999/02/22-rdf-syntax-ns#"
   xmlns:cc="http://creativecommons.org/ns#"
   xmlns:dc="http://purl.org/dc/elements/1.1/">
  <defs
     id="defs109">
    <inkscape:path-effect
       effect="offset"
       id="path-effect473"
       is_visible="true"
       lpeversion="1.2"
       linejoin_type="round"
       unit="mm"
       offset="-0.3"
       miter_limit="4"
       attempt_force_join="false"
       update_on_knot_move="true" />
    <inkscape:path-effect
       effect="offset"
       id="path-effect472"
       is_visible="true"
       lpeversion="1.2"
       linejoin_type="round"
       unit="mm"
       offset="0.5"
       miter_limit="4"
       attempt_force_join="false"
       update_on_knot_move="true" />
    <inkscape:path-effect
       effect="offset"
       id="path-effect165"
       is_visible="true"
       lpeversion="1.2"
       linejoin_type="round"
       unit="mm"
       offset="-0.2"
       miter_limit="4"
       attempt_force_join="false"
       update_on_knot_move="true" />
    <inkscape:path-effect
       effect="offset"
       id="path-effect164"
       is_visible="true"
       lpeversion="1.2"
       linejoin_type="round"
       unit="mm"
       offset="0.4"
       miter_limit="4"
       attempt_force_join="false"
       update_on_knot_move="true" />
    <inkscape:path-effect
       effect="offset"
       id="path-effect2"
       is_visible="true"
       lpeversion="1.2"
       linejoin_type="round"
       unit="mm"
       offset="-0.8"
       miter_limit="4"
       attempt_force_join="false"
       update_on_knot_move="true" />
    <inkscape:path-effect
       effect="offset"
       id="path-effect1"
       is_visible="true"
       lpeversion="1.2"
       linejoin_type="round"
       unit="mm"
       offset="1"
       miter_limit="4"
       attempt_force_join="false"
       update_on_knot_move="true" />
    <inkscape:path-effect
       effect="offset"
       id="path-effect678"
       is_visible="true"
       lpeversion="1.2"
       linejoin_type="miter"
       unit="mm"
       offset="0"
       miter_limit="4"
       attempt_force_join="false"
       update_on_knot_move="true" />
    <inkscape:path-effect
       effect="offset"
       id="path-effect653"
       is_visible="true"
       lpeversion="1.2"
       linejoin_type="miter"
       unit="mm"
       offset="0"
       miter_limit="4"
       attempt_force_join="false"
       update_on_knot_move="true" />
  </defs>
  <sodipodi:namedview
     id="namedview109"
     pagecolor="#ffffff"
     bordercolor="#666666"
     borderopacity="1.0"
     inkscape:showpageshadow="2"
     inkscape:pageopacity="0.0"
     inkscape:pagecheckerboard="0"
     inkscape:deskcolor="#d1d1d1"
     inkscape:document-units="mm"
     inkscape:zoom="16.35142"
     inkscape:cx="29.416406"
     inkscape:cy="29.416406"
     inkscape:window-width="1920"
     inkscape:window-height="1216"
     inkscape:window-x="0"
     inkscape:window-y="0"
     inkscape:window-maximized="1"
     inkscape:current-layer="svg109" />
  <title
     id="title1">Exported SVG</title>
  <style
     id="style1"><![CDATA[
polygon {
shape-rendering:crispEdges;
stroke-width:16.426968;
}
.s0 {
stroke:#000000;
stroke-width:11.485752;
stroke-linecap:round;
stroke-linejoin:round;
fill:none;
}
.s1 {
stroke:#000000;
stroke-width:11.485752;
stroke-linecap:round;
stroke-linejoin:round;
fill:none;
}
.s2 {
stroke:#19b219;
stroke-width:11.485752;
stroke-linecap:round;
stroke-linejoin:round;
fill:none;
}
.s3 {
stroke:#7f4c00;
stroke-width:11.485752;
stroke-linecap:round;
stroke-linejoin:round;
fill:none;
}
.s4 {
stroke:#00cc00;
stroke-width:11.485752;
stroke-linecap:round;
stroke-linejoin:round;
fill:none;
}
.s5 {
stroke:#000000;
stroke-width:7.657168;
stroke-linecap:round;
stroke-linejoin:round;
fill:none;
}
.s6 {
stroke:#ff19ff;
stroke-width:7.657168;
stroke-linecap:round;
stroke-linejoin:round;
fill:none;
}
.s7 {
stroke:#ff0000;
stroke-width:11.485752;
stroke-linecap:round;
stroke-linejoin:round;
fill:none;
}
.s8 {
stroke:#ffff00;
stroke-width:11.485752;
stroke-linecap:round;
stroke-linejoin:round;
fill:none;
}
.s9 {
stroke:#001919;
stroke-width:7.657168;
stroke-linecap:round;
stroke-linejoin:round;
fill:none;
}
.sa {
stroke:#006666;
stroke-width:7.657168;
stroke-linecap:round;
stroke-linejoin:round;
fill:none;
}
.sb {
stroke:#00ffff;
stroke-width:22.971504;
stroke-linecap:round;
stroke-linejoin:round;
fill:none;
}
.sc {
stroke:#ff0000;
stroke-width:61.257344;
stroke-linecap:round;
stroke-linejoin:round;
fill:none;
}
.sd {
stroke:#191919;
stroke-width:7.657168;
stroke-linecap:round;
stroke-linejoin:round;
fill:none;
}
.se {
stroke:#000000;
stroke-width:7.657168;
stroke-linecap:round;
stroke-linejoin:round;
stroke-dasharray:114.858,114.858;
fill:none;
}
.sf {
stroke:#000000;
stroke-width:22.971504;
stroke-linecap:round;
stroke-linejoin:round;
fill:none;
}
]]></style>
  <metadata
     id="metadata109">
    <rdf:RDF>
      <cc:Work
         rdf:about="">
        <dc:title>Exported SVG</dc:title>
      </cc:Work>
    </rdf:RDF>
  </metadata>
  <g
     id="g1">
    <circle
       style="fill:#000000;fill-opacity:1;stroke:none;stroke-width:0.25;stroke-linecap:butt;stroke-linejoin:round;stroke-dasharray:none"
       id="circle185"
       cx="7.7750001"
       cy="3.125"
       r="0.34999999" />
    <circle
       style="fill:#000000;fill-opacity:1;stroke:none;stroke-width:0.25;stroke-linecap:butt;stroke-linejoin:round;stroke-dasharray:none"
       id="circle187"
       cx="7.7750001"
       cy="12.424999"
       r="0.34999999" />
    <circle
       style="fill:#000000;fill-opacity:1;stroke:none;stroke-width:0.25;stroke-linecap:butt;stroke-linejoin:round;stroke-dasharray:none"
       id="circle189"
       cx="11.625"
       cy="6.5999999"
       r="0.34999999" />
    <circle
       style="fill:#000000;fill-opacity:1;stroke:none;stroke-width:0.25;stroke-linecap:butt;stroke-linejoin:round;stroke-dasharray:none"
       id="circle191"
       cx="3.925"
       cy="8.9499998"
       r="0.34999999" />
    <circle
       style="fill:#000000;fill-opacity:1;stroke:none;stroke-width:0.25;stroke-linecap:butt;stroke-linejoin:round;stroke-dasharray:none"
       id="circle193"
       cx="4.8249998"
       cy="5.7750001"
       r="0.34999999" />
    <circle
       style="fill:#000000;fill-opacity:1;stroke:none;stroke-width:0.25;stroke-linecap:butt;stroke-linejoin:round;stroke-dasharray:none"
       id="circle195"
       cx="10.725"
       cy="9.7749996"
       r="0.34999999" />
    <circle
       style="fill:#000000;fill-opacity:1;stroke:none;stroke-width:0.25;stroke-linecap:butt;stroke-linejoin:round;stroke-dasharray:none"
       id="circle197"
       cx="10.388173"
       cy="4.3618274"
       r="0.34999999" />
    <circle
       style="fill:#000000;fill-opacity:1;stroke:none;stroke-width:0.25;stroke-linecap:butt;stroke-linejoin:round;stroke-dasharray:none"
       id="circle199"
       cx="5.1618271"
       cy="11.188172"
       r="0.34999999" />
  </g>
  <g
     id="g3">
    <path
       style="color:#000000;fill:#000000;stroke-linecap:round;stroke-linejoin:round;-inkscape-stroke:none"
       d="m 8.2636719,0.00585938 a 0.125,0.125 0 0 0 -0.095703,0.0078125 0.125,0.125 0 0 0 -0.054687,0.16796874 L 10.277344,4.4179687 a 0.1250125,0.1250125 0 0 0 0.228515,-0.015625 l 1.4375,-4.23632808 A 0.125,0.125 0 0 0 11.865234,0.00585938 0.125,0.125 0 0 0 11.707031,0.08398437 L 10.365234,4.0410156 8.3359375,0.06835937 A 0.125,0.125 0 0 0 8.2636719,0.00585938 Z"
       id="path170" />
    <path
       style="color:#000000;fill:#000000;stroke-linecap:round;stroke-linejoin:round;-inkscape-stroke:none"
       d="m 14.576172,0.01171875 a 0.125,0.125 0 0 0 -0.166016,0.0625 L 11.511719,6.5488281 a 0.125,0.125 0 0 0 0.0625,0.1660156 0.125,0.125 0 0 0 0.164062,-0.064453 l 2.900391,-6.47460935 a 0.125,0.125 0 0 0 -0.0625,-0.1640626 z"
       id="path171" />
    <path
       style="color:#000000;fill:#000000;stroke-linecap:round;stroke-linejoin:round;-inkscape-stroke:none"
       d="m 15.408203,9.0019531 -4.701172,0.6484375 a 0.12513728,0.12513728 0 0 0 0.01172,0.25 L 15.41797,10.150391 A 0.125,0.125 0 0 0 15.550781,10.03125 0.125,0.125 0 0 0 15.431641,9.9003906 L 12.033203,9.71875 15.441406,9.2480469 a 0.125,0.125 0 0 0 0.107422,-0.140625 0.125,0.125 0 0 0 -0.140625,-0.1054688 z"
       id="path172" />
    <path
       style="color:#000000;fill:#000000;stroke-linecap:round;stroke-linejoin:round;-inkscape-stroke:none"
       d="m 10.701172,9.6523438 a 0.125,0.125 0 0 0 -0.09961,0.1464843 l 1.101562,5.6503909 a 0.125,0.125 0 0 0 0.146484,0.09766 0.125,0.125 0 0 0 0.09766,-0.146484 l -1.09961,-5.6484379 a 0.125,0.125 0 0 0 -0.146484,-0.099609 z"
       id="path173" />
    <path
       style="color:#000000;fill:#000000;stroke-linecap:round;stroke-linejoin:round;-inkscape-stroke:none"
       d="m 5.1640625,11.0625 a 0.1250125,0.1250125 0 0 0 -0.1210938,0.08594 l -1.4355468,4.236328 a 0.125,0.125 0 0 0 0.078125,0.158203 0.125,0.125 0 0 0 0.1582031,-0.07813 l 1.3105469,-3.867188 1.1503906,3.863282 a 0.125,0.125 0 0 0 0.15625,0.08398 0.125,0.125 0 0 0 0.083984,-0.15625 L 5.28125,11.152344 A 0.1250125,0.1250125 0 0 0 5.1640625,11.0625 Z"
       id="path174" />
    <path
       style="color:#000000;fill:#000000;stroke-linecap:round;stroke-linejoin:round;-inkscape-stroke:none"
       d="m 3.9609375,8.8300781 a 0.125,0.125 0 0 0 -0.15625,0.083984 l -2,6.4746099 a 0.125,0.125 0 0 0 0.083984,0.15625 0.125,0.125 0 0 0 0.15625,-0.08398 l 2,-6.4746103 a 0.125,0.125 0 0 0 -0.083984,-0.15625 z"
       id="path175" />
    <path
       style="color:#000000;fill:#000000;stroke-linecap:round;stroke-linejoin:round;-inkscape-stroke:none"
       d="M 1.9824219,0.01367188 A 0.125,0.125 0 0 0 1.8144531,0.06835937 0.125,0.125 0 0 0 1.8671875,0.23632813 L 7.71875,3.2363281 A 0.125,0.125 0 0 0 7.8867187,3.1816406 0.125,0.125 0 0 0 7.8320312,3.0136719 Z"
       id="path169-7" />
    <path
       style="color:#000000;fill:#000000;stroke-linecap:round;stroke-linejoin:round;-inkscape-stroke:none"
       d="m 0.03613281,0.9375 a 0.125,0.125 0 0 0 0,0.1757812 L 4.6318359,5.7597656 0.05175781,9.0234375 a 0.125,0.125 0 0 0 -0.0292969,0.1738281 0.125,0.125 0 0 0 0.1757813,0.029297 L 4.8974609,5.8769531 A 0.1250125,0.1250125 0 0 0 4.9130859,5.6875 l -4.69921869,-4.75 a 0.125,0.125 0 0 0 -0.1777344,0 z"
       id="path168" />
  </g>
</svg>
