<?xml version="1.0" encoding="UTF-8" standalone="no"?>
<svg
   width="15.55mm"
   height="15.55mm"
   viewBox="0 0 15.55 15.55"
   version="1.1"
   id="svg109"
   sodipodi:docname="bond23x-p.svg"
   inkscape:version="1.3.2 (091e20ef0f, 2023-11-25)"
   xmlns:inkscape="http://www.inkscape.org/namespaces/inkscape"
   xmlns:sodipodi="http://sodipodi.sourceforge.net/DTD/sodipodi-0.dtd"
   xmlns="http://www.w3.org/2000/svg"
   xmlns:svg="http://www.w3.org/2000/svg"
   xmlns:rdf="http://www.w3.org/1999/02/22-rdf-syntax-ns#"
   xmlns:cc="http://creativecommons.org/ns#"
   xmlns:dc="http://purl.org/dc/elements/1.1/">
  <defs
     id="defs109">
    <inkscape:path-effect
       effect="offset"
       id="path-effect165"
       is_visible="true"
       lpeversion="1.2"
       linejoin_type="round"
       unit="mm"
       offset="-0.2"
       miter_limit="4"
       attempt_force_join="false"
       update_on_knot_move="true" />
    <inkscape:path-effect
       effect="offset"
       id="path-effect164"
       is_visible="true"
       lpeversion="1.2"
       linejoin_type="round"
       unit="mm"
       offset="0.4"
       miter_limit="4"
       attempt_force_join="false"
       update_on_knot_move="true" />
    <inkscape:path-effect
       effect="offset"
       id="path-effect2"
       is_visible="true"
       lpeversion="1.2"
       linejoin_type="round"
       unit="mm"
       offset="-0.8"
       miter_limit="4"
       attempt_force_join="false"
       update_on_knot_move="true" />
    <inkscape:path-effect
       effect="offset"
       id="path-effect1"
       is_visible="true"
       lpeversion="1.2"
       linejoin_type="round"
       unit="mm"
       offset="1"
       miter_limit="4"
       attempt_force_join="false"
       update_on_knot_move="true" />
    <inkscape:path-effect
       effect="offset"
       id="path-effect678"
       is_visible="true"
       lpeversion="1.2"
       linejoin_type="miter"
       unit="mm"
       offset="0"
       miter_limit="4"
       attempt_force_join="false"
       update_on_knot_move="true" />
    <inkscape:path-effect
       effect="offset"
       id="path-effect653"
       is_visible="true"
       lpeversion="1.2"
       linejoin_type="miter"
       unit="mm"
       offset="0"
       miter_limit="4"
       attempt_force_join="false"
       update_on_knot_move="true" />
  </defs>
  <sodipodi:namedview
     id="namedview109"
     pagecolor="#ffffff"
     bordercolor="#666666"
     borderopacity="1.0"
     inkscape:showpageshadow="2"
     inkscape:pageopacity="0.0"
     inkscape:pagecheckerboard="0"
     inkscape:deskcolor="#d1d1d1"
     inkscape:document-units="mm"
     inkscape:zoom="17.287245"
     inkscape:cx="29.356904"
     inkscape:cy="29.385827"
     inkscape:window-width="1920"
     inkscape:window-height="1216"
     inkscape:window-x="0"
     inkscape:window-y="0"
     inkscape:window-maximized="1"
     inkscape:current-layer="svg109" />
  <title
     id="title1">Exported SVG</title>
  <style
     id="style1"><![CDATA[
polygon {
shape-rendering:crispEdges;
stroke-width:16.426968;
}
.s0 {
stroke:#000000;
stroke-width:11.485752;
stroke-linecap:round;
stroke-linejoin:round;
fill:none;
}
.s1 {
stroke:#000000;
stroke-width:11.485752;
stroke-linecap:round;
stroke-linejoin:round;
fill:none;
}
.s2 {
stroke:#19b219;
stroke-width:11.485752;
stroke-linecap:round;
stroke-linejoin:round;
fill:none;
}
.s3 {
stroke:#7f4c00;
stroke-width:11.485752;
stroke-linecap:round;
stroke-linejoin:round;
fill:none;
}
.s4 {
stroke:#00cc00;
stroke-width:11.485752;
stroke-linecap:round;
stroke-linejoin:round;
fill:none;
}
.s5 {
stroke:#000000;
stroke-width:7.657168;
stroke-linecap:round;
stroke-linejoin:round;
fill:none;
}
.s6 {
stroke:#ff19ff;
stroke-width:7.657168;
stroke-linecap:round;
stroke-linejoin:round;
fill:none;
}
.s7 {
stroke:#ff0000;
stroke-width:11.485752;
stroke-linecap:round;
stroke-linejoin:round;
fill:none;
}
.s8 {
stroke:#ffff00;
stroke-width:11.485752;
stroke-linecap:round;
stroke-linejoin:round;
fill:none;
}
.s9 {
stroke:#001919;
stroke-width:7.657168;
stroke-linecap:round;
stroke-linejoin:round;
fill:none;
}
.sa {
stroke:#006666;
stroke-width:7.657168;
stroke-linecap:round;
stroke-linejoin:round;
fill:none;
}
.sb {
stroke:#00ffff;
stroke-width:22.971504;
stroke-linecap:round;
stroke-linejoin:round;
fill:none;
}
.sc {
stroke:#ff0000;
stroke-width:61.257344;
stroke-linecap:round;
stroke-linejoin:round;
fill:none;
}
.sd {
stroke:#191919;
stroke-width:7.657168;
stroke-linecap:round;
stroke-linejoin:round;
fill:none;
}
.se {
stroke:#000000;
stroke-width:7.657168;
stroke-linecap:round;
stroke-linejoin:round;
stroke-dasharray:114.858,114.858;
fill:none;
}
.sf {
stroke:#000000;
stroke-width:22.971504;
stroke-linecap:round;
stroke-linejoin:round;
fill:none;
}
]]></style>
  <path
     style="color:#000000;fill:#000000;stroke-linejoin:round;-inkscape-stroke:none"
     d="m 7.5432088,13.595553 -0.019637,0.650606 0.2501139,0.0078 0.01912,-0.650606 z"
     id="path58" />
  <path
     style="color:#000000;fill:#000000;stroke-linejoin:round;-inkscape-stroke:none"
     d="m 8.4744181,13.575916 -0.2495971,0.02377 0.060461,0.646472 0.2501139,-0.02326 z"
     id="path57" />
  <path
     style="color:#000000;fill:#000000;stroke-linejoin:round;-inkscape-stroke:none"
     d="m 6.865214,13.542843 -0.1012858,0.642854 0.2480469,0.03876 0.099219,-0.642338 z"
     id="path56" />
  <path
     style="color:#000000;fill:#000000;stroke-linejoin:round;-inkscape-stroke:none"
     d="m 9.1503459,13.496334 -0.2439128,0.05426 0.1405599,0.635103 0.2439128,-0.05478 z"
     id="path55" />
  <path
     style="color:#000000;fill:#000000;stroke-linejoin:round;-inkscape-stroke:none"
     d="m 9.8164551,13.367143 -0.234611,0.08423 0.219108,0.611333 0.2340939,-0.08423 z"
     id="path54" />
  <path
     style="color:#000000;fill:#000000;stroke-linejoin:round;-inkscape-stroke:none"
     d="m 5.5314453,13.283427 -0.2578654,0.597379 0.2304769,0.09767 0.2578654,-0.595829 z"
     id="path53" />
  <path
     style="color:#000000;fill:#000000;stroke-linejoin:round;-inkscape-stroke:none"
     d="m 4.8865234,13.07207 -0.3317627,0.558623 0.214974,0.129191 0.3317627,-0.558623 z"
     id="path52" />
  <path
     style="color:#000000;fill:#000000;stroke-linejoin:round;-inkscape-stroke:none"
     d="m 11.55485,12.41578 -0.201538,0.148828 0.38499,0.523482 0.201021,-0.146761 z"
     id="path51" />
  <path
     style="color:#000000;fill:#000000;stroke-linejoin:round;-inkscape-stroke:none"
     d="m 10.730611,12.404411 -0.205155,0.142627 0.74414,1.080037 0.205156,-0.142627 z"
     id="path50" />
  <path
     style="color:#000000;fill:#000000;stroke-linejoin:round;-inkscape-stroke:none"
     d="M 7.775236,12.075232 A 0.34999999,0.34999999 0 0 0 7.4248698,12.425081 0.34999999,0.34999999 0 0 0 7.775236,12.774931 0.34999999,0.34999999 0 0 0 8.1250854,12.425081 0.34999999,0.34999999 0 0 0 7.775236,12.075232 Z"
     id="path49" />
  <path
     style="color:#000000;fill:#000000;stroke-linejoin:round;-inkscape-stroke:none"
     d="m 11.927954,11.843722 -0.176217,0.177766 0.459404,0.458887 0.177767,-0.177767 z"
     id="path48" />
  <path
     style="color:#000000;fill:#000000;stroke-linejoin:round;-inkscape-stroke:none"
     d="m 3.9454956,11.605493 -0.8459432,0.804602 0.1720825,0.181901 0.8454265,-0.805119 z"
     id="path47" />
  <path
     style="color:#000000;fill:#000000;stroke-linejoin:round;-inkscape-stroke:none"
     d="m 12.121224,11.390519 -0.160197,0.19327 0.499711,0.414445 0.160197,-0.19172 z"
     id="path46" />
  <path
     style="color:#000000;fill:#000000;stroke-linejoin:round;-inkscape-stroke:none"
     d="m 3.1796509,11.054622 -0.5508708,0.343649 0.1307414,0.211356 0.5529378,-0.344165 z"
     id="path45" />
  <path
     style="color:#000000;fill:#000000;stroke-linejoin:round;-inkscape-stroke:none"
     d="m 12.287105,10.927498 -0.142627,0.205156 0.535368,0.371037 0.142627,-0.206706 z"
     id="path44" />
  <path
     style="color:#000000;fill:#000000;stroke-linejoin:round;-inkscape-stroke:none"
     d="m 5.1619588,10.838098 a 0.34999999,0.34999999 0 0 0 -0.3503662,0.34985 0.34999999,0.34999999 0 0 0 0.3503662,0.350366 0.34999999,0.34999999 0 0 0 0.3498495,-0.350366 0.34999999,0.34999999 0 0 0 -0.3498495,-0.34985 z"
     id="path43" />
  <path
     style="color:#000000;fill:#000000;stroke-linejoin:round;-inkscape-stroke:none"
     d="m 3.0607951,10.607621 -0.5782593,0.29869 0.1152385,0.222725 0.5782592,-0.299206 z"
     id="path42" />
  <path
     style="color:#000000;fill:#000000;stroke-linejoin:round;-inkscape-stroke:none"
     d="m 12.429732,10.457243 -0.125057,0.216524 0.564307,0.322461 0.125057,-0.217041 z"
     id="path41" />
  <path
     style="color:#000000;fill:#000000;stroke-linejoin:round;-inkscape-stroke:none"
     d="M 2.9610596,10.156486 2.3610962,10.40815 2.4587646,10.638627 3.058728,10.386963 Z"
     id="path40" />
  <path
     style="color:#000000;fill:#000000;stroke-linejoin:round;-inkscape-stroke:none"
     d="m 12.547038,9.9787191 -0.10387,0.2263429 0.588078,0.273368 0.10542,-0.226343 z"
     id="path39" />
  <path
     style="color:#000000;fill:#000000;stroke-linejoin:round;-inkscape-stroke:none"
     d="M 2.8809611,9.7012166 2.2634277,9.9084391 2.3435262,10.1446 2.9589925,9.9373779 Z"
     id="path38" />
  <path
     style="color:#000000;fill:#000000;stroke-linejoin:round;-inkscape-stroke:none"
     d="m 12.642639,9.4960612 -0.08578,0.234611 0.611332,0.2242757 0.08578,-0.2340942 z"
     id="path37" />
  <path
     style="color:#000000;fill:#000000;stroke-linejoin:round;-inkscape-stroke:none"
     d="m 10.724927,9.4247477 a 0.34999999,0.34999999 0 0 0 -0.34985,0.3503662 0.34999999,0.34999999 0 0 0 0.34985,0.3498491 0.34999999,0.34999999 0 0 0 0.349849,-0.3498491 0.34999999,0.34999999 0 0 0 -0.349849,-0.3503662 z"
     id="path36" />
  <path
     style="color:#000000;fill:#000000;stroke-linejoin:round;-inkscape-stroke:none"
     d="m 2.8184326,9.2423299 -0.6289022,0.160197 0.060461,0.2418457 0.6309692,-0.160197 z"
     id="path35" />
  <path
     style="color:#000000;fill:#000000;stroke-linejoin:round;-inkscape-stroke:none"
     d="M 2.7755412,8.7834432 2.1368205,8.8945475 2.1797119,9.1405273 2.8184326,9.029423 Z"
     id="path34" />
  <path
     style="color:#000000;fill:#000000;stroke-linejoin:round;-inkscape-stroke:none"
     d="M 3.924825,8.5999919 A 0.34999999,0.34999999 0 0 0 3.5749756,8.9498413 0.34999999,0.34999999 0 0 0 3.924825,9.3002075 0.34999999,0.34999999 0 0 0 4.2751912,8.9498413 0.34999999,0.34999999 0 0 0 3.924825,8.5999919 Z"
     id="path33" />
  <path
     style="color:#000000;fill:#000000;stroke-linejoin:round;-inkscape-stroke:none"
     d="M 2.75177,8.3224894 2.1052979,8.3850179 2.129069,8.6346151 2.7770915,8.5720866 Z"
     id="path32" />
  <path
     style="color:#000000;fill:#000000;stroke-linejoin:round;-inkscape-stroke:none"
     d="m 11.937256,7.9431844 -0.02532,0.2480469 1.504301,0.1581299 0.02687,-0.2480469 z"
     id="path31" />
  <path
     style="color:#000000;fill:#000000;stroke-linejoin:round;-inkscape-stroke:none"
     d="m 12.802836,7.5432088 -0.0062,0.2495972 0.650606,0.013953 0.0057,-0.2501139 z"
     id="path30" />
  <path
     style="color:#000000;fill:#000000;stroke-linejoin:round;-inkscape-stroke:none"
     d="m 2.109432,7.3669922 -0.013953,0.2501139 1.5234213,0.080099 0.011885,-0.2501139 z"
     id="path29" />
  <path
     style="color:#000000;fill:#000000;stroke-linejoin:round;-inkscape-stroke:none"
     d="m 13.437423,7.0155924 -0.64854,0.037207 0.01395,0.2501139 0.65009,-0.037207 z"
     id="path28" />
  <path
     style="color:#000000;fill:#000000;stroke-linejoin:round;-inkscape-stroke:none"
     d="m 2.146639,6.8595296 -0.031523,0.2480469 0.6444051,0.081649 0.031523,-0.2480469 z"
     id="path27" />
  <path
     style="color:#000000;fill:#000000;stroke-linejoin:round;-inkscape-stroke:none"
     d="m 13.396598,6.4745402 -0.642855,0.089917 0.03359,0.2480469 0.644405,-0.089917 z"
     id="path26" />
  <path
     style="color:#000000;fill:#000000;stroke-linejoin:round;-inkscape-stroke:none"
     d="M 2.2029663,6.3536174 2.1543905,6.5995972 2.7910441,6.7282715 2.83962,6.4843587 Z"
     id="path25" />
  <path
     style="color:#000000;fill:#000000;stroke-linejoin:round;-inkscape-stroke:none"
     d="M 11.62513,6.2497477 A 0.34999999,0.34999999 0 0 0 11.274764,6.6001139 0.34999999,0.34999999 0 0 0 11.62513,6.9499634 0.34999999,0.34999999 0 0 0 11.97498,6.6001139 0.34999999,0.34999999 0 0 0 11.62513,6.2497477 Z"
     id="path24" />
  <path
     style="color:#000000;fill:#000000;stroke-linejoin:round;-inkscape-stroke:none"
     d="m 13.329936,5.9376221 -0.634587,0.1405599 0.05478,0.2439127 0.634587,-0.1405599 z"
     id="path23" />
  <path
     style="color:#000000;fill:#000000;stroke-linejoin:round;-inkscape-stroke:none"
     d="M 2.2830648,5.8513224 2.2148519,6.0916178 2.83962,6.2693848 2.9083496,6.0290894 Z"
     id="path22" />
  <path
     style="color:#000000;fill:#000000;stroke-linejoin:round;-inkscape-stroke:none"
     d="M 4.8250285,5.4249919 A 0.34999999,0.34999999 0 0 0 4.475179,5.7748413 0.34999999,0.34999999 0 0 0 4.8250285,6.1252075 0.34999999,0.34999999 0 0 0 5.1748779,5.7748413 0.34999999,0.34999999 0 0 0 4.8250285,5.4249919 Z"
     id="path21" />
  <path
     style="color:#000000;fill:#000000;stroke-linejoin:round;-inkscape-stroke:none"
     d="m 13.238468,5.4043213 -0.62115,0.1912028 0.0739,0.2402954 0.621151,-0.1932699 z"
     id="path20" />
  <path
     style="color:#000000;fill:#000000;stroke-linejoin:round;-inkscape-stroke:none"
     d="m 2.3848674,5.3536784 -0.085783,0.2340942 0.6092651,0.2247925 0.08785,-0.234611 z"
     id="path19" />
  <path
     style="color:#000000;fill:#000000;stroke-linejoin:round;-inkscape-stroke:none"
     d="m 13.119096,4.8751546 -0.603581,0.2439128 0.09405,0.2304769 0.603581,-0.2423625 z"
     id="path18" />
  <path
     style="color:#000000;fill:#000000;stroke-linejoin:round;-inkscape-stroke:none"
     d="M 2.5099243,4.861202 2.4060547,5.0880615 2.9961995,5.3593628 3.1016195,5.13302 Z"
     id="path17" />
  <path
     style="color:#000000;fill:#000000;stroke-linejoin:round;-inkscape-stroke:none"
     d="M 2.6582357,4.3749268 2.5373128,4.5935181 3.1036865,4.9102946 3.2266764,4.6911865 Z"
     id="path16" />
  <path
     style="color:#000000;fill:#000000;stroke-linejoin:round;-inkscape-stroke:none"
     d="M 12.974402,4.3537394 11.863359,4.9123617 11.97653,5.1366374 13.086023,4.5780151 Z"
     id="path15" />
  <path
     style="color:#000000;fill:#000000;stroke-linejoin:round;-inkscape-stroke:none"
     d="M 10.387996,4.0116414 A 0.34999999,0.34999999 0 0 0 10.038147,4.3620076 0.34999999,0.34999999 0 0 0 10.387996,4.7118571 0.34999999,0.34999999 0 0 0 10.738363,4.3620076 0.34999999,0.34999999 0 0 0 10.387996,4.0116414 Z"
     id="path14" />
  <path
     style="color:#000000;fill:#000000;stroke-linejoin:round;-inkscape-stroke:none"
     d="M 2.8339355,3.896403 2.6954427,4.1056925 3.2344279,4.4669108 3.3729207,4.2576213 Z"
     id="path13" />
  <path
     style="color:#000000;fill:#000000;stroke-linejoin:round;-inkscape-stroke:none"
     d="m 12.798702,3.841626 -0.554488,0.3400309 0.132808,0.2129069 0.552421,-0.3400309 z"
     id="path12" />
  <path
     style="color:#000000;fill:#000000;stroke-linejoin:round;-inkscape-stroke:none"
     d="M 3.2597493,2.9724284 3.0876668,3.1543294 3.9377441,3.9553141 4.1093099,3.7734131 Z"
     id="path11" />
  <path
     style="color:#000000;fill:#000000;stroke-linejoin:round;-inkscape-stroke:none"
     d="M 7.775236,2.7750244 A 0.34999999,0.34999999 0 0 0 7.4248698,3.1248739 0.34999999,0.34999999 0 0 0 7.775236,3.4752401 0.34999999,0.34999999 0 0 0 8.1250854,3.1248739 0.34999999,0.34999999 0 0 0 7.775236,2.7750244 Z"
     id="path10" />
  <path
     style="color:#000000;fill:#000000;stroke-linejoin:round;-inkscape-stroke:none"
     d="m 11.654069,2.2618774 -0.371037,0.5333008 0.205156,0.1421102 0.371036,-0.532784 z"
     id="path9" />
  <path
     style="color:#000000;fill:#000000;stroke-linejoin:round;-inkscape-stroke:none"
     d="m 10.978658,1.7440796 -0.318327,0.5663737 0.218592,0.1229899 0.318326,-0.5663737 z"
     id="path8" />
  <path
     style="color:#000000;fill:#000000;stroke-linejoin:round;-inkscape-stroke:none"
     d="M 4.7108236,1.6779338 4.4880981,1.7931722 4.7852376,2.3709147 5.0079631,2.2556763 Z"
     id="path7" />
  <path
     style="color:#000000;fill:#000000;stroke-linejoin:round;-inkscape-stroke:none"
     d="m 5.6720052,1.4216187 -0.2402954,0.070797 0.1834513,0.624768 0.2402954,-0.07028 z"
     id="path6" />
  <path
     style="color:#000000;fill:#000000;stroke-linejoin:round;-inkscape-stroke:none"
     d="M 9.5818441,1.4102498 9.4082113,2.0350179 9.6485067,2.1016805 9.8221395,1.4763957 Z"
     id="path5" />
  <path
     style="color:#000000;fill:#000000;stroke-linejoin:round;-inkscape-stroke:none"
     d="M 6.2678345,1.3497884 6.0234049,1.3983643 6.150529,2.037085 6.3965088,1.9885091 Z"
     id="path4" />
  <path
     style="color:#000000;fill:#000000;stroke-linejoin:round;-inkscape-stroke:none"
     d="M 8.9844645,1.3420369 8.867159,1.9802409 9.1131388,2.0272664 9.2304443,1.3864787 Z"
     id="path3" />
  <path
     style="color:#000000;fill:#000000;stroke-linejoin:round;-inkscape-stroke:none"
     d="m 8.4139567,1.324467 -0.097668,0.642338 0.2459799,0.039274 0.097668,-0.6428548 z"
     id="path2" />
  <path
     style="color:#000000;fill:#000000;stroke-linejoin:round;-inkscape-stroke:none"
     d="M 6.8672811,1.3084473 6.6171672,1.3358358 6.6895142,1.9823079 6.937561,1.9549194 Z"
     id="path1" />
  <path
     style="color:#000000;fill:#000000;stroke-linejoin:round;-inkscape-stroke:none"
     d="m 7.4646606,1.2970785 -0.2495971,0.00568 0.015503,0.6506062 0.2501139,-0.0062 z"
     id="path404" />
  <metadata
     id="metadata109">
    <rdf:RDF>
      <cc:Work
         rdf:about="">
        <dc:title>Exported SVG</dc:title>
      </cc:Work>
    </rdf:RDF>
  </metadata>
</svg>
