M48
; DRILL file {KiCad 8.0.5} date 2024-10-21T17:20:50+0200
; FORMAT={-:-/ absolute / inch / decimal}
; #@! TF.CreationDate,2024-10-21T17:20:50+02:00
; #@! TF.GenerationSoftware,Kicad,Pcbnew,8.0.5
; #@! TF.FileFunction,NonPlated,1,2,NPTH
FMAT,2
INCH
; #@! TA.AperFunction,NonPlated,NPTH,ComponentDrill
T1C0.0402
; #@! TA.AperFunction,NonPlated,NPTH,ComponentDrill
T2C0.0787
%
G90
G05
T1
X0.2492Y1.9835
X0.2492Y1.8835
X0.2492Y1.7835
X0.2492Y1.6835
X0.2492Y1.5835
X0.2492Y1.4835
X0.2492Y1.3835
X0.2492Y1.2835
X0.2492Y1.1835
X0.2492Y1.0835
X0.2492Y0.9835
X0.2492Y0.8835
X0.2492Y0.7835
X0.2492Y0.6835
X0.2492Y0.5835
X0.2492Y0.4835
X0.2492Y0.3835
X0.2492Y0.2835
X0.2492Y0.1835
X0.2492Y0.0835
X0.3492Y1.9835
X0.3492Y1.8835
X0.3492Y1.7835
X0.3492Y1.6835
X0.3492Y1.5835
X0.3492Y1.4835
X0.3492Y1.3835
X0.3492Y1.2835
X0.3492Y1.1835
X0.3492Y1.0835
X0.3492Y0.9835
X0.3492Y0.8835
X0.3492Y0.7835
X0.3492Y0.6835
X0.3492Y0.5835
X0.3492Y0.4835
X0.3492Y0.3835
X0.3492Y0.2835
X0.3492Y0.1835
X0.3492Y0.0835
X1.4224Y1.9835
X1.4224Y1.8835
X1.4224Y1.7835
X1.4224Y1.6835
X1.4224Y1.5835
X1.4224Y1.4835
X1.4224Y1.3835
X1.4224Y1.2835
X1.4224Y1.1835
X1.4224Y1.0835
X1.4224Y0.9835
X1.4224Y0.8835
X1.4224Y0.7835
X1.4224Y0.6835
X1.4224Y0.5835
X1.4224Y0.4835
X1.4224Y0.3835
X1.4224Y0.2835
X1.4224Y0.1835
X1.4224Y0.0835
X1.5224Y1.9835
X1.5224Y1.8835
X1.5224Y1.7835
X1.5224Y1.6835
X1.5224Y1.5835
X1.5224Y1.4835
X1.5224Y1.3835
X1.5224Y1.2835
X1.5224Y1.1835
X1.5224Y1.0835
X1.5224Y0.9835
X1.5224Y0.8835
X1.5224Y0.7835
X1.5224Y0.6835
X1.5224Y0.5835
X1.5224Y0.4835
X1.5224Y0.3835
X1.5224Y0.2835
X1.5224Y0.1835
X1.5224Y0.0835
T2
X0.2992Y1.9335
X0.2992Y0.1335
X1.4724Y1.9335
X1.4724Y0.1335
M30
