M48
; DRILL file {KiCad 8.0.5} date 2024-10-25T04:59:59+0200
; FORMAT={-:-/ absolute / inch / decimal}
; #@! TF.CreationDate,2024-10-25T04:59:59+02:00
; #@! TF.GenerationSoftware,Kicad,Pcbnew,8.0.5
; #@! TF.FileFunction,Plated,1,2,PTH
FMAT,2
INCH
; #@! TA.AperFunction,Plated,PTH,ViaDrill
T1C0.0118
; #@! TA.AperFunction,Plated,PTH,ComponentDrill
T2C0.0118
; #@! TA.AperFunction,Plated,PTH,ComponentDrill
T3C0.0197
; #@! TA.AperFunction,Plated,PTH,ComponentDrill
T4C0.1063
%
G90
G05
T1
X0.0811Y0.2205
X0.1299Y0.252
X0.1299Y0.2165
X0.1301Y0.1227
X0.1575Y2.0276
X0.1614Y1.9291
X0.1614Y1.7283
X0.1614Y1.6299
X0.1614Y1.1339
X0.1614Y1.0315
X0.1654Y1.8307
X0.1654Y1.4409
X0.1654Y1.3425
X0.1654Y1.248
X0.1654Y0.3268
X0.1654Y0.126
X0.1693Y0.5276
X0.1693Y0.4252
X0.1946Y1.1463
X0.2224Y0.5417
X0.2242Y0.3418
X0.2285Y0.745
X0.2477Y0.6398
X0.2992Y0.2512
X0.3346Y0.3256
X0.3858Y1.4409
X0.3858Y1.3386
X0.3898Y1.6289
X0.3898Y1.2441
X0.4213Y1.1457
X0.4252Y0.9449
X0.4252Y0.126
X0.4291Y1.8455
X0.4291Y1.7234
X0.4291Y0.8465
X0.437Y1.1139
X0.4557Y0.5248
X0.4567Y0.1535
X0.4584Y1.5445
X0.4662Y0.3747
X0.4675Y0.3006
X0.4675Y0.5752
X0.4685Y0.8219
X0.4724Y1.8996
X0.4754Y0.9331
X0.4764Y0.4882
X0.4781Y0.4296
X0.4868Y0.231
X0.5059Y0.4508
X0.5116Y0.3466
X0.5591Y0.4449
X0.5866Y0.9331
X0.6159Y0.231
X0.6173Y0.385
X0.6198Y0.3269
X0.6201Y1.5138
X0.622Y1.3839
X0.622Y1.3484
X0.629Y0.2935
X0.63Y0.4189
X0.6374Y0.3568
X0.6389Y0.6225
X0.6417Y0.2562
X0.6575Y1.2873
X0.6575Y0.685
X0.6668Y0.5753
X0.6693Y1.4272
X0.7012Y0.567
X0.7106Y1.4764
X0.7165Y1.4272
X0.7283Y0.685
X0.75Y0.6299
X0.7638Y0.685
X0.7815Y1.4636
X0.7992Y0.685
X0.8346Y0.685
X0.8701Y0.685
X0.877Y1.3819
X0.9055Y1.2854
X0.9055Y0.685
X0.938Y0.5187
X0.9409Y1.3012
X0.9409Y0.685
X0.9626Y1.3819
X0.9764Y1.3012
X0.9764Y0.685
X0.9902Y1.35
X1.011Y1.3012
X1.0118Y0.685
X1.0256Y1.3744
X1.0462Y1.2888
X1.0472Y0.685
X1.0502Y1.3988
X1.051Y0.6282
X1.0643Y0.5842
X1.0768Y1.1909
X1.0827Y1.2874
X1.1112Y1.5266
X1.1179Y1.2874
X1.1181Y0.685
X1.1365Y0.4102
X1.1516Y1.4535
X1.1533Y1.2877
X1.1535Y0.685
X1.1586Y0.3836
X1.172Y0.3491
X1.1812Y1.6478
X1.187Y0.3179
X1.187Y1.7018
X1.187Y1.5433
X1.187Y0.2453
X1.187Y0.2106
X1.1886Y0.2814
X1.189Y1.252
X1.189Y1.0039
X1.189Y0.9331
X1.189Y0.8976
X1.189Y0.8622
X1.189Y0.8268
X1.189Y0.7913
X1.189Y0.7559
X1.189Y0.7205
X1.1919Y1.3002
X1.2047Y1.3465
X1.2641Y0.457
X1.2748Y1.2441
X1.2762Y1.3399
X1.2911Y1.1496
X1.2992Y0.9252
X1.3Y1.6811
X1.3Y1.0787
X1.3031Y1.8819
X1.3031Y1.7795
X1.3071Y0.4843
X1.3071Y0.3071
X1.3386Y1.937
X1.3425Y0.126
X1.3868Y0.628
X1.3882Y1.4563
X1.3898Y0.7283
X1.3976Y1.1213
X1.3976Y0.8307
X1.4016Y0.9331
X1.4025Y0.2224
X1.4044Y0.5237
X1.4409Y1.2256
X1.4566Y1.8562
X1.4611Y1.8039
X1.466Y1.6803
X1.4719Y1.6189
X1.4803Y1.5432
X1.4881Y1.6536
X1.4921Y1.7449
X1.5062Y1.624
X1.5354Y1.2256
X1.5472Y1.5252
X1.5472Y1.1213
X1.5512Y0.9291
X1.5974Y1.4409
X1.6024Y1.6417
X1.6024Y1.5433
X1.6024Y0.126
X1.6031Y0.4417
X1.6063Y1.937
X1.6063Y0.2244
X1.6299Y0.815
X1.6307Y0.3189
X1.6339Y0.7165
X1.6339Y0.6181
X1.6355Y0.4191
X1.6386Y1.4311
X1.6398Y1.25
X1.6417Y1.878
X1.6417Y1.7598
X1.6417Y1.1457
X1.6437Y1.0591
X1.6906Y1.7169
X1.6927Y1.8163
X1.711Y1.7449
T2
X0.7362Y0.9409
X0.7717Y1.065
X0.7849Y0.8518
X0.8878Y1.1693
X0.8878Y0.8031
X0.9907Y1.1206
X1.0039Y0.9075
X1.0394Y1.0325
T3
X0.8071Y0.2904
X0.8081Y1.6486
X0.8304Y0.3467
X0.8304Y0.234
X0.8314Y1.705
X0.8314Y1.5922
X0.8868Y0.3701
X0.8868Y0.2106
X0.8878Y1.7283
X0.8878Y1.5689
X0.9432Y0.3467
X0.9432Y0.234
X0.9442Y1.705
X0.9442Y1.5922
X0.9665Y0.2904
X0.9675Y1.6486
T4
X0.8868Y0.2904
X0.8878Y1.6486
M30
