M48
; DRILL file {KiCad 8.0.5} date 2024-10-21T17:20:50+0200
; FORMAT={-:-/ absolute / inch / decimal}
; #@! TF.CreationDate,2024-10-21T17:20:50+02:00
; #@! TF.GenerationSoftware,Kicad,Pcbnew,8.0.5
; #@! TF.FileFunction,Plated,1,2,PTH
FMAT,2
INCH
; #@! TA.AperFunction,Plated,PTH,ViaDrill
T1C0.0118
; #@! TA.AperFunction,Plated,PTH,ComponentDrill
T2C0.0118
%
G90
G05
T1
X0.0811Y0.2205
X0.1299Y0.252
X0.1299Y0.2165
X0.1301Y0.1227
X0.1575Y2.0276
X0.1614Y1.9291
X0.1614Y1.7283
X0.1614Y1.6299
X0.1614Y1.1339
X0.1614Y1.0315
X0.1654Y1.8307
X0.1654Y1.4409
X0.1654Y1.3425
X0.1654Y1.248
X0.1654Y0.3268
X0.1654Y0.126
X0.1693Y0.5276
X0.1693Y0.4252
X0.1946Y1.1463
X0.2224Y0.5417
X0.2242Y0.3418
X0.2285Y0.745
X0.2477Y0.6398
X0.2992Y0.2512
X0.3346Y0.3256
X0.3858Y1.4409
X0.3858Y1.3386
X0.3898Y1.2441
X0.4213Y1.1457
X0.4252Y0.9449
X0.4252Y0.126
X0.4291Y1.6299
X0.4291Y0.8465
X0.4425Y0.6181
X0.4557Y0.5248
X0.4567Y0.1535
X0.4614Y0.4463
X0.4675Y0.3651
X0.4675Y0.3006
X0.4764Y1.0236
X0.4868Y0.231
X0.4921Y0.5118
X0.4959Y0.432
X0.5039Y1.9291
X0.5224Y0.4542
X0.5669Y1.8819
X0.5669Y1.7835
X0.5669Y1.689
X0.5814Y0.418
X0.5866Y0.9685
X0.5866Y0.7205
X0.622Y1.2874
X0.6251Y0.6225
X0.6452Y0.4217
X0.6472Y1.6266
X0.6477Y1.4356
X0.6575Y1.4016
X0.6575Y0.685
X0.6575Y0.5787
X0.6811Y1.9252
X0.6818Y0.4237
X0.6928Y1.2876
X0.6929Y1.7835
X0.6929Y1.7244
X0.7008Y0.5787
X0.7047Y1.4016
X0.7126Y1.2323
X0.7171Y0.4244
X0.7206Y1.4333
X0.7283Y0.685
X0.7362Y0.6299
X0.751Y1.7835
X0.7518Y0.4244
X0.7598Y1.4016
X0.7638Y1.8386
X0.7638Y0.685
X0.7864Y0.4234
X0.7992Y0.685
X0.8228Y0.4244
X0.8268Y0.3307
X0.8346Y0.685
X0.8371Y1.8165
X0.8588Y0.4236
X0.8661Y1.4055
X0.8701Y0.685
X0.8976Y1.5079
X0.9055Y1.2854
X0.9055Y0.685
X0.9094Y1.6811
X0.9409Y1.3543
X0.9409Y1.2874
X0.9409Y0.685
X0.9761Y1.2874
X0.9764Y1.3819
X0.9764Y0.685
X0.9803Y0.4244
X1.0108Y1.2874
X1.0118Y1.4016
X1.0118Y0.685
X1.015Y0.4244
X1.0315Y1.7835
X1.0462Y1.2883
X1.0472Y0.685
X1.0496Y0.4244
X1.051Y0.6282
X1.0591Y1.5827
X1.0669Y1.1811
X1.0787Y1.8858
X1.0827Y1.2874
X1.0827Y0.5748
X1.0843Y0.4244
X1.0892Y1.4291
X1.0984Y1.6811
X1.1142Y1.5787
X1.1179Y1.2874
X1.1181Y0.685
X1.1189Y0.4244
X1.1533Y1.2877
X1.1535Y0.685
X1.1535Y0.4244
X1.185Y1.7756
X1.1882Y0.4239
X1.189Y0.9331
X1.189Y0.8976
X1.189Y0.8622
X1.189Y0.8268
X1.189Y0.7913
X1.189Y0.7559
X1.189Y0.7205
X1.1908Y1.1794
X1.2047Y1.3465
X1.2244Y1.248
X1.2641Y0.457
X1.2748Y1.2441
X1.2762Y1.3399
X1.2835Y1.1213
X1.2885Y1.0484
X1.2992Y0.9252
X1.3Y1.6811
X1.3031Y1.9165
X1.3031Y1.8819
X1.3031Y1.7795
X1.3071Y0.4843
X1.3071Y0.3071
X1.3386Y1.937
X1.3425Y0.126
X1.3898Y0.7283
X1.3898Y0.6299
X1.3976Y1.1213
X1.3976Y0.8307
X1.3999Y1.446
X1.4016Y0.9331
X1.4025Y0.2224
X1.4044Y0.5237
X1.4409Y1.2256
X1.4504Y1.5484
X1.4614Y1.7032
X1.4702Y1.8176
X1.4719Y1.6189
X1.4881Y1.6536
X1.4921Y1.7449
X1.5061Y1.524
X1.5062Y1.624
X1.5354Y1.2256
X1.5472Y1.1213
X1.5512Y0.9291
X1.6024Y1.6417
X1.6024Y1.5433
X1.6024Y0.126
X1.6031Y0.4417
X1.6063Y1.937
X1.6063Y0.2244
X1.6299Y0.815
X1.6307Y0.3189
X1.6339Y0.7165
X1.6339Y0.6181
X1.6355Y0.4191
X1.6378Y1.1457
X1.6384Y1.0506
X1.6386Y1.2507
X1.6398Y1.0159
X1.6417Y1.878
X1.6417Y1.7598
X1.6583Y1.8123
X1.6906Y1.7205
X1.6927Y1.8163
T2
X0.7362Y0.94
X0.7717Y1.065
X0.7849Y0.8518
X0.8878Y1.1693
X0.8878Y0.8031
X0.9907Y1.1206
X1.0039Y0.9075
X1.0394Y1.0325
M30
