%TF.GenerationSoftware,KiCad,Pcbnew,8.0.5*%
%TF.CreationDate,2024-10-25T04:59:59+02:00*%
%TF.ProjectId,breakout-tt02-cob,62726561-6b6f-4757-942d-747430322d63,2.2b*%
%TF.SameCoordinates,PX2dc6c00PY42c1d80*%
%TF.FileFunction,Legend,Bot*%
%TF.FilePolarity,Positive*%
%FSLAX46Y46*%
G04 Gerber Fmt 4.6, Leading zero omitted, Abs format (unit mm)*
G04 Created by KiCad (PCBNEW 8.0.5) date 2024-10-25 04:59:59*
%MOMM*%
%LPD*%
G01*
G04 APERTURE LIST*
%ADD10C,0.000000*%
%ADD11C,0.700000*%
%ADD12C,1.020000*%
%ADD13C,2.000000*%
%ADD14C,0.800000*%
%ADD15C,5.400000*%
G04 APERTURE END LIST*
D10*
%TO.C,REF\u002A\u002A*%
G36*
X22568289Y28545232D02*
G01*
X22628896Y28543744D01*
X22689502Y28541264D01*
X22750604Y28537792D01*
X22767471Y28536681D01*
X22784339Y28535352D01*
X22818073Y28532169D01*
X22851807Y28528490D01*
X22885542Y28524562D01*
X22896125Y28524562D01*
X23012578Y28509809D01*
X23127759Y28491365D01*
X23241639Y28469263D01*
X23354185Y28443534D01*
X23465367Y28414207D01*
X23575153Y28381315D01*
X23683513Y28344889D01*
X23790416Y28304958D01*
X23790416Y25675000D01*
X24811708Y25675000D01*
X24811708Y24711917D01*
X22152646Y24711917D01*
X22152646Y23931396D01*
X23171291Y23931396D01*
X23171291Y22968313D01*
X20348187Y22968313D01*
X20452517Y22863703D01*
X20561962Y22764326D01*
X20676307Y22670390D01*
X20795333Y22582104D01*
X20918824Y22499679D01*
X21046563Y22423323D01*
X21178333Y22353246D01*
X21313916Y22289657D01*
X21453096Y22232765D01*
X21595656Y22182780D01*
X21741379Y22139910D01*
X21890047Y22104366D01*
X22041443Y22076356D01*
X22195351Y22056090D01*
X22351554Y22043777D01*
X22509834Y22039626D01*
X22663188Y22043517D01*
X22814555Y22055063D01*
X22963746Y22074076D01*
X23110572Y22100366D01*
X23254844Y22133746D01*
X23396372Y22174025D01*
X23534969Y22221014D01*
X23670445Y22274526D01*
X23802611Y22334371D01*
X23931278Y22400360D01*
X24056257Y22472303D01*
X24177360Y22550013D01*
X24294396Y22633300D01*
X24407179Y22721976D01*
X24515518Y22815850D01*
X24619224Y22914735D01*
X24718109Y23018442D01*
X24811983Y23126780D01*
X24900659Y23239563D01*
X24983946Y23356600D01*
X25061656Y23477702D01*
X25133599Y23602682D01*
X25199588Y23731349D01*
X25259433Y23863514D01*
X25312944Y23998990D01*
X25359934Y24137587D01*
X25400213Y24279116D01*
X25433592Y24423387D01*
X25459883Y24570213D01*
X25478896Y24719404D01*
X25490442Y24870771D01*
X25494333Y25024126D01*
X25487889Y25221503D01*
X25468825Y25415497D01*
X25437546Y25605701D01*
X25394453Y25791707D01*
X25339950Y25973109D01*
X25274439Y26149499D01*
X25198325Y26320471D01*
X25112010Y26485618D01*
X25015897Y26644533D01*
X24910389Y26796808D01*
X24795890Y26942038D01*
X24672802Y27079814D01*
X24541528Y27209731D01*
X24402472Y27331380D01*
X24256036Y27444356D01*
X24102625Y27548251D01*
X24102625Y28167375D01*
X24208962Y28111035D01*
X24313112Y28051208D01*
X24414998Y27987972D01*
X24514542Y27921406D01*
X24611666Y27851588D01*
X24706291Y27778597D01*
X24798340Y27702511D01*
X24887734Y27623409D01*
X24974396Y27541369D01*
X25058247Y27456469D01*
X25139211Y27368789D01*
X25217207Y27278406D01*
X25292160Y27185400D01*
X25363990Y27089848D01*
X25432619Y26991830D01*
X25497971Y26891422D01*
X25559965Y26788705D01*
X25618526Y26683757D01*
X25673574Y26576655D01*
X25725032Y26467479D01*
X25772821Y26356307D01*
X25816864Y26243218D01*
X25857083Y26128289D01*
X25893399Y26011600D01*
X25925735Y25893229D01*
X25954012Y25773254D01*
X25978153Y25651754D01*
X25998080Y25528808D01*
X26013714Y25404493D01*
X26024978Y25278889D01*
X26031794Y25152074D01*
X26034083Y25024125D01*
X26029252Y24843158D01*
X26015404Y24664538D01*
X25992760Y24488487D01*
X25961545Y24315228D01*
X25921978Y24144985D01*
X25874284Y23977980D01*
X25818685Y23814436D01*
X25755402Y23654576D01*
X25684659Y23498623D01*
X25606677Y23346799D01*
X25521679Y23199328D01*
X25429887Y23056432D01*
X25331524Y22918334D01*
X25226812Y22785257D01*
X25115974Y22657424D01*
X24999231Y22535058D01*
X24876807Y22418381D01*
X24748923Y22307617D01*
X24615802Y22202988D01*
X24477666Y22104717D01*
X24334738Y22013027D01*
X24187240Y21928141D01*
X24035395Y21850282D01*
X23879424Y21779672D01*
X23719550Y21716535D01*
X23555996Y21661093D01*
X23388984Y21613569D01*
X23218736Y21574186D01*
X23045474Y21543167D01*
X22869422Y21520735D01*
X22690801Y21507112D01*
X22509834Y21502521D01*
X22290718Y21509246D01*
X22075157Y21529155D01*
X21863541Y21561855D01*
X21656263Y21606949D01*
X21453712Y21664042D01*
X21256282Y21732740D01*
X21064363Y21812646D01*
X20878346Y21903365D01*
X20698624Y22004502D01*
X20525588Y22115662D01*
X20359628Y22236449D01*
X20201137Y22366468D01*
X20050506Y22505324D01*
X19908126Y22652621D01*
X19774390Y22807965D01*
X19649687Y22970958D01*
X19610995Y23025900D01*
X19573310Y23081577D01*
X19536648Y23137983D01*
X19501025Y23195110D01*
X19466456Y23252950D01*
X19432956Y23311496D01*
X19400542Y23370739D01*
X19369229Y23430672D01*
X19339032Y23491287D01*
X19309967Y23552577D01*
X19282048Y23614533D01*
X19255293Y23677148D01*
X19229716Y23740414D01*
X19205332Y23804324D01*
X19182158Y23868869D01*
X19160208Y23934042D01*
X21110188Y23934042D01*
X21110188Y26317938D01*
X22150000Y26317938D01*
X22150000Y25675000D01*
X22750604Y25675000D01*
X22750604Y27998042D01*
X22720720Y28000775D01*
X22690618Y28003044D01*
X22660330Y28004878D01*
X22629888Y28006309D01*
X22599321Y28007369D01*
X22568661Y28008087D01*
X22507187Y28008624D01*
X22353832Y28004734D01*
X22202465Y27993187D01*
X22053274Y27974174D01*
X21906448Y27947884D01*
X21762177Y27914505D01*
X21620648Y27874226D01*
X21482051Y27827236D01*
X21346576Y27773724D01*
X21214410Y27713879D01*
X21085743Y27647891D01*
X20960763Y27575947D01*
X20839661Y27498237D01*
X20722624Y27414950D01*
X20609842Y27326275D01*
X20501503Y27232400D01*
X20397796Y27133515D01*
X20298911Y27029809D01*
X20205037Y26921470D01*
X20116362Y26808688D01*
X20033075Y26691651D01*
X19955365Y26570548D01*
X19883421Y26445569D01*
X19817432Y26316902D01*
X19757588Y26184736D01*
X19704076Y26049260D01*
X19657086Y25910663D01*
X19616807Y25769135D01*
X19583428Y25624863D01*
X19557137Y25478037D01*
X19538124Y25328846D01*
X19526578Y25177479D01*
X19522687Y25024125D01*
X19524413Y24922431D01*
X19529550Y24821760D01*
X19538035Y24722143D01*
X19549807Y24623612D01*
X19564803Y24526197D01*
X19582963Y24429929D01*
X19604222Y24334839D01*
X19628521Y24240958D01*
X19072895Y24240958D01*
X19052432Y24335707D01*
X19034696Y24431417D01*
X19019690Y24528057D01*
X19007411Y24625596D01*
X18997861Y24724003D01*
X18991040Y24823248D01*
X18986947Y24923299D01*
X18985583Y25024125D01*
X18990174Y25205092D01*
X19003797Y25383713D01*
X19026229Y25559764D01*
X19057248Y25733022D01*
X19096631Y25903265D01*
X19144155Y26070270D01*
X19199597Y26233814D01*
X19262734Y26393674D01*
X19333344Y26549628D01*
X19411203Y26701451D01*
X19496089Y26848923D01*
X19587779Y26991819D01*
X19686050Y27129916D01*
X19790679Y27262993D01*
X19901443Y27390826D01*
X20018120Y27513192D01*
X20140486Y27629869D01*
X20268319Y27740633D01*
X20401396Y27845262D01*
X20539493Y27943533D01*
X20682389Y28035223D01*
X20829861Y28120109D01*
X20981684Y28197968D01*
X21137638Y28268578D01*
X21297498Y28331715D01*
X21461042Y28387157D01*
X21628047Y28434681D01*
X21798290Y28474064D01*
X21971548Y28505083D01*
X22147599Y28527515D01*
X22326220Y28541138D01*
X22507187Y28545728D01*
X22568289Y28545232D01*
G37*
%TD*%
%LPC*%
D11*
%TO.C,U1*%
X19600000Y27050000D03*
X19936000Y21636000D03*
X25164000Y28464000D03*
X25500000Y23050000D03*
X18700000Y23900000D03*
X22550000Y29700000D03*
X22550000Y20400000D03*
X26400000Y26225000D03*
%TD*%
D12*
%TO.C,CON2*%
X38670000Y50380000D03*
X36130000Y50380000D03*
D13*
X37400000Y49110000D03*
D12*
X38670000Y47840000D03*
X36130000Y47840000D03*
X38670000Y45300000D03*
X36130000Y45300000D03*
X38670000Y42760000D03*
X36130000Y42760000D03*
X38670000Y40220000D03*
X36130000Y40220000D03*
X38670000Y37680000D03*
X36130000Y37680000D03*
X38670000Y35140000D03*
X36130000Y35140000D03*
X38670000Y32600000D03*
X36130000Y32600000D03*
X38670000Y30060000D03*
X36130000Y30060000D03*
X38670000Y27520000D03*
X36130000Y27520000D03*
X38670000Y24980000D03*
X36130000Y24980000D03*
X38670000Y22440000D03*
X36130000Y22440000D03*
X38670000Y19900000D03*
X36130000Y19900000D03*
X38670000Y17360000D03*
X36130000Y17360000D03*
X38670000Y14820000D03*
X36130000Y14820000D03*
X38670000Y12280000D03*
X36130000Y12280000D03*
X38670000Y9740000D03*
X36130000Y9740000D03*
X38670000Y7200000D03*
X36130000Y7200000D03*
X38670000Y4660000D03*
X36130000Y4660000D03*
D13*
X37400000Y3390000D03*
D12*
X38670000Y2120000D03*
X36130000Y2120000D03*
%TD*%
D14*
%TO.C,H2*%
X20500000Y7375000D03*
X21093109Y8806891D03*
X21093109Y5943109D03*
X22525000Y9400000D03*
D15*
X22525000Y7375000D03*
D14*
X22525000Y5350000D03*
X23956891Y8806891D03*
X23956891Y5943109D03*
X24550000Y7375000D03*
%TD*%
%TO.C,H1*%
X20525000Y41875000D03*
X21118109Y43306891D03*
X21118109Y40443109D03*
X22550000Y43900000D03*
D15*
X22550000Y41875000D03*
D14*
X22550000Y39850000D03*
X23981891Y43306891D03*
X23981891Y40443109D03*
X24575000Y41875000D03*
%TD*%
D12*
%TO.C,CON1*%
X8870000Y50380000D03*
X6330000Y50380000D03*
D13*
X7600000Y49110000D03*
D12*
X8870000Y47840000D03*
X6330000Y47840000D03*
X8870000Y45300000D03*
X6330000Y45300000D03*
X8870000Y42760000D03*
X6330000Y42760000D03*
X8870000Y40220000D03*
X6330000Y40220000D03*
X8870000Y37680000D03*
X6330000Y37680000D03*
X8870000Y35140000D03*
X6330000Y35140000D03*
X8870000Y32600000D03*
X6330000Y32600000D03*
X8870000Y30060000D03*
X6330000Y30060000D03*
X8870000Y27520000D03*
X6330000Y27520000D03*
X8870000Y24980000D03*
X6330000Y24980000D03*
X8870000Y22440000D03*
X6330000Y22440000D03*
X8870000Y19900000D03*
X6330000Y19900000D03*
X8870000Y17360000D03*
X6330000Y17360000D03*
X8870000Y14820000D03*
X6330000Y14820000D03*
X8870000Y12280000D03*
X6330000Y12280000D03*
X8870000Y9740000D03*
X6330000Y9740000D03*
X8870000Y7200000D03*
X6330000Y7200000D03*
X8870000Y4660000D03*
X6330000Y4660000D03*
D13*
X7600000Y3390000D03*
D12*
X8870000Y2120000D03*
X6330000Y2120000D03*
%TD*%
%LPD*%
M02*
