%TF.GenerationSoftware,KiCad,Pcbnew,8.0.5*%
%TF.CreationDate,2024-10-21T17:20:50+02:00*%
%TF.ProjectId,breakout-tt02-cob,62726561-6b6f-4757-942d-747430322d63,2.2b*%
%TF.SameCoordinates,PX2dc6c00PY42c1d80*%
%TF.FileFunction,Paste,Top*%
%TF.FilePolarity,Positive*%
%FSLAX46Y46*%
G04 Gerber Fmt 4.6, Leading zero omitted, Abs format (unit mm)*
G04 Created by KiCad (PCBNEW 8.0.5) date 2024-10-21 17:20:50*
%MOMM*%
%LPD*%
G01*
G04 APERTURE LIST*
G04 Aperture macros list*
%AMRoundRect*
0 Rectangle with rounded corners*
0 $1 Rounding radius*
0 $2 $3 $4 $5 $6 $7 $8 $9 X,Y pos of 4 corners*
0 Add a 4 corners polygon primitive as box body*
4,1,4,$2,$3,$4,$5,$6,$7,$8,$9,$2,$3,0*
0 Add four circle primitives for the rounded corners*
1,1,$1+$1,$2,$3*
1,1,$1+$1,$4,$5*
1,1,$1+$1,$6,$7*
1,1,$1+$1,$8,$9*
0 Add four rect primitives between the rounded corners*
20,1,$1+$1,$2,$3,$4,$5,0*
20,1,$1+$1,$4,$5,$6,$7,0*
20,1,$1+$1,$6,$7,$8,$9,0*
20,1,$1+$1,$8,$9,$2,$3,0*%
G04 Aperture macros list end*
%ADD10RoundRect,0.102000X-0.898000X-0.408000X0.898000X-0.408000X0.898000X0.408000X-0.898000X0.408000X0*%
%ADD11RoundRect,0.140000X0.140000X0.170000X-0.140000X0.170000X-0.140000X-0.170000X0.140000X-0.170000X0*%
%ADD12RoundRect,0.140000X-0.140000X-0.170000X0.140000X-0.170000X0.140000X0.170000X-0.140000X0.170000X0*%
%ADD13R,1.100000X0.800000*%
%ADD14R,1.000000X0.800000*%
%ADD15RoundRect,0.140000X0.170000X-0.140000X0.170000X0.140000X-0.170000X0.140000X-0.170000X-0.140000X0*%
%ADD16RoundRect,0.140000X-0.170000X0.140000X-0.170000X-0.140000X0.170000X-0.140000X0.170000X0.140000X0*%
G04 APERTURE END LIST*
D10*
%TO.C,CON2*%
X34550000Y50380000D03*
X40250000Y50380000D03*
X34550000Y47840000D03*
X40250000Y47840000D03*
X34550000Y45300000D03*
X40250000Y45300000D03*
X34550000Y42760000D03*
X40250000Y42760000D03*
X34550000Y40220000D03*
X40250000Y40220000D03*
X34550000Y37680000D03*
X40250000Y37680000D03*
X34550000Y35140000D03*
X40250000Y35140000D03*
X34550000Y32600000D03*
X40250000Y32600000D03*
X34550000Y30060000D03*
X40250000Y30060000D03*
X34550000Y27520000D03*
X40250000Y27520000D03*
X34550000Y24980000D03*
X40250000Y24980000D03*
X34550000Y22440000D03*
X40250000Y22440000D03*
X34550000Y19900000D03*
X40250000Y19900000D03*
X34550000Y17360000D03*
X40250000Y17360000D03*
X34550000Y14820000D03*
X40250000Y14820000D03*
X34550000Y12280000D03*
X40250000Y12280000D03*
X34550000Y9740000D03*
X40250000Y9740000D03*
X34550000Y7200000D03*
X40250000Y7200000D03*
X34550000Y4660000D03*
X40250000Y4660000D03*
X34550000Y2120000D03*
X40250000Y2120000D03*
%TD*%
D11*
%TO.C,C9*%
X32060000Y33700000D03*
X31100000Y33700000D03*
%TD*%
D12*
%TO.C,C2*%
X13040000Y26000000D03*
X14000000Y26000000D03*
%TD*%
D13*
%TO.C,U3*%
X19900000Y13900000D03*
D14*
X22550000Y13900000D03*
D13*
X25200000Y13900000D03*
%TD*%
D15*
%TO.C,C3*%
X16700000Y15440000D03*
X16700000Y16400000D03*
%TD*%
D13*
%TO.C,U2*%
X19900000Y36900000D03*
D14*
X22550000Y36900000D03*
D13*
X25200000Y36900000D03*
%TD*%
D11*
%TO.C,C5*%
X32100000Y23500000D03*
X31140000Y23500000D03*
%TD*%
D15*
%TO.C,C4*%
X27500000Y15540000D03*
X27500000Y16500000D03*
%TD*%
D16*
%TO.C,C1*%
X16700000Y34660000D03*
X16700000Y33700000D03*
%TD*%
D11*
%TO.C,C6*%
X32060000Y30900000D03*
X31100000Y30900000D03*
%TD*%
D16*
%TO.C,C7*%
X17900000Y34660000D03*
X17900000Y33700000D03*
%TD*%
D10*
%TO.C,CON1*%
X4750000Y50380000D03*
X10450000Y50380000D03*
X4750000Y47840000D03*
X10450000Y47840000D03*
X4750000Y45300000D03*
X10450000Y45300000D03*
X4750000Y42760000D03*
X10450000Y42760000D03*
X4750000Y40220000D03*
X10450000Y40220000D03*
X4750000Y37680000D03*
X10450000Y37680000D03*
X4750000Y35140000D03*
X10450000Y35140000D03*
X4750000Y32600000D03*
X10450000Y32600000D03*
X4750000Y30060000D03*
X10450000Y30060000D03*
X4750000Y27520000D03*
X10450000Y27520000D03*
X4750000Y24980000D03*
X10450000Y24980000D03*
X4750000Y22440000D03*
X10450000Y22440000D03*
X4750000Y19900000D03*
X10450000Y19900000D03*
X4750000Y17360000D03*
X10450000Y17360000D03*
X4750000Y14820000D03*
X10450000Y14820000D03*
X4750000Y12280000D03*
X10450000Y12280000D03*
X4750000Y9740000D03*
X10450000Y9740000D03*
X4750000Y7200000D03*
X10450000Y7200000D03*
X4750000Y4660000D03*
X10450000Y4660000D03*
X4750000Y2120000D03*
X10450000Y2120000D03*
%TD*%
D15*
%TO.C,C8*%
X17800000Y15440000D03*
X17800000Y16400000D03*
%TD*%
M02*
