%TF.GenerationSoftware,KiCad,Pcbnew,8.0.5*%
%TF.CreationDate,2024-10-22T14:19:46+02:00*%
%TF.ProjectId,breakout-tt02-cob,62726561-6b6f-4757-942d-747430322d63,2.2b*%
%TF.SameCoordinates,PX2dc6c00PY42c1d80*%
%TF.FileFunction,Legend,Bot*%
%TF.FilePolarity,Positive*%
%FSLAX46Y46*%
G04 Gerber Fmt 4.6, Leading zero omitted, Abs format (unit mm)*
G04 Created by KiCad (PCBNEW 8.0.5) date 2024-10-22 14:19:46*
%MOMM*%
%LPD*%
G01*
G04 APERTURE LIST*
%ADD10C,1.020000*%
%ADD11C,2.000000*%
%ADD12C,0.700000*%
G04 APERTURE END LIST*
%LPC*%
D10*
%TO.C,CON2*%
X38670000Y50380000D03*
X36130000Y50380000D03*
D11*
X37400000Y49110000D03*
D10*
X38670000Y47840000D03*
X36130000Y47840000D03*
X38670000Y45300000D03*
X36130000Y45300000D03*
X38670000Y42760000D03*
X36130000Y42760000D03*
X38670000Y40220000D03*
X36130000Y40220000D03*
X38670000Y37680000D03*
X36130000Y37680000D03*
X38670000Y35140000D03*
X36130000Y35140000D03*
X38670000Y32600000D03*
X36130000Y32600000D03*
X38670000Y30060000D03*
X36130000Y30060000D03*
X38670000Y27520000D03*
X36130000Y27520000D03*
X38670000Y24980000D03*
X36130000Y24980000D03*
X38670000Y22440000D03*
X36130000Y22440000D03*
X38670000Y19900000D03*
X36130000Y19900000D03*
X38670000Y17360000D03*
X36130000Y17360000D03*
X38670000Y14820000D03*
X36130000Y14820000D03*
X38670000Y12280000D03*
X36130000Y12280000D03*
X38670000Y9740000D03*
X36130000Y9740000D03*
X38670000Y7200000D03*
X36130000Y7200000D03*
X38670000Y4660000D03*
X36130000Y4660000D03*
D11*
X37400000Y3390000D03*
D10*
X38670000Y2120000D03*
X36130000Y2120000D03*
%TD*%
D12*
%TO.C,U1*%
X19600000Y27050000D03*
X19936000Y21636000D03*
X25164000Y28464000D03*
X25500000Y23050000D03*
X18700000Y23875000D03*
X22550000Y29700000D03*
X22550000Y20400000D03*
X26400000Y26225000D03*
%TD*%
D10*
%TO.C,CON1*%
X8870000Y50380000D03*
X6330000Y50380000D03*
D11*
X7600000Y49110000D03*
D10*
X8870000Y47840000D03*
X6330000Y47840000D03*
X8870000Y45300000D03*
X6330000Y45300000D03*
X8870000Y42760000D03*
X6330000Y42760000D03*
X8870000Y40220000D03*
X6330000Y40220000D03*
X8870000Y37680000D03*
X6330000Y37680000D03*
X8870000Y35140000D03*
X6330000Y35140000D03*
X8870000Y32600000D03*
X6330000Y32600000D03*
X8870000Y30060000D03*
X6330000Y30060000D03*
X8870000Y27520000D03*
X6330000Y27520000D03*
X8870000Y24980000D03*
X6330000Y24980000D03*
X8870000Y22440000D03*
X6330000Y22440000D03*
X8870000Y19900000D03*
X6330000Y19900000D03*
X8870000Y17360000D03*
X6330000Y17360000D03*
X8870000Y14820000D03*
X6330000Y14820000D03*
X8870000Y12280000D03*
X6330000Y12280000D03*
X8870000Y9740000D03*
X6330000Y9740000D03*
X8870000Y7200000D03*
X6330000Y7200000D03*
X8870000Y4660000D03*
X6330000Y4660000D03*
D11*
X7600000Y3390000D03*
D10*
X8870000Y2120000D03*
X6330000Y2120000D03*
%TD*%
%LPD*%
M02*
