M48
; DRILL file {KiCad 7.0.10-7.0.10~ubuntu22.04.1} date Tue 20 Feb 2024 05:40:54 PM
; FORMAT={-:-/ absolute / metric / decimal}
; #@! TF.CreationDate,2024-02-20T17:40:54-05:00
; #@! TF.GenerationSoftware,Kicad,Pcbnew,7.0.10-7.0.10~ubuntu22.04.1
; #@! TF.FileFunction,Plated,1,2,PTH
FMAT,2
METRIC
; #@! TA.AperFunction,Plated,PTH,ViaDrill
T1C0.300
; #@! TA.AperFunction,Plated,PTH,ComponentDrill
T2C0.300
; #@! TA.AperFunction,Plated,PTH,ViaDrill
T3C0.400
%
G90
G05
T1
X0.65Y31.58
X0.68Y5.8
X1.107Y30.696
X1.3Y0.85
X1.427Y32.312
X2.0Y37.6
X2.02Y10.7
X2.52Y15.987
X2.74Y32.783
X3.026Y18.898
X3.235Y30.257
X3.24Y21.089
X8.0Y29.25
X8.4Y21.42
X11.98Y19.939
X12.431Y25.39
X12.86Y19.913
X12.9Y32.52
X13.67Y24.399
X13.9Y19.18
X14.115Y26.039
X14.12Y22.7
X14.6Y5.4
X15.0Y26.6
X15.4Y17.6
X15.68Y22.5
X15.7Y25.625
X15.758Y27.42
X16.0Y29.8
X16.0Y9.6
X16.8Y15.0
X16.9Y49.4
X17.03Y21.853
X17.05Y26.12
X17.26Y27.875
X17.6Y29.8
X17.7Y4.6
X17.9Y32.9
X18.5Y9.8
X18.82Y35.0
X19.18Y36.2
X19.189Y17.142
X19.46Y17.979
X19.947Y38.053
X20.08Y17.1
X20.48Y30.5
X21.0Y39.6
X21.1Y10.6
X21.46Y27.45
X21.46Y22.35
X21.46Y18.009
X21.62Y33.4
X22.226Y31.987
X22.4Y12.6
X22.808Y17.67
X23.126Y32.018
X23.347Y30.33
X23.5Y14.1
X23.6Y45.2
X24.068Y17.589
X24.094Y30.796
X24.103Y15.098
X24.4Y36.4
X24.4Y0.65
X24.49Y32.049
X24.6Y4.6
X24.62Y19.004
X24.981Y15.042
X25.12Y34.4
X25.171Y18.3
X25.21Y31.541
X25.306Y17.4
X25.5Y33.591
X25.5Y13.8
X25.7Y47.0
X25.784Y30.757
X25.88Y18.909
X26.3Y15.558
X26.417Y18.072
X26.7Y45.4
X27.463Y41.769
X27.5Y43.6
X27.882Y19.368
X28.2Y49.5
X28.2Y17.2
X28.805Y24.628
X28.84Y28.76
X29.047Y48.347
X29.503Y19.922
X29.608Y28.267
X30.379Y24.628
X30.4Y20.0
X30.5Y22.54
X31.4Y27.0
X31.411Y28.74
X31.419Y29.725
X31.6Y42.7
X31.616Y25.992
X31.7Y37.7
X31.849Y22.068
X31.9Y11.6
X32.094Y30.629
X32.1Y32.6
X32.253Y23.348
X32.4Y24.608
X32.4Y7.2
X32.6Y35.0
X33.0Y40.2
X34.0Y19.0
X34.22Y33.72
X34.7Y21.43
X34.83Y31.11
X36.9Y18.2
X36.97Y36.23
X37.59Y28.766
X37.6Y33.3
X37.7Y21.65
X38.0Y24.08
X40.2Y31.4
X40.4Y18.9
X41.75Y30.053
X41.79Y26.497
X41.8Y35.0
X42.272Y24.544
X42.6Y33.9
X42.6Y17.3
X42.882Y40.545
X43.2Y14.1
X43.22Y21.3
X43.4Y47.7
X43.97Y39.245
X44.0Y7.3
X44.325Y45.425
X44.35Y16.329
T2
X0.7Y49.55
X0.7Y45.55
X0.7Y41.55
X0.7Y37.55
X0.7Y33.55
X2.5Y1.8
X3.7Y33.9
X7.6Y33.85
X7.6Y13.6
X7.6Y8.4
X7.6Y1.3
X10.6Y28.8
X12.9Y51.7
X14.85Y28.8
X15.0Y47.0
X15.0Y44.0
X15.0Y40.5
X15.0Y37.0
X15.0Y33.0
X15.1Y1.3
X16.5Y5.3
X16.85Y13.85
X16.85Y10.6
X16.95Y50.35
X17.95Y34.1
X18.8Y5.3
X19.1Y51.7
X19.65Y15.05
X19.95Y39.25
X22.05Y34.45
X22.8Y15.0
X23.2Y1.3
X24.45Y13.4
X24.75Y45.55
X24.75Y40.85
X24.75Y37.55
X25.9Y51.7
X29.4Y49.45
X30.0Y17.0
X30.0Y12.5
X30.0Y9.0
X30.0Y1.5
X31.1Y7.5
X31.7Y40.85
X32.7Y51.7
X32.75Y18.6
X32.8Y5.3
X37.4Y46.5
X37.4Y44.0
X37.4Y8.9
X39.3Y18.6
X41.3Y31.35
X42.5Y15.25
X42.55Y46.4
X42.55Y41.8
X43.15Y6.2
X43.6Y51.7
X44.3Y46.8
T3
X2.7Y12.3
X2.8Y40.2
X2.8Y14.8
X2.9Y17.4
X2.9Y7.2
X3.626Y11.473
X3.75Y51.5
X3.8Y28.9
X3.8Y23.6
X3.834Y49.022
X3.834Y46.482
X3.834Y43.942
X3.834Y41.402
X3.834Y26.2
X3.834Y8.5
X3.834Y3.302
X4.6Y39.1
X4.6Y16.5
X4.6Y13.6
X5.25Y51.5
X5.334Y49.022
X5.334Y46.482
X5.334Y43.942
X5.334Y41.402
X5.334Y28.9
X5.334Y8.5
X5.334Y3.302
X5.5Y26.2
X5.697Y24.005
X9.9Y38.9
X9.913Y16.45
X9.95Y17.87
X10.6Y41.402
X10.6Y8.3
X10.6Y3.2
X11.3Y17.87
X11.398Y16.45
X11.43Y38.9
X12.4Y40.2
X12.4Y7.2
X12.5Y2.1
X33.65Y0.95
X33.694Y49.276
X33.924Y11.34
X33.948Y13.2
X35.15Y0.9
X35.194Y51.562
X35.194Y49.276
X35.448Y13.2
X35.448Y11.34
X39.447Y38.61
X39.523Y25.928
X39.536Y36.576
X39.536Y13.2
X39.536Y11.176
X39.536Y3.302
X39.536Y1.016
X39.65Y24.169
X39.79Y51.562
X39.79Y49.276
X41.036Y38.61
X41.036Y36.576
X41.036Y11.176
X41.036Y3.302
X41.036Y1.016
X41.046Y13.2
X41.08Y24.32
X41.09Y25.855
X41.29Y51.562
X41.29Y49.276
M30
